<svg width="12" height="17" viewBox="0 0 12 17" fill="none" xmlns="http://www.w3.org/2000/svg">
<path d="M11.0031 12.9355L11.0031 12.9356C11.0522 13.0582 11.1013 13.1721 11.1481 13.2808C11.2545 13.5279 11.3494 13.7481 11.4075 13.9835C11.4837 14.2917 11.4588 14.4975 11.3312 14.6684C11.1836 14.8661 10.821 15.1245 9.9581 15.3256C9.10705 15.524 7.84383 15.6496 6.00004 15.6496C4.15625 15.6496 2.89303 15.524 2.04198 15.3256C1.17904 15.1245 0.816513 14.8661 0.668916 14.6684C0.541322 14.4975 0.516376 14.2917 0.592545 13.9835C0.650718 13.7481 0.745583 13.5279 0.85196 13.2808C0.898785 13.1721 0.94784 13.0582 0.996978 12.9356L0.997008 12.9355C1.79587 10.9405 2.65443 9.64161 3.35727 8.57834C3.40071 8.51262 3.44356 8.4478 3.48576 8.38377C4.20136 7.29803 4.80004 6.35217 4.80004 5.09961V2.54961V2.04961H4.30004H3.95004V1.34961H8.05004V2.04961H7.70004H7.20004V2.54961V5.09961C7.20004 6.35217 7.79871 7.29803 8.51432 8.38377C8.55652 8.44779 8.59936 8.51261 8.6428 8.57833C9.34564 9.64161 10.2042 10.9405 11.0031 12.9355ZM10.2361 14.717L10.237 14.7167C10.8116 14.5436 10.9152 13.9374 10.7873 13.5488C10.4763 12.5876 10.0588 11.6642 9.54252 10.7958L9.54191 10.7948C9.47121 10.6765 9.39922 10.5661 9.32416 10.4804C9.26739 10.4156 9.11175 10.2476 8.86057 10.2363C8.58157 10.2237 8.41657 10.4094 8.37023 10.4641C8.32526 10.5171 8.27868 10.5881 8.25267 10.6277C8.24804 10.6348 8.24406 10.6408 8.24086 10.6456C8.17799 10.7397 8.1237 10.8085 8.04163 10.8623C7.96487 10.9126 7.82579 10.9738 7.56234 10.9738C7.37953 10.9738 7.12712 10.864 6.74703 10.6129C6.6423 10.5438 6.52431 10.461 6.39866 10.3728C6.13256 10.1861 5.83211 9.97531 5.55043 9.81864C5.11801 9.57814 4.58113 9.37129 3.9979 9.49548C3.4034 9.62207 2.8986 10.0609 2.45863 10.794L2.45862 10.794C1.7723 11.9376 1.40589 12.9606 1.21317 13.5475C1.08525 13.9341 1.1864 14.5448 1.76399 14.717C2.42709 14.9153 3.66933 15.1196 6.00004 15.1196C8.33075 15.1196 9.57299 14.9153 10.2361 14.717Z" fill="white" stroke="white"/>
</svg>
