<svg width="28" height="28" viewBox="0 0 28 28" fill="none" xmlns="http://www.w3.org/2000/svg">
<g clip-path="url(#clip0_725_88233)">
<path d="M19.8335 12.834C19.8335 16.054 17.2202 18.6673 14.0002 18.6673C10.7802 18.6673 8.16683 16.054 8.16683 12.834H5.8335C5.8335 16.9523 8.8785 20.3357 12.8335 20.9073V24.5007H15.1668V20.9073C19.1218 20.3357 22.1668 16.9523 22.1668 12.834H19.8335Z" fill="white"/>
<path d="M14 16.334C15.9367 16.334 17.5 14.7707 17.5 12.834V5.83398C17.5 3.89732 15.9367 2.33398 14 2.33398C12.0633 2.33398 10.5 3.89732 10.5 5.83398V12.834C10.5 14.7707 12.0633 16.334 14 16.334ZM12.8333 5.83398C12.8333 5.19232 13.3583 4.66732 14 4.66732C14.6417 4.66732 15.1667 5.19232 15.1667 5.83398V12.834C15.1667 13.4757 14.6417 14.0007 14 14.0007C13.3583 14.0007 12.8333 13.4757 12.8333 12.834V5.83398Z" fill="white"/>
<path d="M14 16.334C15.9367 16.334 17.5 14.7707 17.5 12.834L15.1667 12.834C15.1667 13.4173 14.7064 14.0007 14 14.0007C13.2936 14.0007 12.8333 13.4173 12.8333 12.834L10.5 12.834C10.5 14.7707 12.0633 16.334 14 16.334Z" fill="white"/>
</g>
<defs>
<clipPath id="clip0_725_88233">
<rect width="28" height="28" fill="white"/>
</clipPath>
</defs>
</svg>
