<svg width="20" height="16" viewBox="0 0 20 16" fill="none" xmlns="http://www.w3.org/2000/svg">
<path d="M0.782715 1.90625L3.917 3.59196L6.717 3.10911C7.18317 3.02844 7.66146 3.05261 8.11712 3.17987C8.57278 3.30713 8.99437 3.53428 9.35129 3.84482M16.117 10.7591L11.6856 13.9077C11.2098 14.2457 10.6419 14.4299 10.0584 14.4355C9.47478 14.4411 8.90347 14.2679 8.42129 13.9391L0.782715 8.73196" stroke="white" stroke-width="1.4" stroke-linecap="round" stroke-linejoin="round"/>
<path d="M19.1456 8.69977L16.0099 10.8426L11.1442 6.91405L9.35418 8.21548C9.00383 8.46984 8.56845 8.57833 8.13971 8.51811C7.71097 8.45789 7.32233 8.23366 7.05561 7.89262C6.78997 7.5519 6.66671 7.12149 6.71173 6.6918C6.75675 6.26212 6.96654 5.8666 7.29703 5.58834L9.16132 4.02119C9.60321 3.64922 10.1157 3.37041 10.6681 3.20151C11.2205 3.03261 11.8013 2.97711 12.3756 3.03834L15.2799 3.34977L19.1456 1.25977" stroke="white" stroke-width="1.4" stroke-linecap="round" stroke-linejoin="round"/>
<path d="M11.144 6.92346C12.3155 7.96632 13.9755 7.43346 14.5926 6.58203" stroke="white" stroke-width="1.4" stroke-linecap="round" stroke-linejoin="round"/>
</svg>
