<svg width="12" height="12" viewBox="0 0 12 12" fill="none" xmlns="http://www.w3.org/2000/svg">
<path d="M7.11171 4.88827L5.44471 6.55508M10.6057 1.01626C10.6585 0.998067 10.7153 0.995073 10.7696 1.00762C10.8239 1.02017 10.8737 1.04775 10.9131 1.08722C10.9525 1.12668 10.98 1.17644 10.9925 1.2308C11.0049 1.28516 11.0019 1.34193 10.9836 1.39463L7.69183 10.801C7.67213 10.8572 7.63599 10.9063 7.58809 10.9417C7.54019 10.9771 7.48275 10.9974 7.42321 10.9998C7.36368 11.0022 7.30479 10.9866 7.2542 10.9551C7.20361 10.9237 7.16365 10.8777 7.13949 10.8232L5.3508 6.79955C5.32093 6.73249 5.26729 6.67885 5.20022 6.64898L1.17608 4.85993C1.12179 4.8357 1.07602 4.79574 1.04467 4.74522C1.01332 4.6947 0.997848 4.63595 1.00024 4.57655C1.00263 4.51714 1.02279 4.45982 1.05809 4.41199C1.0934 4.36416 1.14224 4.32801 1.19831 4.30822L10.6057 1.01626Z" stroke="white" stroke-width="1.2" stroke-linecap="round" stroke-linejoin="round"/>
</svg>
