<svg width="20" height="16" viewBox="0 0 20 16" fill="none" xmlns="http://www.w3.org/2000/svg">
<mask id="path-1-inside-1_2021_45918" fill="white">
<path d="M19.3751 8.18805C19.3743 7.36018 19.139 6.54947 18.6966 5.84974C18.2542 5.15001 17.6226 4.58987 16.8751 4.23414V4.12555C16.8744 3.32025 16.6144 2.53658 16.1337 1.89048C15.6531 1.24439 14.9771 0.770194 14.206 0.53807C13.4349 0.305946 12.6095 0.328221 11.8521 0.6016C11.0946 0.874978 10.4452 1.38494 10.0001 2.05602C9.55495 1.38494 8.9056 0.874978 8.14813 0.6016C7.39065 0.328221 6.56529 0.305946 5.79417 0.53807C5.02305 0.770194 4.34714 1.24439 3.86645 1.89048C3.38576 2.53658 3.12582 3.32025 3.1251 4.12555V4.23414C2.37692 4.5889 1.74478 5.14869 1.30214 5.84846C0.859488 6.54823 0.624512 7.35925 0.624512 8.18727C0.624512 9.01529 0.859488 9.82631 1.30214 10.5261C1.74478 11.2259 2.37692 11.7856 3.1251 12.1404V12.2505C3.12582 13.0558 3.38576 13.8395 3.86645 14.4856C4.34714 15.1317 5.02305 15.6059 5.79417 15.838C6.56529 16.0702 7.39065 16.0479 8.14813 15.7745C8.9056 15.5011 9.55495 14.9912 10.0001 14.3201C10.4452 14.9912 11.0946 15.5011 11.8521 15.7745C12.6095 16.0479 13.4349 16.0702 14.206 15.838C14.9771 15.6059 15.6531 15.1317 16.1337 14.4856C16.6144 13.8395 16.8744 13.0558 16.8751 12.2505V12.1404C17.6225 11.7849 18.254 11.2251 18.6964 10.5256C19.1389 9.82615 19.3742 9.01569 19.3751 8.18805ZM6.8751 14.7505C6.25865 14.7505 5.66397 14.5226 5.20527 14.1108C4.74658 13.699 4.45621 13.1322 4.38994 12.5193C4.59205 12.5481 4.79594 12.5628 5.0001 12.563H5.6251C5.79086 12.563 5.94983 12.4972 6.06704 12.38C6.18425 12.2628 6.2501 12.1038 6.2501 11.938C6.2501 11.7723 6.18425 11.6133 6.06704 11.4961C5.94983 11.3789 5.79086 11.313 5.6251 11.313H5.0001C4.26225 11.3139 3.5479 11.0537 2.98352 10.5784C2.41913 10.1031 2.04112 9.44348 1.91641 8.71625C1.7917 7.98902 1.92833 7.24112 2.30211 6.60496C2.67589 5.9688 3.26272 5.48542 3.95869 5.24039C4.08047 5.19728 4.18589 5.11749 4.26046 5.012C4.33503 4.90652 4.37508 4.78051 4.3751 4.65133V4.12555C4.3751 3.46251 4.63849 2.82662 5.10733 2.35778C5.57617 1.88894 6.21206 1.62555 6.8751 1.62555C7.53814 1.62555 8.17402 1.88894 8.64287 2.35778C9.11171 2.82662 9.3751 3.46251 9.3751 4.12555V9.45836C8.68878 8.84109 7.79817 8.49987 6.8751 8.50055C6.70934 8.50055 6.55037 8.5664 6.43316 8.68361C6.31595 8.80082 6.2501 8.95979 6.2501 9.12555C6.2501 9.29131 6.31595 9.45028 6.43316 9.56749C6.55037 9.6847 6.70934 9.75055 6.8751 9.75055C7.53814 9.75055 8.17402 10.0139 8.64287 10.4828C9.11171 10.9516 9.3751 11.5875 9.3751 12.2505C9.3751 12.9136 9.11171 13.5495 8.64287 14.0183C8.17402 14.4872 7.53814 14.7505 6.8751 14.7505ZM15.0001 11.313H14.3751C14.2093 11.313 14.0504 11.3789 13.9332 11.4961C13.8159 11.6133 13.7501 11.7723 13.7501 11.938C13.7501 12.1038 13.8159 12.2628 13.9332 12.38C14.0504 12.4972 14.2093 12.563 14.3751 12.563H15.0001C15.2043 12.5628 15.4081 12.5481 15.6103 12.5193C15.5583 12.9995 15.3684 13.4544 15.0635 13.829C14.7585 14.2035 14.3516 14.4817 13.8919 14.6299C13.4322 14.7782 12.9394 14.79 12.4731 14.6641C12.0067 14.5382 11.5869 14.2799 11.2643 13.9205C10.9416 13.561 10.73 13.1158 10.6551 12.6386C10.5801 12.1615 10.6449 11.6728 10.8417 11.2318C11.0386 10.7907 11.359 10.4161 11.7642 10.1532C12.1694 9.89033 12.6421 9.75048 13.1251 9.75055C13.2909 9.75055 13.4498 9.6847 13.567 9.56749C13.6843 9.45028 13.7501 9.29131 13.7501 9.12555C13.7501 8.95979 13.6843 8.80082 13.567 8.68361C13.4498 8.5664 13.2909 8.50055 13.1251 8.50055C12.202 8.49987 11.3114 8.84109 10.6251 9.45836V4.12555C10.6251 3.46251 10.8885 2.82662 11.3573 2.35778C11.8262 1.88894 12.4621 1.62555 13.1251 1.62555C13.7881 1.62555 14.424 1.88894 14.8929 2.35778C15.3617 2.82662 15.6251 3.46251 15.6251 4.12555V4.65133C15.6251 4.78051 15.6652 4.90652 15.7397 5.012C15.8143 5.11749 15.9197 5.19728 16.0415 5.24039C16.7375 5.48542 17.3243 5.9688 17.6981 6.60496C18.0719 7.24112 18.2085 7.98902 18.0838 8.71625C17.9591 9.44348 17.5811 10.1031 17.0167 10.5784C16.4523 11.0537 15.7379 11.3139 15.0001 11.313ZM16.2501 7.25055C16.2501 7.41631 16.1843 7.57528 16.067 7.69249C15.9498 7.8097 15.7909 7.87555 15.6251 7.87555H15.3126C14.5667 7.87555 13.8513 7.57923 13.3239 7.05179C12.7964 6.52434 12.5001 5.80897 12.5001 5.06305V4.75055C12.5001 4.58479 12.5659 4.42582 12.6832 4.30861C12.8004 4.1914 12.9593 4.12555 13.1251 4.12555C13.2909 4.12555 13.4498 4.1914 13.567 4.30861C13.6843 4.42582 13.7501 4.58479 13.7501 4.75055V5.06305C13.7501 5.47745 13.9147 5.87488 14.2077 6.1679C14.5008 6.46093 14.8982 6.62555 15.3126 6.62555H15.6251C15.7909 6.62555 15.9498 6.6914 16.067 6.80861C16.1843 6.92582 16.2501 7.08479 16.2501 7.25055ZM4.6876 7.87555H4.3751C4.20934 7.87555 4.05037 7.8097 3.93316 7.69249C3.81595 7.57528 3.7501 7.41631 3.7501 7.25055C3.7501 7.08479 3.81595 6.92582 3.93316 6.80861C4.05037 6.6914 4.20934 6.62555 4.3751 6.62555H4.6876C5.102 6.62555 5.49943 6.46093 5.79245 6.1679C6.08548 5.87488 6.2501 5.47745 6.2501 5.06305V4.75055C6.2501 4.58479 6.31595 4.42582 6.43316 4.30861C6.55037 4.1914 6.70934 4.12555 6.8751 4.12555C7.04086 4.12555 7.19983 4.1914 7.31704 4.30861C7.43425 4.42582 7.5001 4.58479 7.5001 4.75055V5.06305C7.5001 5.80897 7.20378 6.52434 6.67634 7.05179C6.14889 7.57923 5.43352 7.87555 4.6876 7.87555Z"/>
</mask>
<path d="M19.3751 8.18805C19.3743 7.36018 19.139 6.54947 18.6966 5.84974C18.2542 5.15001 17.6226 4.58987 16.8751 4.23414V4.12555C16.8744 3.32025 16.6144 2.53658 16.1337 1.89048C15.6531 1.24439 14.9771 0.770194 14.206 0.53807C13.4349 0.305946 12.6095 0.328221 11.8521 0.6016C11.0946 0.874978 10.4452 1.38494 10.0001 2.05602C9.55495 1.38494 8.9056 0.874978 8.14813 0.6016C7.39065 0.328221 6.56529 0.305946 5.79417 0.53807C5.02305 0.770194 4.34714 1.24439 3.86645 1.89048C3.38576 2.53658 3.12582 3.32025 3.1251 4.12555V4.23414C2.37692 4.5889 1.74478 5.14869 1.30214 5.84846C0.859488 6.54823 0.624512 7.35925 0.624512 8.18727C0.624512 9.01529 0.859488 9.82631 1.30214 10.5261C1.74478 11.2259 2.37692 11.7856 3.1251 12.1404V12.2505C3.12582 13.0558 3.38576 13.8395 3.86645 14.4856C4.34714 15.1317 5.02305 15.6059 5.79417 15.838C6.56529 16.0702 7.39065 16.0479 8.14813 15.7745C8.9056 15.5011 9.55495 14.9912 10.0001 14.3201C10.4452 14.9912 11.0946 15.5011 11.8521 15.7745C12.6095 16.0479 13.4349 16.0702 14.206 15.838C14.9771 15.6059 15.6531 15.1317 16.1337 14.4856C16.6144 13.8395 16.8744 13.0558 16.8751 12.2505V12.1404C17.6225 11.7849 18.254 11.2251 18.6964 10.5256C19.1389 9.82615 19.3742 9.01569 19.3751 8.18805ZM6.8751 14.7505C6.25865 14.7505 5.66397 14.5226 5.20527 14.1108C4.74658 13.699 4.45621 13.1322 4.38994 12.5193C4.59205 12.5481 4.79594 12.5628 5.0001 12.563H5.6251C5.79086 12.563 5.94983 12.4972 6.06704 12.38C6.18425 12.2628 6.2501 12.1038 6.2501 11.938C6.2501 11.7723 6.18425 11.6133 6.06704 11.4961C5.94983 11.3789 5.79086 11.313 5.6251 11.313H5.0001C4.26225 11.3139 3.5479 11.0537 2.98352 10.5784C2.41913 10.1031 2.04112 9.44348 1.91641 8.71625C1.7917 7.98902 1.92833 7.24112 2.30211 6.60496C2.67589 5.9688 3.26272 5.48542 3.95869 5.24039C4.08047 5.19728 4.18589 5.11749 4.26046 5.012C4.33503 4.90652 4.37508 4.78051 4.3751 4.65133V4.12555C4.3751 3.46251 4.63849 2.82662 5.10733 2.35778C5.57617 1.88894 6.21206 1.62555 6.8751 1.62555C7.53814 1.62555 8.17402 1.88894 8.64287 2.35778C9.11171 2.82662 9.3751 3.46251 9.3751 4.12555V9.45836C8.68878 8.84109 7.79817 8.49987 6.8751 8.50055C6.70934 8.50055 6.55037 8.5664 6.43316 8.68361C6.31595 8.80082 6.2501 8.95979 6.2501 9.12555C6.2501 9.29131 6.31595 9.45028 6.43316 9.56749C6.55037 9.6847 6.70934 9.75055 6.8751 9.75055C7.53814 9.75055 8.17402 10.0139 8.64287 10.4828C9.11171 10.9516 9.3751 11.5875 9.3751 12.2505C9.3751 12.9136 9.11171 13.5495 8.64287 14.0183C8.17402 14.4872 7.53814 14.7505 6.8751 14.7505ZM15.0001 11.313H14.3751C14.2093 11.313 14.0504 11.3789 13.9332 11.4961C13.8159 11.6133 13.7501 11.7723 13.7501 11.938C13.7501 12.1038 13.8159 12.2628 13.9332 12.38C14.0504 12.4972 14.2093 12.563 14.3751 12.563H15.0001C15.2043 12.5628 15.4081 12.5481 15.6103 12.5193C15.5583 12.9995 15.3684 13.4544 15.0635 13.829C14.7585 14.2035 14.3516 14.4817 13.8919 14.6299C13.4322 14.7782 12.9394 14.79 12.4731 14.6641C12.0067 14.5382 11.5869 14.2799 11.2643 13.9205C10.9416 13.561 10.73 13.1158 10.6551 12.6386C10.5801 12.1615 10.6449 11.6728 10.8417 11.2318C11.0386 10.7907 11.359 10.4161 11.7642 10.1532C12.1694 9.89033 12.6421 9.75048 13.1251 9.75055C13.2909 9.75055 13.4498 9.6847 13.567 9.56749C13.6843 9.45028 13.7501 9.29131 13.7501 9.12555C13.7501 8.95979 13.6843 8.80082 13.567 8.68361C13.4498 8.5664 13.2909 8.50055 13.1251 8.50055C12.202 8.49987 11.3114 8.84109 10.6251 9.45836V4.12555C10.6251 3.46251 10.8885 2.82662 11.3573 2.35778C11.8262 1.88894 12.4621 1.62555 13.1251 1.62555C13.7881 1.62555 14.424 1.88894 14.8929 2.35778C15.3617 2.82662 15.6251 3.46251 15.6251 4.12555V4.65133C15.6251 4.78051 15.6652 4.90652 15.7397 5.012C15.8143 5.11749 15.9197 5.19728 16.0415 5.24039C16.7375 5.48542 17.3243 5.9688 17.6981 6.60496C18.0719 7.24112 18.2085 7.98902 18.0838 8.71625C17.9591 9.44348 17.5811 10.1031 17.0167 10.5784C16.4523 11.0537 15.7379 11.3139 15.0001 11.313ZM16.2501 7.25055C16.2501 7.41631 16.1843 7.57528 16.067 7.69249C15.9498 7.8097 15.7909 7.87555 15.6251 7.87555H15.3126C14.5667 7.87555 13.8513 7.57923 13.3239 7.05179C12.7964 6.52434 12.5001 5.80897 12.5001 5.06305V4.75055C12.5001 4.58479 12.5659 4.42582 12.6832 4.30861C12.8004 4.1914 12.9593 4.12555 13.1251 4.12555C13.2909 4.12555 13.4498 4.1914 13.567 4.30861C13.6843 4.42582 13.7501 4.58479 13.7501 4.75055V5.06305C13.7501 5.47745 13.9147 5.87488 14.2077 6.1679C14.5008 6.46093 14.8982 6.62555 15.3126 6.62555H15.6251C15.7909 6.62555 15.9498 6.6914 16.067 6.80861C16.1843 6.92582 16.2501 7.08479 16.2501 7.25055ZM4.6876 7.87555H4.3751C4.20934 7.87555 4.05037 7.8097 3.93316 7.69249C3.81595 7.57528 3.7501 7.41631 3.7501 7.25055C3.7501 7.08479 3.81595 6.92582 3.93316 6.80861C4.05037 6.6914 4.20934 6.62555 4.3751 6.62555H4.6876C5.102 6.62555 5.49943 6.46093 5.79245 6.1679C6.08548 5.87488 6.2501 5.47745 6.2501 5.06305V4.75055C6.2501 4.58479 6.31595 4.42582 6.43316 4.30861C6.55037 4.1914 6.70934 4.12555 6.8751 4.12555C7.04086 4.12555 7.19983 4.1914 7.31704 4.30861C7.43425 4.42582 7.5001 4.58479 7.5001 4.75055V5.06305C7.5001 5.80897 7.20378 6.52434 6.67634 7.05179C6.14889 7.57923 5.43352 7.87555 4.6876 7.87555Z" fill="white" stroke="white" stroke-width="2" mask="url(#path-1-inside-1_2021_45918)"/>
</svg>
