<svg width="73" height="14" viewBox="0 0 73 14" fill="none" xmlns="http://www.w3.org/2000/svg">
<path d="M15.0371 11.7942C15.0371 11.7092 15.0371 11.603 15.0371 11.2632C15.0371 9.78703 14.6972 8.9693 14.3733 8.69319L13.9432 8.33211L14.2618 7.87015C14.6694 7.16234 14.8544 6.34822 14.7928 5.53379V3.40451C14.7928 2.08765 14.4477 1.17966 13.7308 0.638044C13.0359 0.173657 12.2072 -0.0484517 11.3732 0.00616496H0.413574V13.9819H2.26673V9.01709H11.2458C11.6059 9.02923 11.947 9.18168 12.1963 9.44189C12.43 9.69759 12.6105 9.99722 12.7273 10.3233C12.8574 10.6441 12.9276 10.9861 12.9344 11.3322V13.9872H15.0583V13.6739V11.8473M12.9715 5.56034C12.9756 5.77183 12.9352 5.98183 12.8529 6.17668C12.7706 6.37154 12.6482 6.54689 12.4936 6.69135C12.1939 6.96118 11.803 7.1073 11.3998 7.10021H2.26673V1.91773H11.5485C11.7376 1.92239 11.9236 1.96745 12.094 2.04987C12.2643 2.13229 12.4151 2.25018 12.5361 2.39563C12.8004 2.68642 12.9479 3.06465 12.9503 3.45761L12.9715 5.56034Z" fill="black"/>
<path d="M28.041 0.00585938H25.301L16.8052 14.0028H19.1362L20.9735 11.4965H32.0606L33.7279 14.0028H36.2023L28.041 0.00585938ZM21.7487 9.75486L26.602 1.85902L31.3012 9.75486H21.7487Z" fill="black"/>
<path d="M53.5711 12.0912V14.0028H38.2998V0.00585938H53.0083V1.92274H40.0521V5.76181H52.0897V7.67338H40.0521V12.0912H53.5711Z" fill="black"/>
<path d="M72.4745 0.00585938V14.0028H69.4744L58.0687 2.68206V14.0028H55.9341V0.00585938H58.0527L70.3399 12.2665V0.00585938H72.4745Z" fill="black"/>
</svg>
