<svg width="353" height="166" viewBox="0 0 353 166" fill="none" xmlns="http://www.w3.org/2000/svg">
<g filter="url(#filter0_i_2072_68364)">
<rect x="33" y="126" width="177" height="40" rx="16" fill="#24D914"/>
<rect x="34" y="127" width="175" height="38" rx="15" stroke="#3BFF2A" stroke-width="2"/>
<path d="M53.496 146.392V139.8H54.808V146.408C54.808 148.408 53.704 151.192 50.472 151.192C47.24 151.192 46.136 148.376 46.136 146.408V139.8H47.448V146.392C47.448 148.056 48.296 150.008 50.472 150.008C52.648 150.008 53.496 148.056 53.496 146.392ZM63.8095 146.52V151H62.4975V146.664C62.4975 145.336 62.0495 144.296 60.7375 144.104C59.1855 143.832 58.2415 144.984 58.0335 146.52C57.9855 146.952 57.9215 147.688 57.9215 148.456V151H56.6095V143.192H57.9215V143.768C57.9215 144.568 57.6175 145.496 57.6175 145.496H57.8415C58.2735 143.672 59.8415 142.68 61.5215 143.08C63.1375 143.48 63.8095 145.064 63.8095 146.52ZM70.8389 148.584H72.2309C71.8309 149.928 70.7749 151.192 68.7269 151.192C65.9909 151.192 64.9829 148.984 64.9829 147.08C64.9829 145.208 65.9909 143 68.7269 143C70.7749 143 71.8309 144.296 72.2309 145.624H70.8549C70.5509 144.888 69.8949 144.184 68.7269 144.184C66.9509 144.184 66.2949 145.768 66.2949 147.08C66.2949 148.456 66.9509 150.008 68.7269 150.008C69.8949 150.008 70.5349 149.32 70.8389 148.584ZM76.6554 150.184C78.4954 150.184 79.1674 148.536 79.1674 147.096C79.1674 145.656 78.4954 144.008 76.6554 144.008C74.8154 144.008 74.1274 145.656 74.1274 147.096C74.1274 148.536 74.8154 150.184 76.6554 150.184ZM76.6554 143C79.3274 143 80.3354 145.208 80.3354 147.096C80.3354 148.984 79.3274 151.192 76.6554 151.192C73.9674 151.192 72.9754 148.984 72.9754 147.096C72.9754 145.208 73.9674 143 76.6554 143ZM84.6646 148.744L86.7606 143.192H88.0726L85.2086 151H83.3526L80.4886 143.192H81.8006L83.8966 148.744C84.1046 149.304 84.1846 149.816 84.1846 149.816H84.3926C84.3926 149.816 84.4566 149.304 84.6646 148.744ZM91.954 144.088C90.338 144.088 89.618 145.384 89.49 146.536H94.434C94.37 145.464 93.602 144.088 91.954 144.088ZM89.458 147.368C89.506 148.536 90.114 150.104 91.954 150.104C93.218 150.104 93.938 149.416 94.274 148.376H95.554C95.25 149.656 94.242 151.192 91.97 151.192C89.266 151.192 88.226 149 88.226 147.08C88.226 145.192 89.25 143 91.97 143C94.594 143 95.778 145.048 95.698 147.368H89.458ZM101.51 143.192V144.376C99.302 144.376 98.47 146.072 98.47 147.624V151H97.158V144.6C97.158 144.456 97.078 144.376 96.934 144.376H96.15V143.192H97.734C98.07 143.192 98.342 143.4 98.342 143.736C98.342 144.376 98.118 145.64 98.118 145.64H98.342C98.758 144.216 99.814 143.224 101.51 143.192ZM111.373 150.008C114.109 150.008 115.197 147.528 115.197 145.4C115.197 143.272 114.109 140.792 111.373 140.792C108.621 140.792 107.549 143.272 107.549 145.4C107.549 147.528 108.621 150.008 111.373 150.008ZM111.373 139.608C115.069 139.608 116.509 142.728 116.509 145.416C116.509 148.072 115.069 151.192 111.373 151.192C107.677 151.192 106.237 148.072 106.237 145.416C106.237 142.728 107.677 139.608 111.373 139.608ZM124.087 147.096C124.087 145.496 123.207 144.184 121.591 144.184C120.007 144.184 119.095 145.496 119.111 147.096C119.127 148.696 120.007 150.008 121.591 150.008C123.175 150.008 124.087 148.696 124.087 147.096ZM125.399 147.096C125.399 149.112 124.343 151.192 121.959 151.192C120.359 151.192 119.495 150.264 119.095 149.288H118.887C118.887 149.288 119.111 150.12 119.111 151.16V155.448H117.799V143.192H119.111V143.352C119.111 144.136 118.887 144.888 118.887 144.888H119.095C119.495 143.912 120.343 143 121.991 143C124.375 143 125.399 145.08 125.399 147.096ZM132.907 147.096C132.907 145.496 132.027 144.184 130.411 144.184C128.827 144.184 127.915 145.496 127.931 147.096C127.947 148.696 128.827 150.008 130.411 150.008C131.995 150.008 132.907 148.696 132.907 147.096ZM134.219 147.096C134.219 149.112 133.163 151.192 130.779 151.192C129.179 151.192 128.315 150.264 127.915 149.288H127.707C127.707 149.288 127.931 150.12 127.931 151.16V155.448H126.619V143.192H127.931V143.352C127.931 144.136 127.707 144.888 127.707 144.888H127.915C128.315 143.912 129.163 143 130.811 143C133.195 143 134.219 145.08 134.219 147.096ZM138.736 150.184C140.576 150.184 141.248 148.536 141.248 147.096C141.248 145.656 140.576 144.008 138.736 144.008C136.896 144.008 136.208 145.656 136.208 147.096C136.208 148.536 136.896 150.184 138.736 150.184ZM138.736 143C141.408 143 142.416 145.208 142.416 147.096C142.416 148.984 141.408 151.192 138.736 151.192C136.048 151.192 135.056 148.984 135.056 147.096C135.056 145.208 136.048 143 138.736 143ZM148.215 143.192V144.376C146.007 144.376 145.175 146.072 145.175 147.624V151H143.863V144.6C143.863 144.456 143.783 144.376 143.639 144.376H142.855V143.192H144.439C144.775 143.192 145.047 143.4 145.047 143.736C145.047 144.376 144.823 145.64 144.823 145.64H145.047C145.463 144.216 146.519 143.224 148.215 143.192ZM149.684 148.6V144.376H148.548V143.192H149.684V139.8H150.996V143.192H153.204V144.376H150.996V148.584C150.996 149.272 151.524 149.816 152.196 149.816C152.5 149.816 153.108 149.816 153.204 149.816V151C152.804 151 153.188 151 152.068 151C150.548 151 149.684 149.848 149.684 148.6ZM154.119 147.672V143.192H155.431V147.528C155.431 148.856 155.879 149.896 157.191 150.088C158.743 150.36 159.671 149.208 159.895 147.672C159.943 147.24 160.007 146.504 160.007 145.736V143.192H161.319V151H160.007V150.424C160.007 149.624 160.311 148.696 160.311 148.696H160.087C159.655 150.52 158.071 151.512 156.407 151.112C154.791 150.712 154.119 149.128 154.119 147.672ZM170.189 146.52V151H168.877V146.664C168.877 145.336 168.429 144.296 167.117 144.104C165.565 143.832 164.621 144.984 164.413 146.52C164.365 146.952 164.301 147.688 164.301 148.456V151H162.989V143.192H164.301V143.768C164.301 144.568 163.997 145.496 163.997 145.496H164.221C164.653 143.672 166.221 142.68 167.901 143.08C169.517 143.48 170.189 145.064 170.189 146.52ZM173.284 143.704V151H171.972V144.664C171.972 144.504 171.844 144.376 171.684 144.376H171.028V143.192H172.756C173.044 143.192 173.284 143.432 173.284 143.704ZM172.596 140.984C172.964 140.984 173.316 140.664 173.316 140.264C173.316 139.864 172.964 139.544 172.596 139.544C172.196 139.544 171.844 139.864 171.844 140.264C171.844 140.664 172.196 140.984 172.596 140.984ZM175.248 148.6V144.376H174.112V143.192H175.248V139.8H176.56V143.192H178.768V144.376H176.56V148.584C176.56 149.272 177.088 149.816 177.76 149.816C178.064 149.816 178.672 149.816 178.768 149.816V151C178.368 151 178.752 151 177.632 151C176.112 151 175.248 149.848 175.248 148.6ZM181.425 143.704V151H180.113V144.664C180.113 144.504 179.985 144.376 179.825 144.376H179.169V143.192H180.897C181.185 143.192 181.425 143.432 181.425 143.704ZM180.737 140.984C181.105 140.984 181.457 140.664 181.457 140.264C181.457 139.864 181.105 139.544 180.737 139.544C180.337 139.544 179.985 139.864 179.985 140.264C179.985 140.664 180.337 140.984 180.737 140.984ZM186.349 144.088C184.733 144.088 184.013 145.384 183.885 146.536H188.829C188.765 145.464 187.997 144.088 186.349 144.088ZM183.853 147.368C183.901 148.536 184.509 150.104 186.349 150.104C187.613 150.104 188.333 149.416 188.669 148.376H189.949C189.645 149.656 188.637 151.192 186.365 151.192C183.661 151.192 182.621 149 182.621 147.08C182.621 145.192 183.645 143 186.365 143C188.989 143 190.173 145.048 190.093 147.368H183.853ZM197.134 148.664C197.134 150.2 195.838 151.192 193.966 151.192C192.094 151.192 190.798 150.2 190.782 148.68H191.998C192.014 149.688 192.926 150.104 193.966 150.104C194.862 150.104 195.838 149.72 195.838 148.696C195.838 146.44 190.942 148.376 190.942 145.32C190.942 143.912 192.19 143 193.982 143C195.774 143 197.022 143.912 197.022 145.32C197.022 145.368 197.022 145.416 197.022 145.448H195.806C195.806 145.4 195.806 145.368 195.806 145.32C195.806 144.456 194.91 144.088 193.998 144.088C193.134 144.088 192.238 144.44 192.238 145.304C192.238 147.096 197.134 145.368 197.134 148.664Z" fill="white"/>
</g>
<g filter="url(#filter1_i_2072_68364)">
<rect x="215" y="126" width="124" height="40" rx="16" fill="#24D914"/>
<rect x="216" y="127" width="122" height="38" rx="15" stroke="#3BFF2A" stroke-width="2"/>
<path d="M228.952 145.304C228.952 147.384 229.992 149.832 232.712 149.832C235.16 149.832 236.456 147.384 236.456 145.304C236.456 143.224 235.416 140.776 232.712 140.776C229.992 140.776 228.952 143.224 228.952 145.304ZM234.712 150.104C234.712 150.104 235.736 149.816 236.712 149.816H237.736V151H232.712C229.08 151 227.656 147.944 227.656 145.304C227.656 142.664 229.08 139.608 232.712 139.608C236.328 139.608 237.752 142.664 237.752 145.304C237.752 147.576 236.552 149.224 234.712 149.864V150.104ZM239.108 147.672V143.192H240.42V147.528C240.42 148.856 240.868 149.896 242.18 150.088C243.732 150.36 244.66 149.208 244.884 147.672C244.932 147.24 244.996 146.504 244.996 145.736V143.192H246.308V151H244.996V150.424C244.996 149.624 245.3 148.696 245.3 148.696H245.076C244.644 150.52 243.06 151.512 241.396 151.112C239.78 150.712 239.108 149.128 239.108 147.672ZM253.385 146.52C253.081 146.744 252.185 146.968 250.361 147.272C249.657 147.4 248.905 147.864 248.905 148.728C248.905 149.464 249.497 150.024 250.185 150.12C250.857 150.216 251.337 150.2 252.073 149.768C252.793 149.352 253.193 148.664 253.321 148.008C253.353 147.784 253.385 147.464 253.385 147.224V146.52ZM255.609 149.816V151H254.617C254.073 151 253.689 150.616 253.689 150.072C253.689 149.4 253.913 148.776 253.913 148.776H253.689C253.689 148.776 253.273 150.008 252.313 150.616C251.545 151.096 250.681 151.272 249.705 151.16C248.633 151.048 247.641 150.152 247.641 148.904C247.641 147.512 248.569 146.92 249.497 146.696C250.521 146.456 251.465 146.408 252.185 146.248C252.777 146.136 253.385 145.992 253.257 145.416C253.113 144.728 252.345 144.088 251.193 144.088C249.849 144.088 248.985 144.936 248.985 145.912H247.705C247.705 144.408 248.985 143 251.209 143C253.417 143 254.697 144.408 254.697 146.072V149.512C254.697 149.688 254.825 149.816 255.017 149.816H255.609ZM263.795 146.52V151H262.483V146.664C262.483 145.336 262.035 144.296 260.723 144.104C259.171 143.832 258.227 144.984 258.019 146.52C257.971 146.952 257.907 147.688 257.907 148.456V151H256.595V143.192H257.907V143.768C257.907 144.568 257.603 145.496 257.603 145.496H257.827C258.259 143.672 259.827 142.68 261.507 143.08C263.123 143.48 263.795 145.064 263.795 146.52ZM265.611 148.6V144.376H264.475V143.192H265.611V139.8H266.923V143.192H269.131V144.376H266.923V148.584C266.923 149.272 267.451 149.816 268.123 149.816C268.427 149.816 269.035 149.816 269.131 149.816V151C268.731 151 269.115 151 267.995 151C266.475 151 265.611 149.848 265.611 148.6ZM271.788 143.704V151H270.476V144.664C270.476 144.504 270.348 144.376 270.188 144.376H269.532V143.192H271.26C271.548 143.192 271.788 143.432 271.788 143.704ZM271.1 140.984C271.468 140.984 271.82 140.664 271.82 140.264C271.82 139.864 271.468 139.544 271.1 139.544C270.7 139.544 270.348 139.864 270.348 140.264C270.348 140.664 270.7 140.984 271.1 140.984ZM273.752 142.6C273.752 141.304 274.44 139.8 276.296 139.8H277.272V140.984H276.264C275.416 140.984 275.064 141.736 275.064 142.392V143.192H277.256V144.376H275.064V151H273.752V144.376H272.616V143.192H273.752V142.6ZM281.645 148.664L283.741 143.192H285.021L281.101 153.656C280.797 154.472 279.997 155.448 278.461 155.448C277.725 155.448 277.597 155.448 277.485 155.448V154.328C277.629 154.328 278.445 154.328 278.525 154.328C279.341 154.328 279.757 153.752 279.933 153.304L280.797 151H280.269L277.341 143.192H278.621L280.717 148.664C281.021 149.416 281.085 149.816 281.085 149.816H281.277C281.277 149.816 281.341 149.416 281.645 148.664ZM297.733 139.8H299.109L295.109 151H293.061L289.061 139.8H290.437L293.781 149.016C293.925 149.448 293.989 149.816 293.989 149.816H294.181C294.181 149.816 294.245 149.448 294.389 149.016C294.469 148.808 297.733 139.8 297.733 139.8ZM304.247 146.52C303.943 146.744 303.047 146.968 301.223 147.272C300.519 147.4 299.767 147.864 299.767 148.728C299.767 149.464 300.359 150.024 301.047 150.12C301.719 150.216 302.199 150.2 302.935 149.768C303.655 149.352 304.055 148.664 304.183 148.008C304.215 147.784 304.247 147.464 304.247 147.224V146.52ZM306.471 149.816V151H305.479C304.935 151 304.551 150.616 304.551 150.072C304.551 149.4 304.775 148.776 304.775 148.776H304.551C304.551 148.776 304.135 150.008 303.175 150.616C302.407 151.096 301.543 151.272 300.567 151.16C299.495 151.048 298.503 150.152 298.503 148.904C298.503 147.512 299.431 146.92 300.359 146.696C301.383 146.456 302.327 146.408 303.047 146.248C303.639 146.136 304.247 145.992 304.119 145.416C303.975 144.728 303.207 144.088 302.055 144.088C300.711 144.088 299.847 144.936 299.847 145.912H298.567C298.567 144.408 299.847 143 302.071 143C304.279 143 305.559 144.408 305.559 146.072V149.512C305.559 149.688 305.687 149.816 305.879 149.816H306.471ZM307.456 139.8H308.768V151H307.456V139.8ZM310.353 147.672V143.192H311.665V147.528C311.665 148.856 312.113 149.896 313.425 150.088C314.977 150.36 315.905 149.208 316.129 147.672C316.177 147.24 316.241 146.504 316.241 145.736V143.192H317.553V151H316.241V150.424C316.241 149.624 316.545 148.696 316.545 148.696H316.321C315.889 150.52 314.305 151.512 312.641 151.112C311.025 150.712 310.353 149.128 310.353 147.672ZM322.535 144.088C320.919 144.088 320.199 145.384 320.071 146.536H325.015C324.951 145.464 324.183 144.088 322.535 144.088ZM320.039 147.368C320.087 148.536 320.695 150.104 322.535 150.104C323.799 150.104 324.519 149.416 324.855 148.376H326.135C325.831 149.656 324.823 151.192 322.551 151.192C319.847 151.192 318.807 149 318.807 147.08C318.807 145.192 319.831 143 322.551 143C325.175 143 326.359 145.048 326.279 147.368H320.039Z" fill="white"/>
</g>
<g filter="url(#filter2_i_2072_68364)">
<rect x="6" y="85" width="122" height="40" rx="16" fill="#24D914"/>
<rect x="7" y="86" width="120" height="38" rx="15" stroke="#3BFF2A" stroke-width="2"/>
<path d="M28.88 104.56V110H27.664V109.04C27.664 108.176 28.032 106.896 28.144 106.512H27.92C27.76 107.424 26.736 110.192 23.488 110.192C20.688 110.192 18.656 107.872 18.656 104.4C18.656 101.664 20.096 98.608 23.968 98.608C27.104 98.608 28.416 100.752 28.864 102.08H27.472C27.04 101.024 25.968 99.792 23.952 99.792C21.072 99.792 19.968 102.272 19.968 104.4C19.968 106.512 21.056 108.992 23.888 109.008C26.272 108.992 27.504 106.944 27.504 105.216C27.504 105.056 27.392 104.944 27.216 104.944H23.76V103.744H28.064C28.544 103.744 28.88 104.112 28.88 104.56ZM35.7675 105.52C35.4635 105.744 34.5675 105.968 32.7435 106.272C32.0395 106.4 31.2875 106.864 31.2875 107.728C31.2875 108.464 31.8795 109.024 32.5675 109.12C33.2395 109.216 33.7195 109.2 34.4555 108.768C35.1755 108.352 35.5755 107.664 35.7035 107.008C35.7355 106.784 35.7675 106.464 35.7675 106.224V105.52ZM37.9915 108.816V110H36.9995C36.4555 110 36.0715 109.616 36.0715 109.072C36.0715 108.4 36.2955 107.776 36.2955 107.776H36.0715C36.0715 107.776 35.6555 109.008 34.6955 109.616C33.9275 110.096 33.0635 110.272 32.0875 110.16C31.0155 110.048 30.0235 109.152 30.0235 107.904C30.0235 106.512 30.9515 105.92 31.8795 105.696C32.9035 105.456 33.8475 105.408 34.5675 105.248C35.1595 105.136 35.7675 104.992 35.6395 104.416C35.4955 103.728 34.7275 103.088 33.5755 103.088C32.2315 103.088 31.3675 103.936 31.3675 104.912H30.0875C30.0875 103.408 31.3675 102 33.5915 102C35.7995 102 37.0795 103.408 37.0795 105.072V108.512C37.0795 108.688 37.2075 108.816 37.3995 108.816H37.9915ZM40.545 102.704V110H39.233V103.664C39.233 103.504 39.105 103.376 38.945 103.376H38.289V102.192H40.017C40.305 102.192 40.545 102.432 40.545 102.704ZM39.857 99.984C40.225 99.984 40.577 99.664 40.577 99.264C40.577 98.864 40.225 98.544 39.857 98.544C39.457 98.544 39.105 98.864 39.105 99.264C39.105 99.664 39.457 99.984 39.857 99.984ZM49.357 105.52V110H48.045V105.664C48.045 104.336 47.597 103.296 46.285 103.104C44.733 102.832 43.789 103.984 43.581 105.52C43.533 105.952 43.469 106.688 43.469 107.456V110H42.157V102.192H43.469V102.768C43.469 103.568 43.165 104.496 43.165 104.496H43.389C43.821 102.672 45.389 101.68 47.069 102.08C48.685 102.48 49.357 104.064 49.357 105.52ZM59.961 98.8L63.993 110H62.777L61.785 107.2H56.393L55.401 110H54.185L58.217 98.8H59.961ZM56.793 106.112H61.385L59.209 99.984H58.985L56.793 106.112ZM65.078 98.8H66.39V110H65.078V98.8ZM80.7051 106.72H82.1131C81.6651 108.096 80.3531 110.192 77.2651 110.192C73.5211 110.192 72.0491 107.056 72.0491 104.384C72.0491 101.728 73.5211 98.608 77.2651 98.608C80.3531 98.608 81.6651 100.704 82.1131 102.08H80.7051C80.2571 100.944 79.2011 99.792 77.2651 99.792C74.4491 99.792 73.3611 102.272 73.3611 104.368C73.3611 106.512 74.4491 109.008 77.2491 109.008C79.2011 109.008 80.2571 107.84 80.7051 106.72ZM83.362 98.8H84.674V110H83.362V98.8ZM91.7469 105.52C91.4429 105.744 90.5469 105.968 88.7229 106.272C88.0189 106.4 87.2669 106.864 87.2669 107.728C87.2669 108.464 87.8589 109.024 88.5469 109.12C89.2189 109.216 89.6989 109.2 90.4349 108.768C91.1549 108.352 91.5549 107.664 91.6829 107.008C91.7149 106.784 91.7469 106.464 91.7469 106.224V105.52ZM93.9709 108.816V110H92.9789C92.4349 110 92.0509 109.616 92.0509 109.072C92.0509 108.4 92.2749 107.776 92.2749 107.776H92.0509C92.0509 107.776 91.6349 109.008 90.6749 109.616C89.9069 110.096 89.0429 110.272 88.0669 110.16C86.9949 110.048 86.0029 109.152 86.0029 107.904C86.0029 106.512 86.9309 105.92 87.8589 105.696C88.8829 105.456 89.8269 105.408 90.5469 105.248C91.1389 105.136 91.7469 104.992 91.6189 104.416C91.4749 103.728 90.7069 103.088 89.5549 103.088C88.2109 103.088 87.3469 103.936 87.3469 104.912H86.0669C86.0669 103.408 87.3469 102 89.5709 102C91.7789 102 93.0589 103.408 93.0589 105.072V108.512C93.0589 108.688 93.1869 108.816 93.3789 108.816H93.9709ZM99.5194 102.192V103.376C97.3114 103.376 96.4794 105.072 96.4794 106.624V110H95.1674V103.6C95.1674 103.456 95.0874 103.376 94.9434 103.376H94.1594V102.192H95.7434C96.0794 102.192 96.3514 102.4 96.3514 102.736C96.3514 103.376 96.1274 104.64 96.1274 104.64H96.3514C96.7674 103.216 97.8234 102.224 99.5194 102.192ZM102.267 102.704V110H100.955V103.664C100.955 103.504 100.827 103.376 100.667 103.376H100.011V102.192H101.739C102.027 102.192 102.267 102.432 102.267 102.704ZM101.579 99.984C101.947 99.984 102.299 99.664 102.299 99.264C102.299 98.864 101.947 98.544 101.579 98.544C101.179 98.544 100.827 98.864 100.827 99.264C100.827 99.664 101.179 99.984 101.579 99.984ZM104.231 107.6V103.376H103.095V102.192H104.231V98.8H105.543V102.192H107.751V103.376H105.543V107.584C105.543 108.272 106.071 108.816 106.743 108.816C107.047 108.816 107.655 108.816 107.751 108.816V110C107.351 110 107.735 110 106.615 110C105.095 110 104.231 108.848 104.231 107.6ZM112.249 107.664L114.345 102.192H115.625L111.705 112.656C111.401 113.472 110.601 114.448 109.065 114.448C108.329 114.448 108.201 114.448 108.089 114.448V113.328C108.233 113.328 109.049 113.328 109.129 113.328C109.945 113.328 110.361 112.752 110.537 112.304L111.401 110H110.873L107.945 102.192H109.225L111.321 107.664C111.625 108.416 111.689 108.816 111.689 108.816H111.881C111.881 108.816 111.945 108.416 112.249 107.664Z" fill="white"/>
</g>
<g filter="url(#filter3_i_2072_68364)">
<rect x="117.833" y="45.6221" width="200" height="40" rx="16" transform="rotate(12.714 117.833 45.6221)" fill="#24D914"/>
<rect x="118.588" y="46.8176" width="198" height="38" rx="15" transform="rotate(12.714 118.588 46.8176)" stroke="#3BFF2A" stroke-width="2"/>
<path d="M129.62 72.6964C130.978 73.0027 132.4 72.7331 132.731 71.266C133.062 69.7989 131.893 68.9447 130.535 68.6384L127.71 68.001L126.795 72.059L129.62 72.6964ZM130.768 67.4607C131.892 67.7143 133.031 67.4629 133.302 66.2611C133.573 65.0593 132.656 64.3274 131.532 64.0739L128.738 63.4436L127.974 66.8304L130.768 67.4607ZM133.947 71.8357C133.461 73.9896 131.154 74.2563 129.281 73.8337L125.254 72.9252L127.719 61.9998L131.73 62.9048C133.385 63.2781 134.972 64.4564 134.553 66.3137C134.233 67.734 132.964 68.2679 131.856 68.1654L131.806 68.3839C133.122 68.8775 134.335 70.1188 133.947 71.8357ZM135.208 71.7594L136.194 67.3892L137.474 67.678L136.52 71.9076C136.228 73.2031 136.436 74.3162 137.673 74.7922C139.127 75.3991 140.286 74.4796 140.843 73.0306C140.985 72.6197 141.209 71.9159 141.378 71.1667L141.938 68.6851L143.218 68.9738L141.499 76.5904L140.219 76.3016L140.346 75.7397C140.522 74.9594 141.023 74.121 141.023 74.121L140.805 74.0717C139.982 75.7559 138.218 76.375 136.683 75.6186C135.195 74.8727 134.888 73.1797 135.208 71.7594ZM146.263 70.1858L144.657 77.3029L143.377 77.0141L144.772 70.8335C144.807 70.6774 144.71 70.5244 144.554 70.4892L143.914 70.3448L144.175 69.1898L145.861 69.5701C146.142 69.6335 146.323 69.9204 146.263 70.1858ZM146.191 67.381C146.55 67.462 146.963 67.2273 147.051 66.8372C147.139 66.447 146.866 66.0573 146.507 65.9763C146.117 65.8883 145.703 66.123 145.615 66.5132C145.527 66.9034 145.8 67.293 146.191 67.381ZM148.878 66.7735L150.157 67.0623L147.693 77.9877L146.413 77.6989L148.878 66.7735ZM151.05 74.743C150.698 76.3038 151.252 77.7738 152.813 78.1259C154.373 78.478 155.505 77.3883 155.857 75.8276C156.213 74.2512 155.639 72.7933 154.094 72.4447C152.549 72.0961 151.405 73.1666 151.05 74.743ZM149.77 74.4542C150.214 72.4877 151.655 70.6805 153.996 71.2087C155.557 71.5609 156.164 72.6492 156.339 73.6893L156.558 73.7386C156.558 73.7386 156.523 72.8777 156.751 71.8632L157.463 68.7105L158.743 68.9992L156.278 79.9246L154.998 79.6359L155.033 79.4798C155.209 78.6994 155.59 78.0307 155.59 78.0307L155.371 77.9814C154.766 78.8455 153.769 79.5555 152.162 79.1928C149.836 78.6681 149.326 76.4208 149.77 74.4542ZM168.107 78.001C167.762 78.1526 166.838 78.1739 164.992 78.069C164.277 78.0389 163.441 78.3261 163.251 79.1689C163.089 79.8868 163.544 80.5634 164.194 80.8085C164.828 81.05 165.3 81.14 166.113 80.8806C166.907 80.6333 167.448 80.0502 167.717 79.4384C167.798 79.227 167.9 78.9218 167.952 78.6877L168.107 78.001ZM169.551 81.7056L169.291 82.8606L168.323 82.6423C167.793 82.5226 167.502 82.0635 167.622 81.5328C167.77 80.8773 168.126 80.3179 168.126 80.3179L167.907 80.2686C167.907 80.2686 167.23 81.3788 166.16 81.7606C165.305 82.0598 164.424 82.0414 163.496 81.7173C162.475 81.3721 161.705 80.2798 161.98 79.0624C162.286 77.7045 163.321 77.3313 164.276 77.317C165.328 77.3082 166.259 77.4692 166.997 77.4716C167.599 77.4926 168.224 77.4859 168.226 76.8959C168.236 76.1931 167.628 75.3997 166.504 75.1462C165.193 74.8504 164.164 75.4875 163.949 76.4395L162.7 76.1578C163.031 74.6907 164.59 73.5989 166.759 74.0884C168.913 74.5743 169.852 76.2295 169.486 77.8527L168.729 81.2084C168.69 81.3801 168.787 81.5331 168.974 81.5754L169.551 81.7056ZM182.366 82.5794C182.017 84.1245 180.506 85.5878 177.603 84.9329C174.716 84.2814 173.985 82.2139 174.334 80.6687L175.613 80.9574C175.388 81.9563 175.897 83.3342 177.879 83.7814C179.846 84.2251 180.861 83.2895 181.086 82.2906C181.4 80.9015 179.71 80.1758 178.514 79.66C177.079 79.041 175.083 78.1478 175.597 75.869C175.924 74.4175 177.39 73.0096 180.2 73.6434C183.009 74.2773 183.744 76.1817 183.416 77.6332C183.406 77.6801 183.399 77.7113 183.388 77.7581L182.108 77.4693C182.119 77.4225 182.126 77.3913 182.136 77.3445C182.341 76.4392 181.843 75.228 179.939 74.7984C178.05 74.3723 177.081 75.2525 176.877 76.1578C176.577 77.4844 177.775 78.0662 178.962 78.5473C180.761 79.2976 182.88 80.3006 182.366 82.5794ZM183.836 83.6819L184.766 79.5615L183.658 79.3115L183.918 78.1565L185.026 78.4065L185.773 75.0977L187.053 75.3865L186.306 78.6953L188.46 79.1812L188.199 80.3362L186.046 79.8503L185.119 83.9551C184.968 84.6262 185.363 85.2731 186.019 85.421C186.315 85.4879 186.909 85.6217 187.002 85.6428L186.742 86.7978C186.351 86.7098 186.726 86.7943 185.633 86.5478C184.151 86.2133 183.561 84.8993 183.836 83.6819ZM194.187 80.4734L193.927 81.6283C191.773 81.1424 190.588 82.6137 190.246 84.1276L189.503 87.4209L188.223 87.1321L189.632 80.889C189.664 80.7486 189.603 80.6529 189.463 80.6212L188.698 80.4487L188.959 79.2937L190.504 79.6423C190.831 79.7163 191.051 79.979 190.977 80.3068C190.836 80.9311 190.34 82.1148 190.34 82.1148L190.558 82.1641C191.277 80.8666 192.526 80.1313 194.187 80.4734ZM196.358 88.1309C198.153 88.5358 199.171 87.0761 199.488 85.6714C199.805 84.2668 199.512 82.5113 197.717 82.1063C195.922 81.7014 194.888 83.1575 194.572 84.5622C194.255 85.9669 194.563 87.7259 196.358 88.1309ZM197.939 81.123C200.545 81.7111 201.043 84.0868 200.627 85.9285C200.212 87.7702 198.743 89.7022 196.136 89.1142C193.514 88.5226 193.032 86.1504 193.448 84.3087C193.863 82.467 195.317 80.5314 197.939 81.123ZM208.998 87.2267L208.012 91.5969L206.733 91.3081L207.687 87.0784C207.979 85.783 207.771 84.6699 206.534 84.1938C205.079 83.5869 203.905 84.5029 203.364 85.9555C203.222 86.3663 202.998 87.0702 202.829 87.8194L202.269 90.301L200.989 90.0122L202.707 82.3957L203.987 82.6844L203.861 83.2463C203.684 84.0267 203.184 84.865 203.184 84.865L203.402 84.9143C204.225 83.2301 205.973 82.6076 207.524 83.3675C209.012 84.1133 209.319 85.8064 208.998 87.2267ZM212.798 91.5119C210.94 91.0929 209.601 89.3965 210.055 87.3831C210.509 85.3697 212.186 84.3373 214.199 84.7916C215.682 85.1261 216.532 86.302 216.539 87.4353C216.577 87.9196 217.162 88.3796 217.032 88.9571C216.577 90.9705 214.873 91.9802 212.798 91.5119ZM213.037 90.4506C214.442 90.7675 215.636 90.0529 215.939 88.7106C216.242 87.3684 215.47 86.2101 214.065 85.8931C212.645 85.5727 211.45 86.2873 211.148 87.6296C210.845 88.9718 211.617 90.1301 213.037 90.4506ZM211.901 96.2138C213.555 96.5871 214.911 96.319 215.095 95.5074C215.281 94.6802 214.074 93.8502 212.514 93.4981C210.844 93.1213 209.506 93.3773 209.32 94.2045C209.137 95.0161 210.231 95.837 211.901 96.2138ZM210.427 92.5681C210.302 92.5399 210.177 92.5117 210.084 92.4906C209.459 92.3498 209.022 91.8902 209.166 91.2503C209.314 90.5947 209.896 90.4144 210.52 90.5553L210.817 90.6222L210.877 90.3568L212.868 91.1998L212.798 91.5119L210.94 91.0929C210.613 91.0189 210.284 91.0925 210.203 91.4515C210.126 91.7948 210.391 92.0022 210.718 92.0762C211.514 92.2557 211.905 92.3438 212.732 92.5304C215.073 93.0586 216.591 94.4016 216.281 95.775C215.974 97.1329 214.024 97.7097 211.698 97.185C209.31 96.6463 207.813 95.3572 208.098 94.093C208.359 92.938 209.698 92.7479 210.381 92.771L210.427 92.5681ZM216.741 87.4811C216.741 87.4811 216.711 86.6705 216.831 86.1398C216.898 85.8433 217.185 85.662 217.481 85.7289L218.745 86.0141L218.485 87.1691L217.751 87.0036C217.595 86.9684 217.461 87.053 217.43 87.1935L217.032 88.9571L216.264 88.6527L216.539 87.4353L216.741 87.4811ZM230.948 86.5038L225.704 85.3207L224.87 89.0197L229.24 90.0057L228.986 91.1294L224.616 90.1434L223.5 95.0911L222.22 94.8023L224.685 83.8769L231.209 85.3489L230.948 86.5038ZM232.521 96.2898C234.316 96.6948 235.334 95.2351 235.651 93.8304C235.968 92.4257 235.675 90.6702 233.88 90.2653C232.085 89.8603 231.051 91.3165 230.734 92.7212C230.417 94.1259 230.726 95.8849 232.521 96.2898ZM234.102 89.282C236.708 89.87 237.206 92.2457 236.79 94.0875C236.375 95.9292 234.905 97.8612 232.299 97.2731C229.677 96.6815 229.195 94.3093 229.611 92.4676C230.026 90.6259 231.48 88.6904 234.102 89.282ZM237.806 94.9072L238.792 90.537L240.072 90.8258L239.118 95.0555C238.826 96.3509 239.034 97.464 240.271 97.9401C241.725 98.547 242.884 97.6274 243.441 96.1784C243.583 95.7676 243.807 95.0637 243.976 94.3145L244.536 91.8329L245.816 92.1216L244.097 99.7382L242.818 99.4495L242.944 98.8876C243.12 98.1072 243.621 97.2688 243.621 97.2688L243.403 97.2195C242.58 98.9037 240.816 99.5228 239.281 98.7664C237.793 98.0205 237.486 96.3275 237.806 94.9072ZM253.735 97.3201L252.749 101.69L251.469 101.401L252.424 97.1718C252.716 95.8763 252.508 94.7632 251.27 94.2872C249.816 93.6803 248.642 94.5963 248.101 96.0489C247.959 96.4597 247.735 97.1636 247.566 97.9127L247.006 100.394L245.726 100.106L247.444 92.4891L248.724 92.7778L248.597 93.3397C248.421 94.1201 247.92 94.9584 247.92 94.9584L248.139 95.0077C248.962 93.3235 250.71 92.7009 252.26 93.4609C253.749 94.2067 254.056 95.8998 253.735 97.3201ZM256.033 98.4289C255.681 99.9897 256.235 101.46 257.796 101.812C259.356 102.164 260.488 101.074 260.84 99.5135C261.196 97.9371 260.623 96.4792 259.077 96.1306C257.532 95.782 256.389 96.8526 256.033 98.4289ZM254.753 98.1402C255.197 96.1736 256.638 94.3665 258.979 94.8947C260.54 95.2468 261.147 96.3352 261.322 97.3753L261.541 97.4246C261.541 97.4246 261.506 96.5637 261.734 95.5492L262.446 92.3964L263.726 92.6852L261.261 103.611L259.981 103.322L260.016 103.166C260.192 102.385 260.573 101.717 260.573 101.717L260.354 101.667C259.749 102.531 258.752 103.241 257.145 102.879C254.819 102.354 254.309 100.107 254.753 98.1402ZM269.12 100.791C268.774 100.943 267.85 100.964 266.004 100.859C265.289 100.829 264.454 101.116 264.264 101.959C264.102 102.677 264.556 103.353 265.206 103.599C265.84 103.84 266.312 103.93 267.125 103.671C267.919 103.423 268.461 102.84 268.73 102.228C268.81 102.017 268.912 101.712 268.965 101.478L269.12 100.791ZM270.564 104.496L270.303 105.651L269.335 105.432C268.805 105.313 268.515 104.854 268.634 104.323C268.782 103.667 269.138 103.108 269.138 103.108L268.92 103.059C268.92 103.059 268.243 104.169 267.172 104.551C266.318 104.85 265.436 104.831 264.509 104.507C263.488 104.162 262.717 103.07 262.992 101.852C263.298 100.495 264.334 100.121 265.288 100.107C266.34 100.098 267.271 100.259 268.009 100.262C268.611 100.283 269.236 100.276 269.238 99.6859C269.249 98.9831 268.64 98.1898 267.517 97.9363C266.206 97.6405 265.176 98.2775 264.961 99.2296L263.713 98.9479C264.044 97.4808 265.602 96.389 267.772 96.8785C269.926 97.3644 270.864 99.0196 270.498 100.643L269.741 103.998C269.702 104.17 269.799 104.323 269.986 104.365L270.564 104.496ZM271.831 103.535L272.761 99.4147L271.653 99.1647L271.913 98.0097L273.021 98.2597L273.768 94.9509L275.048 95.2396L274.301 98.5485L276.455 99.0344L276.195 100.189L274.041 99.7034L273.115 103.808C272.963 104.479 273.358 105.126 274.014 105.274C274.311 105.341 274.904 105.475 274.997 105.496L274.737 106.651C274.347 106.563 274.721 106.647 273.629 106.401C272.146 106.066 271.557 104.753 271.831 103.535ZM278.935 100.119L277.329 107.236L276.049 106.947L277.443 100.766C277.479 100.61 277.382 100.457 277.226 100.422L276.586 100.278L276.847 99.1227L278.532 99.503C278.813 99.5664 278.994 99.8533 278.935 100.119ZM278.862 97.3139C279.221 97.3949 279.635 97.1602 279.723 96.7701C279.811 96.3799 279.538 95.9902 279.179 95.9092C278.789 95.8212 278.375 96.0559 278.287 96.4461C278.199 96.8363 278.472 97.2259 278.862 97.3139ZM282.265 107.513C284.06 107.918 285.078 106.458 285.395 105.053C285.712 103.649 285.419 101.893 283.624 101.488C281.829 101.083 280.795 102.54 280.478 103.944C280.162 105.349 280.47 107.108 282.265 107.513ZM283.846 100.505C286.452 101.093 286.95 103.469 286.534 105.311C286.119 107.152 284.649 109.084 282.043 108.496C279.421 107.905 278.939 105.532 279.355 103.691C279.77 101.849 281.224 99.9135 283.846 100.505ZM294.905 106.609L293.919 110.979L292.64 110.69L293.594 106.46C293.886 105.165 293.678 104.052 292.44 103.576C290.986 102.969 289.812 103.885 289.271 105.338C289.129 105.748 288.905 106.452 288.736 107.201L288.176 109.683L286.896 109.394L288.614 101.778L289.894 102.066L289.767 102.628C289.591 103.409 289.091 104.247 289.091 104.247L289.309 104.296C290.132 102.612 291.88 101.99 293.431 102.75C294.919 103.495 295.226 105.188 294.905 106.609Z" fill="white"/>
</g>
<g filter="url(#filter4_i_2072_68364)">
<rect x="225.324" y="27.125" width="130" height="40" rx="16" transform="rotate(12.71 225.324 27.125)" fill="#24D914"/>
<rect x="226.08" y="28.3205" width="128" height="38" rx="15" transform="rotate(12.71 226.08 28.3205)" stroke="#3BFF2A" stroke-width="2"/>
<path d="M238.675 49.3838C239.736 49.6232 240.922 49.2347 241.201 48.0017C241.475 46.7843 240.57 45.9241 239.509 45.6847L236.231 44.9454L235.397 48.6445L238.675 49.3838ZM240.166 50.2614C241.04 50.4586 241.62 51.3767 241.423 52.2508C241.159 53.4214 240.536 56.184 240.536 56.184L239.35 55.9164C239.35 55.9164 239.976 53.1382 240.23 52.0144C240.353 51.4682 239.99 50.8943 239.46 50.7746L235.121 49.796L234.012 54.7125L232.748 54.4274L235.212 43.5018L239.894 44.5579C242.111 45.0578 242.882 46.511 242.54 48.025C242.167 49.6794 240.571 49.992 240.215 50.0429L240.166 50.2614ZM246.799 50.5109C245.223 50.1554 244.235 51.2612 243.857 52.3568L248.68 53.4446C248.853 52.3848 248.407 50.8735 246.799 50.5109ZM243.643 53.1614C243.432 54.3113 243.68 55.9747 245.475 56.3795C246.708 56.6576 247.562 56.1449 248.119 55.2043L249.367 55.4859C248.789 56.6677 247.468 57.9442 245.252 57.4444C242.614 56.8494 242.082 54.4823 242.504 52.6094C242.919 50.7676 244.401 48.8547 247.054 49.4531C249.614 50.0304 250.318 52.2887 249.73 54.5343L243.643 53.1614ZM252.203 50.2044C252.488 48.9402 253.49 47.6244 255.301 48.0328L256.253 48.2475L255.993 49.4025L255.009 49.1807C254.182 48.9941 253.673 49.6503 253.529 50.2902L253.353 51.0706L255.491 51.5529L255.231 52.7078L253.092 52.2256L251.635 58.6873L250.355 58.3986L251.812 51.9369L250.704 51.687L250.965 50.532L252.073 50.7819L252.203 50.2044ZM257.925 52.6267L256.32 59.7439L255.04 59.4553L256.434 53.2745C256.469 53.1185 256.373 52.9654 256.217 52.9302L255.577 52.7859L255.837 51.6309L257.523 52.0111C257.804 52.0745 257.985 52.3614 257.925 52.6267ZM257.853 49.822C258.212 49.903 258.625 49.6683 258.713 49.2781C258.801 48.8879 258.528 48.4982 258.169 48.4173C257.779 48.3293 257.365 48.564 257.277 48.9542C257.189 49.3444 257.462 49.734 257.853 49.822ZM265.902 57.3125L264.916 61.6827L263.636 61.3941L264.59 57.1643C264.882 55.8689 264.674 54.7558 263.437 54.2798C261.982 53.673 260.808 54.5891 260.267 56.0417C260.125 56.4525 259.901 57.1564 259.732 57.9056L259.172 60.3873L257.893 60.0986L259.61 52.4819L260.89 52.7706L260.764 53.3325C260.588 54.1129 260.087 54.9513 260.087 54.9513L260.305 55.0005C261.128 53.3163 262.876 52.6936 264.427 53.4534C265.915 54.1991 266.222 55.8922 265.902 57.3125ZM271.218 56.0185C269.642 55.6629 268.654 56.7688 268.276 57.8644L273.099 58.9521C273.272 57.8923 272.826 56.3811 271.218 56.0185ZM268.062 58.6689C267.851 59.8189 268.1 61.4822 269.895 61.8871C271.128 62.1652 271.981 61.6524 272.538 60.7118L273.786 60.9935C273.208 62.1752 271.887 63.4518 269.671 62.9519C267.033 62.357 266.501 59.9899 266.923 58.1169C267.339 56.2752 268.82 54.3622 271.473 54.9607C274.033 55.538 274.737 57.7963 274.149 60.0418L268.062 58.6689ZM286.88 63.4053C286.531 64.9505 285.02 66.4139 282.117 65.7592C279.23 65.1079 278.499 63.0404 278.847 61.4952L280.127 61.7839C279.902 62.7828 280.411 64.1606 282.393 64.6077C284.36 65.0513 285.375 64.1156 285.6 63.1167C285.913 61.7276 284.224 61.002 283.028 60.4863C281.593 59.8674 279.596 58.9743 280.11 56.6955C280.438 55.244 281.903 53.8359 284.713 54.4696C287.522 55.1032 288.257 57.0076 287.93 58.4591C287.919 58.506 287.912 58.5372 287.902 58.584L286.622 58.2953C286.632 58.2485 286.639 58.2173 286.65 58.1705C286.854 57.2652 286.356 56.054 284.452 55.6246C282.564 55.1986 281.594 56.0789 281.39 56.9842C281.091 58.3108 282.288 58.8925 283.476 59.3735C285.275 60.1237 287.394 61.1266 286.88 63.4053ZM288.35 64.5078L289.279 60.3873L288.171 60.1374L288.432 58.9824L289.54 59.2323L290.286 55.9235L291.566 56.2121L290.82 59.521L292.974 60.0068L292.713 61.1618L290.559 60.676L289.633 64.7809C289.482 65.452 289.877 66.0989 290.533 66.2467C290.83 66.3136 291.423 66.4474 291.516 66.4685L291.256 67.6235C290.866 67.5355 291.24 67.62 290.148 67.3735C288.665 67.0391 288.076 65.7252 288.35 64.5078ZM298.701 61.2985L298.44 62.4535C296.286 61.9677 295.102 63.4391 294.76 64.9531L294.017 68.2463L292.738 67.9577L294.146 61.7145C294.177 61.574 294.117 61.4784 293.976 61.4467L293.212 61.2742L293.472 60.1192L295.017 60.4677C295.345 60.5417 295.565 60.8044 295.491 61.1322C295.35 61.7565 294.853 62.9402 294.853 62.9402L295.072 62.9895C295.791 61.6919 297.039 60.9566 298.701 61.2985ZM303.983 65.9015C303.637 66.0531 302.714 66.0745 300.868 65.9697C300.153 65.9397 299.317 66.2269 299.127 67.0697C298.965 67.7877 299.42 68.4642 300.07 68.7092C300.704 68.9507 301.176 69.0407 301.989 68.7813C302.783 68.5339 303.324 67.9507 303.593 67.339C303.674 67.1275 303.775 66.8224 303.828 66.5883L303.983 65.9015ZM305.428 69.6061L305.167 70.761L304.199 70.5428C303.669 70.4231 303.379 69.964 303.498 69.4334C303.646 68.7778 304.002 68.2184 304.002 68.2184L303.783 68.1691C303.783 68.1691 303.107 69.2794 302.036 69.6613C301.181 69.9605 300.3 69.9421 299.372 69.6181C298.351 69.273 297.581 68.1807 297.855 66.9633C298.162 65.6054 299.197 65.2321 300.152 65.2178C301.203 65.2089 302.135 65.3698 302.872 65.3721C303.475 65.3931 304.099 65.3864 304.101 64.7964C304.112 64.0936 303.504 63.3003 302.38 63.0468C301.069 62.7511 300.04 63.3882 299.825 64.3403L298.576 64.0587C298.907 62.5916 300.465 61.4997 302.635 61.989C304.789 62.4748 305.728 64.1299 305.362 65.7531L304.605 69.1089C304.566 69.2805 304.663 69.4336 304.85 69.4758L305.428 69.6061ZM306.695 68.6454L307.624 64.5249L306.516 64.2749L306.777 63.1199L307.885 63.3699L308.631 60.061L309.911 60.3497L309.165 63.6585L311.319 64.1443L311.058 65.2993L308.904 64.8135L307.978 68.9184C307.827 69.5896 308.222 70.2364 308.878 70.3843C309.174 70.4511 309.768 70.5849 309.861 70.606L309.601 71.761C309.21 71.673 309.585 71.7575 308.492 71.5111C307.01 71.1767 306.42 69.8628 306.695 68.6454ZM315.247 65.9489C313.671 65.5934 312.683 66.6992 312.305 67.7948L317.128 68.8826C317.301 67.8228 316.855 66.3115 315.247 65.9489ZM312.091 68.5994C311.88 69.7493 312.129 71.4127 313.924 71.8175C315.157 72.0956 316.01 71.5829 316.567 70.6423L317.816 70.9239C317.237 72.1057 315.916 73.3822 313.7 72.8824C311.062 72.2874 310.53 69.9203 310.952 68.0474C311.368 66.2056 312.849 64.2927 315.502 64.8911C318.062 65.4684 318.766 67.7267 318.178 69.9723L312.091 68.5994ZM321.999 73.3929C320.142 72.974 318.802 71.2777 319.257 69.2643C319.711 67.2509 321.387 66.2184 323.4 66.6725C324.883 67.0069 325.733 68.1828 325.74 69.316C325.778 69.8004 326.364 70.2604 326.233 70.8379C325.779 72.8513 324.075 73.8611 321.999 73.3929ZM322.239 72.3316C323.644 72.6484 324.838 71.9337 325.141 70.5914C325.444 69.2492 324.671 68.0909 323.267 67.7741C321.846 67.4537 320.652 68.1684 320.349 69.5107C320.046 70.853 320.818 72.0113 322.239 72.3316ZM321.103 78.0949C322.757 78.4681 324.114 78.1999 324.297 77.3883C324.483 76.5611 323.276 75.7312 321.715 75.3791C320.045 75.0025 318.708 75.2586 318.522 76.0858C318.339 76.8974 319.433 77.7182 321.103 78.0949ZM319.629 74.4493C319.504 74.4211 319.379 74.393 319.286 74.3718C318.661 74.231 318.224 73.7715 318.368 73.1315C318.516 72.476 319.098 72.2956 319.722 72.4364L320.019 72.5033L320.078 72.238L322.07 73.0808L321.999 73.3929L320.142 72.974C319.814 72.9001 319.486 72.9737 319.405 73.3327C319.328 73.676 319.593 73.8834 319.92 73.9573C320.716 74.1369 321.106 74.2249 321.934 74.4114C324.275 74.9395 325.793 76.2823 325.483 77.6558C325.177 79.0137 323.226 79.5906 320.9 79.0661C318.512 78.5275 317.015 77.2386 317.3 75.9743C317.561 74.8193 318.899 74.6292 319.583 74.6522L319.629 74.4493ZM325.943 69.3618C325.943 69.3618 325.913 68.5513 326.032 68.0206C326.099 67.724 326.386 67.5427 326.683 67.6096L327.947 67.8947L327.686 69.0497L326.953 68.8843C326.797 68.8491 326.663 68.9337 326.631 69.0742L326.233 70.8379L325.465 70.5335L325.74 69.316L325.943 69.3618ZM331.254 74.2501L334.503 69.3734L335.751 69.655L329.625 79.0001C329.149 79.7292 328.154 80.5053 326.656 80.1674C325.938 80.0054 325.813 79.9773 325.703 79.9526L325.95 78.8601C326.09 78.8917 326.886 79.0713 326.964 79.0889C327.76 79.2684 328.293 78.7981 328.563 78.3998L329.913 76.3423L329.398 76.2261L328.259 67.9653L329.508 68.2469L330.349 74.046C330.48 74.8464 330.454 75.2507 330.454 75.2507L330.642 75.2929C330.642 75.2929 330.792 74.9168 331.254 74.2501Z" fill="white"/>
</g>
<g filter="url(#filter5_i_2072_68364)">
<rect x="0.132812" y="51.3379" width="150" height="40" rx="16" transform="rotate(-19.8104 0.132812 51.3379)" fill="#24D914"/>
<rect x="1.41254" y="51.9398" width="148" height="38" rx="15" transform="rotate(-19.8104 1.41254 51.9398)" stroke="#3BFF2A" stroke-width="2"/>
<path d="M23.7615 57.4945L24.1628 58.6085L18.9092 60.5009L20.1944 64.0685L24.9512 62.355L25.3416 63.4388L20.5848 65.1523L21.9025 68.8102L27.156 66.9178L27.5573 68.0317L21.0694 70.3688L17.2887 59.8262L23.7615 57.4945ZM32.5369 57.9388L31.3738 62.4053L35.2282 65.2684L33.8885 65.751L30.6532 63.3791L30.4575 63.4496L29.4629 67.3452L28.1232 67.8278L29.2814 63.159L25.5221 60.4657L26.8769 59.9776L30.1466 62.3031L31.1972 58.4214L32.5369 57.9388ZM40.5478 59.2026C40.0055 57.6973 38.733 56.7612 37.2126 57.3088C35.7224 57.8457 35.309 59.3891 35.8663 60.889C36.4236 62.3889 37.6962 63.325 39.1864 62.7882C40.6767 62.2513 41.0901 60.7079 40.5478 59.2026ZM41.7822 58.7579C42.4654 60.6546 42.1768 62.9694 39.9339 63.7774C38.4286 64.3196 37.3012 63.7394 36.5941 62.9567L36.3984 63.0272C36.3984 63.0272 36.8911 63.734 37.2436 64.7125L38.6969 68.7467L37.4625 69.1914L33.3088 57.6607L34.5432 57.216L34.5974 57.3666C34.8631 58.1042 34.9072 58.8876 34.9072 58.8876L35.1029 58.8171C35.1485 57.7633 35.6372 56.6179 37.1877 56.0593C39.4306 55.2514 41.0989 56.8612 41.7822 58.7579ZM40.488 51.4692L41.7223 51.0245L45.5181 61.5617L44.2837 62.0064L40.488 51.4692ZM49.8787 59.1236C51.6098 58.5 51.6835 56.7218 51.1955 55.367C50.7075 54.0122 49.5167 52.6895 47.7856 53.3131C46.0545 53.9367 45.9658 55.7203 46.4538 57.0751C46.9418 58.4299 48.1476 59.7472 49.8787 59.1236ZM47.444 52.3647C49.9579 51.4592 51.6545 53.1949 52.2944 54.9711C52.9343 56.7474 52.7342 59.1663 50.2204 60.0719C47.6914 60.9829 46.0098 59.2418 45.37 57.4655C44.7301 55.6892 44.9151 53.2757 47.444 52.3647ZM56.4271 49.3328L56.8284 50.4468C54.751 51.1951 54.5431 53.0727 55.0691 54.5328L56.2132 57.709L54.9789 58.1537L52.8098 52.1324C52.761 51.997 52.6587 51.9488 52.5232 51.9976L51.7856 52.2633L51.3843 51.1494L52.8746 50.6126C53.1907 50.4987 53.5171 50.6022 53.631 50.9183C53.8479 51.5204 54.0655 52.7855 54.0655 52.7855L54.2762 52.7096C54.185 51.2289 54.8423 49.9377 56.4271 49.3328ZM60.3537 48.8707C58.8334 49.4184 58.5952 50.8817 58.8652 52.0089L63.5166 50.3333C63.0931 49.3465 61.9042 48.3122 60.3537 48.8707ZM59.1171 52.8025C59.5581 53.8851 60.6615 55.1543 62.3926 54.5307C63.5818 54.1023 64.026 53.211 63.9897 52.1187L65.1939 51.6849C65.3417 52.9921 64.914 54.7789 62.7764 55.5489C60.2324 56.4653 58.5111 54.7555 57.8604 52.9491C57.2205 51.1728 57.441 48.7635 60.0001 47.8417C62.4688 46.9524 64.2768 48.4779 64.9878 50.6877L59.1171 52.8025ZM76.7364 45.4181L74.5023 39.2163L75.7367 38.7716L77.9762 44.9885C78.654 46.8702 78.5589 49.8636 75.5182 50.9589C72.4774 52.0543 70.4844 49.7791 69.8174 47.9276L67.5779 41.7106L68.8123 41.266L71.0464 47.4679C71.6103 49.0334 73.0697 50.5825 75.1169 49.845C77.1641 49.1075 77.3004 46.9837 76.7364 45.4181ZM85.8698 44.5429C86.3904 45.988 85.5073 47.3606 83.7461 47.995C81.9849 48.6294 80.4294 48.1354 79.8992 46.7108L81.0432 46.2986C81.3999 47.2416 82.3989 47.3239 83.3774 46.9714C84.2203 46.6677 85.0084 45.9757 84.6614 45.0123C83.8968 42.8898 79.9467 46.3705 78.911 43.4954C78.4338 42.1707 79.2989 40.8897 80.9848 40.2824C82.6707 39.6751 84.154 40.1101 84.6312 41.4348C84.6474 41.48 84.6637 41.5251 84.6745 41.5552L83.5305 41.9673C83.5142 41.9222 83.5034 41.8921 83.4871 41.8469C83.1943 41.0341 82.2266 40.9915 81.3686 41.3006C80.5557 41.5934 79.832 42.2282 80.1249 43.0411C80.7322 44.727 84.7528 41.442 85.8698 44.5429ZM88.5942 38.6977C87.0738 39.2454 86.8357 40.7087 87.1057 41.8359L91.7571 40.1603C91.3336 39.1735 90.1447 38.1392 88.5942 38.6977ZM87.3575 42.6295C87.7985 43.7121 88.902 44.9813 90.6331 44.3577C91.8223 43.9293 92.2665 43.038 92.2301 41.9457L93.4344 41.5119C93.5822 42.8192 93.1544 44.6059 91.0169 45.3759C88.4729 46.2923 86.7515 44.5825 86.1008 42.7761C85.461 40.9998 85.6815 38.5905 88.2405 37.6687C90.7092 36.7794 92.5172 38.3049 93.2282 40.5147L87.3575 42.6295ZM106.195 36.218L107.519 35.7408C107.564 37.1872 107.04 39.6038 104.135 40.6504C100.613 41.9193 98.1648 39.4677 97.2592 36.9538C96.3591 34.455 96.6866 31.0208 100.209 29.7519C103.114 28.7054 105.059 30.2327 105.947 31.3754L104.622 31.8526C103.816 30.9357 102.432 30.2097 100.61 30.8659C97.9609 31.8202 97.7778 34.5222 98.4882 36.4941C99.2148 38.5113 101.084 40.4908 103.719 39.5419C105.555 38.8803 106.153 37.4236 106.195 36.218ZM113.376 32.3558C113.165 32.6695 112.398 33.1839 110.785 34.0881C110.166 34.4471 109.616 35.1385 109.909 35.9514C110.158 36.6438 110.905 36.9701 111.585 36.8272C112.25 36.6898 112.696 36.5121 113.242 35.8562C113.778 35.2208 113.922 34.4379 113.82 33.7774C113.774 33.5558 113.695 33.2439 113.614 33.0181L113.376 32.3558ZM116.585 34.703L116.986 35.8169L116.053 36.1531C115.541 36.3375 115.05 36.1063 114.865 35.5945C114.638 34.9623 114.637 34.2993 114.637 34.2993L114.426 34.3752C114.426 34.3752 114.452 35.6753 113.755 36.5727C113.195 37.2845 112.442 37.7429 111.486 37.9683C110.439 38.2263 109.202 37.7195 108.779 36.5454C108.308 35.2357 108.98 34.3643 109.777 33.839C110.659 33.2662 111.531 32.9011 112.154 32.5066C112.673 32.2005 113.197 31.859 112.881 31.3605C112.512 30.762 111.573 30.4202 110.489 30.8106C109.225 31.2661 108.699 32.3567 109.03 33.2749L107.826 33.7087C107.316 32.2938 108.043 30.5353 110.135 29.7815C112.213 29.0332 113.894 29.9241 114.458 31.4896L115.624 34.726C115.684 34.8916 115.847 34.9687 116.028 34.9036L116.585 34.703ZM122.585 31.317C123.106 32.7621 122.223 34.1346 120.462 34.7691C118.7 35.4035 117.145 34.9094 116.615 33.4848L117.759 33.0727C118.115 34.0156 119.114 34.0979 120.093 33.7455C120.936 33.4418 121.724 32.7498 121.377 31.7864C120.612 29.6639 116.662 33.1446 115.626 30.2694C115.149 28.9448 116.014 27.6638 117.7 27.0565C119.386 26.4491 120.869 26.8842 121.347 28.2089C121.363 28.254 121.379 28.2992 121.39 28.3293L120.246 28.7414C120.23 28.6963 120.219 28.6662 120.203 28.621C119.91 27.8081 118.942 27.7656 118.084 28.0747C117.271 28.3675 116.548 29.0023 116.84 29.8152C117.448 31.5011 121.468 28.2161 122.585 31.317ZM125.31 25.4718C123.789 26.0195 123.551 27.4828 123.821 28.61L128.473 26.9344C128.049 25.9475 126.86 24.9133 125.31 25.4718ZM124.073 29.4036C124.514 30.4862 125.617 31.7553 127.349 31.1318C128.538 30.7034 128.982 29.8121 128.946 28.7197L130.15 28.2859C130.298 29.5932 129.87 31.3799 127.732 32.1499C125.188 33.0664 123.467 31.3565 122.816 29.5502C122.176 27.7739 122.397 25.3646 124.956 24.4428C127.425 23.5535 129.233 25.079 129.944 27.2888L124.073 29.4036ZM137.007 26.122C137.527 27.5671 136.644 28.9396 134.883 29.574C133.122 30.2085 131.566 29.7144 131.036 28.2898L132.18 27.8777C132.537 28.8206 133.536 28.9029 134.514 28.5504C135.357 28.2467 136.145 27.5547 135.798 26.5913C135.034 24.4688 131.084 27.9495 130.048 25.0744C129.571 23.7497 130.436 22.4687 132.122 21.8614C133.808 21.2541 135.291 21.6891 135.768 23.0138C135.784 23.059 135.801 23.1041 135.812 23.1342L134.668 23.5464C134.651 23.5012 134.64 23.4711 134.624 23.4259C134.331 22.6131 133.364 22.5705 132.506 22.8796C131.693 23.1724 130.969 23.8072 131.262 24.6201C131.869 26.3061 135.89 23.021 137.007 26.122Z" fill="white"/>
</g>
<defs>
<filter id="filter0_i_2072_68364" x="33" y="126" width="177" height="40" filterUnits="userSpaceOnUse" color-interpolation-filters="sRGB">
<feFlood flood-opacity="0" result="BackgroundImageFix"/>
<feBlend mode="normal" in="SourceGraphic" in2="BackgroundImageFix" result="shape"/>
<feColorMatrix in="SourceAlpha" type="matrix" values="0 0 0 0 0 0 0 0 0 0 0 0 0 0 0 0 0 0 127 0" result="hardAlpha"/>
<feOffset/>
<feGaussianBlur stdDeviation="7.9"/>
<feComposite in2="hardAlpha" operator="arithmetic" k2="-1" k3="1"/>
<feColorMatrix type="matrix" values="0 0 0 0 1 0 0 0 0 1 0 0 0 0 1 0 0 0 1 0"/>
<feBlend mode="normal" in2="shape" result="effect1_innerShadow_2072_68364"/>
</filter>
<filter id="filter1_i_2072_68364" x="215" y="126" width="124" height="40" filterUnits="userSpaceOnUse" color-interpolation-filters="sRGB">
<feFlood flood-opacity="0" result="BackgroundImageFix"/>
<feBlend mode="normal" in="SourceGraphic" in2="BackgroundImageFix" result="shape"/>
<feColorMatrix in="SourceAlpha" type="matrix" values="0 0 0 0 0 0 0 0 0 0 0 0 0 0 0 0 0 0 127 0" result="hardAlpha"/>
<feOffset/>
<feGaussianBlur stdDeviation="7.9"/>
<feComposite in2="hardAlpha" operator="arithmetic" k2="-1" k3="1"/>
<feColorMatrix type="matrix" values="0 0 0 0 1 0 0 0 0 1 0 0 0 0 1 0 0 0 1 0"/>
<feBlend mode="normal" in2="shape" result="effect1_innerShadow_2072_68364"/>
</filter>
<filter id="filter2_i_2072_68364" x="6" y="85" width="122" height="40" filterUnits="userSpaceOnUse" color-interpolation-filters="sRGB">
<feFlood flood-opacity="0" result="BackgroundImageFix"/>
<feBlend mode="normal" in="SourceGraphic" in2="BackgroundImageFix" result="shape"/>
<feColorMatrix in="SourceAlpha" type="matrix" values="0 0 0 0 0 0 0 0 0 0 0 0 0 0 0 0 0 0 127 0" result="hardAlpha"/>
<feOffset/>
<feGaussianBlur stdDeviation="7.9"/>
<feComposite in2="hardAlpha" operator="arithmetic" k2="-1" k3="1"/>
<feColorMatrix type="matrix" values="0 0 0 0 1 0 0 0 0 1 0 0 0 0 1 0 0 0 1 0"/>
<feBlend mode="normal" in2="shape" result="effect1_innerShadow_2072_68364"/>
</filter>
<filter id="filter3_i_2072_68364" x="109.029" y="45.6221" width="203.899" height="83.0361" filterUnits="userSpaceOnUse" color-interpolation-filters="sRGB">
<feFlood flood-opacity="0" result="BackgroundImageFix"/>
<feBlend mode="normal" in="SourceGraphic" in2="BackgroundImageFix" result="shape"/>
<feColorMatrix in="SourceAlpha" type="matrix" values="0 0 0 0 0 0 0 0 0 0 0 0 0 0 0 0 0 0 127 0" result="hardAlpha"/>
<feOffset/>
<feGaussianBlur stdDeviation="7.9"/>
<feComposite in2="hardAlpha" operator="arithmetic" k2="-1" k3="1"/>
<feColorMatrix type="matrix" values="0 0 0 0 1 0 0 0 0 1 0 0 0 0 1 0 0 0 1 0"/>
<feBlend mode="normal" in2="shape" result="effect1_innerShadow_2072_68364"/>
</filter>
<filter id="filter4_i_2072_68364" x="216.523" y="27.125" width="135.615" height="67.6221" filterUnits="userSpaceOnUse" color-interpolation-filters="sRGB">
<feFlood flood-opacity="0" result="BackgroundImageFix"/>
<feBlend mode="normal" in="SourceGraphic" in2="BackgroundImageFix" result="shape"/>
<feColorMatrix in="SourceAlpha" type="matrix" values="0 0 0 0 0 0 0 0 0 0 0 0 0 0 0 0 0 0 127 0" result="hardAlpha"/>
<feOffset/>
<feGaussianBlur stdDeviation="7.9"/>
<feComposite in2="hardAlpha" operator="arithmetic" k2="-1" k3="1"/>
<feColorMatrix type="matrix" values="0 0 0 0 1 0 0 0 0 1 0 0 0 0 1 0 0 0 1 0"/>
<feBlend mode="normal" in2="shape" result="effect1_innerShadow_2072_68364"/>
</filter>
<filter id="filter5_i_2072_68364" x="0.132812" y="0.501953" width="154.68" height="88.4688" filterUnits="userSpaceOnUse" color-interpolation-filters="sRGB">
<feFlood flood-opacity="0" result="BackgroundImageFix"/>
<feBlend mode="normal" in="SourceGraphic" in2="BackgroundImageFix" result="shape"/>
<feColorMatrix in="SourceAlpha" type="matrix" values="0 0 0 0 0 0 0 0 0 0 0 0 0 0 0 0 0 0 127 0" result="hardAlpha"/>
<feOffset/>
<feGaussianBlur stdDeviation="7.9"/>
<feComposite in2="hardAlpha" operator="arithmetic" k2="-1" k3="1"/>
<feColorMatrix type="matrix" values="0 0 0 0 1 0 0 0 0 1 0 0 0 0 1 0 0 0 1 0"/>
<feBlend mode="normal" in2="shape" result="effect1_innerShadow_2072_68364"/>
</filter>
</defs>
</svg>
