<svg width="352" height="160" viewBox="0 0 352 160" fill="none" xmlns="http://www.w3.org/2000/svg">
<g filter="url(#filter0_i_2072_68318)">
<rect x="32" y="119.999" width="168" height="40" rx="16" fill="#FF6B00"/>
<rect x="33" y="120.999" width="166" height="38" rx="15" stroke="#FF9040" stroke-width="2"/>
<path d="M52.816 141.847C52.816 143.431 51.664 145.191 48.688 145.191C45.728 145.191 44.56 143.335 44.56 141.751H45.872C45.872 142.775 46.672 144.007 48.704 144.007C50.72 144.007 51.504 142.871 51.504 141.847C51.504 140.423 49.696 140.087 48.416 139.847C46.88 139.559 44.736 139.127 44.736 136.791C44.736 135.303 45.856 133.607 48.736 133.607C51.616 133.607 52.752 135.303 52.752 136.791C52.752 136.839 52.752 136.871 52.752 136.919H51.44C51.44 136.871 51.44 136.839 51.44 136.791C51.44 135.863 50.688 134.791 48.736 134.791C46.8 134.791 46.048 135.863 46.048 136.791C46.048 138.151 47.344 138.455 48.608 138.663C50.528 138.999 52.816 139.511 52.816 141.847ZM57.484 138.087C55.868 138.087 55.148 139.383 55.02 140.535H59.964C59.9 139.463 59.132 138.087 57.484 138.087ZM54.988 141.367C55.036 142.535 55.644 144.103 57.484 144.103C58.748 144.103 59.468 143.415 59.804 142.375H61.084C60.78 143.655 59.772 145.191 57.5 145.191C54.796 145.191 53.756 142.999 53.756 141.079C53.756 139.191 54.78 136.999 57.5 136.999C60.124 136.999 61.308 139.047 61.228 141.367H54.988ZM67.9006 140.519C67.5966 140.743 66.7006 140.967 64.8766 141.271C64.1726 141.399 63.4206 141.863 63.4206 142.727C63.4206 143.463 64.0126 144.023 64.7006 144.119C65.3726 144.215 65.8526 144.199 66.5886 143.767C67.3086 143.351 67.7086 142.663 67.8366 142.007C67.8686 141.783 67.9006 141.463 67.9006 141.223V140.519ZM70.1246 143.815V144.999H69.1326C68.5886 144.999 68.2046 144.615 68.2046 144.071C68.2046 143.399 68.4286 142.775 68.4286 142.775H68.2046C68.2046 142.775 67.7886 144.007 66.8286 144.615C66.0606 145.095 65.1966 145.271 64.2206 145.159C63.1486 145.047 62.1566 144.151 62.1566 142.903C62.1566 141.511 63.0846 140.919 64.0126 140.695C65.0366 140.455 65.9806 140.407 66.7006 140.247C67.2926 140.135 67.9006 139.991 67.7726 139.415C67.6286 138.727 66.8606 138.087 65.7086 138.087C64.3646 138.087 63.5006 138.935 63.5006 139.911H62.2206C62.2206 138.407 63.5006 136.999 65.7246 136.999C67.9326 136.999 69.2126 138.407 69.2126 140.071V143.511C69.2126 143.687 69.3406 143.815 69.5326 143.815H70.1246ZM84.1021 140.343V144.999H82.7901V140.471C82.7901 139.415 82.2781 138.327 81.0141 138.135C79.3501 137.863 78.5501 139.255 78.3101 140.535C78.2461 140.967 78.2141 141.559 78.2141 142.199V144.999H76.9981V140.471C76.9981 139.415 76.5821 138.359 75.2381 138.135C73.5741 137.879 72.7741 139.255 72.5181 140.535C72.4541 140.951 72.4221 141.527 72.4221 142.199V144.999H71.1101V137.191H72.4221V137.783C72.4221 138.583 72.1181 139.511 72.1181 139.511H72.3421C72.8541 137.671 74.4061 136.711 76.0061 137.095C77.5741 137.463 77.8781 139.063 77.8301 139.511H78.0541C78.6301 137.671 80.1981 136.695 81.7981 137.095C83.3661 137.463 84.1021 139.047 84.1021 140.343ZM85.6808 133.799H86.9928V144.999H85.6808V133.799ZM91.9696 138.087C90.3536 138.087 89.6336 139.383 89.5056 140.535H94.4496C94.3856 139.463 93.6176 138.087 91.9696 138.087ZM89.4736 141.367C89.5216 142.535 90.1296 144.103 91.9696 144.103C93.2336 144.103 93.9536 143.415 94.2896 142.375H95.5696C95.2656 143.655 94.2576 145.191 91.9856 145.191C89.2816 145.191 88.2416 142.999 88.2416 141.079C88.2416 139.191 89.2656 136.999 91.9856 136.999C94.6096 136.999 95.7936 139.047 95.7136 141.367H89.4736ZM102.754 142.663C102.754 144.199 101.458 145.191 99.5863 145.191C97.7143 145.191 96.4183 144.199 96.4023 142.679H97.6183C97.6343 143.687 98.5463 144.103 99.5863 144.103C100.482 144.103 101.458 143.719 101.458 142.695C101.458 140.439 96.5623 142.375 96.5623 139.319C96.5623 137.911 97.8103 136.999 99.6023 136.999C101.394 136.999 102.642 137.911 102.642 139.319C102.642 139.367 102.642 139.415 102.642 139.447H101.426C101.426 139.399 101.426 139.367 101.426 139.319C101.426 138.455 100.53 138.087 99.6183 138.087C98.7543 138.087 97.8583 138.439 97.8583 139.303C97.8583 141.095 102.754 139.367 102.754 142.663ZM109.762 142.663C109.762 144.199 108.466 145.191 106.594 145.191C104.722 145.191 103.426 144.199 103.41 142.679H104.626C104.642 143.687 105.554 144.103 106.594 144.103C107.49 144.103 108.466 143.719 108.466 142.695C108.466 140.439 103.57 142.375 103.57 139.319C103.57 137.911 104.818 136.999 106.61 136.999C108.402 136.999 109.65 137.911 109.65 139.319C109.65 139.367 109.65 139.415 109.65 139.447H108.434C108.434 139.399 108.434 139.367 108.434 139.319C108.434 138.455 107.538 138.087 106.626 138.087C105.762 138.087 104.866 138.439 104.866 139.303C104.866 141.095 109.762 139.367 109.762 142.663ZM115.321 133.799H116.633V144.999H115.321V133.799ZM125.758 140.519V144.999H124.446V140.663C124.446 139.335 123.998 138.295 122.686 138.103C121.134 137.831 120.19 138.983 119.982 140.519C119.934 140.951 119.87 141.687 119.87 142.455V144.999H118.558V137.191H119.87V137.767C119.87 138.567 119.566 139.495 119.566 139.495H119.79C120.222 137.671 121.79 136.679 123.47 137.079C125.086 137.479 125.758 139.063 125.758 140.519ZM127.574 142.599V138.375H126.438V137.191H127.574V133.799H128.886V137.191H131.094V138.375H128.886V142.583C128.886 143.271 129.414 143.815 130.086 143.815C130.39 143.815 130.998 143.815 131.094 143.815V144.999C130.694 144.999 131.078 144.999 129.958 144.999C128.438 144.999 127.574 143.847 127.574 142.599ZM135.323 138.087C133.707 138.087 132.987 139.383 132.859 140.535H137.803C137.739 139.463 136.971 138.087 135.323 138.087ZM132.827 141.367C132.875 142.535 133.483 144.103 135.323 144.103C136.587 144.103 137.307 143.415 137.643 142.375H138.923C138.619 143.655 137.611 145.191 135.339 145.191C132.635 145.191 131.595 142.999 131.595 141.079C131.595 139.191 132.619 136.999 135.339 136.999C137.963 136.999 139.147 139.047 139.067 141.367H132.827ZM143.548 143.863C141.644 143.863 139.964 142.503 139.964 140.439C139.964 138.375 141.372 136.999 143.436 136.999C144.956 136.999 146.044 137.959 146.3 139.063C146.444 139.527 147.116 139.847 147.116 140.439C147.116 142.503 145.676 143.863 143.548 143.863ZM143.548 142.775C144.988 142.775 145.996 141.815 145.996 140.439C145.996 139.063 144.988 138.103 143.548 138.103C142.092 138.103 141.084 139.063 141.084 140.439C141.084 141.815 142.092 142.775 143.548 142.775ZM143.708 148.647C145.404 148.647 146.668 148.087 146.668 147.255C146.668 146.407 145.308 145.863 143.708 145.863C141.996 145.863 140.748 146.407 140.748 147.255C140.748 148.087 141.996 148.647 143.708 148.647ZM141.468 145.415C141.34 145.415 141.212 145.415 141.116 145.415C140.476 145.415 139.948 145.063 139.948 144.407C139.948 143.735 140.476 143.431 141.116 143.431H141.42V143.159L143.548 143.543V143.863H141.644C141.308 143.863 141.004 144.007 141.004 144.375C141.004 144.727 141.308 144.871 141.644 144.871C142.46 144.871 142.86 144.871 143.708 144.871C146.108 144.871 147.884 145.847 147.884 147.255C147.884 148.647 146.108 149.639 143.724 149.639C141.276 149.639 139.532 148.711 139.532 147.415C139.532 146.231 140.796 145.751 141.468 145.623V145.415ZM146.508 139.063C146.508 139.063 146.3 138.279 146.3 137.735C146.3 137.431 146.54 137.191 146.844 137.191H148.14V138.375H147.388C147.228 138.375 147.116 138.487 147.116 138.631V140.439L146.3 140.311V139.063H146.508ZM153.919 137.191V138.375C151.711 138.375 150.879 140.071 150.879 141.623V144.999H149.567V138.599C149.567 138.455 149.487 138.375 149.343 138.375H148.559V137.191H150.143C150.479 137.191 150.751 137.399 150.751 137.735C150.751 138.375 150.527 139.639 150.527 139.639H150.751C151.167 138.215 152.223 137.223 153.919 137.191ZM160.084 140.519C159.78 140.743 158.884 140.967 157.06 141.271C156.356 141.399 155.604 141.863 155.604 142.727C155.604 143.463 156.196 144.023 156.884 144.119C157.556 144.215 158.036 144.199 158.772 143.767C159.492 143.351 159.892 142.663 160.02 142.007C160.052 141.783 160.084 141.463 160.084 141.223V140.519ZM162.308 143.815V144.999H161.316C160.772 144.999 160.388 144.615 160.388 144.071C160.388 143.399 160.612 142.775 160.612 142.775H160.388C160.388 142.775 159.972 144.007 159.012 144.615C158.244 145.095 157.38 145.271 156.404 145.159C155.332 145.047 154.34 144.151 154.34 142.903C154.34 141.511 155.268 140.919 156.196 140.695C157.22 140.455 158.164 140.407 158.884 140.247C159.476 140.135 160.084 139.991 159.956 139.415C159.812 138.727 159.044 138.087 157.892 138.087C156.548 138.087 155.684 138.935 155.684 139.911H154.404C154.404 138.407 155.684 136.999 157.908 136.999C160.116 136.999 161.396 138.407 161.396 140.071V143.511C161.396 143.687 161.524 143.815 161.716 143.815H162.308ZM163.333 142.599V138.375H162.197V137.191H163.333V133.799H164.645V137.191H166.853V138.375H164.645V142.583C164.645 143.271 165.173 143.815 165.845 143.815C166.149 143.815 166.757 143.815 166.853 143.815V144.999C166.453 144.999 166.837 144.999 165.717 144.999C164.197 144.999 163.333 143.847 163.333 142.599ZM169.511 137.703V144.999H168.199V138.663C168.199 138.503 168.071 138.375 167.911 138.375H167.255V137.191H168.983C169.271 137.191 169.511 137.431 169.511 137.703ZM168.823 134.983C169.191 134.983 169.543 134.663 169.543 134.263C169.543 133.863 169.191 133.543 168.823 133.543C168.423 133.543 168.071 133.863 168.071 134.263C168.071 134.663 168.423 134.983 168.823 134.983ZM174.387 144.183C176.227 144.183 176.899 142.535 176.899 141.095C176.899 139.655 176.227 138.007 174.387 138.007C172.547 138.007 171.859 139.655 171.859 141.095C171.859 142.535 172.547 144.183 174.387 144.183ZM174.387 136.999C177.059 136.999 178.067 139.207 178.067 141.095C178.067 142.983 177.059 145.191 174.387 145.191C171.699 145.191 170.707 142.983 170.707 141.095C170.707 139.207 171.699 136.999 174.387 136.999ZM186.518 140.519V144.999H185.206V140.663C185.206 139.335 184.758 138.295 183.446 138.103C181.894 137.831 180.95 138.983 180.742 140.519C180.694 140.951 180.63 141.687 180.63 142.455V144.999H179.318V137.191H180.63V137.767C180.63 138.567 180.326 139.495 180.326 139.495H180.55C180.982 137.671 182.55 136.679 184.23 137.079C185.846 137.479 186.518 139.063 186.518 140.519Z" fill="white"/>
</g>
<g filter="url(#filter1_i_2072_68318)">
<rect x="214" y="119.999" width="124" height="40" rx="16" fill="#FF6B00"/>
<rect x="215" y="120.999" width="122" height="38" rx="15" stroke="#FF9040" stroke-width="2"/>
<path d="M231.92 138.775C233.008 138.775 234.08 138.135 234.08 136.871C234.08 135.623 233.008 134.983 231.92 134.983H228.56V138.775H231.92ZM233.568 139.303C234.464 139.303 235.232 140.071 235.232 140.967C235.232 142.167 235.232 144.999 235.232 144.999H234.016C234.016 144.999 234.016 142.151 234.016 140.999C234.016 140.439 233.536 139.959 232.992 139.959H228.544V144.999H227.248V133.799H232.048C234.32 133.799 235.392 135.047 235.392 136.599C235.392 138.295 233.904 138.951 233.568 139.079V139.303ZM238.537 137.703V144.999H237.225V138.663C237.225 138.503 237.097 138.375 236.937 138.375H236.281V137.191H238.009C238.297 137.191 238.537 137.431 238.537 137.703ZM237.849 134.983C238.217 134.983 238.569 134.663 238.569 134.263C238.569 133.863 238.217 133.543 237.849 133.543C237.449 133.543 237.097 133.863 237.097 134.263C237.097 134.663 237.449 134.983 237.849 134.983ZM245.925 142.663C245.925 144.199 244.629 145.191 242.757 145.191C240.885 145.191 239.589 144.199 239.573 142.679H240.789C240.805 143.687 241.717 144.103 242.757 144.103C243.653 144.103 244.629 143.719 244.629 142.695C244.629 140.439 239.733 142.375 239.733 139.319C239.733 137.911 240.981 136.999 242.773 136.999C244.565 136.999 245.813 137.911 245.813 139.319C245.813 139.367 245.813 139.415 245.813 139.447H244.597C244.597 139.399 244.597 139.367 244.597 139.319C244.597 138.455 243.701 138.087 242.789 138.087C241.925 138.087 241.029 138.439 241.029 139.303C241.029 141.095 245.925 139.367 245.925 142.663ZM248.469 133.799V140.871H248.869L252.341 137.191H253.845L249.957 141.335V141.543L253.589 144.999H251.957L248.869 142.071H248.469V144.999H247.157V133.799H248.469ZM268.735 133.799H270.911V144.999H269.599V136.807C269.599 135.895 269.743 134.983 269.743 134.983H269.519L265.871 144.999H264.047L260.399 134.983H260.175C260.175 134.983 260.319 135.895 260.319 136.807V144.999H259.007V133.799H261.199L264.847 143.815H265.071L268.735 133.799ZM274.406 137.703V144.999H273.094V138.663C273.094 138.503 272.966 138.375 272.806 138.375H272.15V137.191H273.878C274.166 137.191 274.406 137.431 274.406 137.703ZM273.718 134.983C274.086 134.983 274.438 134.663 274.438 134.263C274.438 133.863 274.086 133.543 273.718 133.543C273.318 133.543 272.966 133.863 272.966 134.263C272.966 134.663 273.318 134.983 273.718 134.983ZM276.37 142.599V138.375H275.234V137.191H276.37V133.799H277.682V137.191H279.89V138.375H277.682V142.583C277.682 143.271 278.21 143.815 278.882 143.815C279.186 143.815 279.794 143.815 279.89 143.815V144.999C279.49 144.999 279.874 144.999 278.754 144.999C277.234 144.999 276.37 143.847 276.37 142.599ZM282.547 137.703V144.999H281.235V138.663C281.235 138.503 281.107 138.375 280.947 138.375H280.291V137.191H282.019C282.307 137.191 282.547 137.431 282.547 137.703ZM281.859 134.983C282.227 134.983 282.579 134.663 282.579 134.263C282.579 133.863 282.227 133.543 281.859 133.543C281.459 133.543 281.107 133.863 281.107 134.263C281.107 134.663 281.459 134.983 281.859 134.983ZM287.375 143.863C285.471 143.863 283.791 142.503 283.791 140.439C283.791 138.375 285.199 136.999 287.263 136.999C288.783 136.999 289.871 137.959 290.127 139.063C290.271 139.527 290.943 139.847 290.943 140.439C290.943 142.503 289.503 143.863 287.375 143.863ZM287.375 142.775C288.815 142.775 289.823 141.815 289.823 140.439C289.823 139.063 288.815 138.103 287.375 138.103C285.919 138.103 284.911 139.063 284.911 140.439C284.911 141.815 285.919 142.775 287.375 142.775ZM287.535 148.647C289.231 148.647 290.495 148.087 290.495 147.255C290.495 146.407 289.135 145.863 287.535 145.863C285.823 145.863 284.575 146.407 284.575 147.255C284.575 148.087 285.823 148.647 287.535 148.647ZM285.295 145.415C285.167 145.415 285.039 145.415 284.943 145.415C284.303 145.415 283.775 145.063 283.775 144.407C283.775 143.735 284.303 143.431 284.943 143.431H285.247V143.159L287.375 143.543V143.863H285.471C285.135 143.863 284.831 144.007 284.831 144.375C284.831 144.727 285.135 144.871 285.471 144.871C286.287 144.871 286.687 144.871 287.535 144.871C289.935 144.871 291.711 145.847 291.711 147.255C291.711 148.647 289.935 149.639 287.551 149.639C285.103 149.639 283.359 148.711 283.359 147.415C283.359 146.231 284.623 145.751 285.295 145.623V145.415ZM290.335 139.063C290.335 139.063 290.127 138.279 290.127 137.735C290.127 137.431 290.367 137.191 290.671 137.191H291.967V138.375H291.215C291.055 138.375 290.943 138.487 290.943 138.631V140.439L290.127 140.311V139.063H290.335ZM298.278 140.519C297.974 140.743 297.078 140.967 295.254 141.271C294.55 141.399 293.798 141.863 293.798 142.727C293.798 143.463 294.39 144.023 295.078 144.119C295.75 144.215 296.23 144.199 296.966 143.767C297.686 143.351 298.086 142.663 298.214 142.007C298.246 141.783 298.278 141.463 298.278 141.223V140.519ZM300.502 143.815V144.999H299.51C298.966 144.999 298.582 144.615 298.582 144.071C298.582 143.399 298.806 142.775 298.806 142.775H298.582C298.582 142.775 298.166 144.007 297.206 144.615C296.438 145.095 295.574 145.271 294.598 145.159C293.526 145.047 292.534 144.151 292.534 142.903C292.534 141.511 293.462 140.919 294.39 140.695C295.414 140.455 296.358 140.407 297.078 140.247C297.67 140.135 298.278 139.991 298.15 139.415C298.006 138.727 297.238 138.087 296.086 138.087C294.742 138.087 293.878 138.935 293.878 139.911H292.598C292.598 138.407 293.878 136.999 296.102 136.999C298.31 136.999 299.59 138.407 299.59 140.071V143.511C299.59 143.687 299.718 143.815 299.91 143.815H300.502ZM301.527 142.599V138.375H300.391V137.191H301.527V133.799H302.839V137.191H305.047V138.375H302.839V142.583C302.839 143.271 303.367 143.815 304.039 143.815C304.343 143.815 304.951 143.815 305.047 143.815V144.999C304.647 144.999 305.031 144.999 303.911 144.999C302.391 144.999 301.527 143.847 301.527 142.599ZM307.704 137.703V144.999H306.392V138.663C306.392 138.503 306.264 138.375 306.104 138.375H305.448V137.191H307.176C307.464 137.191 307.704 137.431 307.704 137.703ZM307.016 134.983C307.384 134.983 307.736 134.663 307.736 134.263C307.736 133.863 307.384 133.543 307.016 133.543C306.616 133.543 306.264 133.863 306.264 134.263C306.264 134.663 306.616 134.983 307.016 134.983ZM312.58 144.183C314.42 144.183 315.092 142.535 315.092 141.095C315.092 139.655 314.42 138.007 312.58 138.007C310.74 138.007 310.052 139.655 310.052 141.095C310.052 142.535 310.74 144.183 312.58 144.183ZM312.58 136.999C315.252 136.999 316.26 139.207 316.26 141.095C316.26 142.983 315.252 145.191 312.58 145.191C309.892 145.191 308.9 142.983 308.9 141.095C308.9 139.207 309.892 136.999 312.58 136.999ZM324.712 140.519V144.999H323.4V140.663C323.4 139.335 322.952 138.295 321.64 138.103C320.088 137.831 319.144 138.983 318.936 140.519C318.888 140.951 318.824 141.687 318.824 142.455V144.999H317.512V137.191H318.824V137.767C318.824 138.567 318.52 139.495 318.52 139.495H318.744C319.176 137.671 320.744 136.679 322.424 137.079C324.04 137.479 324.712 139.063 324.712 140.519Z" fill="white"/>
</g>
<g filter="url(#filter2_i_2072_68318)">
<rect x="5.0332" y="79.376" width="146" height="40" rx="16" fill="#FF6B00"/>
<rect x="6.0332" y="80.376" width="144" height="38" rx="15" stroke="#FF9040" stroke-width="2"/>
<path d="M26.3452 101.096H27.7532C27.3052 102.472 25.9932 104.568 22.9052 104.568C19.1612 104.568 17.6892 101.432 17.6892 98.76C17.6892 96.104 19.1612 92.984 22.9052 92.984C25.9932 92.984 27.3052 95.08 27.7532 96.456H26.3452C25.8972 95.32 24.8412 94.168 22.9052 94.168C20.0892 94.168 19.0012 96.648 19.0012 98.744C19.0012 100.888 20.0892 103.384 22.8892 103.384C24.8412 103.384 25.8972 102.216 26.3452 101.096ZM32.2661 103.56C34.1061 103.56 34.7781 101.912 34.7781 100.472C34.7781 99.032 34.1061 97.384 32.2661 97.384C30.4261 97.384 29.7381 99.032 29.7381 100.472C29.7381 101.912 30.4261 103.56 32.2661 103.56ZM32.2661 96.376C34.9381 96.376 35.9461 98.584 35.9461 100.472C35.9461 102.36 34.9381 104.568 32.2661 104.568C29.5781 104.568 28.5861 102.36 28.5861 100.472C28.5861 98.584 29.5781 96.376 32.2661 96.376ZM42.9737 102.04C42.9737 103.576 41.6777 104.568 39.8057 104.568C37.9337 104.568 36.6377 103.576 36.6217 102.056H37.8377C37.8537 103.064 38.7657 103.48 39.8057 103.48C40.7017 103.48 41.6777 103.096 41.6777 102.072C41.6777 99.816 36.7817 101.752 36.7817 98.696C36.7817 97.288 38.0297 96.376 39.8217 96.376C41.6137 96.376 42.8617 97.288 42.8617 98.696C42.8617 98.744 42.8617 98.792 42.8617 98.824H41.6457C41.6457 98.776 41.6457 98.744 41.6457 98.696C41.6457 97.832 40.7497 97.464 39.8377 97.464C38.9737 97.464 38.0777 97.816 38.0777 98.68C38.0777 100.472 42.9737 98.744 42.9737 102.04ZM44.5891 101.976V97.752H43.4531V96.568H44.5891V93.176H45.9011V96.568H48.1091V97.752H45.9011V101.96C45.9011 102.648 46.4291 103.192 47.1011 103.192C47.4051 103.192 48.0131 103.192 48.1091 103.192V104.376C47.7091 104.376 48.0931 104.376 46.9731 104.376C45.4531 104.376 44.5891 103.224 44.5891 101.976ZM57.9752 103.384C60.7112 103.384 61.7992 100.904 61.7992 98.776C61.7992 96.648 60.7112 94.168 57.9752 94.168C55.2232 94.168 54.1512 96.648 54.1512 98.776C54.1512 100.904 55.2232 103.384 57.9752 103.384ZM57.9752 92.984C61.6712 92.984 63.1112 96.104 63.1112 98.792C63.1112 101.448 61.6712 104.568 57.9752 104.568C54.2792 104.568 52.8392 101.448 52.8392 98.792C52.8392 96.104 54.2792 92.984 57.9752 92.984ZM70.6893 100.472C70.6893 98.872 69.8093 97.56 68.1933 97.56C66.6093 97.56 65.6973 98.872 65.7133 100.472C65.7293 102.072 66.6093 103.384 68.1933 103.384C69.7773 103.384 70.6893 102.072 70.6893 100.472ZM72.0013 100.472C72.0013 102.488 70.9453 104.568 68.5613 104.568C66.9613 104.568 66.0973 103.64 65.6973 102.664H65.4893C65.4893 102.664 65.7133 103.496 65.7133 104.536V108.824H64.4013V96.568H65.7133V96.728C65.7133 97.512 65.4893 98.264 65.4893 98.264H65.6973C66.0973 97.288 66.9453 96.376 68.5933 96.376C70.9773 96.376 72.0013 98.456 72.0013 100.472ZM73.4497 101.976V97.752H72.3137V96.568H73.4497V93.176H74.7617V96.568H76.9697V97.752H74.7617V101.96C74.7617 102.648 75.2897 103.192 75.9617 103.192C76.2657 103.192 76.8737 103.192 76.9697 103.192V104.376C76.5697 104.376 76.9537 104.376 75.8337 104.376C74.3137 104.376 73.4497 103.224 73.4497 101.976ZM79.627 97.08V104.376H78.315V98.04C78.315 97.88 78.187 97.752 78.027 97.752H77.371V96.568H79.099C79.387 96.568 79.627 96.808 79.627 97.08ZM78.939 94.36C79.307 94.36 79.659 94.04 79.659 93.64C79.659 93.24 79.307 92.92 78.939 92.92C78.539 92.92 78.187 93.24 78.187 93.64C78.187 94.04 78.539 94.36 78.939 94.36ZM94.231 99.72V104.376H92.919V99.848C92.919 98.792 92.407 97.704 91.143 97.512C89.479 97.24 88.679 98.632 88.439 99.912C88.375 100.344 88.343 100.936 88.343 101.576V104.376H87.127V99.848C87.127 98.792 86.711 97.736 85.367 97.512C83.703 97.256 82.903 98.632 82.647 99.912C82.583 100.328 82.551 100.904 82.551 101.576V104.376H81.239V96.568H82.551V97.16C82.551 97.96 82.247 98.888 82.247 98.888H82.471C82.983 97.048 84.535 96.088 86.135 96.472C87.703 96.84 88.007 98.44 87.959 98.888H88.183C88.759 97.048 90.327 96.072 91.927 96.472C93.495 96.84 94.231 98.424 94.231 99.72ZM97.3151 97.08V104.376H96.0031V98.04C96.0031 97.88 95.8751 97.752 95.7151 97.752H95.0591V96.568H96.7871C97.0751 96.568 97.3151 96.808 97.3151 97.08ZM96.6271 94.36C96.9951 94.36 97.3471 94.04 97.3471 93.64C97.3471 93.24 96.9951 92.92 96.6271 92.92C96.2271 92.92 95.8751 93.24 95.8751 93.64C95.8751 94.04 96.2271 94.36 96.6271 94.36ZM103.135 97.864V97.656H98.7511V96.568H104.639V97.704C104.639 97.704 101.135 102.04 100.895 102.312C100.591 102.648 100.239 103.032 99.9991 103.08V103.288H104.639V104.376H98.4951V103.24C98.4951 103.24 101.823 99.016 102.175 98.6C102.511 98.216 102.863 97.912 103.135 97.864ZM111.437 99.896C111.133 100.12 110.237 100.344 108.413 100.648C107.709 100.776 106.957 101.24 106.957 102.104C106.957 102.84 107.549 103.4 108.237 103.496C108.909 103.592 109.389 103.576 110.125 103.144C110.845 102.728 111.245 102.04 111.373 101.384C111.405 101.16 111.437 100.84 111.437 100.6V99.896ZM113.661 103.192V104.376H112.669C112.125 104.376 111.741 103.992 111.741 103.448C111.741 102.776 111.965 102.152 111.965 102.152H111.741C111.741 102.152 111.325 103.384 110.365 103.992C109.597 104.472 108.733 104.648 107.757 104.536C106.685 104.424 105.693 103.528 105.693 102.28C105.693 100.888 106.621 100.296 107.549 100.072C108.573 99.832 109.517 99.784 110.237 99.624C110.829 99.512 111.437 99.368 111.309 98.792C111.165 98.104 110.397 97.464 109.245 97.464C107.901 97.464 107.037 98.312 107.037 99.288H105.757C105.757 97.784 107.037 96.376 109.261 96.376C111.469 96.376 112.749 97.784 112.749 99.448V102.888C112.749 103.064 112.877 103.192 113.069 103.192H113.661ZM114.686 101.976V97.752H113.55V96.568H114.686V93.176H115.998V96.568H118.206V97.752H115.998V101.96C115.998 102.648 116.526 103.192 117.198 103.192C117.502 103.192 118.11 103.192 118.206 103.192V104.376C117.806 104.376 118.19 104.376 117.07 104.376C115.55 104.376 114.686 103.224 114.686 101.976ZM120.863 97.08V104.376H119.551V98.04C119.551 97.88 119.423 97.752 119.263 97.752H118.607V96.568H120.335C120.623 96.568 120.863 96.808 120.863 97.08ZM120.175 94.36C120.543 94.36 120.895 94.04 120.895 93.64C120.895 93.24 120.543 92.92 120.175 92.92C119.775 92.92 119.423 93.24 119.423 93.64C119.423 94.04 119.775 94.36 120.175 94.36ZM125.739 103.56C127.579 103.56 128.251 101.912 128.251 100.472C128.251 99.032 127.579 97.384 125.739 97.384C123.899 97.384 123.211 99.032 123.211 100.472C123.211 101.912 123.899 103.56 125.739 103.56ZM125.739 96.376C128.411 96.376 129.419 98.584 129.419 100.472C129.419 102.36 128.411 104.568 125.739 104.568C123.051 104.568 122.059 102.36 122.059 100.472C122.059 98.584 123.051 96.376 125.739 96.376ZM137.871 99.896V104.376H136.559V100.04C136.559 98.712 136.111 97.672 134.799 97.48C133.247 97.208 132.303 98.36 132.095 99.896C132.047 100.328 131.983 101.064 131.983 101.832V104.376H130.671V96.568H131.983V97.144C131.983 97.944 131.679 98.872 131.679 98.872H131.903C132.335 97.048 133.903 96.056 135.583 96.456C137.199 96.856 137.871 98.44 137.871 99.896Z" fill="white"/>
</g>
<g filter="url(#filter3_i_2072_68318)">
<rect y="42.7373" width="175" height="40" rx="16" transform="rotate(-14.1354 0 42.7373)" fill="#FF6B00"/>
<rect x="1.21393" y="43.4628" width="173" height="38" rx="15" transform="rotate(-14.1354 1.21393 43.4628)" stroke="#FF9040" stroke-width="2"/>
<path d="M25.9715 58.5949L27.3368 58.2511C27.2384 59.6948 26.478 62.0478 23.4835 62.8019C19.8529 63.7162 17.6596 61.0347 17.0071 58.4436C16.3585 55.868 17.0239 52.483 20.6546 51.5686C23.6491 50.8145 25.4332 52.5266 26.2037 53.7516L24.8383 54.0954C24.1265 53.1032 22.8211 52.244 20.9437 52.7168C18.213 53.4045 17.7636 56.0751 18.2755 58.1076C18.799 60.1867 20.4637 62.3414 23.1789 61.6576C25.0718 61.1809 25.8106 59.7904 25.9715 58.5949ZM26.6137 50.2659L27.886 49.9455L30.6212 60.8063L29.3489 61.1268L26.6137 50.2659ZM33.7594 52.8882C32.1923 53.2829 31.8106 54.7155 31.9678 55.8638L36.7621 54.6564C36.4383 53.6325 35.3575 52.4858 33.7594 52.8882ZM32.14 56.6785C32.4718 57.7994 33.4443 59.1714 35.2286 58.7221C36.4543 58.4134 36.9845 57.5704 37.0563 56.4798L38.2976 56.1672C38.3154 57.4827 37.713 59.2184 35.5098 59.7732C32.8877 60.4336 31.3438 58.5619 30.8749 56.7C30.4139 54.8692 30.8715 52.4935 33.5092 51.8293C36.0537 51.1884 37.702 52.8853 38.191 55.1546L32.14 56.6785ZM44.4545 52.7027C44.2144 52.9942 43.4003 53.4302 41.7057 54.1704C41.0543 54.4665 40.4384 55.1001 40.6494 55.9379C40.8291 56.6516 41.54 57.0501 42.2306 56.9752C42.9057 56.9042 43.3672 56.7714 43.9755 56.1728C44.5721 55.5935 44.7919 54.8287 44.7559 54.1613C44.7322 53.9362 44.6851 53.6181 44.6265 53.3854L44.4545 52.7027ZM47.4161 55.3558L47.7053 56.5039L46.7433 56.7462C46.2158 56.879 45.7496 56.6004 45.6168 56.0729C45.4527 55.4213 45.5175 54.7614 45.5175 54.7614L45.3003 54.8161C45.3003 54.8161 45.1977 56.1124 44.4153 56.9365C43.7878 57.5895 42.9929 57.9712 42.0191 58.1009C40.9522 58.2541 39.7714 57.6275 39.4667 56.4173C39.1267 55.0674 39.882 54.2667 40.7272 53.8229C41.6616 53.3401 42.5653 53.063 43.2244 52.732C43.7712 52.4788 44.3256 52.1907 44.0608 51.6634C43.7531 51.0314 42.8521 50.5983 41.735 50.8796C40.4317 51.2079 39.8009 52.2412 40.0393 53.1876L38.798 53.5002C38.4307 52.0418 39.3281 50.3638 41.4848 49.8207C43.6259 49.2815 45.211 50.3342 45.6174 51.9479L46.4575 55.2837C46.5005 55.4544 46.6559 55.5472 46.842 55.5003L47.4161 55.3558ZM51.1789 47.5773L51.4681 48.7255C49.3269 49.2647 48.9343 51.1125 49.3133 52.6175L50.1378 55.8913L48.8655 56.2117L47.3026 50.0055C47.2674 49.8659 47.1703 49.8078 47.0306 49.843L46.2704 50.0344L45.9812 48.8863L47.5173 48.4995C47.8431 48.4174 48.1577 48.5527 48.2397 48.8785C48.396 49.4991 48.4875 50.7796 48.4875 50.7796L48.7047 50.7249C48.7603 49.2424 49.5421 48.0225 51.1789 47.5773ZM65.2622 48.7L66.6275 48.3561C66.5291 49.7999 65.7687 52.1528 62.7742 52.907C59.1436 53.8213 56.9503 51.1397 56.2978 48.5486C55.6491 45.9731 56.3146 42.588 59.9453 41.6737C62.9398 40.9196 64.7239 42.6317 65.4944 43.8566L64.129 44.2005C63.4172 43.2083 62.1118 42.3491 60.2344 42.8219C57.5037 43.5096 57.0543 46.1802 57.5661 48.2127C58.0897 50.2918 59.7543 52.4465 62.4696 51.7627C64.3625 51.286 65.1012 49.8955 65.2622 48.7ZM71.6055 49.6434C73.3898 49.1941 73.639 47.4319 73.2873 46.0355C72.9356 44.6391 71.8815 43.2051 70.0972 43.6544C68.313 44.1038 68.0482 45.8699 68.3999 47.2663C68.7516 48.6627 69.8212 50.0928 71.6055 49.6434ZM69.8511 42.677C72.4422 42.0244 73.9589 43.9194 74.4199 45.7502C74.881 47.5811 74.4428 49.9684 71.8517 50.6209C69.2451 51.2774 67.7439 49.3785 67.2828 47.5476C66.8217 45.7168 67.2445 43.3334 69.8511 42.677ZM88.0486 41.5425L89.1857 46.0575L87.9134 46.3779L86.8076 41.987C86.5497 40.963 85.7875 40.033 84.5149 40.1555C82.8349 40.2981 82.399 41.8433 82.4789 43.1432C82.5223 43.5777 82.6359 44.1596 82.7922 44.7802L83.476 47.4955L82.2968 47.7924L81.191 43.4015C80.9331 42.3775 80.2718 41.4551 78.9138 41.5661C77.2377 41.7242 76.7979 43.2539 76.8623 44.5577C76.9018 44.9767 77.0114 45.5431 77.1756 46.1947L77.8594 48.9099L76.5871 49.2304L74.6803 41.6588L75.9525 41.3384L76.0971 41.9124C76.2925 42.6882 76.2243 43.6624 76.2243 43.6624L76.4415 43.6077C76.4887 41.6983 77.7592 40.3884 79.4046 40.37C81.015 40.3439 81.7005 41.8213 81.7634 42.2674L81.9806 42.2127C82.0898 40.2878 83.372 38.9584 85.0212 38.9555C86.6316 38.9295 87.7321 40.2858 88.0486 41.5425ZM102.178 37.9842L103.315 42.4992L102.043 42.8196L100.937 38.4287C100.679 37.4047 99.917 36.4747 98.6444 36.5972C96.9643 36.7398 96.5285 38.285 96.6084 39.5848C96.6518 40.0194 96.7653 40.6013 96.9216 41.2219L97.6054 43.9371L96.4263 44.2341L95.3205 39.8432C95.0626 38.8192 94.4013 37.8967 93.0433 38.0077C91.3671 38.1659 90.9274 39.6956 90.9917 40.9993C91.0313 41.4184 91.1409 41.9847 91.305 42.6364L91.9888 45.3516L90.7165 45.672L88.8097 38.1004L90.082 37.78L90.2266 38.3541C90.4219 39.1299 90.3538 40.104 90.3538 40.104L90.571 40.0493C90.6181 38.14 91.8887 36.83 93.534 36.8117C95.1444 36.7856 95.83 38.2629 95.8928 38.7091L96.11 38.6544C96.2192 36.7294 97.5014 35.4 99.1507 35.3972C100.761 35.3711 101.862 36.7274 102.178 37.9842ZM103.956 38.906L102.862 34.5616L104.134 34.2412L105.193 38.4459C105.517 39.7337 106.206 40.6328 107.525 40.4986C109.096 40.3833 109.715 39.0396 109.557 37.4954C109.498 37.0648 109.38 36.3354 109.193 35.5907L108.571 33.1237L109.844 32.8033L111.75 40.3749L110.478 40.6953L110.337 40.1367C110.142 39.3609 110.21 38.3868 110.21 38.3868L109.993 38.4415C110.02 40.3158 108.726 41.6646 107.014 41.6831C105.35 41.6898 104.311 40.3179 103.956 38.906ZM119.257 33.8645L120.351 38.2088L119.079 38.5293L118.02 34.3245C117.696 33.0368 117.007 32.1377 115.688 32.2719C114.117 32.3871 113.483 33.7348 113.656 35.2751C113.715 35.7057 113.833 36.4351 114.02 37.1798L114.642 39.6468L113.369 39.9672L111.462 32.3956L112.735 32.0752L112.875 32.6338C113.071 33.4095 113.003 34.3837 113.003 34.3837L113.22 34.329C113.193 32.4547 114.472 31.1098 116.198 31.0874C117.863 31.0807 118.902 32.4526 119.257 33.8645ZM121.571 30.3779L123.352 37.453L122.08 37.7734L120.533 31.6293C120.494 31.4741 120.338 31.3813 120.183 31.4203L119.547 31.5805L119.258 30.4324L120.934 30.0104C121.213 29.9401 121.504 30.1142 121.571 30.3779ZM120.239 27.9083C120.596 27.8185 120.859 27.4222 120.762 27.0343C120.664 26.6464 120.244 26.4221 119.888 26.5119C119.5 26.6096 119.236 27.0059 119.334 27.3938C119.432 27.7817 119.851 28.006 120.239 27.9083ZM129.601 33.388L130.951 33.0481C130.891 34.449 130.176 35.9327 128.19 36.4328C125.537 37.101 124.02 35.206 123.555 33.3597C123.098 31.5443 123.536 29.157 126.189 28.4889C128.175 27.9887 129.516 28.9876 130.228 30.1777L128.893 30.5137C128.419 29.8742 127.611 29.3518 126.478 29.637C124.756 30.0707 124.507 31.767 124.827 33.0392C125.163 34.3736 126.178 35.7184 127.901 35.2847C129.033 34.9994 129.486 34.176 129.601 33.388ZM136.816 29.4424C136.576 29.7339 135.762 30.1699 134.067 30.9102C133.416 31.2062 132.8 31.8398 133.011 32.6777C133.191 33.3914 133.902 33.7898 134.592 33.7149C135.267 33.6439 135.729 33.5112 136.337 32.9125C136.934 32.3333 137.154 31.5684 137.118 30.901C137.094 30.676 137.047 30.3578 136.988 30.1251L136.816 29.4424ZM139.778 32.0955L140.067 33.2437L139.105 33.4859C138.577 33.6188 138.111 33.3402 137.978 32.8126C137.814 32.161 137.879 31.5012 137.879 31.5012L137.662 31.5559C137.662 31.5559 137.559 32.8522 136.777 33.6762C136.149 34.3292 135.355 34.7109 134.381 34.8406C133.314 34.9938 132.133 34.3672 131.828 33.157C131.488 31.8072 132.244 31.0065 133.089 30.5626C134.023 30.0798 134.927 29.8027 135.586 29.4717C136.133 29.2185 136.687 28.9304 136.423 28.4031C136.115 27.7711 135.214 27.3381 134.097 27.6194C132.793 27.9476 132.163 28.9809 132.401 29.9274L131.16 30.24C130.792 28.7815 131.69 27.1036 133.847 26.5604C135.988 26.0212 137.573 27.074 137.979 28.6876L138.819 32.0234C138.862 32.1941 139.018 32.287 139.204 32.2401L139.778 32.0955ZM140.475 30.666L139.443 26.5699L138.342 26.8473L138.053 25.6992L139.154 25.4217L138.326 22.1325L139.598 21.812L140.426 25.1013L142.568 24.5621L142.857 25.7103L140.716 26.2495L141.743 30.3301C141.911 30.9972 142.556 31.3958 143.208 31.2317C143.503 31.1575 144.092 31.009 144.185 30.9856L144.474 32.1337C144.086 32.2314 144.459 32.1376 143.373 32.4111C141.899 32.7823 140.78 31.8762 140.475 30.666ZM145.269 24.4097L147.051 31.4848L145.779 31.8052L144.232 25.661C144.192 25.5059 144.037 25.413 143.882 25.4521L143.246 25.6123L142.957 24.4641L144.632 24.0421C144.912 23.9718 145.203 24.1459 145.269 24.4097ZM143.938 21.9401C144.295 21.8502 144.558 21.4539 144.46 21.066C144.363 20.6781 143.943 20.4538 143.586 20.5437C143.198 20.6413 142.935 21.0376 143.033 21.4255C143.131 21.8134 143.55 22.0377 143.938 21.9401ZM151.58 29.5027C153.365 29.0533 153.614 27.2911 153.262 25.8947C152.91 24.4983 151.856 23.0643 150.072 23.5137C148.288 23.963 148.023 25.7292 148.375 27.1256C148.726 28.522 149.796 29.952 151.58 29.5027ZM149.826 22.5362C152.417 21.8837 153.934 23.7786 154.395 25.6095C154.856 27.4403 154.418 29.8276 151.826 30.4802C149.22 31.1366 147.719 29.2377 147.258 27.4069C146.796 25.5761 147.219 23.1927 149.826 22.5362ZM162.45 22.9869L163.544 27.3313L162.272 27.6517L161.213 23.447C160.888 22.1592 160.2 21.2601 158.881 21.3943C157.309 21.5096 156.675 22.8572 156.849 24.3975C156.908 24.8281 157.025 25.5575 157.213 26.3022L157.834 28.7692L156.562 29.0896L154.655 21.518L155.927 21.1976L156.068 21.7562C156.263 22.532 156.195 23.5061 156.195 23.5061L156.412 23.4514C156.386 21.5771 157.664 20.2322 159.391 20.2098C161.056 20.2031 162.094 21.575 162.45 22.9869Z" fill="white"/>
</g>
<g filter="url(#filter4_i_2072_68318)">
<rect x="145.463" y="42.6553" width="173" height="40" rx="16" transform="rotate(13.6773 145.463 42.6553)" fill="#FF6B00"/>
<rect x="146.198" y="43.8634" width="171" height="38" rx="15" transform="rotate(13.6773 146.198 43.8634)" stroke="#FF9040" stroke-width="2"/>
<path d="M157.074 70.1892C159.732 70.8362 161.376 68.6837 161.879 66.6161C162.382 64.5484 161.912 61.8815 159.253 61.2346C156.579 60.5838 154.951 62.74 154.448 64.8077C153.945 66.8754 154.4 69.5385 157.074 70.1892ZM159.533 60.0841C163.124 60.9581 163.786 64.3301 163.15 66.9419C162.522 69.5225 160.385 72.2136 156.794 71.3396C153.203 70.4657 152.541 67.0937 153.17 64.513C153.805 61.9012 155.942 59.2102 159.533 60.0841ZM170.116 70.3661C170.495 68.8115 169.95 67.3286 168.38 66.9465C166.84 66.5719 165.644 67.6311 165.281 69.1895C164.919 70.7479 165.463 72.2308 167.002 72.6053C168.542 72.9799 169.738 71.9207 170.116 70.3661ZM171.391 70.6763C170.914 72.6351 169.396 74.4065 167.08 73.8428C165.525 73.4644 164.905 72.3585 164.747 71.3156L164.545 71.2664C164.545 71.2664 164.566 72.1277 164.32 73.1383L163.306 77.3047L162.032 76.9944L164.93 65.086L166.204 65.3962L166.167 65.5517C165.981 66.3134 165.586 66.9911 165.586 66.9911L165.788 67.0403C166.407 66.1866 167.447 65.501 169.048 65.8906C171.365 66.4543 171.868 68.7175 171.391 70.6763ZM176.537 68.8329C174.967 68.4508 173.961 69.5398 173.564 70.6289L178.368 71.7979C178.56 70.7412 178.139 69.2226 176.537 68.8329ZM173.337 71.4297C173.107 72.576 173.327 74.2433 175.115 74.6783C176.343 74.9772 177.205 74.479 177.778 73.5479L179.021 73.8506C178.423 75.0224 177.081 76.2765 174.873 75.7393C172.246 75.0999 171.754 72.7241 172.208 70.8586C172.654 69.0241 174.167 67.1364 176.81 67.7796C179.36 68.4 180.026 70.6699 179.4 72.9052L173.337 71.4297ZM186.034 70.2219L185.754 71.3723C183.609 70.8502 182.4 72.3014 182.033 73.8094L181.234 77.0896L179.96 76.7794L181.473 70.5609C181.507 70.421 181.448 70.3243 181.308 70.2903L180.546 70.1049L180.826 68.9545L182.365 69.329C182.692 69.4085 182.907 69.6749 182.828 70.0014C182.676 70.6232 182.16 71.7984 182.16 71.7984L182.377 71.8514C183.118 70.5661 184.379 69.8519 186.034 70.2219ZM191.238 74.9134C190.89 75.0591 189.966 75.0649 188.122 74.929C187.408 74.8869 186.567 75.16 186.363 75.9995C186.189 76.7146 186.632 77.3987 187.278 77.6546C187.908 77.9068 188.378 78.0048 189.195 77.759C189.993 77.5251 190.545 76.9512 190.824 76.344C190.908 76.134 191.015 75.8306 191.072 75.5974L191.238 74.9134ZM192.62 78.6418L192.34 79.7922L191.376 79.5576C190.847 79.429 190.565 78.9651 190.694 78.4365C190.853 77.7836 191.218 77.2302 191.218 77.2302L191 77.1773C191 77.1773 190.305 78.276 189.228 78.6397C188.368 78.9245 187.487 78.8913 186.565 78.5517C185.55 78.1894 184.798 77.0842 185.093 75.8716C185.423 74.5191 186.464 74.1633 187.419 74.1651C188.471 74.174 189.399 74.3506 190.137 74.3653C190.738 74.3965 191.363 74.4003 191.375 73.8104C191.398 73.1079 190.803 72.3044 189.683 72.032C188.378 71.7142 187.338 72.3339 187.107 73.2822L185.863 72.9796C186.219 71.5182 187.795 70.4528 189.956 70.9787C192.102 71.5008 193.012 73.1715 192.619 74.7883L191.806 78.1308C191.764 78.3018 191.858 78.4564 192.045 78.5018L192.62 78.6418ZM193.903 77.7026L194.902 73.5984L193.798 73.3298L194.078 72.1794L195.182 72.448L195.984 69.1522L197.259 69.4624L196.457 72.7582L198.602 73.2803L198.322 74.4307L196.177 73.9086L195.182 77.9973C195.019 78.6658 195.404 79.3192 196.056 79.4781C196.352 79.55 196.943 79.6938 197.036 79.7165L196.756 80.8669C196.367 80.7723 196.74 80.8631 195.652 80.5983C194.175 80.2389 193.608 78.9152 193.903 77.7026ZM201.063 74.4061L199.338 81.4952L198.063 81.185L199.561 75.0286C199.599 74.8732 199.505 74.7185 199.349 74.6807L198.712 74.5256L198.992 73.3752L200.671 73.7838C200.951 73.8519 201.127 74.1418 201.063 74.4061ZM201.038 71.6005C201.395 71.6875 201.813 71.4599 201.907 71.0712C202.002 70.6825 201.736 70.2884 201.378 70.2014C200.989 70.1068 200.572 70.3345 200.477 70.7231C200.383 71.1118 200.649 71.506 201.038 71.6005ZM204.269 81.8553C206.056 82.2903 207.099 80.848 207.439 79.4488C207.78 78.0496 207.517 76.2895 205.729 75.8544C203.941 75.4193 202.883 76.8579 202.542 78.2571C202.202 79.6563 202.481 81.4202 204.269 81.8553ZM205.967 74.875C208.563 75.5068 209.021 77.8905 208.574 79.725C208.128 81.5594 206.626 83.4665 204.03 82.8347C201.418 82.1991 200.977 79.8192 201.423 77.9847C201.869 76.1502 203.355 74.2394 205.967 74.875ZM216.922 81.1637L215.863 85.5167L214.588 85.2065L215.614 80.9934C215.928 79.7031 215.738 78.5866 214.509 78.0899C213.065 77.4586 211.876 78.3547 211.31 79.798C211.161 80.2064 210.925 80.9064 210.744 81.6526L210.142 84.1245L208.867 83.8142L210.714 76.2276L211.988 76.5379L211.852 77.0975C211.663 77.8748 211.148 78.7046 211.148 78.7046L211.366 78.7576C212.217 77.0875 213.975 76.4944 215.513 77.2803C216.988 78.051 217.267 79.749 216.922 81.1637ZM223.721 82.8183C223.373 82.964 222.45 82.9698 220.605 82.8339C219.891 82.7918 219.051 83.0649 218.846 83.9044C218.672 84.6195 219.115 85.3036 219.761 85.5595C220.391 85.8117 220.861 85.9097 221.679 85.6639C222.477 85.43 223.028 84.8561 223.307 84.2489C223.391 84.0389 223.498 83.7355 223.555 83.5023L223.721 82.8183ZM225.103 86.5467L224.823 87.6971L223.859 87.4625C223.331 87.3339 223.048 86.87 223.177 86.3414C223.336 85.6885 223.701 85.1351 223.701 85.1351L223.483 85.0822C223.483 85.0822 222.788 86.1809 221.711 86.5446C220.852 86.8294 219.971 86.7962 219.049 86.4566C218.034 86.0942 217.282 84.9891 217.577 83.7765C217.906 82.424 218.947 82.0682 219.902 82.07C220.954 82.0789 221.882 82.2555 222.62 82.2702C223.221 82.3014 223.846 82.3052 223.858 81.7153C223.881 81.0128 223.286 80.2093 222.167 79.9369C220.861 79.6191 219.821 80.2388 219.59 81.1871L218.346 80.8845C218.702 79.4231 220.279 78.3577 222.439 78.8836C224.585 79.4057 225.496 81.0764 225.102 82.6932L224.289 86.0357C224.247 86.2067 224.341 86.3613 224.528 86.4067L225.103 86.5467ZM228.429 77.0477L229.704 77.3579L227.055 88.2404L225.781 87.9301L228.429 77.0477ZM242.226 80.4052L241.946 81.5557L236.52 80.2353L235.623 83.9198L240.536 85.1153L240.264 86.2346L235.351 85.0391L234.432 88.8169L239.857 90.1372L239.577 91.2876L232.877 89.6571L235.541 78.7784L242.226 80.4052ZM243.208 83.526C243.515 82.2668 244.539 80.9681 246.342 81.407L247.29 81.6377L247.01 82.7882L246.031 82.5498C245.207 82.3493 244.687 82.9967 244.532 83.6341L244.343 84.4115L246.473 84.9298L246.193 86.0802L244.063 85.5619L242.497 91.9981L241.222 91.6878L242.788 85.2517L241.684 84.9831L241.964 83.8326L243.068 84.1012L243.208 83.526ZM248.029 84.6991C248.335 83.4399 249.359 82.1412 251.163 82.5801L252.111 82.8108L251.831 83.9613L250.852 83.7229C250.028 83.5224 249.508 84.1698 249.353 84.8072L249.164 85.5846L251.293 86.1029L251.013 87.2533L248.884 86.735L247.317 93.1712L246.043 92.8609L247.609 86.4248L246.505 86.1562L246.785 85.0057L247.889 85.2743L248.029 84.6991ZM253.709 87.2177L251.984 94.3068L250.709 93.9965L252.207 87.8402C252.245 87.6848 252.151 87.5301 251.996 87.4923L251.358 87.3372L251.638 86.1867L253.317 86.5953C253.597 86.6634 253.773 86.9534 253.709 87.2177ZM253.684 84.4121C254.041 84.4991 254.459 84.2714 254.554 83.8828C254.648 83.4941 254.382 83.1 254.024 83.0129C253.636 82.9184 253.218 83.1461 253.123 83.5347C253.029 83.9234 253.295 84.3175 253.684 84.4121ZM259.407 93.6267L260.76 93.9559C260.053 95.1672 258.728 96.1457 256.738 95.6614C254.08 95.0145 253.623 92.6307 254.073 90.7807C254.516 88.9618 256.017 87.0548 258.675 87.7017C260.665 88.186 261.385 89.6949 261.46 91.0798L260.123 90.7545C260.001 89.9675 259.53 89.1283 258.395 88.8521C256.67 88.4322 255.658 89.8162 255.348 91.091C255.022 92.4279 255.293 94.091 257.018 94.511C258.153 94.7872 258.938 94.27 259.407 93.6267ZM264.519 89.8483L262.794 96.9375L261.519 96.6272L263.017 90.4709C263.055 90.3154 262.961 90.1608 262.806 90.123L262.168 89.9679L262.448 88.8174L264.127 89.226C264.407 89.2941 264.584 89.5841 264.519 89.8483ZM264.494 87.0428C264.851 87.1298 265.269 86.9021 265.364 86.5135C265.458 86.1248 265.192 85.7306 264.834 85.6436C264.446 85.549 264.028 85.7767 263.933 86.1654C263.839 86.5541 264.105 86.9482 264.494 87.0428ZM269.213 91.3857C267.643 91.0036 266.637 92.0926 266.24 93.1817L271.044 94.3507C271.235 93.294 270.814 91.7754 269.213 91.3857ZM266.012 93.9826C265.782 95.1288 266.002 96.7961 267.79 97.2312C269.018 97.53 269.881 97.0318 270.453 96.1007L271.697 96.4034C271.099 97.5752 269.756 98.8293 267.549 98.2921C264.921 97.6527 264.429 95.277 264.883 93.4114C265.329 91.5769 266.843 89.6892 269.486 90.3324C272.035 90.9528 272.701 93.2227 272.075 95.458L266.012 93.9826ZM280.5 96.6355L279.441 100.989L278.166 100.678L279.191 96.4652C279.505 95.1749 279.316 94.0585 278.087 93.5617C276.643 92.9304 275.453 93.8265 274.888 95.2698C274.739 95.6782 274.503 96.3782 274.321 97.1244L273.72 99.5963L272.445 99.286L274.291 91.6995L275.566 92.0097L275.43 92.5693C275.241 93.3467 274.726 94.1765 274.726 94.1765L274.943 94.2294C275.795 92.5593 277.553 91.9662 279.09 92.7521C280.566 93.5229 280.844 95.2208 280.5 96.6355ZM286.842 100.303L288.195 100.632C287.488 101.844 286.163 102.822 284.173 102.338C281.515 101.691 281.058 99.3071 281.508 97.4571C281.95 95.6382 283.452 93.7312 286.11 94.3781C288.1 94.8623 288.82 96.3713 288.895 97.7562L287.558 97.4308C287.436 96.6438 286.965 95.8047 285.83 95.5285C284.105 95.1086 283.093 96.4925 282.783 97.7673C282.457 99.1043 282.728 100.767 284.453 101.187C285.588 101.464 286.373 100.946 286.842 100.303ZM292.464 101.753L295.794 96.9322L297.038 97.2349L290.755 106.475C290.266 107.196 289.258 107.955 287.766 107.592C287.051 107.418 286.926 107.388 286.817 107.361L287.082 106.273C287.222 106.307 288.015 106.5 288.093 106.519C288.886 106.712 289.426 106.251 289.703 105.857L291.087 103.823L290.574 103.698L289.576 95.4189L290.819 95.7216L291.562 101.534C291.679 102.337 291.647 102.74 291.647 102.74L291.834 102.786C291.834 102.786 291.99 102.412 292.464 101.753Z" fill="white"/>
</g>
<g filter="url(#filter5_i_2072_68318)">
<rect x="185.461" y="10.667" width="171" height="40" rx="16" transform="rotate(13.68 185.461 10.667)" fill="#FF6B00"/>
<rect x="186.196" y="11.8751" width="169" height="38" rx="15" transform="rotate(13.68 186.196 11.8751)" stroke="#FF9040" stroke-width="2"/>
<path d="M201.77 28.8393L201.49 29.9898L196.064 28.6691L195.167 32.3536L200.08 33.5493L199.808 34.6686L194.895 33.4729L193.975 37.2506L199.401 38.5712L199.121 39.7216L192.421 38.0907L195.085 27.2122L201.77 28.8393ZM208.6 37.4181L207.541 41.771L206.266 41.4607L207.291 37.2477C207.605 35.9574 207.416 34.8409 206.187 34.3441C204.743 33.7128 203.553 34.6088 202.988 36.0521C202.839 36.4605 202.603 37.1605 202.421 37.9067L201.82 40.3785L200.545 40.0682L202.392 32.4817L203.666 32.792L203.53 33.3517C203.341 34.129 202.826 34.9587 202.826 34.9587L203.044 35.0117C203.895 33.3416 205.653 32.7486 207.191 33.5346C208.666 34.3054 208.945 36.0034 208.6 37.4181ZM210.879 38.5655C210.5 40.1202 211.03 41.5993 212.584 41.9777C214.139 42.3561 215.289 41.2856 215.667 39.731C216.049 38.1609 215.501 36.6935 213.962 36.3189C212.423 35.9443 211.261 36.9954 210.879 38.5655ZM209.604 38.2553C210.081 36.2964 211.552 34.5138 213.884 35.0814C215.439 35.4598 216.028 36.5583 216.185 37.6012L216.403 37.6542C216.403 37.6542 216.382 36.7928 216.628 35.7823L217.393 32.642L218.667 32.9523L216.019 43.8345L214.744 43.5243L214.782 43.3688C214.971 42.5915 215.362 41.9293 215.362 41.9293L215.145 41.8764C214.525 42.7301 213.517 43.4232 211.916 43.0335C209.599 42.4697 209.127 40.2141 209.604 38.2553ZM218.807 39.5732L224.186 40.8824L223.929 41.9396L218.55 40.6303L218.807 39.5732ZM225.632 43.7045L226.631 39.6003L225.528 39.3317L225.808 38.1813L226.911 38.4499L227.714 35.1542L228.988 35.4644L228.186 38.7602L230.332 39.2824L230.051 40.4328L227.906 39.9106L226.911 43.9993C226.748 44.6677 227.133 45.3212 227.786 45.4801C228.081 45.552 228.672 45.6958 228.765 45.7185L228.485 46.8689C228.096 46.7743 228.469 46.8651 227.381 46.6003C225.904 46.2408 225.337 44.9171 225.632 43.7045ZM232.741 47.065C234.528 47.5001 235.571 46.0578 235.912 44.6586C236.252 43.2595 235.989 41.4993 234.201 41.0642C232.413 40.629 231.355 42.0675 231.015 43.4667C230.674 44.8658 230.953 46.6298 232.741 47.065ZM234.44 40.0848C237.036 40.7167 237.493 43.1004 237.047 44.9349C236.6 46.7693 235.098 48.6763 232.502 48.0444C229.891 47.4087 229.449 45.0287 229.895 43.1942C230.342 41.3598 231.828 39.449 234.44 40.0848ZM238.537 44.3754L243.916 45.6847L243.658 46.7418L238.279 45.4326L238.537 44.3754ZM254.05 41.5646L253.77 42.715L248.345 41.3944L247.448 45.0788L252.36 46.2746L252.088 47.3939L247.175 46.1982L246.256 49.9759L251.681 51.2965L251.401 52.4469L244.701 50.816L247.365 39.9375L254.05 41.5646ZM260.881 50.1434L259.821 54.4963L258.546 54.186L259.572 49.973C259.886 48.6827 259.697 47.5662 258.467 47.0694C257.024 46.438 255.834 47.3341 255.269 48.7773C255.12 49.1857 254.883 49.8857 254.702 50.6319L254.1 53.1038L252.825 52.7935L254.672 45.207L255.947 45.5173L255.811 46.0769C255.621 46.8542 255.106 47.684 255.106 47.684L255.324 47.737C256.175 46.0669 257.933 45.4739 259.471 46.2598C260.947 47.0307 261.225 48.7287 260.881 50.1434ZM263.159 51.2908C262.781 52.8454 263.31 54.3245 264.865 54.7029C266.419 55.0813 267.569 54.0109 267.948 52.4563C268.33 50.8861 267.781 49.4188 266.242 49.0442C264.703 48.6695 263.541 49.7207 263.159 51.2908ZM261.885 50.9805C262.361 49.0217 263.833 47.2391 266.165 47.8067C267.719 48.1851 268.308 49.2836 268.466 50.3265L268.684 50.3794C268.684 50.3794 268.663 49.5181 268.909 48.5076L269.673 45.3673L270.948 45.6775L268.299 56.5598L267.024 56.2495L267.062 56.0941C267.251 55.3168 267.643 54.6546 267.643 54.6546L267.425 54.6016C266.806 55.4554 265.797 56.1485 264.196 55.7588C261.88 55.1949 261.408 52.9393 261.885 50.9805ZM283.443 48.719L283.163 49.8694L277.738 48.5488L276.841 52.2332L281.753 53.429L281.481 54.5483L276.568 53.3526L275.649 57.1303L281.075 58.4509L280.795 59.6013L274.094 57.9704L276.759 47.0919L283.443 48.719ZM290.517 53.9317L287.082 57.0149L288.717 61.5296L287.333 61.1928L285.944 57.4295L285.742 57.3803L282.763 60.0803L281.379 59.7435L284.921 56.4889L283.272 52.1684L284.671 52.5089L286.115 56.2526L289.133 53.5949L290.517 53.9317ZM296.5 59.4061C296.879 57.8515 296.334 56.3686 294.764 55.9864C293.225 55.6118 292.028 56.6709 291.665 58.2293C291.303 59.7877 291.847 61.2706 293.386 61.6452C294.925 62.0198 296.122 60.9607 296.5 59.4061ZM297.775 59.7164C297.298 61.6752 295.78 63.4465 293.464 62.8827C291.909 62.5043 291.289 61.3983 291.131 60.3553L290.929 60.3061C290.929 60.3061 290.95 61.1675 290.704 62.178L289.69 66.3444L288.415 66.0341L291.314 54.1258L292.589 54.4361L292.551 54.5915C292.365 55.3533 291.97 56.031 291.97 56.031L292.172 56.0802C292.792 55.2264 293.831 54.5409 295.432 54.9306C297.749 55.4944 298.252 57.7576 297.775 59.7164ZM302.922 57.8733C301.351 57.4911 300.345 58.58 299.948 59.6691L304.752 60.8383C304.944 59.7816 304.523 58.263 302.922 57.8733ZM299.721 60.4699C299.491 61.6161 299.711 63.2835 301.499 63.7186C302.727 64.0175 303.589 63.5193 304.162 62.5883L305.405 62.891C304.807 64.0628 303.465 65.3169 301.257 64.7795C298.63 64.14 298.138 61.7643 298.592 59.8987C299.038 58.0643 300.552 56.1766 303.194 56.8199C305.744 57.4405 306.41 59.7104 305.784 61.9457L299.721 60.4699ZM312.418 59.2627L312.138 60.4131C309.993 59.8909 308.783 61.342 308.416 62.85L307.618 66.1302L306.343 65.8199L307.857 59.6015C307.891 59.4616 307.832 59.3649 307.692 59.3309L306.93 59.1455L307.21 57.995L308.749 58.3697C309.076 58.4491 309.291 58.7155 309.212 59.042C309.06 59.6639 308.544 60.839 308.544 60.839L308.761 60.892C309.502 59.6068 310.763 58.8927 312.418 59.2627ZM312.567 64.8647L313.566 60.7605L312.462 60.4918L312.742 59.3414L313.846 59.6101L314.648 56.3143L315.923 56.6246L315.12 59.9204L317.266 60.4426L316.986 61.593L314.84 61.0708L313.845 65.1594C313.683 65.8279 314.067 66.4813 314.72 66.6403C315.015 66.7122 315.606 66.856 315.699 66.8787L315.419 68.0291C315.031 67.9345 315.404 68.0253 314.315 67.7604C312.839 67.4009 312.272 66.0773 312.567 64.8647ZM319.727 61.5685L318.001 68.6575L316.726 68.3472L318.225 62.191C318.263 62.0355 318.169 61.8809 318.013 61.843L317.376 61.6879L317.656 60.5375L319.335 60.9461C319.615 61.0142 319.791 61.3042 319.727 61.5685ZM319.701 58.7629C320.059 58.85 320.477 58.6223 320.571 58.2336C320.666 57.845 320.4 57.4508 320.042 57.3638C319.653 57.2692 319.236 57.4969 319.141 57.8855C319.046 58.2742 319.313 58.6683 319.701 58.7629ZM325.732 68.135C325.369 69.6275 323.875 70.2848 322.056 69.8421C320.237 69.3994 319.212 68.129 319.556 66.6483L320.738 66.9359C320.515 67.9191 321.303 68.539 322.313 68.785C323.184 68.9969 324.223 68.8546 324.465 67.8596C324.999 65.6676 319.784 66.3908 320.507 63.4215C320.84 62.0534 322.268 61.4625 324.009 61.8863C325.75 62.3101 326.747 63.4914 326.414 64.8594C326.403 64.906 326.391 64.9527 326.384 64.9838L325.202 64.6962C325.214 64.6496 325.221 64.6185 325.233 64.5718C325.437 63.7323 324.653 63.1629 323.767 62.9472C322.928 62.7428 321.974 62.873 321.77 63.7125C321.346 65.4536 326.512 64.9325 325.732 68.135ZM331.229 64.7635C329.659 64.3813 328.653 65.4703 328.256 66.5593L333.06 67.7286C333.251 66.6719 332.831 65.1533 331.229 64.7635ZM328.029 67.3602C327.799 68.5064 328.019 70.1737 329.807 70.6089C331.035 70.9078 331.897 70.4096 332.47 69.4786L333.713 69.7813C333.115 70.9531 331.772 72.2071 329.565 71.6698C326.938 71.0303 326.446 68.6545 326.9 66.789C327.346 64.9545 328.859 63.0669 331.502 63.7102C334.052 64.3307 334.718 66.6007 334.092 68.8359L328.029 67.3602Z" fill="white"/>
</g>
<defs>
<filter id="filter0_i_2072_68318" x="32" y="119.999" width="168" height="40" filterUnits="userSpaceOnUse" color-interpolation-filters="sRGB">
<feFlood flood-opacity="0" result="BackgroundImageFix"/>
<feBlend mode="normal" in="SourceGraphic" in2="BackgroundImageFix" result="shape"/>
<feColorMatrix in="SourceAlpha" type="matrix" values="0 0 0 0 0 0 0 0 0 0 0 0 0 0 0 0 0 0 127 0" result="hardAlpha"/>
<feOffset/>
<feGaussianBlur stdDeviation="7.9"/>
<feComposite in2="hardAlpha" operator="arithmetic" k2="-1" k3="1"/>
<feColorMatrix type="matrix" values="0 0 0 0 1 0 0 0 0 1 0 0 0 0 1 0 0 0 0.6 0"/>
<feBlend mode="normal" in2="shape" result="effect1_innerShadow_2072_68318"/>
</filter>
<filter id="filter1_i_2072_68318" x="214" y="119.999" width="124" height="40" filterUnits="userSpaceOnUse" color-interpolation-filters="sRGB">
<feFlood flood-opacity="0" result="BackgroundImageFix"/>
<feBlend mode="normal" in="SourceGraphic" in2="BackgroundImageFix" result="shape"/>
<feColorMatrix in="SourceAlpha" type="matrix" values="0 0 0 0 0 0 0 0 0 0 0 0 0 0 0 0 0 0 127 0" result="hardAlpha"/>
<feOffset/>
<feGaussianBlur stdDeviation="7.9"/>
<feComposite in2="hardAlpha" operator="arithmetic" k2="-1" k3="1"/>
<feColorMatrix type="matrix" values="0 0 0 0 1 0 0 0 0 1 0 0 0 0 1 0 0 0 0.6 0"/>
<feBlend mode="normal" in2="shape" result="effect1_innerShadow_2072_68318"/>
</filter>
<filter id="filter2_i_2072_68318" x="5.0332" y="79.376" width="146" height="40" filterUnits="userSpaceOnUse" color-interpolation-filters="sRGB">
<feFlood flood-opacity="0" result="BackgroundImageFix"/>
<feBlend mode="normal" in="SourceGraphic" in2="BackgroundImageFix" result="shape"/>
<feColorMatrix in="SourceAlpha" type="matrix" values="0 0 0 0 0 0 0 0 0 0 0 0 0 0 0 0 0 0 127 0" result="hardAlpha"/>
<feOffset/>
<feGaussianBlur stdDeviation="7.9"/>
<feComposite in2="hardAlpha" operator="arithmetic" k2="-1" k3="1"/>
<feColorMatrix type="matrix" values="0 0 0 0 1 0 0 0 0 1 0 0 0 0 1 0 0 0 0.6 0"/>
<feBlend mode="normal" in2="shape" result="effect1_innerShadow_2072_68318"/>
</filter>
<filter id="filter3_i_2072_68318" x="0" y="0" width="179.47" height="81.5264" filterUnits="userSpaceOnUse" color-interpolation-filters="sRGB">
<feFlood flood-opacity="0" result="BackgroundImageFix"/>
<feBlend mode="normal" in="SourceGraphic" in2="BackgroundImageFix" result="shape"/>
<feColorMatrix in="SourceAlpha" type="matrix" values="0 0 0 0 0 0 0 0 0 0 0 0 0 0 0 0 0 0 127 0" result="hardAlpha"/>
<feOffset/>
<feGaussianBlur stdDeviation="7.9"/>
<feComposite in2="hardAlpha" operator="arithmetic" k2="-1" k3="1"/>
<feColorMatrix type="matrix" values="0 0 0 0 1 0 0 0 0 1 0 0 0 0 1 0 0 0 0.6 0"/>
<feBlend mode="normal" in2="shape" result="effect1_innerShadow_2072_68318"/>
</filter>
<filter id="filter4_i_2072_68318" x="136.005" y="42.6553" width="177.553" height="79.772" filterUnits="userSpaceOnUse" color-interpolation-filters="sRGB">
<feFlood flood-opacity="0" result="BackgroundImageFix"/>
<feBlend mode="normal" in="SourceGraphic" in2="BackgroundImageFix" result="shape"/>
<feColorMatrix in="SourceAlpha" type="matrix" values="0 0 0 0 0 0 0 0 0 0 0 0 0 0 0 0 0 0 127 0" result="hardAlpha"/>
<feOffset/>
<feGaussianBlur stdDeviation="7.9"/>
<feComposite in2="hardAlpha" operator="arithmetic" k2="-1" k3="1"/>
<feColorMatrix type="matrix" values="0 0 0 0 1 0 0 0 0 1 0 0 0 0 1 0 0 0 0.6 0"/>
<feBlend mode="normal" in2="shape" result="effect1_innerShadow_2072_68318"/>
</filter>
<filter id="filter5_i_2072_68318" x="176.001" y="10.667" width="175.609" height="79.3066" filterUnits="userSpaceOnUse" color-interpolation-filters="sRGB">
<feFlood flood-opacity="0" result="BackgroundImageFix"/>
<feBlend mode="normal" in="SourceGraphic" in2="BackgroundImageFix" result="shape"/>
<feColorMatrix in="SourceAlpha" type="matrix" values="0 0 0 0 0 0 0 0 0 0 0 0 0 0 0 0 0 0 127 0" result="hardAlpha"/>
<feOffset/>
<feGaussianBlur stdDeviation="7.9"/>
<feComposite in2="hardAlpha" operator="arithmetic" k2="-1" k3="1"/>
<feColorMatrix type="matrix" values="0 0 0 0 1 0 0 0 0 1 0 0 0 0 1 0 0 0 0.6 0"/>
<feBlend mode="normal" in2="shape" result="effect1_innerShadow_2072_68318"/>
</filter>
</defs>
</svg>
