<svg width="20" height="19" viewBox="0 0 20 19" fill="none" xmlns="http://www.w3.org/2000/svg">
<path d="M0.5 15.8715V10.507L5.25037 8.49609L10.0007 10.5085V15.8715L5.25037 17.8809L0.5 15.8715Z" stroke="white" stroke-linecap="round" stroke-linejoin="round"/>
<path d="M0.5 10.496L5.25037 12.5069L10.0007 10.496M5.25037 3.16797L9.99924 5.18039L14.7496 3.16945" stroke="white" stroke-linecap="round" stroke-linejoin="round"/>
<path d="M9.99902 10.4961L14.7494 12.507L19.4998 10.4961" stroke="white" stroke-linecap="round" stroke-linejoin="round"/>
<path d="M5.25049 12.51V17.8819M14.7527 12.51V17.8819M9.99936 5.18055V10.5509M5.25349 8.49259V3.12812L10.0024 1.11719L14.7527 3.12812V8.49259L10.0024 10.5035L5.25349 8.49259ZM9.99936 15.871V10.5065L14.7497 8.49556L19.5001 10.508V15.871L14.7497 17.8804L9.99936 15.871Z" stroke="white" stroke-linecap="round" stroke-linejoin="round"/>
</svg>
