<svg width="19" height="17" viewBox="0 0 19 17" fill="none" xmlns="http://www.w3.org/2000/svg">
<mask id="path-1-inside-1_1829_50825" fill="white">
<path d="M18.8751 8.68805C18.8743 7.86018 18.639 7.04947 18.1966 6.34974C17.7542 5.65001 17.1226 5.08987 16.3751 4.73414V4.62555C16.3744 3.82025 16.1144 3.03658 15.6337 2.39048C15.1531 1.74439 14.4771 1.27019 13.706 1.03807C12.9349 0.805946 12.1095 0.828221 11.3521 1.1016C10.5946 1.37498 9.94524 1.88494 9.5001 2.55602C9.05495 1.88494 8.4056 1.37498 7.64813 1.1016C6.89065 0.828221 6.06529 0.805946 5.29417 1.03807C4.52305 1.27019 3.84714 1.74439 3.36645 2.39048C2.88576 3.03658 2.62582 3.82025 2.6251 4.62555V4.73414C1.87692 5.0889 1.24478 5.64869 0.802135 6.34846C0.359488 7.04823 0.124512 7.85925 0.124512 8.68727C0.124512 9.51529 0.359488 10.3263 0.802135 11.0261C1.24478 11.7259 1.87692 12.2856 2.6251 12.6404V12.7505C2.62582 13.5558 2.88576 14.3395 3.36645 14.9856C3.84714 15.6317 4.52305 16.1059 5.29417 16.338C6.06529 16.5702 6.89065 16.5479 7.64813 16.2745C8.4056 16.0011 9.05495 15.4912 9.5001 14.8201C9.94524 15.4912 10.5946 16.0011 11.3521 16.2745C12.1095 16.5479 12.9349 16.5702 13.706 16.338C14.4771 16.1059 15.1531 15.6317 15.6337 14.9856C16.1144 14.3395 16.3744 13.5558 16.3751 12.7505V12.6404C17.1225 12.2849 17.754 11.7251 18.1964 11.0256C18.6389 10.3261 18.8742 9.51569 18.8751 8.68805ZM6.3751 15.2505C5.75865 15.2505 5.16397 15.0226 4.70527 14.6108C4.24658 14.199 3.95621 13.6322 3.88994 13.0193C4.09205 13.0481 4.29594 13.0628 4.5001 13.063H5.1251C5.29086 13.063 5.44983 12.9972 5.56704 12.88C5.68425 12.7628 5.7501 12.6038 5.7501 12.438C5.7501 12.2723 5.68425 12.1133 5.56704 11.9961C5.44983 11.8789 5.29086 11.813 5.1251 11.813H4.5001C3.76225 11.8139 3.0479 11.5537 2.48352 11.0784C1.91913 10.6031 1.54112 9.94348 1.41641 9.21625C1.2917 8.48902 1.42833 7.74112 1.80211 7.10496C2.17589 6.4688 2.76272 5.98542 3.45869 5.74039C3.58047 5.69728 3.68589 5.61749 3.76046 5.512C3.83503 5.40652 3.87508 5.28051 3.8751 5.15133V4.62555C3.8751 3.96251 4.13849 3.32662 4.60733 2.85778C5.07617 2.38894 5.71206 2.12555 6.3751 2.12555C7.03814 2.12555 7.67402 2.38894 8.14287 2.85778C8.61171 3.32662 8.8751 3.96251 8.8751 4.62555V9.95836C8.18878 9.34109 7.29817 8.99987 6.3751 9.00055C6.20934 9.00055 6.05037 9.0664 5.93316 9.18361C5.81595 9.30082 5.7501 9.45979 5.7501 9.62555C5.7501 9.79131 5.81595 9.95028 5.93316 10.0675C6.05037 10.1847 6.20934 10.2505 6.3751 10.2505C7.03814 10.2505 7.67402 10.5139 8.14287 10.9828C8.61171 11.4516 8.8751 12.0875 8.8751 12.7505C8.8751 13.4136 8.61171 14.0495 8.14287 14.5183C7.67402 14.9872 7.03814 15.2505 6.3751 15.2505ZM14.5001 11.813H13.8751C13.7093 11.813 13.5504 11.8789 13.4332 11.9961C13.3159 12.1133 13.2501 12.2723 13.2501 12.438C13.2501 12.6038 13.3159 12.7628 13.4332 12.88C13.5504 12.9972 13.7093 13.063 13.8751 13.063H14.5001C14.7043 13.0628 14.9081 13.0481 15.1103 13.0193C15.0583 13.4995 14.8684 13.9544 14.5635 14.329C14.2585 14.7035 13.8516 14.9817 13.3919 15.1299C12.9322 15.2782 12.4394 15.29 11.9731 15.1641C11.5067 15.0382 11.0869 14.7799 10.7643 14.4205C10.4416 14.061 10.23 13.6158 10.1551 13.1386C10.0801 12.6615 10.1449 12.1728 10.3417 11.7318C10.5386 11.2907 10.859 10.9161 11.2642 10.6532C11.6694 10.3903 12.1421 10.2505 12.6251 10.2505C12.7909 10.2505 12.9498 10.1847 13.067 10.0675C13.1843 9.95028 13.2501 9.79131 13.2501 9.62555C13.2501 9.45979 13.1843 9.30082 13.067 9.18361C12.9498 9.0664 12.7909 9.00055 12.6251 9.00055C11.702 8.99987 10.8114 9.34109 10.1251 9.95836V4.62555C10.1251 3.96251 10.3885 3.32662 10.8573 2.85778C11.3262 2.38894 11.9621 2.12555 12.6251 2.12555C13.2881 2.12555 13.924 2.38894 14.3929 2.85778C14.8617 3.32662 15.1251 3.96251 15.1251 4.62555V5.15133C15.1251 5.28051 15.1652 5.40652 15.2397 5.512C15.3143 5.61749 15.4197 5.69728 15.5415 5.74039C16.2375 5.98542 16.8243 6.4688 17.1981 7.10496C17.5719 7.74112 17.7085 8.48902 17.5838 9.21625C17.4591 9.94348 17.0811 10.6031 16.5167 11.0784C15.9523 11.5537 15.2379 11.8139 14.5001 11.813ZM15.7501 7.75055C15.7501 7.91631 15.6843 8.07528 15.567 8.19249C15.4498 8.3097 15.2909 8.37555 15.1251 8.37555H14.8126C14.0667 8.37555 13.3513 8.07923 12.8239 7.55179C12.2964 7.02434 12.0001 6.30897 12.0001 5.56305V5.25055C12.0001 5.08479 12.0659 4.92582 12.1832 4.80861C12.3004 4.6914 12.4593 4.62555 12.6251 4.62555C12.7909 4.62555 12.9498 4.6914 13.067 4.80861C13.1843 4.92582 13.2501 5.08479 13.2501 5.25055V5.56305C13.2501 5.97745 13.4147 6.37488 13.7077 6.6679C14.0008 6.96093 14.3982 7.12555 14.8126 7.12555H15.1251C15.2909 7.12555 15.4498 7.1914 15.567 7.30861C15.6843 7.42582 15.7501 7.58479 15.7501 7.75055ZM4.1876 8.37555H3.8751C3.70934 8.37555 3.55037 8.3097 3.43316 8.19249C3.31595 8.07528 3.2501 7.91631 3.2501 7.75055C3.2501 7.58479 3.31595 7.42582 3.43316 7.30861C3.55037 7.1914 3.70934 7.12555 3.8751 7.12555H4.1876C4.602 7.12555 4.99943 6.96093 5.29245 6.6679C5.58548 6.37488 5.7501 5.97745 5.7501 5.56305V5.25055C5.7501 5.08479 5.81595 4.92582 5.93316 4.80861C6.05037 4.6914 6.20934 4.62555 6.3751 4.62555C6.54086 4.62555 6.69983 4.6914 6.81704 4.80861C6.93425 4.92582 7.0001 5.08479 7.0001 5.25055V5.56305C7.0001 6.30897 6.70378 7.02434 6.17634 7.55179C5.64889 8.07923 4.93352 8.37555 4.1876 8.37555Z"/>
</mask>
<path d="M18.8751 8.68805C18.8743 7.86018 18.639 7.04947 18.1966 6.34974C17.7542 5.65001 17.1226 5.08987 16.3751 4.73414V4.62555C16.3744 3.82025 16.1144 3.03658 15.6337 2.39048C15.1531 1.74439 14.4771 1.27019 13.706 1.03807C12.9349 0.805946 12.1095 0.828221 11.3521 1.1016C10.5946 1.37498 9.94524 1.88494 9.5001 2.55602C9.05495 1.88494 8.4056 1.37498 7.64813 1.1016C6.89065 0.828221 6.06529 0.805946 5.29417 1.03807C4.52305 1.27019 3.84714 1.74439 3.36645 2.39048C2.88576 3.03658 2.62582 3.82025 2.6251 4.62555V4.73414C1.87692 5.0889 1.24478 5.64869 0.802135 6.34846C0.359488 7.04823 0.124512 7.85925 0.124512 8.68727C0.124512 9.51529 0.359488 10.3263 0.802135 11.0261C1.24478 11.7259 1.87692 12.2856 2.6251 12.6404V12.7505C2.62582 13.5558 2.88576 14.3395 3.36645 14.9856C3.84714 15.6317 4.52305 16.1059 5.29417 16.338C6.06529 16.5702 6.89065 16.5479 7.64813 16.2745C8.4056 16.0011 9.05495 15.4912 9.5001 14.8201C9.94524 15.4912 10.5946 16.0011 11.3521 16.2745C12.1095 16.5479 12.9349 16.5702 13.706 16.338C14.4771 16.1059 15.1531 15.6317 15.6337 14.9856C16.1144 14.3395 16.3744 13.5558 16.3751 12.7505V12.6404C17.1225 12.2849 17.754 11.7251 18.1964 11.0256C18.6389 10.3261 18.8742 9.51569 18.8751 8.68805ZM6.3751 15.2505C5.75865 15.2505 5.16397 15.0226 4.70527 14.6108C4.24658 14.199 3.95621 13.6322 3.88994 13.0193C4.09205 13.0481 4.29594 13.0628 4.5001 13.063H5.1251C5.29086 13.063 5.44983 12.9972 5.56704 12.88C5.68425 12.7628 5.7501 12.6038 5.7501 12.438C5.7501 12.2723 5.68425 12.1133 5.56704 11.9961C5.44983 11.8789 5.29086 11.813 5.1251 11.813H4.5001C3.76225 11.8139 3.0479 11.5537 2.48352 11.0784C1.91913 10.6031 1.54112 9.94348 1.41641 9.21625C1.2917 8.48902 1.42833 7.74112 1.80211 7.10496C2.17589 6.4688 2.76272 5.98542 3.45869 5.74039C3.58047 5.69728 3.68589 5.61749 3.76046 5.512C3.83503 5.40652 3.87508 5.28051 3.8751 5.15133V4.62555C3.8751 3.96251 4.13849 3.32662 4.60733 2.85778C5.07617 2.38894 5.71206 2.12555 6.3751 2.12555C7.03814 2.12555 7.67402 2.38894 8.14287 2.85778C8.61171 3.32662 8.8751 3.96251 8.8751 4.62555V9.95836C8.18878 9.34109 7.29817 8.99987 6.3751 9.00055C6.20934 9.00055 6.05037 9.0664 5.93316 9.18361C5.81595 9.30082 5.7501 9.45979 5.7501 9.62555C5.7501 9.79131 5.81595 9.95028 5.93316 10.0675C6.05037 10.1847 6.20934 10.2505 6.3751 10.2505C7.03814 10.2505 7.67402 10.5139 8.14287 10.9828C8.61171 11.4516 8.8751 12.0875 8.8751 12.7505C8.8751 13.4136 8.61171 14.0495 8.14287 14.5183C7.67402 14.9872 7.03814 15.2505 6.3751 15.2505ZM14.5001 11.813H13.8751C13.7093 11.813 13.5504 11.8789 13.4332 11.9961C13.3159 12.1133 13.2501 12.2723 13.2501 12.438C13.2501 12.6038 13.3159 12.7628 13.4332 12.88C13.5504 12.9972 13.7093 13.063 13.8751 13.063H14.5001C14.7043 13.0628 14.9081 13.0481 15.1103 13.0193C15.0583 13.4995 14.8684 13.9544 14.5635 14.329C14.2585 14.7035 13.8516 14.9817 13.3919 15.1299C12.9322 15.2782 12.4394 15.29 11.9731 15.1641C11.5067 15.0382 11.0869 14.7799 10.7643 14.4205C10.4416 14.061 10.23 13.6158 10.1551 13.1386C10.0801 12.6615 10.1449 12.1728 10.3417 11.7318C10.5386 11.2907 10.859 10.9161 11.2642 10.6532C11.6694 10.3903 12.1421 10.2505 12.6251 10.2505C12.7909 10.2505 12.9498 10.1847 13.067 10.0675C13.1843 9.95028 13.2501 9.79131 13.2501 9.62555C13.2501 9.45979 13.1843 9.30082 13.067 9.18361C12.9498 9.0664 12.7909 9.00055 12.6251 9.00055C11.702 8.99987 10.8114 9.34109 10.1251 9.95836V4.62555C10.1251 3.96251 10.3885 3.32662 10.8573 2.85778C11.3262 2.38894 11.9621 2.12555 12.6251 2.12555C13.2881 2.12555 13.924 2.38894 14.3929 2.85778C14.8617 3.32662 15.1251 3.96251 15.1251 4.62555V5.15133C15.1251 5.28051 15.1652 5.40652 15.2397 5.512C15.3143 5.61749 15.4197 5.69728 15.5415 5.74039C16.2375 5.98542 16.8243 6.4688 17.1981 7.10496C17.5719 7.74112 17.7085 8.48902 17.5838 9.21625C17.4591 9.94348 17.0811 10.6031 16.5167 11.0784C15.9523 11.5537 15.2379 11.8139 14.5001 11.813ZM15.7501 7.75055C15.7501 7.91631 15.6843 8.07528 15.567 8.19249C15.4498 8.3097 15.2909 8.37555 15.1251 8.37555H14.8126C14.0667 8.37555 13.3513 8.07923 12.8239 7.55179C12.2964 7.02434 12.0001 6.30897 12.0001 5.56305V5.25055C12.0001 5.08479 12.0659 4.92582 12.1832 4.80861C12.3004 4.6914 12.4593 4.62555 12.6251 4.62555C12.7909 4.62555 12.9498 4.6914 13.067 4.80861C13.1843 4.92582 13.2501 5.08479 13.2501 5.25055V5.56305C13.2501 5.97745 13.4147 6.37488 13.7077 6.6679C14.0008 6.96093 14.3982 7.12555 14.8126 7.12555H15.1251C15.2909 7.12555 15.4498 7.1914 15.567 7.30861C15.6843 7.42582 15.7501 7.58479 15.7501 7.75055ZM4.1876 8.37555H3.8751C3.70934 8.37555 3.55037 8.3097 3.43316 8.19249C3.31595 8.07528 3.2501 7.91631 3.2501 7.75055C3.2501 7.58479 3.31595 7.42582 3.43316 7.30861C3.55037 7.1914 3.70934 7.12555 3.8751 7.12555H4.1876C4.602 7.12555 4.99943 6.96093 5.29245 6.6679C5.58548 6.37488 5.7501 5.97745 5.7501 5.56305V5.25055C5.7501 5.08479 5.81595 4.92582 5.93316 4.80861C6.05037 4.6914 6.20934 4.62555 6.3751 4.62555C6.54086 4.62555 6.69983 4.6914 6.81704 4.80861C6.93425 4.92582 7.0001 5.08479 7.0001 5.25055V5.56305C7.0001 6.30897 6.70378 7.02434 6.17634 7.55179C5.64889 8.07923 4.93352 8.37555 4.1876 8.37555Z" fill="white" stroke="white" stroke-width="2" mask="url(#path-1-inside-1_1829_50825)"/>
</svg>
