<svg width="34" height="34" viewBox="0 0 34 34" fill="none" xmlns="http://www.w3.org/2000/svg">
<rect width="34" height="34" rx="10.2" fill="#FFB800"/>
<mask id="path-2-inside-1_2064_63213" fill="white">
<path d="M26.3756 16.688C26.3748 15.8602 26.1395 15.0495 25.6971 14.3497C25.2547 13.65 24.6231 13.0899 23.8756 12.7341V12.6255C23.8749 11.8203 23.6149 11.0366 23.1342 10.3905C22.6535 9.74439 21.9776 9.27019 21.2065 9.03807C20.4354 8.80595 19.61 8.82822 18.8526 9.1016C18.0951 9.37498 17.4457 9.88494 17.0006 10.556C16.5554 9.88494 15.9061 9.37498 15.1486 9.1016C14.3911 8.82822 13.5658 8.80595 12.7947 9.03807C12.0235 9.27019 11.3476 9.74439 10.8669 10.3905C10.3862 11.0366 10.1263 11.8203 10.1256 12.6255V12.7341C9.37741 13.0889 8.74527 13.6487 8.30262 14.3485C7.85998 15.0482 7.625 15.8592 7.625 16.6873C7.625 17.5153 7.85998 18.3263 8.30262 19.0261C8.74527 19.7258 9.37741 20.2856 10.1256 20.6404V20.7505C10.1263 21.5558 10.3862 22.3395 10.8669 22.9856C11.3476 23.6317 12.0235 24.1059 12.7947 24.338C13.5658 24.5702 14.3911 24.5479 15.1486 24.2745C15.9061 24.0011 16.5554 23.4912 17.0006 22.8201C17.4457 23.4912 18.0951 24.0011 18.8526 24.2745C19.61 24.5479 20.4354 24.5702 21.2065 24.338C21.9776 24.1059 22.6535 23.6317 23.1342 22.9856C23.6149 22.3395 23.8749 21.5558 23.8756 20.7505V20.6404C24.623 20.2849 25.2545 19.7251 25.6969 19.0256C26.1394 18.3261 26.3747 17.5157 26.3756 16.688ZM13.8756 23.2505C13.2591 23.2505 12.6645 23.0226 12.2058 22.6108C11.7471 22.199 11.4567 21.6322 11.3904 21.0193C11.5925 21.0481 11.7964 21.0628 12.0006 21.063H12.6256C12.7913 21.063 12.9503 20.9972 13.0675 20.88C13.1847 20.7628 13.2506 20.6038 13.2506 20.438C13.2506 20.2723 13.1847 20.1133 13.0675 19.9961C12.9503 19.8789 12.7913 19.813 12.6256 19.813H12.0006C11.2627 19.8139 10.5484 19.5537 9.98401 19.0784C9.41962 18.6031 9.04161 17.9435 8.9169 17.2163C8.79218 16.489 8.92881 15.7411 9.3026 15.105C9.67638 14.4688 10.2632 13.9854 10.9592 13.7404C11.081 13.6973 11.1864 13.6175 11.2609 13.512C11.3355 13.4065 11.3756 13.2805 11.3756 13.1513V12.6255C11.3756 11.9625 11.639 11.3266 12.1078 10.8578C12.5767 10.3889 13.2125 10.1255 13.8756 10.1255C14.5386 10.1255 15.1745 10.3889 15.6434 10.8578C16.1122 11.3266 16.3756 11.9625 16.3756 12.6255V17.9584C15.6893 17.3411 14.7987 16.9999 13.8756 17.0005C13.7098 17.0005 13.5509 17.0664 13.4336 17.1836C13.3164 17.3008 13.2506 17.4598 13.2506 17.6255C13.2506 17.7913 13.3164 17.9503 13.4336 18.0675C13.5509 18.1847 13.7098 18.2505 13.8756 18.2505C14.5386 18.2505 15.1745 18.5139 15.6434 18.9828C16.1122 19.4516 16.3756 20.0875 16.3756 20.7505C16.3756 21.4136 16.1122 22.0495 15.6434 22.5183C15.1745 22.9872 14.5386 23.2505 13.8756 23.2505ZM22.0006 19.813H21.3756C21.2098 19.813 21.0509 19.8789 20.9336 19.9961C20.8164 20.1133 20.7506 20.2723 20.7506 20.438C20.7506 20.6038 20.8164 20.7628 20.9336 20.88C21.0509 20.9972 21.2098 21.063 21.3756 21.063H22.0006C22.2047 21.0628 22.4086 21.0481 22.6107 21.0193C22.5588 21.4995 22.3689 21.9544 22.0639 22.329C21.759 22.7035 21.3521 22.9817 20.8924 23.1299C20.4327 23.2782 19.9399 23.29 19.4735 23.1641C19.0072 23.0382 18.5874 22.7799 18.2648 22.4205C17.9421 22.061 17.7305 21.6158 17.6555 21.1386C17.5806 20.6615 17.6454 20.1728 17.8422 19.7318C18.0391 19.2907 18.3595 18.9161 18.7647 18.6532C19.1699 18.3903 19.6426 18.2505 20.1256 18.2505C20.2913 18.2505 20.4503 18.1847 20.5675 18.0675C20.6847 17.9503 20.7506 17.7913 20.7506 17.6255C20.7506 17.4598 20.6847 17.3008 20.5675 17.1836C20.4503 17.0664 20.2913 17.0005 20.1256 17.0005C19.2025 16.9999 18.3119 17.3411 17.6256 17.9584V12.6255C17.6256 11.9625 17.889 11.3266 18.3578 10.8578C18.8267 10.3889 19.4625 10.1255 20.1256 10.1255C20.7886 10.1255 21.4245 10.3889 21.8934 10.8578C22.3622 11.3266 22.6256 11.9625 22.6256 12.6255V13.1513C22.6256 13.2805 22.6657 13.4065 22.7402 13.512C22.8148 13.6175 22.9202 13.6973 23.042 13.7404C23.738 13.9854 24.3248 14.4688 24.6986 15.105C25.0724 15.7411 25.209 16.489 25.0843 17.2163C24.9596 17.9435 24.5816 18.6031 24.0172 19.0784C23.4528 19.5537 22.7384 19.8139 22.0006 19.813ZM23.2506 15.7505C23.2506 15.9163 23.1847 16.0753 23.0675 16.1925C22.9503 16.3097 22.7913 16.3755 22.6256 16.3755H22.3131C21.5672 16.3755 20.8518 16.0792 20.3244 15.5518C19.7969 15.0243 19.5006 14.309 19.5006 13.563V13.2505C19.5006 13.0848 19.5664 12.9258 19.6836 12.8086C19.8009 12.6914 19.9598 12.6255 20.1256 12.6255C20.2913 12.6255 20.4503 12.6914 20.5675 12.8086C20.6847 12.9258 20.7506 13.0848 20.7506 13.2505V13.563C20.7506 13.9775 20.9152 14.3749 21.2082 14.6679C21.5013 14.9609 21.8987 15.1255 22.3131 15.1255H22.6256C22.7913 15.1255 22.9503 15.1914 23.0675 15.3086C23.1847 15.4258 23.2506 15.5848 23.2506 15.7505ZM11.6881 16.3755H11.3756C11.2098 16.3755 11.0509 16.3097 10.9336 16.1925C10.8164 16.0753 10.7506 15.9163 10.7506 15.7505C10.7506 15.5848 10.8164 15.4258 10.9336 15.3086C11.0509 15.1914 11.2098 15.1255 11.3756 15.1255H11.6881C12.1025 15.1255 12.4999 14.9609 12.7929 14.6679C13.086 14.3749 13.2506 13.9775 13.2506 13.563V13.2505C13.2506 13.0848 13.3164 12.9258 13.4336 12.8086C13.5509 12.6914 13.7098 12.6255 13.8756 12.6255C14.0413 12.6255 14.2003 12.6914 14.3175 12.8086C14.4347 12.9258 14.5006 13.0848 14.5006 13.2505V13.563C14.5006 14.309 14.2043 15.0243 13.6768 15.5518C13.1494 16.0792 12.434 16.3755 11.6881 16.3755Z"/>
</mask>
<path d="M26.3756 16.688C26.3748 15.8602 26.1395 15.0495 25.6971 14.3497C25.2547 13.65 24.6231 13.0899 23.8756 12.7341V12.6255C23.8749 11.8203 23.6149 11.0366 23.1342 10.3905C22.6535 9.74439 21.9776 9.27019 21.2065 9.03807C20.4354 8.80595 19.61 8.82822 18.8526 9.1016C18.0951 9.37498 17.4457 9.88494 17.0006 10.556C16.5554 9.88494 15.9061 9.37498 15.1486 9.1016C14.3911 8.82822 13.5658 8.80595 12.7947 9.03807C12.0235 9.27019 11.3476 9.74439 10.8669 10.3905C10.3862 11.0366 10.1263 11.8203 10.1256 12.6255V12.7341C9.37741 13.0889 8.74527 13.6487 8.30262 14.3485C7.85998 15.0482 7.625 15.8592 7.625 16.6873C7.625 17.5153 7.85998 18.3263 8.30262 19.0261C8.74527 19.7258 9.37741 20.2856 10.1256 20.6404V20.7505C10.1263 21.5558 10.3862 22.3395 10.8669 22.9856C11.3476 23.6317 12.0235 24.1059 12.7947 24.338C13.5658 24.5702 14.3911 24.5479 15.1486 24.2745C15.9061 24.0011 16.5554 23.4912 17.0006 22.8201C17.4457 23.4912 18.0951 24.0011 18.8526 24.2745C19.61 24.5479 20.4354 24.5702 21.2065 24.338C21.9776 24.1059 22.6535 23.6317 23.1342 22.9856C23.6149 22.3395 23.8749 21.5558 23.8756 20.7505V20.6404C24.623 20.2849 25.2545 19.7251 25.6969 19.0256C26.1394 18.3261 26.3747 17.5157 26.3756 16.688ZM13.8756 23.2505C13.2591 23.2505 12.6645 23.0226 12.2058 22.6108C11.7471 22.199 11.4567 21.6322 11.3904 21.0193C11.5925 21.0481 11.7964 21.0628 12.0006 21.063H12.6256C12.7913 21.063 12.9503 20.9972 13.0675 20.88C13.1847 20.7628 13.2506 20.6038 13.2506 20.438C13.2506 20.2723 13.1847 20.1133 13.0675 19.9961C12.9503 19.8789 12.7913 19.813 12.6256 19.813H12.0006C11.2627 19.8139 10.5484 19.5537 9.98401 19.0784C9.41962 18.6031 9.04161 17.9435 8.9169 17.2163C8.79218 16.489 8.92881 15.7411 9.3026 15.105C9.67638 14.4688 10.2632 13.9854 10.9592 13.7404C11.081 13.6973 11.1864 13.6175 11.2609 13.512C11.3355 13.4065 11.3756 13.2805 11.3756 13.1513V12.6255C11.3756 11.9625 11.639 11.3266 12.1078 10.8578C12.5767 10.3889 13.2125 10.1255 13.8756 10.1255C14.5386 10.1255 15.1745 10.3889 15.6434 10.8578C16.1122 11.3266 16.3756 11.9625 16.3756 12.6255V17.9584C15.6893 17.3411 14.7987 16.9999 13.8756 17.0005C13.7098 17.0005 13.5509 17.0664 13.4336 17.1836C13.3164 17.3008 13.2506 17.4598 13.2506 17.6255C13.2506 17.7913 13.3164 17.9503 13.4336 18.0675C13.5509 18.1847 13.7098 18.2505 13.8756 18.2505C14.5386 18.2505 15.1745 18.5139 15.6434 18.9828C16.1122 19.4516 16.3756 20.0875 16.3756 20.7505C16.3756 21.4136 16.1122 22.0495 15.6434 22.5183C15.1745 22.9872 14.5386 23.2505 13.8756 23.2505ZM22.0006 19.813H21.3756C21.2098 19.813 21.0509 19.8789 20.9336 19.9961C20.8164 20.1133 20.7506 20.2723 20.7506 20.438C20.7506 20.6038 20.8164 20.7628 20.9336 20.88C21.0509 20.9972 21.2098 21.063 21.3756 21.063H22.0006C22.2047 21.0628 22.4086 21.0481 22.6107 21.0193C22.5588 21.4995 22.3689 21.9544 22.0639 22.329C21.759 22.7035 21.3521 22.9817 20.8924 23.1299C20.4327 23.2782 19.9399 23.29 19.4735 23.1641C19.0072 23.0382 18.5874 22.7799 18.2648 22.4205C17.9421 22.061 17.7305 21.6158 17.6555 21.1386C17.5806 20.6615 17.6454 20.1728 17.8422 19.7318C18.0391 19.2907 18.3595 18.9161 18.7647 18.6532C19.1699 18.3903 19.6426 18.2505 20.1256 18.2505C20.2913 18.2505 20.4503 18.1847 20.5675 18.0675C20.6847 17.9503 20.7506 17.7913 20.7506 17.6255C20.7506 17.4598 20.6847 17.3008 20.5675 17.1836C20.4503 17.0664 20.2913 17.0005 20.1256 17.0005C19.2025 16.9999 18.3119 17.3411 17.6256 17.9584V12.6255C17.6256 11.9625 17.889 11.3266 18.3578 10.8578C18.8267 10.3889 19.4625 10.1255 20.1256 10.1255C20.7886 10.1255 21.4245 10.3889 21.8934 10.8578C22.3622 11.3266 22.6256 11.9625 22.6256 12.6255V13.1513C22.6256 13.2805 22.6657 13.4065 22.7402 13.512C22.8148 13.6175 22.9202 13.6973 23.042 13.7404C23.738 13.9854 24.3248 14.4688 24.6986 15.105C25.0724 15.7411 25.209 16.489 25.0843 17.2163C24.9596 17.9435 24.5816 18.6031 24.0172 19.0784C23.4528 19.5537 22.7384 19.8139 22.0006 19.813ZM23.2506 15.7505C23.2506 15.9163 23.1847 16.0753 23.0675 16.1925C22.9503 16.3097 22.7913 16.3755 22.6256 16.3755H22.3131C21.5672 16.3755 20.8518 16.0792 20.3244 15.5518C19.7969 15.0243 19.5006 14.309 19.5006 13.563V13.2505C19.5006 13.0848 19.5664 12.9258 19.6836 12.8086C19.8009 12.6914 19.9598 12.6255 20.1256 12.6255C20.2913 12.6255 20.4503 12.6914 20.5675 12.8086C20.6847 12.9258 20.7506 13.0848 20.7506 13.2505V13.563C20.7506 13.9775 20.9152 14.3749 21.2082 14.6679C21.5013 14.9609 21.8987 15.1255 22.3131 15.1255H22.6256C22.7913 15.1255 22.9503 15.1914 23.0675 15.3086C23.1847 15.4258 23.2506 15.5848 23.2506 15.7505ZM11.6881 16.3755H11.3756C11.2098 16.3755 11.0509 16.3097 10.9336 16.1925C10.8164 16.0753 10.7506 15.9163 10.7506 15.7505C10.7506 15.5848 10.8164 15.4258 10.9336 15.3086C11.0509 15.1914 11.2098 15.1255 11.3756 15.1255H11.6881C12.1025 15.1255 12.4999 14.9609 12.7929 14.6679C13.086 14.3749 13.2506 13.9775 13.2506 13.563V13.2505C13.2506 13.0848 13.3164 12.9258 13.4336 12.8086C13.5509 12.6914 13.7098 12.6255 13.8756 12.6255C14.0413 12.6255 14.2003 12.6914 14.3175 12.8086C14.4347 12.9258 14.5006 13.0848 14.5006 13.2505V13.563C14.5006 14.309 14.2043 15.0243 13.6768 15.5518C13.1494 16.0792 12.434 16.3755 11.6881 16.3755Z" fill="white" stroke="white" stroke-width="2" mask="url(#path-2-inside-1_2064_63213)"/>
</svg>
