<svg width="34" height="34" viewBox="0 0 34 34" fill="none" xmlns="http://www.w3.org/2000/svg">
<rect width="34" height="34" rx="10.2" fill="#3335F9"/>
<path d="M7.7832 11.4062L10.9175 13.092L13.7175 12.6091C14.1837 12.5284 14.6619 12.5526 15.1176 12.6799C15.5733 12.8071 15.9949 13.0343 16.3518 13.3448M23.1175 20.2591L18.6861 23.4077C18.2103 23.7457 17.6424 23.9299 17.0588 23.9355C16.4753 23.9411 15.904 23.7679 15.4218 23.4391L7.7832 18.232" stroke="white" stroke-width="1.4" stroke-linecap="round" stroke-linejoin="round"/>
<path d="M26.1461 18.1998L23.0104 20.3426L18.1447 16.4141L16.3547 17.7155C16.0043 17.9698 15.5689 18.0783 15.1402 18.0181C14.7115 17.9579 14.3228 17.7337 14.0561 17.3926C13.7905 17.0519 13.6672 16.6215 13.7122 16.1918C13.7572 15.7621 13.967 15.3666 14.2975 15.0883L16.1618 13.5212C16.6037 13.1492 17.1162 12.8704 17.6686 12.7015C18.2209 12.5326 18.8017 12.4771 19.3761 12.5383L22.2804 12.8498L26.1461 10.7598" stroke="white" stroke-width="1.4" stroke-linecap="round" stroke-linejoin="round"/>
<path d="M18.1445 16.4235C19.316 17.4663 20.976 16.9335 21.5931 16.082" stroke="white" stroke-width="1.4" stroke-linecap="round" stroke-linejoin="round"/>
</svg>
