<svg width="24" height="24" viewBox="0 0 24 24" fill="none" xmlns="http://www.w3.org/2000/svg">
<g clip-path="url(#clip0_2067_63213)">
<path d="M1 19.704V13.2666L6.70044 10.8535L12.4009 13.2684V19.704L6.70044 22.1153L1 19.704Z" stroke="white" stroke-linecap="round" stroke-linejoin="round"/>
<path d="M1 13.2545L6.70044 15.6676L12.4009 13.2545M6.70044 4.46094L12.3991 6.87584L18.0995 4.46272" stroke="white" stroke-linecap="round" stroke-linejoin="round"/>
<path d="M12.3994 13.2539L18.0999 15.667L23.8003 13.2539" stroke="white" stroke-linecap="round" stroke-linejoin="round"/>
<path d="M6.7002 15.6714V22.1176M18.1029 15.6714V22.1176M12.3988 6.87604V13.3205M6.7038 10.8505V4.41312L12.4024 2L18.1029 4.41312V10.8505L12.4024 13.2636L6.7038 10.8505ZM12.3988 19.7045V13.2672L18.0993 10.854L23.7997 13.2689V19.7045L18.0993 22.1159L12.3988 19.7045Z" stroke="white" stroke-linecap="round" stroke-linejoin="round"/>
</g>
<defs>
<clipPath id="clip0_2067_63213">
<rect width="24" height="24" fill="white"/>
</clipPath>
</defs>
</svg>
