<svg width="24" height="24" viewBox="0 0 24 24" fill="none" xmlns="http://www.w3.org/2000/svg">
<path d="M0.939453 5.28906L4.7006 7.31192L8.0606 6.73249C8.62 6.63569 9.19394 6.6647 9.74073 6.81741C10.2875 6.97012 10.7934 7.2427 11.2217 7.61535M19.3406 15.9125L14.0229 19.6908C13.452 20.0964 12.7705 20.3174 12.0702 20.3242C11.3699 20.3309 10.6844 20.123 10.1057 19.7285L0.939453 13.4799" stroke="white" stroke-width="1.4" stroke-linecap="round" stroke-linejoin="round"/>
<path d="M22.9745 13.4397L19.2117 16.0111L13.3728 11.2969L11.2248 12.8586C10.8044 13.1638 10.2819 13.294 9.76746 13.2217C9.25297 13.1495 8.7866 12.8804 8.46653 12.4711C8.14777 12.0623 7.99986 11.5458 8.05388 11.0302C8.10791 10.5145 8.35966 10.0399 8.75625 9.706L10.9934 7.82543C11.5237 7.37906 12.1387 7.04449 12.8015 6.84181C13.4643 6.63913 14.1613 6.57253 14.8505 6.646L18.3357 7.01972L22.9745 4.51172" stroke="white" stroke-width="1.4" stroke-linecap="round" stroke-linejoin="round"/>
<path d="M13.373 11.3082C14.7788 12.5596 16.7708 11.9202 17.5113 10.8984" stroke="white" stroke-width="1.4" stroke-linecap="round" stroke-linejoin="round"/>
</svg>
