<svg width="98" height="98" viewBox="0 0 98 98" fill="none" xmlns="http://www.w3.org/2000/svg">
<g filter="url(#filter0_di_2041_64793)">
<rect x="19" y="19" width="60" height="60" rx="30" fill="#262626" shape-rendering="crispEdges"/>
<rect x="21" y="21" width="56" height="56" rx="28" stroke="#24D914" stroke-width="4" shape-rendering="crispEdges"/>
<path d="M54.2093 58.9111H43.7648C43.5762 58.9111 43.3953 58.9861 43.262 59.1194C43.1286 59.2528 43.0537 59.4336 43.0537 59.6222C43.0537 59.8108 43.1286 59.9917 43.262 60.1251C43.3953 60.2584 43.5762 60.3334 43.7648 60.3334H54.2093C54.3979 60.3334 54.5787 60.2584 54.7121 60.1251C54.8455 59.9917 54.9204 59.8108 54.9204 59.6222C54.9204 59.4336 54.8455 59.2528 54.7121 59.1194C54.5787 58.9861 54.3979 58.9111 54.2093 58.9111Z" fill="#24D914"/>
<path d="M52.5556 61.5781H45.4445C45.2559 61.5781 45.075 61.653 44.9417 61.7864C44.8083 61.9198 44.7334 62.1006 44.7334 62.2892C44.7334 62.4778 44.8083 62.6587 44.9417 62.7921C45.075 62.9254 45.2559 63.0003 45.4445 63.0003H52.5556C52.7442 63.0003 52.9251 62.9254 53.0585 62.7921C53.1918 62.6587 53.2667 62.4778 53.2667 62.2892C53.2667 62.1006 53.1918 61.9198 53.0585 61.7864C52.9251 61.653 52.7442 61.5781 52.5556 61.5781Z" fill="#24D914"/>
<g filter="url(#filter1_di_2041_64793)">
<path d="M49 35C46.4068 35 43.9198 36.0302 42.0861 37.8638C40.2524 39.6975 39.2222 42.1846 39.2222 44.7778C39.2068 46.1989 39.5105 47.6053 40.1111 48.8933C40.4087 49.4415 40.7412 49.97 41.1067 50.4756C41.8187 51.4301 42.4155 52.4654 42.8845 53.56C43.2072 54.7186 43.3834 55.9131 43.4089 57.1156H48.4667V52.2089L45.9245 49.4267L48.5911 46.76C48.7264 46.6374 48.9036 46.5716 49.0861 46.5761C49.2686 46.5806 49.4424 46.6551 49.5714 46.7841C49.7005 46.9132 49.775 47.087 49.7795 47.2695C49.784 47.4519 49.7181 47.6292 49.5956 47.7644L47.9156 49.4444L49.8889 51.6667V57.1511H54.6C54.6256 55.9487 54.8018 54.7542 55.1245 53.5956C55.5935 52.5009 56.1902 51.4656 56.9022 50.5111C57.2667 49.9882 57.5963 49.4418 57.8889 48.8756C58.4895 47.5875 58.7933 46.1811 58.7778 44.76C58.7731 42.1699 57.7409 39.6874 55.9077 37.8576C54.0745 36.0277 51.5902 35 49 35ZM49.4 43.6667L46.9734 46.0933C46.9087 46.1647 46.8302 46.2222 46.7426 46.2623C46.655 46.3025 46.5602 46.3244 46.4639 46.3268C46.3676 46.3291 46.2718 46.3119 46.1824 46.2761C46.0929 46.2404 46.0117 46.1868 45.9436 46.1187C45.8754 46.0506 45.8219 45.9693 45.7861 45.8799C45.7503 45.7904 45.7331 45.6947 45.7355 45.5984C45.7379 45.5021 45.7598 45.4072 45.7999 45.3197C45.84 45.2321 45.8975 45.1536 45.9689 45.0889L48.3956 42.6622C48.4603 42.5908 48.5388 42.5333 48.6263 42.4932C48.7139 42.4531 48.8087 42.4312 48.905 42.4288C49.0013 42.4264 49.0971 42.4437 49.1866 42.4794C49.276 42.5152 49.3573 42.5688 49.4254 42.6369C49.4935 42.705 49.5471 42.7862 49.5828 42.8757C49.6186 42.9651 49.6358 43.0609 49.6334 43.1572C49.6311 43.2535 49.6092 43.3483 49.569 43.4359C49.5289 43.5235 49.4714 43.602 49.4 43.6667Z" fill="#24D914"/>
</g>
</g>
<defs>
<filter id="filter0_di_2041_64793" x="0" y="0" width="98" height="98" filterUnits="userSpaceOnUse" color-interpolation-filters="sRGB">
<feFlood flood-opacity="0" result="BackgroundImageFix"/>
<feColorMatrix in="SourceAlpha" type="matrix" values="0 0 0 0 0 0 0 0 0 0 0 0 0 0 0 0 0 0 127 0" result="hardAlpha"/>
<feOffset/>
<feGaussianBlur stdDeviation="9.5"/>
<feComposite in2="hardAlpha" operator="out"/>
<feColorMatrix type="matrix" values="0 0 0 0 0.0627451 0 0 0 0 0.8 0 0 0 0 0 0 0 0 0.6 0"/>
<feBlend mode="normal" in2="BackgroundImageFix" result="effect1_dropShadow_2041_64793"/>
<feBlend mode="normal" in="SourceGraphic" in2="effect1_dropShadow_2041_64793" result="shape"/>
<feColorMatrix in="SourceAlpha" type="matrix" values="0 0 0 0 0 0 0 0 0 0 0 0 0 0 0 0 0 0 127 0" result="hardAlpha"/>
<feOffset/>
<feGaussianBlur stdDeviation="8.05"/>
<feComposite in2="hardAlpha" operator="arithmetic" k2="-1" k3="1"/>
<feColorMatrix type="matrix" values="0 0 0 0 0.0771952 0 0 0 0 0.964948 0 0 0 0 0 0 0 0 1 0"/>
<feBlend mode="normal" in2="shape" result="effect2_innerShadow_2041_64793"/>
</filter>
<filter id="filter1_di_2041_64793" x="29.6217" y="25.4" width="38.7566" height="41.3514" filterUnits="userSpaceOnUse" color-interpolation-filters="sRGB">
<feFlood flood-opacity="0" result="BackgroundImageFix"/>
<feColorMatrix in="SourceAlpha" type="matrix" values="0 0 0 0 0 0 0 0 0 0 0 0 0 0 0 0 0 0 127 0" result="hardAlpha"/>
<feOffset/>
<feGaussianBlur stdDeviation="4.8"/>
<feComposite in2="hardAlpha" operator="out"/>
<feColorMatrix type="matrix" values="0 0 0 0 0.0627451 0 0 0 0 0.8 0 0 0 0 0 0 0 0 1 0"/>
<feBlend mode="normal" in2="BackgroundImageFix" result="effect1_dropShadow_2041_64793"/>
<feBlend mode="normal" in="SourceGraphic" in2="effect1_dropShadow_2041_64793" result="shape"/>
<feColorMatrix in="SourceAlpha" type="matrix" values="0 0 0 0 0 0 0 0 0 0 0 0 0 0 0 0 0 0 127 0" result="hardAlpha"/>
<feOffset/>
<feGaussianBlur stdDeviation="4.25"/>
<feComposite in2="hardAlpha" operator="arithmetic" k2="-1" k3="1"/>
<feColorMatrix type="matrix" values="0 0 0 0 1 0 0 0 0 1 0 0 0 0 1 0 0 0 0.3 0"/>
<feBlend mode="normal" in2="shape" result="effect2_innerShadow_2041_64793"/>
</filter>
</defs>
</svg>
