<svg width="202" height="219" viewBox="0 0 202 219" fill="none" xmlns="http://www.w3.org/2000/svg">
<path d="M45.0344 6.3786L56.3999 1.43498L40.0805 8.83359L28.2852 13.9688L45.0344 6.3786Z" stroke="#3335F9" stroke-width="0.574635" stroke-miterlimit="10" stroke-linecap="round" stroke-linejoin="round"/>
<path d="M56.4023 1.43648L76.4327 0.888159L87.418 1.97017L68.8732 2.48047L56.4023 1.43648Z" stroke="#3335F9" stroke-width="0.574635" stroke-miterlimit="10" stroke-linecap="round" stroke-linejoin="round"/>
<path d="M28.2841 13.9676L40.0795 8.831L28.5736 22.5769L16.4844 28.0703L28.2841 13.9676Z" stroke="#3335F9" stroke-width="0.574635" stroke-miterlimit="10" stroke-linecap="round" stroke-linejoin="round"/>
<path d="M40.082 8.83537L56.4014 1.43676L68.8723 2.48076L53.7592 9.32812L40.082 8.83537Z" stroke="#3335F9" stroke-width="0.574635" stroke-miterlimit="10" stroke-linecap="round" stroke-linejoin="round"/>
<path d="M16.4841 28.0671L28.5748 22.5737L22.6779 41.7253L10.4336 47.7188L16.4841 28.0671Z" stroke="#3335F9" stroke-width="0.574635" stroke-miterlimit="10" stroke-linecap="round" stroke-linejoin="round"/>
<path d="M28.5742 22.5781L40.0801 8.83367L53.7587 9.32642L43.1068 22.0547L28.5742 22.5781Z" stroke="#3335F9" stroke-width="0.574635" stroke-miterlimit="10" stroke-linecap="round" stroke-linejoin="round"/>
<path d="M16.4867 28.0701L10.4362 47.7217L2.77734 56.8516L8.6743 37.7L16.4867 28.0701Z" stroke="#3335F9" stroke-width="0.574635" stroke-miterlimit="10" stroke-linecap="round" stroke-linejoin="round"/>
<path d="M10.4336 47.7222L22.6779 41.7288L22.7861 64.9876L10.5403 71.582L10.4336 47.7222Z" stroke="#3335F9" stroke-width="0.574635" stroke-miterlimit="10" stroke-linecap="round" stroke-linejoin="round"/>
<path d="M22.6836 41.7305L28.5791 22.5774L43.1131 22.054L37.6519 39.7843L22.6836 41.7305Z" stroke="#3335F9" stroke-width="0.574635" stroke-miterlimit="10" stroke-linecap="round" stroke-linejoin="round"/>
<path d="M10.4362 47.7212L10.543 71.581L2.89139 80.1055L2.77734 56.851L10.4362 47.7212Z" stroke="#3335F9" stroke-width="0.574635" stroke-miterlimit="10" stroke-linecap="round" stroke-linejoin="round"/>
<path d="M10.543 71.5859L22.7887 64.99L28.902 90.7652L16.8113 98.0352L10.543 71.5859Z" stroke="#3335F9" stroke-width="0.574635" stroke-miterlimit="10" stroke-linecap="round" stroke-linejoin="round"/>
<path d="M22.7918 64.9883L22.6836 41.7294L37.6519 39.7833L37.7484 61.3168L22.7918 64.9883Z" stroke="#3335F9" stroke-width="0.574635" stroke-miterlimit="10" stroke-linecap="round" stroke-linejoin="round"/>
<path d="M10.5422 71.5841L16.8105 98.0334L8.99667 105.887L2.89062 80.1086L10.5422 71.5841Z" stroke="#3335F9" stroke-width="0.574635" stroke-miterlimit="10" stroke-linecap="round" stroke-linejoin="round"/>
<path d="M16.8086 98.0306L28.8993 90.7607L40.588 117.301L28.8101 125.258L16.8086 98.0306Z" stroke="#3335F9" stroke-width="0.574635" stroke-miterlimit="10" stroke-linecap="round" stroke-linejoin="round"/>
<path d="M28.8985 90.7656L22.7852 64.9904L37.7432 61.3189L43.4077 85.1845L28.8985 90.7656Z" stroke="#3335F9" stroke-width="0.574635" stroke-miterlimit="10" stroke-linecap="round" stroke-linejoin="round"/>
<path d="M16.81 98.033L28.8115 125.26L20.6906 132.422L8.99609 105.886L16.81 98.033Z" stroke="#3335F9" stroke-width="0.574635" stroke-miterlimit="10" stroke-linecap="round" stroke-linejoin="round"/>
<path d="M28.8086 125.26L40.5864 117.302L57.0695 142.791L45.7172 151.418L28.8086 125.26Z" stroke="#3335F9" stroke-width="0.574635" stroke-miterlimit="10" stroke-linecap="round" stroke-linejoin="round"/>
<path d="M40.591 117.301L28.9023 90.7623L43.4115 85.1812L54.2345 109.75L40.591 117.301Z" stroke="#3335F9" stroke-width="0.574635" stroke-miterlimit="10" stroke-linecap="round" stroke-linejoin="round"/>
<path d="M28.8123 125.259L45.7209 151.418L37.1701 157.914L20.6914 132.421L28.8123 125.259Z" stroke="#3335F9" stroke-width="0.574635" stroke-miterlimit="10" stroke-linecap="round" stroke-linejoin="round"/>
<path d="M45.7227 151.418L57.075 142.793L77.2106 165.496L66.3905 174.711L45.7227 151.418Z" stroke="#3335F9" stroke-width="0.574635" stroke-miterlimit="10" stroke-linecap="round" stroke-linejoin="round"/>
<path d="M57.073 142.789L40.5898 117.3L54.2334 109.75L69.4912 133.352L57.073 142.789Z" stroke="#3335F9" stroke-width="0.574635" stroke-miterlimit="10" stroke-linecap="round" stroke-linejoin="round"/>
<path d="M45.7163 151.419L66.3842 174.711L57.307 180.617L37.1641 157.917L45.7163 151.419Z" stroke="#3335F9" stroke-width="0.574635" stroke-miterlimit="10" stroke-linecap="round" stroke-linejoin="round"/>
<path d="M66.3906 174.709L77.2107 165.494L99.6522 183.871L89.4053 193.566L66.3906 174.709Z" stroke="#3335F9" stroke-width="0.574635" stroke-miterlimit="10" stroke-linecap="round" stroke-linejoin="round"/>
<path d="M77.2098 165.496L57.0742 142.791L69.4925 133.355L88.1396 154.373L77.2098 165.496Z" stroke="#3335F9" stroke-width="0.574635" stroke-miterlimit="10" stroke-linecap="round" stroke-linejoin="round"/>
<path d="M66.3897 174.711L89.4043 193.568L79.7496 198.996L57.3125 180.617L66.3897 174.711Z" stroke="#3335F9" stroke-width="0.574635" stroke-miterlimit="10" stroke-linecap="round" stroke-linejoin="round"/>
<path d="M89.4023 193.567L99.6493 183.871L122.839 196.661L113.205 206.691L89.4023 193.567Z" stroke="#3335F9" stroke-width="0.574635" stroke-miterlimit="10" stroke-linecap="round" stroke-linejoin="round"/>
<path d="M99.6485 183.875L77.207 165.498L88.1368 154.376L108.91 171.387L99.6485 183.875Z" stroke="#3335F9" stroke-width="0.574635" stroke-miterlimit="10" stroke-linecap="round" stroke-linejoin="round"/>
<path d="M89.4062 193.567L113.209 206.691L102.946 211.781L79.75 198.995L89.4062 193.567Z" stroke="#3335F9" stroke-width="0.574635" stroke-miterlimit="10" stroke-linecap="round" stroke-linejoin="round"/>
<path d="M113.203 206.695L122.837 196.664L145.217 203L136.162 213.191L113.203 206.695Z" stroke="#3335F9" stroke-width="0.574635" stroke-miterlimit="10" stroke-linecap="round" stroke-linejoin="round"/>
<path d="M122.839 196.66L99.6484 183.869L108.91 171.382L130.383 183.232L122.839 196.66Z" stroke="#3335F9" stroke-width="0.574635" stroke-miterlimit="10" stroke-linecap="round" stroke-linejoin="round"/>
<path d="M113.21 206.693L136.169 213.189L125.321 218.121L102.945 211.781L113.21 206.693Z" stroke="#3335F9" stroke-width="0.574635" stroke-miterlimit="10" stroke-linecap="round" stroke-linejoin="round"/>
<path d="M136.164 213.191L145.218 203L165.251 202.452L156.719 212.627L136.164 213.191Z" stroke="#3335F9" stroke-width="0.574635" stroke-miterlimit="10" stroke-linecap="round" stroke-linejoin="round"/>
<path d="M145.224 203L122.844 196.664L130.389 183.236L151.109 189.101L145.224 203Z" stroke="#3335F9" stroke-width="0.574635" stroke-miterlimit="10" stroke-linecap="round" stroke-linejoin="round"/>
<path d="M136.164 213.188L156.72 212.623L145.348 217.571L125.316 218.121L136.164 213.188Z" stroke="#3335F9" stroke-width="0.574635" stroke-miterlimit="10" stroke-linecap="round" stroke-linejoin="round"/>
<path d="M156.723 212.625L165.254 202.45L181.58 195.047L173.47 205.035L156.723 212.625Z" stroke="#3335F9" stroke-width="0.574635" stroke-miterlimit="10" stroke-linecap="round" stroke-linejoin="round"/>
<path d="M165.251 202.452L145.219 203L151.104 189.101L169.653 188.595L165.251 202.452Z" stroke="#3335F9" stroke-width="0.574635" stroke-miterlimit="10" stroke-linecap="round" stroke-linejoin="round"/>
<path d="M173.469 205.035L181.578 195.047L193.078 181.306L185.269 190.932L173.469 205.035Z" stroke="#3335F9" stroke-width="0.574635" stroke-miterlimit="10" stroke-linecap="round" stroke-linejoin="round"/>
<path d="M181.579 195.046L165.254 202.449L169.657 188.592L184.77 181.735L181.579 195.046Z" stroke="#3335F9" stroke-width="0.574635" stroke-miterlimit="10" stroke-linecap="round" stroke-linejoin="round"/>
<path d="M193.082 181.307L181.582 195.047L184.771 181.737L195.423 169.016L193.082 181.307Z" stroke="#3335F9" stroke-width="0.574635" stroke-miterlimit="10" stroke-linecap="round" stroke-linejoin="round"/>
<path d="M198.974 162.156L193.078 181.309L195.418 169.018L200.874 151.283L198.974 162.156Z" stroke="#3335F9" stroke-width="0.574635" stroke-miterlimit="10" stroke-linecap="round" stroke-linejoin="round"/>
<path d="M87.418 1.96592L108.137 7.82925L115.107 14.0625L96.8753 8.89225L87.418 1.96592Z" stroke="#3335F9" stroke-width="0.574635" stroke-miterlimit="10" stroke-linecap="round" stroke-linejoin="round"/>
<path d="M68.8711 2.47835L87.4159 1.96805L96.8718 8.89438L80.5436 9.34766L68.8711 2.47835Z" stroke="#3335F9" stroke-width="0.574635" stroke-miterlimit="10" stroke-linecap="round" stroke-linejoin="round"/>
<path d="M53.7617 9.32696L68.8748 2.47813L80.5473 9.34743L67.2474 15.3789L53.7617 9.32696Z" stroke="#3335F9" stroke-width="0.574635" stroke-miterlimit="10" stroke-linecap="round" stroke-linejoin="round"/>
<path d="M43.1055 22.0546L53.756 9.32639L67.2416 15.3783L57.8705 26.5742L43.1055 22.0546Z" stroke="#3335F9" stroke-width="0.574635" stroke-miterlimit="10" stroke-linecap="round" stroke-linejoin="round"/>
<path d="M37.6484 39.7817L43.1082 22.0528L57.8733 26.5724L53.0671 42.1797L37.6484 39.7817Z" stroke="#3335F9" stroke-width="0.574635" stroke-miterlimit="10" stroke-linecap="round" stroke-linejoin="round"/>
<path d="M37.7449 61.3164L37.6484 39.7829L53.0671 42.1809L53.1563 61.1366L37.7449 61.3164Z" stroke="#3335F9" stroke-width="0.574635" stroke-miterlimit="10" stroke-linecap="round" stroke-linejoin="round"/>
<path d="M43.4106 85.1836L37.7461 61.318L53.1574 61.1381L58.1347 82.1379L43.4106 85.1836Z" stroke="#3335F9" stroke-width="0.574635" stroke-miterlimit="10" stroke-linecap="round" stroke-linejoin="round"/>
<path d="M54.2332 109.75L43.4102 85.1811L58.1343 82.1353L67.6662 103.762L54.2332 109.75Z" stroke="#3335F9" stroke-width="0.574635" stroke-miterlimit="10" stroke-linecap="round" stroke-linejoin="round"/>
<path d="M69.4936 133.355L54.2344 109.753L67.6674 103.765L81.096 124.541L69.4936 133.355Z" stroke="#3335F9" stroke-width="0.574635" stroke-miterlimit="10" stroke-linecap="round" stroke-linejoin="round"/>
<path d="M88.1393 154.371L69.4922 133.352L81.0946 124.538L97.5075 143.035L88.1393 154.371Z" stroke="#3335F9" stroke-width="0.574635" stroke-miterlimit="10" stroke-linecap="round" stroke-linejoin="round"/>
<path d="M108.91 171.387L88.1367 154.374L97.5049 143.038L115.788 158.015L108.91 171.387Z" stroke="#3335F9" stroke-width="0.574635" stroke-miterlimit="10" stroke-linecap="round" stroke-linejoin="round"/>
<path d="M130.385 183.238L108.91 171.389L115.79 158.016L134.687 168.44L130.385 183.238Z" stroke="#3335F9" stroke-width="0.574635" stroke-miterlimit="10" stroke-linecap="round" stroke-linejoin="round"/>
<path d="M151.107 189.102L130.387 183.238L134.688 168.44L152.928 173.604L151.107 189.102Z" stroke="#3335F9" stroke-width="0.574635" stroke-miterlimit="10" stroke-linecap="round" stroke-linejoin="round"/>
<path d="M169.655 188.596L151.105 189.102L152.927 173.604L169.251 173.155L169.655 188.596Z" stroke="#3335F9" stroke-width="0.574635" stroke-miterlimit="10" stroke-linecap="round" stroke-linejoin="round"/>
<path d="M184.767 181.734L169.654 188.59L169.25 173.149L182.548 167.121L184.767 181.734Z" stroke="#3335F9" stroke-width="0.574635" stroke-miterlimit="10" stroke-linecap="round" stroke-linejoin="round"/>
<path d="M195.419 169.013L184.769 181.734L182.551 167.121L191.923 155.923L195.419 169.013Z" stroke="#3335F9" stroke-width="0.574635" stroke-miterlimit="10" stroke-linecap="round" stroke-linejoin="round"/>
<path d="M200.877 151.282L195.422 169.016L191.926 155.925L196.736 140.315L200.877 151.282Z" stroke="#3335F9" stroke-width="0.574635" stroke-miterlimit="10" stroke-linecap="round" stroke-linejoin="round"/>
<path d="M200.775 129.748L200.873 151.281L196.732 140.313L196.637 121.362L200.775 129.748Z" stroke="#3335F9" stroke-width="0.574635" stroke-miterlimit="10" stroke-linecap="round" stroke-linejoin="round"/>
<path d="M195.116 105.88L200.773 129.75L196.635 121.364L191.664 100.36L195.116 105.88Z" stroke="#3335F9" stroke-width="0.574635" stroke-miterlimit="10" stroke-linecap="round" stroke-linejoin="round"/>
<path d="M184.287 81.3129L195.117 105.879L191.665 100.358L182.133 78.7307L184.287 81.3129Z" stroke="#3335F9" stroke-width="0.574635" stroke-miterlimit="10" stroke-linecap="round" stroke-linejoin="round"/>
<path d="M169.031 57.7198L184.286 81.3164L182.132 78.7342L168.703 57.9684L169.031 57.7198Z" stroke="#3335F9" stroke-width="0.574635" stroke-miterlimit="10" stroke-linecap="round" stroke-linejoin="round"/>
<path d="M150.383 36.6902L169.034 57.7148L152.294 39.4581L150.383 36.6902Z" stroke="#3335F9" stroke-width="0.574635" stroke-miterlimit="10" stroke-linecap="round" stroke-linejoin="round"/>
<path d="M129.617 19.6777L150.383 36.693L152.294 39.4609L134.011 24.4839L129.617 19.6777Z" stroke="#3335F9" stroke-width="0.574635" stroke-miterlimit="10" stroke-linecap="round" stroke-linejoin="round"/>
<path d="M108.133 7.83166L129.614 19.6782L134.007 24.4844L115.104 14.0649L108.133 7.83166Z" stroke="#3335F9" stroke-width="0.574635" stroke-miterlimit="10" stroke-linecap="round" stroke-linejoin="round"/>
<path d="M96.8711 8.89649L115.104 14.0667L118.653 24.957L103.349 20.6231L96.8711 8.89649Z" stroke="#3335F9" stroke-width="0.574635" stroke-miterlimit="10" stroke-linecap="round" stroke-linejoin="round"/>
<path d="M80.5469 9.34694L96.875 8.89366L103.352 20.6203L89.6489 20.9961L80.5469 9.34694Z" stroke="#3335F9" stroke-width="0.574635" stroke-miterlimit="10" stroke-linecap="round" stroke-linejoin="round"/>
<path d="M67.2461 15.3754L80.5475 9.34396L89.6481 20.9946L78.4844 26.0508L67.2461 15.3754Z" stroke="#3335F9" stroke-width="0.574635" stroke-miterlimit="10" stroke-linecap="round" stroke-linejoin="round"/>
<path d="M57.8711 26.5743L67.2422 15.377L78.4805 26.0538L70.614 35.457L57.8711 26.5743Z" stroke="#3335F9" stroke-width="0.574635" stroke-miterlimit="10" stroke-linecap="round" stroke-linejoin="round"/>
<path d="M53.0625 42.1845L57.8687 26.5772L70.6115 35.4599L66.5774 48.5625L53.0625 42.1845Z" stroke="#3335F9" stroke-width="0.574635" stroke-miterlimit="10" stroke-linecap="round" stroke-linejoin="round"/>
<path d="M53.1532 61.1394L53.0625 42.1837L66.5789 48.5617L66.6534 64.4688L53.1532 61.1394Z" stroke="#3335F9" stroke-width="0.574635" stroke-miterlimit="10" stroke-linecap="round" stroke-linejoin="round"/>
<path d="M58.1335 82.1367L53.1562 61.1355L66.6565 64.4663L70.8354 82.0987L58.1335 82.1367Z" stroke="#3335F9" stroke-width="0.574635" stroke-miterlimit="10" stroke-linecap="round" stroke-linejoin="round"/>
<path d="M67.6647 103.766L58.1328 82.1386L70.8347 82.1006L78.8328 100.249L67.6647 103.766Z" stroke="#3335F9" stroke-width="0.574635" stroke-miterlimit="10" stroke-linecap="round" stroke-linejoin="round"/>
<path d="M81.0927 124.539L67.6641 103.764L78.8322 100.246L90.1085 117.687L81.0927 124.539Z" stroke="#3335F9" stroke-width="0.574635" stroke-miterlimit="10" stroke-linecap="round" stroke-linejoin="round"/>
<path d="M97.5081 143.035L81.0938 124.539L90.1095 117.688L103.888 133.22L97.5081 143.035Z" stroke="#3335F9" stroke-width="0.574635" stroke-miterlimit="10" stroke-linecap="round" stroke-linejoin="round"/>
<path d="M115.791 158.012L97.5078 143.035L103.887 133.219L119.231 145.786L115.791 158.012Z" stroke="#3335F9" stroke-width="0.574635" stroke-miterlimit="10" stroke-linecap="round" stroke-linejoin="round"/>
<path d="M134.688 168.438L115.789 158.014L119.23 145.788L135.097 154.538L134.688 168.438Z" stroke="#3335F9" stroke-width="0.574635" stroke-miterlimit="10" stroke-linecap="round" stroke-linejoin="round"/>
<path d="M152.931 173.602L134.691 168.437L135.102 154.538L150.407 158.872L152.931 173.602Z" stroke="#3335F9" stroke-width="0.574635" stroke-miterlimit="10" stroke-linecap="round" stroke-linejoin="round"/>
<path d="M169.254 173.153L152.93 173.602L150.406 158.872L164.11 158.496L169.254 173.153Z" stroke="#3335F9" stroke-width="0.574635" stroke-miterlimit="10" stroke-linecap="round" stroke-linejoin="round"/>
<path d="M182.552 167.122L169.252 173.152L164.109 158.495L175.276 153.435L182.552 167.122Z" stroke="#3335F9" stroke-width="0.574635" stroke-miterlimit="10" stroke-linecap="round" stroke-linejoin="round"/>
<path d="M191.926 155.922L182.553 167.121L175.277 153.432L183.141 144.032L191.926 155.922Z" stroke="#3335F9" stroke-width="0.574635" stroke-miterlimit="10" stroke-linecap="round" stroke-linejoin="round"/>
<path d="M196.732 140.312L191.921 155.922L183.137 144.031L187.169 130.93L196.732 140.312Z" stroke="#3335F9" stroke-width="0.574635" stroke-miterlimit="10" stroke-linecap="round" stroke-linejoin="round"/>
<path d="M196.634 121.365L196.729 140.316L187.167 130.935L187.094 115.028L196.634 121.365Z" stroke="#3335F9" stroke-width="0.574635" stroke-miterlimit="10" stroke-linecap="round" stroke-linejoin="round"/>
<path d="M191.669 100.359L196.64 121.363L187.099 115.026L182.922 97.3938L191.669 100.359Z" stroke="#3335F9" stroke-width="0.574635" stroke-miterlimit="10" stroke-linecap="round" stroke-linejoin="round"/>
<path d="M182.136 78.7323L191.668 100.359L182.92 97.3941L174.922 79.2456L182.136 78.7323Z" stroke="#3335F9" stroke-width="0.574635" stroke-miterlimit="10" stroke-linecap="round" stroke-linejoin="round"/>
<path d="M168.702 57.9631L182.131 78.729L174.916 79.2422L163.645 61.8057L168.702 57.9631Z" stroke="#3335F9" stroke-width="0.574635" stroke-miterlimit="10" stroke-linecap="round" stroke-linejoin="round"/>
<path d="M152.293 39.4592L168.707 57.9645L163.65 61.8086L149.867 46.2715L152.293 39.4592Z" stroke="#3335F9" stroke-width="0.574635" stroke-miterlimit="10" stroke-linecap="round" stroke-linejoin="round"/>
<path d="M134.008 24.4841L152.291 39.4612L149.865 46.2734L134.522 33.706L134.008 24.4841Z" stroke="#3335F9" stroke-width="0.574635" stroke-miterlimit="10" stroke-linecap="round" stroke-linejoin="round"/>
<path d="M115.105 14.0617L134.01 24.4797L134.523 33.7031L118.656 24.952L115.105 14.0617Z" stroke="#3335F9" stroke-width="0.574635" stroke-miterlimit="10" stroke-linecap="round" stroke-linejoin="round"/>
<path d="M103.352 20.6207L118.658 24.9546L118.256 38.8555L105.875 35.3521L103.352 20.6207Z" stroke="#3335F9" stroke-width="0.574635" stroke-miterlimit="10" stroke-linecap="round" stroke-linejoin="round"/>
<path d="M89.6445 20.9955L103.348 20.6197L105.872 35.3511L94.7885 35.6523L89.6445 20.9955Z" stroke="#3335F9" stroke-width="0.574635" stroke-miterlimit="10" stroke-linecap="round" stroke-linejoin="round"/>
<path d="M78.4805 26.0528L89.6456 20.9966L94.7881 35.6535L85.7606 39.7461L78.4805 26.0528Z" stroke="#3335F9" stroke-width="0.574635" stroke-miterlimit="10" stroke-linecap="round" stroke-linejoin="round"/>
<path d="M70.6133 35.4572L78.4798 26.0525L85.7585 39.7458L79.398 47.3477L70.6133 35.4572Z" stroke="#3335F9" stroke-width="0.574635" stroke-miterlimit="10" stroke-linecap="round" stroke-linejoin="round"/>
<path d="M66.5859 48.5557L70.6201 35.4546L79.4048 47.3436L76.1442 57.9414L66.5859 48.5557Z" stroke="#3335F9" stroke-width="0.574635" stroke-miterlimit="10" stroke-linecap="round" stroke-linejoin="round"/>
<path d="M66.662 64.4671L66.5859 48.5601L76.1442 57.9458L76.2071 70.8086L66.662 64.4671Z" stroke="#3335F9" stroke-width="0.574635" stroke-miterlimit="10" stroke-linecap="round" stroke-linejoin="round"/>
<path d="M70.8337 82.1011L66.6562 64.4687L76.2013 70.8102L79.5804 85.0664L70.8337 82.1011Z" stroke="#3335F9" stroke-width="0.574635" stroke-miterlimit="10" stroke-linecap="round" stroke-linejoin="round"/>
<path d="M78.834 100.246L70.8359 82.0976L79.5841 85.0629L86.0455 99.7431L78.834 100.246Z" stroke="#3335F9" stroke-width="0.574635" stroke-miterlimit="10" stroke-linecap="round" stroke-linejoin="round"/>
<path d="M90.1083 117.688L78.832 100.247L86.0435 99.7437L95.166 113.845L90.1083 117.688Z" stroke="#3335F9" stroke-width="0.574635" stroke-miterlimit="10" stroke-linecap="round" stroke-linejoin="round"/>
<path d="M103.887 133.219L90.1094 117.688L95.167 113.845L106.304 126.405L103.887 133.219Z" stroke="#3335F9" stroke-width="0.574635" stroke-miterlimit="10" stroke-linecap="round" stroke-linejoin="round"/>
<path d="M119.229 145.789L103.887 133.222L106.304 126.408L118.715 136.567L119.229 145.789Z" stroke="#3335F9" stroke-width="0.574635" stroke-miterlimit="10" stroke-linecap="round" stroke-linejoin="round"/>
<path d="M135.093 154.539L119.224 145.789L118.711 136.567L131.54 143.641L135.093 154.539Z" stroke="#3335F9" stroke-width="0.574635" stroke-miterlimit="10" stroke-linecap="round" stroke-linejoin="round"/>
<path d="M150.405 158.871L135.099 154.537L131.547 143.64L143.923 147.147L150.405 158.871Z" stroke="#3335F9" stroke-width="0.574635" stroke-miterlimit="10" stroke-linecap="round" stroke-linejoin="round"/>
<path d="M164.107 158.495L150.404 158.871L143.922 147.147L155.005 146.846L164.107 158.495Z" stroke="#3335F9" stroke-width="0.574635" stroke-miterlimit="10" stroke-linecap="round" stroke-linejoin="round"/>
<path d="M175.276 153.432L164.108 158.492L155.008 146.843L164.035 142.75L175.276 153.432Z" stroke="#3335F9" stroke-width="0.574635" stroke-miterlimit="10" stroke-linecap="round" stroke-linejoin="round"/>
<path d="M183.14 144.033L175.276 153.434L164.035 142.754L170.397 135.151L183.14 144.033Z" stroke="#3335F9" stroke-width="0.574635" stroke-miterlimit="10" stroke-linecap="round" stroke-linejoin="round"/>
<path d="M187.17 130.934L183.137 144.035L170.395 135.154L173.655 124.558L187.17 130.934Z" stroke="#3335F9" stroke-width="0.574635" stroke-miterlimit="10" stroke-linecap="round" stroke-linejoin="round"/>
<path d="M187.093 115.027L187.167 130.934L173.652 124.557L173.594 111.687L187.093 115.027Z" stroke="#3335F9" stroke-width="0.574635" stroke-miterlimit="10" stroke-linecap="round" stroke-linejoin="round"/>
<path d="M182.919 97.395L187.097 115.027L173.598 111.688L170.219 97.433L182.919 97.395Z" stroke="#3335F9" stroke-width="0.574635" stroke-miterlimit="10" stroke-linecap="round" stroke-linejoin="round"/>
<path d="M174.925 79.2431L182.923 97.3931L170.223 97.4297L163.754 82.7538L174.925 79.2431Z" stroke="#3335F9" stroke-width="0.574635" stroke-miterlimit="10" stroke-linecap="round" stroke-linejoin="round"/>
<path d="M163.648 61.8068L174.92 79.2418L163.749 82.7539L154.637 68.6541L163.648 61.8068Z" stroke="#3335F9" stroke-width="0.574635" stroke-miterlimit="10" stroke-linecap="round" stroke-linejoin="round"/>
<path d="M149.871 46.2718L163.654 61.8089L154.642 68.6562L143.496 56.0932L149.871 46.2718Z" stroke="#3335F9" stroke-width="0.574635" stroke-miterlimit="10" stroke-linecap="round" stroke-linejoin="round"/>
<path d="M134.526 33.7049L149.869 46.2723L143.494 56.0938L131.086 45.9302L134.526 33.7049Z" stroke="#3335F9" stroke-width="0.574635" stroke-miterlimit="10" stroke-linecap="round" stroke-linejoin="round"/>
<path d="M118.658 24.9509L134.527 33.7005L131.087 45.9258L118.258 38.8518L118.658 24.9509Z" stroke="#3335F9" stroke-width="0.574635" stroke-miterlimit="10" stroke-linecap="round" stroke-linejoin="round"/>
<path d="M105.871 35.3547L118.252 38.858L113.945 53.6523L104.055 50.8479L105.871 35.3547Z" stroke="#3335F9" stroke-width="0.574635" stroke-miterlimit="10" stroke-linecap="round" stroke-linejoin="round"/>
<path d="M94.7891 35.6537L105.872 35.351L104.056 50.8442L95.197 51.0898L94.7891 35.6537Z" stroke="#3335F9" stroke-width="0.574635" stroke-miterlimit="10" stroke-linecap="round" stroke-linejoin="round"/>
<path d="M85.7578 39.7464L94.7867 35.6538L95.1947 51.0899L87.9759 54.3594L85.7578 39.7464Z" stroke="#3335F9" stroke-width="0.574635" stroke-miterlimit="10" stroke-linecap="round" stroke-linejoin="round"/>
<path d="M79.3984 47.3505L85.7604 39.7487L87.977 54.3617L82.8945 60.4414L79.3984 47.3505Z" stroke="#3335F9" stroke-width="0.574635" stroke-miterlimit="10" stroke-linecap="round" stroke-linejoin="round"/>
<path d="M76.1445 57.9468L79.4037 47.3489L82.8998 60.4412L80.2898 68.9102L76.1445 57.9468Z" stroke="#3335F9" stroke-width="0.574635" stroke-miterlimit="10" stroke-linecap="round" stroke-linejoin="round"/>
<path d="M76.2074 70.8058L76.1445 57.9416L80.2898 68.905L80.3073 73.5357L80.3205 76.0097L80.3381 78.9297L76.2074 70.8058Z" stroke="#3335F9" stroke-width="0.574635" stroke-miterlimit="10" stroke-linecap="round" stroke-linejoin="round"/>
<path d="M79.5837 85.0618L76.2031 70.8056L80.3323 79.1912L80.6496 80.5408L80.9567 81.8334L81.464 83.9491L83.03 90.5859L79.5837 85.0618Z" stroke="#3335F9" stroke-width="0.574635" stroke-miterlimit="10" stroke-linecap="round" stroke-linejoin="round"/>
<path d="M86.0434 99.7425L79.582 85.0623L83.0284 90.5864L88.203 102.32L86.0434 99.7425Z" stroke="#3335F9" stroke-width="0.574635" stroke-miterlimit="10" stroke-linecap="round" stroke-linejoin="round"/>
<path d="M95.1694 113.848L86.0469 99.7464L88.205 102.324L95.4984 113.599L95.1694 113.848Z" stroke="#3335F9" stroke-width="0.574635" stroke-miterlimit="10" stroke-linecap="round" stroke-linejoin="round"/>
<path d="M106.305 126.406L95.168 113.845L104.399 123.635L106.305 126.406Z" stroke="#3335F9" stroke-width="0.574635" stroke-miterlimit="10" stroke-linecap="round" stroke-linejoin="round"/>
<path d="M118.716 136.566L106.305 126.407L104.398 123.638L114.318 131.765L118.716 136.566Z" stroke="#3335F9" stroke-width="0.574635" stroke-miterlimit="10" stroke-linecap="round" stroke-linejoin="round"/>
<path d="M131.548 143.641L118.719 136.567L114.32 131.763L120.298 135.056L122.196 136.107L123.359 136.749L124.575 137.418L131.548 143.641Z" stroke="#3335F9" stroke-width="0.574635" stroke-miterlimit="10" stroke-linecap="round" stroke-linejoin="round"/>
<path d="M143.923 147.145L131.546 143.637L124.574 137.414L127.633 138.281L130.014 138.956L134.472 140.214L143.923 147.145Z" stroke="#3335F9" stroke-width="0.574635" stroke-miterlimit="10" stroke-linecap="round" stroke-linejoin="round"/>
<path d="M155.004 146.846L143.92 147.148L134.469 140.216L143.328 139.971L155.004 146.846Z" stroke="#3335F9" stroke-width="0.574635" stroke-miterlimit="10" stroke-linecap="round" stroke-linejoin="round"/>
<path d="M164.031 142.756L155.004 146.848L143.328 139.974L150.547 136.705L164.031 142.756Z" stroke="#3335F9" stroke-width="0.574635" stroke-miterlimit="10" stroke-linecap="round" stroke-linejoin="round"/>
<path d="M170.397 135.152L164.034 142.754L150.551 136.703L155.633 130.622L170.397 135.152Z" stroke="#3335F9" stroke-width="0.574635" stroke-miterlimit="10" stroke-linecap="round" stroke-linejoin="round"/>
<path d="M173.656 124.556L170.396 135.152L155.633 130.623L158.243 122.154L173.656 124.556Z" stroke="#3335F9" stroke-width="0.574635" stroke-miterlimit="10" stroke-linecap="round" stroke-linejoin="round"/>
<path d="M173.598 111.686L173.657 124.555L158.244 122.154L158.191 111.872L173.598 111.686Z" stroke="#3335F9" stroke-width="0.574635" stroke-miterlimit="10" stroke-linecap="round" stroke-linejoin="round"/>
<path d="M170.219 97.4292L173.598 111.685L158.19 111.871L155.492 100.475L170.219 97.4292Z" stroke="#3335F9" stroke-width="0.574635" stroke-miterlimit="10" stroke-linecap="round" stroke-linejoin="round"/>
<path d="M163.748 82.755L170.217 97.4308L155.49 100.477L150.316 88.7426L163.748 82.755Z" stroke="#3335F9" stroke-width="0.574635" stroke-miterlimit="10" stroke-linecap="round" stroke-linejoin="round"/>
<path d="M154.637 68.6548L163.749 82.7546L150.319 88.7422L143.031 77.4747L154.637 68.6548Z" stroke="#3335F9" stroke-width="0.574635" stroke-miterlimit="10" stroke-linecap="round" stroke-linejoin="round"/>
<path d="M143.492 56.0913L154.638 68.6528L143.033 77.4727L134.125 67.426L143.492 56.0913Z" stroke="#3335F9" stroke-width="0.574635" stroke-miterlimit="10" stroke-linecap="round" stroke-linejoin="round"/>
<path d="M131.083 45.9299L143.489 56.0934L134.123 67.4297L124.203 59.3029L131.083 45.9299Z" stroke="#3335F9" stroke-width="0.574635" stroke-miterlimit="10" stroke-linecap="round" stroke-linejoin="round"/>
<path d="M118.259 38.8537L131.088 45.9277L124.209 59.3008L113.953 53.648L118.259 38.8537Z" stroke="#3335F9" stroke-width="0.574635" stroke-miterlimit="10" stroke-linecap="round" stroke-linejoin="round"/>
<path d="M104.058 50.8421L113.949 53.6466L106.409 67.0781L98.168 64.746L104.058 50.8421Z" stroke="#3335F9" stroke-width="0.574635" stroke-miterlimit="10" stroke-linecap="round" stroke-linejoin="round"/>
<path d="M95.1961 51.0893L104.055 50.8436L98.1643 64.7474L90.7891 64.9492L95.1961 51.0893Z" stroke="#3335F9" stroke-width="0.574635" stroke-miterlimit="10" stroke-linecap="round" stroke-linejoin="round"/>
<path d="M87.9756 54.3563L95.1944 51.0884L90.7888 64.9483L84.7852 67.668L87.9756 54.3563Z" stroke="#3335F9" stroke-width="0.574635" stroke-miterlimit="10" stroke-linecap="round" stroke-linejoin="round"/>
<path d="M82.8995 60.4355L87.9835 54.3558L84.7931 67.6674L80.5586 72.7266L82.8995 60.4355Z" stroke="#3335F9" stroke-width="0.574635" stroke-miterlimit="10" stroke-linecap="round" stroke-linejoin="round"/>
<path d="M80.2812 68.9044L82.8912 60.4355L80.5518 72.7266L80.2988 73.5352L80.2812 68.9044Z" stroke="#3335F9" stroke-width="0.574635" stroke-miterlimit="10" stroke-linecap="round" stroke-linejoin="round"/>
<path d="M143.328 139.969L134.468 140.215L130.012 138.959L130.86 138.933L143.328 139.969Z" stroke="#3335F9" stroke-width="0.574635" stroke-miterlimit="10" stroke-linecap="round" stroke-linejoin="round"/>
<path d="M150.551 136.705L143.333 139.973L130.863 138.936L136.873 136.212L150.551 136.705Z" stroke="#3335F9" stroke-width="0.574635" stroke-miterlimit="10" stroke-linecap="round" stroke-linejoin="round"/>
<path d="M155.634 130.623L150.55 136.703L136.871 136.21L141.1 131.156L155.634 130.623Z" stroke="#3335F9" stroke-width="0.574635" stroke-miterlimit="10" stroke-linecap="round" stroke-linejoin="round"/>
<path d="M158.239 122.155L155.629 130.624L141.094 131.156L143.265 124.104L158.239 122.155Z" stroke="#3335F9" stroke-width="0.574635" stroke-miterlimit="10" stroke-linecap="round" stroke-linejoin="round"/>
<path d="M158.191 111.874L158.244 122.155L143.269 124.105L143.234 115.546L158.191 111.874Z" stroke="#3335F9" stroke-width="0.574635" stroke-miterlimit="10" stroke-linecap="round" stroke-linejoin="round"/>
<path d="M155.488 100.475L158.187 111.871L143.229 115.543L140.98 106.056L155.488 100.475Z" stroke="#3335F9" stroke-width="0.574635" stroke-miterlimit="10" stroke-linecap="round" stroke-linejoin="round"/>
<path d="M150.319 88.745L155.491 100.477L140.983 106.059L136.68 96.2913L150.319 88.745Z" stroke="#3335F9" stroke-width="0.574635" stroke-miterlimit="10" stroke-linecap="round" stroke-linejoin="round"/>
<path d="M143.032 77.4777L150.319 88.7467L136.68 96.293L130.613 86.9146L143.032 77.4777Z" stroke="#3335F9" stroke-width="0.574635" stroke-miterlimit="10" stroke-linecap="round" stroke-linejoin="round"/>
<path d="M134.129 67.4306L143.036 77.4772L130.618 86.9141L123.203 78.549L134.129 67.4306Z" stroke="#3335F9" stroke-width="0.574635" stroke-miterlimit="10" stroke-linecap="round" stroke-linejoin="round"/>
<path d="M124.2 59.3042L134.12 67.4309L123.196 78.5508L114.938 71.7868L124.2 59.3042Z" stroke="#3335F9" stroke-width="0.574635" stroke-miterlimit="10" stroke-linecap="round" stroke-linejoin="round"/>
<path d="M113.949 53.6498L124.206 59.3026L114.943 71.7852L106.41 67.0828L113.949 53.6498Z" stroke="#3335F9" stroke-width="0.574635" stroke-miterlimit="10" stroke-linecap="round" stroke-linejoin="round"/>
<path d="M98.1671 64.7472L106.409 67.0793L96.7692 77.1055L89.1133 74.9371L98.1671 64.7472Z" stroke="#3335F9" stroke-width="0.574635" stroke-miterlimit="10" stroke-linecap="round" stroke-linejoin="round"/>
<path d="M90.7896 64.9483L98.1648 64.7465L89.111 74.9378L82.2578 75.125L90.7896 64.9483Z" stroke="#3335F9" stroke-width="0.574635" stroke-miterlimit="10" stroke-linecap="round" stroke-linejoin="round"/>
<path d="M84.7867 67.6685L90.789 64.9489L82.2586 75.1256L80.3125 76.0117L80.3008 73.5363L84.7867 67.6685Z" stroke="#3335F9" stroke-width="0.574635" stroke-miterlimit="10" stroke-linecap="round" stroke-linejoin="round"/>
<path d="M80.5541 72.7265L84.7885 67.6674L80.4766 72.9766L80.5541 72.7265Z" stroke="#3335F9" stroke-width="0.574635" stroke-miterlimit="10" stroke-linecap="round" stroke-linejoin="round"/>
<path d="M136.871 136.206L130.863 138.93" stroke="#3335F9" stroke-width="0.574635" stroke-miterlimit="10" stroke-linecap="round" stroke-linejoin="round"/>
<path d="M141.098 131.155L136.869 136.21L130.6 138.941L127.633 138.285L129.007 136.649L141.098 131.155Z" stroke="#3335F9" stroke-width="0.574635" stroke-miterlimit="10" stroke-linecap="round" stroke-linejoin="round"/>
<path d="M143.268 124.103L141.099 131.154L129.008 136.648L131.024 130.096L143.268 124.103Z" stroke="#3335F9" stroke-width="0.574635" stroke-miterlimit="10" stroke-linecap="round" stroke-linejoin="round"/>
<path d="M143.233 115.545L143.268 124.104L131.023 130.098L130.988 122.139L143.233 115.545Z" stroke="#3335F9" stroke-width="0.574635" stroke-miterlimit="10" stroke-linecap="round" stroke-linejoin="round"/>
<path d="M140.985 106.054L143.234 115.541L130.989 122.137L128.898 113.32L140.985 106.054Z" stroke="#3335F9" stroke-width="0.574635" stroke-miterlimit="10" stroke-linecap="round" stroke-linejoin="round"/>
<path d="M136.682 96.2913L140.985 106.059L128.9 113.324L124.898 104.251L136.682 96.2913Z" stroke="#3335F9" stroke-width="0.574635" stroke-miterlimit="10" stroke-linecap="round" stroke-linejoin="round"/>
<path d="M130.614 86.9115L136.68 96.2899L124.898 104.25L119.266 95.5325L130.614 86.9115Z" stroke="#3335F9" stroke-width="0.574635" stroke-miterlimit="10" stroke-linecap="round" stroke-linejoin="round"/>
<path d="M123.201 78.5452L130.614 86.9088L119.268 95.5312L112.375 87.7642L123.201 78.5452Z" stroke="#3335F9" stroke-width="0.574635" stroke-miterlimit="10" stroke-linecap="round" stroke-linejoin="round"/>
<path d="M114.945 71.7826L123.202 78.5466L112.376 87.7656L104.707 81.4797L114.945 71.7826Z" stroke="#3335F9" stroke-width="0.574635" stroke-miterlimit="10" stroke-linecap="round" stroke-linejoin="round"/>
<path d="M106.41 67.0834L114.943 71.7858L104.705 81.4844L96.7695 77.1081L106.41 67.0834Z" stroke="#3335F9" stroke-width="0.574635" stroke-miterlimit="10" stroke-linecap="round" stroke-linejoin="round"/>
<path d="M89.11 74.9361L96.7659 77.1031L86.5029 82.2031L80.6469 80.5406L80.3281 79.191L89.11 74.9361Z" stroke="#3335F9" stroke-width="0.574635" stroke-miterlimit="10" stroke-linecap="round" stroke-linejoin="round"/>
<path d="M82.2572 75.1236L89.1104 74.9365L80.3315 78.9297L80.3125 76.0097L82.2572 75.1236Z" stroke="#3335F9" stroke-width="0.574635" stroke-miterlimit="10" stroke-linecap="round" stroke-linejoin="round"/>
<path d="M129.011 136.649L127.637 138.285L124.828 137.485L131.028 130.098L129.011 136.649Z" stroke="#3335F9" stroke-width="0.574635" stroke-miterlimit="10" stroke-linecap="round" stroke-linejoin="round"/>
<path d="M130.991 122.135L131.026 130.094L124.826 137.48L123.36 136.745L123.332 130.664L130.991 122.135Z" stroke="#3335F9" stroke-width="0.574635" stroke-miterlimit="10" stroke-linecap="round" stroke-linejoin="round"/>
<path d="M128.899 113.324L130.99 122.139L123.329 130.668L121.082 121.181L128.899 113.324Z" stroke="#3335F9" stroke-width="0.574635" stroke-miterlimit="10" stroke-linecap="round" stroke-linejoin="round"/>
<path d="M124.898 104.249L128.899 113.322L121.083 121.18L116.777 111.411L124.898 104.249Z" stroke="#3335F9" stroke-width="0.574635" stroke-miterlimit="10" stroke-linecap="round" stroke-linejoin="round"/>
<path d="M119.266 95.5348L124.898 104.251L116.777 111.414L110.715 102.033L119.266 95.5348Z" stroke="#3335F9" stroke-width="0.574635" stroke-miterlimit="10" stroke-linecap="round" stroke-linejoin="round"/>
<path d="M112.374 87.7677L119.267 95.5348L110.716 102.031L103.297 93.672L112.374 87.7677Z" stroke="#3335F9" stroke-width="0.574635" stroke-miterlimit="10" stroke-linecap="round" stroke-linejoin="round"/>
<path d="M104.704 81.4817L112.373 87.7676L103.296 93.6719L95.0391 86.9078L104.704 81.4817Z" stroke="#3335F9" stroke-width="0.574635" stroke-miterlimit="10" stroke-linecap="round" stroke-linejoin="round"/>
<path d="M96.7684 77.1092L104.704 81.484L95.0372 86.9102L86.5039 82.2078L96.7684 77.1092Z" stroke="#3335F9" stroke-width="0.574635" stroke-miterlimit="10" stroke-linecap="round" stroke-linejoin="round"/>
<path d="M80.6484 80.5406L86.5045 82.2031L80.9555 81.8332L80.6484 80.5406Z" stroke="#3335F9" stroke-width="0.574635" stroke-miterlimit="10" stroke-linecap="round" stroke-linejoin="round"/>
<path d="M123.334 130.665L123.363 136.746L122.199 136.104L123.334 130.665Z" stroke="#3335F9" stroke-width="0.574635" stroke-miterlimit="10" stroke-linecap="round" stroke-linejoin="round"/>
<path d="M121.08 121.18L123.328 130.666L122.193 136.105L120.294 135.056L118.719 128.417L121.08 121.18Z" stroke="#3335F9" stroke-width="0.574635" stroke-miterlimit="10" stroke-linecap="round" stroke-linejoin="round"/>
<path d="M116.777 111.411L121.081 121.18L118.72 128.418L113.547 116.684L116.777 111.411Z" stroke="#3335F9" stroke-width="0.574635" stroke-miterlimit="10" stroke-linecap="round" stroke-linejoin="round"/>
<path d="M110.713 102.03L116.775 111.411L113.545 116.684L106.262 105.412L110.713 102.03Z" stroke="#3335F9" stroke-width="0.574635" stroke-miterlimit="10" stroke-linecap="round" stroke-linejoin="round"/>
<path d="M103.299 93.6728L110.718 102.032L106.267 105.414L97.3555 95.3718L103.299 93.6728Z" stroke="#3335F9" stroke-width="0.574635" stroke-miterlimit="10" stroke-linecap="round" stroke-linejoin="round"/>
<path d="M95.0398 86.908L103.297 93.672L97.353 95.3711L87.4336 87.2443L95.0398 86.908Z" stroke="#3335F9" stroke-width="0.574635" stroke-miterlimit="10" stroke-linecap="round" stroke-linejoin="round"/>
<path d="M86.5021 82.2074L95.0353 86.9098L87.4291 87.2461L81.4605 83.9533L80.9531 81.8375L86.5021 82.2074Z" stroke="#3335F9" stroke-width="0.574635" stroke-miterlimit="10" stroke-linecap="round" stroke-linejoin="round"/>
<path d="M0.977352 89.2539L0.875 67.7248L2.77437 56.8521L2.88988 80.108L0.977352 89.2539Z" stroke="#3335F9" stroke-width="0.574635" stroke-miterlimit="10" stroke-linecap="round" stroke-linejoin="round"/>
<path d="M6.63518 113.125L0.976562 89.255L2.88763 80.1091L8.99513 105.887L6.63518 113.125Z" stroke="#3335F9" stroke-width="0.574635" stroke-miterlimit="10" stroke-linecap="round" stroke-linejoin="round"/>
<path d="M17.4612 137.695L6.63672 113.126L8.99667 105.889L20.6912 132.424L17.4612 137.695Z" stroke="#3335F9" stroke-width="0.574635" stroke-miterlimit="10" stroke-linecap="round" stroke-linejoin="round"/>
<path d="M32.7202 161.297L17.4609 137.694L20.6909 132.422L37.1696 157.915L32.7202 161.297Z" stroke="#3335F9" stroke-width="0.574635" stroke-miterlimit="10" stroke-linecap="round" stroke-linejoin="round"/>
<path d="M51.3659 182.316L32.7188 161.298L37.1682 157.917L57.3096 180.617L51.3659 182.316Z" stroke="#3335F9" stroke-width="0.574635" stroke-miterlimit="10" stroke-linecap="round" stroke-linejoin="round"/>
<path d="M72.1389 199.328L51.3672 182.316L57.3109 180.617L79.748 198.998L72.1389 199.328Z" stroke="#3335F9" stroke-width="0.574635" stroke-miterlimit="10" stroke-linecap="round" stroke-linejoin="round"/>
<path d="M93.6215 211.172L72.1406 199.325L79.7498 198.995L102.944 211.781L93.6215 211.172Z" stroke="#3335F9" stroke-width="0.574635" stroke-miterlimit="10" stroke-linecap="round" stroke-linejoin="round"/>
<path d="M114.334 217.039L93.6211 211.171L102.944 211.781L125.32 218.121L114.334 217.039Z" stroke="#3335F9" stroke-width="0.574635" stroke-miterlimit="10" stroke-linecap="round" stroke-linejoin="round"/>
<path d="M125.429 133.001L124.055 134.637" stroke="#3335F9" stroke-width="1.43659" stroke-miterlimit="10" stroke-linecap="round" stroke-linejoin="round"/>
<path d="M81.1094 84.2158L87.078 87.5072L96.9959 95.6354L105.911 105.676L113.192 116.95L118.364 128.682L119.942 135.32" stroke="#3335F9" stroke-width="1.43659" stroke-miterlimit="10" stroke-linecap="round" stroke-linejoin="round"/>
<path d="M8.67278 37.7003L2.77583 56.8519L0.875 67.7246L0.977353 89.2537L6.63597 113.124L17.4619 137.693L32.7197 161.295L51.3669 182.314L72.1385 199.326L93.6208 211.173L114.334 217.039L125.318 218.121L145.351 217.573L156.721 212.625L173.469 205.035L185.269 190.932L193.078 181.305L198.974 162.153L200.874 151.281L200.776 129.749L195.119 105.877L184.287 81.3126L169.034 57.716L150.382 36.6914L129.617 19.6761L108.134 7.8295L87.4168 1.96619L76.4315 0.884167L56.4011 1.43248L45.0342 6.37757L28.2849 13.9677L16.4852 28.0704L8.67278 37.7003Z" stroke="#3335F9" stroke-width="1.43659" stroke-miterlimit="10" stroke-linecap="round" stroke-linejoin="round"/>
<path d="M134.396 140.27L129.94 139.012L127.559 138.337L124.75 137.537L124.499 137.469L123.284 136.801L122.12 136.159L120.222 135.11L114.245 131.815L104.325 123.69L95.4205 113.649L88.1286 102.374L82.9554 90.6418L81.3895 84.005L80.8821 81.8878L80.575 80.5952L80.2577 79.2456L80.2607 78.9854L80.2416 76.0639L80.2285 73.5899L80.2109 68.9592" stroke="#3335F9" stroke-width="1.43659" stroke-miterlimit="10" stroke-linecap="round" stroke-linejoin="round"/>
</svg>
