<svg width="34" height="34" viewBox="0 0 34 34" fill="none" xmlns="http://www.w3.org/2000/svg">
<rect width="34" height="34" rx="10.2" fill="#9E00FF"/>
<path d="M7.5 23.3715V18.007L12.2504 15.9961L17.0007 18.0085V23.3715L12.2504 25.3809L7.5 23.3715Z" stroke="white" stroke-linecap="round" stroke-linejoin="round"/>
<path d="M7.5 17.996L12.2504 20.0069L17.0007 17.996M12.2504 10.668L16.9992 12.6804L21.7496 10.6695" stroke="white" stroke-linecap="round" stroke-linejoin="round"/>
<path d="M16.999 17.9961L21.7494 20.007L26.4998 17.9961" stroke="white" stroke-linecap="round" stroke-linejoin="round"/>
<path d="M12.25 20.01V25.3819M21.7522 20.01V25.3819M16.9989 12.6806V18.0509M12.253 15.9926V10.6281L17.0019 8.61719L21.7522 10.6281V15.9926L17.0019 18.0035L12.253 15.9926ZM16.9989 23.371V18.0065L21.7492 15.9956L26.4996 18.008V23.371L21.7492 25.3804L16.9989 23.371Z" stroke="white" stroke-linecap="round" stroke-linejoin="round"/>
</svg>
