<svg width="34" height="34" viewBox="0 0 34 34" fill="none" xmlns="http://www.w3.org/2000/svg">
<rect width="34" height="34" rx="10.2" fill="#FF6B00"/>
<path d="M22.0031 21.4355L22.0031 21.4356C22.0522 21.5582 22.1013 21.6721 22.1481 21.7808C22.2545 22.0279 22.3494 22.2481 22.4075 22.4835C22.4837 22.7917 22.4588 22.9975 22.3312 23.1684C22.1836 23.3661 21.821 23.6245 20.9581 23.8256C20.107 24.024 18.8438 24.1496 17 24.1496C15.1562 24.1496 13.893 24.024 13.042 23.8256C12.179 23.6245 11.8165 23.3661 11.6689 23.1684C11.5413 22.9975 11.5164 22.7917 11.5925 22.4835C11.6507 22.2481 11.7456 22.0279 11.852 21.7808C11.8988 21.6721 11.9478 21.5582 11.997 21.4356L11.997 21.4355C12.7959 19.4405 13.6544 18.1416 14.3573 17.0783C14.4007 17.0126 14.4436 16.9478 14.4858 16.8838C15.2014 15.798 15.8 14.8522 15.8 13.5996V11.0496V10.5496H15.3H14.95V9.84961H19.05V10.5496H18.7H18.2V11.0496V13.5996C18.2 14.8522 18.7987 15.798 19.5143 16.8838C19.5565 16.9478 19.5994 17.0126 19.6428 17.0783C20.3456 18.1416 21.2042 19.4405 22.0031 21.4355ZM21.2361 23.217L21.237 23.2167C21.8117 23.0436 21.9152 22.4373 21.7873 22.0487C21.4763 21.0875 21.0588 20.1642 20.5425 19.2958L20.5419 19.2948C20.4712 19.1765 20.3992 19.0661 20.3242 18.9804C20.2674 18.9156 20.1117 18.7476 19.8606 18.7363C19.5816 18.7237 19.4166 18.9094 19.3702 18.9641C19.3253 19.0171 19.2787 19.0881 19.2527 19.1277C19.248 19.1348 19.2441 19.1408 19.2409 19.1456C19.178 19.2397 19.1237 19.3085 19.0416 19.3623C18.9649 19.4126 18.8258 19.4738 18.5623 19.4738C18.3795 19.4738 18.1271 19.364 17.747 19.1129C17.6423 19.0438 17.5243 18.961 17.3987 18.8728C17.1326 18.6861 16.8321 18.4753 16.5504 18.3186C16.118 18.0781 15.5811 17.8713 14.9979 17.9955C14.4034 18.1221 13.8986 18.5609 13.4586 19.294L13.4586 19.294C12.7723 20.4376 12.4059 21.4606 12.2132 22.0475C12.0852 22.4341 12.1864 23.0448 12.764 23.217C13.4271 23.4153 14.6693 23.6196 17 23.6196C19.3307 23.6196 20.573 23.4153 21.2361 23.217Z" fill="white" stroke="white"/>
</svg>
