<svg width="69" height="56" viewBox="0 0 69 56" fill="none" xmlns="http://www.w3.org/2000/svg">
<path d="M22 12C22.0001 22 16.8 34 0 34" stroke="white" stroke-width="1.4"/>
<path d="M22 12C21.9999 22 27.2 34 44 34" stroke="white" stroke-width="1.4"/>
<path d="M22 56C21.9999 46 27.2 34 44 34" stroke="white" stroke-width="1.4"/>
<path d="M22 56C22.0001 46 16.8 34 -1.9233e-06 34" stroke="white" stroke-width="1.4"/>
<path d="M57.25 0C57.25 5.11364 59.9091 11.25 68.5 11.25" stroke="white" stroke-width="1.4"/>
<path d="M57.25 0C57.25 5.11364 54.5909 11.25 46 11.25" stroke="white" stroke-width="1.4"/>
<path d="M57.25 22.5C57.25 17.3864 54.5909 11.25 46 11.25" stroke="white" stroke-width="1.4"/>
<path d="M57.25 22.5C57.25 17.3864 59.9091 11.25 68.5 11.25" stroke="white" stroke-width="1.4"/>
</svg>
