<svg width="98" height="98" viewBox="0 0 98 98" fill="none" xmlns="http://www.w3.org/2000/svg">
<g filter="url(#filter0_di_2041_64791)">
<rect x="19" y="19" width="60" height="60" rx="30" fill="#262626" shape-rendering="crispEdges"/>
<rect x="21" y="21" width="56" height="56" rx="28" stroke="#FF6B00" stroke-width="4" shape-rendering="crispEdges"/>
<g filter="url(#filter1_di_2041_64791)">
<path d="M47.4 33V36.312C44.5842 36.6696 41.967 37.9529 39.9599 39.9599C37.9529 41.967 36.6696 44.5842 36.312 47.4H33V50.6H36.312C36.6696 53.4158 37.9529 56.033 39.9599 58.0401C41.967 60.0471 44.5842 61.3304 47.4 61.688V65H50.6V61.688C53.4158 61.3304 56.033 60.0471 58.0401 58.0401C60.0471 56.033 61.3304 53.4158 61.688 50.6H65V47.4H61.688C61.3304 44.5842 60.0471 41.967 58.0401 39.9599C56.033 37.9529 53.4158 36.6696 50.6 36.312V33M47.4 39.528V42.6H50.6V39.544C54.6 40.2 57.8 43.4 58.472 47.4H55.4V50.6H58.456C57.8 54.6 54.6 57.8 50.6 58.472V55.4H47.4V58.456C43.4 57.8 40.2 54.6 39.528 50.6H42.6V47.4H39.544C40.2 43.4 43.4 40.2 47.4 39.528ZM49 47.4C48.5757 47.4 48.1687 47.5686 47.8686 47.8686C47.5686 48.1687 47.4 48.5757 47.4 49C47.4 49.4243 47.5686 49.8313 47.8686 50.1314C48.1687 50.4314 48.5757 50.6 49 50.6C49.4243 50.6 49.8313 50.4314 50.1314 50.1314C50.4314 49.8313 50.6 49.4243 50.6 49C50.6 48.5757 50.4314 48.1687 50.1314 47.8686C49.8313 47.5686 49.4243 47.4 49 47.4Z" fill="#FF6B00"/>
</g>
</g>
<defs>
<filter id="filter0_di_2041_64791" x="0" y="0" width="98" height="98" filterUnits="userSpaceOnUse" color-interpolation-filters="sRGB">
<feFlood flood-opacity="0" result="BackgroundImageFix"/>
<feColorMatrix in="SourceAlpha" type="matrix" values="0 0 0 0 0 0 0 0 0 0 0 0 0 0 0 0 0 0 127 0" result="hardAlpha"/>
<feOffset/>
<feGaussianBlur stdDeviation="9.5"/>
<feComposite in2="hardAlpha" operator="out"/>
<feColorMatrix type="matrix" values="0 0 0 0 1 0 0 0 0 0.419608 0 0 0 0 0 0 0 0 1 0"/>
<feBlend mode="normal" in2="BackgroundImageFix" result="effect1_dropShadow_2041_64791"/>
<feBlend mode="normal" in="SourceGraphic" in2="effect1_dropShadow_2041_64791" result="shape"/>
<feColorMatrix in="SourceAlpha" type="matrix" values="0 0 0 0 0 0 0 0 0 0 0 0 0 0 0 0 0 0 127 0" result="hardAlpha"/>
<feOffset/>
<feGaussianBlur stdDeviation="8.05"/>
<feComposite in2="hardAlpha" operator="arithmetic" k2="-1" k3="1"/>
<feColorMatrix type="matrix" values="0 0 0 0 1 0 0 0 0 0.419608 0 0 0 0 0 0 0 0 1 0"/>
<feBlend mode="normal" in2="shape" result="effect2_innerShadow_2041_64791"/>
</filter>
<filter id="filter1_di_2041_64791" x="24.2" y="24.2" width="49.6" height="49.6" filterUnits="userSpaceOnUse" color-interpolation-filters="sRGB">
<feFlood flood-opacity="0" result="BackgroundImageFix"/>
<feColorMatrix in="SourceAlpha" type="matrix" values="0 0 0 0 0 0 0 0 0 0 0 0 0 0 0 0 0 0 127 0" result="hardAlpha"/>
<feOffset/>
<feGaussianBlur stdDeviation="4.4"/>
<feComposite in2="hardAlpha" operator="out"/>
<feColorMatrix type="matrix" values="0 0 0 0 1 0 0 0 0 0.419608 0 0 0 0 0 0 0 0 0.8 0"/>
<feBlend mode="normal" in2="BackgroundImageFix" result="effect1_dropShadow_2041_64791"/>
<feBlend mode="normal" in="SourceGraphic" in2="effect1_dropShadow_2041_64791" result="shape"/>
<feColorMatrix in="SourceAlpha" type="matrix" values="0 0 0 0 0 0 0 0 0 0 0 0 0 0 0 0 0 0 127 0" result="hardAlpha"/>
<feOffset/>
<feGaussianBlur stdDeviation="1.8"/>
<feComposite in2="hardAlpha" operator="arithmetic" k2="-1" k3="1"/>
<feColorMatrix type="matrix" values="0 0 0 0 1 0 0 0 0 1 0 0 0 0 1 0 0 0 0.5 0"/>
<feBlend mode="normal" in2="shape" result="effect2_innerShadow_2041_64791"/>
</filter>
</defs>
</svg>
