<svg width="59" height="69" viewBox="0 0 59 69" fill="none" xmlns="http://www.w3.org/2000/svg">
<mask id="path-1-outside-1_459_37127" maskUnits="userSpaceOnUse" x="0" y="0" width="59" height="69" fill="black">
<rect fill="white" width="59" height="69"/>
<path d="M31.0481 67.8761L12.0824 59.3374C5.3505 56.3031 1 49.5822 1 42.2157V35.3759C1 35.0904 1.02385 34.8152 1.06814 34.5536C1.17375 33.8502 1.42245 33.1809 1.81082 32.5591C2.33206 31.7164 3.08838 31.0368 3.98778 30.5951L10.7673 27.2788C4.73387 23.9795 1 17.7071 1 10.8197V2.83483L28.4419 16.2427V1L47.4076 9.53875C54.1395 12.573 58.49 19.2905 58.49 26.6604V33.5003C58.49 33.7823 58.4696 34.0507 58.4253 34.3191C58.1664 36.0282 57.0728 37.5097 55.4988 38.281L48.7193 41.5939C54.7561 44.8966 58.4866 51.1656 58.4866 58.0564V66.0379L31.0447 52.6301V67.8761H31.0481ZM1.40882 3.48721V10.8197C1.40882 17.6901 5.20401 23.932 11.3124 27.1089L11.6701 27.2958L4.16834 30.9621C3.33367 31.3698 2.63868 31.9984 2.15832 32.7765C1.8006 33.3474 1.56894 33.9692 1.47014 34.6181C1.42926 34.8628 1.40882 35.1142 1.40882 35.3759V42.2157C1.40882 49.4225 5.66393 55.9973 12.2527 58.9636L30.6393 67.2441V51.9777L58.0812 65.3855V58.0564C58.0812 51.186 54.286 44.9442 48.1776 41.7672L47.8199 41.5803L55.3217 37.914C56.773 37.2039 57.7848 35.8346 58.0233 34.258C58.0642 34.0065 58.0812 33.7585 58.0812 33.5003V26.6604C58.0812 19.4536 53.8261 12.8788 47.2373 9.91251L28.8507 1.632V16.8951L1.40882 3.48721ZM30.0261 66.2995L12.5014 58.4064C6.13407 55.5386 2.02204 49.1847 2.02204 42.2157V35.8652L29.4639 49.273V37.5573C29.4639 35.7904 28.4215 34.1798 26.8066 33.4527L12.5048 27.0104C6.13748 24.1426 2.02204 17.7887 2.02204 10.8197V4.47258L29.4639 17.8804V2.57659L46.9886 10.4698C53.3559 13.3375 57.468 19.6915 57.468 26.6604V33.0076L30.0261 19.5997V31.3189C30.0261 33.0891 31.0685 34.6997 32.6834 35.4234L46.9852 41.8657C53.3525 44.7335 57.468 51.0874 57.468 58.0564V64.4035L30.0261 50.9957V66.2995ZM2.43086 36.5175V42.2157C2.43086 49.025 6.4509 55.2328 12.6717 58.0326L29.6172 65.6675V50.3433L57.0591 63.7512V58.0564C57.0591 51.2471 53.0391 45.0393 46.8148 42.2395L32.513 35.7972C30.7517 35.0055 29.6172 33.2488 29.6172 31.3189V18.9473L57.0591 32.3552V26.6604C57.0591 19.8512 53.0391 13.6433 46.8183 10.8435L29.8728 3.20859V18.5328L2.43086 5.12497V10.8197C2.43086 17.629 6.4509 23.8368 12.6752 26.6366L26.977 33.0789C28.7383 33.874 29.8728 35.6307 29.8728 37.5573V49.9254L2.43086 36.5175ZM28.8507 48.291L17.9216 42.953L28.8507 38.0296V48.291ZM18.8824 42.9666L28.4419 47.6386V38.6616L18.8824 42.9666ZM17.2096 42.6031L17.1245 42.5623L2.02545 35.1856L2.03567 35.0497C2.08677 34.3701 2.30481 33.6973 2.67615 33.0993C3.10541 32.413 3.71523 31.8659 4.44088 31.5125L12.3856 27.6288L26.5545 34.0133C26.8952 34.1696 27.1984 34.3633 27.4641 34.5876C27.5016 34.6147 27.5493 34.6555 27.5936 34.6997C27.6072 34.7099 27.6311 34.7337 27.6515 34.7541C27.6754 34.7744 27.6992 34.7982 27.7197 34.822L27.7469 34.8492C27.7742 34.873 27.8048 34.907 27.8321 34.9375L27.8559 34.9647C27.9683 35.087 28.074 35.223 28.1693 35.3623C28.2 35.4064 28.2307 35.454 28.2579 35.505C28.2886 35.5458 28.3261 35.6137 28.3635 35.6783C28.4112 35.7598 28.4521 35.8414 28.493 35.9297C28.5305 36.0113 28.5679 36.0962 28.602 36.1845C28.6327 36.2695 28.6667 36.3578 28.694 36.4496C28.7485 36.6365 28.786 36.8165 28.8098 36.9898C28.8235 37.0578 28.8303 37.1325 28.8371 37.2073L28.8575 37.4316H28.6736L17.2096 42.5963V42.6031ZM2.45471 34.9409L17.2164 42.1511L28.4112 37.1054C28.4112 37.1054 28.4078 37.0748 28.4044 37.0578C28.3806 36.8913 28.3465 36.7316 28.2988 36.5651C28.275 36.4836 28.2443 36.402 28.217 36.3273C28.1898 36.2525 28.1557 36.1744 28.1217 36.103C28.0842 36.0248 28.0501 35.9535 28.0092 35.8855C27.9752 35.8244 27.9445 35.77 27.9104 35.719C27.8764 35.6613 27.8525 35.6239 27.8287 35.5899C27.7469 35.4676 27.6549 35.3487 27.5527 35.2399L27.5255 35.2094C27.505 35.1856 27.4846 35.1652 27.4641 35.1448L27.4233 35.104C27.4233 35.104 27.3926 35.0701 27.3722 35.0531C27.3449 35.0259 27.3279 35.0123 27.3108 34.9953C27.2665 34.9545 27.2359 34.9273 27.2018 34.9002C26.9599 34.6895 26.6874 34.5196 26.3808 34.3803L12.389 28.0773L4.61463 31.8795C3.95712 32.1989 3.40521 32.6916 3.01683 33.3134C2.70681 33.8129 2.51263 34.3735 2.4513 34.9409H2.45471ZM47.1044 41.2473L32.9321 34.8628C32.7481 34.7778 32.5812 34.6895 32.4347 34.5944C32.3802 34.5638 32.3223 34.523 32.2643 34.4822L32.2166 34.4483C32.1144 34.3701 32.0225 34.2988 31.9407 34.2172C31.9032 34.19 31.8487 34.139 31.7976 34.0881C31.7772 34.0677 31.7567 34.0473 31.7397 34.0235C31.709 33.9963 31.6613 33.9488 31.6205 33.8978C31.5966 33.8774 31.5796 33.8536 31.5694 33.84C31.5217 33.7857 31.4637 33.7177 31.416 33.6464C31.3683 33.5818 31.3138 33.5071 31.2627 33.4255C31.1605 33.2692 31.0686 33.1027 30.997 32.9396C30.9595 32.8649 30.9186 32.7731 30.888 32.6814C30.8573 32.6032 30.8267 32.5149 30.7994 32.4231C30.7449 32.2363 30.7074 32.0562 30.6836 31.8795C30.6836 31.8693 30.6768 31.8455 30.6734 31.8217L30.6359 31.4344H30.8199L42.2906 26.2731L57.4714 33.6905L57.4611 33.8298C57.3453 35.3589 56.4459 36.6806 55.0559 37.3602L47.1112 41.2439L47.1044 41.2473ZM32.0872 33.7993C32.1247 33.8366 32.1655 33.8774 32.2098 33.908C32.2984 33.9895 32.3768 34.0541 32.4619 34.1187L32.5028 34.1492C32.5505 34.1832 32.5982 34.2172 32.6493 34.2478C32.7856 34.3361 32.9355 34.4177 33.099 34.4924L47.0942 40.7954L54.8686 36.9932C56.0882 36.3952 56.8888 35.2603 57.0353 33.9352L42.277 26.725L31.0754 31.7674L31.0822 31.8149C31.106 31.9814 31.1401 32.1445 31.1878 32.3076C31.2116 32.3892 31.2423 32.4707 31.273 32.5489C31.3002 32.627 31.3275 32.6984 31.3649 32.7663C31.4365 32.9226 31.5148 33.0653 31.6068 33.208C31.6545 33.2794 31.7022 33.3474 31.7499 33.4119C31.7942 33.4765 31.8385 33.5308 31.8896 33.5852L31.9305 33.6328C31.9679 33.6769 32.0088 33.7177 32.0497 33.7619L31.9441 33.9454L32.0872 33.8027V33.7993ZM30.6393 30.8466V20.5851L41.5718 25.9231L30.6393 30.8466ZM31.0481 21.2375V30.2146L40.611 25.9095L31.0481 21.2375Z"/>
</mask>
<path d="M31.0481 67.8761L12.0824 59.3374C5.3505 56.3031 1 49.5822 1 42.2157V35.3759C1 35.0904 1.02385 34.8152 1.06814 34.5536C1.17375 33.8502 1.42245 33.1809 1.81082 32.5591C2.33206 31.7164 3.08838 31.0368 3.98778 30.5951L10.7673 27.2788C4.73387 23.9795 1 17.7071 1 10.8197V2.83483L28.4419 16.2427V1L47.4076 9.53875C54.1395 12.573 58.49 19.2905 58.49 26.6604V33.5003C58.49 33.7823 58.4696 34.0507 58.4253 34.3191C58.1664 36.0282 57.0728 37.5097 55.4988 38.281L48.7193 41.5939C54.7561 44.8966 58.4866 51.1656 58.4866 58.0564V66.0379L31.0447 52.6301V67.8761H31.0481ZM1.40882 3.48721V10.8197C1.40882 17.6901 5.20401 23.932 11.3124 27.1089L11.6701 27.2958L4.16834 30.9621C3.33367 31.3698 2.63868 31.9984 2.15832 32.7765C1.8006 33.3474 1.56894 33.9692 1.47014 34.6181C1.42926 34.8628 1.40882 35.1142 1.40882 35.3759V42.2157C1.40882 49.4225 5.66393 55.9973 12.2527 58.9636L30.6393 67.2441V51.9777L58.0812 65.3855V58.0564C58.0812 51.186 54.286 44.9442 48.1776 41.7672L47.8199 41.5803L55.3217 37.914C56.773 37.2039 57.7848 35.8346 58.0233 34.258C58.0642 34.0065 58.0812 33.7585 58.0812 33.5003V26.6604C58.0812 19.4536 53.8261 12.8788 47.2373 9.91251L28.8507 1.632V16.8951L1.40882 3.48721ZM30.0261 66.2995L12.5014 58.4064C6.13407 55.5386 2.02204 49.1847 2.02204 42.2157V35.8652L29.4639 49.273V37.5573C29.4639 35.7904 28.4215 34.1798 26.8066 33.4527L12.5048 27.0104C6.13748 24.1426 2.02204 17.7887 2.02204 10.8197V4.47258L29.4639 17.8804V2.57659L46.9886 10.4698C53.3559 13.3375 57.468 19.6915 57.468 26.6604V33.0076L30.0261 19.5997V31.3189C30.0261 33.0891 31.0685 34.6997 32.6834 35.4234L46.9852 41.8657C53.3525 44.7335 57.468 51.0874 57.468 58.0564V64.4035L30.0261 50.9957V66.2995ZM2.43086 36.5175V42.2157C2.43086 49.025 6.4509 55.2328 12.6717 58.0326L29.6172 65.6675V50.3433L57.0591 63.7512V58.0564C57.0591 51.2471 53.0391 45.0393 46.8148 42.2395L32.513 35.7972C30.7517 35.0055 29.6172 33.2488 29.6172 31.3189V18.9473L57.0591 32.3552V26.6604C57.0591 19.8512 53.0391 13.6433 46.8183 10.8435L29.8728 3.20859V18.5328L2.43086 5.12497V10.8197C2.43086 17.629 6.4509 23.8368 12.6752 26.6366L26.977 33.0789C28.7383 33.874 29.8728 35.6307 29.8728 37.5573V49.9254L2.43086 36.5175ZM28.8507 48.291L17.9216 42.953L28.8507 38.0296V48.291ZM18.8824 42.9666L28.4419 47.6386V38.6616L18.8824 42.9666ZM17.2096 42.6031L17.1245 42.5623L2.02545 35.1856L2.03567 35.0497C2.08677 34.3701 2.30481 33.6973 2.67615 33.0993C3.10541 32.413 3.71523 31.8659 4.44088 31.5125L12.3856 27.6288L26.5545 34.0133C26.8952 34.1696 27.1984 34.3633 27.4641 34.5876C27.5016 34.6147 27.5493 34.6555 27.5936 34.6997C27.6072 34.7099 27.6311 34.7337 27.6515 34.7541C27.6754 34.7744 27.6992 34.7982 27.7197 34.822L27.7469 34.8492C27.7742 34.873 27.8048 34.907 27.8321 34.9375L27.8559 34.9647C27.9683 35.087 28.074 35.223 28.1693 35.3623C28.2 35.4064 28.2307 35.454 28.2579 35.505C28.2886 35.5458 28.3261 35.6137 28.3635 35.6783C28.4112 35.7598 28.4521 35.8414 28.493 35.9297C28.5305 36.0113 28.5679 36.0962 28.602 36.1845C28.6327 36.2695 28.6667 36.3578 28.694 36.4496C28.7485 36.6365 28.786 36.8165 28.8098 36.9898C28.8235 37.0578 28.8303 37.1325 28.8371 37.2073L28.8575 37.4316H28.6736L17.2096 42.5963V42.6031ZM2.45471 34.9409L17.2164 42.1511L28.4112 37.1054C28.4112 37.1054 28.4078 37.0748 28.4044 37.0578C28.3806 36.8913 28.3465 36.7316 28.2988 36.5651C28.275 36.4836 28.2443 36.402 28.217 36.3273C28.1898 36.2525 28.1557 36.1744 28.1217 36.103C28.0842 36.0248 28.0501 35.9535 28.0092 35.8855C27.9752 35.8244 27.9445 35.77 27.9104 35.719C27.8764 35.6613 27.8525 35.6239 27.8287 35.5899C27.7469 35.4676 27.6549 35.3487 27.5527 35.2399L27.5255 35.2094C27.505 35.1856 27.4846 35.1652 27.4641 35.1448L27.4233 35.104C27.4233 35.104 27.3926 35.0701 27.3722 35.0531C27.3449 35.0259 27.3279 35.0123 27.3108 34.9953C27.2665 34.9545 27.2359 34.9273 27.2018 34.9002C26.9599 34.6895 26.6874 34.5196 26.3808 34.3803L12.389 28.0773L4.61463 31.8795C3.95712 32.1989 3.40521 32.6916 3.01683 33.3134C2.70681 33.8129 2.51263 34.3735 2.4513 34.9409H2.45471ZM47.1044 41.2473L32.9321 34.8628C32.7481 34.7778 32.5812 34.6895 32.4347 34.5944C32.3802 34.5638 32.3223 34.523 32.2643 34.4822L32.2166 34.4483C32.1144 34.3701 32.0225 34.2988 31.9407 34.2172C31.9032 34.19 31.8487 34.139 31.7976 34.0881C31.7772 34.0677 31.7567 34.0473 31.7397 34.0235C31.709 33.9963 31.6613 33.9488 31.6205 33.8978C31.5966 33.8774 31.5796 33.8536 31.5694 33.84C31.5217 33.7857 31.4637 33.7177 31.416 33.6464C31.3683 33.5818 31.3138 33.5071 31.2627 33.4255C31.1605 33.2692 31.0686 33.1027 30.997 32.9396C30.9595 32.8649 30.9186 32.7731 30.888 32.6814C30.8573 32.6032 30.8267 32.5149 30.7994 32.4231C30.7449 32.2363 30.7074 32.0562 30.6836 31.8795C30.6836 31.8693 30.6768 31.8455 30.6734 31.8217L30.6359 31.4344H30.8199L42.2906 26.2731L57.4714 33.6905L57.4611 33.8298C57.3453 35.3589 56.4459 36.6806 55.0559 37.3602L47.1112 41.2439L47.1044 41.2473ZM32.0872 33.7993C32.1247 33.8366 32.1655 33.8774 32.2098 33.908C32.2984 33.9895 32.3768 34.0541 32.4619 34.1187L32.5028 34.1492C32.5505 34.1832 32.5982 34.2172 32.6493 34.2478C32.7856 34.3361 32.9355 34.4177 33.099 34.4924L47.0942 40.7954L54.8686 36.9932C56.0882 36.3952 56.8888 35.2603 57.0353 33.9352L42.277 26.725L31.0754 31.7674L31.0822 31.8149C31.106 31.9814 31.1401 32.1445 31.1878 32.3076C31.2116 32.3892 31.2423 32.4707 31.273 32.5489C31.3002 32.627 31.3275 32.6984 31.3649 32.7663C31.4365 32.9226 31.5148 33.0653 31.6068 33.208C31.6545 33.2794 31.7022 33.3474 31.7499 33.4119C31.7942 33.4765 31.8385 33.5308 31.8896 33.5852L31.9305 33.6328C31.9679 33.6769 32.0088 33.7177 32.0497 33.7619L31.9441 33.9454L32.0872 33.8027V33.7993ZM30.6393 30.8466V20.5851L41.5718 25.9231L30.6393 30.8466ZM31.0481 21.2375V30.2146L40.611 25.9095L31.0481 21.2375Z" fill="black"/>
<path d="M31.0481 67.8761L12.0824 59.3374C5.3505 56.3031 1 49.5822 1 42.2157V35.3759C1 35.0904 1.02385 34.8152 1.06814 34.5536C1.17375 33.8502 1.42245 33.1809 1.81082 32.5591C2.33206 31.7164 3.08838 31.0368 3.98778 30.5951L10.7673 27.2788C4.73387 23.9795 1 17.7071 1 10.8197V2.83483L28.4419 16.2427V1L47.4076 9.53875C54.1395 12.573 58.49 19.2905 58.49 26.6604V33.5003C58.49 33.7823 58.4696 34.0507 58.4253 34.3191C58.1664 36.0282 57.0728 37.5097 55.4988 38.281L48.7193 41.5939C54.7561 44.8966 58.4866 51.1656 58.4866 58.0564V66.0379L31.0447 52.6301V67.8761H31.0481ZM1.40882 3.48721V10.8197C1.40882 17.6901 5.20401 23.932 11.3124 27.1089L11.6701 27.2958L4.16834 30.9621C3.33367 31.3698 2.63868 31.9984 2.15832 32.7765C1.8006 33.3474 1.56894 33.9692 1.47014 34.6181C1.42926 34.8628 1.40882 35.1142 1.40882 35.3759V42.2157C1.40882 49.4225 5.66393 55.9973 12.2527 58.9636L30.6393 67.2441V51.9777L58.0812 65.3855V58.0564C58.0812 51.186 54.286 44.9442 48.1776 41.7672L47.8199 41.5803L55.3217 37.914C56.773 37.2039 57.7848 35.8346 58.0233 34.258C58.0642 34.0065 58.0812 33.7585 58.0812 33.5003V26.6604C58.0812 19.4536 53.8261 12.8788 47.2373 9.91251L28.8507 1.632V16.8951L1.40882 3.48721ZM30.0261 66.2995L12.5014 58.4064C6.13407 55.5386 2.02204 49.1847 2.02204 42.2157V35.8652L29.4639 49.273V37.5573C29.4639 35.7904 28.4215 34.1798 26.8066 33.4527L12.5048 27.0104C6.13748 24.1426 2.02204 17.7887 2.02204 10.8197V4.47258L29.4639 17.8804V2.57659L46.9886 10.4698C53.3559 13.3375 57.468 19.6915 57.468 26.6604V33.0076L30.0261 19.5997V31.3189C30.0261 33.0891 31.0685 34.6997 32.6834 35.4234L46.9852 41.8657C53.3525 44.7335 57.468 51.0874 57.468 58.0564V64.4035L30.0261 50.9957V66.2995ZM2.43086 36.5175V42.2157C2.43086 49.025 6.4509 55.2328 12.6717 58.0326L29.6172 65.6675V50.3433L57.0591 63.7512V58.0564C57.0591 51.2471 53.0391 45.0393 46.8148 42.2395L32.513 35.7972C30.7517 35.0055 29.6172 33.2488 29.6172 31.3189V18.9473L57.0591 32.3552V26.6604C57.0591 19.8512 53.0391 13.6433 46.8183 10.8435L29.8728 3.20859V18.5328L2.43086 5.12497V10.8197C2.43086 17.629 6.4509 23.8368 12.6752 26.6366L26.977 33.0789C28.7383 33.874 29.8728 35.6307 29.8728 37.5573V49.9254L2.43086 36.5175ZM28.8507 48.291L17.9216 42.953L28.8507 38.0296V48.291ZM18.8824 42.9666L28.4419 47.6386V38.6616L18.8824 42.9666ZM17.2096 42.6031L17.1245 42.5623L2.02545 35.1856L2.03567 35.0497C2.08677 34.3701 2.30481 33.6973 2.67615 33.0993C3.10541 32.413 3.71523 31.8659 4.44088 31.5125L12.3856 27.6288L26.5545 34.0133C26.8952 34.1696 27.1984 34.3633 27.4641 34.5876C27.5016 34.6147 27.5493 34.6555 27.5936 34.6997C27.6072 34.7099 27.6311 34.7337 27.6515 34.7541C27.6754 34.7744 27.6992 34.7982 27.7197 34.822L27.7469 34.8492C27.7742 34.873 27.8048 34.907 27.8321 34.9375L27.8559 34.9647C27.9683 35.087 28.074 35.223 28.1693 35.3623C28.2 35.4064 28.2307 35.454 28.2579 35.505C28.2886 35.5458 28.3261 35.6137 28.3635 35.6783C28.4112 35.7598 28.4521 35.8414 28.493 35.9297C28.5305 36.0113 28.5679 36.0962 28.602 36.1845C28.6327 36.2695 28.6667 36.3578 28.694 36.4496C28.7485 36.6365 28.786 36.8165 28.8098 36.9898C28.8235 37.0578 28.8303 37.1325 28.8371 37.2073L28.8575 37.4316H28.6736L17.2096 42.5963V42.6031ZM2.45471 34.9409L17.2164 42.1511L28.4112 37.1054C28.4112 37.1054 28.4078 37.0748 28.4044 37.0578C28.3806 36.8913 28.3465 36.7316 28.2988 36.5651C28.275 36.4836 28.2443 36.402 28.217 36.3273C28.1898 36.2525 28.1557 36.1744 28.1217 36.103C28.0842 36.0248 28.0501 35.9535 28.0092 35.8855C27.9752 35.8244 27.9445 35.77 27.9104 35.719C27.8764 35.6613 27.8525 35.6239 27.8287 35.5899C27.7469 35.4676 27.6549 35.3487 27.5527 35.2399L27.5255 35.2094C27.505 35.1856 27.4846 35.1652 27.4641 35.1448L27.4233 35.104C27.4233 35.104 27.3926 35.0701 27.3722 35.0531C27.3449 35.0259 27.3279 35.0123 27.3108 34.9953C27.2665 34.9545 27.2359 34.9273 27.2018 34.9002C26.9599 34.6895 26.6874 34.5196 26.3808 34.3803L12.389 28.0773L4.61463 31.8795C3.95712 32.1989 3.40521 32.6916 3.01683 33.3134C2.70681 33.8129 2.51263 34.3735 2.4513 34.9409H2.45471ZM47.1044 41.2473L32.9321 34.8628C32.7481 34.7778 32.5812 34.6895 32.4347 34.5944C32.3802 34.5638 32.3223 34.523 32.2643 34.4822L32.2166 34.4483C32.1144 34.3701 32.0225 34.2988 31.9407 34.2172C31.9032 34.19 31.8487 34.139 31.7976 34.0881C31.7772 34.0677 31.7567 34.0473 31.7397 34.0235C31.709 33.9963 31.6613 33.9488 31.6205 33.8978C31.5966 33.8774 31.5796 33.8536 31.5694 33.84C31.5217 33.7857 31.4637 33.7177 31.416 33.6464C31.3683 33.5818 31.3138 33.5071 31.2627 33.4255C31.1605 33.2692 31.0686 33.1027 30.997 32.9396C30.9595 32.8649 30.9186 32.7731 30.888 32.6814C30.8573 32.6032 30.8267 32.5149 30.7994 32.4231C30.7449 32.2363 30.7074 32.0562 30.6836 31.8795C30.6836 31.8693 30.6768 31.8455 30.6734 31.8217L30.6359 31.4344H30.8199L42.2906 26.2731L57.4714 33.6905L57.4611 33.8298C57.3453 35.3589 56.4459 36.6806 55.0559 37.3602L47.1112 41.2439L47.1044 41.2473ZM32.0872 33.7993C32.1247 33.8366 32.1655 33.8774 32.2098 33.908C32.2984 33.9895 32.3768 34.0541 32.4619 34.1187L32.5028 34.1492C32.5505 34.1832 32.5982 34.2172 32.6493 34.2478C32.7856 34.3361 32.9355 34.4177 33.099 34.4924L47.0942 40.7954L54.8686 36.9932C56.0882 36.3952 56.8888 35.2603 57.0353 33.9352L42.277 26.725L31.0754 31.7674L31.0822 31.8149C31.106 31.9814 31.1401 32.1445 31.1878 32.3076C31.2116 32.3892 31.2423 32.4707 31.273 32.5489C31.3002 32.627 31.3275 32.6984 31.3649 32.7663C31.4365 32.9226 31.5148 33.0653 31.6068 33.208C31.6545 33.2794 31.7022 33.3474 31.7499 33.4119C31.7942 33.4765 31.8385 33.5308 31.8896 33.5852L31.9305 33.6328C31.9679 33.6769 32.0088 33.7177 32.0497 33.7619L31.9441 33.9454L32.0872 33.8027V33.7993ZM30.6393 30.8466V20.5851L41.5718 25.9231L30.6393 30.8466ZM31.0481 21.2375V30.2146L40.611 25.9095L31.0481 21.2375Z" stroke="black" stroke-width="0.8" mask="url(#path-1-outside-1_459_37127)"/>
</svg>
