<svg width="348" height="165" viewBox="0 0 348 165" fill="none" xmlns="http://www.w3.org/2000/svg">
<g filter="url(#filter0_i_2072_68059)">
<rect x="31.3174" y="124.322" width="266" height="40" rx="16" fill="#9E00FF"/>
<rect x="32.3174" y="125.322" width="264" height="38" rx="15" stroke="#B133FF" stroke-width="2"/>
<path d="M49.2534 138.122L53.2854 149.322H52.0694L51.0774 146.522H45.6854L44.6934 149.322H43.4774L47.5094 138.122H49.2534ZM46.0854 145.434H50.6774L48.5014 139.306H48.2774L46.0854 145.434ZM59.2731 146.906H60.6651C60.2651 148.25 59.2091 149.514 57.1611 149.514C54.4251 149.514 53.4171 147.306 53.4171 145.402C53.4171 143.53 54.4251 141.322 57.1611 141.322C59.2091 141.322 60.2651 142.618 60.6651 143.946H59.2891C58.9851 143.21 58.3291 142.506 57.1611 142.506C55.3851 142.506 54.7291 144.09 54.7291 145.402C54.7291 146.778 55.3851 148.33 57.1611 148.33C58.3291 148.33 58.9691 147.642 59.2731 146.906ZM67.2656 146.906H68.6576C68.2576 148.25 67.2016 149.514 65.1536 149.514C62.4176 149.514 61.4096 147.306 61.4096 145.402C61.4096 143.53 62.4176 141.322 65.1536 141.322C67.2016 141.322 68.2576 142.618 68.6576 143.946H67.2816C66.9776 143.21 66.3216 142.506 65.1536 142.506C63.3776 142.506 62.7216 144.09 62.7216 145.402C62.7216 146.778 63.3776 148.33 65.1536 148.33C66.3216 148.33 66.9616 147.642 67.2656 146.906ZM73.1301 142.41C71.5141 142.41 70.7941 143.706 70.6661 144.858H75.6101C75.5461 143.786 74.7781 142.41 73.1301 142.41ZM70.6341 145.69C70.6821 146.858 71.2901 148.426 73.1301 148.426C74.3941 148.426 75.1141 147.738 75.4501 146.698H76.7301C76.4261 147.978 75.4181 149.514 73.1461 149.514C70.4421 149.514 69.4021 147.322 69.4021 145.402C69.4021 143.514 70.4261 141.322 73.1461 141.322C75.7701 141.322 76.9541 143.37 76.8741 145.69H70.6341ZM83.9148 146.986C83.9148 148.522 82.6188 149.514 80.7468 149.514C78.8748 149.514 77.5788 148.522 77.5628 147.002H78.7788C78.7948 148.01 79.7068 148.426 80.7468 148.426C81.6428 148.426 82.6188 148.042 82.6188 147.018C82.6188 144.762 77.7228 146.698 77.7228 143.642C77.7228 142.234 78.9708 141.322 80.7628 141.322C82.5548 141.322 83.8028 142.234 83.8028 143.642C83.8028 143.69 83.8028 143.738 83.8028 143.77H82.5868C82.5868 143.722 82.5868 143.69 82.5868 143.642C82.5868 142.778 81.6908 142.41 80.7788 142.41C79.9148 142.41 79.0188 142.762 79.0188 143.626C79.0188 145.418 83.9148 143.69 83.9148 146.986ZM90.9229 146.986C90.9229 148.522 89.6269 149.514 87.7549 149.514C85.8829 149.514 84.5869 148.522 84.5709 147.002H85.7869C85.8029 148.01 86.7149 148.426 87.7549 148.426C88.6509 148.426 89.6269 148.042 89.6269 147.018C89.6269 144.762 84.7309 146.698 84.7309 143.642C84.7309 142.234 85.9789 141.322 87.7709 141.322C89.5629 141.322 90.8109 142.234 90.8109 143.642C90.8109 143.69 90.8109 143.738 90.8109 143.77H89.5949C89.5949 143.722 89.5949 143.69 89.5949 143.642C89.5949 142.778 88.6989 142.41 87.7869 142.41C86.9229 142.41 86.0269 142.762 86.0269 143.626C86.0269 145.418 90.9229 143.69 90.9229 146.986ZM96.5776 146.922V142.698H95.4416V141.514H96.5776V138.122H97.8896V141.514H100.098V142.698H97.8896V146.906C97.8896 147.594 98.4176 148.138 99.0896 148.138C99.3936 148.138 100.002 148.138 100.098 148.138V149.322C99.6976 149.322 100.082 149.322 98.9616 149.322C97.4416 149.322 96.5776 148.17 96.5776 146.922ZM104.279 148.506C106.119 148.506 106.791 146.858 106.791 145.418C106.791 143.978 106.119 142.33 104.279 142.33C102.439 142.33 101.751 143.978 101.751 145.418C101.751 146.858 102.439 148.506 104.279 148.506ZM104.279 141.322C106.951 141.322 107.959 143.53 107.959 145.418C107.959 147.306 106.951 149.514 104.279 149.514C101.591 149.514 100.599 147.306 100.599 145.418C100.599 143.53 101.591 141.322 104.279 141.322ZM121.601 146.042H123.009C122.561 147.418 121.249 149.514 118.161 149.514C114.417 149.514 112.945 146.378 112.945 143.706C112.945 141.05 114.417 137.93 118.161 137.93C121.249 137.93 122.561 140.026 123.009 141.402H121.601C121.153 140.266 120.097 139.114 118.161 139.114C115.345 139.114 114.257 141.594 114.257 143.69C114.257 145.834 115.345 148.33 118.145 148.33C120.097 148.33 121.153 147.162 121.601 146.042ZM124.178 145.994V141.514H125.49V145.85C125.49 147.178 125.938 148.218 127.25 148.41C128.802 148.682 129.73 147.53 129.954 145.994C130.002 145.562 130.066 144.826 130.066 144.058V141.514H131.378V149.322H130.066V148.746C130.066 147.946 130.37 147.018 130.37 147.018H130.146C129.714 148.842 128.13 149.834 126.466 149.434C124.85 149.034 124.178 147.45 124.178 145.994ZM133.4 146.922V142.698H132.264V141.514H133.4V138.122H134.712V141.514H136.92V142.698H134.712V146.906C134.712 147.594 135.24 148.138 135.912 148.138C136.216 148.138 136.824 148.138 136.92 148.138V149.322C136.52 149.322 136.904 149.322 135.784 149.322C134.264 149.322 133.4 148.17 133.4 146.922ZM138.423 146.922V142.698H137.287V141.514H138.423V138.122H139.735V141.514H141.943V142.698H139.735V146.906C139.735 147.594 140.263 148.138 140.935 148.138C141.239 148.138 141.847 148.138 141.943 148.138V149.322C141.543 149.322 141.927 149.322 140.807 149.322C139.287 149.322 138.423 148.17 138.423 146.922ZM144.601 142.026V149.322H143.289V142.986C143.289 142.826 143.161 142.698 143.001 142.698H142.345V141.514H144.073C144.361 141.514 144.601 141.754 144.601 142.026ZM143.913 139.306C144.281 139.306 144.633 138.986 144.633 138.586C144.633 138.186 144.281 137.866 143.913 137.866C143.513 137.866 143.161 138.186 143.161 138.586C143.161 138.986 143.513 139.306 143.913 139.306ZM153.413 144.842V149.322H152.101V144.986C152.101 143.658 151.653 142.618 150.341 142.426C148.789 142.154 147.845 143.306 147.637 144.842C147.589 145.274 147.525 146.01 147.525 146.778V149.322H146.213V141.514H147.525V142.09C147.525 142.89 147.221 143.818 147.221 143.818H147.445C147.877 141.994 149.445 141.002 151.125 141.402C152.741 141.802 153.413 143.386 153.413 144.842ZM158.062 148.186C156.158 148.186 154.478 146.826 154.478 144.762C154.478 142.698 155.886 141.322 157.95 141.322C159.47 141.322 160.558 142.282 160.814 143.386C160.958 143.85 161.63 144.17 161.63 144.762C161.63 146.826 160.19 148.186 158.062 148.186ZM158.062 147.098C159.502 147.098 160.51 146.138 160.51 144.762C160.51 143.386 159.502 142.426 158.062 142.426C156.606 142.426 155.598 143.386 155.598 144.762C155.598 146.138 156.606 147.098 158.062 147.098ZM158.222 152.97C159.918 152.97 161.182 152.41 161.182 151.578C161.182 150.73 159.822 150.186 158.222 150.186C156.51 150.186 155.262 150.73 155.262 151.578C155.262 152.41 156.51 152.97 158.222 152.97ZM155.982 149.738C155.854 149.738 155.726 149.738 155.63 149.738C154.99 149.738 154.462 149.386 154.462 148.73C154.462 148.058 154.99 147.754 155.63 147.754H155.934V147.482L158.062 147.866V148.186H156.158C155.822 148.186 155.518 148.33 155.518 148.698C155.518 149.05 155.822 149.194 156.158 149.194C156.974 149.194 157.374 149.194 158.222 149.194C160.622 149.194 162.398 150.17 162.398 151.578C162.398 152.97 160.622 153.962 158.238 153.962C155.79 153.962 154.046 153.034 154.046 151.738C154.046 150.554 155.31 150.074 155.982 149.946V149.738ZM161.022 143.386C161.022 143.386 160.814 142.602 160.814 142.058C160.814 141.754 161.054 141.514 161.358 141.514H162.654V142.698H161.902C161.742 142.698 161.63 142.81 161.63 142.954V144.762L160.814 144.634V143.386H161.022ZM163.715 144.522H169.251V145.61H163.715V144.522ZM178.123 138.122V139.306H172.539V143.098H177.595V144.25H172.539V148.138H178.123V149.322H171.227L171.243 138.122H178.123ZM180.485 145.418C180.485 147.018 181.349 148.33 182.949 148.33C184.549 148.33 185.413 147.018 185.413 145.418C185.413 143.802 184.533 142.506 182.949 142.506C181.365 142.506 180.485 143.802 180.485 145.418ZM179.173 145.418C179.173 143.402 180.181 141.322 182.581 141.322C184.181 141.322 185.013 142.25 185.413 143.226H185.637C185.637 143.226 185.413 142.394 185.413 141.354V138.122H186.725V149.322H185.413V149.162C185.413 148.362 185.637 147.626 185.637 147.626H185.413C185.013 148.602 184.197 149.514 182.549 149.514C180.165 149.514 179.173 147.434 179.173 145.418ZM191.579 148.186C189.675 148.186 187.995 146.826 187.995 144.762C187.995 142.698 189.403 141.322 191.467 141.322C192.987 141.322 194.075 142.282 194.331 143.386C194.475 143.85 195.147 144.17 195.147 144.762C195.147 146.826 193.707 148.186 191.579 148.186ZM191.579 147.098C193.019 147.098 194.027 146.138 194.027 144.762C194.027 143.386 193.019 142.426 191.579 142.426C190.123 142.426 189.115 143.386 189.115 144.762C189.115 146.138 190.123 147.098 191.579 147.098ZM191.739 152.97C193.435 152.97 194.699 152.41 194.699 151.578C194.699 150.73 193.339 150.186 191.739 150.186C190.027 150.186 188.779 150.73 188.779 151.578C188.779 152.41 190.027 152.97 191.739 152.97ZM189.499 149.738C189.371 149.738 189.243 149.738 189.147 149.738C188.507 149.738 187.979 149.386 187.979 148.73C187.979 148.058 188.507 147.754 189.147 147.754H189.451V147.482L191.579 147.866V148.186H189.675C189.339 148.186 189.035 148.33 189.035 148.698C189.035 149.05 189.339 149.194 189.675 149.194C190.491 149.194 190.891 149.194 191.739 149.194C194.139 149.194 195.915 150.17 195.915 151.578C195.915 152.97 194.139 153.962 191.755 153.962C189.307 153.962 187.563 153.034 187.563 151.738C187.563 150.554 188.827 150.074 189.499 149.946V149.738ZM194.539 143.386C194.539 143.386 194.331 142.602 194.331 142.058C194.331 141.754 194.571 141.514 194.875 141.514H196.171V142.698H195.419C195.259 142.698 195.147 142.81 195.147 142.954V144.762L194.331 144.634V143.386H194.539ZM200.23 142.41C198.614 142.41 197.894 143.706 197.766 144.858H202.71C202.646 143.786 201.878 142.41 200.23 142.41ZM197.734 145.69C197.782 146.858 198.39 148.426 200.23 148.426C201.494 148.426 202.214 147.738 202.55 146.698H203.83C203.526 147.978 202.518 149.514 200.246 149.514C197.542 149.514 196.502 147.322 196.502 145.402C196.502 143.514 197.526 141.322 200.246 141.322C202.87 141.322 204.054 143.37 203.974 145.69H197.734ZM217.997 138.122L212.573 143.642V143.866L217.933 149.322H216.125L211.229 144.362H210.877V149.322H209.565V138.122H210.877V143.162H211.229L216.189 138.122H217.997ZM225.829 144.842V149.322H224.517V144.986C224.517 143.658 224.069 142.618 222.757 142.426C221.205 142.154 220.261 143.306 220.053 144.842C220.005 145.274 219.941 146.01 219.941 146.778V149.322H218.629V141.514H219.941V142.09C219.941 142.89 219.637 143.818 219.637 143.818H219.861C220.293 141.994 221.861 141.002 223.541 141.402C225.157 141.802 225.829 143.386 225.829 144.842ZM230.683 148.506C232.523 148.506 233.195 146.858 233.195 145.418C233.195 143.978 232.523 142.33 230.683 142.33C228.843 142.33 228.155 143.978 228.155 145.418C228.155 146.858 228.843 148.506 230.683 148.506ZM230.683 141.322C233.355 141.322 234.363 143.53 234.363 145.418C234.363 147.306 233.355 149.514 230.683 149.514C227.995 149.514 227.003 147.306 227.003 145.418C227.003 143.53 227.995 141.322 230.683 141.322ZM244.372 147.178L246.164 141.514H247.54L245.092 149.322H243.156L241.396 143.658C241.236 143.066 241.172 142.698 241.172 142.698H240.98C240.98 142.698 240.932 143.066 240.756 143.658L238.964 149.322H237.06L234.612 141.514H235.988L237.748 147.13C237.94 147.754 238.02 148.138 238.02 148.138H238.212C238.212 148.138 238.276 147.754 238.468 147.13C238.516 146.97 240.228 141.514 240.228 141.514H241.94L243.7 147.178C243.876 147.77 243.94 148.138 243.94 148.138H244.148C244.148 148.138 244.196 147.77 244.372 147.178ZM248.419 138.122H249.731V149.322H248.419V138.122ZM254.708 142.41C253.092 142.41 252.372 143.706 252.244 144.858H257.188C257.124 143.786 256.356 142.41 254.708 142.41ZM252.212 145.69C252.26 146.858 252.868 148.426 254.708 148.426C255.972 148.426 256.692 147.738 257.028 146.698H258.308C258.004 147.978 256.996 149.514 254.724 149.514C252.02 149.514 250.98 147.322 250.98 145.402C250.98 143.514 252.004 141.322 254.724 141.322C257.348 141.322 258.532 143.37 258.452 145.69H252.212ZM260.613 145.418C260.613 147.018 261.477 148.33 263.077 148.33C264.677 148.33 265.541 147.018 265.541 145.418C265.541 143.802 264.661 142.506 263.077 142.506C261.493 142.506 260.613 143.802 260.613 145.418ZM259.301 145.418C259.301 143.402 260.309 141.322 262.709 141.322C264.309 141.322 265.141 142.25 265.541 143.226H265.765C265.765 143.226 265.541 142.394 265.541 141.354V138.122H266.853V149.322H265.541V149.162C265.541 148.362 265.765 147.626 265.765 147.626H265.541C265.141 148.602 264.325 149.514 262.677 149.514C260.293 149.514 259.301 147.434 259.301 145.418ZM271.707 148.186C269.803 148.186 268.123 146.826 268.123 144.762C268.123 142.698 269.531 141.322 271.595 141.322C273.115 141.322 274.203 142.282 274.459 143.386C274.603 143.85 275.275 144.17 275.275 144.762C275.275 146.826 273.835 148.186 271.707 148.186ZM271.707 147.098C273.147 147.098 274.155 146.138 274.155 144.762C274.155 143.386 273.147 142.426 271.707 142.426C270.251 142.426 269.243 143.386 269.243 144.762C269.243 146.138 270.251 147.098 271.707 147.098ZM271.867 152.97C273.563 152.97 274.827 152.41 274.827 151.578C274.827 150.73 273.467 150.186 271.867 150.186C270.155 150.186 268.907 150.73 268.907 151.578C268.907 152.41 270.155 152.97 271.867 152.97ZM269.627 149.738C269.499 149.738 269.371 149.738 269.275 149.738C268.635 149.738 268.107 149.386 268.107 148.73C268.107 148.058 268.635 147.754 269.275 147.754H269.579V147.482L271.707 147.866V148.186H269.803C269.467 148.186 269.163 148.33 269.163 148.698C269.163 149.05 269.467 149.194 269.803 149.194C270.619 149.194 271.019 149.194 271.867 149.194C274.267 149.194 276.043 150.17 276.043 151.578C276.043 152.97 274.267 153.962 271.883 153.962C269.435 153.962 267.691 153.034 267.691 151.738C267.691 150.554 268.955 150.074 269.627 149.946V149.738ZM274.667 143.386C274.667 143.386 274.459 142.602 274.459 142.058C274.459 141.754 274.699 141.514 275.003 141.514H276.299V142.698H275.547C275.387 142.698 275.275 142.81 275.275 142.954V144.762L274.459 144.634V143.386H274.667ZM280.358 142.41C278.742 142.41 278.022 143.706 277.894 144.858H282.838C282.774 143.786 282.006 142.41 280.358 142.41ZM277.862 145.69C277.91 146.858 278.518 148.426 280.358 148.426C281.622 148.426 282.342 147.738 282.678 146.698H283.958C283.654 147.978 282.646 149.514 280.374 149.514C277.67 149.514 276.63 147.322 276.63 145.402C276.63 143.514 277.654 141.322 280.374 141.322C282.998 141.322 284.182 143.37 284.102 145.69H277.862Z" fill="white"/>
</g>
<g filter="url(#filter1_i_2072_68059)">
<rect x="230.316" y="83.4873" width="117" height="40" rx="16" fill="#9E00FF"/>
<rect x="231.316" y="84.4873" width="115" height="38" rx="15" stroke="#B133FF" stroke-width="2"/>
<path d="M248.236 102.263C249.324 102.263 250.396 101.623 250.396 100.359C250.396 99.1113 249.324 98.4713 248.236 98.4713H244.876V102.263H248.236ZM249.884 102.791C250.78 102.791 251.548 103.559 251.548 104.455C251.548 105.655 251.548 108.487 251.548 108.487H250.332C250.332 108.487 250.332 105.639 250.332 104.487C250.332 103.927 249.852 103.447 249.308 103.447H244.86V108.487H243.564V97.2873H248.364C250.636 97.2873 251.708 98.5353 251.708 100.087C251.708 101.783 250.22 102.439 249.884 102.567V102.791ZM256.41 101.575C254.794 101.575 254.074 102.871 253.946 104.023H258.89C258.826 102.951 258.058 101.575 256.41 101.575ZM253.914 104.855C253.962 106.023 254.57 107.591 256.41 107.591C257.674 107.591 258.394 106.903 258.73 105.863H260.01C259.706 107.143 258.698 108.679 256.426 108.679C253.722 108.679 252.682 106.487 252.682 104.567C252.682 102.679 253.706 100.487 256.426 100.487C259.05 100.487 260.234 102.535 260.154 104.855H253.914ZM262.314 104.583C262.314 106.183 263.178 107.495 264.778 107.495C266.378 107.495 267.242 106.183 267.242 104.583C267.242 102.967 266.362 101.671 264.778 101.671C263.194 101.671 262.314 102.967 262.314 104.583ZM261.002 104.583C261.002 102.567 262.01 100.487 264.41 100.487C266.01 100.487 266.842 101.415 267.242 102.391H267.466C267.466 102.391 267.242 101.559 267.242 100.519V97.2873H268.554V108.487H267.242V108.327C267.242 107.527 267.466 106.791 267.466 106.791H267.242C266.842 107.767 266.026 108.679 264.378 108.679C261.994 108.679 261.002 106.599 261.002 104.583ZM270.112 105.159V100.679H271.424V105.015C271.424 106.343 271.872 107.383 273.184 107.575C274.736 107.847 275.664 106.695 275.888 105.159C275.936 104.727 276 103.991 276 103.223V100.679H277.312V108.487H276V107.911C276 107.111 276.304 106.183 276.304 106.183H276.08C275.648 108.007 274.064 108.999 272.4 108.599C270.784 108.199 270.112 106.615 270.112 105.159ZM284.422 106.071H285.814C285.414 107.415 284.358 108.679 282.31 108.679C279.574 108.679 278.566 106.471 278.566 104.567C278.566 102.695 279.574 100.487 282.31 100.487C284.358 100.487 285.414 101.783 285.814 103.111H284.438C284.134 102.375 283.478 101.671 282.31 101.671C280.534 101.671 279.878 103.255 279.878 104.567C279.878 105.943 280.534 107.495 282.31 107.495C283.478 107.495 284.118 106.807 284.422 106.071ZM290.286 101.575C288.67 101.575 287.95 102.871 287.822 104.023H292.766C292.702 102.951 291.934 101.575 290.286 101.575ZM287.79 104.855C287.838 106.023 288.446 107.591 290.286 107.591C291.55 107.591 292.27 106.903 292.606 105.863H293.886C293.582 107.143 292.574 108.679 290.302 108.679C287.598 108.679 286.558 106.487 286.558 104.567C286.558 102.679 287.582 100.487 290.302 100.487C292.926 100.487 294.11 102.535 294.03 104.855H287.79ZM296.191 104.583C296.191 106.183 297.055 107.495 298.655 107.495C300.255 107.495 301.119 106.183 301.119 104.583C301.119 102.967 300.239 101.671 298.655 101.671C297.071 101.671 296.191 102.967 296.191 104.583ZM294.879 104.583C294.879 102.567 295.887 100.487 298.287 100.487C299.887 100.487 300.719 101.415 301.119 102.391H301.343C301.343 102.391 301.119 101.559 301.119 100.519V97.2873H302.431V108.487H301.119V108.327C301.119 107.527 301.343 106.791 301.343 106.791H301.119C300.719 107.767 299.903 108.679 298.255 108.679C295.871 108.679 294.879 106.599 294.879 104.583ZM313.067 102.263C314.155 102.263 315.227 101.623 315.227 100.359C315.227 99.1113 314.155 98.4713 313.067 98.4713H309.707V102.263H313.067ZM314.715 102.791C315.611 102.791 316.379 103.559 316.379 104.455C316.379 105.655 316.379 108.487 316.379 108.487H315.163C315.163 108.487 315.163 105.639 315.163 104.487C315.163 103.927 314.683 103.447 314.139 103.447H309.691V108.487H308.395V97.2873H313.195C315.467 97.2873 316.539 98.5353 316.539 100.087C316.539 101.783 315.051 102.439 314.715 102.567V102.791ZM319.684 101.191V108.487H318.372V102.151C318.372 101.991 318.244 101.863 318.084 101.863H317.428V100.679H319.156C319.444 100.679 319.684 100.919 319.684 101.191ZM318.996 98.4713C319.364 98.4713 319.716 98.1513 319.716 97.7513C319.716 97.3513 319.364 97.0313 318.996 97.0313C318.596 97.0313 318.244 97.3513 318.244 97.7513C318.244 98.1513 318.596 98.4713 318.996 98.4713ZM327.072 106.151C327.072 107.687 325.776 108.679 323.904 108.679C322.032 108.679 320.736 107.687 320.72 106.167H321.936C321.952 107.175 322.864 107.591 323.904 107.591C324.8 107.591 325.776 107.207 325.776 106.183C325.776 103.927 320.88 105.863 320.88 102.807C320.88 101.399 322.128 100.487 323.92 100.487C325.712 100.487 326.96 101.399 326.96 102.807C326.96 102.855 326.96 102.903 326.96 102.935H325.744C325.744 102.887 325.744 102.855 325.744 102.807C325.744 101.943 324.848 101.575 323.936 101.575C323.072 101.575 322.176 101.927 322.176 102.791C322.176 104.583 327.072 102.855 327.072 106.151ZM329.616 97.2873V104.359H330.016L333.488 100.679H334.992L331.104 104.823V105.031L334.736 108.487H333.104L330.016 105.559H329.616V108.487H328.304V97.2873H329.616Z" fill="white"/>
</g>
<g filter="url(#filter2_i_2072_68059)">
<rect x="8.19629" y="52.5342" width="168" height="40" rx="16" transform="rotate(11.8238 8.19629 52.5342)" fill="#9E00FF"/>
<rect x="8.97017" y="53.7179" width="166" height="38" rx="15" transform="rotate(11.8238 8.97017 53.7179)" stroke="#B133FF" stroke-width="2"/>
<path d="M24.0942 78.1838C23.7696 79.7342 22.2814 81.2208 19.3686 80.6111C16.4714 80.0045 15.7085 77.9486 16.033 76.3982L17.3172 76.667C17.1074 77.6693 17.638 79.0391 19.6268 79.4555C21.6001 79.8685 22.6002 78.9173 22.81 77.915C23.1018 76.5212 21.401 75.8219 20.1974 75.3247C18.753 74.7281 16.743 73.8659 17.2216 71.5795C17.5265 70.1231 18.9703 68.6926 21.7892 69.2827C24.608 69.8728 25.3724 71.7656 25.0675 73.222C25.0577 73.269 25.0511 73.3003 25.0413 73.3473L23.7571 73.0785C23.767 73.0315 23.7735 73.0002 23.7834 72.9532C23.9735 72.0449 23.4571 70.8415 21.5465 70.4416C19.6516 70.0449 18.6959 70.94 18.5058 71.8483C18.2271 73.1795 19.4333 73.7426 20.6279 74.2052C22.4383 74.9275 24.5728 75.8974 24.0942 78.1838ZM29.4336 75.4601C27.8519 75.129 26.8816 76.25 26.5203 77.3513L31.3594 78.3643C31.5164 77.302 31.0466 75.7978 29.4336 75.4601ZM26.3185 78.1591C26.1261 79.3121 26.3999 80.9714 28.2009 81.3485C29.4381 81.6075 30.2838 81.0816 30.8257 80.1325L32.0786 80.3948C31.5187 81.5853 30.2174 82.8822 27.9936 82.4167C25.347 81.8626 24.7782 79.504 25.1716 77.6247C25.5585 75.7768 27.0099 73.8411 29.6722 74.3985C32.2405 74.9361 32.9797 77.1833 32.4261 79.4377L26.3185 78.1591ZM39.1309 79.9749C38.7874 80.1319 37.8645 80.1675 36.0169 80.0913C35.3016 80.0724 34.4705 80.3724 34.2935 81.2181C34.1427 81.9385 34.6074 82.6079 35.2611 82.8428C35.8992 83.0745 36.3723 83.1572 37.1812 82.8852C37.9711 82.6255 38.5036 82.0341 38.7633 81.4182C38.8405 81.2055 38.9374 80.8989 38.9866 80.664L39.1309 79.9749ZM40.6323 83.6567L40.3897 84.8155L39.4188 84.6123C38.8863 84.5008 38.5891 84.0463 38.7006 83.5138C38.8383 82.8561 39.1854 82.2912 39.1854 82.2912L38.9662 82.2453C38.9662 82.2453 38.3065 83.3659 37.2423 83.7643C36.3923 84.0768 35.5105 84.072 34.5782 83.7624C33.5519 83.4331 32.7645 82.3529 33.0202 81.1314C33.3055 79.7689 34.3351 79.3796 35.2893 79.3505C36.3407 79.3254 37.2746 79.4719 38.0121 79.4628C38.6144 79.4745 39.2391 79.4581 39.2318 78.8681C39.2318 78.1652 38.6113 77.3814 37.4837 77.1454C36.1682 76.87 35.1488 77.5229 34.9488 78.4782L33.696 78.216C34.0041 76.7439 35.5455 75.628 37.7223 76.0837C39.8834 76.5361 40.8478 78.1765 40.5068 79.8052L39.802 83.1722C39.7659 83.3445 39.865 83.496 40.0529 83.5354L40.6323 83.6567ZM55.0247 83.1224L54.0706 87.6796L52.7865 87.4107L53.7143 82.9788C53.9307 81.9452 53.6525 80.7754 52.4546 80.3285C50.8817 79.7213 49.8134 80.9198 49.3162 82.1235C49.1651 82.5332 49.0124 83.1061 48.8813 83.7325L48.3076 86.4731L47.1174 86.2239L48.0452 81.792C48.2615 80.7584 48.0708 79.6396 46.8012 79.145C45.2249 78.5534 44.16 79.7363 43.6471 80.9367C43.4992 81.3308 43.3499 81.888 43.2122 82.5457L42.6385 85.2863L41.3543 85.0175L42.9542 77.3751L44.2383 77.644L44.117 78.2234C43.9531 79.0064 43.4654 79.8525 43.4654 79.8525L43.6847 79.8984C44.5628 78.2023 46.2786 77.5807 47.766 78.2844C49.2253 78.9659 49.195 80.5942 49.0562 81.0229L49.2755 81.0688C50.2163 79.3858 51.951 78.7518 53.4351 79.4712C54.8944 80.1527 55.2902 81.8539 55.0247 83.1224ZM57.9107 77.0407L59.1948 77.3095L56.8999 88.2719L55.6158 88.003L57.9107 77.0407ZM63.1875 82.5263C61.6058 82.1952 60.6355 83.3162 60.2742 84.4175L65.1133 85.4305C65.2703 84.3682 64.8005 82.864 63.1875 82.5263ZM60.0724 85.2253C59.88 86.3783 60.1538 88.0376 61.9548 88.4147C63.192 88.6737 64.0377 88.1478 64.5797 87.1987L65.8325 87.461C65.2727 88.6515 63.9713 89.9484 61.7475 89.4829C59.1009 88.9288 58.5321 86.5702 58.9255 84.6909C59.3124 82.843 60.7638 80.9073 63.4261 81.4647C65.9944 82.0023 66.7337 84.2495 66.18 86.5039L60.0724 85.2253ZM72.8057 89.215C72.4909 90.7184 71.0192 91.4238 69.1869 91.0402C67.3546 90.6567 66.2894 89.4202 66.5852 87.9291L67.7754 88.1783C67.5845 89.1682 68.3919 89.7622 69.4098 89.9753C70.2868 90.1589 71.3208 89.9831 71.5306 88.9808C71.9929 86.7726 66.8041 87.6644 67.4302 84.6732C67.7187 83.2951 69.1271 82.6581 70.8811 83.0253C72.6351 83.3925 73.6697 84.5409 73.3812 85.919C73.3714 85.966 73.3616 86.013 73.355 86.0443L72.1648 85.7951C72.1746 85.7482 72.1812 85.7168 72.191 85.6699C72.3681 84.8242 71.5665 84.2804 70.6738 84.0935C69.8282 83.9165 68.8791 84.0774 68.702 84.9231C68.3348 86.6771 73.481 85.9889 72.8057 89.215ZM79.6651 90.651C79.3504 92.1544 77.8786 92.8598 76.0463 92.4762C74.214 92.0926 73.1488 90.8561 73.4446 89.3651L74.6348 89.6143C74.4439 90.6042 75.2513 91.1982 76.2692 91.4113C77.1462 91.5949 78.1802 91.419 78.39 90.4168C78.8523 88.2086 73.6635 89.1003 74.2897 86.1092C74.5782 84.7311 75.9866 84.0941 77.7405 84.4613C79.4945 84.8285 80.5292 85.9769 80.2407 87.355C80.2308 87.402 80.221 87.449 80.2144 87.4803L79.0242 87.2311C79.0341 87.1841 79.0406 87.1528 79.0505 87.1058C79.2275 86.2602 78.4259 85.7164 77.5333 85.5295C76.6876 85.3525 75.7385 85.5134 75.5614 86.3591C75.1943 88.1131 80.3405 87.4249 79.6651 90.651ZM86.9222 83.1141L88.2063 83.3829L85.9114 94.3453L84.6273 94.0764L86.9222 83.1141ZM95.7603 91.83L94.8423 96.2149L93.5582 95.9461L94.4466 91.7021C94.7187 90.4022 94.4933 89.2925 93.2485 88.8358C91.7852 88.2515 90.6251 89.1856 90.1068 90.6464C89.9713 91.0594 89.7579 91.7667 89.6005 92.5184L89.0792 95.0084L87.7951 94.7396L89.395 87.0973L90.6791 87.3661L90.5611 87.9299C90.3972 88.7129 89.9095 89.5589 89.9095 89.5589L90.1287 89.6048C90.9253 87.908 92.6633 87.2584 94.2257 87.9941C95.7254 88.7168 96.0586 90.4048 95.7603 91.83ZM97.1119 94.238L97.9774 90.1036L96.8655 89.8709L97.1081 88.712L98.22 88.9447L98.9151 85.6247L100.199 85.8935L99.5042 89.2136L101.665 89.666L101.423 90.8249L99.2616 90.3725L98.3994 94.4912C98.2584 95.1646 98.6637 95.8052 99.3215 95.9429C99.619 96.0052 100.214 96.1298 100.308 96.1495L100.065 97.3083C99.6739 97.2264 100.05 97.3051 98.9536 97.0756C97.4658 96.7641 96.8562 95.4595 97.1119 94.238ZM105.621 91.4096C104.04 91.0785 103.069 92.1995 102.708 93.3008L107.547 94.3138C107.704 93.2515 107.234 91.7473 105.621 91.4096ZM102.506 94.1086C102.314 95.2616 102.588 96.9209 104.389 97.298C105.626 97.557 106.472 97.0311 107.014 96.082L108.266 96.3443C107.707 97.5348 106.405 98.8317 104.181 98.3662C101.535 97.8121 100.966 95.4535 101.359 93.5742C101.746 91.7263 103.198 89.7906 105.86 90.348C108.428 90.8856 109.168 93.1328 108.614 95.3872L102.506 94.1086ZM112.488 98.7483C110.624 98.3582 109.259 96.6828 109.682 94.6626C110.105 92.6424 111.765 91.5841 113.785 92.007C115.273 92.3184 116.141 93.481 116.165 94.614C116.211 95.0977 116.803 95.5486 116.682 96.128C116.259 98.1482 114.571 99.1843 112.488 98.7483ZM112.711 97.6834C114.12 97.9784 115.304 97.2454 115.586 95.8985C115.868 94.5517 115.078 93.4056 113.668 93.1105C112.243 92.8122 111.06 93.5453 110.778 94.8921C110.496 96.2389 111.286 97.385 112.711 97.6834ZM111.664 103.464C113.324 103.811 114.676 103.522 114.847 102.708C115.021 101.878 113.801 101.066 112.235 100.739C110.559 100.388 109.226 100.665 109.052 101.495C108.882 102.309 109.989 103.113 111.664 103.464ZM110.134 99.8412C110.009 99.8149 109.884 99.7887 109.79 99.769C109.163 99.6379 108.718 99.1852 108.853 98.5431C108.991 97.8854 109.57 97.696 110.196 97.8271L110.494 97.8894L110.549 97.6232L112.554 98.4351L112.488 98.7483L110.624 98.3582C110.296 98.2893 109.968 98.368 109.893 98.7282C109.821 99.0727 110.089 99.2759 110.418 99.3448C111.217 99.512 111.608 99.5939 112.438 99.7677C114.787 100.259 116.325 101.579 116.037 102.957C115.752 104.319 113.81 104.926 111.477 104.438C109.081 103.936 107.564 102.671 107.829 101.402C108.072 100.243 109.408 100.032 110.091 100.045L110.134 99.8412ZM116.369 94.6567C116.369 94.6567 116.326 93.8467 116.437 93.3142C116.5 93.0167 116.784 92.8309 117.081 92.8932L118.35 93.1588L118.107 94.3177L117.371 94.1636C117.214 94.1308 117.082 94.2175 117.052 94.3584L116.682 96.128L115.909 95.8356L116.165 94.614L116.369 94.6567ZM124.006 94.3429L123.763 95.5017C121.602 95.0493 120.44 96.5388 120.122 98.0579L119.43 101.362L118.146 101.093L119.458 94.8292C119.487 94.6883 119.425 94.5936 119.284 94.5641L118.517 94.4035L118.76 93.2446L120.31 93.5691C120.639 93.638 120.862 93.8973 120.794 94.2262C120.662 94.8526 120.184 96.0439 120.184 96.0439L120.403 96.0898C121.102 94.7812 122.339 94.0267 124.006 94.3429ZM129.359 98.8636C129.015 99.0206 128.092 99.0562 126.245 98.98C125.529 98.961 124.698 99.2611 124.521 100.107C124.371 100.827 124.835 101.497 125.489 101.732C126.127 101.963 126.6 102.046 127.409 101.774C128.199 101.514 128.731 100.923 128.991 100.307C129.068 100.094 129.165 99.7876 129.214 99.5527L129.359 98.8636ZM130.86 102.545L130.618 103.704L129.647 103.501C129.114 103.39 128.817 102.935 128.928 102.403C129.066 101.745 129.413 101.18 129.413 101.18L129.194 101.134C129.194 101.134 128.534 102.255 127.47 102.653C126.62 102.965 125.738 102.961 124.806 102.651C123.78 102.322 122.992 101.242 123.248 100.02C123.533 98.6576 124.563 98.2683 125.517 98.2392C126.569 98.2141 127.502 98.3606 128.24 98.3515C128.842 98.3632 129.467 98.3468 129.46 97.7568C129.46 97.0539 128.839 96.2701 127.712 96.0341C126.396 95.7587 125.377 96.4116 125.177 97.3669L123.924 97.1047C124.232 95.6326 125.773 94.5167 127.95 94.9724C130.111 95.4248 131.076 97.0652 130.735 98.6939L130.03 102.061C129.994 102.233 130.093 102.385 130.281 102.424L130.86 102.545ZM132.113 101.565L132.978 97.4308L131.866 97.198L132.109 96.0392L133.221 96.2719L133.916 92.9519L135.2 93.2207L134.505 96.5408L136.666 96.9932L136.423 98.1521L134.262 97.6996L133.4 101.818C133.259 102.492 133.664 103.132 134.322 103.27C134.62 103.332 135.215 103.457 135.309 103.477L135.066 104.636C134.675 104.554 135.05 104.632 133.954 104.403C132.466 104.091 131.857 102.787 132.113 101.565ZM139.162 98.0388L137.667 105.18L136.383 104.911L137.681 98.7096C137.714 98.553 137.615 98.4015 137.458 98.3687L136.816 98.2343L137.059 97.0754L138.75 97.4295C139.032 97.4885 139.218 97.7726 139.162 98.0388ZM139.046 95.2355C139.406 95.311 139.816 95.0699 139.898 94.6784C139.98 94.2868 139.701 93.9015 139.341 93.8261C138.949 93.7441 138.539 93.9852 138.457 94.3767C138.375 94.7683 138.654 95.1536 139.046 95.2355ZM142.607 105.38C144.408 105.757 145.403 104.282 145.698 102.873C145.993 101.463 145.673 99.7125 143.872 99.3355C142.071 98.9584 141.06 100.431 140.765 101.84C140.47 103.249 140.806 105.003 142.607 105.38ZM144.079 98.3489C146.694 98.8964 147.228 101.264 146.841 103.112C146.455 104.96 145.015 106.915 142.4 106.367C139.769 105.816 139.251 103.452 139.638 101.604C140.024 99.756 141.448 97.7981 144.079 98.3489ZM155.232 104.28L154.314 108.665L153.03 108.396L153.918 104.152C154.19 102.852 153.965 101.743 152.72 101.286C151.257 100.702 150.097 101.636 149.578 103.096C149.443 103.509 149.229 104.217 149.072 104.968L148.551 107.458L147.267 107.19L148.866 99.5473L150.151 99.8161L150.033 100.38C149.869 101.163 149.381 102.009 149.381 102.009L149.6 102.055C150.397 100.358 152.135 99.7084 153.697 100.444C155.197 101.167 155.53 102.855 155.232 104.28Z" fill="white"/>
</g>
<g filter="url(#filter3_i_2072_68059)">
<rect x="1.9541" y="16.0532" width="175" height="40" rx="16" transform="rotate(-5.26335 1.9541 16.0532)" fill="#9E00FF"/>
<rect x="3.04162" y="16.9573" width="173" height="38" rx="15" transform="rotate(-5.26335 3.04162 16.9573)" stroke="#B133FF" stroke-width="2"/>
<path d="M23.1809 29.145L17.8276 29.6382L18.1754 33.4142L22.6365 33.0032L22.7422 34.1504L18.2811 34.5613L18.7464 39.6119L17.4399 39.7323L16.4125 28.5795L23.0723 27.966L23.1809 29.145ZM29.5268 34.1199C29.2446 34.3708 28.3729 34.676 26.5845 35.1461C25.8952 35.3381 25.1889 35.8692 25.2682 36.7295C25.3357 37.4624 25.9766 37.9657 26.6705 37.9982C27.3485 38.0322 27.825 37.9722 28.5183 37.4745C29.1971 36.9942 29.5323 36.2724 29.5995 35.6075C29.6109 35.3815 29.6134 35.0599 29.5913 34.8209L29.5268 34.1199ZM32.0437 37.1979L32.1524 38.377L31.1645 38.468C30.6228 38.5179 30.2052 38.1707 30.1553 37.629C30.0937 36.9598 30.2595 36.3179 30.2595 36.3179L30.0364 36.3385C30.0364 36.3385 29.7352 37.6034 28.835 38.2969C28.1143 38.8454 27.2701 39.0999 26.2879 39.0779C25.2102 39.0647 24.1402 38.2635 24.0257 37.0207C23.898 35.6346 24.7678 34.96 25.6713 34.6518C26.669 34.3189 27.6046 34.1845 28.3069 33.9591C28.8861 33.7933 29.4783 33.5941 29.298 33.0323C29.0915 32.3604 28.2681 31.7935 27.1209 31.8992C25.7826 32.0225 25 32.9462 25.0895 33.918L23.8149 34.0355C23.677 32.5378 24.8224 31.0183 27.037 30.8143C29.2357 30.6118 30.6395 31.8964 30.7921 33.5534L31.1077 36.9789C31.1238 37.1541 31.2631 37.2699 31.4542 37.2523L32.0437 37.1979ZM38.7022 35.4277C38.8431 36.9572 37.6435 38.0639 35.7794 38.2356C33.9153 38.4074 32.5338 37.5384 32.3784 36.0263L33.5893 35.9148C33.6977 36.917 34.644 37.2476 35.6796 37.1522C36.5719 37.07 37.5085 36.5981 37.4146 35.5784C37.2076 33.3319 32.5099 35.7089 32.2295 32.6658C32.1004 31.2637 33.2594 30.2411 35.0439 30.0767C36.8283 29.9123 38.1547 30.706 38.2839 32.1081C38.2883 32.1558 38.2927 32.2036 38.2956 32.2355L37.0848 32.3471C37.0804 32.2993 37.0774 32.2674 37.073 32.2196C36.9938 31.3592 36.0678 31.075 35.1596 31.1586C34.2993 31.2379 33.4393 31.6706 33.5186 32.531C33.683 34.3154 38.3998 32.1456 38.7022 35.4277ZM40.3049 35.2158L39.9174 31.0096L38.7862 31.1138L38.6776 29.9348L39.8088 29.8306L39.4976 26.4529L40.8041 26.3325L41.1152 29.7102L43.3139 29.5077L43.4225 30.6867L41.2239 30.8892L41.6099 35.0795C41.673 35.7646 42.2487 36.2578 42.9178 36.1962C43.2205 36.1683 43.826 36.1125 43.9216 36.1037L44.0302 37.2827C43.6319 37.3194 44.0143 37.2842 42.899 37.387C41.3854 37.5264 40.4194 36.4585 40.3049 35.2158ZM47.6077 30.0119C45.9985 30.1602 45.4004 31.5167 45.3786 32.6756L50.3018 32.2221C50.1397 31.1605 49.2487 29.8607 47.6077 30.0119ZM45.4231 33.507C45.578 34.6657 46.3273 36.1713 48.1595 36.0025C49.4182 35.8866 50.0721 35.1354 50.3112 34.069L51.5858 33.9516C51.4005 35.2541 50.5377 36.8761 48.2753 37.0845C45.5827 37.3325 44.346 35.2452 44.1699 33.3333C43.9967 31.4532 44.8153 29.1765 47.5238 28.927C50.1367 28.6863 51.5036 30.6171 51.6368 32.9346L45.4231 33.507ZM57.0412 28.2431L57.1498 29.4221C54.9511 29.6246 54.2782 31.3898 54.4206 32.9353L54.7303 36.297L53.4238 36.4174L52.8367 30.0444C52.8235 29.901 52.7365 29.8287 52.5931 29.8419L51.8124 29.9138L51.7038 28.7348L53.2811 28.5895C53.6157 28.5586 53.9056 28.7408 53.9364 29.0754C53.9952 29.7127 53.8881 30.9919 53.8881 30.9919L54.1111 30.9714C54.3947 29.5152 55.3553 28.4305 57.0412 28.2431ZM69.164 23.7199L69.2726 24.8989L65.8471 25.2145L66.7659 35.1883L65.4595 35.3086L64.5406 25.3349L61.1152 25.6504L61.0065 24.4714L69.164 23.7199ZM71.9297 27.3857L72.599 34.6509L71.2925 34.7713L70.7113 28.462C70.6966 28.3027 70.5574 28.187 70.3981 28.2016L69.7448 28.2618L69.6362 27.0828L71.3569 26.9243C71.6437 26.8979 71.9047 27.1148 71.9297 27.3857ZM70.9951 24.7403C71.3615 24.7065 71.6827 24.3556 71.646 23.9573C71.6093 23.5589 71.2294 23.2726 70.863 23.3063C70.4647 23.343 70.1435 23.694 70.1802 24.0923C70.2169 24.4906 70.5968 24.777 70.9951 24.7403ZM86.7143 28.6749L87.1414 33.3112L85.8349 33.4316L85.4196 28.9227C85.3227 27.8711 84.713 26.8347 83.4368 26.7595C81.7548 26.6413 81.0859 28.1008 80.9643 29.3974C80.9402 29.8334 80.9627 30.4259 81.0214 31.0632L81.2782 33.8514L80.0673 33.9629L79.652 29.454C79.5551 28.4025 79.044 27.3891 77.6851 27.2893C76.0046 27.187 75.3342 28.6306 75.1967 29.9287C75.1712 30.3488 75.1921 30.9253 75.2538 31.5945L75.5106 34.3827L74.2042 34.5031L73.4879 26.728L74.7944 26.6076L74.8487 27.1971C74.9221 27.9937 74.7045 28.9457 74.7045 28.9457L74.9275 28.9252C75.2686 27.046 76.726 25.9476 78.3545 26.1833C79.9496 26.4059 80.3991 27.9712 80.3924 28.4217L80.6155 28.4012C81.0202 26.5161 82.4921 25.4004 84.122 25.6519C85.7172 25.8745 86.5954 27.3843 86.7143 28.6749ZM91.3773 25.9798C89.7682 26.128 89.1701 27.4846 89.1483 28.6435L94.0714 28.1899C93.9094 27.1283 93.0184 25.8286 91.3773 25.9798ZM89.1927 29.4749C89.3477 30.6336 90.097 32.1392 91.9292 31.9704C93.1879 31.8544 93.8417 31.1033 94.0809 30.0369L95.3555 29.9194C95.1702 31.2219 94.3074 32.8439 92.0449 33.0523C89.3523 33.3004 88.1157 31.213 87.9395 29.3011C87.7663 27.4211 88.5849 25.1444 91.2935 24.8949C93.9064 24.6542 95.2733 26.5849 95.4064 28.9025L89.1927 29.4749ZM101.183 29.6076L100.795 25.4014L99.664 25.5056L99.5554 24.3266L100.687 24.2224L100.375 20.8447L101.682 20.7243L101.993 24.102L104.192 23.8995L104.3 25.0785L102.102 25.281L102.488 29.4713C102.551 30.1564 103.127 30.6497 103.796 30.588C104.098 30.5601 104.704 30.5043 104.799 30.4955L104.908 31.6745C104.51 31.7112 104.892 31.676 103.777 31.7788C102.263 31.9182 101.297 30.8503 101.183 29.6076ZM108.997 30.4784C110.829 30.3096 111.347 28.6069 111.215 27.173C111.083 25.7391 110.263 24.1597 108.43 24.3285C106.598 24.4972 106.064 26.2014 106.196 27.6353C106.328 29.0693 107.165 30.6472 108.997 30.4784ZM108.338 23.3247C110.999 23.0796 112.205 25.1858 112.378 27.0659C112.551 28.9459 111.75 31.2371 109.089 31.4822C106.413 31.7287 105.222 29.6211 105.049 27.741C104.876 25.861 105.661 23.5713 108.338 23.3247ZM122.372 23.8153C123.456 23.7155 124.465 22.9799 124.349 21.7212C124.234 20.4785 123.108 19.9395 122.024 20.0393L118.679 20.3476L119.027 24.1236L122.372 23.8153ZM124.062 24.1899C124.954 24.1077 125.789 24.8021 125.871 25.6943C125.982 26.8892 126.241 29.7093 126.241 29.7093L125.03 29.8208C125.03 29.8208 124.769 26.9848 124.664 25.8377C124.612 25.2801 124.09 24.8461 123.548 24.896L119.119 25.304L119.582 30.3228L118.291 30.4417L117.264 19.2889L122.043 18.8486C124.306 18.6402 125.488 19.7846 125.63 21.33C125.786 23.0189 124.364 23.8086 124.041 23.9669L124.062 24.1899ZM130.448 22.3805C128.839 22.5287 128.241 23.8853 128.219 25.0442L133.142 24.5907C132.98 23.529 132.089 22.2293 130.448 22.3805ZM128.264 25.8756C128.418 27.0343 129.168 28.5399 131 28.3711C132.259 28.2552 132.913 27.504 133.152 26.4376L134.426 26.3202C134.241 27.6226 133.378 29.2446 131.116 29.4531C128.423 29.7011 127.186 27.6137 127.01 25.7018C126.837 23.8218 127.656 21.5451 130.364 21.2956C132.977 21.0549 134.344 22.9856 134.477 25.3032L128.264 25.8756ZM141.607 25.9479C141.748 27.4774 140.548 28.5841 138.684 28.7558C136.82 28.9275 135.439 28.0586 135.283 26.5465L136.494 26.4349C136.603 27.4372 137.549 27.7678 138.585 27.6724C139.477 27.5902 140.413 27.1183 140.319 26.0986C140.113 23.8521 135.415 26.2291 135.134 23.186C135.005 21.7839 136.164 20.7613 137.949 20.5969C139.733 20.4325 141.06 21.2262 141.189 22.6282C141.193 22.676 141.198 22.7238 141.201 22.7557L139.99 22.8672C139.985 22.8195 139.982 22.7876 139.978 22.7398C139.899 21.8794 138.973 21.5952 138.065 21.6788C137.204 21.7581 136.344 22.1908 136.423 23.0512C136.588 24.8356 141.305 22.6658 141.607 25.9479ZM142.57 24.863L142.159 20.4018L143.465 20.2815L143.863 24.5992C143.985 25.9216 144.527 26.9161 145.851 26.987C147.421 27.1154 148.239 25.8832 148.322 24.3331C148.33 23.8985 148.326 23.1598 148.256 22.395L148.022 19.8617L149.329 19.7414L150.045 27.5164L148.738 27.6368L148.686 27.0632C148.612 26.2666 148.83 25.3146 148.83 25.3146L148.607 25.3352C148.344 27.1911 146.858 28.3242 145.164 28.0786C143.518 27.8285 142.704 26.3128 142.57 24.863ZM150.68 16.2105L151.986 16.0902L153.014 27.243L151.707 27.3633L150.68 16.2105ZM154.802 24.6681L154.414 20.4619L153.283 20.5661L153.175 19.3871L154.306 19.2829L153.995 15.9052L155.301 15.7848L155.612 19.1625L157.811 18.96L157.92 20.139L155.721 20.3415L156.107 24.5318C156.17 25.2169 156.746 25.7101 157.415 25.6485C157.718 25.6206 158.323 25.5648 158.419 25.556L158.527 26.735C158.129 26.7717 158.511 26.7365 157.396 26.8392C155.882 26.9787 154.916 25.9108 154.802 24.6681ZM165.18 23.7762C165.321 25.3058 164.122 26.4125 162.258 26.5842C160.394 26.7559 159.012 25.887 158.857 24.3749L160.068 24.2633C160.176 25.2656 161.122 25.5962 162.158 25.5008C163.05 25.4186 163.987 24.9467 163.893 23.927C163.686 21.6805 158.988 24.0575 158.708 21.0144C158.579 19.6123 159.738 18.5897 161.522 18.4253C163.307 18.2609 164.633 19.0546 164.762 20.4566C164.766 20.5044 164.771 20.5522 164.774 20.5841L163.563 20.6956C163.559 20.6478 163.556 20.616 163.551 20.5682C163.472 19.7078 162.546 19.4236 161.638 19.5072C160.777 19.5865 159.918 20.0192 159.997 20.8795C160.161 22.664 164.878 20.4941 165.18 23.7762Z" fill="white"/>
</g>
<g filter="url(#filter4_i_2072_68059)">
<rect x="204.678" y="1.3418" width="93" height="40" rx="16" fill="#9E00FF"/>
<rect x="205.678" y="2.3418" width="91" height="38" rx="15" stroke="#B133FF" stroke-width="2"/>
<path d="M225.494 23.1898C225.494 24.7738 224.342 26.5338 221.366 26.5338C218.406 26.5338 217.238 24.6778 217.238 23.0938H218.55C218.55 24.1178 219.35 25.3498 221.382 25.3498C223.398 25.3498 224.182 24.2138 224.182 23.1898C224.182 21.7658 222.374 21.4298 221.094 21.1898C219.558 20.9018 217.414 20.4698 217.414 18.1338C217.414 16.6458 218.534 14.9498 221.414 14.9498C224.294 14.9498 225.43 16.6458 225.43 18.1338C225.43 18.1818 225.43 18.2138 225.43 18.2618H224.118C224.118 18.2138 224.118 18.1818 224.118 18.1338C224.118 17.2058 223.366 16.1338 221.414 16.1338C219.478 16.1338 218.726 17.2058 218.726 18.1338C218.726 19.4938 220.022 19.7978 221.286 20.0058C223.206 20.3418 225.494 20.8538 225.494 23.1898ZM232.29 23.9258H233.682C233.282 25.2698 232.226 26.5338 230.178 26.5338C227.442 26.5338 226.434 24.3258 226.434 22.4218C226.434 20.5498 227.442 18.3418 230.178 18.3418C232.226 18.3418 233.282 19.6378 233.682 20.9658H232.306C232.002 20.2298 231.346 19.5258 230.178 19.5258C228.402 19.5258 227.746 21.1098 227.746 22.4218C227.746 23.7978 228.402 25.3498 230.178 25.3498C231.346 25.3498 231.986 24.6618 232.29 23.9258ZM240.25 21.8618C239.946 22.0858 239.05 22.3098 237.226 22.6138C236.522 22.7418 235.77 23.2058 235.77 24.0698C235.77 24.8058 236.362 25.3658 237.05 25.4618C237.722 25.5578 238.202 25.5418 238.938 25.1098C239.658 24.6938 240.058 24.0058 240.186 23.3498C240.218 23.1258 240.25 22.8058 240.25 22.5658V21.8618ZM242.474 25.1578V26.3418H241.482C240.938 26.3418 240.554 25.9578 240.554 25.4138C240.554 24.7418 240.778 24.1178 240.778 24.1178H240.554C240.554 24.1178 240.138 25.3498 239.178 25.9578C238.41 26.4378 237.546 26.6138 236.57 26.5018C235.498 26.3898 234.506 25.4938 234.506 24.2458C234.506 22.8538 235.434 22.2618 236.362 22.0378C237.386 21.7978 238.33 21.7498 239.05 21.5898C239.642 21.4778 240.25 21.3338 240.122 20.7578C239.978 20.0698 239.21 19.4298 238.058 19.4298C236.714 19.4298 235.85 20.2778 235.85 21.2538H234.57C234.57 19.7498 235.85 18.3418 238.074 18.3418C240.282 18.3418 241.562 19.7498 241.562 21.4138V24.8538C241.562 25.0298 241.69 25.1578 241.882 25.1578H242.474ZM243.46 15.1418H244.772V26.3418H243.46V15.1418ZM251.845 21.8618C251.541 22.0858 250.645 22.3098 248.821 22.6138C248.117 22.7418 247.365 23.2058 247.365 24.0698C247.365 24.8058 247.957 25.3658 248.645 25.4618C249.317 25.5578 249.797 25.5418 250.533 25.1098C251.253 24.6938 251.653 24.0058 251.781 23.3498C251.813 23.1258 251.845 22.8058 251.845 22.5658V21.8618ZM254.069 25.1578V26.3418H253.077C252.533 26.3418 252.149 25.9578 252.149 25.4138C252.149 24.7418 252.373 24.1178 252.373 24.1178H252.149C252.149 24.1178 251.733 25.3498 250.773 25.9578C250.005 26.4378 249.141 26.6138 248.165 26.5018C247.093 26.3898 246.101 25.4938 246.101 24.2458C246.101 22.8538 247.029 22.2618 247.957 22.0378C248.981 21.7978 249.925 21.7498 250.645 21.5898C251.237 21.4778 251.845 21.3338 251.717 20.7578C251.573 20.0698 250.805 19.4298 249.653 19.4298C248.309 19.4298 247.445 20.2778 247.445 21.2538H246.165C246.165 19.7498 247.445 18.3418 249.669 18.3418C251.877 18.3418 253.157 19.7498 253.157 21.4138V24.8538C253.157 25.0298 253.285 25.1578 253.477 25.1578H254.069ZM258.83 25.3498C260.43 25.3498 261.31 24.0538 261.31 22.4378C261.31 20.8218 260.414 19.5258 258.83 19.5258C257.246 19.5258 256.334 20.8218 256.334 22.4378C256.334 24.0538 257.23 25.3498 258.83 25.3498ZM259.182 18.3418C261.566 18.3418 262.622 20.4218 262.622 22.4378C262.622 24.4538 261.598 26.5338 259.214 26.5338C257.566 26.5338 256.734 25.6218 256.318 24.6458H256.11C256.11 24.6458 256.334 25.3818 256.334 26.1818V26.3418H255.022V15.1418H256.334V18.3738C256.334 19.4138 256.11 20.2458 256.11 20.2458H256.318C256.734 19.2698 257.582 18.3418 259.182 18.3418ZM265.396 19.0458V26.3418H264.084V20.0058C264.084 19.8458 263.956 19.7178 263.796 19.7178H263.14V18.5338H264.868C265.156 18.5338 265.396 18.7738 265.396 19.0458ZM264.708 16.3258C265.076 16.3258 265.428 16.0058 265.428 15.6058C265.428 15.2058 265.076 14.8858 264.708 14.8858C264.308 14.8858 263.956 15.2058 263.956 15.6058C263.956 16.0058 264.308 16.3258 264.708 16.3258ZM267.195 15.1418H268.507V26.3418H267.195V15.1418ZM271.928 19.0458V26.3418H270.616V20.0058C270.616 19.8458 270.488 19.7178 270.328 19.7178H269.672V18.5338H271.4C271.688 18.5338 271.928 18.7738 271.928 19.0458ZM271.24 16.3258C271.608 16.3258 271.96 16.0058 271.96 15.6058C271.96 15.2058 271.608 14.8858 271.24 14.8858C270.84 14.8858 270.488 15.2058 270.488 15.6058C270.488 16.0058 270.84 16.3258 271.24 16.3258ZM273.892 23.9418V19.7178H272.756V18.5338H273.892V15.1418H275.204V18.5338H277.412V19.7178H275.204V23.9258C275.204 24.6138 275.732 25.1578 276.404 25.1578C276.708 25.1578 277.316 25.1578 277.412 25.1578V26.3418C277.012 26.3418 277.396 26.3418 276.276 26.3418C274.756 26.3418 273.892 25.1898 273.892 23.9418ZM281.91 24.0058L284.006 18.5338H285.286L281.366 28.9978C281.062 29.8138 280.262 30.7898 278.726 30.7898C277.99 30.7898 277.862 30.7898 277.75 30.7898V29.6698C277.894 29.6698 278.71 29.6698 278.79 29.6698C279.606 29.6698 280.022 29.0938 280.198 28.6458L281.062 26.3418H280.534L277.606 18.5338H278.886L280.982 24.0058C281.286 24.7578 281.35 25.1578 281.35 25.1578H281.542C281.542 25.1578 281.606 24.7578 281.91 24.0058Z" fill="white"/>
</g>
<g filter="url(#filter5_i_2072_68059)">
<rect x="143.316" y="42.4863" width="152" height="40" rx="16" fill="#9E00FF"/>
<rect x="144.316" y="43.4863" width="150" height="38" rx="15" stroke="#B133FF" stroke-width="2"/>
<path d="M164.628 64.2063H166.036C165.588 65.5823 164.276 67.6783 161.188 67.6783C157.444 67.6783 155.972 64.5423 155.972 61.8703C155.972 59.2143 157.444 56.0943 161.188 56.0943C164.276 56.0943 165.588 58.1903 166.036 59.5663H164.628C164.18 58.4303 163.124 57.2783 161.188 57.2783C158.372 57.2783 157.284 59.7583 157.284 61.8543C157.284 63.9983 158.372 66.4943 161.172 66.4943C163.124 66.4943 164.18 65.3263 164.628 64.2063ZM170.549 66.6703C172.389 66.6703 173.061 65.0223 173.061 63.5823C173.061 62.1423 172.389 60.4943 170.549 60.4943C168.709 60.4943 168.021 62.1423 168.021 63.5823C168.021 65.0223 168.709 66.6703 170.549 66.6703ZM170.549 59.4863C173.221 59.4863 174.229 61.6943 174.229 63.5823C174.229 65.4703 173.221 67.6783 170.549 67.6783C167.861 67.6783 166.869 65.4703 166.869 63.5823C166.869 61.6943 167.861 59.4863 170.549 59.4863ZM181.257 65.1503C181.257 66.6863 179.961 67.6783 178.089 67.6783C176.217 67.6783 174.921 66.6863 174.905 65.1663H176.121C176.137 66.1743 177.049 66.5903 178.089 66.5903C178.985 66.5903 179.961 66.2063 179.961 65.1823C179.961 62.9263 175.065 64.8623 175.065 61.8063C175.065 60.3983 176.313 59.4863 178.105 59.4863C179.897 59.4863 181.145 60.3983 181.145 61.8063C181.145 61.8543 181.145 61.9023 181.145 61.9343H179.929C179.929 61.8863 179.929 61.8543 179.929 61.8063C179.929 60.9423 179.033 60.5743 178.121 60.5743C177.257 60.5743 176.361 60.9263 176.361 61.7903C176.361 63.5823 181.257 61.8543 181.257 65.1503ZM182.872 65.0863V60.8623H181.736V59.6783H182.872V56.2863H184.184V59.6783H186.392V60.8623H184.184V65.0703C184.184 65.7583 184.712 66.3023 185.384 66.3023C185.688 66.3023 186.296 66.3023 186.392 66.3023V67.4863C185.992 67.4863 186.376 67.4863 185.256 67.4863C183.736 67.4863 182.872 66.3343 182.872 65.0863ZM187.452 62.6863H192.988V63.7743H187.452V62.6863ZM201.86 56.2863V57.4703H196.276V61.2623H201.332V62.4143H196.276V66.3023H201.86V67.4863H194.964L194.98 56.2863H201.86ZM203.553 59.0863C203.553 57.7903 204.241 56.2863 206.097 56.2863H207.073V57.4703H206.065C205.217 57.4703 204.865 58.2223 204.865 58.8783V59.6783H207.057V60.8623H204.865V67.4863H203.553V60.8623H202.417V59.6783H203.553V59.0863ZM208.514 59.0863C208.514 57.7903 209.202 56.2863 211.058 56.2863H212.034V57.4703H211.026C210.178 57.4703 209.826 58.2223 209.826 58.8783V59.6783H212.018V60.8623H209.826V67.4863H208.514V60.8623H207.378V59.6783H208.514V59.0863ZM215.935 60.5743C214.319 60.5743 213.599 61.8703 213.471 63.0223H218.415C218.351 61.9503 217.583 60.5743 215.935 60.5743ZM213.439 63.8543C213.487 65.0223 214.095 66.5903 215.935 66.5903C217.199 66.5903 217.919 65.9023 218.255 64.8623H219.535C219.231 66.1423 218.223 67.6783 215.951 67.6783C213.247 67.6783 212.207 65.4863 212.207 63.5663C212.207 61.6783 213.231 59.4863 215.951 59.4863C218.575 59.4863 219.759 61.5343 219.679 63.8543H213.439ZM226.384 65.0703H227.776C227.376 66.4143 226.32 67.6783 224.272 67.6783C221.536 67.6783 220.528 65.4703 220.528 63.5663C220.528 61.6943 221.536 59.4863 224.272 59.4863C226.32 59.4863 227.376 60.7823 227.776 62.1103H226.4C226.096 61.3743 225.44 60.6703 224.272 60.6703C222.496 60.6703 221.84 62.2543 221.84 63.5663C221.84 64.9423 222.496 66.4943 224.272 66.4943C225.44 66.4943 226.08 65.8063 226.384 65.0703ZM229.132 65.0863V60.8623H227.996V59.6783H229.132V56.2863H230.444V59.6783H232.652V60.8623H230.444V65.0703C230.444 65.7583 230.972 66.3023 231.644 66.3023C231.948 66.3023 232.556 66.3023 232.652 66.3023V67.4863C232.252 67.4863 232.636 67.4863 231.516 67.4863C229.996 67.4863 229.132 66.3343 229.132 65.0863ZM235.31 60.1903V67.4863H233.998V61.1503C233.998 60.9903 233.87 60.8623 233.71 60.8623H233.054V59.6783H234.782C235.07 59.6783 235.31 59.9183 235.31 60.1903ZM234.622 57.4703C234.99 57.4703 235.342 57.1503 235.342 56.7503C235.342 56.3503 234.99 56.0303 234.622 56.0303C234.222 56.0303 233.87 56.3503 233.87 56.7503C233.87 57.1503 234.222 57.4703 234.622 57.4703ZM240.234 65.2303L242.33 59.6783H243.642L240.778 67.4863H238.922L236.058 59.6783H237.37L239.466 65.2303C239.674 65.7903 239.754 66.3023 239.754 66.3023H239.962C239.962 66.3023 240.026 65.7903 240.234 65.2303ZM247.523 60.5743C245.907 60.5743 245.187 61.8703 245.059 63.0223H250.003C249.939 61.9503 249.171 60.5743 247.523 60.5743ZM245.027 63.8543C245.075 65.0223 245.683 66.5903 247.523 66.5903C248.787 66.5903 249.507 65.9023 249.843 64.8623H251.123C250.819 66.1423 249.811 67.6783 247.539 67.6783C244.835 67.6783 243.795 65.4863 243.795 63.5663C243.795 61.6783 244.819 59.4863 247.539 59.4863C250.163 59.4863 251.347 61.5343 251.267 63.8543H245.027ZM259.732 63.0063V67.4863H258.42V63.1503C258.42 61.8223 257.972 60.7823 256.66 60.5903C255.108 60.3183 254.164 61.4703 253.956 63.0063C253.908 63.4383 253.844 64.1743 253.844 64.9423V67.4863H252.532V59.6783H253.844V60.2543C253.844 61.0543 253.54 61.9823 253.54 61.9823H253.764C254.196 60.1583 255.764 59.1663 257.444 59.5663C259.06 59.9663 259.732 61.5503 259.732 63.0063ZM264.633 60.5743C263.017 60.5743 262.297 61.8703 262.169 63.0223H267.113C267.049 61.9503 266.281 60.5743 264.633 60.5743ZM262.137 63.8543C262.185 65.0223 262.793 66.5903 264.633 66.5903C265.897 66.5903 266.617 65.9023 266.953 64.8623H268.233C267.929 66.1423 266.921 67.6783 264.649 67.6783C261.945 67.6783 260.905 65.4863 260.905 63.5663C260.905 61.6783 261.929 59.4863 264.649 59.4863C267.273 59.4863 268.457 61.5343 268.377 63.8543H262.137ZM275.418 65.1503C275.418 66.6863 274.122 67.6783 272.25 67.6783C270.378 67.6783 269.082 66.6863 269.066 65.1663H270.282C270.298 66.1743 271.21 66.5903 272.25 66.5903C273.146 66.5903 274.122 66.2063 274.122 65.1823C274.122 62.9263 269.226 64.8623 269.226 61.8063C269.226 60.3983 270.474 59.4863 272.266 59.4863C274.058 59.4863 275.306 60.3983 275.306 61.8063C275.306 61.8543 275.306 61.9023 275.306 61.9343H274.09C274.09 61.8863 274.09 61.8543 274.09 61.8063C274.09 60.9423 273.194 60.5743 272.282 60.5743C271.418 60.5743 270.522 60.9263 270.522 61.7903C270.522 63.5823 275.418 61.8543 275.418 65.1503ZM282.426 65.1503C282.426 66.6863 281.13 67.6783 279.258 67.6783C277.386 67.6783 276.09 66.6863 276.074 65.1663H277.29C277.306 66.1743 278.218 66.5903 279.258 66.5903C280.154 66.5903 281.13 66.2063 281.13 65.1823C281.13 62.9263 276.234 64.8623 276.234 61.8063C276.234 60.3983 277.482 59.4863 279.274 59.4863C281.066 59.4863 282.314 60.3983 282.314 61.8063C282.314 61.8543 282.314 61.9023 282.314 61.9343H281.098C281.098 61.8863 281.098 61.8543 281.098 61.8063C281.098 60.9423 280.202 60.5743 279.29 60.5743C278.426 60.5743 277.53 60.9263 277.53 61.7903C277.53 63.5823 282.426 61.8543 282.426 65.1503Z" fill="white"/>
</g>
<defs>
<filter id="filter0_i_2072_68059" x="31.3174" y="124.322" width="266" height="40" filterUnits="userSpaceOnUse" color-interpolation-filters="sRGB">
<feFlood flood-opacity="0" result="BackgroundImageFix"/>
<feBlend mode="normal" in="SourceGraphic" in2="BackgroundImageFix" result="shape"/>
<feColorMatrix in="SourceAlpha" type="matrix" values="0 0 0 0 0 0 0 0 0 0 0 0 0 0 0 0 0 0 127 0" result="hardAlpha"/>
<feOffset/>
<feGaussianBlur stdDeviation="7.9"/>
<feComposite in2="hardAlpha" operator="arithmetic" k2="-1" k3="1"/>
<feColorMatrix type="matrix" values="0 0 0 0 1 0 0 0 0 1 0 0 0 0 1 0 0 0 0.5 0"/>
<feBlend mode="normal" in2="shape" result="effect1_innerShadow_2072_68059"/>
</filter>
<filter id="filter1_i_2072_68059" x="230.316" y="83.4873" width="117" height="40" filterUnits="userSpaceOnUse" color-interpolation-filters="sRGB">
<feFlood flood-opacity="0" result="BackgroundImageFix"/>
<feBlend mode="normal" in="SourceGraphic" in2="BackgroundImageFix" result="shape"/>
<feColorMatrix in="SourceAlpha" type="matrix" values="0 0 0 0 0 0 0 0 0 0 0 0 0 0 0 0 0 0 127 0" result="hardAlpha"/>
<feOffset/>
<feGaussianBlur stdDeviation="7.9"/>
<feComposite in2="hardAlpha" operator="arithmetic" k2="-1" k3="1"/>
<feColorMatrix type="matrix" values="0 0 0 0 1 0 0 0 0 1 0 0 0 0 1 0 0 0 0.5 0"/>
<feBlend mode="normal" in2="shape" result="effect1_innerShadow_2072_68059"/>
</filter>
<filter id="filter2_i_2072_68059" x="0" y="52.5342" width="172.632" height="73.5747" filterUnits="userSpaceOnUse" color-interpolation-filters="sRGB">
<feFlood flood-opacity="0" result="BackgroundImageFix"/>
<feBlend mode="normal" in="SourceGraphic" in2="BackgroundImageFix" result="shape"/>
<feColorMatrix in="SourceAlpha" type="matrix" values="0 0 0 0 0 0 0 0 0 0 0 0 0 0 0 0 0 0 127 0" result="hardAlpha"/>
<feOffset/>
<feGaussianBlur stdDeviation="7.9"/>
<feComposite in2="hardAlpha" operator="arithmetic" k2="-1" k3="1"/>
<feColorMatrix type="matrix" values="0 0 0 0 1 0 0 0 0 1 0 0 0 0 1 0 0 0 0.5 0"/>
<feBlend mode="normal" in2="shape" result="effect1_innerShadow_2072_68059"/>
</filter>
<filter id="filter3_i_2072_68059" x="1.9541" y="0" width="177.932" height="55.8848" filterUnits="userSpaceOnUse" color-interpolation-filters="sRGB">
<feFlood flood-opacity="0" result="BackgroundImageFix"/>
<feBlend mode="normal" in="SourceGraphic" in2="BackgroundImageFix" result="shape"/>
<feColorMatrix in="SourceAlpha" type="matrix" values="0 0 0 0 0 0 0 0 0 0 0 0 0 0 0 0 0 0 127 0" result="hardAlpha"/>
<feOffset/>
<feGaussianBlur stdDeviation="7.9"/>
<feComposite in2="hardAlpha" operator="arithmetic" k2="-1" k3="1"/>
<feColorMatrix type="matrix" values="0 0 0 0 1 0 0 0 0 1 0 0 0 0 1 0 0 0 0.5 0"/>
<feBlend mode="normal" in2="shape" result="effect1_innerShadow_2072_68059"/>
</filter>
<filter id="filter4_i_2072_68059" x="204.678" y="1.3418" width="93" height="40" filterUnits="userSpaceOnUse" color-interpolation-filters="sRGB">
<feFlood flood-opacity="0" result="BackgroundImageFix"/>
<feBlend mode="normal" in="SourceGraphic" in2="BackgroundImageFix" result="shape"/>
<feColorMatrix in="SourceAlpha" type="matrix" values="0 0 0 0 0 0 0 0 0 0 0 0 0 0 0 0 0 0 127 0" result="hardAlpha"/>
<feOffset/>
<feGaussianBlur stdDeviation="7.9"/>
<feComposite in2="hardAlpha" operator="arithmetic" k2="-1" k3="1"/>
<feColorMatrix type="matrix" values="0 0 0 0 1 0 0 0 0 1 0 0 0 0 1 0 0 0 0.5 0"/>
<feBlend mode="normal" in2="shape" result="effect1_innerShadow_2072_68059"/>
</filter>
<filter id="filter5_i_2072_68059" x="143.316" y="42.4863" width="152" height="40" filterUnits="userSpaceOnUse" color-interpolation-filters="sRGB">
<feFlood flood-opacity="0" result="BackgroundImageFix"/>
<feBlend mode="normal" in="SourceGraphic" in2="BackgroundImageFix" result="shape"/>
<feColorMatrix in="SourceAlpha" type="matrix" values="0 0 0 0 0 0 0 0 0 0 0 0 0 0 0 0 0 0 127 0" result="hardAlpha"/>
<feOffset/>
<feGaussianBlur stdDeviation="7.9"/>
<feComposite in2="hardAlpha" operator="arithmetic" k2="-1" k3="1"/>
<feColorMatrix type="matrix" values="0 0 0 0 1 0 0 0 0 1 0 0 0 0 1 0 0 0 0.5 0"/>
<feBlend mode="normal" in2="shape" result="effect1_innerShadow_2072_68059"/>
</filter>
</defs>
</svg>
