<?xml version="1.0" standalone="no"?>
<!DOCTYPE svg PUBLIC "-//W3C//DTD SVG 20010904//EN"
 "http://www.w3.org/TR/2001/REC-SVG-20010904/DTD/svg10.dtd">
<svg version="1.0" xmlns="http://www.w3.org/2000/svg"
 width="343.000000pt" height="269.000000pt" viewBox="0 0 343.000000 269.000000"
 preserveAspectRatio="xMidYMid meet">

<g transform="translate(0.000000,269.000000) scale(0.100000,-0.100000)"
fill="#000000" stroke="none">
<path d="M390 2657 c-11 -23 -23 -33 -42 -35 -37 -4 -35 -16 5 -27 24 -8 34
-18 42 -42 5 -18 12 -33 15 -33 3 0 10 15 15 33 8 24 18 34 43 42 40 12 41 21
1 29 -22 4 -34 14 -42 36 -6 16 -14 30 -17 30 -3 0 -12 -15 -20 -33z"/>
<path d="M790 2676 c0 -22 -49 -56 -81 -56 -43 0 -35 -16 10 -24 47 -7 81 -45
81 -87 0 -43 16 -35 24 10 7 47 45 81 87 81 16 0 29 5 29 10 0 6 -14 10 -31
10 -23 0 -41 9 -65 35 -35 37 -54 44 -54 21z"/>
<path d="M1230 2676 c0 -22 -49 -56 -81 -56 -43 0 -35 -16 10 -24 47 -7 81
-45 81 -87 0 -43 16 -35 24 10 7 47 45 81 87 81 16 0 29 5 29 10 0 6 -14 10
-31 10 -23 0 -41 9 -65 35 -35 37 -54 44 -54 21z"/>
<path d="M1704 2669 c-27 -30 -68 -49 -104 -49 -16 0 -30 -4 -30 -10 0 -5 15
-10 33 -10 67 0 137 -70 137 -137 0 -18 5 -33 10 -33 6 0 10 14 10 30 0 74 66
140 140 140 17 0 30 5 30 10 0 6 -14 10 -30 10 -36 0 -77 19 -104 49 -11 12
-31 21 -46 21 -15 0 -35 -9 -46 -21z"/>
<path d="M2124 2669 c-25 -29 -75 -49 -119 -49 -19 0 -35 -4 -35 -10 0 -5 14
-10 30 -10 36 0 96 -23 124 -48 51 -46 74 -187 42 -263 -28 -65 -92 -109 -162
-109 -19 0 -34 -4 -34 -10 0 -5 14 -10 30 -10 36 0 96 -23 124 -48 26 -24 56
-91 56 -129 0 -18 5 -33 10 -33 6 0 10 17 10 38 0 59 38 122 90 149 81 43 230
25 282 -33 25 -28 48 -88 48 -124 0 -16 5 -30 10 -30 6 0 10 17 10 38 0 59 38
122 90 149 76 40 214 28 274 -25 26 -24 56 -91 56 -129 0 -18 5 -33 10 -33 6
0 10 17 10 38 0 90 82 172 172 172 21 0 38 5 38 10 0 6 -16 10 -35 10 -65 0
-141 53 -164 113 -6 16 -11 61 -11 101 0 57 5 82 23 116 27 52 90 90 149 90
21 0 38 5 38 10 0 6 -16 10 -35 10 -38 0 -103 28 -124 54 -21 25 -103 21 -127
-5 -30 -34 -77 -49 -154 -49 -72 0 -131 20 -159 54 -21 25 -103 21 -127 -5
-30 -34 -77 -49 -154 -49 -72 0 -131 20 -159 54 -21 25 -103 21 -127 -5z m383
-84 c50 -21 72 -42 94 -90 23 -49 25 -158 5 -206 -17 -41 -61 -84 -99 -98 -48
-18 -163 -14 -205 8 -78 40 -102 86 -102 195 0 139 65 206 202 206 39 0 84 -7
105 -15z m440 0 c50 -21 72 -42 94 -90 23 -49 25 -158 5 -206 -17 -41 -61 -84
-99 -98 -48 -18 -163 -14 -205 8 -78 40 -102 86 -102 195 0 139 65 206 202
206 39 0 84 -7 105 -15z"/>
<path d="M27 2629 c-16 -18 -16 -20 3 -39 l20 -20 20 20 20 20 -20 20 c-23 23
-20 23 -43 -1z"/>
<path d="M3410 2630 c-8 -5 -30 -10 -47 -10 -18 0 -33 -4 -33 -10 0 -5 14 -10
31 -10 17 0 39 -5 50 -10 17 -10 19 -7 19 20 0 34 0 33 -20 20z"/>
<path d="M1740 2318 c0 -42 -31 -93 -72 -118 -18 -11 -48 -20 -65 -20 -18 0
-33 -4 -33 -10 0 -5 15 -10 33 -10 41 0 92 -31 117 -72 11 -18 20 -48 20 -65
0 -18 5 -33 10 -33 6 0 10 13 10 30 0 74 66 140 140 140 16 0 30 5 30 10 0 6
-15 10 -32 10 -18 0 -48 9 -66 20 -41 25 -72 76 -72 118 0 17 -4 32 -10 32 -5
0 -10 -15 -10 -32z"/>
<path d="M796 2261 c-7 -47 -45 -81 -87 -81 -43 0 -35 -16 10 -24 47 -7 81
-45 81 -87 0 -43 16 -35 24 10 7 47 45 81 87 81 16 0 29 5 29 10 0 6 -14 10
-31 10 -20 0 -40 10 -60 29 -19 20 -29 40 -29 60 0 44 -16 38 -24 -8z"/>
<path d="M1236 2261 c-7 -47 -45 -81 -87 -81 -43 0 -35 -16 10 -24 47 -7 81
-45 81 -87 0 -43 16 -35 24 10 7 47 45 81 87 81 16 0 29 5 29 10 0 6 -14 10
-31 10 -20 0 -40 10 -60 29 -19 20 -29 40 -29 60 0 44 -16 38 -24 -8z"/>
<path d="M400 2242 c0 -29 -29 -62 -56 -62 -34 0 -30 -14 9 -25 24 -8 34 -18
42 -42 5 -18 12 -33 15 -33 3 0 10 15 15 33 8 24 18 34 43 42 17 5 32 12 32
15 0 3 -15 10 -32 15 -25 8 -35 18 -43 43 -10 34 -25 43 -25 14z"/>
<path d="M27 2189 c-16 -18 -16 -20 3 -39 l20 -20 20 20 20 20 -20 20 c-23 23
-20 23 -43 -1z"/>
<path d="M3410 2190 c-8 -5 -30 -10 -47 -10 -18 0 -33 -4 -33 -10 0 -5 14 -10
31 -10 17 0 39 -5 50 -10 17 -10 19 -7 19 20 0 34 0 33 -20 20z"/>
<path d="M1740 1878 c0 -18 -9 -48 -20 -66 -25 -41 -76 -72 -117 -72 -18 0
-33 -4 -33 -10 0 -5 15 -10 33 -10 41 0 92 -31 117 -72 11 -18 20 -48 20 -65
0 -18 5 -33 10 -33 6 0 10 13 10 30 0 74 66 140 140 140 16 0 30 5 30 10 0 6
-15 10 -32 10 -18 0 -48 9 -66 20 -41 25 -72 76 -72 118 0 17 -4 32 -10 32 -5
0 -10 -15 -10 -32z"/>
<path d="M2180 1878 c0 -42 -31 -93 -72 -118 -18 -11 -48 -20 -65 -20 -18 0
-33 -4 -33 -10 0 -5 15 -10 33 -10 41 0 92 -31 117 -72 11 -18 20 -48 20 -65
0 -18 5 -33 10 -33 6 0 10 13 10 30 0 74 66 140 140 140 16 0 30 5 30 10 0 6
-15 10 -32 10 -42 0 -93 31 -118 72 -11 18 -20 48 -20 66 0 17 -4 32 -10 32
-5 0 -10 -15 -10 -32z"/>
<path d="M2620 1878 c0 -68 -70 -138 -137 -138 -18 0 -33 -4 -33 -10 0 -5 15
-10 33 -10 67 0 137 -70 137 -137 0 -18 5 -33 10 -33 6 0 10 13 10 30 0 74 66
140 140 140 16 0 30 5 30 10 0 6 -15 10 -32 10 -68 0 -138 70 -138 138 0 17
-4 32 -10 32 -5 0 -10 -15 -10 -32z"/>
<path d="M3060 1878 c0 -68 -70 -138 -137 -138 -18 0 -33 -4 -33 -10 0 -5 15
-10 33 -10 67 0 137 -70 137 -137 0 -18 5 -33 10 -33 6 0 10 13 10 30 0 74 66
140 140 140 16 0 30 5 30 10 0 6 -15 10 -32 10 -68 0 -138 70 -138 138 0 17
-4 32 -10 32 -5 0 -10 -15 -10 -32z"/>
<path d="M796 1821 c-7 -47 -45 -81 -87 -81 -43 0 -35 -16 10 -24 47 -7 81
-45 81 -87 0 -43 16 -35 24 10 7 47 45 81 87 81 16 0 29 5 29 10 0 6 -14 10
-31 10 -20 0 -40 10 -60 29 -19 20 -29 40 -29 60 0 44 -16 38 -24 -8z"/>
<path d="M1236 1821 c-7 -47 -45 -81 -87 -81 -43 0 -35 -16 10 -24 47 -7 81
-45 81 -87 0 -43 16 -35 24 10 7 47 45 81 87 81 16 0 29 5 29 10 0 6 -14 10
-31 10 -20 0 -40 10 -60 29 -19 20 -29 40 -29 60 0 44 -16 38 -24 -8z"/>
<path d="M400 1802 c0 -29 -29 -62 -56 -62 -34 0 -30 -14 9 -25 24 -8 34 -18
42 -42 5 -18 12 -33 15 -33 3 0 10 15 15 33 8 24 18 34 43 42 17 5 32 12 32
15 0 3 -15 10 -32 15 -25 8 -35 18 -43 43 -10 34 -25 43 -25 14z"/>
<path d="M27 1749 c-16 -18 -16 -20 3 -39 l20 -20 20 20 20 20 -20 20 c-23 23
-20 23 -43 -1z"/>
<path d="M3410 1750 c-8 -5 -30 -10 -47 -10 -18 0 -33 -4 -33 -10 0 -5 14 -10
31 -10 17 0 39 -5 50 -10 17 -10 19 -7 19 20 0 34 0 33 -20 20z"/>
<path d="M796 1341 c-7 -47 -45 -81 -87 -81 -43 0 -35 -16 10 -24 47 -7 81
-45 81 -87 0 -16 5 -29 10 -29 6 0 10 14 10 31 0 42 47 89 89 89 44 0 38 16
-8 24 -47 7 -81 45 -81 87 0 43 -16 35 -24 -10z"/>
<path d="M1236 1341 c-7 -47 -45 -81 -87 -81 -43 0 -35 -16 10 -24 47 -7 81
-45 81 -87 0 -16 5 -29 10 -29 6 0 10 14 10 31 0 42 47 89 89 89 44 0 38 16
-8 24 -47 7 -81 45 -81 87 0 43 -16 35 -24 -10z"/>
<path d="M1736 1341 c-7 -47 -45 -81 -87 -81 -43 0 -35 -16 10 -24 47 -7 81
-45 81 -87 0 -16 5 -29 10 -29 6 0 10 14 10 31 0 42 47 89 89 89 44 0 38 16
-8 24 -47 7 -81 45 -81 87 0 43 -16 35 -24 -10z"/>
<path d="M2176 1341 c-7 -47 -45 -81 -87 -81 -43 0 -35 -16 10 -24 47 -7 81
-45 81 -87 0 -16 5 -29 10 -29 6 0 10 14 10 31 0 42 47 89 89 89 44 0 38 16
-8 24 -47 7 -81 45 -81 87 0 43 -16 35 -24 -10z"/>
<path d="M2616 1341 c-7 -47 -45 -81 -87 -81 -43 0 -35 -16 10 -24 47 -7 81
-45 81 -87 0 -16 5 -29 10 -29 6 0 10 14 10 31 0 42 47 89 89 89 44 0 38 16
-8 24 -47 7 -81 45 -81 87 0 43 -16 35 -24 -10z"/>
<path d="M3056 1341 c-7 -47 -45 -81 -87 -81 -43 0 -35 -16 10 -24 47 -7 81
-45 81 -87 0 -16 5 -29 10 -29 6 0 10 14 10 31 0 42 47 89 89 89 44 0 38 16
-8 24 -47 7 -81 45 -81 87 0 43 -16 35 -24 -10z"/>
<path d="M400 1322 c0 -29 -29 -62 -56 -62 -34 0 -30 -14 9 -25 24 -8 34 -18
42 -42 5 -18 12 -33 15 -33 3 0 10 15 15 33 8 24 18 34 43 42 17 5 32 12 32
15 0 3 -15 10 -32 15 -25 8 -35 18 -43 43 -10 34 -25 43 -25 14z"/>
<path d="M3380 1250 c0 -5 11 -10 25 -10 14 0 25 5 25 10 0 6 -11 10 -25 10
-14 0 -25 -4 -25 -10z"/>
<path d="M796 901 c-7 -47 -45 -81 -87 -81 -43 0 -35 -16 10 -24 47 -7 81 -45
81 -87 0 -16 5 -29 10 -29 6 0 10 14 10 31 0 42 47 89 89 89 44 0 38 16 -8 24
-47 7 -81 45 -81 87 0 43 -16 35 -24 -10z"/>
<path d="M1236 901 c-7 -47 -45 -81 -87 -81 -43 0 -35 -16 10 -24 47 -7 81
-45 81 -87 0 -16 5 -29 10 -29 6 0 10 14 10 31 0 42 47 89 89 89 44 0 38 16
-8 24 -47 7 -81 45 -81 87 0 43 -16 35 -24 -10z"/>
<path d="M1736 901 c-7 -47 -45 -81 -87 -81 -43 0 -35 -16 10 -24 47 -7 81
-45 81 -87 0 -16 5 -29 10 -29 6 0 10 14 10 31 0 42 47 89 89 89 44 0 38 16
-8 24 -47 7 -81 45 -81 87 0 43 -16 35 -24 -10z"/>
<path d="M2176 901 c-7 -47 -45 -81 -87 -81 -43 0 -35 -16 10 -24 47 -7 81
-45 81 -87 0 -16 5 -29 10 -29 6 0 10 14 10 31 0 42 47 89 89 89 44 0 38 16
-8 24 -47 7 -81 45 -81 87 0 43 -16 35 -24 -10z"/>
<path d="M2616 901 c-7 -47 -45 -81 -87 -81 -43 0 -35 -16 10 -24 47 -7 81
-45 81 -87 0 -16 5 -29 10 -29 6 0 10 14 10 31 0 42 47 89 89 89 44 0 38 16
-8 24 -47 7 -81 45 -81 87 0 43 -16 35 -24 -10z"/>
<path d="M3056 901 c-7 -47 -45 -81 -87 -81 -43 0 -35 -16 10 -24 47 -7 81
-45 81 -87 0 -16 5 -29 10 -29 6 0 10 14 10 31 0 42 47 89 89 89 44 0 38 16
-8 24 -47 7 -81 45 -81 87 0 43 -16 35 -24 -10z"/>
<path d="M3380 810 c0 -5 11 -10 25 -10 14 0 25 5 25 10 0 6 -11 10 -25 10
-14 0 -25 -4 -25 -10z"/>
<path d="M1235 468 c-8 -25 -18 -35 -42 -43 -18 -5 -33 -12 -33 -15 0 -3 15
-10 33 -15 24 -8 34 -18 42 -42 10 -35 25 -44 25 -15 0 29 29 62 56 62 34 0
30 14 -8 25 -25 8 -35 18 -43 43 -5 17 -12 32 -15 32 -3 0 -10 -15 -15 -32z"/>
<path d="M1735 468 c-8 -25 -18 -35 -42 -43 -18 -5 -33 -12 -33 -15 0 -3 15
-10 33 -15 24 -8 34 -18 42 -42 10 -35 25 -44 25 -15 0 29 29 62 56 62 34 0
30 14 -8 25 -25 8 -35 18 -43 43 -5 17 -12 32 -15 32 -3 0 -10 -15 -15 -32z"/>
<path d="M2175 468 c-8 -25 -18 -35 -42 -43 -18 -5 -33 -12 -33 -15 0 -3 15
-10 33 -15 24 -8 34 -18 42 -42 10 -35 25 -44 25 -15 0 29 29 62 56 62 34 0
30 14 -8 25 -25 8 -35 18 -43 43 -5 17 -12 32 -15 32 -3 0 -10 -15 -15 -32z"/>
<path d="M2615 468 c-8 -25 -18 -35 -42 -43 -18 -5 -33 -12 -33 -15 0 -3 15
-10 33 -15 24 -8 34 -18 42 -42 10 -35 25 -44 25 -15 0 29 29 62 56 62 34 0
30 14 -8 25 -25 8 -35 18 -43 43 -5 17 -12 32 -15 32 -3 0 -10 -15 -15 -32z"/>
<path d="M3055 468 c-8 -25 -18 -35 -42 -43 -18 -5 -33 -12 -33 -15 0 -3 15
-10 33 -15 24 -8 34 -18 42 -42 10 -35 25 -44 25 -15 0 29 29 62 56 62 34 0
30 14 -8 25 -25 8 -35 18 -43 43 -5 17 -12 32 -15 32 -3 0 -10 -15 -15 -32z"/>
<path d="M1728 69 c-17 -18 -17 -20 2 -39 20 -20 20 -20 40 0 l20 20 -20 20
c-23 23 -20 23 -42 -1z"/>
<path d="M2168 69 c-17 -18 -17 -20 2 -39 20 -20 20 -20 40 0 l20 20 -20 20
c-23 23 -20 23 -42 -1z"/>
<path d="M2608 69 c-17 -18 -17 -20 2 -39 20 -20 20 -20 40 0 l20 20 -20 20
c-23 23 -20 23 -42 -1z"/>
<path d="M3048 69 c-17 -18 -17 -20 2 -39 20 -20 20 -20 40 0 l20 20 -20 20
c-23 23 -20 23 -42 -1z"/>
</g>
</svg>
