<svg width="13" height="16" viewBox="0 0 13 16" fill="none" xmlns="http://www.w3.org/2000/svg">
<path d="M11.5031 12.4355L11.5031 12.4356C11.5522 12.5582 11.6013 12.6721 11.6481 12.7808C11.7545 13.0279 11.8494 13.2481 11.9075 13.4835C11.9837 13.7917 11.9588 13.9975 11.8312 14.1684C11.6836 14.3661 11.321 14.6245 10.4581 14.8256C9.60705 15.024 8.34383 15.1496 6.50004 15.1496C4.65625 15.1496 3.39303 15.024 2.54198 14.8256C1.67904 14.6245 1.31651 14.3661 1.16892 14.1684C1.04132 13.9975 1.01638 13.7917 1.09254 13.4835C1.15072 13.2481 1.24558 13.0279 1.35196 12.7808C1.39878 12.6721 1.44784 12.5582 1.49698 12.4356L1.49701 12.4355C2.29587 10.4405 3.15443 9.14161 3.85727 8.07834C3.90071 8.01262 3.94356 7.9478 3.98576 7.88377C4.70136 6.79803 5.30004 5.85217 5.30004 4.59961V2.04961V1.54961H4.80004H4.45004V0.849609H8.55004V1.54961H8.20004H7.70004V2.04961V4.59961C7.70004 5.85217 8.29871 6.79803 9.01432 7.88377C9.05652 7.94779 9.09936 8.01261 9.1428 8.07833C9.84564 9.14161 10.7042 10.4405 11.5031 12.4355ZM10.7361 14.217L10.737 14.2167C11.3116 14.0436 11.4152 13.4374 11.2873 13.0488C10.9763 12.0876 10.5588 11.1642 10.0425 10.2958L10.0419 10.2948C9.97121 10.1765 9.89922 10.0661 9.82416 9.98042C9.76739 9.91558 9.61175 9.74758 9.36057 9.73628C9.08157 9.72373 8.91657 9.90944 8.87023 9.96407C8.82526 10.0171 8.77868 10.0881 8.75267 10.1277C8.74804 10.1348 8.74406 10.1408 8.74086 10.1456C8.67799 10.2397 8.6237 10.3085 8.54163 10.3623C8.46487 10.4126 8.32579 10.4738 8.06234 10.4738C7.87953 10.4738 7.62712 10.364 7.24703 10.1129C7.1423 10.0438 7.02431 9.96098 6.89866 9.87281C6.63256 9.68612 6.33211 9.47531 6.05043 9.31864C5.61801 9.07814 5.08113 8.87129 4.4979 8.99548C3.9034 9.12207 3.3986 9.56094 2.95863 10.294L2.95862 10.294C2.2723 11.4376 1.90589 12.4606 1.71317 13.0475C1.58525 13.4341 1.6864 14.0448 2.26399 14.217C2.92709 14.4153 4.16933 14.6196 6.50004 14.6196C8.83075 14.6196 10.073 14.4153 10.7361 14.217Z" fill="white" stroke="white"/>
</svg>
