<svg width="388" height="390" viewBox="0 0 388 390" fill="none" xmlns="http://www.w3.org/2000/svg">
<path d="M226.133 187.336L224.618 182.696L226.221 188.366L226.133 187.336Z" stroke="#CCCCCC" stroke-width="0.6" stroke-miterlimit="10" stroke-linecap="round" stroke-linejoin="round"/>
<path d="M224.618 182.696L226.133 187.337L226.713 176.443L224.747 170.566L224.618 182.696Z" stroke="#CCCCCC" stroke-width="0.6" stroke-miterlimit="10" stroke-linecap="round" stroke-linejoin="round"/>
<path d="M226.22 188.367L224.617 182.696L222.115 178.783L225.492 189.837L226.182 190.931L226.383 190.298L226.22 188.367Z" stroke="#CCCCCC" stroke-width="0.6" stroke-miterlimit="10" stroke-linecap="round" stroke-linejoin="round"/>
<path d="M226.714 176.443L226.133 187.335L226.22 188.365L226.385 190.298L227.292 183.079L226.714 176.443Z" stroke="#CCCCCC" stroke-width="0.6" stroke-miterlimit="10" stroke-linecap="round" stroke-linejoin="round"/>
<path d="M224.746 170.565L226.713 176.442L230.884 164.634L228.243 157.104L224.746 170.565Z" stroke="#CCCCCC" stroke-width="0.6" stroke-miterlimit="10" stroke-linecap="round" stroke-linejoin="round"/>
<path d="M224.617 182.696L224.746 170.566L221.517 165.664L222.115 178.783L224.617 182.696Z" stroke="#CCCCCC" stroke-width="0.6" stroke-miterlimit="10" stroke-linecap="round" stroke-linejoin="round"/>
<path d="M230.885 164.633L226.715 176.443L227.291 183.079L231.706 173.233L230.885 164.633Z" stroke="#CCCCCC" stroke-width="0.6" stroke-miterlimit="10" stroke-linecap="round" stroke-linejoin="round"/>
<path d="M228.243 157.105L230.883 164.634L238.828 152.36L235.25 142.839L228.243 157.105Z" stroke="#CCCCCC" stroke-width="0.6" stroke-miterlimit="10" stroke-linecap="round" stroke-linejoin="round"/>
<path d="M224.746 170.565L228.243 157.104L223.968 150.912L221.517 165.663L224.746 170.565Z" stroke="#CCCCCC" stroke-width="0.6" stroke-miterlimit="10" stroke-linecap="round" stroke-linejoin="round"/>
<path d="M238.83 152.359L230.884 164.633L231.705 173.235L240.047 163.386L238.83 152.359Z" stroke="#CCCCCC" stroke-width="0.6" stroke-miterlimit="10" stroke-linecap="round" stroke-linejoin="round"/>
<path d="M235.251 142.84L238.829 152.36L250.526 140.193L245.706 128.437L235.251 142.84Z" stroke="#CCCCCC" stroke-width="0.6" stroke-miterlimit="10" stroke-linecap="round" stroke-linejoin="round"/>
<path d="M228.244 157.104L235.251 142.839L229.594 135.138L223.97 150.912L228.244 157.104Z" stroke="#CCCCCC" stroke-width="0.6" stroke-miterlimit="10" stroke-linecap="round" stroke-linejoin="round"/>
<path d="M250.524 140.193L238.828 152.36L240.045 163.387L252.35 154.016L250.524 140.193Z" stroke="#CCCCCC" stroke-width="0.6" stroke-miterlimit="10" stroke-linecap="round" stroke-linejoin="round"/>
<path d="M245.706 128.438L250.524 140.193L265.679 128.797L259.288 114.676L245.706 128.438Z" stroke="#CCCCCC" stroke-width="0.6" stroke-miterlimit="10" stroke-linecap="round" stroke-linejoin="round"/>
<path d="M235.25 142.839L245.705 128.436L238.312 119.108L229.593 135.138L235.25 142.839Z" stroke="#CCCCCC" stroke-width="0.6" stroke-miterlimit="10" stroke-linecap="round" stroke-linejoin="round"/>
<path d="M265.678 128.795L250.525 140.192L252.35 154.014L268.385 145.67L265.678 128.795Z" stroke="#CCCCCC" stroke-width="0.6" stroke-miterlimit="10" stroke-linecap="round" stroke-linejoin="round"/>
<path d="M259.29 114.676L265.679 128.797L283.685 118.883L275.405 102.381L259.29 114.676Z" stroke="#CCCCCC" stroke-width="0.6" stroke-miterlimit="10" stroke-linecap="round" stroke-linejoin="round"/>
<path d="M245.705 128.437L259.288 114.676L249.819 103.697L238.312 119.109L245.705 128.437Z" stroke="#CCCCCC" stroke-width="0.6" stroke-miterlimit="10" stroke-linecap="round" stroke-linejoin="round"/>
<path d="M283.685 118.882L265.679 128.795L268.385 145.67L287.581 138.928L283.685 118.882Z" stroke="#CCCCCC" stroke-width="0.6" stroke-miterlimit="10" stroke-linecap="round" stroke-linejoin="round"/>
<path d="M275.404 102.381L283.684 118.882L303.635 111.129L293.203 92.331L275.404 102.381Z" stroke="#CCCCCC" stroke-width="0.6" stroke-miterlimit="10" stroke-linecap="round" stroke-linejoin="round"/>
<path d="M259.29 114.675L275.404 102.381L263.567 89.8079L249.821 103.696L259.29 114.675Z" stroke="#CCCCCC" stroke-width="0.6" stroke-miterlimit="10" stroke-linecap="round" stroke-linejoin="round"/>
<path d="M303.636 111.128L283.685 118.882L287.581 138.928L309.014 134.317L303.636 111.128Z" stroke="#CCCCCC" stroke-width="0.6" stroke-miterlimit="10" stroke-linecap="round" stroke-linejoin="round"/>
<path d="M293.203 92.3319L303.635 111.129L324.379 106.092L311.658 85.1682L293.203 92.3319Z" stroke="#CCCCCC" stroke-width="0.6" stroke-miterlimit="10" stroke-linecap="round" stroke-linejoin="round"/>
<path d="M275.404 102.382L293.203 92.3319L278.804 78.2798L263.567 89.8088L275.404 102.382Z" stroke="#CCCCCC" stroke-width="0.6" stroke-miterlimit="10" stroke-linecap="round" stroke-linejoin="round"/>
<path d="M324.379 106.091L303.634 111.129L309.013 134.319L331.46 132.246L324.379 106.091Z" stroke="#CCCCCC" stroke-width="0.6" stroke-miterlimit="10" stroke-linecap="round" stroke-linejoin="round"/>
<path d="M293.203 92.3318L311.657 85.1681L294.65 69.7792L278.803 78.2789L293.203 92.3318Z" stroke="#CCCCCC" stroke-width="0.6" stroke-miterlimit="10" stroke-linecap="round" stroke-linejoin="round"/>
<path d="M225.492 189.836L222.115 178.783L218.75 175.727L222.704 187.241L225.492 189.836Z" stroke="#CCCCCC" stroke-width="0.6" stroke-miterlimit="10" stroke-linecap="round" stroke-linejoin="round"/>
<path d="M226.182 190.93L225.492 189.836L222.704 187.241L225.863 191.925L226.182 190.93Z" stroke="#CCCCCC" stroke-width="0.6" stroke-miterlimit="10" stroke-linecap="round" stroke-linejoin="round"/>
<path d="M222.114 178.784L221.516 165.665L217.196 161.894L218.75 175.728L222.114 178.784Z" stroke="#CCCCCC" stroke-width="0.6" stroke-miterlimit="10" stroke-linecap="round" stroke-linejoin="round"/>
<path d="M221.517 165.663L223.969 150.912L218.307 146.238L217.197 161.892L221.517 165.663Z" stroke="#CCCCCC" stroke-width="0.6" stroke-miterlimit="10" stroke-linecap="round" stroke-linejoin="round"/>
<path d="M223.969 150.912L229.593 135.137L222.206 129.46L218.307 146.239L223.969 150.912Z" stroke="#CCCCCC" stroke-width="0.6" stroke-miterlimit="10" stroke-linecap="round" stroke-linejoin="round"/>
<path d="M229.594 135.139L238.314 119.109L228.836 112.406L222.206 129.46L229.594 135.139Z" stroke="#CCCCCC" stroke-width="0.6" stroke-miterlimit="10" stroke-linecap="round" stroke-linejoin="round"/>
<path d="M238.313 119.109L249.82 103.697L237.933 96.0234L228.836 112.406L238.313 119.109Z" stroke="#CCCCCC" stroke-width="0.6" stroke-miterlimit="10" stroke-linecap="round" stroke-linejoin="round"/>
<path d="M249.82 103.697L263.567 89.8091L249.036 81.2652L237.934 96.0246L249.82 103.697Z" stroke="#CCCCCC" stroke-width="0.6" stroke-miterlimit="10" stroke-linecap="round" stroke-linejoin="round"/>
<path d="M263.568 89.8085L278.804 78.2786L261.517 68.9771L249.038 81.2646L263.568 89.8085Z" stroke="#CCCCCC" stroke-width="0.6" stroke-miterlimit="10" stroke-linecap="round" stroke-linejoin="round"/>
<path d="M278.804 78.2788L294.651 69.7773L274.649 59.8144L261.516 68.9773L278.804 78.2788Z" stroke="#CCCCCC" stroke-width="0.6" stroke-miterlimit="10" stroke-linecap="round" stroke-linejoin="round"/>
<path d="M222.704 187.241L218.75 175.726L214.676 173.622L219.323 185.425L222.704 187.241Z" stroke="#CCCCCC" stroke-width="0.6" stroke-miterlimit="10" stroke-linecap="round" stroke-linejoin="round"/>
<path d="M218.751 175.729L217.198 161.893L211.989 159.358L214.677 173.624L218.751 175.729Z" stroke="#CCCCCC" stroke-width="0.6" stroke-miterlimit="10" stroke-linecap="round" stroke-linejoin="round"/>
<path d="M217.197 161.894L218.307 146.24L211.535 143.194L211.988 159.358L217.197 161.894Z" stroke="#CCCCCC" stroke-width="0.6" stroke-miterlimit="10" stroke-linecap="round" stroke-linejoin="round"/>
<path d="M218.306 146.24L222.205 129.461L213.467 125.898L211.534 143.195L218.306 146.24Z" stroke="#CCCCCC" stroke-width="0.6" stroke-miterlimit="10" stroke-linecap="round" stroke-linejoin="round"/>
<path d="M222.206 129.461L228.837 112.407L217.784 108.386L213.47 125.896L222.206 129.461Z" stroke="#CCCCCC" stroke-width="0.6" stroke-miterlimit="10" stroke-linecap="round" stroke-linejoin="round"/>
<path d="M228.836 112.407L237.934 96.0251L224.29 91.6485L217.783 108.386L228.836 112.407Z" stroke="#CCCCCC" stroke-width="0.6" stroke-miterlimit="10" stroke-linecap="round" stroke-linejoin="round"/>
<path d="M237.934 96.0244L249.037 81.266L232.636 76.6448L224.29 91.6479L237.934 96.0244Z" stroke="#CCCCCC" stroke-width="0.6" stroke-miterlimit="10" stroke-linecap="round" stroke-linejoin="round"/>
<path d="M249.037 81.2642L261.515 68.9768L242.323 64.1995L232.635 76.6441L249.037 81.2642Z" stroke="#CCCCCC" stroke-width="0.6" stroke-miterlimit="10" stroke-linecap="round" stroke-linejoin="round"/>
<path d="M261.516 68.9767L274.649 59.8138L252.784 54.9222L242.324 64.1995L261.516 68.9767Z" stroke="#CCCCCC" stroke-width="0.6" stroke-miterlimit="10" stroke-linecap="round" stroke-linejoin="round"/>
<path d="M225.863 191.926L222.703 187.242L219.323 185.425L223.963 192.089L225.537 192.95L225.863 191.926Z" stroke="#CCCCCC" stroke-width="0.6" stroke-miterlimit="10" stroke-linecap="round" stroke-linejoin="round"/>
<path d="M219.324 185.426L214.676 173.624L210.063 172.522L215.492 184.433L219.324 185.426Z" stroke="#CCCCCC" stroke-width="0.6" stroke-miterlimit="10" stroke-linecap="round" stroke-linejoin="round"/>
<path d="M214.677 173.624L211.988 159.358L206.114 158.108L210.064 172.523L214.677 173.624Z" stroke="#CCCCCC" stroke-width="0.6" stroke-miterlimit="10" stroke-linecap="round" stroke-linejoin="round"/>
<path d="M211.988 159.359L211.535 143.194L203.946 141.812L206.113 158.108L211.988 159.359Z" stroke="#CCCCCC" stroke-width="0.6" stroke-miterlimit="10" stroke-linecap="round" stroke-linejoin="round"/>
<path d="M211.534 143.193L213.469 125.895L203.769 124.451L203.947 141.81L211.534 143.193Z" stroke="#CCCCCC" stroke-width="0.6" stroke-miterlimit="10" stroke-linecap="round" stroke-linejoin="round"/>
<path d="M213.469 125.896L217.784 108.385L205.65 106.992L203.77 124.453L213.469 125.896Z" stroke="#CCCCCC" stroke-width="0.6" stroke-miterlimit="10" stroke-linecap="round" stroke-linejoin="round"/>
<path d="M217.784 108.384L224.291 91.6466L209.503 90.4298L205.65 106.991L217.784 108.384Z" stroke="#CCCCCC" stroke-width="0.6" stroke-miterlimit="10" stroke-linecap="round" stroke-linejoin="round"/>
<path d="M224.291 91.6477L232.637 76.6447L215.094 75.7056L209.503 90.4308L224.291 91.6477Z" stroke="#CCCCCC" stroke-width="0.6" stroke-miterlimit="10" stroke-linecap="round" stroke-linejoin="round"/>
<path d="M232.636 76.6446L242.324 64.2L222.067 63.5878L215.093 75.7055L232.636 76.6446Z" stroke="#CCCCCC" stroke-width="0.6" stroke-miterlimit="10" stroke-linecap="round" stroke-linejoin="round"/>
<path d="M242.324 64.2009L252.785 54.9236L229.987 54.6196L222.066 63.5887L242.324 64.2009Z" stroke="#CCCCCC" stroke-width="0.6" stroke-miterlimit="10" stroke-linecap="round" stroke-linejoin="round"/>
<path d="M223.962 192.088L219.324 185.425L215.491 184.432L220.347 191.116L223.962 192.088Z" stroke="#CCCCCC" stroke-width="0.6" stroke-miterlimit="10" stroke-linecap="round" stroke-linejoin="round"/>
<path d="M215.493 184.431L210.064 172.521L205.091 172.436L211.357 184.284L215.493 184.431Z" stroke="#CCCCCC" stroke-width="0.6" stroke-miterlimit="10" stroke-linecap="round" stroke-linejoin="round"/>
<path d="M210.064 172.522L206.114 158.107L199.802 158.142L205.09 172.436L210.064 172.522Z" stroke="#CCCCCC" stroke-width="0.6" stroke-miterlimit="10" stroke-linecap="round" stroke-linejoin="round"/>
<path d="M206.115 158.107L203.948 141.811L195.842 142.067L199.804 158.143L206.115 158.107Z" stroke="#CCCCCC" stroke-width="0.6" stroke-miterlimit="10" stroke-linecap="round" stroke-linejoin="round"/>
<path d="M203.947 141.811L203.768 124.453L193.483 125.065L195.839 142.068L203.947 141.811Z" stroke="#CCCCCC" stroke-width="0.6" stroke-miterlimit="10" stroke-linecap="round" stroke-linejoin="round"/>
<path d="M203.769 124.452L205.65 106.992L192.898 108.101L193.483 125.064L203.769 124.452Z" stroke="#CCCCCC" stroke-width="0.6" stroke-miterlimit="10" stroke-linecap="round" stroke-linejoin="round"/>
<path d="M205.649 106.991L209.501 90.429L194.117 92.1622L192.898 108.099L205.649 106.991Z" stroke="#CCCCCC" stroke-width="0.6" stroke-miterlimit="10" stroke-linecap="round" stroke-linejoin="round"/>
<path d="M209.502 90.4314L215.094 75.7052L197.039 78.1378L194.119 92.1636L209.502 90.4314Z" stroke="#CCCCCC" stroke-width="0.6" stroke-miterlimit="10" stroke-linecap="round" stroke-linejoin="round"/>
<path d="M215.094 75.7033L222.066 63.5866L201.434 66.7214L197.039 78.1341L215.094 75.7033Z" stroke="#CCCCCC" stroke-width="0.6" stroke-miterlimit="10" stroke-linecap="round" stroke-linejoin="round"/>
<path d="M222.067 63.5879L229.987 54.6188L206.996 58.3861L201.434 66.7227L222.067 63.5879Z" stroke="#CCCCCC" stroke-width="0.6" stroke-miterlimit="10" stroke-linecap="round" stroke-linejoin="round"/>
<path d="M220.347 191.116L215.491 184.432L211.355 184.285L216.448 190.939L220.347 191.116Z" stroke="#CCCCCC" stroke-width="0.6" stroke-miterlimit="10" stroke-linecap="round" stroke-linejoin="round"/>
<path d="M211.355 184.285L205.09 172.436L199.941 173.348L207.069 184.972L211.355 184.285Z" stroke="#CCCCCC" stroke-width="0.6" stroke-miterlimit="10" stroke-linecap="round" stroke-linejoin="round"/>
<path d="M205.089 172.436L199.801 158.142L193.282 159.426L199.941 173.348L205.089 172.436Z" stroke="#CCCCCC" stroke-width="0.6" stroke-miterlimit="10" stroke-linecap="round" stroke-linejoin="round"/>
<path d="M199.802 158.142L195.839 142.067L187.502 143.893L193.282 159.428L199.802 158.142Z" stroke="#CCCCCC" stroke-width="0.6" stroke-miterlimit="10" stroke-linecap="round" stroke-linejoin="round"/>
<path d="M195.84 142.067L193.482 125.063L182.965 127.61L187.501 143.894L195.84 142.067Z" stroke="#CCCCCC" stroke-width="0.6" stroke-miterlimit="10" stroke-linecap="round" stroke-linejoin="round"/>
<path d="M193.483 125.064L192.899 108.101L179.952 111.529L182.966 127.611L193.483 125.064Z" stroke="#CCCCCC" stroke-width="0.6" stroke-miterlimit="10" stroke-linecap="round" stroke-linejoin="round"/>
<path d="M192.899 108.101L194.119 92.1631L178.619 96.5854L179.951 111.531L192.899 108.101Z" stroke="#CCCCCC" stroke-width="0.6" stroke-miterlimit="10" stroke-linecap="round" stroke-linejoin="round"/>
<path d="M194.118 92.1637L197.039 78.137L179 83.5973L178.62 96.5859L194.118 92.1637Z" stroke="#CCCCCC" stroke-width="0.6" stroke-miterlimit="10" stroke-linecap="round" stroke-linejoin="round"/>
<path d="M197.039 78.1365L201.434 66.7238L180.987 73.1817L179 83.5968L197.039 78.1365Z" stroke="#CCCCCC" stroke-width="0.6" stroke-miterlimit="10" stroke-linecap="round" stroke-linejoin="round"/>
<path d="M201.433 66.7223L206.994 58.3857L184.382 65.7209L180.987 73.1811L201.433 66.7223Z" stroke="#CCCCCC" stroke-width="0.6" stroke-miterlimit="10" stroke-linecap="round" stroke-linejoin="round"/>
<path d="M216.449 190.938L211.356 184.286L207.07 184.973L212.41 191.546L216.449 190.938Z" stroke="#CCCCCC" stroke-width="0.6" stroke-miterlimit="10" stroke-linecap="round" stroke-linejoin="round"/>
<path d="M207.07 184.973L199.94 173.349L194.795 175.206L202.786 186.456L207.07 184.973Z" stroke="#CCCCCC" stroke-width="0.6" stroke-miterlimit="10" stroke-linecap="round" stroke-linejoin="round"/>
<path d="M199.941 173.348L193.282 159.426L186.778 161.883L194.795 175.205L199.941 173.348Z" stroke="#CCCCCC" stroke-width="0.6" stroke-miterlimit="10" stroke-linecap="round" stroke-linejoin="round"/>
<path d="M193.282 159.427L187.502 143.894L179.205 147.181L186.778 161.884L193.282 159.427Z" stroke="#CCCCCC" stroke-width="0.6" stroke-miterlimit="10" stroke-linecap="round" stroke-linejoin="round"/>
<path d="M187.502 143.893L182.965 127.611L172.54 131.939L179.206 147.181L187.502 143.893Z" stroke="#CCCCCC" stroke-width="0.6" stroke-miterlimit="10" stroke-linecap="round" stroke-linejoin="round"/>
<path d="M182.964 127.611L179.95 111.529L167.179 117.064L172.539 131.941L182.964 127.611Z" stroke="#CCCCCC" stroke-width="0.6" stroke-miterlimit="10" stroke-linecap="round" stroke-linejoin="round"/>
<path d="M179.95 111.53L178.619 96.5859L163.419 103.424L167.179 117.065L179.95 111.53Z" stroke="#CCCCCC" stroke-width="0.6" stroke-miterlimit="10" stroke-linecap="round" stroke-linejoin="round"/>
<path d="M178.619 96.5852L178.999 83.5966L161.413 91.7444L163.419 103.423L178.619 96.5852Z" stroke="#CCCCCC" stroke-width="0.6" stroke-miterlimit="10" stroke-linecap="round" stroke-linejoin="round"/>
<path d="M178.999 83.597L180.986 73.1819L161.175 82.5602L161.412 91.7449L178.999 83.597Z" stroke="#CCCCCC" stroke-width="0.6" stroke-miterlimit="10" stroke-linecap="round" stroke-linejoin="round"/>
<path d="M180.988 73.1823L184.383 65.7221L162.597 76.168L161.175 82.5596L180.988 73.1823Z" stroke="#CCCCCC" stroke-width="0.6" stroke-miterlimit="10" stroke-linecap="round" stroke-linejoin="round"/>
<path d="M212.41 191.547L207.069 184.972L202.786 186.456L208.378 192.909L212.41 191.547Z" stroke="#CCCCCC" stroke-width="0.6" stroke-miterlimit="10" stroke-linecap="round" stroke-linejoin="round"/>
<path d="M202.786 186.455L194.794 175.205L189.827 177.929L198.655 188.674L202.786 186.455Z" stroke="#CCCCCC" stroke-width="0.6" stroke-miterlimit="10" stroke-linecap="round" stroke-linejoin="round"/>
<path d="M194.795 175.206L186.778 161.885L180.498 165.414L189.828 177.93L194.795 175.206Z" stroke="#CCCCCC" stroke-width="0.6" stroke-miterlimit="10" stroke-linecap="round" stroke-linejoin="round"/>
<path d="M186.777 161.883L179.205 147.182L171.206 151.792L180.499 165.412L186.777 161.883Z" stroke="#CCCCCC" stroke-width="0.6" stroke-miterlimit="10" stroke-linecap="round" stroke-linejoin="round"/>
<path d="M179.207 147.183L172.541 131.941L162.507 137.869L171.207 151.793L179.207 147.183Z" stroke="#CCCCCC" stroke-width="0.6" stroke-miterlimit="10" stroke-linecap="round" stroke-linejoin="round"/>
<path d="M172.54 131.941L167.181 117.066L154.925 124.477L162.507 137.869L172.54 131.941Z" stroke="#CCCCCC" stroke-width="0.6" stroke-miterlimit="10" stroke-linecap="round" stroke-linejoin="round"/>
<path d="M167.18 117.065L163.42 103.423L148.879 112.393L154.923 124.476L167.18 117.065Z" stroke="#CCCCCC" stroke-width="0.6" stroke-miterlimit="10" stroke-linecap="round" stroke-linejoin="round"/>
<path d="M163.42 103.424L161.413 91.7453L144.655 102.251L148.881 112.393L163.42 103.424Z" stroke="#CCCCCC" stroke-width="0.6" stroke-miterlimit="10" stroke-linecap="round" stroke-linejoin="round"/>
<path d="M161.414 91.7457L161.175 82.5601L142.366 94.4859L144.655 102.252L161.414 91.7457Z" stroke="#CCCCCC" stroke-width="0.6" stroke-miterlimit="10" stroke-linecap="round" stroke-linejoin="round"/>
<path d="M161.175 82.5586L162.596 76.1671L141.992 89.318L142.366 94.4845L161.175 82.5586Z" stroke="#CCCCCC" stroke-width="0.6" stroke-miterlimit="10" stroke-linecap="round" stroke-linejoin="round"/>
<path d="M208.379 192.909L202.787 186.456L198.656 188.675L204.494 194.968L208.379 192.909Z" stroke="#CCCCCC" stroke-width="0.6" stroke-miterlimit="10" stroke-linecap="round" stroke-linejoin="round"/>
<path d="M198.656 188.675L189.828 177.931L185.202 181.422L194.815 191.544L198.656 188.675Z" stroke="#CCCCCC" stroke-width="0.6" stroke-miterlimit="10" stroke-linecap="round" stroke-linejoin="round"/>
<path d="M189.828 177.929L180.499 165.412L174.646 169.881L185.201 181.421L189.828 177.929Z" stroke="#CCCCCC" stroke-width="0.6" stroke-miterlimit="10" stroke-linecap="round" stroke-linejoin="round"/>
<path d="M180.499 165.412L171.206 151.791L163.741 157.56L174.645 169.881L180.499 165.412Z" stroke="#CCCCCC" stroke-width="0.6" stroke-miterlimit="10" stroke-linecap="round" stroke-linejoin="round"/>
<path d="M171.205 151.793L162.506 137.869L153.14 145.193L163.74 157.562L171.205 151.793Z" stroke="#CCCCCC" stroke-width="0.6" stroke-miterlimit="10" stroke-linecap="round" stroke-linejoin="round"/>
<path d="M162.507 137.868L154.925 124.475L143.486 133.519L153.142 145.191L162.507 137.868Z" stroke="#CCCCCC" stroke-width="0.6" stroke-miterlimit="10" stroke-linecap="round" stroke-linejoin="round"/>
<path d="M154.926 124.477L148.882 112.393L135.322 123.215L143.486 133.519L154.926 124.477Z" stroke="#CCCCCC" stroke-width="0.6" stroke-miterlimit="10" stroke-linecap="round" stroke-linejoin="round"/>
<path d="M148.881 112.393L144.655 102.251L129.043 114.804L135.321 123.215L148.881 112.393Z" stroke="#CCCCCC" stroke-width="0.6" stroke-miterlimit="10" stroke-linecap="round" stroke-linejoin="round"/>
<path d="M144.654 102.251L142.366 94.4844L124.876 108.624L129.042 114.803L144.654 102.251Z" stroke="#CCCCCC" stroke-width="0.6" stroke-miterlimit="10" stroke-linecap="round" stroke-linejoin="round"/>
<path d="M142.366 94.4858L141.993 89.3184L122.874 104.822L124.876 108.625L142.366 94.4858Z" stroke="#CCCCCC" stroke-width="0.6" stroke-miterlimit="10" stroke-linecap="round" stroke-linejoin="round"/>
<path d="M204.494 194.967L198.656 188.673L194.815 191.543L200.889 197.645L204.494 194.967Z" stroke="#CCCCCC" stroke-width="0.6" stroke-miterlimit="10" stroke-linecap="round" stroke-linejoin="round"/>
<path d="M194.814 191.544L185.201 181.422L181.07 185.56L191.394 194.965L194.814 191.544Z" stroke="#CCCCCC" stroke-width="0.6" stroke-miterlimit="10" stroke-linecap="round" stroke-linejoin="round"/>
<path d="M185.2 181.42L174.644 169.881L169.399 175.145L181.07 185.559L185.2 181.42Z" stroke="#CCCCCC" stroke-width="0.6" stroke-miterlimit="10" stroke-linecap="round" stroke-linejoin="round"/>
<path d="M174.644 169.881L163.74 157.56L157.026 164.304L169.399 175.144L174.644 169.881Z" stroke="#CCCCCC" stroke-width="0.6" stroke-miterlimit="10" stroke-linecap="round" stroke-linejoin="round"/>
<path d="M163.741 157.562L153.141 145.192L144.693 153.69L157.028 164.306L163.741 157.562Z" stroke="#CCCCCC" stroke-width="0.6" stroke-miterlimit="10" stroke-linecap="round" stroke-linejoin="round"/>
<path d="M153.141 145.191L143.485 133.519L133.14 143.939L144.693 153.689L153.141 145.191Z" stroke="#CCCCCC" stroke-width="0.6" stroke-miterlimit="10" stroke-linecap="round" stroke-linejoin="round"/>
<path d="M143.486 133.519L135.322 123.215L123.032 135.608L133.142 143.941L143.486 133.519Z" stroke="#CCCCCC" stroke-width="0.6" stroke-miterlimit="10" stroke-linecap="round" stroke-linejoin="round"/>
<path d="M135.322 123.215L129.043 114.804L114.877 129.104L123.032 135.608L135.322 123.215Z" stroke="#CCCCCC" stroke-width="0.6" stroke-miterlimit="10" stroke-linecap="round" stroke-linejoin="round"/>
<path d="M129.043 114.805L124.877 108.625L108.994 124.668L114.877 129.105L129.043 114.805Z" stroke="#CCCCCC" stroke-width="0.6" stroke-miterlimit="10" stroke-linecap="round" stroke-linejoin="round"/>
<path d="M124.875 108.624L122.873 104.821L105.51 122.365L108.993 124.668L124.875 108.624Z" stroke="#CCCCCC" stroke-width="0.6" stroke-miterlimit="10" stroke-linecap="round" stroke-linejoin="round"/>
<path d="M200.887 197.646L194.814 191.544L191.394 194.965L197.684 200.848L200.887 197.646Z" stroke="#CCCCCC" stroke-width="0.6" stroke-miterlimit="10" stroke-linecap="round" stroke-linejoin="round"/>
<path d="M191.395 194.964L181.071 185.56L177.57 190.207L188.513 198.819L191.395 194.964Z" stroke="#CCCCCC" stroke-width="0.6" stroke-miterlimit="10" stroke-linecap="round" stroke-linejoin="round"/>
<path d="M181.07 185.559L169.399 175.144L164.926 181.031L177.569 190.206L181.07 185.559Z" stroke="#CCCCCC" stroke-width="0.6" stroke-miterlimit="10" stroke-linecap="round" stroke-linejoin="round"/>
<path d="M169.399 175.145L157.027 164.306L151.265 171.822L164.926 181.033L169.399 175.145Z" stroke="#CCCCCC" stroke-width="0.6" stroke-miterlimit="10" stroke-linecap="round" stroke-linejoin="round"/>
<path d="M157.027 164.306L144.692 153.69L137.394 163.129L151.265 171.822L157.027 164.306Z" stroke="#CCCCCC" stroke-width="0.6" stroke-miterlimit="10" stroke-linecap="round" stroke-linejoin="round"/>
<path d="M144.694 153.689L133.142 143.94L124.147 155.474L137.395 163.126L144.694 153.689Z" stroke="#CCCCCC" stroke-width="0.6" stroke-miterlimit="10" stroke-linecap="round" stroke-linejoin="round"/>
<path d="M133.141 143.939L123.033 135.607L112.289 149.29L124.146 155.474L133.141 143.939Z" stroke="#CCCCCC" stroke-width="0.6" stroke-miterlimit="10" stroke-linecap="round" stroke-linejoin="round"/>
<path d="M123.032 135.608L114.877 129.104L102.437 144.86L112.289 149.289L123.032 135.608Z" stroke="#CCCCCC" stroke-width="0.6" stroke-miterlimit="10" stroke-linecap="round" stroke-linejoin="round"/>
<path d="M114.876 129.105L108.993 124.668L94.9982 142.321L102.436 144.86L114.876 129.105Z" stroke="#CCCCCC" stroke-width="0.6" stroke-miterlimit="10" stroke-linecap="round" stroke-linejoin="round"/>
<path d="M108.995 124.667L105.512 122.366L90.1812 141.661L94.9998 142.32L108.995 124.667Z" stroke="#CCCCCC" stroke-width="0.6" stroke-miterlimit="10" stroke-linecap="round" stroke-linejoin="round"/>
<path d="M197.684 200.849L191.394 194.967L188.512 198.819L194.992 204.465L197.684 200.849Z" stroke="#CCCCCC" stroke-width="0.6" stroke-miterlimit="10" stroke-linecap="round" stroke-linejoin="round"/>
<path d="M188.513 198.82L177.571 190.208L174.819 195.211L186.269 202.98L188.513 198.82Z" stroke="#CCCCCC" stroke-width="0.6" stroke-miterlimit="10" stroke-linecap="round" stroke-linejoin="round"/>
<path d="M177.571 190.207L164.928 181.032L161.373 187.36L174.819 195.21L177.571 190.207Z" stroke="#CCCCCC" stroke-width="0.6" stroke-miterlimit="10" stroke-linecap="round" stroke-linejoin="round"/>
<path d="M164.926 181.033L151.265 171.822L146.636 179.889L161.371 187.361L164.926 181.033Z" stroke="#CCCCCC" stroke-width="0.6" stroke-miterlimit="10" stroke-linecap="round" stroke-linejoin="round"/>
<path d="M151.266 171.82L137.394 163.127L131.459 173.25L146.636 179.888L151.266 171.82Z" stroke="#CCCCCC" stroke-width="0.6" stroke-miterlimit="10" stroke-linecap="round" stroke-linejoin="round"/>
<path d="M137.395 163.128L124.146 155.475L116.748 167.844L131.459 173.251L137.395 163.128Z" stroke="#CCCCCC" stroke-width="0.6" stroke-miterlimit="10" stroke-linecap="round" stroke-linejoin="round"/>
<path d="M124.147 155.475L112.29 149.29L103.362 163.962L116.75 167.844L124.147 155.475Z" stroke="#CCCCCC" stroke-width="0.6" stroke-miterlimit="10" stroke-linecap="round" stroke-linejoin="round"/>
<path d="M112.289 149.29L102.438 144.86L92.0041 161.769L103.362 163.962L112.289 149.29Z" stroke="#CCCCCC" stroke-width="0.6" stroke-miterlimit="10" stroke-linecap="round" stroke-linejoin="round"/>
<path d="M102.436 144.86L94.9982 142.321L83.1831 161.288L92.0039 161.769L102.436 144.86Z" stroke="#CCCCCC" stroke-width="0.6" stroke-miterlimit="10" stroke-linecap="round" stroke-linejoin="round"/>
<path d="M94.9987 142.321L90.1802 141.661L77.1733 162.425L83.1827 161.287L94.9987 142.321Z" stroke="#CCCCCC" stroke-width="0.6" stroke-miterlimit="10" stroke-linecap="round" stroke-linejoin="round"/>
<path d="M194.992 204.463L188.512 198.818L186.267 202.977L192.908 208.371L194.992 204.463Z" stroke="#CCCCCC" stroke-width="0.6" stroke-miterlimit="10" stroke-linecap="round" stroke-linejoin="round"/>
<path d="M186.267 202.978L174.817 195.209L172.915 200.405L184.742 207.299L186.267 202.978Z" stroke="#CCCCCC" stroke-width="0.6" stroke-miterlimit="10" stroke-linecap="round" stroke-linejoin="round"/>
<path d="M174.818 195.209L161.372 187.359L158.866 193.93L172.916 200.405L174.818 195.209Z" stroke="#CCCCCC" stroke-width="0.6" stroke-miterlimit="10" stroke-linecap="round" stroke-linejoin="round"/>
<path d="M161.372 187.36L146.637 179.888L143.298 188.27L158.867 193.931L161.372 187.36Z" stroke="#CCCCCC" stroke-width="0.6" stroke-miterlimit="10" stroke-linecap="round" stroke-linejoin="round"/>
<path d="M146.637 179.89L131.459 173.252L127.085 183.783L143.298 188.272L146.637 179.89Z" stroke="#CCCCCC" stroke-width="0.6" stroke-miterlimit="10" stroke-linecap="round" stroke-linejoin="round"/>
<path d="M131.459 173.251L116.748 167.844L111.182 180.74L127.085 183.783L131.459 173.251Z" stroke="#CCCCCC" stroke-width="0.6" stroke-miterlimit="10" stroke-linecap="round" stroke-linejoin="round"/>
<path d="M116.748 167.843L103.361 163.962L96.5121 179.304L111.181 180.74L116.748 167.843Z" stroke="#CCCCCC" stroke-width="0.6" stroke-miterlimit="10" stroke-linecap="round" stroke-linejoin="round"/>
<path d="M103.362 163.961L92.0046 161.768L83.8772 179.503L96.5141 179.302L103.362 163.961Z" stroke="#CCCCCC" stroke-width="0.6" stroke-miterlimit="10" stroke-linecap="round" stroke-linejoin="round"/>
<path d="M92.0037 161.769L83.183 161.288L73.8596 181.249L83.8763 179.504L92.0037 161.769Z" stroke="#CCCCCC" stroke-width="0.6" stroke-miterlimit="10" stroke-linecap="round" stroke-linejoin="round"/>
<path d="M83.1826 161.287L77.1722 162.423L66.8143 184.35L73.8592 181.248L83.1826 161.287Z" stroke="#CCCCCC" stroke-width="0.6" stroke-miterlimit="10" stroke-linecap="round" stroke-linejoin="round"/>
<path d="M192.907 208.372L186.267 202.978L184.742 207.301L191.505 212.438L192.907 208.372Z" stroke="#CCCCCC" stroke-width="0.6" stroke-miterlimit="10" stroke-linecap="round" stroke-linejoin="round"/>
<path d="M184.744 207.299L172.917 200.405L171.943 205.616L184.002 211.634L184.744 207.299Z" stroke="#CCCCCC" stroke-width="0.6" stroke-miterlimit="10" stroke-linecap="round" stroke-linejoin="round"/>
<path d="M172.915 200.406L158.864 193.932L157.509 200.531L171.94 205.618L172.915 200.406Z" stroke="#CCCCCC" stroke-width="0.6" stroke-miterlimit="10" stroke-linecap="round" stroke-linejoin="round"/>
<path d="M158.866 193.931L143.297 188.27L141.387 196.71L157.509 200.529L158.866 193.931Z" stroke="#CCCCCC" stroke-width="0.6" stroke-miterlimit="10" stroke-linecap="round" stroke-linejoin="round"/>
<path d="M143.296 188.27L127.084 183.782L124.446 194.423L141.386 196.711L143.296 188.27Z" stroke="#CCCCCC" stroke-width="0.6" stroke-miterlimit="10" stroke-linecap="round" stroke-linejoin="round"/>
<path d="M127.086 183.782L111.182 180.739L107.666 193.829L124.448 194.423L127.086 183.782Z" stroke="#CCCCCC" stroke-width="0.6" stroke-miterlimit="10" stroke-linecap="round" stroke-linejoin="round"/>
<path d="M111.182 180.739L96.5128 179.303L92.0135 194.955L107.666 193.83L111.182 180.739Z" stroke="#CCCCCC" stroke-width="0.6" stroke-miterlimit="10" stroke-linecap="round" stroke-linejoin="round"/>
<path d="M96.5134 179.303L83.8764 179.502L78.3605 197.696L92.0142 194.955L96.5134 179.303Z" stroke="#CCCCCC" stroke-width="0.6" stroke-miterlimit="10" stroke-linecap="round" stroke-linejoin="round"/>
<path d="M83.8763 179.504L73.8587 181.25L67.3738 201.84L78.3613 197.697L83.8763 179.504Z" stroke="#CCCCCC" stroke-width="0.6" stroke-miterlimit="10" stroke-linecap="round" stroke-linejoin="round"/>
<path d="M73.8584 181.25L66.8134 184.352L59.4798 207.089L67.3726 201.841L73.8584 181.25Z" stroke="#CCCCCC" stroke-width="0.6" stroke-miterlimit="10" stroke-linecap="round" stroke-linejoin="round"/>
<path d="M191.505 212.438L184.741 207.3L184 211.636L190.845 216.519L191.505 212.438Z" stroke="#CCCCCC" stroke-width="0.6" stroke-miterlimit="10" stroke-linecap="round" stroke-linejoin="round"/>
<path d="M184.001 211.636L171.942 205.618L171.947 210.665L184.08 215.831L184.001 211.636Z" stroke="#CCCCCC" stroke-width="0.6" stroke-miterlimit="10" stroke-linecap="round" stroke-linejoin="round"/>
<path d="M171.942 205.617L157.509 200.53L157.374 206.935L171.947 210.664L171.942 205.617Z" stroke="#CCCCCC" stroke-width="0.6" stroke-miterlimit="10" stroke-linecap="round" stroke-linejoin="round"/>
<path d="M157.509 200.529L141.388 196.711L141.01 204.935L157.373 206.935L157.509 200.529Z" stroke="#CCCCCC" stroke-width="0.6" stroke-miterlimit="10" stroke-linecap="round" stroke-linejoin="round"/>
<path d="M141.388 196.71L124.448 194.424L123.697 204.852L141.01 204.935L141.388 196.71Z" stroke="#CCCCCC" stroke-width="0.6" stroke-miterlimit="10" stroke-linecap="round" stroke-linejoin="round"/>
<path d="M124.448 194.424L107.665 193.83L106.404 206.74L123.698 204.853L124.448 194.424Z" stroke="#CCCCCC" stroke-width="0.6" stroke-miterlimit="10" stroke-linecap="round" stroke-linejoin="round"/>
<path d="M107.664 193.829L92.0141 194.954L90.1249 210.508L106.402 206.741L107.664 193.829Z" stroke="#CCCCCC" stroke-width="0.6" stroke-miterlimit="10" stroke-linecap="round" stroke-linejoin="round"/>
<path d="M92.0152 194.954L78.3615 197.696L75.7789 215.916L90.126 210.508L92.0152 194.954Z" stroke="#CCCCCC" stroke-width="0.6" stroke-miterlimit="10" stroke-linecap="round" stroke-linejoin="round"/>
<path d="M78.3608 197.697L67.3743 201.841L64.1016 222.622L75.7791 215.919L78.3608 197.697Z" stroke="#CCCCCC" stroke-width="0.6" stroke-miterlimit="10" stroke-linecap="round" stroke-linejoin="round"/>
<path d="M67.3737 201.84L59.481 207.088L55.5964 230.2L64.102 222.621L67.3737 201.84Z" stroke="#CCCCCC" stroke-width="0.6" stroke-miterlimit="10" stroke-linecap="round" stroke-linejoin="round"/>
<path d="M190.845 216.518L184.001 211.635L184.08 215.83L190.958 220.472L190.845 216.518Z" stroke="#CCCCCC" stroke-width="0.6" stroke-miterlimit="10" stroke-linecap="round" stroke-linejoin="round"/>
<path d="M184.078 215.832L171.945 210.666L172.948 215.363L184.991 219.732L184.078 215.832Z" stroke="#CCCCCC" stroke-width="0.6" stroke-miterlimit="10" stroke-linecap="round" stroke-linejoin="round"/>
<path d="M171.945 210.665L157.373 206.935L158.5 212.919L172.95 215.362L171.945 210.665Z" stroke="#CCCCCC" stroke-width="0.6" stroke-miterlimit="10" stroke-linecap="round" stroke-linejoin="round"/>
<path d="M157.373 206.935L141.009 204.936L142.237 212.658L158.5 212.919L157.373 206.935Z" stroke="#CCCCCC" stroke-width="0.6" stroke-miterlimit="10" stroke-linecap="round" stroke-linejoin="round"/>
<path d="M141.011 204.936L123.698 204.853L124.952 214.712L142.239 212.658L141.011 204.936Z" stroke="#CCCCCC" stroke-width="0.6" stroke-miterlimit="10" stroke-linecap="round" stroke-linejoin="round"/>
<path d="M123.698 204.852L106.404 206.739L107.573 219.058L124.951 214.711L123.698 204.852Z" stroke="#CCCCCC" stroke-width="0.6" stroke-miterlimit="10" stroke-linecap="round" stroke-linejoin="round"/>
<path d="M106.404 206.74L90.1258 210.508L91.0924 225.491L107.574 219.058L106.404 206.74Z" stroke="#CCCCCC" stroke-width="0.6" stroke-miterlimit="10" stroke-linecap="round" stroke-linejoin="round"/>
<path d="M90.1258 210.509L75.7786 215.917L76.4514 233.652L91.0923 225.492L90.1258 210.509Z" stroke="#CCCCCC" stroke-width="0.6" stroke-miterlimit="10" stroke-linecap="round" stroke-linejoin="round"/>
<path d="M75.7782 215.918L64.1026 222.621L64.4409 243.051L76.452 233.652L75.7782 215.918Z" stroke="#CCCCCC" stroke-width="0.6" stroke-miterlimit="10" stroke-linecap="round" stroke-linejoin="round"/>
<path d="M64.1018 222.621L55.5952 230.201L55.6289 253.136L64.4419 243.051L64.1018 222.621Z" stroke="#CCCCCC" stroke-width="0.6" stroke-miterlimit="10" stroke-linecap="round" stroke-linejoin="round"/>
<path d="M190.958 220.472L184.079 215.831L184.992 219.732L191.857 224.148L190.958 220.472Z" stroke="#CCCCCC" stroke-width="0.6" stroke-miterlimit="10" stroke-linecap="round" stroke-linejoin="round"/>
<path d="M184.993 219.733L172.95 215.363L174.946 219.531L186.721 223.188L184.993 219.733Z" stroke="#CCCCCC" stroke-width="0.6" stroke-miterlimit="10" stroke-linecap="round" stroke-linejoin="round"/>
<path d="M172.95 215.363L158.5 212.92L160.893 218.248L174.944 219.531L172.95 215.363Z" stroke="#CCCCCC" stroke-width="0.6" stroke-miterlimit="10" stroke-linecap="round" stroke-linejoin="round"/>
<path d="M158.5 212.919L142.238 212.659L145.095 219.582L160.893 218.248L158.5 212.919Z" stroke="#CCCCCC" stroke-width="0.6" stroke-miterlimit="10" stroke-linecap="round" stroke-linejoin="round"/>
<path d="M142.238 212.658L124.951 214.712L128.274 223.636L145.095 219.581L142.238 212.658Z" stroke="#CCCCCC" stroke-width="0.6" stroke-miterlimit="10" stroke-linecap="round" stroke-linejoin="round"/>
<path d="M124.951 214.713L107.574 219.059L111.298 230.325L128.275 223.636L124.951 214.713Z" stroke="#CCCCCC" stroke-width="0.6" stroke-miterlimit="10" stroke-linecap="round" stroke-linejoin="round"/>
<path d="M107.572 219.058L91.092 225.492L95.1208 239.367L111.297 230.326L107.572 219.058Z" stroke="#CCCCCC" stroke-width="0.6" stroke-miterlimit="10" stroke-linecap="round" stroke-linejoin="round"/>
<path d="M91.0931 225.492L76.4522 233.652L80.6778 250.29L95.1218 239.368L91.0931 225.492Z" stroke="#CCCCCC" stroke-width="0.6" stroke-miterlimit="10" stroke-linecap="round" stroke-linejoin="round"/>
<path d="M76.4517 233.652L64.4415 243.051L68.7888 262.462L80.6782 250.288L76.4517 233.652Z" stroke="#CCCCCC" stroke-width="0.6" stroke-miterlimit="10" stroke-linecap="round" stroke-linejoin="round"/>
<path d="M64.4417 243.05L55.6287 253.135L60.0684 275.185L68.789 262.462L64.4417 243.05Z" stroke="#CCCCCC" stroke-width="0.6" stroke-miterlimit="10" stroke-linecap="round" stroke-linejoin="round"/>
<path d="M191.857 224.149L184.993 219.731L186.721 223.189L192.626 226.853L193.154 226.69L191.857 224.149Z" stroke="#CCCCCC" stroke-width="0.6" stroke-miterlimit="10" stroke-linecap="round" stroke-linejoin="round"/>
<path d="M186.72 223.189L174.943 219.531L177.878 222.997L189.218 226.059L186.72 223.189Z" stroke="#CCCCCC" stroke-width="0.6" stroke-miterlimit="10" stroke-linecap="round" stroke-linejoin="round"/>
<path d="M174.945 219.53L160.894 218.247L164.505 222.698L177.88 222.996L174.945 219.53Z" stroke="#CCCCCC" stroke-width="0.6" stroke-miterlimit="10" stroke-linecap="round" stroke-linejoin="round"/>
<path d="M160.894 218.247L145.096 219.582L149.554 225.413L164.504 222.698L160.894 218.247Z" stroke="#CCCCCC" stroke-width="0.6" stroke-miterlimit="10" stroke-linecap="round" stroke-linejoin="round"/>
<path d="M145.095 219.581L128.274 223.636L133.667 231.232L149.553 225.412L145.095 219.581Z" stroke="#CCCCCC" stroke-width="0.6" stroke-miterlimit="10" stroke-linecap="round" stroke-linejoin="round"/>
<path d="M128.275 223.635L111.299 230.325L117.64 240.054L133.67 231.232L128.275 223.635Z" stroke="#CCCCCC" stroke-width="0.6" stroke-miterlimit="10" stroke-linecap="round" stroke-linejoin="round"/>
<path d="M111.298 230.325L95.1208 239.368L102.348 251.535L117.639 240.054L111.298 230.325Z" stroke="#CCCCCC" stroke-width="0.6" stroke-miterlimit="10" stroke-linecap="round" stroke-linejoin="round"/>
<path d="M95.1214 239.368L80.6782 250.289L88.6953 265.116L102.349 251.536L95.1214 239.368Z" stroke="#CCCCCC" stroke-width="0.6" stroke-miterlimit="10" stroke-linecap="round" stroke-linejoin="round"/>
<path d="M80.6775 250.29L68.7881 262.464L77.4922 280.044L88.6946 265.117L80.6775 250.29Z" stroke="#CCCCCC" stroke-width="0.6" stroke-miterlimit="10" stroke-linecap="round" stroke-linejoin="round"/>
<path d="M68.7879 262.462L60.0663 275.185L69.375 295.456L77.492 280.042L68.7879 262.462Z" stroke="#CCCCCC" stroke-width="0.6" stroke-miterlimit="10" stroke-linecap="round" stroke-linejoin="round"/>
<path d="M192.624 226.855L186.719 223.188L189.218 226.059L191.233 227.283L192.624 226.855Z" stroke="#CCCCCC" stroke-width="0.6" stroke-miterlimit="10" stroke-linecap="round" stroke-linejoin="round"/>
<path d="M189.219 226.058L177.88 222.996L181.669 225.606L190.057 227.644L191.093 227.326L189.219 226.058Z" stroke="#CCCCCC" stroke-width="0.6" stroke-miterlimit="10" stroke-linecap="round" stroke-linejoin="round"/>
<path d="M177.88 222.997L164.504 222.7L169.237 226.068L181.67 225.606L177.88 222.997Z" stroke="#CCCCCC" stroke-width="0.6" stroke-miterlimit="10" stroke-linecap="round" stroke-linejoin="round"/>
<path d="M164.503 222.699L149.553 225.413L155.513 229.871L169.236 226.069L164.503 222.699Z" stroke="#CCCCCC" stroke-width="0.6" stroke-miterlimit="10" stroke-linecap="round" stroke-linejoin="round"/>
<path d="M149.552 225.413L133.667 231.233L141.052 237.125L155.512 229.87L149.552 225.413Z" stroke="#CCCCCC" stroke-width="0.6" stroke-miterlimit="10" stroke-linecap="round" stroke-linejoin="round"/>
<path d="M133.667 231.234L117.638 240.055L126.548 247.734L141.051 237.126L133.667 231.234Z" stroke="#CCCCCC" stroke-width="0.6" stroke-miterlimit="10" stroke-linecap="round" stroke-linejoin="round"/>
<path d="M117.639 240.055L102.348 251.536L112.798 261.343L126.55 247.735L117.639 240.055Z" stroke="#CCCCCC" stroke-width="0.6" stroke-miterlimit="10" stroke-linecap="round" stroke-linejoin="round"/>
<path d="M102.348 251.535L88.6948 265.116L100.623 277.329L112.799 261.342L102.348 251.535Z" stroke="#CCCCCC" stroke-width="0.6" stroke-miterlimit="10" stroke-linecap="round" stroke-linejoin="round"/>
<path d="M88.6942 265.117L77.4918 280.044L90.7891 294.841L100.621 277.329L88.6942 265.117Z" stroke="#CCCCCC" stroke-width="0.6" stroke-miterlimit="10" stroke-linecap="round" stroke-linejoin="round"/>
<path d="M77.4932 280.044L69.3763 295.458L83.9102 312.862L90.7896 294.841L77.4932 280.044Z" stroke="#CCCCCC" stroke-width="0.6" stroke-miterlimit="10" stroke-linecap="round" stroke-linejoin="round"/>
<path d="M191.234 227.283L189.219 226.058L191.093 227.326L191.234 227.283Z" stroke="#CCCCCC" stroke-width="0.6" stroke-miterlimit="10" stroke-linecap="round" stroke-linejoin="round"/>
<path d="M190.057 227.644L181.67 225.606L186.187 227.231L190.055 227.645L190.057 227.644Z" stroke="#CCCCCC" stroke-width="0.6" stroke-miterlimit="10" stroke-linecap="round" stroke-linejoin="round"/>
<path d="M181.67 225.606L169.236 226.068L174.946 228.179L186.187 227.231L181.67 225.606Z" stroke="#CCCCCC" stroke-width="0.6" stroke-miterlimit="10" stroke-linecap="round" stroke-linejoin="round"/>
<path d="M169.235 226.069L155.512 229.871L162.802 232.705L174.944 228.18L169.235 226.069Z" stroke="#CCCCCC" stroke-width="0.6" stroke-miterlimit="10" stroke-linecap="round" stroke-linejoin="round"/>
<path d="M155.512 229.87L141.051 237.126L150.242 240.958L162.802 232.704L155.512 229.87Z" stroke="#CCCCCC" stroke-width="0.6" stroke-miterlimit="10" stroke-linecap="round" stroke-linejoin="round"/>
<path d="M141.052 237.125L126.549 247.735L137.856 252.876L150.243 240.957L141.052 237.125Z" stroke="#CCCCCC" stroke-width="0.6" stroke-miterlimit="10" stroke-linecap="round" stroke-linejoin="round"/>
<path d="M126.548 247.734L112.797 261.341L126.332 268.127L137.856 252.876L126.548 247.734Z" stroke="#CCCCCC" stroke-width="0.6" stroke-miterlimit="10" stroke-linecap="round" stroke-linejoin="round"/>
<path d="M112.798 261.343L100.622 277.33L116.39 286.075L126.333 268.128L112.798 261.343Z" stroke="#CCCCCC" stroke-width="0.6" stroke-miterlimit="10" stroke-linecap="round" stroke-linejoin="round"/>
<path d="M100.622 277.328L90.79 294.84L108.705 305.791L116.392 286.074L100.622 277.328Z" stroke="#CCCCCC" stroke-width="0.6" stroke-miterlimit="10" stroke-linecap="round" stroke-linejoin="round"/>
<path d="M90.7886 294.841L83.9091 312.862L103.811 326.139L108.705 305.793L90.7886 294.841Z" stroke="#CCCCCC" stroke-width="0.6" stroke-miterlimit="10" stroke-linecap="round" stroke-linejoin="round"/>
<path d="M186.186 227.231L174.944 228.179L181.421 228.899L188.669 228.073L190.053 227.647L186.186 227.231Z" stroke="#CCCCCC" stroke-width="0.6" stroke-miterlimit="10" stroke-linecap="round" stroke-linejoin="round"/>
<path d="M174.945 228.179L162.803 232.704L171.175 233.717L181.422 228.899L174.945 228.179Z" stroke="#CCCCCC" stroke-width="0.6" stroke-miterlimit="10" stroke-linecap="round" stroke-linejoin="round"/>
<path d="M162.804 232.704L150.244 240.957L160.945 242.434L171.177 233.717L162.804 232.704Z" stroke="#CCCCCC" stroke-width="0.6" stroke-miterlimit="10" stroke-linecap="round" stroke-linejoin="round"/>
<path d="M150.243 240.957L137.857 252.874L151.233 255.047L160.944 242.434L150.243 240.957Z" stroke="#CCCCCC" stroke-width="0.6" stroke-miterlimit="10" stroke-linecap="round" stroke-linejoin="round"/>
<path d="M137.857 252.877L126.333 268.128L142.61 271.28L151.231 255.049L137.857 252.877Z" stroke="#CCCCCC" stroke-width="0.6" stroke-miterlimit="10" stroke-linecap="round" stroke-linejoin="round"/>
<path d="M126.334 268.127L116.391 286.075L135.673 290.514L142.611 271.278L126.334 268.127Z" stroke="#CCCCCC" stroke-width="0.6" stroke-miterlimit="10" stroke-linecap="round" stroke-linejoin="round"/>
<path d="M116.391 286.076L108.705 305.793L130.954 311.815L135.673 290.517L116.391 286.076Z" stroke="#CCCCCC" stroke-width="0.6" stroke-miterlimit="10" stroke-linecap="round" stroke-linejoin="round"/>
<path d="M108.706 305.791L103.814 326.138L128.861 333.946L130.954 311.813L108.706 305.791Z" stroke="#CCCCCC" stroke-width="0.6" stroke-miterlimit="10" stroke-linecap="round" stroke-linejoin="round"/>
<path d="M188.669 228.073L181.42 228.898L188.415 228.151L188.669 228.073Z" stroke="#CCCCCC" stroke-width="0.6" stroke-miterlimit="10" stroke-linecap="round" stroke-linejoin="round"/>
<path d="M181.421 228.898L171.176 233.718L180.303 232.788L188.415 228.15L181.421 228.898Z" stroke="#CCCCCC" stroke-width="0.6" stroke-miterlimit="10" stroke-linecap="round" stroke-linejoin="round"/>
<path d="M171.175 233.719L160.943 242.436L172.744 241.359L180.303 232.789L171.175 233.719Z" stroke="#CCCCCC" stroke-width="0.6" stroke-miterlimit="10" stroke-linecap="round" stroke-linejoin="round"/>
<path d="M160.943 242.436L151.232 255.049L166.17 253.93L172.745 241.36L160.943 242.436Z" stroke="#CCCCCC" stroke-width="0.6" stroke-miterlimit="10" stroke-linecap="round" stroke-linejoin="round"/>
<path d="M151.231 255.048L142.61 271.279L161.043 270.304L166.17 253.929L151.231 255.048Z" stroke="#CCCCCC" stroke-width="0.6" stroke-miterlimit="10" stroke-linecap="round" stroke-linejoin="round"/>
<path d="M142.611 271.278L135.673 290.516L157.81 289.943L161.045 270.304L142.611 271.278Z" stroke="#CCCCCC" stroke-width="0.6" stroke-miterlimit="10" stroke-linecap="round" stroke-linejoin="round"/>
<path d="M135.671 290.517L130.952 311.815L156.831 311.933L157.808 289.944L135.671 290.517Z" stroke="#CCCCCC" stroke-width="0.6" stroke-miterlimit="10" stroke-linecap="round" stroke-linejoin="round"/>
<path d="M130.953 311.814L128.86 333.946L158.324 335.022L156.832 311.932L130.953 311.814Z" stroke="#CCCCCC" stroke-width="0.6" stroke-miterlimit="10" stroke-linecap="round" stroke-linejoin="round"/>
<path d="M188.416 228.151L180.305 232.789L189.795 229.886L195.633 225.929L193.154 226.691L192.626 226.854L191.235 227.283L191.093 227.326L190.056 227.645L188.67 228.073L188.416 228.151Z" stroke="#CCCCCC" stroke-width="0.6" stroke-miterlimit="10" stroke-linecap="round" stroke-linejoin="round"/>
<path d="M180.305 232.789L172.746 241.359L185.129 237.654L189.796 229.886L180.305 232.789Z" stroke="#CCCCCC" stroke-width="0.6" stroke-miterlimit="10" stroke-linecap="round" stroke-linejoin="round"/>
<path d="M172.745 241.36L166.171 253.93L182.01 249.371L185.129 237.654L172.745 241.36Z" stroke="#CCCCCC" stroke-width="0.6" stroke-miterlimit="10" stroke-linecap="round" stroke-linejoin="round"/>
<path d="M166.17 253.929L161.044 270.305L180.798 264.934L182.009 249.371L166.17 253.929Z" stroke="#CCCCCC" stroke-width="0.6" stroke-miterlimit="10" stroke-linecap="round" stroke-linejoin="round"/>
<path d="M161.043 270.303L157.809 289.942L181.794 283.905L180.799 264.932L161.043 270.303Z" stroke="#CCCCCC" stroke-width="0.6" stroke-miterlimit="10" stroke-linecap="round" stroke-linejoin="round"/>
<path d="M157.808 289.942L156.831 311.931L185.16 305.467L181.794 283.906L157.808 289.942Z" stroke="#CCCCCC" stroke-width="0.6" stroke-miterlimit="10" stroke-linecap="round" stroke-linejoin="round"/>
<path d="M156.832 311.932L158.323 335.023L190.869 328.418L185.161 305.469L156.832 311.932Z" stroke="#CCCCCC" stroke-width="0.6" stroke-miterlimit="10" stroke-linecap="round" stroke-linejoin="round"/>
<path d="M195.632 225.928L189.794 229.886L199.212 225.09L202.751 222.296L195.632 225.928Z" stroke="#CCCCCC" stroke-width="0.6" stroke-miterlimit="10" stroke-linecap="round" stroke-linejoin="round"/>
<path d="M189.796 229.886L185.13 237.653L197.5 231.403L199.214 225.089L189.796 229.886Z" stroke="#CCCCCC" stroke-width="0.6" stroke-miterlimit="10" stroke-linecap="round" stroke-linejoin="round"/>
<path d="M185.129 237.654L182.011 249.371L197.949 241.44L197.5 231.403L185.129 237.654Z" stroke="#CCCCCC" stroke-width="0.6" stroke-miterlimit="10" stroke-linecap="round" stroke-linejoin="round"/>
<path d="M182.01 249.37L180.799 264.933L200.833 255.193L197.948 241.439L182.01 249.37Z" stroke="#CCCCCC" stroke-width="0.6" stroke-miterlimit="10" stroke-linecap="round" stroke-linejoin="round"/>
<path d="M180.799 264.934L181.795 283.907L206.301 272.354L200.832 255.195L180.799 264.934Z" stroke="#CCCCCC" stroke-width="0.6" stroke-miterlimit="10" stroke-linecap="round" stroke-linejoin="round"/>
<path d="M181.794 283.907L185.161 305.469L214.307 292.238L206.3 272.354L181.794 283.907Z" stroke="#CCCCCC" stroke-width="0.6" stroke-miterlimit="10" stroke-linecap="round" stroke-linejoin="round"/>
<path d="M185.162 305.469L190.871 328.417L224.554 313.775L214.309 292.237L185.162 305.469Z" stroke="#CCCCCC" stroke-width="0.6" stroke-miterlimit="10" stroke-linecap="round" stroke-linejoin="round"/>
<path d="M202.753 222.296L199.214 225.089L208.104 218.588L208.877 217.819L202.753 222.296Z" stroke="#CCCCCC" stroke-width="0.6" stroke-miterlimit="10" stroke-linecap="round" stroke-linejoin="round"/>
<path d="M199.214 225.089L197.5 231.403L209.226 222.855L208.104 218.588L199.214 225.089Z" stroke="#CCCCCC" stroke-width="0.6" stroke-miterlimit="10" stroke-linecap="round" stroke-linejoin="round"/>
<path d="M197.499 231.404L197.947 241.441L213.114 230.453L209.225 222.857L197.499 231.404Z" stroke="#CCCCCC" stroke-width="0.6" stroke-miterlimit="10" stroke-linecap="round" stroke-linejoin="round"/>
<path d="M197.948 241.439L200.834 255.194L219.97 241.462L213.115 230.451L197.948 241.439Z" stroke="#CCCCCC" stroke-width="0.6" stroke-miterlimit="10" stroke-linecap="round" stroke-linejoin="round"/>
<path d="M200.832 255.194L206.3 272.354L229.794 255.712L219.969 241.461L200.832 255.194Z" stroke="#CCCCCC" stroke-width="0.6" stroke-miterlimit="10" stroke-linecap="round" stroke-linejoin="round"/>
<path d="M206.301 272.353L214.307 292.237L242.33 272.698L229.795 255.711L206.301 272.353Z" stroke="#CCCCCC" stroke-width="0.6" stroke-miterlimit="10" stroke-linecap="round" stroke-linejoin="round"/>
<path d="M214.307 292.237L224.554 313.775L257.003 291.553L242.33 272.699L214.307 292.237Z" stroke="#CCCCCC" stroke-width="0.6" stroke-miterlimit="10" stroke-linecap="round" stroke-linejoin="round"/>
<path d="M208.104 218.588L209.225 222.855L219.689 212.417L216.031 210.678L215.83 210.879L208.877 217.818L208.104 218.588Z" stroke="#CCCCCC" stroke-width="0.6" stroke-miterlimit="10" stroke-linecap="round" stroke-linejoin="round"/>
<path d="M209.225 222.854L213.115 230.451L226.654 216.955L219.689 212.416L209.225 222.854Z" stroke="#CCCCCC" stroke-width="0.6" stroke-miterlimit="10" stroke-linecap="round" stroke-linejoin="round"/>
<path d="M213.115 230.452L219.971 241.461L237.043 224.463L226.654 216.955L213.115 230.452Z" stroke="#CCCCCC" stroke-width="0.6" stroke-miterlimit="10" stroke-linecap="round" stroke-linejoin="round"/>
<path d="M219.969 241.463L229.794 255.714L250.721 234.908L237.041 224.464L219.969 241.463Z" stroke="#CCCCCC" stroke-width="0.6" stroke-miterlimit="10" stroke-linecap="round" stroke-linejoin="round"/>
<path d="M229.795 255.713L242.332 272.698L267.232 247.99L250.722 234.908L229.795 255.713Z" stroke="#CCCCCC" stroke-width="0.6" stroke-miterlimit="10" stroke-linecap="round" stroke-linejoin="round"/>
<path d="M242.331 272.699L257.004 291.554L285.744 263.096L267.231 247.991L242.331 272.699Z" stroke="#CCCCCC" stroke-width="0.6" stroke-miterlimit="10" stroke-linecap="round" stroke-linejoin="round"/>
<path d="M216.03 210.679L219.688 212.418L228.347 200.627L222.606 201.743L220.366 204.786L216.03 210.679Z" stroke="#CCCCCC" stroke-width="0.6" stroke-miterlimit="10" stroke-linecap="round" stroke-linejoin="round"/>
<path d="M219.689 212.418L226.654 216.957L237.809 201.697L228.348 200.627L219.689 212.418Z" stroke="#CCCCCC" stroke-width="0.6" stroke-miterlimit="10" stroke-linecap="round" stroke-linejoin="round"/>
<path d="M226.655 216.956L237.044 224.463L251.021 205.206L237.81 201.697L226.655 216.956Z" stroke="#CCCCCC" stroke-width="0.6" stroke-miterlimit="10" stroke-linecap="round" stroke-linejoin="round"/>
<path d="M237.043 224.464L250.722 234.909L267.716 211.272L251.02 205.207L237.043 224.464Z" stroke="#CCCCCC" stroke-width="0.6" stroke-miterlimit="10" stroke-linecap="round" stroke-linejoin="round"/>
<path d="M250.722 234.908L267.231 247.991L287.258 219.813L267.714 211.273L250.722 234.908Z" stroke="#CCCCCC" stroke-width="0.6" stroke-miterlimit="10" stroke-linecap="round" stroke-linejoin="round"/>
<path d="M267.231 247.989L285.744 263.094L308.611 230.49L287.257 219.812L267.231 247.989Z" stroke="#CCCCCC" stroke-width="0.6" stroke-miterlimit="10" stroke-linecap="round" stroke-linejoin="round"/>
<path d="M220.355 204.729L215.83 210.88L216.031 210.679L220.367 204.786L220.355 204.729Z" stroke="#CCCCCC" stroke-width="0.6" stroke-miterlimit="10" stroke-linecap="round" stroke-linejoin="round"/>
<path d="M220.355 204.729L222.607 201.744" stroke="#CCCCCC" stroke-width="0.6" stroke-miterlimit="10" stroke-linecap="round" stroke-linejoin="round"/>
<path d="M220.355 204.729L222.607 201.744L227.528 192.217L224.075 197.538L220.355 204.729Z" stroke="#CCCCCC" stroke-width="0.6" stroke-miterlimit="10" stroke-linecap="round" stroke-linejoin="round"/>
<path d="M222.606 201.743L228.346 200.626L234.778 188.098L227.527 192.217L222.606 201.743Z" stroke="#CCCCCC" stroke-width="0.6" stroke-miterlimit="10" stroke-linecap="round" stroke-linejoin="round"/>
<path d="M228.348 200.627L237.809 201.698L246.002 185.536L234.779 188.098L228.348 200.627Z" stroke="#CCCCCC" stroke-width="0.6" stroke-miterlimit="10" stroke-linecap="round" stroke-linejoin="round"/>
<path d="M237.808 201.697L251.019 205.207L261.131 184.87L245.999 185.535L237.808 201.697Z" stroke="#CCCCCC" stroke-width="0.6" stroke-miterlimit="10" stroke-linecap="round" stroke-linejoin="round"/>
<path d="M251.02 205.207L267.716 211.272L279.782 186.373L261.132 184.871L251.02 205.207Z" stroke="#CCCCCC" stroke-width="0.6" stroke-miterlimit="10" stroke-linecap="round" stroke-linejoin="round"/>
<path d="M267.714 211.271L287.258 219.811L301.169 190.176L279.781 186.372L267.714 211.271Z" stroke="#CCCCCC" stroke-width="0.6" stroke-miterlimit="10" stroke-linecap="round" stroke-linejoin="round"/>
<path d="M287.258 219.811L308.611 230.49L324.121 196.23L301.169 190.176L287.258 219.811Z" stroke="#CCCCCC" stroke-width="0.6" stroke-miterlimit="10" stroke-linecap="round" stroke-linejoin="round"/>
<path d="M224.074 197.538L227.528 192.217L230.592 182.565L226.411 190.212L226.182 190.931L225.864 191.926L225.537 192.951L224.074 197.538Z" stroke="#CCCCCC" stroke-width="0.6" stroke-miterlimit="10" stroke-linecap="round" stroke-linejoin="round"/>
<path d="M227.527 192.216L234.779 188.097L238.713 175.48L230.591 182.564L227.527 192.216Z" stroke="#CCCCCC" stroke-width="0.6" stroke-miterlimit="10" stroke-linecap="round" stroke-linejoin="round"/>
<path d="M234.779 188.097L245.999 185.535L250.882 169.364L238.714 175.479L234.779 188.097Z" stroke="#CCCCCC" stroke-width="0.6" stroke-miterlimit="10" stroke-linecap="round" stroke-linejoin="round"/>
<path d="M246 185.536L261.132 184.871L266.946 164.661L250.883 169.365L246 185.536Z" stroke="#CCCCCC" stroke-width="0.6" stroke-miterlimit="10" stroke-linecap="round" stroke-linejoin="round"/>
<path d="M261.132 184.87L279.781 186.371L286.409 161.79L266.946 164.66L261.132 184.87Z" stroke="#CCCCCC" stroke-width="0.6" stroke-miterlimit="10" stroke-linecap="round" stroke-linejoin="round"/>
<path d="M279.781 186.373L301.169 190.177L308.393 161.101L286.409 161.79L279.781 186.373Z" stroke="#CCCCCC" stroke-width="0.6" stroke-miterlimit="10" stroke-linecap="round" stroke-linejoin="round"/>
<path d="M301.169 190.177L324.12 196.231L331.662 162.788L308.393 161.099L301.169 190.177Z" stroke="#CCCCCC" stroke-width="0.6" stroke-miterlimit="10" stroke-linecap="round" stroke-linejoin="round"/>
<path d="M226.412 190.212L230.593 182.565L231.706 173.234L227.292 183.079L226.412 190.212Z" stroke="#CCCCCC" stroke-width="0.6" stroke-miterlimit="10" stroke-linecap="round" stroke-linejoin="round"/>
<path d="M230.591 182.564L238.712 175.479L240.045 163.386L231.704 173.234L230.591 182.564Z" stroke="#CCCCCC" stroke-width="0.6" stroke-miterlimit="10" stroke-linecap="round" stroke-linejoin="round"/>
<path d="M238.712 175.48L250.88 169.365L252.349 154.015L240.045 163.387L238.712 175.48Z" stroke="#CCCCCC" stroke-width="0.6" stroke-miterlimit="10" stroke-linecap="round" stroke-linejoin="round"/>
<path d="M250.882 169.364L266.946 164.659L268.386 145.67L252.35 154.015L250.882 169.364Z" stroke="#CCCCCC" stroke-width="0.6" stroke-miterlimit="10" stroke-linecap="round" stroke-linejoin="round"/>
<path d="M266.947 164.661L286.41 161.79L287.581 138.928L268.386 145.671L266.947 164.661Z" stroke="#CCCCCC" stroke-width="0.6" stroke-miterlimit="10" stroke-linecap="round" stroke-linejoin="round"/>
<path d="M286.409 161.79L308.394 161.1L309.013 134.319L287.58 138.929L286.409 161.79Z" stroke="#CCCCCC" stroke-width="0.6" stroke-miterlimit="10" stroke-linecap="round" stroke-linejoin="round"/>
<path d="M308.393 161.099L331.663 162.787L331.46 132.245L309.013 134.318L308.393 161.099Z" stroke="#CCCCCC" stroke-width="0.6" stroke-miterlimit="10" stroke-linecap="round" stroke-linejoin="round"/>
<path d="M294.594 69.8604L311.594 85.3604L324.094 105.86L331.594 131.86V162.86L324.094 195.86L308.594 230.36L285.594 262.86L257.094 291.36L224.594 313.86L191.094 328.36L158.594 334.86L128.594 333.86L103.594 325.86L83.5938 312.36L69.0938 295.36L60.0938 274.86L55.5938 252.86V229.86L59.5938 207.36L67.0938 184.36L77.0938 162.36L90.5938 141.36L105.594 122.36L123.094 104.86L142.094 89.3604L162.594 76.3604L184.094 65.8604L207.094 58.3604L229.594 54.3604L252.594 54.8604L274.594 59.8604L294.594 69.8604Z" stroke="#CCCCCC" stroke-width="1.4"/>
</svg>
