<svg width="177" height="219" viewBox="0 0 177 219" fill="none" xmlns="http://www.w3.org/2000/svg">
<path d="M175.532 45.6551L172.609 57.2962L173.153 184.407L176.077 172.766L175.532 45.6551Z" stroke="#CCCCCC" stroke-width="0.6" stroke-miterlimit="10" stroke-linecap="round" stroke-linejoin="round"/>
<path d="M172.608 57.2949L175.53 45.6539L172.508 34.0332L163.742 23.2246L149.834 13.9618L131.733 6.88329L110.666 2.46471L88.0722 1.00801L65.4963 2.61804L44.4642 7.18058L26.421 14.3827L12.5914 23.7393L3.92591 34.6074L1 46.2469L4.02589 57.8692L12.7843 68.6762L26.6929 77.939L44.7992 85.0175L65.8647 89.4376L88.4546 90.8896L111.037 89.2827L132.068 84.7202L150.106 77.5197L163.935 68.163L172.608 57.2949Z" stroke="#CCCCCC" stroke-width="0.6" stroke-miterlimit="10" stroke-linecap="round" stroke-linejoin="round"/>
<path d="M164.479 195.274L173.152 184.406L172.61 57.2953L163.936 68.1634L164.479 195.274Z" stroke="#CCCCCC" stroke-width="0.6" stroke-miterlimit="10" stroke-linecap="round" stroke-linejoin="round"/>
<path d="M132.61 211.833L150.648 204.632L150.106 77.5214L132.066 84.722L132.61 211.833Z" stroke="#CCCCCC" stroke-width="0.6" stroke-miterlimit="10" stroke-linecap="round" stroke-linejoin="round"/>
<path d="M150.649 204.632L164.479 195.275L163.935 68.1641L150.105 77.5208L150.649 204.632Z" stroke="#CCCCCC" stroke-width="0.6" stroke-miterlimit="10" stroke-linecap="round" stroke-linejoin="round"/>
<path d="M111.583 216.396L132.612 211.831L132.069 84.7219L111.039 89.2845L111.583 216.396Z" stroke="#CCCCCC" stroke-width="0.6" stroke-miterlimit="10" stroke-linecap="round" stroke-linejoin="round"/>
<path d="M66.4108 216.551L89.0006 218.003L88.4551 90.8919L65.8652 89.4399L66.4108 216.551Z" stroke="#CCCCCC" stroke-width="0.6" stroke-miterlimit="10" stroke-linecap="round" stroke-linejoin="round"/>
<path d="M89.0006 218.001L111.582 216.396L111.038 89.2846L88.4551 90.8899L89.0006 218.001Z" stroke="#CCCCCC" stroke-width="0.6" stroke-miterlimit="10" stroke-linecap="round" stroke-linejoin="round"/>
<path d="M27.2371 205.053L45.3417 212.13L44.7996 85.0204L26.6934 77.9419L27.2371 205.053Z" stroke="#CCCCCC" stroke-width="0.6" stroke-miterlimit="10" stroke-linecap="round" stroke-linejoin="round"/>
<path d="M13.3289 195.789L27.2393 205.052L26.6955 77.9407L12.7852 68.678L13.3289 195.789Z" stroke="#CCCCCC" stroke-width="0.6" stroke-miterlimit="10" stroke-linecap="round" stroke-linejoin="round"/>
<path d="M45.3426 212.13L66.4116 216.55L65.8661 89.4387L44.7988 85.0186L45.3426 212.13Z" stroke="#CCCCCC" stroke-width="0.6" stroke-miterlimit="10" stroke-linecap="round" stroke-linejoin="round"/>
<path d="M4.56918 184.981L13.3276 195.79L12.7856 68.679L4.02539 57.8703L4.56918 184.981Z" stroke="#CCCCCC" stroke-width="0.6" stroke-miterlimit="10" stroke-linecap="round" stroke-linejoin="round"/>
<path d="M1.54554 173.361L4.56968 184.981L4.0259 57.8704L1 46.2497L1.54554 173.361Z" stroke="#CCCCCC" stroke-width="0.6" stroke-miterlimit="10" stroke-linecap="round" stroke-linejoin="round"/>
<path d="M88.4564 90.8896L88.0723 1.00958" stroke="#CCCCCC" stroke-width="0.6" stroke-miterlimit="10" stroke-linecap="round" stroke-linejoin="round"/>
<path d="M110.668 2.46554L65.8672 89.4385" stroke="#CCCCCC" stroke-width="0.6" stroke-miterlimit="10" stroke-linecap="round" stroke-linejoin="round"/>
<path d="M65.4961 2.61947L111.039 89.2842" stroke="#CCCCCC" stroke-width="0.6" stroke-miterlimit="10" stroke-linecap="round" stroke-linejoin="round"/>
<path d="M44.4648 7.18205L132.067 84.7217" stroke="#CCCCCC" stroke-width="0.6" stroke-miterlimit="10" stroke-linecap="round" stroke-linejoin="round"/>
<path d="M150.107 77.5205L26.4219 14.382" stroke="#CCCCCC" stroke-width="0.6" stroke-miterlimit="10" stroke-linecap="round" stroke-linejoin="round"/>
<path d="M12.5938 23.7394L163.936 68.1631" stroke="#CCCCCC" stroke-width="0.6" stroke-miterlimit="10" stroke-linecap="round" stroke-linejoin="round"/>
<path d="M3.92578 34.6084L172.608 57.2959" stroke="#CCCCCC" stroke-width="0.6" stroke-miterlimit="10" stroke-linecap="round" stroke-linejoin="round"/>
<path d="M175.53 45.6553H1" stroke="#CCCCCC" stroke-width="0.6" stroke-miterlimit="10" stroke-linecap="round" stroke-linejoin="round"/>
<path d="M4.02734 57.8701L172.511 34.0357" stroke="#CCCCCC" stroke-width="0.6" stroke-miterlimit="10" stroke-linecap="round" stroke-linejoin="round"/>
<path d="M12.7852 68.6787L163.745 23.227" stroke="#CCCCCC" stroke-width="0.6" stroke-miterlimit="10" stroke-linecap="round" stroke-linejoin="round"/>
<path d="M26.6953 77.9404L149.834 13.9632" stroke="#CCCCCC" stroke-width="0.6" stroke-miterlimit="10" stroke-linecap="round" stroke-linejoin="round"/>
<path d="M44.8008 85.0186L131.736 6.88436" stroke="#CCCCCC" stroke-width="0.6" stroke-miterlimit="10" stroke-linecap="round" stroke-linejoin="round"/>
<path d="M124.334 52.4728L125.569 47.5535L124.292 42.6421L120.587 38.0749L114.709 34.1601L107.061 31.17L98.1572 29.3018L88.6094 28.6869L79.0686 29.3676L70.1821 31.2952L62.5568 34.3385L56.712 38.2924L53.0494 42.8862L51.8145 47.8055L53.0932 52.7153L56.7945 57.2826L62.6726 61.1973L70.3242 64.1874L79.2264 66.0556L88.7725 66.6689L98.315 65.9915L107.202 64.0622L114.825 61.019L120.668 57.0651L124.334 52.4728Z" stroke="#CCCCCC" stroke-width="0.6" stroke-miterlimit="10" stroke-linecap="round" stroke-linejoin="round"/>
<path d="M1 46.7153L4.0259 58.336L12.7843 69.1446L26.6929 78.4074L44.7992 85.4859L65.8665 89.906L88.4546 91.3564L111.037 89.7511L132.068 85.1886L150.106 77.988L163.935 68.6298L172.608 57.7633L175.53 46.1223" stroke="#CCCCCC" stroke-width="0.6" stroke-miterlimit="10" stroke-linecap="round" stroke-linejoin="round"/>
<path d="M1 67.8031L4.0259 79.4238L12.7843 90.2325L26.6929 99.4952L44.7992 106.574L65.8665 110.994L88.4546 112.444L111.037 110.839L132.068 106.276L150.106 99.0759L163.935 89.7177L172.608 78.8512L175.53 67.2101" stroke="#CCCCCC" stroke-width="0.6" stroke-miterlimit="10" stroke-linecap="round" stroke-linejoin="round"/>
<path d="M1 88.891L4.0259 100.512L12.7843 111.32L26.6929 120.583L44.7992 127.66L65.8665 132.08L88.4546 133.532L111.037 131.927L132.068 127.363L150.106 120.162L163.935 110.806L172.608 99.9375L175.53 88.2965" stroke="#CCCCCC" stroke-width="0.6" stroke-miterlimit="10" stroke-linecap="round" stroke-linejoin="round"/>
<path d="M1 109.981L4.0259 121.602L12.7843 132.41L26.6929 141.673L44.7992 148.75L65.8665 153.17L88.4546 154.622L111.037 153.017L132.068 148.454L150.106 141.252L163.935 131.895L172.608 121.027L175.53 109.386" stroke="#CCCCCC" stroke-width="0.6" stroke-miterlimit="10" stroke-linecap="round" stroke-linejoin="round"/>
<path d="M1 131.069L4.0259 142.689L12.7843 153.498L26.6929 162.761L44.7992 169.838L65.8665 174.258L88.4546 175.71L111.037 174.105L132.068 169.542L150.106 162.34L163.935 152.983L172.608 142.115L175.53 130.474" stroke="#CCCCCC" stroke-width="0.6" stroke-miterlimit="10" stroke-linecap="round" stroke-linejoin="round"/>
<path d="M1 152.155L4.0259 163.775L12.7843 174.584L26.6929 183.847L44.7992 190.925L65.8665 195.345L88.4546 196.796L111.037 195.191L132.068 190.628L150.106 183.426L163.935 174.069L172.608 163.201L175.53 151.562" stroke="#CCCCCC" stroke-width="0.6" stroke-miterlimit="10" stroke-linecap="round" stroke-linejoin="round"/>
<path d="M1 173.243L4.0259 184.863L12.7843 195.672L26.6929 204.935L44.7992 212.013L65.8665 216.433L88.4546 217.884L111.037 216.278L132.068 211.716L150.106 204.514L163.935 195.157L172.608 184.291L175.53 172.65" stroke="#CCCCCC" stroke-width="0.6" stroke-miterlimit="10" stroke-linecap="round" stroke-linejoin="round"/>
<path d="M1 46.239L3.92591 34.5979L12.5914 23.7298L26.421 14.3732L44.4642 7.17267L65.4963 2.61013L88.0722 1.00009L110.667 2.45678L131.733 6.87538L149.834 13.9539L163.742 23.2166L172.508 34.0253L175.53 45.646L176.076 172.755L173.152 184.397L164.477 195.265L150.649 204.623L132.61 211.823L111.581 216.386L89.0001 217.991L66.4102 216.539L45.3412 212.121L27.2367 205.042L13.3264 195.779L4.56793 184.971L1.54554 173.35L1 46.239Z" stroke="#CCCCCC" stroke-width="1.4" stroke-miterlimit="10" stroke-linecap="round" stroke-linejoin="round"/>
</svg>
