<svg width="1440" height="742" viewBox="0 0 1440 742" fill="none" xmlns="http://www.w3.org/2000/svg">
<path fill-rule="evenodd" clip-rule="evenodd" d="M20.3001 22.687V27.4633H22.0912V22.687H26.8675V20.8958H22.0912V16.1191H20.3001V20.8958H15.5234V22.687H20.3001Z" fill="white"/>
<line x1="21.1961" y1="42.9883" x2="21.1961" y2="7.24662e-05" stroke="white" stroke-width="0.597058"/>
<line y1="21.7933" x2="42.9882" y2="21.7933" stroke="white" stroke-width="0.597058"/>
<path fill-rule="evenodd" clip-rule="evenodd" d="M90.1502 22.6889V27.4652H91.9413V22.6889H96.7176V20.8978H91.9413V16.1211L90.1502 16.1211V20.8978H85.3735V22.6889H90.1502Z" fill="white"/>
<line x1="91.0467" y1="42.9883" x2="91.0467" y2="7.24662e-05" stroke="white" stroke-width="0.597058"/>
<line x1="69.8506" y1="21.7933" x2="112.839" y2="21.7933" stroke="white" stroke-width="0.597058"/>
<path fill-rule="evenodd" clip-rule="evenodd" d="M160.002 22.6889V27.4652H161.793V22.6889H166.57V20.8978H161.793V16.1211H160.002V20.8978H155.226V22.6889H160.002Z" fill="white"/>
<line x1="160.897" y1="42.9883" x2="160.897" y2="7.24662e-05" stroke="white" stroke-width="0.597058"/>
<line x1="139.701" y1="21.7933" x2="182.689" y2="21.7933" stroke="white" stroke-width="0.597058"/>
<path fill-rule="evenodd" clip-rule="evenodd" d="M229.851 22.687V27.4633H231.642V22.687H236.419V20.8958H231.642V16.1191H229.851V20.8958H225.075V22.687H229.851Z" fill="white"/>
<line x1="230.747" y1="42.9883" x2="230.747" y2="7.24662e-05" stroke="white" stroke-width="0.597058"/>
<line x1="209.552" y1="21.7933" x2="252.54" y2="21.7933" stroke="white" stroke-width="0.597058"/>
<path fill-rule="evenodd" clip-rule="evenodd" d="M299.703 22.6889V27.4652H301.494V22.6889H306.27V20.8978H301.494V16.1211L299.703 16.1211V20.8978H294.926V22.6889H299.703Z" fill="white"/>
<line x1="300.598" y1="42.9883" x2="300.598" y2="7.24662e-05" stroke="white" stroke-width="0.597058"/>
<line x1="279.402" y1="21.7933" x2="322.391" y2="21.7933" stroke="white" stroke-width="0.597058"/>
<path fill-rule="evenodd" clip-rule="evenodd" d="M369.554 22.687V27.4633H371.345V22.687H376.121V20.8958H371.345V16.1191H369.554V20.8958H364.777V22.687H369.554Z" fill="white"/>
<line x1="370.449" y1="42.9883" x2="370.449" y2="7.24662e-05" stroke="white" stroke-width="0.597058"/>
<line x1="349.253" y1="21.7933" x2="392.241" y2="21.7933" stroke="white" stroke-width="0.597058"/>
<path fill-rule="evenodd" clip-rule="evenodd" d="M439.403 22.687V27.4633H441.194V22.687H445.971V20.8958H441.194V16.1191H439.403V20.8958H434.626V22.687H439.403Z" fill="white"/>
<line x1="440.3" y1="42.9883" x2="440.3" y2="7.24662e-05" stroke="white" stroke-width="0.597058"/>
<line x1="419.104" y1="21.7933" x2="462.092" y2="21.7933" stroke="white" stroke-width="0.597058"/>
<path fill-rule="evenodd" clip-rule="evenodd" d="M509.255 22.6889V27.4652H511.046V22.6889H515.822V20.8978H511.046V16.1211L509.255 16.1211V20.8978H504.478V22.6889H509.255Z" fill="white"/>
<line x1="510.149" y1="42.9883" x2="510.149" y2="7.24662e-05" stroke="white" stroke-width="0.597058"/>
<line x1="488.954" y1="21.7933" x2="531.942" y2="21.7933" stroke="white" stroke-width="0.597058"/>
<path fill-rule="evenodd" clip-rule="evenodd" d="M579.105 22.687V27.4633H580.896V22.687H585.673V20.8958H580.896V16.1191L579.105 16.1191V20.8958H574.329V22.687H579.105Z" fill="white"/>
<line x1="580.001" y1="42.9883" x2="580.001" y2="7.24662e-05" stroke="white" stroke-width="0.597058"/>
<line x1="558.805" y1="21.7933" x2="601.793" y2="21.7933" stroke="white" stroke-width="0.597058"/>
<path fill-rule="evenodd" clip-rule="evenodd" d="M648.955 22.6889V27.4652H650.746V22.6889H655.522V20.8978H650.746V16.1211H648.955V20.8978H644.178V22.6889H648.955Z" fill="white"/>
<line x1="649.851" y1="42.9883" x2="649.851" y2="7.24662e-05" stroke="white" stroke-width="0.597058"/>
<line x1="628.655" y1="21.7933" x2="671.643" y2="21.7933" stroke="white" stroke-width="0.597058"/>
<path fill-rule="evenodd" clip-rule="evenodd" d="M718.805 22.6889V27.4652H720.597V22.6889H725.373V20.8978H720.597V16.1211L718.805 16.1211V20.8978H714.029V22.6889H718.805Z" fill="white"/>
<line x1="719.701" y1="42.9883" x2="719.701" y2="7.24662e-05" stroke="white" stroke-width="0.597058"/>
<line x1="698.506" y1="21.7933" x2="741.494" y2="21.7933" stroke="white" stroke-width="0.597058"/>
<path fill-rule="evenodd" clip-rule="evenodd" d="M788.657 22.687V27.4633H790.448V22.687H795.224V20.8958H790.448V16.1191L788.657 16.1191V20.8958H783.88V22.687H788.657Z" fill="white"/>
<line x1="789.553" y1="42.9883" x2="789.553" y2="7.24662e-05" stroke="white" stroke-width="0.597058"/>
<line x1="768.356" y1="21.7933" x2="811.345" y2="21.7933" stroke="white" stroke-width="0.597058"/>
<path fill-rule="evenodd" clip-rule="evenodd" d="M858.507 22.6889V27.4652H860.298V22.6889H865.074V20.8978H860.298V16.1211H858.507V20.8978H853.73V22.6889H858.507Z" fill="white"/>
<line x1="859.403" y1="42.9883" x2="859.403" y2="7.24662e-05" stroke="white" stroke-width="0.597058"/>
<line x1="838.207" y1="21.7933" x2="881.195" y2="21.7933" stroke="white" stroke-width="0.597058"/>
<path fill-rule="evenodd" clip-rule="evenodd" d="M928.358 22.687V27.4633H930.149V22.687H934.926V20.8958H930.149V16.1191L928.358 16.1191V20.8958H923.582V22.687H928.358Z" fill="white"/>
<line x1="929.254" y1="42.9883" x2="929.254" y2="7.24662e-05" stroke="white" stroke-width="0.597058"/>
<line x1="908.058" y1="21.7933" x2="951.046" y2="21.7933" stroke="white" stroke-width="0.597058"/>
<path fill-rule="evenodd" clip-rule="evenodd" d="M998.207 22.688V27.4652H999.998V22.688H1004.78V20.8969H999.998V16.1211L998.207 16.1211V20.8969H993.431V22.688H998.207Z" fill="white"/>
<line x1="999.104" y1="42.9883" x2="999.104" y2="7.24662e-05" stroke="white" stroke-width="0.597058"/>
<line x1="977.908" y1="21.7933" x2="1020.9" y2="21.7933" stroke="white" stroke-width="0.597058"/>
<path fill-rule="evenodd" clip-rule="evenodd" d="M1068.06 22.688V27.4652H1069.85V22.688H1074.63V20.8969H1069.85V16.1211H1068.06V20.8969H1063.28V22.688H1068.06Z" fill="white"/>
<line x1="1068.95" y1="42.9883" x2="1068.95" y2="7.24662e-05" stroke="white" stroke-width="0.597058"/>
<line x1="1047.76" y1="21.7933" x2="1090.75" y2="21.7933" stroke="white" stroke-width="0.597058"/>
<path fill-rule="evenodd" clip-rule="evenodd" d="M1137.91 22.6889V27.4652H1139.7V22.6889H1144.48V20.8978H1139.7V16.1211L1137.91 16.1211V20.8978H1133.13V22.6889H1137.91Z" fill="white"/>
<line x1="1138.81" y1="42.9883" x2="1138.81" y2="7.24662e-05" stroke="white" stroke-width="0.597058"/>
<line x1="1117.61" y1="21.7933" x2="1160.6" y2="21.7933" stroke="white" stroke-width="0.597058"/>
<path fill-rule="evenodd" clip-rule="evenodd" d="M1207.76 22.6889V27.4652H1209.55V22.6889H1214.33V20.8978H1209.55V16.1211L1207.76 16.1211V20.8978H1202.98V22.6889H1207.76Z" fill="white"/>
<line x1="1208.66" y1="42.9883" x2="1208.66" y2="7.24662e-05" stroke="white" stroke-width="0.597058"/>
<line x1="1187.46" y1="21.7933" x2="1230.45" y2="21.7933" stroke="white" stroke-width="0.597058"/>
<path fill-rule="evenodd" clip-rule="evenodd" d="M1277.61 22.688V27.4652H1279.4V22.688H1284.18V20.8969H1279.4V16.1211H1277.61V20.8969H1272.83V22.688H1277.61Z" fill="white"/>
<line x1="1278.51" y1="42.9883" x2="1278.51" y2="7.24662e-05" stroke="white" stroke-width="0.597058"/>
<line x1="1257.31" y1="21.7933" x2="1300.3" y2="21.7933" stroke="white" stroke-width="0.597058"/>
<path fill-rule="evenodd" clip-rule="evenodd" d="M1347.46 22.6889V27.4652H1349.25V22.6889H1354.03V20.8978H1349.25V16.1211L1347.46 16.1211V20.8978H1342.69V22.6889H1347.46Z" fill="white"/>
<line x1="1348.36" y1="42.9883" x2="1348.36" y2="7.24662e-05" stroke="white" stroke-width="0.597058"/>
<line x1="1327.16" y1="21.7933" x2="1370.15" y2="21.7933" stroke="white" stroke-width="0.597058"/>
<path fill-rule="evenodd" clip-rule="evenodd" d="M1417.31 22.6889V27.4652H1419.1V22.6889H1423.88V20.8978H1419.1V16.1211L1417.31 16.1211V20.8978H1412.53V22.6889H1417.31Z" fill="white"/>
<line x1="1418.21" y1="42.9883" x2="1418.21" y2="7.24662e-05" stroke="white" stroke-width="0.597058"/>
<line x1="1397.01" y1="21.7933" x2="1440" y2="21.7933" stroke="white" stroke-width="0.597058"/>
<path fill-rule="evenodd" clip-rule="evenodd" d="M20.3001 92.5405V97.3168H22.0912V92.5405H26.8675V90.7493H22.0912V85.9727H20.3001V90.7493H15.5234V92.5405H20.3001Z" fill="white"/>
<line x1="21.1961" y1="112.84" x2="21.1961" y2="69.8516" stroke="white" stroke-width="0.597058"/>
<line y1="91.6448" x2="42.9882" y2="91.6448" stroke="white" stroke-width="0.597058"/>
<path fill-rule="evenodd" clip-rule="evenodd" d="M90.1502 92.5405V97.3168H91.9413V92.5405H96.7176V90.7493H91.9413V85.9727H90.1502V90.7493H85.3735V92.5405H90.1502Z" fill="white"/>
<line x1="91.0467" y1="112.84" x2="91.0467" y2="69.8516" stroke="white" stroke-width="0.597058"/>
<line x1="69.8506" y1="91.6448" x2="112.839" y2="91.6448" stroke="white" stroke-width="0.597058"/>
<path fill-rule="evenodd" clip-rule="evenodd" d="M160.001 92.5396V97.3168H161.792V92.5396H166.57V90.7484H161.792V85.9727H160.001V90.7484H155.226V92.5396H160.001Z" fill="white"/>
<line x1="160.897" y1="112.84" x2="160.897" y2="69.8516" stroke="white" stroke-width="0.597058"/>
<line x1="139.701" y1="91.6448" x2="182.689" y2="91.6448" stroke="white" stroke-width="0.597058"/>
<path fill-rule="evenodd" clip-rule="evenodd" d="M229.851 92.5396V97.3168H231.642V92.5396H236.419V90.7484H231.642V85.9727H229.851V90.7484H225.075V92.5396H229.851Z" fill="white"/>
<line x1="230.748" y1="112.84" x2="230.748" y2="69.8516" stroke="white" stroke-width="0.597058"/>
<line x1="209.552" y1="91.6448" x2="252.54" y2="91.6448" stroke="white" stroke-width="0.597058"/>
<path fill-rule="evenodd" clip-rule="evenodd" d="M299.703 92.5405V97.3168H301.494V92.5405H306.27V90.7493H301.494V85.9727H299.703V90.7493H294.926V92.5405H299.703Z" fill="white"/>
<line x1="300.598" y1="112.84" x2="300.598" y2="69.8516" stroke="white" stroke-width="0.597058"/>
<line x1="279.402" y1="91.6448" x2="322.391" y2="91.6448" stroke="white" stroke-width="0.597058"/>
<path fill-rule="evenodd" clip-rule="evenodd" d="M369.554 92.5405V97.3168H371.345V92.5405H376.121V90.7493H371.345V85.9727H369.554V90.7493H364.777V92.5405H369.554Z" fill="white"/>
<line x1="370.449" y1="112.84" x2="370.449" y2="69.8516" stroke="white" stroke-width="0.597058"/>
<line x1="349.253" y1="91.6448" x2="392.241" y2="91.6448" stroke="white" stroke-width="0.597058"/>
<path fill-rule="evenodd" clip-rule="evenodd" d="M439.403 92.5396V97.3168H441.194V92.5396H445.971V90.7484H441.194V85.9727H439.403V90.7484H434.626V92.5396H439.403Z" fill="white"/>
<line x1="440.3" y1="112.84" x2="440.3" y2="69.8516" stroke="white" stroke-width="0.597058"/>
<line x1="419.104" y1="91.6448" x2="462.092" y2="91.6448" stroke="white" stroke-width="0.597058"/>
<path fill-rule="evenodd" clip-rule="evenodd" d="M509.255 92.5405V97.3168H511.046V92.5405H515.822V90.7493H511.046V85.9727H509.255V90.7493H504.478V92.5405H509.255Z" fill="white"/>
<line x1="510.15" y1="112.84" x2="510.15" y2="69.8516" stroke="white" stroke-width="0.597058"/>
<line x1="488.954" y1="91.6448" x2="531.942" y2="91.6448" stroke="white" stroke-width="0.597058"/>
<path fill-rule="evenodd" clip-rule="evenodd" d="M579.106 92.5405V97.3168H580.897V92.5405H585.673V90.7493H580.897V85.9727H579.106V90.7493H574.329V92.5405H579.106Z" fill="white"/>
<line x1="580.001" y1="112.84" x2="580.001" y2="69.8516" stroke="white" stroke-width="0.597058"/>
<line x1="558.805" y1="91.6448" x2="601.793" y2="91.6448" stroke="white" stroke-width="0.597058"/>
<path fill-rule="evenodd" clip-rule="evenodd" d="M648.954 92.5396V97.3168H650.745V92.5396H655.522V90.7484H650.745V85.9727H648.954V90.7484H644.178V92.5396H648.954Z" fill="white"/>
<line x1="649.851" y1="112.84" x2="649.851" y2="69.8516" stroke="white" stroke-width="0.597058"/>
<line x1="628.655" y1="91.6448" x2="671.643" y2="91.6448" stroke="white" stroke-width="0.597058"/>
<path fill-rule="evenodd" clip-rule="evenodd" d="M718.805 92.5396V97.3168H720.597V92.5396H725.373V90.7484H720.597V85.9727H718.805V90.7484H714.029V92.5396H718.805Z" fill="white"/>
<line x1="719.702" y1="112.84" x2="719.702" y2="69.8516" stroke="white" stroke-width="0.597058"/>
<line x1="698.506" y1="91.6448" x2="741.494" y2="91.6448" stroke="white" stroke-width="0.597058"/>
<path fill-rule="evenodd" clip-rule="evenodd" d="M788.657 92.5405V97.3168H790.449V92.5405H795.225V90.7493H790.449V85.9727H788.657V90.7493H783.881V92.5405H788.657Z" fill="white"/>
<line x1="789.553" y1="112.84" x2="789.553" y2="69.8516" stroke="white" stroke-width="0.597058"/>
<line x1="768.356" y1="91.6448" x2="811.345" y2="91.6448" stroke="white" stroke-width="0.597058"/>
<path fill-rule="evenodd" clip-rule="evenodd" d="M858.506 92.5405V97.3168H860.297V92.5405H865.074V90.7493H860.297V85.9727H858.506V90.7493H853.729V92.5405H858.506Z" fill="white"/>
<line x1="859.403" y1="112.84" x2="859.403" y2="69.8516" stroke="white" stroke-width="0.597058"/>
<line x1="838.207" y1="91.6448" x2="881.195" y2="91.6448" stroke="white" stroke-width="0.597058"/>
<path fill-rule="evenodd" clip-rule="evenodd" d="M928.358 92.5396V97.3168H930.149V92.5396H934.926V90.7484H930.149V85.9727H928.358V90.7484H923.582V92.5396H928.358Z" fill="white"/>
<line x1="929.254" y1="112.84" x2="929.254" y2="69.8516" stroke="white" stroke-width="0.597058"/>
<line x1="908.058" y1="91.6448" x2="951.046" y2="91.6448" stroke="white" stroke-width="0.597058"/>
<path fill-rule="evenodd" clip-rule="evenodd" d="M998.209 92.5405V97.3168H1000V92.5405H1004.78V90.7493H1000V85.9727H998.209V90.7493H993.432V92.5405H998.209Z" fill="white"/>
<line x1="999.104" y1="112.84" x2="999.104" y2="69.8516" stroke="white" stroke-width="0.597058"/>
<line x1="977.908" y1="91.6448" x2="1020.9" y2="91.6448" stroke="white" stroke-width="0.597058"/>
<path fill-rule="evenodd" clip-rule="evenodd" d="M1068.06 92.5405V97.3168H1069.85V92.5405H1074.63V90.7493H1069.85V85.9727H1068.06V90.7493H1063.28V92.5405H1068.06Z" fill="white"/>
<line x1="1068.95" y1="112.84" x2="1068.95" y2="69.8516" stroke="white" stroke-width="0.597058"/>
<line x1="1047.76" y1="91.6448" x2="1090.75" y2="91.6448" stroke="white" stroke-width="0.597058"/>
<path fill-rule="evenodd" clip-rule="evenodd" d="M1137.91 92.5396V97.3168H1139.7V92.5396H1144.48V90.7484H1139.7V85.9727H1137.91V90.7484H1133.13V92.5396H1137.91Z" fill="white"/>
<line x1="1138.81" y1="112.84" x2="1138.81" y2="69.8516" stroke="white" stroke-width="0.597058"/>
<line x1="1117.61" y1="91.6448" x2="1160.6" y2="91.6448" stroke="white" stroke-width="0.597058"/>
<path fill-rule="evenodd" clip-rule="evenodd" d="M1207.76 92.5396V97.3168H1209.55V92.5396H1214.33V90.7484H1209.55V85.9727H1207.76V90.7484H1202.98V92.5396H1207.76Z" fill="white"/>
<line x1="1208.66" y1="112.84" x2="1208.66" y2="69.8516" stroke="white" stroke-width="0.597058"/>
<line x1="1187.46" y1="91.6448" x2="1230.45" y2="91.6448" stroke="white" stroke-width="0.597058"/>
<path fill-rule="evenodd" clip-rule="evenodd" d="M1277.61 92.5405V97.3168H1279.4V92.5405H1284.18V90.7493H1279.4V85.9727H1277.61V90.7493H1272.84V92.5405H1277.61Z" fill="white"/>
<line x1="1278.51" y1="112.84" x2="1278.51" y2="69.8516" stroke="white" stroke-width="0.597058"/>
<line x1="1257.31" y1="91.6448" x2="1300.3" y2="91.6448" stroke="white" stroke-width="0.597058"/>
<path fill-rule="evenodd" clip-rule="evenodd" d="M1347.46 92.5405V97.3168H1349.25V92.5405H1354.03V90.7493H1349.25V85.9727H1347.46V90.7493H1342.68V92.5405H1347.46Z" fill="white"/>
<line x1="1348.36" y1="112.84" x2="1348.36" y2="69.8516" stroke="white" stroke-width="0.597058"/>
<line x1="1327.16" y1="91.6448" x2="1370.15" y2="91.6448" stroke="white" stroke-width="0.597058"/>
<path fill-rule="evenodd" clip-rule="evenodd" d="M1417.31 92.5396V97.3168H1419.1V92.5396H1423.88V90.7484H1419.1V85.9727H1417.31V90.7484H1412.54V92.5396H1417.31Z" fill="white"/>
<line x1="1418.21" y1="112.84" x2="1418.21" y2="69.8516" stroke="white" stroke-width="0.597058"/>
<line x1="1397.01" y1="91.6448" x2="1440" y2="91.6448" stroke="white" stroke-width="0.597058"/>
<path fill-rule="evenodd" clip-rule="evenodd" d="M20.3001 162.39V167.166H22.0912V162.39H26.8675V160.599H22.0912V155.822H20.3001V160.599H15.5234V162.39H20.3001Z" fill="white"/>
<line x1="21.1961" y1="182.689" x2="21.1961" y2="139.701" stroke="white" stroke-width="0.597058"/>
<line y1="161.494" x2="42.9882" y2="161.494" stroke="white" stroke-width="0.597058"/>
<path fill-rule="evenodd" clip-rule="evenodd" d="M90.1502 162.39V167.166H91.9413V162.39H96.7176V160.599H91.9413V155.822H90.1502V160.599H85.3735V162.39H90.1502Z" fill="white"/>
<line x1="91.0467" y1="182.689" x2="91.0467" y2="139.701" stroke="white" stroke-width="0.597058"/>
<line x1="69.8506" y1="161.494" x2="112.839" y2="161.494" stroke="white" stroke-width="0.597058"/>
<path fill-rule="evenodd" clip-rule="evenodd" d="M160.001 162.39V167.166H161.792V162.39H166.57V160.599H161.792V155.822H160.001V160.599H155.226V162.39H160.001Z" fill="white"/>
<line x1="160.897" y1="182.689" x2="160.897" y2="139.701" stroke="white" stroke-width="0.597058"/>
<line x1="139.701" y1="161.494" x2="182.689" y2="161.494" stroke="white" stroke-width="0.597058"/>
<path fill-rule="evenodd" clip-rule="evenodd" d="M229.851 162.39V167.166H231.642V162.39H236.419V160.599H231.642V155.822H229.851V160.599H225.075V162.39H229.851Z" fill="white"/>
<line x1="230.748" y1="182.689" x2="230.748" y2="139.701" stroke="white" stroke-width="0.597058"/>
<line x1="209.552" y1="161.494" x2="252.54" y2="161.494" stroke="white" stroke-width="0.597058"/>
<path fill-rule="evenodd" clip-rule="evenodd" d="M299.703 162.39V167.166H301.494V162.39H306.27V160.599H301.494V155.822H299.703V160.599H294.926V162.39H299.703Z" fill="white"/>
<line x1="300.598" y1="182.689" x2="300.598" y2="139.701" stroke="white" stroke-width="0.597058"/>
<line x1="279.402" y1="161.494" x2="322.391" y2="161.494" stroke="white" stroke-width="0.597058"/>
<path fill-rule="evenodd" clip-rule="evenodd" d="M369.554 162.39V167.166H371.345V162.39H376.121V160.599H371.345V155.822H369.554V160.599H364.777V162.39H369.554Z" fill="white"/>
<line x1="370.449" y1="182.689" x2="370.449" y2="139.701" stroke="white" stroke-width="0.597058"/>
<line x1="349.253" y1="161.494" x2="392.241" y2="161.494" stroke="white" stroke-width="0.597058"/>
<path fill-rule="evenodd" clip-rule="evenodd" d="M439.403 162.39V167.166H441.194V162.39H445.971V160.599H441.194V155.822H439.403V160.599H434.626V162.39H439.403Z" fill="white"/>
<line x1="440.3" y1="182.689" x2="440.3" y2="139.701" stroke="white" stroke-width="0.597058"/>
<line x1="419.104" y1="161.494" x2="462.092" y2="161.494" stroke="white" stroke-width="0.597058"/>
<path fill-rule="evenodd" clip-rule="evenodd" d="M509.255 162.39V167.166H511.046V162.39H515.822V160.599H511.046V155.822H509.255V160.599H504.478V162.39H509.255Z" fill="white"/>
<line x1="510.15" y1="182.689" x2="510.15" y2="139.701" stroke="white" stroke-width="0.597058"/>
<line x1="488.954" y1="161.494" x2="531.942" y2="161.494" stroke="white" stroke-width="0.597058"/>
<path fill-rule="evenodd" clip-rule="evenodd" d="M579.105 162.39V167.166H580.896V162.39H585.672V160.599H580.896V155.822H579.105V160.599H574.328V162.39H579.105Z" fill="white"/>
<line x1="580.001" y1="182.689" x2="580.001" y2="139.701" stroke="white" stroke-width="0.597058"/>
<line x1="558.805" y1="161.494" x2="601.793" y2="161.494" stroke="white" stroke-width="0.597058"/>
<path fill-rule="evenodd" clip-rule="evenodd" d="M648.954 162.39V167.166H650.745V162.39H655.522V160.599H650.745V155.822H648.954V160.599H644.178V162.39H648.954Z" fill="white"/>
<line x1="649.851" y1="182.689" x2="649.851" y2="139.701" stroke="white" stroke-width="0.597058"/>
<line x1="628.655" y1="161.494" x2="671.643" y2="161.494" stroke="white" stroke-width="0.597058"/>
<path fill-rule="evenodd" clip-rule="evenodd" d="M718.805 162.39V167.166H720.597V162.39H725.373V160.599H720.597V155.822H718.805V160.599H714.029V162.39H718.805Z" fill="white"/>
<line x1="719.702" y1="182.689" x2="719.702" y2="139.701" stroke="white" stroke-width="0.597058"/>
<line x1="698.506" y1="161.494" x2="741.494" y2="161.494" stroke="white" stroke-width="0.597058"/>
<path fill-rule="evenodd" clip-rule="evenodd" d="M998.427 162.568V167.344H1000.22V162.568H1004.99V160.777H1000.22V156L998.427 156V160.777H993.651V162.568H998.427Z" fill="white"/>
<line x1="999.323" y1="182.867" x2="999.323" y2="139.879" stroke="white" stroke-width="0.597058"/>
<line x1="978.128" y1="161.672" x2="1021.12" y2="161.672" stroke="white" stroke-width="0.597058"/>
<path fill-rule="evenodd" clip-rule="evenodd" d="M788.656 162.389V167.166H790.447V162.389H795.224V160.598H790.447V155.822H788.656V160.598H783.88V162.389H788.656Z" fill="white"/>
<line x1="789.553" y1="182.689" x2="789.553" y2="139.701" stroke="white" stroke-width="0.597058"/>
<line x1="768.356" y1="161.494" x2="811.345" y2="161.494" stroke="white" stroke-width="0.597058"/>
<path fill-rule="evenodd" clip-rule="evenodd" d="M858.507 162.389V167.166H860.298V162.389H865.074V160.598H860.298V155.822H858.507V160.598H853.73V162.389H858.507Z" fill="white"/>
<line x1="859.403" y1="182.689" x2="859.403" y2="139.701" stroke="white" stroke-width="0.597058"/>
<line x1="838.207" y1="161.494" x2="881.195" y2="161.494" stroke="white" stroke-width="0.597058"/>
<path fill-rule="evenodd" clip-rule="evenodd" d="M928.359 162.39V167.166H930.15V162.39H934.927V160.599H930.15V155.822H928.359V160.599H923.583V162.39H928.359Z" fill="white"/>
<line x1="929.255" y1="182.689" x2="929.255" y2="139.701" stroke="white" stroke-width="0.597058"/>
<line x1="908.059" y1="161.494" x2="951.047" y2="161.494" stroke="white" stroke-width="0.597058"/>
<path fill-rule="evenodd" clip-rule="evenodd" d="M998.208 162.39V167.166H999.999V162.39H1004.78V160.599H999.999V155.822H998.208V160.599H993.432V162.39H998.208Z" fill="white"/>
<line x1="999.104" y1="182.689" x2="999.104" y2="139.701" stroke="white" stroke-width="0.597058"/>
<line x1="977.908" y1="161.494" x2="1020.9" y2="161.494" stroke="white" stroke-width="0.597058"/>
<path fill-rule="evenodd" clip-rule="evenodd" d="M1068.06 162.389V167.166H1069.85V162.389H1074.63V160.598H1069.85V155.822H1068.06V160.598H1063.28V162.389H1068.06Z" fill="white"/>
<line x1="1068.96" y1="182.689" x2="1068.96" y2="139.701" stroke="white" stroke-width="0.597058"/>
<line x1="1047.76" y1="161.494" x2="1090.75" y2="161.494" stroke="white" stroke-width="0.597058"/>
<path fill-rule="evenodd" clip-rule="evenodd" d="M1137.91 162.39V167.166H1139.7V162.39H1144.48V160.599H1139.7V155.822H1137.91V160.599H1133.13V162.39H1137.91Z" fill="white"/>
<line x1="1138.81" y1="182.689" x2="1138.81" y2="139.701" stroke="white" stroke-width="0.597058"/>
<line x1="1117.61" y1="161.494" x2="1160.6" y2="161.494" stroke="white" stroke-width="0.597058"/>
<path fill-rule="evenodd" clip-rule="evenodd" d="M1207.76 162.39V167.166H1209.55V162.39H1214.33V160.599H1209.55V155.822H1207.76V160.599H1202.98V162.39H1207.76Z" fill="white"/>
<line x1="1208.66" y1="182.689" x2="1208.66" y2="139.701" stroke="white" stroke-width="0.597058"/>
<line x1="1187.46" y1="161.494" x2="1230.45" y2="161.494" stroke="white" stroke-width="0.597058"/>
<path fill-rule="evenodd" clip-rule="evenodd" d="M1277.61 162.39V167.166H1279.4V162.39H1284.18V160.599H1279.4V155.822H1277.61V160.599H1272.83V162.39H1277.61Z" fill="white"/>
<line x1="1278.51" y1="182.689" x2="1278.51" y2="139.701" stroke="white" stroke-width="0.597058"/>
<line x1="1257.31" y1="161.494" x2="1300.3" y2="161.494" stroke="white" stroke-width="0.597058"/>
<path fill-rule="evenodd" clip-rule="evenodd" d="M1347.46 162.39V167.166H1349.25V162.39H1354.03V160.599H1349.25V155.822H1347.46V160.599H1342.68V162.39H1347.46Z" fill="white"/>
<line x1="1348.36" y1="182.689" x2="1348.36" y2="139.701" stroke="white" stroke-width="0.597058"/>
<line x1="1327.16" y1="161.494" x2="1370.15" y2="161.494" stroke="white" stroke-width="0.597058"/>
<path fill-rule="evenodd" clip-rule="evenodd" d="M1417.31 162.39V167.166H1419.1V162.39H1423.88V160.599H1419.1V155.822H1417.31V160.599H1412.53V162.39H1417.31Z" fill="white"/>
<line x1="1418.21" y1="182.689" x2="1418.21" y2="139.701" stroke="white" stroke-width="0.597058"/>
<line x1="1397.01" y1="161.494" x2="1440" y2="161.494" stroke="white" stroke-width="0.597058"/>
<path fill-rule="evenodd" clip-rule="evenodd" d="M20.3001 232.419V237.196H22.0912V232.419H26.8675V230.628H22.0912V225.852H20.3001V230.628H15.5234V232.419H20.3001Z" fill="white"/>
<line x1="21.1961" y1="252.719" x2="21.1961" y2="209.731" stroke="white" stroke-width="0.597058"/>
<line y1="231.524" x2="42.9882" y2="231.524" stroke="white" stroke-width="0.597058"/>
<path fill-rule="evenodd" clip-rule="evenodd" d="M90.1502 232.417V237.194H91.9413V232.417H96.7176V230.626H91.9413V225.85H90.1502V230.626H85.3735V232.417H90.1502Z" fill="white"/>
<line x1="91.0467" y1="252.719" x2="91.0467" y2="209.731" stroke="white" stroke-width="0.597058"/>
<line x1="69.8506" y1="231.522" x2="112.839" y2="231.522" stroke="white" stroke-width="0.597058"/>
<path fill-rule="evenodd" clip-rule="evenodd" d="M160.002 232.417V237.194H161.793V232.417H166.57V230.626H161.793V225.85H160.002V230.626H155.226V232.417H160.002Z" fill="white"/>
<line x1="160.897" y1="252.719" x2="160.897" y2="209.731" stroke="white" stroke-width="0.597058"/>
<line x1="139.701" y1="231.522" x2="182.689" y2="231.522" stroke="white" stroke-width="0.597058"/>
<path fill-rule="evenodd" clip-rule="evenodd" d="M229.851 232.419V237.196H231.642V232.419H236.419V230.628H231.642V225.852H229.851V230.628H225.075V232.419H229.851Z" fill="white"/>
<line x1="230.747" y1="252.719" x2="230.747" y2="209.731" stroke="white" stroke-width="0.597058"/>
<line x1="209.552" y1="231.524" x2="252.54" y2="231.524" stroke="white" stroke-width="0.597058"/>
<path fill-rule="evenodd" clip-rule="evenodd" d="M299.703 232.417V237.194H301.494V232.417H306.27V230.626H301.494V225.85H299.703V230.626H294.926V232.417H299.703Z" fill="white"/>
<line x1="300.598" y1="252.719" x2="300.598" y2="209.731" stroke="white" stroke-width="0.597058"/>
<line x1="279.402" y1="231.522" x2="322.391" y2="231.522" stroke="white" stroke-width="0.597058"/>
<path fill-rule="evenodd" clip-rule="evenodd" d="M369.554 232.419V237.196H371.345V232.419H376.121V230.628H371.345V225.852H369.554V230.628H364.777V232.419H369.554Z" fill="white"/>
<line x1="370.449" y1="252.719" x2="370.449" y2="209.731" stroke="white" stroke-width="0.597058"/>
<line x1="349.253" y1="231.524" x2="392.241" y2="231.524" stroke="white" stroke-width="0.597058"/>
<path fill-rule="evenodd" clip-rule="evenodd" d="M439.403 232.419V237.196H441.194V232.419H445.971V230.628H441.194V225.852H439.403V230.628H434.626V232.419H439.403Z" fill="white"/>
<line x1="440.3" y1="252.719" x2="440.3" y2="209.731" stroke="white" stroke-width="0.597058"/>
<line x1="419.104" y1="231.524" x2="462.092" y2="231.524" stroke="white" stroke-width="0.597058"/>
<path fill-rule="evenodd" clip-rule="evenodd" d="M509.255 232.417V237.194H511.046V232.417H515.822V230.626H511.046V225.85H509.255V230.626H504.478V232.417H509.255Z" fill="white"/>
<line x1="510.149" y1="252.719" x2="510.149" y2="209.731" stroke="white" stroke-width="0.597058"/>
<line x1="488.954" y1="231.522" x2="531.942" y2="231.522" stroke="white" stroke-width="0.597058"/>
<path fill-rule="evenodd" clip-rule="evenodd" d="M579.106 232.419V237.196H580.897V232.419H585.673V230.628H580.897V225.852H579.106V230.628H574.329V232.419H579.106Z" fill="white"/>
<line x1="580.001" y1="252.719" x2="580.001" y2="209.731" stroke="white" stroke-width="0.597058"/>
<line x1="558.805" y1="231.524" x2="601.793" y2="231.524" stroke="white" stroke-width="0.597058"/>
<path fill-rule="evenodd" clip-rule="evenodd" d="M648.955 232.417V237.194H650.746V232.417H655.522V230.626H650.746V225.85H648.955V230.626H644.178V232.417H648.955Z" fill="white"/>
<line x1="649.851" y1="252.719" x2="649.851" y2="209.731" stroke="white" stroke-width="0.597058"/>
<line x1="628.655" y1="231.522" x2="671.643" y2="231.522" stroke="white" stroke-width="0.597058"/>
<path fill-rule="evenodd" clip-rule="evenodd" d="M718.805 232.417V237.194H720.597V232.417H725.373V230.626H720.597V225.85H718.805V230.626H714.029V232.417H718.805Z" fill="white"/>
<line x1="719.701" y1="252.719" x2="719.701" y2="209.731" stroke="white" stroke-width="0.597058"/>
<line x1="698.506" y1="231.522" x2="741.494" y2="231.522" stroke="white" stroke-width="0.597058"/>
<path fill-rule="evenodd" clip-rule="evenodd" d="M788.657 232.419V237.196H790.449V232.419H795.225V230.628H790.449V225.852H788.657V230.628H783.881V232.419H788.657Z" fill="white"/>
<line x1="789.553" y1="252.719" x2="789.553" y2="209.731" stroke="white" stroke-width="0.597058"/>
<line x1="768.356" y1="231.524" x2="811.345" y2="231.524" stroke="white" stroke-width="0.597058"/>
<path fill-rule="evenodd" clip-rule="evenodd" d="M858.506 232.417V237.194H860.297V232.417H865.074V230.626H860.297V225.85H858.506V230.626H853.729V232.417H858.506Z" fill="white"/>
<line x1="859.403" y1="252.719" x2="859.403" y2="209.731" stroke="white" stroke-width="0.597058"/>
<line x1="838.207" y1="231.522" x2="881.195" y2="231.522" stroke="white" stroke-width="0.597058"/>
<path fill-rule="evenodd" clip-rule="evenodd" d="M928.358 232.419V237.196H930.149V232.419H934.926V230.628H930.149V225.852H928.358V230.628H923.582V232.419H928.358Z" fill="white"/>
<line x1="929.254" y1="252.719" x2="929.254" y2="209.731" stroke="white" stroke-width="0.597058"/>
<line x1="908.058" y1="231.524" x2="951.046" y2="231.524" stroke="white" stroke-width="0.597058"/>
<path fill-rule="evenodd" clip-rule="evenodd" d="M998.207 232.419V237.196H999.999V232.419H1004.78V230.627H999.999V225.852H998.207V230.627H993.432V232.419H998.207Z" fill="white"/>
<line x1="999.104" y1="252.719" x2="999.104" y2="209.731" stroke="white" stroke-width="0.597058"/>
<line x1="977.908" y1="231.524" x2="1020.9" y2="231.524" stroke="white" stroke-width="0.597058"/>
<path fill-rule="evenodd" clip-rule="evenodd" d="M1068.06 232.417V237.194H1069.85V232.417H1074.63V230.625H1069.85V225.85H1068.06V230.625H1063.28V232.417H1068.06Z" fill="white"/>
<line x1="1068.95" y1="252.719" x2="1068.95" y2="209.731" stroke="white" stroke-width="0.597058"/>
<line x1="1047.76" y1="231.522" x2="1090.75" y2="231.522" stroke="white" stroke-width="0.597058"/>
<path fill-rule="evenodd" clip-rule="evenodd" d="M1137.91 232.419V237.196H1139.7V232.419H1144.48V230.628H1139.7V225.852H1137.91V230.628H1133.13V232.419H1137.91Z" fill="white"/>
<line x1="1138.81" y1="252.719" x2="1138.81" y2="209.731" stroke="white" stroke-width="0.597058"/>
<line x1="1117.61" y1="231.524" x2="1160.6" y2="231.524" stroke="white" stroke-width="0.597058"/>
<path fill-rule="evenodd" clip-rule="evenodd" d="M1207.76 232.417V237.194H1209.55V232.417H1214.33V230.626H1209.55V225.85H1207.76V230.626H1202.98V232.417H1207.76Z" fill="white"/>
<line x1="1208.66" y1="252.719" x2="1208.66" y2="209.731" stroke="white" stroke-width="0.597058"/>
<line x1="1187.46" y1="231.522" x2="1230.45" y2="231.522" stroke="white" stroke-width="0.597058"/>
<path fill-rule="evenodd" clip-rule="evenodd" d="M1277.61 232.417V237.194H1279.4V232.417H1284.18V230.625H1279.4V225.85H1277.61V230.625H1272.83V232.417H1277.61Z" fill="white"/>
<line x1="1278.51" y1="252.719" x2="1278.51" y2="209.731" stroke="white" stroke-width="0.597058"/>
<line x1="1257.31" y1="231.522" x2="1300.3" y2="231.522" stroke="white" stroke-width="0.597058"/>
<path fill-rule="evenodd" clip-rule="evenodd" d="M1347.46 232.419V237.196H1349.25V232.419H1354.03V230.628H1349.25V225.852H1347.46V230.628H1342.69V232.419H1347.46Z" fill="white"/>
<line x1="1348.36" y1="252.719" x2="1348.36" y2="209.731" stroke="white" stroke-width="0.597058"/>
<line x1="1327.16" y1="231.524" x2="1370.15" y2="231.524" stroke="white" stroke-width="0.597058"/>
<path fill-rule="evenodd" clip-rule="evenodd" d="M1417.31 232.417V237.194H1419.1V232.417H1423.88V230.626H1419.1V225.85H1417.31V230.626H1412.54V232.417H1417.31Z" fill="white"/>
<line x1="1418.21" y1="252.719" x2="1418.21" y2="209.731" stroke="white" stroke-width="0.597058"/>
<line x1="1397.01" y1="231.522" x2="1440" y2="231.522" stroke="white" stroke-width="0.597058"/>
<path fill-rule="evenodd" clip-rule="evenodd" d="M20.3001 302.269V307.045H22.0912V302.269H26.8675V300.478H22.0912V295.701H20.3001V300.478H15.5234V302.269H20.3001Z" fill="white"/>
<line x1="21.1961" y1="322.568" x2="21.1961" y2="279.58" stroke="white" stroke-width="0.597058"/>
<line y1="301.371" x2="42.9882" y2="301.371" stroke="white" stroke-width="0.597058"/>
<path fill-rule="evenodd" clip-rule="evenodd" d="M90.1502 302.267V307.043L91.9413 307.043V302.267H96.7176V300.476H91.9413V295.699L90.1502 295.699V300.476H85.3735V302.267H90.1502Z" fill="white"/>
<line x1="91.0467" y1="322.568" x2="91.0467" y2="279.58" stroke="white" stroke-width="0.597058"/>
<line x1="69.8506" y1="301.371" x2="112.839" y2="301.371" stroke="white" stroke-width="0.597058"/>
<path fill-rule="evenodd" clip-rule="evenodd" d="M160.001 302.268V307.045H161.792V302.268H166.57V300.477H161.792V295.701H160.001V300.477H155.226V302.268H160.001Z" fill="white"/>
<line x1="160.897" y1="322.568" x2="160.897" y2="279.58" stroke="white" stroke-width="0.597058"/>
<line x1="139.701" y1="301.371" x2="182.689" y2="301.371" stroke="white" stroke-width="0.597058"/>
<path fill-rule="evenodd" clip-rule="evenodd" d="M229.851 302.268V307.045H231.642V302.268H236.419V300.477H231.642V295.701H229.851V300.477H225.075V302.268H229.851Z" fill="white"/>
<line x1="230.747" y1="322.568" x2="230.747" y2="279.58" stroke="white" stroke-width="0.597058"/>
<line x1="209.552" y1="301.371" x2="252.54" y2="301.371" stroke="white" stroke-width="0.597058"/>
<path fill-rule="evenodd" clip-rule="evenodd" d="M299.703 302.269V307.045H301.494V302.269H306.27V300.478H301.494V295.701L299.703 295.701V300.478H294.926V302.269H299.703Z" fill="white"/>
<line x1="300.598" y1="322.568" x2="300.598" y2="279.58" stroke="white" stroke-width="0.597058"/>
<line x1="279.402" y1="301.371" x2="322.391" y2="301.371" stroke="white" stroke-width="0.597058"/>
<path fill-rule="evenodd" clip-rule="evenodd" d="M369.554 302.267V307.043H371.345V302.267H376.121V300.476H371.345V295.699H369.554V300.476H364.777V302.267H369.554Z" fill="white"/>
<line x1="370.449" y1="322.568" x2="370.449" y2="279.58" stroke="white" stroke-width="0.597058"/>
<line x1="349.253" y1="301.371" x2="392.241" y2="301.371" stroke="white" stroke-width="0.597058"/>
<path fill-rule="evenodd" clip-rule="evenodd" d="M439.403 302.268V307.045H441.194V302.268H445.971V300.477H441.194V295.701H439.403V300.477H434.626V302.268H439.403Z" fill="white"/>
<line x1="440.3" y1="322.568" x2="440.3" y2="279.58" stroke="white" stroke-width="0.597058"/>
<line x1="419.104" y1="301.371" x2="462.092" y2="301.371" stroke="white" stroke-width="0.597058"/>
<path fill-rule="evenodd" clip-rule="evenodd" d="M509.255 302.269V307.045H511.046V302.269H515.822V300.478H511.046V295.701L509.255 295.701V300.478H504.478V302.269H509.255Z" fill="white"/>
<line x1="510.149" y1="322.568" x2="510.149" y2="279.58" stroke="white" stroke-width="0.597058"/>
<line x1="488.954" y1="301.371" x2="531.942" y2="301.371" stroke="white" stroke-width="0.597058"/>
<path fill-rule="evenodd" clip-rule="evenodd" d="M579.105 302.269V307.045H580.896V302.269H585.672V300.478H580.896V295.701H579.105V300.478H574.328V302.269H579.105Z" fill="white"/>
<line x1="580.001" y1="322.568" x2="580.001" y2="279.58" stroke="white" stroke-width="0.597058"/>
<line x1="558.805" y1="301.371" x2="601.793" y2="301.371" stroke="white" stroke-width="0.597058"/>
<path fill-rule="evenodd" clip-rule="evenodd" d="M858.371 302.268V307.045H860.163V302.268H864.94V300.477H860.163V295.701L858.371 295.701V300.477H853.596V302.268H858.371Z" fill="white"/>
<line x1="859.269" y1="322.568" x2="859.269" y2="279.58" stroke="white" stroke-width="0.597058"/>
<line x1="838.072" y1="301.371" x2="881.06" y2="301.371" stroke="white" stroke-width="0.597058"/>
<path fill-rule="evenodd" clip-rule="evenodd" d="M648.954 302.401V307.178H650.745V302.401H655.522V300.61H650.745V295.834H648.954V300.61H644.178V302.401H648.954Z" fill="white"/>
<line x1="649.851" y1="322.701" x2="649.851" y2="279.713" stroke="white" stroke-width="0.597058"/>
<line x1="628.655" y1="301.506" x2="671.643" y2="301.506" stroke="white" stroke-width="0.597058"/>
<path fill-rule="evenodd" clip-rule="evenodd" d="M718.806 302.401V307.178H720.597V302.401H725.373V300.61H720.597V295.834H718.806V300.61H714.029V302.401H718.806Z" fill="white"/>
<line x1="719.702" y1="322.701" x2="719.702" y2="279.713" stroke="white" stroke-width="0.597058"/>
<line x1="698.506" y1="301.506" x2="741.495" y2="301.506" stroke="white" stroke-width="0.597058"/>
<path fill-rule="evenodd" clip-rule="evenodd" d="M788.657 302.402V307.178H790.448V302.402H795.224V300.611H790.448V295.834H788.657V300.611H783.88V302.402H788.657Z" fill="white"/>
<line x1="789.553" y1="322.701" x2="789.553" y2="279.713" stroke="white" stroke-width="0.597058"/>
<line x1="768.356" y1="301.506" x2="811.345" y2="301.506" stroke="white" stroke-width="0.597058"/>
<path fill-rule="evenodd" clip-rule="evenodd" d="M858.507 302.402V307.178H860.298V302.402H865.074V300.611H860.298V295.834H858.507V300.611H853.73V302.402H858.507Z" fill="white"/>
<line x1="859.403" y1="322.701" x2="859.403" y2="279.713" stroke="white" stroke-width="0.597058"/>
<line x1="838.207" y1="301.506" x2="881.195" y2="301.506" stroke="white" stroke-width="0.597058"/>
<path fill-rule="evenodd" clip-rule="evenodd" d="M928.359 302.401V307.178H930.15V302.401H934.926V300.61H930.15V295.834H928.359V300.61H923.582V302.401H928.359Z" fill="white"/>
<line x1="929.254" y1="322.701" x2="929.254" y2="279.713" stroke="white" stroke-width="0.597058"/>
<line x1="908.058" y1="301.506" x2="951.046" y2="301.506" stroke="white" stroke-width="0.597058"/>
<path fill-rule="evenodd" clip-rule="evenodd" d="M998.209 302.402V307.178H1000V302.402H1004.78V300.611H1000V295.834H998.209V300.611H993.432V302.402H998.209Z" fill="white"/>
<line x1="999.104" y1="322.701" x2="999.104" y2="279.713" stroke="white" stroke-width="0.597058"/>
<line x1="977.908" y1="301.506" x2="1020.9" y2="301.506" stroke="white" stroke-width="0.597058"/>
<path fill-rule="evenodd" clip-rule="evenodd" d="M1068.06 302.402V307.178H1069.85V302.402H1074.63V300.611H1069.85V295.834H1068.06V300.611H1063.28V302.402H1068.06Z" fill="white"/>
<line x1="1068.95" y1="322.701" x2="1068.95" y2="279.713" stroke="white" stroke-width="0.597058"/>
<line x1="1047.76" y1="301.506" x2="1090.75" y2="301.506" stroke="white" stroke-width="0.597058"/>
<path fill-rule="evenodd" clip-rule="evenodd" d="M1137.91 302.268V307.045H1139.7V302.268H1144.48V300.477H1139.7V295.701L1137.91 295.701V300.477H1133.13V302.268H1137.91Z" fill="white"/>
<line x1="1138.8" y1="322.568" x2="1138.8" y2="279.58" stroke="white" stroke-width="0.597058"/>
<line x1="1117.61" y1="301.371" x2="1160.6" y2="301.371" stroke="white" stroke-width="0.597058"/>
<path fill-rule="evenodd" clip-rule="evenodd" d="M1207.76 302.269V307.045H1209.55V302.269H1214.33V300.478H1209.55V295.701L1207.76 295.701V300.478H1202.98V302.269H1207.76Z" fill="white"/>
<line x1="1208.66" y1="322.568" x2="1208.66" y2="279.58" stroke="white" stroke-width="0.597058"/>
<line x1="1187.46" y1="301.371" x2="1230.45" y2="301.371" stroke="white" stroke-width="0.597058"/>
<path fill-rule="evenodd" clip-rule="evenodd" d="M1277.61 302.267V307.043H1279.4V302.267H1284.18V300.476H1279.4V295.699H1277.61V300.476H1272.83V302.267H1277.61Z" fill="white"/>
<line x1="1278.51" y1="322.568" x2="1278.51" y2="279.58" stroke="white" stroke-width="0.597058"/>
<line x1="1257.31" y1="301.371" x2="1300.3" y2="301.371" stroke="white" stroke-width="0.597058"/>
<path fill-rule="evenodd" clip-rule="evenodd" d="M1347.46 302.268V307.045H1349.25V302.268H1354.03V300.477H1349.25V295.701L1347.46 295.701V300.477H1342.68V302.268H1347.46Z" fill="white"/>
<line x1="1348.36" y1="322.568" x2="1348.36" y2="279.58" stroke="white" stroke-width="0.597058"/>
<line x1="1327.16" y1="301.371" x2="1370.15" y2="301.371" stroke="white" stroke-width="0.597058"/>
<path fill-rule="evenodd" clip-rule="evenodd" d="M1417.31 302.268V307.045H1419.1V302.268H1423.88V300.477H1419.1V295.701L1417.31 295.701V300.477H1412.53V302.268H1417.31Z" fill="white"/>
<line x1="1418.21" y1="322.568" x2="1418.21" y2="279.58" stroke="white" stroke-width="0.597058"/>
<line x1="1397.01" y1="301.371" x2="1440" y2="301.371" stroke="white" stroke-width="0.597058"/>
<path fill-rule="evenodd" clip-rule="evenodd" d="M20.3001 372.253V377.03H22.0912V372.253H26.8675V370.462H22.0912V365.686H20.3001V370.462H15.5234V372.253H20.3001Z" fill="white"/>
<line x1="21.1961" y1="392.553" x2="21.1961" y2="349.565" stroke="white" stroke-width="0.597058"/>
<line y1="371.356" x2="42.9882" y2="371.356" stroke="white" stroke-width="0.597058"/>
<path fill-rule="evenodd" clip-rule="evenodd" d="M90.1502 372.253V377.03H91.9413V372.253H96.7176V370.462H91.9413V365.686L90.1502 365.686V370.462H85.3735V372.253H90.1502Z" fill="white"/>
<line x1="91.0467" y1="392.553" x2="91.0467" y2="349.565" stroke="white" stroke-width="0.597058"/>
<line x1="69.8506" y1="371.358" x2="112.839" y2="371.358" stroke="white" stroke-width="0.597058"/>
<path fill-rule="evenodd" clip-rule="evenodd" d="M160.001 372.253V377.03H161.792V372.253H166.569V370.462H161.792V365.686L160.001 365.686V370.462H155.225V372.253H160.001Z" fill="white"/>
<line x1="160.897" y1="392.553" x2="160.897" y2="349.565" stroke="white" stroke-width="0.597058"/>
<line x1="139.701" y1="371.358" x2="182.689" y2="371.358" stroke="white" stroke-width="0.597058"/>
<path fill-rule="evenodd" clip-rule="evenodd" d="M229.851 372.253V377.03H231.642V372.253H236.419V370.462H231.642V365.686H229.851V370.462H225.075V372.253H229.851Z" fill="white"/>
<line x1="230.748" y1="392.553" x2="230.748" y2="349.565" stroke="white" stroke-width="0.597058"/>
<line x1="209.552" y1="371.356" x2="252.54" y2="371.356" stroke="white" stroke-width="0.597058"/>
<path fill-rule="evenodd" clip-rule="evenodd" d="M299.703 372.253V377.03H301.494V372.253H306.27V370.462H301.494V365.686L299.703 365.686V370.462H294.926V372.253H299.703Z" fill="white"/>
<line x1="300.598" y1="392.553" x2="300.598" y2="349.565" stroke="white" stroke-width="0.597058"/>
<line x1="279.402" y1="371.358" x2="322.391" y2="371.358" stroke="white" stroke-width="0.597058"/>
<path fill-rule="evenodd" clip-rule="evenodd" d="M369.554 372.253V377.03H371.345V372.253H376.121V370.462H371.345V365.686H369.554V370.462H364.777V372.253H369.554Z" fill="white"/>
<line x1="370.449" y1="392.553" x2="370.449" y2="349.565" stroke="white" stroke-width="0.597058"/>
<line x1="349.253" y1="371.356" x2="392.241" y2="371.356" stroke="white" stroke-width="0.597058"/>
<path fill-rule="evenodd" clip-rule="evenodd" d="M439.403 372.253V377.03H441.194V372.253H445.971V370.462H441.194V365.686H439.403V370.462H434.626V372.253H439.403Z" fill="white"/>
<line x1="440.3" y1="392.553" x2="440.3" y2="349.565" stroke="white" stroke-width="0.597058"/>
<line x1="419.104" y1="371.356" x2="462.092" y2="371.356" stroke="white" stroke-width="0.597058"/>
<path fill-rule="evenodd" clip-rule="evenodd" d="M509.255 372.253V377.03H511.046V372.253H515.822V370.462H511.046V365.686L509.255 365.686V370.462H504.478V372.253H509.255Z" fill="white"/>
<line x1="510.15" y1="392.553" x2="510.15" y2="349.565" stroke="white" stroke-width="0.597058"/>
<line x1="488.954" y1="371.358" x2="531.942" y2="371.358" stroke="white" stroke-width="0.597058"/>
<path fill-rule="evenodd" clip-rule="evenodd" d="M579.105 372.253V377.03H580.896V372.253H585.673V370.462H580.896V365.686L579.105 365.686V370.462H574.329V372.253H579.105Z" fill="white"/>
<line x1="580.001" y1="392.553" x2="580.001" y2="349.565" stroke="white" stroke-width="0.597058"/>
<line x1="558.805" y1="371.356" x2="601.793" y2="371.356" stroke="white" stroke-width="0.597058"/>
<path fill-rule="evenodd" clip-rule="evenodd" d="M648.954 372.253V377.03H650.745V372.253H655.522V370.462H650.745V365.686H648.954V370.462H644.178V372.253H648.954Z" fill="white"/>
<line x1="649.851" y1="392.553" x2="649.851" y2="349.565" stroke="white" stroke-width="0.597058"/>
<line x1="628.655" y1="371.358" x2="671.643" y2="371.358" stroke="white" stroke-width="0.597058"/>
<path fill-rule="evenodd" clip-rule="evenodd" d="M718.805 372.253V377.03H720.597V372.253H725.373V370.462H720.597V365.686L718.805 365.686V370.462H714.029V372.253H718.805Z" fill="white"/>
<line x1="719.702" y1="392.553" x2="719.702" y2="349.565" stroke="white" stroke-width="0.597058"/>
<line x1="698.506" y1="371.358" x2="741.494" y2="371.358" stroke="white" stroke-width="0.597058"/>
<path fill-rule="evenodd" clip-rule="evenodd" d="M788.657 372.253V377.03H790.448V372.253H795.224V370.462H790.448V365.686L788.657 365.686V370.462H783.88V372.253H788.657Z" fill="white"/>
<line x1="789.553" y1="392.553" x2="789.553" y2="349.565" stroke="white" stroke-width="0.597058"/>
<line x1="768.356" y1="371.356" x2="811.345" y2="371.356" stroke="white" stroke-width="0.597058"/>
<path fill-rule="evenodd" clip-rule="evenodd" d="M858.507 372.253V377.03H860.298V372.253H865.074V370.462H860.298V365.686H858.507V370.462H853.73V372.253H858.507Z" fill="white"/>
<line x1="859.403" y1="392.553" x2="859.403" y2="349.565" stroke="white" stroke-width="0.597058"/>
<line x1="838.207" y1="371.358" x2="881.195" y2="371.358" stroke="white" stroke-width="0.597058"/>
<path fill-rule="evenodd" clip-rule="evenodd" d="M928.358 372.253V377.03H930.149V372.253H934.926V370.462H930.149V365.686L928.358 365.686V370.462H923.582V372.253H928.358Z" fill="white"/>
<line x1="929.254" y1="392.553" x2="929.254" y2="349.565" stroke="white" stroke-width="0.597058"/>
<line x1="908.058" y1="371.356" x2="951.046" y2="371.356" stroke="white" stroke-width="0.597058"/>
<path fill-rule="evenodd" clip-rule="evenodd" d="M998.207 372.253V377.03H999.998V372.253H1004.78V370.461H999.998V365.686L998.207 365.686V370.461H993.431V372.253H998.207Z" fill="white"/>
<line x1="999.104" y1="392.553" x2="999.104" y2="349.565" stroke="white" stroke-width="0.597058"/>
<line x1="977.908" y1="371.356" x2="1020.9" y2="371.356" stroke="white" stroke-width="0.597058"/>
<path fill-rule="evenodd" clip-rule="evenodd" d="M1068.06 372.253V377.03H1069.85V372.253H1074.63V370.461H1069.85V365.686H1068.06V370.461H1063.28V372.253H1068.06Z" fill="white"/>
<line x1="1068.95" y1="392.553" x2="1068.95" y2="349.565" stroke="white" stroke-width="0.597058"/>
<line x1="1047.76" y1="371.358" x2="1090.75" y2="371.358" stroke="white" stroke-width="0.597058"/>
<path fill-rule="evenodd" clip-rule="evenodd" d="M1137.91 372.253V377.03H1139.7V372.253H1144.48V370.462H1139.7V365.686L1137.91 365.686V370.462H1133.13V372.253H1137.91Z" fill="white"/>
<line x1="1138.81" y1="392.553" x2="1138.81" y2="349.565" stroke="white" stroke-width="0.597058"/>
<line x1="1117.61" y1="371.356" x2="1160.6" y2="371.356" stroke="white" stroke-width="0.597058"/>
<path fill-rule="evenodd" clip-rule="evenodd" d="M1207.76 372.253V377.03H1209.55V372.253H1214.33V370.462H1209.55V365.686L1207.76 365.686V370.462H1202.98V372.253H1207.76Z" fill="white"/>
<line x1="1208.66" y1="392.553" x2="1208.66" y2="349.565" stroke="white" stroke-width="0.597058"/>
<line x1="1187.46" y1="371.358" x2="1230.45" y2="371.358" stroke="white" stroke-width="0.597058"/>
<path fill-rule="evenodd" clip-rule="evenodd" d="M1277.61 372.253V377.03H1279.4V372.253H1284.18V370.461H1279.4V365.686H1277.61V370.461H1272.83V372.253H1277.61Z" fill="white"/>
<line x1="1278.51" y1="392.553" x2="1278.51" y2="349.565" stroke="white" stroke-width="0.597058"/>
<line x1="1257.31" y1="371.358" x2="1300.3" y2="371.358" stroke="white" stroke-width="0.597058"/>
<path fill-rule="evenodd" clip-rule="evenodd" d="M1347.46 372.253V377.03H1349.25V372.253H1354.03V370.462H1349.25V365.686L1347.46 365.686V370.462H1342.69V372.253H1347.46Z" fill="white"/>
<line x1="1348.36" y1="392.553" x2="1348.36" y2="349.565" stroke="white" stroke-width="0.597058"/>
<line x1="1327.16" y1="371.356" x2="1370.15" y2="371.356" stroke="white" stroke-width="0.597058"/>
<path fill-rule="evenodd" clip-rule="evenodd" d="M1417.31 372.253V377.03H1419.1V372.253H1423.88V370.462H1419.1V365.686L1417.31 365.686V370.462H1412.53V372.253H1417.31Z" fill="white"/>
<line x1="1418.21" y1="392.553" x2="1418.21" y2="349.565" stroke="white" stroke-width="0.597058"/>
<line x1="1397.01" y1="371.358" x2="1440" y2="371.358" stroke="white" stroke-width="0.597058"/>
<path fill-rule="evenodd" clip-rule="evenodd" d="M20.3001 442.103V446.879H22.0912V442.103H26.8675V440.312H22.0912V435.535H20.3001V440.312H15.5234V442.103H20.3001Z" fill="white"/>
<line x1="21.1961" y1="462.402" x2="21.1961" y2="419.414" stroke="white" stroke-width="0.597058"/>
<line y1="441.207" x2="42.9882" y2="441.207" stroke="white" stroke-width="0.597058"/>
<path fill-rule="evenodd" clip-rule="evenodd" d="M90.1502 442.103V446.879H91.9413V442.103H96.7176V440.312H91.9413V435.535H90.1502V440.312H85.3735V442.103H90.1502Z" fill="white"/>
<line x1="91.0467" y1="462.402" x2="91.0467" y2="419.414" stroke="white" stroke-width="0.597058"/>
<line x1="69.8506" y1="441.207" x2="112.839" y2="441.207" stroke="white" stroke-width="0.597058"/>
<path fill-rule="evenodd" clip-rule="evenodd" d="M160.002 442.103V446.879H161.793V442.103H166.57V440.312H161.793V435.535H160.002V440.312H155.226V442.103H160.002Z" fill="white"/>
<line x1="160.897" y1="462.402" x2="160.897" y2="419.414" stroke="white" stroke-width="0.597058"/>
<line x1="139.701" y1="441.207" x2="182.689" y2="441.207" stroke="white" stroke-width="0.597058"/>
<path fill-rule="evenodd" clip-rule="evenodd" d="M229.851 442.103V446.879H231.642V442.103H236.419V440.312H231.642V435.535H229.851V440.312H225.075V442.103H229.851Z" fill="white"/>
<line x1="230.748" y1="462.402" x2="230.748" y2="419.414" stroke="white" stroke-width="0.597058"/>
<line x1="209.552" y1="441.207" x2="252.54" y2="441.207" stroke="white" stroke-width="0.597058"/>
<path fill-rule="evenodd" clip-rule="evenodd" d="M299.703 442.103V446.879H301.494V442.103H306.27V440.312H301.494V435.535H299.703V440.312H294.926V442.103H299.703Z" fill="white"/>
<line x1="300.598" y1="462.402" x2="300.598" y2="419.414" stroke="white" stroke-width="0.597058"/>
<line x1="279.402" y1="441.207" x2="322.391" y2="441.207" stroke="white" stroke-width="0.597058"/>
<path fill-rule="evenodd" clip-rule="evenodd" d="M369.554 442.103V446.879H371.345V442.103H376.121V440.312H371.345V435.535H369.554V440.312H364.777V442.103H369.554Z" fill="white"/>
<line x1="370.449" y1="462.402" x2="370.449" y2="419.414" stroke="white" stroke-width="0.597058"/>
<line x1="349.253" y1="441.207" x2="392.241" y2="441.207" stroke="white" stroke-width="0.597058"/>
<path fill-rule="evenodd" clip-rule="evenodd" d="M439.403 442.103V446.879H441.194V442.103H445.971V440.312H441.194V435.535H439.403V440.312H434.626V442.103H439.403Z" fill="white"/>
<line x1="440.3" y1="462.402" x2="440.3" y2="419.414" stroke="white" stroke-width="0.597058"/>
<line x1="419.104" y1="441.207" x2="462.092" y2="441.207" stroke="white" stroke-width="0.597058"/>
<path fill-rule="evenodd" clip-rule="evenodd" d="M509.255 442.103V446.879H511.046V442.103H515.822V440.312H511.046V435.535H509.255V440.312H504.478V442.103H509.255Z" fill="white"/>
<line x1="510.15" y1="462.402" x2="510.15" y2="419.414" stroke="white" stroke-width="0.597058"/>
<line x1="488.954" y1="441.207" x2="531.942" y2="441.207" stroke="white" stroke-width="0.597058"/>
<path fill-rule="evenodd" clip-rule="evenodd" d="M579.105 442.103V446.879H580.896V442.103H585.672V440.312H580.896V435.535H579.105V440.312H574.328V442.103H579.105Z" fill="white"/>
<line x1="580.001" y1="462.402" x2="580.001" y2="419.414" stroke="white" stroke-width="0.597058"/>
<line x1="558.805" y1="441.207" x2="601.793" y2="441.207" stroke="white" stroke-width="0.597058"/>
<path fill-rule="evenodd" clip-rule="evenodd" d="M648.955 442.103V446.879H650.746V442.103H655.522V440.312H650.746V435.535H648.955V440.312H644.178V442.103H648.955Z" fill="white"/>
<line x1="649.851" y1="462.402" x2="649.851" y2="419.414" stroke="white" stroke-width="0.597058"/>
<line x1="628.655" y1="441.207" x2="671.643" y2="441.207" stroke="white" stroke-width="0.597058"/>
<path fill-rule="evenodd" clip-rule="evenodd" d="M718.805 442.103V446.879H720.597V442.103H725.373V440.312H720.597V435.535H718.805V440.312H714.029V442.103H718.805Z" fill="white"/>
<line x1="719.702" y1="462.402" x2="719.702" y2="419.414" stroke="white" stroke-width="0.597058"/>
<line x1="698.506" y1="441.207" x2="741.494" y2="441.207" stroke="white" stroke-width="0.597058"/>
<path fill-rule="evenodd" clip-rule="evenodd" d="M788.657 442.103V446.879H790.449V442.103H795.225V440.312H790.449V435.535H788.657V440.312H783.881V442.103H788.657Z" fill="white"/>
<line x1="789.553" y1="462.402" x2="789.553" y2="419.414" stroke="white" stroke-width="0.597058"/>
<line x1="768.356" y1="441.207" x2="811.345" y2="441.207" stroke="white" stroke-width="0.597058"/>
<path fill-rule="evenodd" clip-rule="evenodd" d="M858.506 442.103V446.879H860.297V442.103H865.074V440.312H860.297V435.535H858.506V440.312H853.729V442.103H858.506Z" fill="white"/>
<line x1="859.403" y1="462.402" x2="859.403" y2="419.414" stroke="white" stroke-width="0.597058"/>
<line x1="838.207" y1="441.207" x2="881.195" y2="441.207" stroke="white" stroke-width="0.597058"/>
<path fill-rule="evenodd" clip-rule="evenodd" d="M928.358 442.103V446.879H930.149V442.103H934.926V440.312H930.149V435.535H928.358V440.312H923.582V442.103H928.358Z" fill="white"/>
<line x1="929.254" y1="462.402" x2="929.254" y2="419.414" stroke="white" stroke-width="0.597058"/>
<line x1="908.058" y1="441.207" x2="951.046" y2="441.207" stroke="white" stroke-width="0.597058"/>
<path fill-rule="evenodd" clip-rule="evenodd" d="M998.207 442.102V446.879H999.999V442.102H1004.78V440.311H999.999V435.535H998.207V440.311H993.432V442.102H998.207Z" fill="white"/>
<line x1="999.104" y1="462.402" x2="999.104" y2="419.414" stroke="white" stroke-width="0.597058"/>
<line x1="977.908" y1="441.207" x2="1020.9" y2="441.207" stroke="white" stroke-width="0.597058"/>
<path fill-rule="evenodd" clip-rule="evenodd" d="M1068.06 442.102V446.879H1069.85V442.102H1074.63V440.311H1069.85V435.535H1068.06V440.311H1063.28V442.102H1068.06Z" fill="white"/>
<line x1="1068.95" y1="462.402" x2="1068.95" y2="419.414" stroke="white" stroke-width="0.597058"/>
<line x1="1047.76" y1="441.207" x2="1090.75" y2="441.207" stroke="white" stroke-width="0.597058"/>
<path fill-rule="evenodd" clip-rule="evenodd" d="M1137.91 442.103V446.879H1139.7V442.103H1144.48V440.312H1139.7V435.535H1137.91V440.312H1133.13V442.103H1137.91Z" fill="white"/>
<line x1="1138.81" y1="462.402" x2="1138.81" y2="419.414" stroke="white" stroke-width="0.597058"/>
<line x1="1117.61" y1="441.207" x2="1160.6" y2="441.207" stroke="white" stroke-width="0.597058"/>
<path fill-rule="evenodd" clip-rule="evenodd" d="M1207.76 442.103V446.879H1209.55V442.103H1214.33V440.312H1209.55V435.535H1207.76V440.312H1202.98V442.103H1207.76Z" fill="white"/>
<line x1="1208.66" y1="462.402" x2="1208.66" y2="419.414" stroke="white" stroke-width="0.597058"/>
<line x1="1187.46" y1="441.207" x2="1230.45" y2="441.207" stroke="white" stroke-width="0.597058"/>
<path fill-rule="evenodd" clip-rule="evenodd" d="M1277.61 442.102V446.879H1279.4V442.102H1284.18V440.311H1279.4V435.535H1277.61V440.311H1272.83V442.102H1277.61Z" fill="white"/>
<line x1="1278.51" y1="462.402" x2="1278.51" y2="419.414" stroke="white" stroke-width="0.597058"/>
<line x1="1257.31" y1="441.207" x2="1300.3" y2="441.207" stroke="white" stroke-width="0.597058"/>
<path fill-rule="evenodd" clip-rule="evenodd" d="M1347.46 442.103V446.879H1349.25V442.103H1354.03V440.312H1349.25V435.535H1347.46V440.312H1342.69V442.103H1347.46Z" fill="white"/>
<line x1="1348.36" y1="462.402" x2="1348.36" y2="419.414" stroke="white" stroke-width="0.597058"/>
<line x1="1327.16" y1="441.207" x2="1370.15" y2="441.207" stroke="white" stroke-width="0.597058"/>
<path fill-rule="evenodd" clip-rule="evenodd" d="M1417.31 442.103V446.879H1419.1V442.103H1423.88V440.312H1419.1V435.535H1417.31V440.312H1412.54V442.103H1417.31Z" fill="white"/>
<line x1="1418.21" y1="462.402" x2="1418.21" y2="419.414" stroke="white" stroke-width="0.597058"/>
<line x1="1397.01" y1="441.207" x2="1440" y2="441.207" stroke="white" stroke-width="0.597058"/>
<path fill-rule="evenodd" clip-rule="evenodd" d="M20.3001 511.953V516.729H22.0912V511.953H26.8675V510.161H22.0912V505.385H20.3001V510.161H15.5234V511.953H20.3001Z" fill="white"/>
<line x1="21.1961" y1="532.254" x2="21.1961" y2="489.266" stroke="white" stroke-width="0.597058"/>
<line y1="511.057" x2="42.9882" y2="511.057" stroke="white" stroke-width="0.597058"/>
<path fill-rule="evenodd" clip-rule="evenodd" d="M90.1502 511.953V516.729H91.9413V511.953H96.7176V510.161H91.9413V505.385H90.1502V510.161H85.3735V511.953H90.1502Z" fill="white"/>
<line x1="91.0467" y1="532.254" x2="91.0467" y2="489.266" stroke="white" stroke-width="0.597058"/>
<line x1="69.8506" y1="511.057" x2="112.839" y2="511.057" stroke="white" stroke-width="0.597058"/>
<path fill-rule="evenodd" clip-rule="evenodd" d="M160.002 511.953V516.729H161.793V511.953H166.57V510.161H161.793V505.385H160.002V510.161H155.226V511.953H160.002Z" fill="white"/>
<line x1="160.897" y1="532.254" x2="160.897" y2="489.266" stroke="white" stroke-width="0.597058"/>
<line x1="139.701" y1="511.057" x2="182.689" y2="511.057" stroke="white" stroke-width="0.597058"/>
<path fill-rule="evenodd" clip-rule="evenodd" d="M229.851 511.953V516.729H231.642V511.953H236.419V510.161H231.642V505.385H229.851V510.161H225.075V511.953H229.851Z" fill="white"/>
<line x1="230.747" y1="532.254" x2="230.747" y2="489.266" stroke="white" stroke-width="0.597058"/>
<line x1="209.552" y1="511.057" x2="252.54" y2="511.057" stroke="white" stroke-width="0.597058"/>
<path fill-rule="evenodd" clip-rule="evenodd" d="M299.703 511.953V516.729H301.494V511.953H306.27V510.161H301.494V505.385H299.703V510.161H294.926V511.953H299.703Z" fill="white"/>
<line x1="300.598" y1="532.254" x2="300.598" y2="489.266" stroke="white" stroke-width="0.597058"/>
<line x1="279.402" y1="511.057" x2="322.391" y2="511.057" stroke="white" stroke-width="0.597058"/>
<path fill-rule="evenodd" clip-rule="evenodd" d="M369.554 511.953V516.729H371.345V511.953H376.121V510.161H371.345V505.385H369.554V510.161H364.777V511.953H369.554Z" fill="white"/>
<line x1="370.449" y1="532.254" x2="370.449" y2="489.266" stroke="white" stroke-width="0.597058"/>
<line x1="349.253" y1="511.057" x2="392.241" y2="511.057" stroke="white" stroke-width="0.597058"/>
<path fill-rule="evenodd" clip-rule="evenodd" d="M439.403 511.953V516.729H441.194V511.953H445.971V510.161H441.194V505.385H439.403V510.161H434.626V511.953H439.403Z" fill="white"/>
<line x1="440.3" y1="532.254" x2="440.3" y2="489.266" stroke="white" stroke-width="0.597058"/>
<line x1="419.104" y1="511.057" x2="462.092" y2="511.057" stroke="white" stroke-width="0.597058"/>
<path fill-rule="evenodd" clip-rule="evenodd" d="M509.255 511.953V516.729H511.046V511.953H515.822V510.161H511.046V505.385H509.255V510.161H504.478V511.953H509.255Z" fill="white"/>
<line x1="510.149" y1="532.254" x2="510.149" y2="489.266" stroke="white" stroke-width="0.597058"/>
<line x1="488.954" y1="511.057" x2="531.942" y2="511.057" stroke="white" stroke-width="0.597058"/>
<path fill-rule="evenodd" clip-rule="evenodd" d="M579.105 511.953V516.729H580.896V511.953H585.672V510.161H580.896V505.385H579.105V510.161H574.328V511.953H579.105Z" fill="white"/>
<line x1="580.001" y1="532.254" x2="580.001" y2="489.266" stroke="white" stroke-width="0.597058"/>
<line x1="558.805" y1="511.057" x2="601.793" y2="511.057" stroke="white" stroke-width="0.597058"/>
<path fill-rule="evenodd" clip-rule="evenodd" d="M648.955 511.953V516.729H650.746V511.953H655.522V510.161H650.746V505.385H648.955V510.161H644.178V511.953H648.955Z" fill="white"/>
<line x1="649.851" y1="532.254" x2="649.851" y2="489.266" stroke="white" stroke-width="0.597058"/>
<line x1="628.655" y1="511.057" x2="671.643" y2="511.057" stroke="white" stroke-width="0.597058"/>
<path fill-rule="evenodd" clip-rule="evenodd" d="M718.805 511.953V516.729H720.597V511.953H725.373V510.161H720.597V505.385H718.805V510.161H714.029V511.953H718.805Z" fill="white"/>
<line x1="719.701" y1="532.254" x2="719.701" y2="489.266" stroke="white" stroke-width="0.597058"/>
<line x1="698.506" y1="511.057" x2="741.494" y2="511.057" stroke="white" stroke-width="0.597058"/>
<path fill-rule="evenodd" clip-rule="evenodd" d="M788.657 511.953V516.729H790.449V511.953H795.225V510.161H790.449V505.385H788.657V510.161H783.881V511.953H788.657Z" fill="white"/>
<line x1="789.553" y1="532.254" x2="789.553" y2="489.266" stroke="white" stroke-width="0.597058"/>
<line x1="768.356" y1="511.057" x2="811.345" y2="511.057" stroke="white" stroke-width="0.597058"/>
<path fill-rule="evenodd" clip-rule="evenodd" d="M858.506 511.953V516.729H860.297V511.953H865.074V510.161H860.297V505.385H858.506V510.161H853.729V511.953H858.506Z" fill="white"/>
<line x1="859.403" y1="532.254" x2="859.403" y2="489.266" stroke="white" stroke-width="0.597058"/>
<line x1="838.207" y1="511.057" x2="881.195" y2="511.057" stroke="white" stroke-width="0.597058"/>
<path fill-rule="evenodd" clip-rule="evenodd" d="M928.358 511.953V516.729H930.149V511.953H934.926V510.161H930.149V505.385H928.358V510.161H923.582V511.953H928.358Z" fill="white"/>
<line x1="929.254" y1="532.254" x2="929.254" y2="489.266" stroke="white" stroke-width="0.597058"/>
<line x1="908.058" y1="511.057" x2="951.046" y2="511.057" stroke="white" stroke-width="0.597058"/>
<path fill-rule="evenodd" clip-rule="evenodd" d="M998.207 511.954V516.731H999.999V511.954H1004.78V510.162H999.999V505.387H998.207V510.162H993.432V511.954H998.207Z" fill="white"/>
<line x1="999.104" y1="532.254" x2="999.104" y2="489.266" stroke="white" stroke-width="0.597058"/>
<line x1="977.908" y1="511.057" x2="1020.9" y2="511.057" stroke="white" stroke-width="0.597058"/>
<path fill-rule="evenodd" clip-rule="evenodd" d="M1068.06 511.954V516.731H1069.85V511.954H1074.63V510.162H1069.85V505.387H1068.06V510.162H1063.28V511.954H1068.06Z" fill="white"/>
<line x1="1068.95" y1="532.254" x2="1068.95" y2="489.266" stroke="white" stroke-width="0.597058"/>
<line x1="1047.76" y1="511.057" x2="1090.75" y2="511.057" stroke="white" stroke-width="0.597058"/>
<path fill-rule="evenodd" clip-rule="evenodd" d="M1137.91 511.955V516.731H1139.7V511.955H1144.48V510.163H1139.7V505.387H1137.91V510.163H1133.13V511.955H1137.91Z" fill="white"/>
<line x1="1138.81" y1="532.254" x2="1138.81" y2="489.266" stroke="white" stroke-width="0.597058"/>
<line x1="1117.61" y1="511.057" x2="1160.6" y2="511.057" stroke="white" stroke-width="0.597058"/>
<path fill-rule="evenodd" clip-rule="evenodd" d="M1207.76 511.955V516.731H1209.55V511.955H1214.33V510.163H1209.55V505.387H1207.76V510.163H1202.98V511.955H1207.76Z" fill="white"/>
<line x1="1208.66" y1="532.254" x2="1208.66" y2="489.266" stroke="white" stroke-width="0.597058"/>
<line x1="1187.46" y1="511.057" x2="1230.45" y2="511.057" stroke="white" stroke-width="0.597058"/>
<path fill-rule="evenodd" clip-rule="evenodd" d="M1277.61 511.954V516.731H1279.4V511.954H1284.18V510.162H1279.4V505.387H1277.61V510.162H1272.83V511.954H1277.61Z" fill="white"/>
<line x1="1278.51" y1="532.254" x2="1278.51" y2="489.266" stroke="white" stroke-width="0.597058"/>
<line x1="1257.31" y1="511.057" x2="1300.3" y2="511.057" stroke="white" stroke-width="0.597058"/>
<path fill-rule="evenodd" clip-rule="evenodd" d="M1347.46 511.955V516.731H1349.25V511.955H1354.03V510.163H1349.25V505.387H1347.46V510.163H1342.69V511.955H1347.46Z" fill="white"/>
<line x1="1348.36" y1="532.254" x2="1348.36" y2="489.266" stroke="white" stroke-width="0.597058"/>
<line x1="1327.16" y1="511.057" x2="1370.15" y2="511.057" stroke="white" stroke-width="0.597058"/>
<path fill-rule="evenodd" clip-rule="evenodd" d="M1417.31 511.955V516.731H1419.1V511.955H1423.88V510.163H1419.1V505.387H1417.31V510.163H1412.54V511.955H1417.31Z" fill="white"/>
<line x1="1418.21" y1="532.254" x2="1418.21" y2="489.266" stroke="white" stroke-width="0.597058"/>
<line x1="1397.01" y1="511.057" x2="1440" y2="511.057" stroke="white" stroke-width="0.597058"/>
<path fill-rule="evenodd" clip-rule="evenodd" d="M20.3001 581.802V586.578H22.0912V581.802H26.8675V580.011H22.0912V575.234H20.3001V580.011H15.5234V581.802H20.3001Z" fill="white"/>
<line x1="21.1961" y1="602.104" x2="21.1961" y2="559.115" stroke="white" stroke-width="0.597058"/>
<line y1="580.907" x2="42.9882" y2="580.907" stroke="white" stroke-width="0.597058"/>
<path fill-rule="evenodd" clip-rule="evenodd" d="M90.1502 581.802V586.578H91.9413V581.802H96.7176V580.011H91.9413V575.234H90.1502V580.011H85.3735V581.802H90.1502Z" fill="white"/>
<line x1="91.0467" y1="602.104" x2="91.0467" y2="559.115" stroke="white" stroke-width="0.597058"/>
<line x1="69.8506" y1="580.907" x2="112.839" y2="580.907" stroke="white" stroke-width="0.597058"/>
<path fill-rule="evenodd" clip-rule="evenodd" d="M160.002 581.802V586.578H161.793V581.802H166.57V580.011H161.793V575.234H160.002V580.011H155.226V581.802H160.002Z" fill="white"/>
<line x1="160.897" y1="602.104" x2="160.897" y2="559.115" stroke="white" stroke-width="0.597058"/>
<line x1="139.701" y1="580.907" x2="182.689" y2="580.907" stroke="white" stroke-width="0.597058"/>
<path fill-rule="evenodd" clip-rule="evenodd" d="M229.851 581.802V586.578H231.642V581.802H236.419V580.011H231.642V575.234H229.851V580.011H225.075V581.802H229.851Z" fill="white"/>
<line x1="230.747" y1="602.104" x2="230.747" y2="559.115" stroke="white" stroke-width="0.597058"/>
<line x1="209.552" y1="580.907" x2="252.54" y2="580.907" stroke="white" stroke-width="0.597058"/>
<path fill-rule="evenodd" clip-rule="evenodd" d="M299.703 581.802V586.578H301.494V581.802H306.27V580.011H301.494V575.234H299.703V580.011H294.926V581.802H299.703Z" fill="white"/>
<line x1="300.598" y1="602.104" x2="300.598" y2="559.115" stroke="white" stroke-width="0.597058"/>
<line x1="279.402" y1="580.907" x2="322.391" y2="580.907" stroke="white" stroke-width="0.597058"/>
<path fill-rule="evenodd" clip-rule="evenodd" d="M369.554 581.802V586.578H371.345V581.802H376.121V580.011H371.345V575.234H369.554V580.011H364.777V581.802H369.554Z" fill="white"/>
<line x1="370.449" y1="602.104" x2="370.449" y2="559.115" stroke="white" stroke-width="0.597058"/>
<line x1="349.253" y1="580.907" x2="392.241" y2="580.907" stroke="white" stroke-width="0.597058"/>
<path fill-rule="evenodd" clip-rule="evenodd" d="M439.403 581.802V586.578H441.194V581.802H445.971V580.011H441.194V575.234H439.403V580.011H434.626V581.802H439.403Z" fill="white"/>
<line x1="440.3" y1="602.104" x2="440.3" y2="559.115" stroke="white" stroke-width="0.597058"/>
<line x1="419.104" y1="580.907" x2="462.092" y2="580.907" stroke="white" stroke-width="0.597058"/>
<path fill-rule="evenodd" clip-rule="evenodd" d="M509.255 581.802V586.578H511.046V581.802H515.822V580.011H511.046V575.234H509.255V580.011H504.478V581.802H509.255Z" fill="white"/>
<line x1="510.149" y1="602.104" x2="510.149" y2="559.115" stroke="white" stroke-width="0.597058"/>
<line x1="488.954" y1="580.907" x2="531.942" y2="580.907" stroke="white" stroke-width="0.597058"/>
<path fill-rule="evenodd" clip-rule="evenodd" d="M579.105 581.802V586.578H580.896V581.802H585.672V580.011H580.896V575.234H579.105V580.011H574.328V581.802H579.105Z" fill="white"/>
<line x1="580.001" y1="602.104" x2="580.001" y2="559.115" stroke="white" stroke-width="0.597058"/>
<line x1="558.805" y1="580.907" x2="601.793" y2="580.907" stroke="white" stroke-width="0.597058"/>
<path fill-rule="evenodd" clip-rule="evenodd" d="M648.955 581.802V586.578H650.746V581.802H655.522V580.011H650.746V575.234H648.955V580.011H644.178V581.802H648.955Z" fill="white"/>
<line x1="649.851" y1="602.104" x2="649.851" y2="559.115" stroke="white" stroke-width="0.597058"/>
<line x1="628.655" y1="580.907" x2="671.643" y2="580.907" stroke="white" stroke-width="0.597058"/>
<path fill-rule="evenodd" clip-rule="evenodd" d="M718.805 581.802V586.578H720.597V581.802H725.373V580.011H720.597V575.234H718.805V580.011H714.029V581.802H718.805Z" fill="white"/>
<line x1="719.701" y1="602.104" x2="719.701" y2="559.115" stroke="white" stroke-width="0.597058"/>
<line x1="698.506" y1="580.907" x2="741.494" y2="580.907" stroke="white" stroke-width="0.597058"/>
<path fill-rule="evenodd" clip-rule="evenodd" d="M788.657 581.802V586.578H790.449V581.802H795.225V580.011H790.449V575.234H788.657V580.011H783.881V581.802H788.657Z" fill="white"/>
<line x1="789.553" y1="602.104" x2="789.553" y2="559.115" stroke="white" stroke-width="0.597058"/>
<line x1="768.356" y1="580.907" x2="811.345" y2="580.907" stroke="white" stroke-width="0.597058"/>
<path fill-rule="evenodd" clip-rule="evenodd" d="M858.506 581.802V586.578H860.297V581.802H865.074V580.011H860.297V575.234H858.506V580.011H853.729V581.802H858.506Z" fill="white"/>
<line x1="859.403" y1="602.104" x2="859.403" y2="559.115" stroke="white" stroke-width="0.597058"/>
<line x1="838.207" y1="580.907" x2="881.195" y2="580.907" stroke="white" stroke-width="0.597058"/>
<path fill-rule="evenodd" clip-rule="evenodd" d="M928.358 581.802V586.578H930.149V581.802H934.926V580.011H930.149V575.234H928.358V580.011H923.582V581.802H928.358Z" fill="white"/>
<line x1="929.254" y1="602.104" x2="929.254" y2="559.115" stroke="white" stroke-width="0.597058"/>
<line x1="908.058" y1="580.907" x2="951.046" y2="580.907" stroke="white" stroke-width="0.597058"/>
<path fill-rule="evenodd" clip-rule="evenodd" d="M998.207 581.803V586.58H999.999V581.803H1004.78V580.012H999.999V575.236H998.207V580.012H993.432V581.803H998.207Z" fill="white"/>
<line x1="999.104" y1="602.104" x2="999.104" y2="559.115" stroke="white" stroke-width="0.597058"/>
<line x1="977.908" y1="580.907" x2="1020.9" y2="580.907" stroke="white" stroke-width="0.597058"/>
<path fill-rule="evenodd" clip-rule="evenodd" d="M1068.06 581.803V586.58H1069.85V581.803H1074.63V580.012H1069.85V575.236H1068.06V580.012H1063.28V581.803H1068.06Z" fill="white"/>
<line x1="1068.95" y1="602.104" x2="1068.95" y2="559.115" stroke="white" stroke-width="0.597058"/>
<line x1="1047.76" y1="580.907" x2="1090.75" y2="580.907" stroke="white" stroke-width="0.597058"/>
<path fill-rule="evenodd" clip-rule="evenodd" d="M1137.91 581.804V586.58H1139.7V581.804H1144.48V580.013H1139.7V575.236H1137.91V580.013H1133.13V581.804H1137.91Z" fill="white"/>
<line x1="1138.81" y1="602.104" x2="1138.81" y2="559.115" stroke="white" stroke-width="0.597058"/>
<line x1="1117.61" y1="580.907" x2="1160.6" y2="580.907" stroke="white" stroke-width="0.597058"/>
<path fill-rule="evenodd" clip-rule="evenodd" d="M1207.76 581.804V586.58H1209.55V581.804H1214.33V580.013H1209.55V575.236H1207.76V580.013H1202.98V581.804H1207.76Z" fill="white"/>
<line x1="1208.66" y1="602.104" x2="1208.66" y2="559.115" stroke="white" stroke-width="0.597058"/>
<line x1="1187.46" y1="580.907" x2="1230.45" y2="580.907" stroke="white" stroke-width="0.597058"/>
<path fill-rule="evenodd" clip-rule="evenodd" d="M1277.61 581.803V586.58H1279.4V581.803H1284.18V580.012H1279.4V575.236H1277.61V580.012H1272.83V581.803H1277.61Z" fill="white"/>
<line x1="1278.51" y1="602.104" x2="1278.51" y2="559.115" stroke="white" stroke-width="0.597058"/>
<line x1="1257.31" y1="580.907" x2="1300.3" y2="580.907" stroke="white" stroke-width="0.597058"/>
<path fill-rule="evenodd" clip-rule="evenodd" d="M1347.46 581.804V586.58H1349.25V581.804H1354.03V580.013H1349.25V575.236H1347.46V580.013H1342.69V581.804H1347.46Z" fill="white"/>
<line x1="1348.36" y1="602.104" x2="1348.36" y2="559.115" stroke="white" stroke-width="0.597058"/>
<line x1="1327.16" y1="580.907" x2="1370.15" y2="580.907" stroke="white" stroke-width="0.597058"/>
<path fill-rule="evenodd" clip-rule="evenodd" d="M1417.31 581.804V586.58H1419.1V581.804H1423.88V580.013H1419.1V575.236H1417.31V580.013H1412.54V581.804H1417.31Z" fill="white"/>
<line x1="1418.21" y1="602.104" x2="1418.21" y2="559.115" stroke="white" stroke-width="0.597058"/>
<line x1="1397.01" y1="580.907" x2="1440" y2="580.907" stroke="white" stroke-width="0.597058"/>
<path fill-rule="evenodd" clip-rule="evenodd" d="M20.3001 651.654V656.43H22.0912V651.654H26.8675V649.863H22.0912V645.086H20.3001V649.863H15.5234V651.654H20.3001Z" fill="white"/>
<line x1="21.1961" y1="671.955" x2="21.1961" y2="628.967" stroke="white" stroke-width="0.597058"/>
<line y1="650.758" x2="42.9882" y2="650.758" stroke="white" stroke-width="0.597058"/>
<path fill-rule="evenodd" clip-rule="evenodd" d="M90.1502 651.654V656.43H91.9413V651.654H96.7176V649.863H91.9413V645.086H90.1502V649.863H85.3735V651.654H90.1502Z" fill="white"/>
<line x1="91.0467" y1="671.955" x2="91.0467" y2="628.967" stroke="white" stroke-width="0.597058"/>
<line x1="69.8506" y1="650.758" x2="112.839" y2="650.758" stroke="white" stroke-width="0.597058"/>
<path fill-rule="evenodd" clip-rule="evenodd" d="M160.002 651.654V656.43H161.793V651.654H166.57V649.863H161.793V645.086H160.002V649.863H155.226V651.654H160.002Z" fill="white"/>
<line x1="160.897" y1="671.955" x2="160.897" y2="628.967" stroke="white" stroke-width="0.597058"/>
<line x1="139.701" y1="650.758" x2="182.689" y2="650.758" stroke="white" stroke-width="0.597058"/>
<path fill-rule="evenodd" clip-rule="evenodd" d="M229.851 651.654V656.43H231.642V651.654H236.419V649.863H231.642V645.086H229.851V649.863H225.075V651.654H229.851Z" fill="white"/>
<line x1="230.747" y1="671.955" x2="230.747" y2="628.967" stroke="white" stroke-width="0.597058"/>
<line x1="209.552" y1="650.758" x2="252.54" y2="650.758" stroke="white" stroke-width="0.597058"/>
<path fill-rule="evenodd" clip-rule="evenodd" d="M299.703 651.654V656.43H301.494V651.654H306.27V649.863H301.494V645.086H299.703V649.863H294.926V651.654H299.703Z" fill="white"/>
<line x1="300.598" y1="671.955" x2="300.598" y2="628.967" stroke="white" stroke-width="0.597058"/>
<line x1="279.402" y1="650.758" x2="322.391" y2="650.758" stroke="white" stroke-width="0.597058"/>
<path fill-rule="evenodd" clip-rule="evenodd" d="M369.554 651.654V656.43H371.345V651.654H376.121V649.863H371.345V645.086H369.554V649.863H364.777V651.654H369.554Z" fill="white"/>
<line x1="370.449" y1="671.955" x2="370.449" y2="628.967" stroke="white" stroke-width="0.597058"/>
<line x1="349.253" y1="650.758" x2="392.241" y2="650.758" stroke="white" stroke-width="0.597058"/>
<path fill-rule="evenodd" clip-rule="evenodd" d="M439.403 651.654V656.43H441.194V651.654H445.971V649.863H441.194V645.086H439.403V649.863H434.626V651.654H439.403Z" fill="white"/>
<line x1="440.3" y1="671.955" x2="440.3" y2="628.967" stroke="white" stroke-width="0.597058"/>
<line x1="419.104" y1="650.758" x2="462.092" y2="650.758" stroke="white" stroke-width="0.597058"/>
<path fill-rule="evenodd" clip-rule="evenodd" d="M509.255 651.654V656.43H511.046V651.654H515.822V649.863H511.046V645.086H509.255V649.863H504.478V651.654H509.255Z" fill="white"/>
<line x1="510.149" y1="671.955" x2="510.149" y2="628.967" stroke="white" stroke-width="0.597058"/>
<line x1="488.954" y1="650.758" x2="531.942" y2="650.758" stroke="white" stroke-width="0.597058"/>
<path fill-rule="evenodd" clip-rule="evenodd" d="M579.105 651.654V656.43H580.896V651.654H585.672V649.863H580.896V645.086H579.105V649.863H574.328V651.654H579.105Z" fill="white"/>
<line x1="580.001" y1="671.955" x2="580.001" y2="628.967" stroke="white" stroke-width="0.597058"/>
<line x1="558.805" y1="650.758" x2="601.793" y2="650.758" stroke="white" stroke-width="0.597058"/>
<path fill-rule="evenodd" clip-rule="evenodd" d="M648.955 651.654V656.43H650.746V651.654H655.522V649.863H650.746V645.086H648.955V649.863H644.178V651.654H648.955Z" fill="white"/>
<line x1="649.851" y1="671.955" x2="649.851" y2="628.967" stroke="white" stroke-width="0.597058"/>
<line x1="628.655" y1="650.758" x2="671.643" y2="650.758" stroke="white" stroke-width="0.597058"/>
<path fill-rule="evenodd" clip-rule="evenodd" d="M718.805 651.654V656.43H720.597V651.654H725.373V649.863H720.597V645.086H718.805V649.863H714.029V651.654H718.805Z" fill="white"/>
<line x1="719.701" y1="671.955" x2="719.701" y2="628.967" stroke="white" stroke-width="0.597058"/>
<line x1="698.506" y1="650.758" x2="741.494" y2="650.758" stroke="white" stroke-width="0.597058"/>
<path fill-rule="evenodd" clip-rule="evenodd" d="M788.657 651.654V656.43H790.449V651.654H795.225V649.863H790.449V645.086H788.657V649.863H783.881V651.654H788.657Z" fill="white"/>
<line x1="789.553" y1="671.955" x2="789.553" y2="628.967" stroke="white" stroke-width="0.597058"/>
<line x1="768.356" y1="650.758" x2="811.345" y2="650.758" stroke="white" stroke-width="0.597058"/>
<path fill-rule="evenodd" clip-rule="evenodd" d="M858.506 651.654V656.43H860.297V651.654H865.074V649.863H860.297V645.086H858.506V649.863H853.729V651.654H858.506Z" fill="white"/>
<line x1="859.403" y1="671.955" x2="859.403" y2="628.967" stroke="white" stroke-width="0.597058"/>
<line x1="838.207" y1="650.758" x2="881.195" y2="650.758" stroke="white" stroke-width="0.597058"/>
<path fill-rule="evenodd" clip-rule="evenodd" d="M928.358 651.654V656.43H930.149V651.654H934.926V649.863H930.149V645.086H928.358V649.863H923.582V651.654H928.358Z" fill="white"/>
<line x1="929.254" y1="671.955" x2="929.254" y2="628.967" stroke="white" stroke-width="0.597058"/>
<line x1="908.058" y1="650.758" x2="951.046" y2="650.758" stroke="white" stroke-width="0.597058"/>
<path fill-rule="evenodd" clip-rule="evenodd" d="M998.207 651.655V656.432H999.999V651.655H1004.78V649.864H999.999V645.088H998.207V649.864H993.432V651.655H998.207Z" fill="white"/>
<line x1="999.104" y1="671.955" x2="999.104" y2="628.967" stroke="white" stroke-width="0.597058"/>
<line x1="977.908" y1="650.758" x2="1020.9" y2="650.758" stroke="white" stroke-width="0.597058"/>
<path fill-rule="evenodd" clip-rule="evenodd" d="M1068.06 651.655V656.432H1069.85V651.655H1074.63V649.864H1069.85V645.088H1068.06V649.864H1063.28V651.655H1068.06Z" fill="white"/>
<line x1="1068.95" y1="671.955" x2="1068.95" y2="628.967" stroke="white" stroke-width="0.597058"/>
<line x1="1047.76" y1="650.758" x2="1090.75" y2="650.758" stroke="white" stroke-width="0.597058"/>
<path fill-rule="evenodd" clip-rule="evenodd" d="M1137.91 651.656V656.432H1139.7V651.656H1144.48V649.865H1139.7V645.088H1137.91V649.865H1133.13V651.656H1137.91Z" fill="white"/>
<line x1="1138.81" y1="671.955" x2="1138.81" y2="628.967" stroke="white" stroke-width="0.597058"/>
<line x1="1117.61" y1="650.758" x2="1160.6" y2="650.758" stroke="white" stroke-width="0.597058"/>
<path fill-rule="evenodd" clip-rule="evenodd" d="M1207.76 651.656V656.432H1209.55V651.656H1214.33V649.865H1209.55V645.088H1207.76V649.865H1202.98V651.656H1207.76Z" fill="white"/>
<line x1="1208.66" y1="671.955" x2="1208.66" y2="628.967" stroke="white" stroke-width="0.597058"/>
<line x1="1187.46" y1="650.758" x2="1230.45" y2="650.758" stroke="white" stroke-width="0.597058"/>
<path fill-rule="evenodd" clip-rule="evenodd" d="M1277.61 651.655V656.432H1279.4V651.655H1284.18V649.864H1279.4V645.088H1277.61V649.864H1272.83V651.655H1277.61Z" fill="white"/>
<line x1="1278.51" y1="671.955" x2="1278.51" y2="628.967" stroke="white" stroke-width="0.597058"/>
<line x1="1257.31" y1="650.758" x2="1300.3" y2="650.758" stroke="white" stroke-width="0.597058"/>
<path fill-rule="evenodd" clip-rule="evenodd" d="M1347.46 651.656V656.432H1349.25V651.656H1354.03V649.865H1349.25V645.088H1347.46V649.865H1342.69V651.656H1347.46Z" fill="white"/>
<line x1="1348.36" y1="671.955" x2="1348.36" y2="628.967" stroke="white" stroke-width="0.597058"/>
<line x1="1327.16" y1="650.758" x2="1370.15" y2="650.758" stroke="white" stroke-width="0.597058"/>
<path fill-rule="evenodd" clip-rule="evenodd" d="M1417.31 651.656V656.432H1419.1V651.656H1423.88V649.865H1419.1V645.088H1417.31V649.865H1412.54V651.656H1417.31Z" fill="white"/>
<line x1="1418.21" y1="671.955" x2="1418.21" y2="628.967" stroke="white" stroke-width="0.597058"/>
<line x1="1397.01" y1="650.758" x2="1440" y2="650.758" stroke="white" stroke-width="0.597058"/>
<path fill-rule="evenodd" clip-rule="evenodd" d="M20.3001 721.503V726.28H22.0912V721.503H26.8675V719.712H22.0912V714.936H20.3001V719.712H15.5234V721.503H20.3001Z" fill="white"/>
<line x1="21.1961" y1="741.805" x2="21.1961" y2="698.816" stroke="white" stroke-width="0.597058"/>
<line y1="720.608" x2="42.9882" y2="720.608" stroke="white" stroke-width="0.597058"/>
<path fill-rule="evenodd" clip-rule="evenodd" d="M90.1502 721.503V726.28H91.9413V721.503H96.7176V719.712H91.9413V714.936H90.1502V719.712H85.3735V721.503H90.1502Z" fill="white"/>
<line x1="91.0467" y1="741.805" x2="91.0467" y2="698.816" stroke="white" stroke-width="0.597058"/>
<line x1="69.8506" y1="720.608" x2="112.839" y2="720.608" stroke="white" stroke-width="0.597058"/>
<path fill-rule="evenodd" clip-rule="evenodd" d="M160.002 721.503V726.28H161.793V721.503H166.57V719.712H161.793V714.936H160.002V719.712H155.226V721.503H160.002Z" fill="white"/>
<line x1="160.897" y1="741.805" x2="160.897" y2="698.816" stroke="white" stroke-width="0.597058"/>
<line x1="139.701" y1="720.608" x2="182.689" y2="720.608" stroke="white" stroke-width="0.597058"/>
<path fill-rule="evenodd" clip-rule="evenodd" d="M229.851 721.503V726.28H231.642V721.503H236.419V719.712H231.642V714.936H229.851V719.712H225.075V721.503H229.851Z" fill="white"/>
<line x1="230.747" y1="741.805" x2="230.747" y2="698.816" stroke="white" stroke-width="0.597058"/>
<line x1="209.552" y1="720.608" x2="252.54" y2="720.608" stroke="white" stroke-width="0.597058"/>
<path fill-rule="evenodd" clip-rule="evenodd" d="M299.703 721.503V726.28H301.494V721.503H306.27V719.712H301.494V714.936H299.703V719.712H294.926V721.503H299.703Z" fill="white"/>
<line x1="300.598" y1="741.805" x2="300.598" y2="698.816" stroke="white" stroke-width="0.597058"/>
<line x1="279.402" y1="720.608" x2="322.391" y2="720.608" stroke="white" stroke-width="0.597058"/>
<path fill-rule="evenodd" clip-rule="evenodd" d="M369.554 721.503V726.28H371.345V721.503H376.121V719.712H371.345V714.936H369.554V719.712H364.777V721.503H369.554Z" fill="white"/>
<line x1="370.449" y1="741.805" x2="370.449" y2="698.816" stroke="white" stroke-width="0.597058"/>
<line x1="349.253" y1="720.608" x2="392.241" y2="720.608" stroke="white" stroke-width="0.597058"/>
<path fill-rule="evenodd" clip-rule="evenodd" d="M439.403 721.503V726.28H441.194V721.503H445.971V719.712H441.194V714.936H439.403V719.712H434.626V721.503H439.403Z" fill="white"/>
<line x1="440.3" y1="741.805" x2="440.3" y2="698.816" stroke="white" stroke-width="0.597058"/>
<line x1="419.104" y1="720.608" x2="462.092" y2="720.608" stroke="white" stroke-width="0.597058"/>
<path fill-rule="evenodd" clip-rule="evenodd" d="M509.255 721.503V726.28H511.046V721.503H515.822V719.712H511.046V714.936H509.255V719.712H504.478V721.503H509.255Z" fill="white"/>
<line x1="510.149" y1="741.805" x2="510.149" y2="698.816" stroke="white" stroke-width="0.597058"/>
<line x1="488.954" y1="720.608" x2="531.942" y2="720.608" stroke="white" stroke-width="0.597058"/>
<path fill-rule="evenodd" clip-rule="evenodd" d="M579.105 721.503V726.28H580.896V721.503H585.672V719.712H580.896V714.936H579.105V719.712H574.328V721.503H579.105Z" fill="white"/>
<line x1="580.001" y1="741.805" x2="580.001" y2="698.816" stroke="white" stroke-width="0.597058"/>
<line x1="558.805" y1="720.608" x2="601.793" y2="720.608" stroke="white" stroke-width="0.597058"/>
<path fill-rule="evenodd" clip-rule="evenodd" d="M648.955 721.503V726.28H650.746V721.503H655.522V719.712H650.746V714.936H648.955V719.712H644.178V721.503H648.955Z" fill="white"/>
<line x1="649.851" y1="741.805" x2="649.851" y2="698.816" stroke="white" stroke-width="0.597058"/>
<line x1="628.655" y1="720.608" x2="671.643" y2="720.608" stroke="white" stroke-width="0.597058"/>
<path fill-rule="evenodd" clip-rule="evenodd" d="M718.805 721.503V726.28H720.597V721.503H725.373V719.712H720.597V714.936H718.805V719.712H714.029V721.503H718.805Z" fill="white"/>
<line x1="719.701" y1="741.805" x2="719.701" y2="698.816" stroke="white" stroke-width="0.597058"/>
<line x1="698.506" y1="720.608" x2="741.494" y2="720.608" stroke="white" stroke-width="0.597058"/>
<path fill-rule="evenodd" clip-rule="evenodd" d="M788.657 721.503V726.28H790.449V721.503H795.225V719.712H790.449V714.936H788.657V719.712H783.881V721.503H788.657Z" fill="white"/>
<line x1="789.553" y1="741.805" x2="789.553" y2="698.816" stroke="white" stroke-width="0.597058"/>
<line x1="768.356" y1="720.608" x2="811.345" y2="720.608" stroke="white" stroke-width="0.597058"/>
<path fill-rule="evenodd" clip-rule="evenodd" d="M858.506 721.503V726.28H860.297V721.503H865.074V719.712H860.297V714.936H858.506V719.712H853.729V721.503H858.506Z" fill="white"/>
<line x1="859.403" y1="741.805" x2="859.403" y2="698.816" stroke="white" stroke-width="0.597058"/>
<line x1="838.207" y1="720.608" x2="881.195" y2="720.608" stroke="white" stroke-width="0.597058"/>
<path fill-rule="evenodd" clip-rule="evenodd" d="M928.358 721.503V726.28H930.149V721.503H934.926V719.712H930.149V714.936H928.358V719.712H923.582V721.503H928.358Z" fill="white"/>
<line x1="929.254" y1="741.805" x2="929.254" y2="698.816" stroke="white" stroke-width="0.597058"/>
<line x1="908.058" y1="720.608" x2="951.046" y2="720.608" stroke="white" stroke-width="0.597058"/>
<path fill-rule="evenodd" clip-rule="evenodd" d="M998.207 721.504V726.282H999.999V721.504H1004.78V719.713H999.999V714.938H998.207V719.713H993.432V721.504H998.207Z" fill="white"/>
<line x1="999.104" y1="741.805" x2="999.104" y2="698.816" stroke="white" stroke-width="0.597058"/>
<line x1="977.908" y1="720.608" x2="1020.9" y2="720.608" stroke="white" stroke-width="0.597058"/>
<path fill-rule="evenodd" clip-rule="evenodd" d="M1068.06 721.504V726.282H1069.85V721.504H1074.63V719.713H1069.85V714.938H1068.06V719.713H1063.28V721.504H1068.06Z" fill="white"/>
<line x1="1068.95" y1="741.805" x2="1068.95" y2="698.816" stroke="white" stroke-width="0.597058"/>
<line x1="1047.76" y1="720.608" x2="1090.75" y2="720.608" stroke="white" stroke-width="0.597058"/>
<path fill-rule="evenodd" clip-rule="evenodd" d="M1137.91 721.505V726.282H1139.7V721.505H1144.48V719.714H1139.7V714.938H1137.91V719.714H1133.13V721.505H1137.91Z" fill="white"/>
<line x1="1138.81" y1="741.805" x2="1138.81" y2="698.816" stroke="white" stroke-width="0.597058"/>
<line x1="1117.61" y1="720.608" x2="1160.6" y2="720.608" stroke="white" stroke-width="0.597058"/>
<path fill-rule="evenodd" clip-rule="evenodd" d="M1207.76 721.505V726.282H1209.55V721.505H1214.33V719.714H1209.55V714.938H1207.76V719.714H1202.98V721.505H1207.76Z" fill="white"/>
<line x1="1208.66" y1="741.805" x2="1208.66" y2="698.816" stroke="white" stroke-width="0.597058"/>
<line x1="1187.46" y1="720.608" x2="1230.45" y2="720.608" stroke="white" stroke-width="0.597058"/>
<path fill-rule="evenodd" clip-rule="evenodd" d="M1277.61 721.504V726.282H1279.4V721.504H1284.18V719.713H1279.4V714.938H1277.61V719.713H1272.83V721.504H1277.61Z" fill="white"/>
<line x1="1278.51" y1="741.805" x2="1278.51" y2="698.816" stroke="white" stroke-width="0.597058"/>
<line x1="1257.31" y1="720.608" x2="1300.3" y2="720.608" stroke="white" stroke-width="0.597058"/>
<path fill-rule="evenodd" clip-rule="evenodd" d="M1347.46 721.505V726.282H1349.25V721.505H1354.03V719.714H1349.25V714.938H1347.46V719.714H1342.69V721.505H1347.46Z" fill="white"/>
<line x1="1348.36" y1="741.805" x2="1348.36" y2="698.816" stroke="white" stroke-width="0.597058"/>
<line x1="1327.16" y1="720.608" x2="1370.15" y2="720.608" stroke="white" stroke-width="0.597058"/>
<path fill-rule="evenodd" clip-rule="evenodd" d="M1417.31 721.505V726.282H1419.1V721.505H1423.88V719.714H1419.1V714.938H1417.31V719.714H1412.54V721.505H1417.31Z" fill="white"/>
<line x1="1418.21" y1="741.805" x2="1418.21" y2="698.816" stroke="white" stroke-width="0.597058"/>
<line x1="1397.01" y1="720.608" x2="1440" y2="720.608" stroke="white" stroke-width="0.597058"/>
</svg>
