<svg width="462" height="712" viewBox="0 0 462 712" fill="none" xmlns="http://www.w3.org/2000/svg">
<g clip-path="url(#clip0_2055_63144)">
<path d="M-29.1479 19.6985L32.846 18.0015L66.8455 21.3503L9.44947 22.9297L-29.1479 19.6985Z" stroke="#3335F9" stroke-width="0.574635" stroke-miterlimit="10" stroke-linecap="round" stroke-linejoin="round"/>
<path d="M-79.6577 42.598L-29.1493 19.6993L9.44808 22.9304L-37.3268 44.123L-79.6577 42.598Z" stroke="#3335F9" stroke-width="0.574635" stroke-miterlimit="10" stroke-linecap="round" stroke-linejoin="round"/>
<path d="M-62.2012 483.898L-27.0657 457.203L35.254 527.469L1.76583 555.988L-62.2012 483.898Z" stroke="#3335F9" stroke-width="0.574635" stroke-miterlimit="10" stroke-linecap="round" stroke-linejoin="round"/>
<path d="M-27.0673 457.201L-78.0825 378.314L-35.8557 354.944L11.3672 427.994L-27.0673 457.201Z" stroke="#3335F9" stroke-width="0.574635" stroke-miterlimit="10" stroke-linecap="round" stroke-linejoin="round"/>
<path d="M-62.2011 483.899L1.76586 555.989L-26.328 574.268L-88.6704 504.01L-62.2011 483.899Z" stroke="#3335F9" stroke-width="0.574635" stroke-miterlimit="10" stroke-linecap="round" stroke-linejoin="round"/>
<path d="M1.76562 555.989L35.2538 527.47L104.71 584.345L72.9959 614.354L1.76562 555.989Z" stroke="#3335F9" stroke-width="0.574635" stroke-miterlimit="10" stroke-linecap="round" stroke-linejoin="round"/>
<path d="M35.2548 527.471L-27.0649 457.2L11.3696 427.993L69.0824 493.046L35.2548 527.471Z" stroke="#3335F9" stroke-width="0.574635" stroke-miterlimit="10" stroke-linecap="round" stroke-linejoin="round"/>
<path d="M1.76528 555.989L72.9956 614.354L43.1142 631.152L-26.3286 574.268L1.76528 555.989Z" stroke="#3335F9" stroke-width="0.574635" stroke-miterlimit="10" stroke-linecap="round" stroke-linejoin="round"/>
<path d="M72.9966 614.356L104.711 584.348L176.484 623.932L146.666 654.977L72.9966 614.356Z" stroke="#3335F9" stroke-width="0.574635" stroke-miterlimit="10" stroke-linecap="round" stroke-linejoin="round"/>
<path d="M104.709 584.348L35.2529 527.472L69.0805 493.047L133.373 545.696L104.709 584.348Z" stroke="#3335F9" stroke-width="0.574635" stroke-miterlimit="10" stroke-linecap="round" stroke-linejoin="round"/>
<path d="M72.9963 614.357L146.666 654.977L114.902 670.73L43.1104 631.156L72.9963 614.357Z" stroke="#3335F9" stroke-width="0.574635" stroke-miterlimit="10" stroke-linecap="round" stroke-linejoin="round"/>
<path d="M146.668 654.977L176.486 623.933L245.752 643.542L217.726 675.084L146.668 654.977Z" stroke="#3335F9" stroke-width="0.574635" stroke-miterlimit="10" stroke-linecap="round" stroke-linejoin="round"/>
<path d="M176.485 623.932L104.712 584.343L133.376 545.696L199.837 582.37L176.485 623.932Z" stroke="#3335F9" stroke-width="0.574635" stroke-miterlimit="10" stroke-linecap="round" stroke-linejoin="round"/>
<path d="M146.667 654.977L217.726 675.083L184.152 690.348L114.899 670.725L146.667 654.977Z" stroke="#3335F9" stroke-width="0.574635" stroke-miterlimit="10" stroke-linecap="round" stroke-linejoin="round"/>
<path d="M217.726 675.082L245.748 643.54L307.751 641.843L281.345 673.335L217.726 675.082Z" stroke="#3335F9" stroke-width="0.574635" stroke-miterlimit="10" stroke-linecap="round" stroke-linejoin="round"/>
<path d="M245.751 643.541L176.484 623.932L199.836 582.371L263.966 600.522L245.751 643.541Z" stroke="#3335F9" stroke-width="0.574635" stroke-miterlimit="10" stroke-linecap="round" stroke-linejoin="round"/>
<path d="M217.727 675.083L281.345 673.336L246.151 688.65L184.152 690.352L217.727 675.083Z" stroke="#3335F9" stroke-width="0.574635" stroke-miterlimit="10" stroke-linecap="round" stroke-linejoin="round"/>
<path d="M281.343 673.336L307.749 641.843L358.276 618.931L333.178 649.844L281.343 673.336Z" stroke="#3335F9" stroke-width="0.574635" stroke-miterlimit="10" stroke-linecap="round" stroke-linejoin="round"/>
<path d="M307.749 641.844L245.75 643.541L263.965 600.522L321.375 598.956L307.749 641.844Z" stroke="#3335F9" stroke-width="0.574635" stroke-miterlimit="10" stroke-linecap="round" stroke-linejoin="round"/>
<path d="M333.178 649.846L358.276 618.932L393.869 576.402L369.698 606.198L333.178 649.846Z" stroke="#3335F9" stroke-width="0.574635" stroke-miterlimit="10" stroke-linecap="round" stroke-linejoin="round"/>
<path d="M358.276 618.931L307.75 641.844L321.376 598.956L368.15 577.732L358.276 618.931Z" stroke="#3335F9" stroke-width="0.574635" stroke-miterlimit="10" stroke-linecap="round" stroke-linejoin="round"/>
<path d="M393.869 576.406L358.277 618.932L368.147 577.737L401.115 538.365L393.869 576.406Z" stroke="#3335F9" stroke-width="0.574635" stroke-miterlimit="10" stroke-linecap="round" stroke-linejoin="round"/>
<path d="M412.117 517.128L393.87 576.406L401.111 538.365L418 483.476L412.117 517.128Z" stroke="#3335F9" stroke-width="0.574635" stroke-miterlimit="10" stroke-linecap="round" stroke-linejoin="round"/>
<path d="M66.8457 21.3501L130.971 39.4971L152.544 58.7891L96.1162 42.7871L66.8457 21.3501Z" stroke="#3335F9" stroke-width="0.574635" stroke-miterlimit="10" stroke-linecap="round" stroke-linejoin="round"/>
<path d="M9.45068 22.929L66.8468 21.3496L96.1127 42.7866L45.5772 44.1895L9.45068 22.929Z" stroke="#3335F9" stroke-width="0.574635" stroke-miterlimit="10" stroke-linecap="round" stroke-linejoin="round"/>
<path d="M-37.3252 44.1247L9.44969 22.9276L45.5762 44.1881L4.41288 62.8555L-37.3252 44.1247Z" stroke="#3335F9" stroke-width="0.574635" stroke-miterlimit="10" stroke-linecap="round" stroke-linejoin="round"/>
<path d="M-70.2881 83.5197L-37.3248 44.1258L4.41325 62.8566L-24.5903 97.5078L-70.2881 83.5197Z" stroke="#3335F9" stroke-width="0.574635" stroke-miterlimit="10" stroke-linecap="round" stroke-linejoin="round"/>
<path d="M-35.8572 354.943L-69.3545 278.903L-23.7834 269.476L5.71794 336.412L-35.8572 354.943Z" stroke="#3335F9" stroke-width="0.574635" stroke-miterlimit="10" stroke-linecap="round" stroke-linejoin="round"/>
<path d="M11.3685 427.994L-35.8589 354.945L5.71628 336.413L47.2779 400.715L11.3685 427.994Z" stroke="#3335F9" stroke-width="0.574635" stroke-miterlimit="10" stroke-linecap="round" stroke-linejoin="round"/>
<path d="M69.0815 493.043L11.3687 427.99L47.278 400.711L98.076 457.957L69.0815 493.043Z" stroke="#3335F9" stroke-width="0.574635" stroke-miterlimit="10" stroke-linecap="round" stroke-linejoin="round"/>
<path d="M133.374 545.695L69.0811 493.042L98.0755 457.956L154.662 504.31L133.374 545.695Z" stroke="#3335F9" stroke-width="0.574635" stroke-miterlimit="10" stroke-linecap="round" stroke-linejoin="round"/>
<path d="M199.837 582.373L133.372 545.699L154.664 504.309L213.151 536.571L199.837 582.373Z" stroke="#3335F9" stroke-width="0.574635" stroke-miterlimit="10" stroke-linecap="round" stroke-linejoin="round"/>
<path d="M263.967 600.521L199.837 582.374L213.151 536.573L269.601 552.556L263.967 600.521Z" stroke="#3335F9" stroke-width="0.574635" stroke-miterlimit="10" stroke-linecap="round" stroke-linejoin="round"/>
<path d="M321.374 598.956L263.965 600.521L269.604 552.556L320.125 551.167L321.374 598.956Z" stroke="#3335F9" stroke-width="0.574635" stroke-miterlimit="10" stroke-linecap="round" stroke-linejoin="round"/>
<path d="M368.149 577.735L321.374 598.955L320.125 551.166L361.284 532.508L368.149 577.735Z" stroke="#3335F9" stroke-width="0.574635" stroke-miterlimit="10" stroke-linecap="round" stroke-linejoin="round"/>
<path d="M401.112 538.365L368.149 577.736L361.284 532.509L390.292 497.849L401.112 538.365Z" stroke="#3335F9" stroke-width="0.574635" stroke-miterlimit="10" stroke-linecap="round" stroke-linejoin="round"/>
<path d="M417.999 483.479L401.114 538.363L390.294 497.847L405.183 449.534L417.999 483.479Z" stroke="#3335F9" stroke-width="0.574635" stroke-miterlimit="10" stroke-linecap="round" stroke-linejoin="round"/>
<path d="M417.694 416.834L417.997 483.48L405.181 449.535L404.887 390.881L417.694 416.834Z" stroke="#3335F9" stroke-width="0.574635" stroke-miterlimit="10" stroke-linecap="round" stroke-linejoin="round"/>
<path d="M400.185 342.956L417.694 416.834L404.887 390.881L389.5 325.873L400.185 342.956Z" stroke="#3335F9" stroke-width="0.574635" stroke-miterlimit="10" stroke-linecap="round" stroke-linejoin="round"/>
<path d="M366.664 266.925L400.184 342.957L389.499 325.869L359.998 258.933L366.664 266.925Z" stroke="#3335F9" stroke-width="0.574635" stroke-miterlimit="10" stroke-linecap="round" stroke-linejoin="round"/>
<path d="M319.451 193.896L366.665 266.928L359.999 258.936L318.438 194.666L319.451 193.896Z" stroke="#3335F9" stroke-width="0.574635" stroke-miterlimit="10" stroke-linecap="round" stroke-linejoin="round"/>
<path d="M261.726 128.823L319.453 193.895L267.641 137.39L261.726 128.823Z" stroke="#3335F9" stroke-width="0.574635" stroke-miterlimit="10" stroke-linecap="round" stroke-linejoin="round"/>
<path d="M197.455 76.1615L261.725 128.824L267.64 137.391L211.054 91.0366L197.455 76.1615Z" stroke="#3335F9" stroke-width="0.574635" stroke-miterlimit="10" stroke-linecap="round" stroke-linejoin="round"/>
<path d="M130.97 39.495L197.453 76.1601L211.052 91.0352L152.547 58.7869L130.97 39.495Z" stroke="#3335F9" stroke-width="0.574635" stroke-miterlimit="10" stroke-linecap="round" stroke-linejoin="round"/>
<path d="M96.1143 42.7887L152.546 58.7907L163.53 92.4961L116.162 79.0827L96.1143 42.7887Z" stroke="#3335F9" stroke-width="0.574635" stroke-miterlimit="10" stroke-linecap="round" stroke-linejoin="round"/>
<path d="M45.5791 44.1881L96.1146 42.7852L116.162 79.0792L73.7499 80.2422L45.5791 44.1881Z" stroke="#3335F9" stroke-width="0.574635" stroke-miterlimit="10" stroke-linecap="round" stroke-linejoin="round"/>
<path d="M4.4126 62.8543L45.5805 44.1869L73.7468 80.2456L39.1951 95.8945L4.4126 62.8543Z" stroke="#3335F9" stroke-width="0.574635" stroke-miterlimit="10" stroke-linecap="round" stroke-linejoin="round"/>
<path d="M-24.5918 97.508L4.41171 62.8522L39.1942 95.8969L14.8474 125L-24.5918 97.508Z" stroke="#3335F9" stroke-width="0.574635" stroke-miterlimit="10" stroke-linecap="round" stroke-linejoin="round"/>
<path d="M-39.4678 145.813L-24.5927 97.5083L14.8465 125L2.36081 165.553L-39.4678 145.813Z" stroke="#3335F9" stroke-width="0.574635" stroke-miterlimit="10" stroke-linecap="round" stroke-linejoin="round"/>
<path d="M-39.1891 204.479L-39.4697 145.811L2.36339 165.551L2.59418 214.783L-39.1891 204.479Z" stroke="#3335F9" stroke-width="0.574635" stroke-miterlimit="10" stroke-linecap="round" stroke-linejoin="round"/>
<path d="M-23.7829 269.477L-39.1875 204.478L2.59583 214.787L15.5295 269.359L-23.7829 269.477Z" stroke="#3335F9" stroke-width="0.574635" stroke-miterlimit="10" stroke-linecap="round" stroke-linejoin="round"/>
<path d="M5.71615 336.412L-23.7852 269.476L15.5273 269.359L40.2814 325.528L5.71615 336.412Z" stroke="#3335F9" stroke-width="0.574635" stroke-miterlimit="10" stroke-linecap="round" stroke-linejoin="round"/>
<path d="M47.2759 400.711L5.71436 336.414L40.2796 325.525L75.1798 379.505L47.2759 400.711Z" stroke="#3335F9" stroke-width="0.574635" stroke-miterlimit="10" stroke-linecap="round" stroke-linejoin="round"/>
<path d="M98.0769 457.959L47.2744 400.712L75.1782 379.511L117.821 427.58L98.0769 457.959Z" stroke="#3335F9" stroke-width="0.574635" stroke-miterlimit="10" stroke-linecap="round" stroke-linejoin="round"/>
<path d="M154.662 504.311L98.0757 457.957L117.82 427.577L165.31 466.473L154.662 504.311Z" stroke="#3335F9" stroke-width="0.574635" stroke-miterlimit="10" stroke-linecap="round" stroke-linejoin="round"/>
<path d="M213.153 536.574L154.662 504.312L165.31 466.475L214.42 493.555L213.153 536.574Z" stroke="#3335F9" stroke-width="0.574635" stroke-miterlimit="10" stroke-linecap="round" stroke-linejoin="round"/>
<path d="M269.601 552.559L213.151 536.575L214.423 493.556L261.79 506.969L269.601 552.559Z" stroke="#3335F9" stroke-width="0.574635" stroke-miterlimit="10" stroke-linecap="round" stroke-linejoin="round"/>
<path d="M320.123 551.169L269.601 552.559L261.79 506.969L304.202 505.806L320.123 551.169Z" stroke="#3335F9" stroke-width="0.574635" stroke-miterlimit="10" stroke-linecap="round" stroke-linejoin="round"/>
<path d="M361.284 532.505L320.121 551.168L304.205 505.805L338.766 490.142L361.284 532.505Z" stroke="#3335F9" stroke-width="0.574635" stroke-miterlimit="10" stroke-linecap="round" stroke-linejoin="round"/>
<path d="M390.293 497.848L361.285 532.508L338.767 490.141L363.104 461.047L390.293 497.848Z" stroke="#3335F9" stroke-width="0.574635" stroke-miterlimit="10" stroke-linecap="round" stroke-linejoin="round"/>
<path d="M405.182 449.534L390.294 497.848L363.105 461.047L375.586 420.499L405.182 449.534Z" stroke="#3335F9" stroke-width="0.574635" stroke-miterlimit="10" stroke-linecap="round" stroke-linejoin="round"/>
<path d="M404.886 390.881L405.181 449.535L375.584 420.5L375.358 371.268L404.886 390.881Z" stroke="#3335F9" stroke-width="0.574635" stroke-miterlimit="10" stroke-linecap="round" stroke-linejoin="round"/>
<path d="M389.498 325.871L404.885 390.879L375.356 371.266L362.427 316.693L389.498 325.871Z" stroke="#3335F9" stroke-width="0.574635" stroke-miterlimit="10" stroke-linecap="round" stroke-linejoin="round"/>
<path d="M360 258.935L389.501 325.871L362.426 316.694L337.671 260.524L360 258.935Z" stroke="#3335F9" stroke-width="0.574635" stroke-miterlimit="10" stroke-linecap="round" stroke-linejoin="round"/>
<path d="M318.44 194.665L360.001 258.935L337.673 260.523L302.786 206.558L318.44 194.665Z" stroke="#3335F9" stroke-width="0.574635" stroke-miterlimit="10" stroke-linecap="round" stroke-linejoin="round"/>
<path d="M267.639 137.389L318.441 194.663L302.788 206.561L260.131 158.473L267.639 137.389Z" stroke="#3335F9" stroke-width="0.574635" stroke-miterlimit="10" stroke-linecap="round" stroke-linejoin="round"/>
<path d="M211.053 91.0327L267.639 137.387L260.131 158.471L212.646 119.575L211.053 91.0327Z" stroke="#3335F9" stroke-width="0.574635" stroke-miterlimit="10" stroke-linecap="round" stroke-linejoin="round"/>
<path d="M152.546 58.788L211.055 91.0317L212.644 119.578L163.534 92.4934L152.546 58.788Z" stroke="#3335F9" stroke-width="0.574635" stroke-miterlimit="10" stroke-linecap="round" stroke-linejoin="round"/>
<path d="M116.16 79.0809L163.532 92.4943L162.288 135.518L123.971 124.675L116.16 79.0809Z" stroke="#3335F9" stroke-width="0.574635" stroke-miterlimit="10" stroke-linecap="round" stroke-linejoin="round"/>
<path d="M73.748 80.2445L116.16 79.0814L123.971 124.675L89.6685 125.607L73.748 80.2445Z" stroke="#3335F9" stroke-width="0.574635" stroke-miterlimit="10" stroke-linecap="round" stroke-linejoin="round"/>
<path d="M39.1924 95.8967L73.7486 80.2477L89.6646 125.611L61.7245 138.277L39.1924 95.8967Z" stroke="#3335F9" stroke-width="0.574635" stroke-miterlimit="10" stroke-linecap="round" stroke-linejoin="round"/>
<path d="M14.8462 125.002L39.193 95.8943L61.7206 138.275L42.035 161.803L14.8462 125.002Z" stroke="#3335F9" stroke-width="0.574635" stroke-miterlimit="10" stroke-linecap="round" stroke-linejoin="round"/>
<path d="M2.36133 165.551L14.847 125.003L42.0358 161.799L31.9441 194.6L2.36133 165.551Z" stroke="#3335F9" stroke-width="0.574635" stroke-miterlimit="10" stroke-linecap="round" stroke-linejoin="round"/>
<path d="M2.59616 214.785L2.36084 165.553L31.9436 194.602L32.1382 234.412L2.59616 214.785Z" stroke="#3335F9" stroke-width="0.574635" stroke-miterlimit="10" stroke-linecap="round" stroke-linejoin="round"/>
<path d="M15.5268 269.358L2.59766 214.785L32.1397 234.412L42.598 278.535L15.5268 269.358Z" stroke="#3335F9" stroke-width="0.574635" stroke-miterlimit="10" stroke-linecap="round" stroke-linejoin="round"/>
<path d="M40.2805 325.529L15.5264 269.36L42.602 278.537L62.5999 323.973L40.2805 325.529Z" stroke="#3335F9" stroke-width="0.574635" stroke-miterlimit="10" stroke-linecap="round" stroke-linejoin="round"/>
<path d="M75.1804 379.508L40.2803 325.528L62.5997 323.972L90.8339 367.615L75.1804 379.508Z" stroke="#3335F9" stroke-width="0.574635" stroke-miterlimit="10" stroke-linecap="round" stroke-linejoin="round"/>
<path d="M117.822 427.578L75.1792 379.509L90.8327 367.616L125.303 406.49L117.822 427.578Z" stroke="#3335F9" stroke-width="0.574635" stroke-miterlimit="10" stroke-linecap="round" stroke-linejoin="round"/>
<path d="M165.308 466.475L117.823 427.579L125.303 406.49L163.715 437.933L165.308 466.475Z" stroke="#3335F9" stroke-width="0.574635" stroke-miterlimit="10" stroke-linecap="round" stroke-linejoin="round"/>
<path d="M214.421 493.555L165.306 466.474L163.718 437.933L203.424 459.827L214.421 493.555Z" stroke="#3335F9" stroke-width="0.574635" stroke-miterlimit="10" stroke-linecap="round" stroke-linejoin="round"/>
<path d="M261.792 506.967L214.42 493.553L203.428 459.825L241.731 470.682L261.792 506.967Z" stroke="#3335F9" stroke-width="0.574635" stroke-miterlimit="10" stroke-linecap="round" stroke-linejoin="round"/>
<path d="M304.205 505.804L261.793 506.967L241.731 470.682L276.034 469.75L304.205 505.804Z" stroke="#3335F9" stroke-width="0.574635" stroke-miterlimit="10" stroke-linecap="round" stroke-linejoin="round"/>
<path d="M338.769 490.142L304.204 505.805L276.038 469.751L303.978 457.084L338.769 490.142Z" stroke="#3335F9" stroke-width="0.574635" stroke-miterlimit="10" stroke-linecap="round" stroke-linejoin="round"/>
<path d="M363.106 461.049L338.768 490.143L303.977 457.089L323.667 433.557L363.106 461.049Z" stroke="#3335F9" stroke-width="0.574635" stroke-miterlimit="10" stroke-linecap="round" stroke-linejoin="round"/>
<path d="M375.587 420.499L363.106 461.047L323.667 433.559L333.758 400.764L375.587 420.499Z" stroke="#3335F9" stroke-width="0.574635" stroke-miterlimit="10" stroke-linecap="round" stroke-linejoin="round"/>
<path d="M375.356 371.266L375.587 420.498L333.758 400.763L333.577 360.93L375.356 371.266Z" stroke="#3335F9" stroke-width="0.574635" stroke-miterlimit="10" stroke-linecap="round" stroke-linejoin="round"/>
<path d="M362.426 316.693L375.355 371.266L333.576 360.93L323.118 316.811L362.426 316.693Z" stroke="#3335F9" stroke-width="0.574635" stroke-miterlimit="10" stroke-linecap="round" stroke-linejoin="round"/>
<path d="M337.672 260.521L362.427 316.695L323.119 316.809L303.098 271.387L337.672 260.521Z" stroke="#3335F9" stroke-width="0.574635" stroke-miterlimit="10" stroke-linecap="round" stroke-linejoin="round"/>
<path d="M302.786 206.557L337.672 260.519L303.098 271.389L274.896 227.75L302.786 206.557Z" stroke="#3335F9" stroke-width="0.574635" stroke-miterlimit="10" stroke-linecap="round" stroke-linejoin="round"/>
<path d="M260.13 158.472L302.787 206.559L274.897 227.752L240.399 188.869L260.13 158.472Z" stroke="#3335F9" stroke-width="0.574635" stroke-miterlimit="10" stroke-linecap="round" stroke-linejoin="round"/>
<path d="M212.644 119.578L260.129 158.474L240.398 188.871L201.996 157.415L212.644 119.578Z" stroke="#3335F9" stroke-width="0.574635" stroke-miterlimit="10" stroke-linecap="round" stroke-linejoin="round"/>
<path d="M163.532 92.4948L212.646 119.575L201.998 157.412L162.292 135.518L163.532 92.4948Z" stroke="#3335F9" stroke-width="0.574635" stroke-miterlimit="10" stroke-linecap="round" stroke-linejoin="round"/>
<path d="M123.97 124.675L162.291 135.518L148.959 181.307L118.349 172.627L123.97 124.675Z" stroke="#3335F9" stroke-width="0.574635" stroke-miterlimit="10" stroke-linecap="round" stroke-linejoin="round"/>
<path d="M89.667 125.61L123.97 124.673L118.349 172.624L90.9296 173.385L89.667 125.61Z" stroke="#3335F9" stroke-width="0.574635" stroke-miterlimit="10" stroke-linecap="round" stroke-linejoin="round"/>
<path d="M61.7231 138.275L89.6677 125.608L90.9303 173.383L68.5882 183.502L61.7231 138.275Z" stroke="#3335F9" stroke-width="0.574635" stroke-miterlimit="10" stroke-linecap="round" stroke-linejoin="round"/>
<path d="M42.0352 161.802L61.7253 138.274L68.5859 183.502L52.8555 202.318L42.0352 161.802Z" stroke="#3335F9" stroke-width="0.574635" stroke-miterlimit="10" stroke-linecap="round" stroke-linejoin="round"/>
<path d="M31.9453 194.6L42.0325 161.799L52.8528 202.32L44.7749 228.531L31.9453 194.6Z" stroke="#3335F9" stroke-width="0.574635" stroke-miterlimit="10" stroke-linecap="round" stroke-linejoin="round"/>
<path d="M32.1394 234.413L31.9448 194.599L44.7744 228.53L44.8287 242.862L44.8695 250.519L44.9238 259.557L32.1394 234.413Z" stroke="#3335F9" stroke-width="0.574635" stroke-miterlimit="10" stroke-linecap="round" stroke-linejoin="round"/>
<path d="M42.601 278.534L32.1382 234.411L44.918 260.364L45.9 264.541L46.8504 268.542L48.4207 275.09L53.2674 295.631L42.601 278.534Z" stroke="#3335F9" stroke-width="0.574635" stroke-miterlimit="10" stroke-linecap="round" stroke-linejoin="round"/>
<path d="M62.5975 323.971L42.5996 278.536L53.2661 295.633L69.2816 331.949L62.5975 323.971Z" stroke="#3335F9" stroke-width="0.574635" stroke-miterlimit="10" stroke-linecap="round" stroke-linejoin="round"/>
<path d="M90.8333 367.613L62.5991 323.97L69.2787 331.948L91.8515 366.844L90.8333 367.613Z" stroke="#3335F9" stroke-width="0.574635" stroke-miterlimit="10" stroke-linecap="round" stroke-linejoin="round"/>
<path d="M125.305 406.49L90.835 367.612L119.404 397.915L125.305 406.49Z" stroke="#3335F9" stroke-width="0.574635" stroke-miterlimit="10" stroke-linecap="round" stroke-linejoin="round"/>
<path d="M163.718 437.934L125.306 406.491L119.405 397.92L150.106 423.072L163.718 437.934Z" stroke="#3335F9" stroke-width="0.574635" stroke-miterlimit="10" stroke-linecap="round" stroke-linejoin="round"/>
<path d="M203.425 459.828L163.719 437.934L150.106 423.068L168.606 433.259L174.48 436.513L178.083 438.5L181.843 440.568L203.425 459.828Z" stroke="#3335F9" stroke-width="0.574635" stroke-miterlimit="10" stroke-linecap="round" stroke-linejoin="round"/>
<path d="M241.732 470.684L203.424 459.827L181.847 440.567L191.314 443.25L198.682 445.341L212.48 449.233L241.732 470.684Z" stroke="#3335F9" stroke-width="0.574635" stroke-miterlimit="10" stroke-linecap="round" stroke-linejoin="round"/>
<path d="M276.036 469.751L241.733 470.688L212.48 449.232L239.9 448.472L276.036 469.751Z" stroke="#3335F9" stroke-width="0.574635" stroke-miterlimit="10" stroke-linecap="round" stroke-linejoin="round"/>
<path d="M303.975 457.086L276.035 469.748L239.899 448.474L262.241 438.355L303.975 457.086Z" stroke="#3335F9" stroke-width="0.574635" stroke-miterlimit="10" stroke-linecap="round" stroke-linejoin="round"/>
<path d="M323.668 433.558L303.973 457.086L262.244 438.36L277.975 419.538L323.668 433.558Z" stroke="#3335F9" stroke-width="0.574635" stroke-miterlimit="10" stroke-linecap="round" stroke-linejoin="round"/>
<path d="M333.757 400.763L323.67 433.559L277.977 419.539L286.054 393.327L333.757 400.763Z" stroke="#3335F9" stroke-width="0.574635" stroke-miterlimit="10" stroke-linecap="round" stroke-linejoin="round"/>
<path d="M333.576 360.931L333.757 400.76L286.054 393.329L285.891 361.506L333.576 360.931Z" stroke="#3335F9" stroke-width="0.574635" stroke-miterlimit="10" stroke-linecap="round" stroke-linejoin="round"/>
<path d="M323.12 316.81L333.578 360.933L285.889 361.508L277.54 326.237L323.12 316.81Z" stroke="#3335F9" stroke-width="0.574635" stroke-miterlimit="10" stroke-linecap="round" stroke-linejoin="round"/>
<path d="M303.099 271.388L323.12 316.81L277.54 326.236L261.529 289.92L303.099 271.388Z" stroke="#3335F9" stroke-width="0.574635" stroke-miterlimit="10" stroke-linecap="round" stroke-linejoin="round"/>
<path d="M274.895 227.75L303.097 271.388L261.531 289.92L238.977 255.047L274.895 227.75Z" stroke="#3335F9" stroke-width="0.574635" stroke-miterlimit="10" stroke-linecap="round" stroke-linejoin="round"/>
<path d="M240.398 188.871L274.896 227.749L238.977 255.047L211.408 223.953L240.398 188.871Z" stroke="#3335F9" stroke-width="0.574635" stroke-miterlimit="10" stroke-linecap="round" stroke-linejoin="round"/>
<path d="M201.998 157.413L240.397 188.869L211.407 223.955L180.706 198.803L201.998 157.413Z" stroke="#3335F9" stroke-width="0.574635" stroke-miterlimit="10" stroke-linecap="round" stroke-linejoin="round"/>
<path d="M162.29 135.517L201.996 157.411L180.704 198.801L148.962 181.305L162.29 135.517Z" stroke="#3335F9" stroke-width="0.574635" stroke-miterlimit="10" stroke-linecap="round" stroke-linejoin="round"/>
<path d="M118.348 172.625L148.963 181.304L125.625 222.875L100.12 215.657L118.348 172.625Z" stroke="#3335F9" stroke-width="0.574635" stroke-miterlimit="10" stroke-linecap="round" stroke-linejoin="round"/>
<path d="M90.9302 173.385L118.35 172.624L100.117 215.657L77.2905 216.281L90.9302 173.385Z" stroke="#3335F9" stroke-width="0.574635" stroke-miterlimit="10" stroke-linecap="round" stroke-linejoin="round"/>
<path d="M68.5864 183.5L90.9285 173.385L77.2933 216.282L58.7119 224.699L68.5864 183.5Z" stroke="#3335F9" stroke-width="0.574635" stroke-miterlimit="10" stroke-linecap="round" stroke-linejoin="round"/>
<path d="M52.8536 202.319L68.5886 183.502L58.7141 224.701L45.6084 240.359L52.8536 202.319Z" stroke="#3335F9" stroke-width="0.574635" stroke-miterlimit="10" stroke-linecap="round" stroke-linejoin="round"/>
<path d="M44.7749 228.529L52.8528 202.318L45.6121 240.359L44.8292 242.861L44.7749 228.529Z" stroke="#3335F9" stroke-width="0.574635" stroke-miterlimit="10" stroke-linecap="round" stroke-linejoin="round"/>
<path d="M239.899 448.472L212.479 449.232L198.686 445.345L201.31 445.264L239.899 448.472Z" stroke="#3335F9" stroke-width="0.574635" stroke-miterlimit="10" stroke-linecap="round" stroke-linejoin="round"/>
<path d="M262.243 438.354L239.901 448.469L201.308 445.26L219.908 436.829L262.243 438.354Z" stroke="#3335F9" stroke-width="0.574635" stroke-miterlimit="10" stroke-linecap="round" stroke-linejoin="round"/>
<path d="M277.976 419.539L262.241 438.355L219.906 436.83L232.993 421.186L277.976 419.539Z" stroke="#3335F9" stroke-width="0.574635" stroke-miterlimit="10" stroke-linecap="round" stroke-linejoin="round"/>
<path d="M286.054 393.327L277.977 419.538L232.989 421.186L239.71 399.359L286.054 393.327Z" stroke="#3335F9" stroke-width="0.574635" stroke-miterlimit="10" stroke-linecap="round" stroke-linejoin="round"/>
<path d="M285.891 361.508L286.054 393.326L239.709 399.363L239.6 372.871L285.891 361.508Z" stroke="#3335F9" stroke-width="0.574635" stroke-miterlimit="10" stroke-linecap="round" stroke-linejoin="round"/>
<path d="M277.538 326.236L285.892 361.508L239.597 372.871L232.637 343.51L277.538 326.236Z" stroke="#3335F9" stroke-width="0.574635" stroke-miterlimit="10" stroke-linecap="round" stroke-linejoin="round"/>
<path d="M261.532 289.922L277.538 326.234L232.637 343.508L219.318 313.278L261.532 289.922Z" stroke="#3335F9" stroke-width="0.574635" stroke-miterlimit="10" stroke-linecap="round" stroke-linejoin="round"/>
<path d="M238.974 255.046L261.529 289.924L219.316 313.279L200.54 284.253L238.974 255.046Z" stroke="#3335F9" stroke-width="0.574635" stroke-miterlimit="10" stroke-linecap="round" stroke-linejoin="round"/>
<path d="M211.407 223.953L238.976 255.047L200.541 284.254L177.593 258.364L211.407 223.953Z" stroke="#3335F9" stroke-width="0.574635" stroke-miterlimit="10" stroke-linecap="round" stroke-linejoin="round"/>
<path d="M180.705 198.801L211.406 223.953L177.596 258.369L152.037 237.434L180.705 198.801Z" stroke="#3335F9" stroke-width="0.574635" stroke-miterlimit="10" stroke-linecap="round" stroke-linejoin="round"/>
<path d="M148.961 181.307L180.707 198.802L152.038 237.436L125.628 222.882L148.961 181.307Z" stroke="#3335F9" stroke-width="0.574635" stroke-miterlimit="10" stroke-linecap="round" stroke-linejoin="round"/>
<path d="M100.119 215.657L125.629 222.875L95.7923 253.906L72.0972 247.195L100.119 215.657Z" stroke="#3335F9" stroke-width="0.574635" stroke-miterlimit="10" stroke-linecap="round" stroke-linejoin="round"/>
<path d="M77.2921 216.28L100.118 215.656L72.0969 247.198L50.8862 247.777L77.2921 216.28Z" stroke="#3335F9" stroke-width="0.574635" stroke-miterlimit="10" stroke-linecap="round" stroke-linejoin="round"/>
<path d="M58.7136 224.699L77.2905 216.282L50.8891 247.779L44.8658 250.521L44.8296 242.86L58.7136 224.699Z" stroke="#3335F9" stroke-width="0.574635" stroke-miterlimit="10" stroke-linecap="round" stroke-linejoin="round"/>
<path d="M45.6095 240.357L58.7151 224.699L45.3696 241.131L45.6095 240.357Z" stroke="#3335F9" stroke-width="0.574635" stroke-miterlimit="10" stroke-linecap="round" stroke-linejoin="round"/>
<path d="M219.905 436.829L201.31 445.26" stroke="#3335F9" stroke-width="0.574635" stroke-miterlimit="10" stroke-linecap="round" stroke-linejoin="round"/>
<path d="M232.991 421.185L219.904 436.83L200.499 445.283L191.316 443.251L195.57 438.187L232.991 421.185Z" stroke="#3335F9" stroke-width="0.574635" stroke-miterlimit="10" stroke-linecap="round" stroke-linejoin="round"/>
<path d="M239.708 399.361L232.992 421.183L195.571 438.189L201.812 417.911L239.708 399.361Z" stroke="#3335F9" stroke-width="0.574635" stroke-miterlimit="10" stroke-linecap="round" stroke-linejoin="round"/>
<path d="M239.598 372.872L239.706 399.364L201.81 417.914L201.702 393.282L239.598 372.872Z" stroke="#3335F9" stroke-width="0.574635" stroke-miterlimit="10" stroke-linecap="round" stroke-linejoin="round"/>
<path d="M232.638 343.508L239.598 372.869L201.702 393.283L195.23 365.995L232.638 343.508Z" stroke="#3335F9" stroke-width="0.574635" stroke-miterlimit="10" stroke-linecap="round" stroke-linejoin="round"/>
<path d="M219.318 313.277L232.636 343.507L195.233 365.994L182.847 337.914L219.318 313.277Z" stroke="#3335F9" stroke-width="0.574635" stroke-miterlimit="10" stroke-linecap="round" stroke-linejoin="round"/>
<path d="M200.539 284.253L219.315 313.28L182.849 337.916L165.417 310.935L200.539 284.253Z" stroke="#3335F9" stroke-width="0.574635" stroke-miterlimit="10" stroke-linecap="round" stroke-linejoin="round"/>
<path d="M177.594 258.367L200.538 284.253L165.42 310.939L144.087 286.9L177.594 258.367Z" stroke="#3335F9" stroke-width="0.574635" stroke-miterlimit="10" stroke-linecap="round" stroke-linejoin="round"/>
<path d="M152.037 237.433L177.592 258.368L144.086 286.9L120.35 267.446L152.037 237.433Z" stroke="#3335F9" stroke-width="0.574635" stroke-miterlimit="10" stroke-linecap="round" stroke-linejoin="round"/>
<path d="M125.627 222.876L152.037 237.43L120.35 267.447L95.7905 253.903L125.627 222.876Z" stroke="#3335F9" stroke-width="0.574635" stroke-miterlimit="10" stroke-linecap="round" stroke-linejoin="round"/>
<path d="M72.0953 247.196L95.7905 253.903L64.0264 269.688L45.9021 264.542L44.9155 260.365L72.0953 247.196Z" stroke="#3335F9" stroke-width="0.574635" stroke-miterlimit="10" stroke-linecap="round" stroke-linejoin="round"/>
<path d="M50.8865 247.777L72.0972 247.198L44.9265 259.557L44.8677 250.519L50.8865 247.777Z" stroke="#3335F9" stroke-width="0.574635" stroke-miterlimit="10" stroke-linecap="round" stroke-linejoin="round"/>
<path d="M195.572 438.188L191.318 443.252L182.625 440.777L201.813 417.914L195.572 438.188Z" stroke="#3335F9" stroke-width="0.574635" stroke-miterlimit="10" stroke-linecap="round" stroke-linejoin="round"/>
<path d="M201.702 393.281L201.811 417.913L182.623 440.775L178.084 438.499L177.998 419.678L201.702 393.281Z" stroke="#3335F9" stroke-width="0.574635" stroke-miterlimit="10" stroke-linecap="round" stroke-linejoin="round"/>
<path d="M195.232 365.995L201.703 393.279L177.995 419.676L171.039 390.315L195.232 365.995Z" stroke="#3335F9" stroke-width="0.574635" stroke-miterlimit="10" stroke-linecap="round" stroke-linejoin="round"/>
<path d="M182.849 337.914L195.23 365.995L171.042 390.314L157.714 360.08L182.849 337.914Z" stroke="#3335F9" stroke-width="0.574635" stroke-miterlimit="10" stroke-linecap="round" stroke-linejoin="round"/>
<path d="M165.419 310.938L182.851 337.914L157.717 360.084L138.955 331.049L165.419 310.938Z" stroke="#3335F9" stroke-width="0.574635" stroke-miterlimit="10" stroke-linecap="round" stroke-linejoin="round"/>
<path d="M144.086 286.901L165.419 310.94L138.954 331.047L115.992 305.175L144.086 286.901Z" stroke="#3335F9" stroke-width="0.574635" stroke-miterlimit="10" stroke-linecap="round" stroke-linejoin="round"/>
<path d="M120.351 267.445L144.087 286.9L115.993 305.174L90.438 284.239L120.351 267.445Z" stroke="#3335F9" stroke-width="0.574635" stroke-miterlimit="10" stroke-linecap="round" stroke-linejoin="round"/>
<path d="M95.7915 253.906L120.351 267.446L90.4334 284.24L64.0229 269.686L95.7915 253.906Z" stroke="#3335F9" stroke-width="0.574635" stroke-miterlimit="10" stroke-linecap="round" stroke-linejoin="round"/>
<path d="M45.9009 264.542L64.0252 269.688L46.8512 268.543L45.9009 264.542Z" stroke="#3335F9" stroke-width="0.574635" stroke-miterlimit="10" stroke-linecap="round" stroke-linejoin="round"/>
<path d="M177.996 419.679L178.087 438.5L174.484 436.513L177.996 419.679Z" stroke="#3335F9" stroke-width="0.574635" stroke-miterlimit="10" stroke-linecap="round" stroke-linejoin="round"/>
<path d="M171.041 390.316L177.996 419.677L174.484 436.512L168.606 433.262L163.732 412.717L171.041 390.316Z" stroke="#3335F9" stroke-width="0.574635" stroke-miterlimit="10" stroke-linecap="round" stroke-linejoin="round"/>
<path d="M157.716 360.083L171.039 390.318L163.73 412.719L147.719 376.402L157.716 360.083Z" stroke="#3335F9" stroke-width="0.574635" stroke-miterlimit="10" stroke-linecap="round" stroke-linejoin="round"/>
<path d="M138.955 331.048L157.718 360.084L147.721 376.402L125.18 341.516L138.955 331.048Z" stroke="#3335F9" stroke-width="0.574635" stroke-miterlimit="10" stroke-linecap="round" stroke-linejoin="round"/>
<path d="M115.993 305.174L138.955 331.046L125.18 341.514L97.5972 310.433L115.993 305.174Z" stroke="#3335F9" stroke-width="0.574635" stroke-miterlimit="10" stroke-linecap="round" stroke-linejoin="round"/>
<path d="M90.4353 284.24L115.99 305.175L97.5946 310.434L66.894 285.281L90.4353 284.24Z" stroke="#3335F9" stroke-width="0.574635" stroke-miterlimit="10" stroke-linecap="round" stroke-linejoin="round"/>
<path d="M64.0246 269.687L90.435 284.24L66.8937 285.281L48.4209 275.09L46.8506 268.542L64.0246 269.687Z" stroke="#3335F9" stroke-width="0.574635" stroke-miterlimit="10" stroke-linecap="round" stroke-linejoin="round"/>
<path d="M19.5617 632.178L-44.7266 579.524L-26.3307 574.266L43.1121 631.155L19.5617 632.178Z" stroke="#3335F9" stroke-width="0.574635" stroke-miterlimit="10" stroke-linecap="round" stroke-linejoin="round"/>
<path d="M86.0466 668.843L19.5635 632.178L43.1138 631.156L114.901 670.73L86.0466 668.843Z" stroke="#3335F9" stroke-width="0.574635" stroke-miterlimit="10" stroke-linecap="round" stroke-linejoin="round"/>
<path d="M150.154 687.001L86.0469 668.84L114.901 670.727L184.154 690.35L150.154 687.001Z" stroke="#3335F9" stroke-width="0.574635" stroke-miterlimit="10" stroke-linecap="round" stroke-linejoin="round"/>
<path d="M184.493 426.899L180.239 431.963" stroke="#3335F9" stroke-width="1.43659" stroke-miterlimit="10" stroke-linecap="round" stroke-linejoin="round"/>
<path d="M47.3335 275.919L65.8063 286.106L96.5023 311.263L124.094 342.339L146.631 377.23L162.637 413.542L167.52 434.088" stroke="#3335F9" stroke-width="1.43659" stroke-miterlimit="10" stroke-linecap="round" stroke-linejoin="round"/>
<path d="M-176.866 131.945L-195.117 191.219L-201 224.871L-200.683 291.503L-183.17 365.381L-149.663 441.422L-102.441 514.471L-44.7277 579.524L19.5606 632.178L86.0483 668.843L150.156 686.999L184.151 690.348L246.154 688.651L281.343 673.337L333.178 649.845L369.698 606.197L393.868 576.402L412.115 517.128L417.998 483.477L417.695 416.835L400.186 342.953L366.661 266.925L319.452 193.894L261.726 128.823L197.455 76.1604L130.968 39.4953L66.8468 21.3483L32.8473 17.9995L-29.1467 19.6965L-64.3274 35.0015L-116.166 58.493L-152.686 102.141L-176.866 131.945Z" stroke="#3335F9" stroke-width="2" stroke-miterlimit="10" stroke-linecap="round" stroke-linejoin="round"/>
<path d="M212.25 449.404L198.457 445.512L191.089 443.422L182.396 440.946L181.618 440.738L177.857 438.67L174.255 436.683L168.381 433.434L149.881 423.238L119.18 398.09L91.6204 367.014L69.0521 332.119L53.0411 295.807L48.1944 275.266L46.624 268.713L45.6737 264.712L44.6917 260.535L44.7007 259.73L44.6419 250.688L44.6012 243.031L44.5469 228.699" stroke="#3335F9" stroke-width="1.43659" stroke-miterlimit="10" stroke-linecap="round" stroke-linejoin="round"/>
</g>
<defs>
<clipPath id="clip0_2055_63144">
<rect width="462" height="712" fill="white"/>
</clipPath>
</defs>
</svg>
