<svg width="594" height="581" viewBox="0 0 594 581" fill="none" xmlns="http://www.w3.org/2000/svg">
<path d="M388.375 19.3685L381.258 45.7889L374.206 71.9671L367.223 97.9066L360.296 123.613L355.35 125.393" stroke="#9E00FF" stroke-width="1.08501" stroke-linecap="round" stroke-linejoin="round"/>
<path d="M408.578 24.9298L399.664 50.8615L390.879 76.4327L382.208 101.658L373.662 126.536L371.459 132.926" stroke="#9E00FF" stroke-width="1.08501" stroke-linecap="round" stroke-linejoin="round"/>
<path d="M440.813 38.1937L428.791 62.6285L416.98 86.6384L405.378 110.237L393.97 133.429L389.974 141.549" stroke="#9E00FF" stroke-width="1.08501" stroke-linecap="round" stroke-linejoin="round"/>
<path d="M481.422 56.9255L465.404 79.0297L452.689 96.5735L449.694 100.708L438.622 115.989L434.291 121.968L424.438 135.563L419.177 142.821L412.535 151.985" stroke="#9E00FF" stroke-width="1.08501" stroke-linecap="round" stroke-linejoin="round"/>
<path d="M355.055 125.677L361.623 100.319L368.307 74.4971L375.022 48.5651L381.768 22.5225L388.578 19.5182L408.648 24.8258L440.699 37.6807L481.154 55.8958" stroke="#9E00FF" stroke-width="1.08501" stroke-linecap="round" stroke-linejoin="round"/>
<path d="M530.113 171.485L507.114 185.506L500.408 189.592" stroke="#9E00FF" stroke-width="1.08501" stroke-linecap="round" stroke-linejoin="round"/>
<path d="M425.714 158.024L408.907 177.259L392.379 196.173L376.132 214.774L360.146 233.066L349.491 245.265" stroke="#9E00FF" stroke-width="1.08501" stroke-linecap="round" stroke-linejoin="round"/>
<path d="M431.163 289.38L408.285 303.075L390.576 303.576L369.016 317.796L345.652 313.573L318.07 305.085L289.603 294.075L263.858 282.79L243.871 273.4L231.7 267.756L228.143 267.029" stroke="#9E00FF" stroke-width="1.08501" stroke-linecap="round" stroke-linejoin="round"/>
<path d="M408.547 303.305L386.008 316.799L376.208 317.464L369.581 317.913L348.413 331.886L327.243 328.814L308.333 343.711L302.764 342.357" stroke="#9E00FF" stroke-width="1.08501" stroke-linecap="round" stroke-linejoin="round"/>
<path d="M459.739 257.383L437.805 271.359L431.496 275.385" stroke="#9E00FF" stroke-width="1.08501" stroke-linecap="round" stroke-linejoin="round"/>
<path d="M510.462 150.261L489.916 165.552L472.383 178.605" stroke="#9E00FF" stroke-width="1.08501" stroke-linecap="round" stroke-linejoin="round"/>
<path d="M404.735 266.6L384.758 282.336L365.027 297.878L345.555 313.217L326.324 328.366L301.398 321.427L275.733 312.145L252.489 302.481L234.34 294.344L223.15 289.434L219.646 288.855" stroke="#9E00FF" stroke-width="1.08501" stroke-linecap="round" stroke-linejoin="round"/>
<path d="M484.532 125.534L466.885 142.476L449.102 159.54L442.707 165.678" stroke="#9E00FF" stroke-width="1.08501" stroke-linecap="round" stroke-linejoin="round"/>
<path d="M455.8 99.3336L441.119 118.215L426.33 137.244L414.289 152.735" stroke="#9E00FF" stroke-width="1.08501" stroke-linecap="round" stroke-linejoin="round"/>
<path d="M369.23 253.99L352.085 271.173L335.186 288.12L318.522 304.823L302.083 321.297L287.615 335.803" stroke="#9E00FF" stroke-width="1.08501" stroke-linecap="round" stroke-linejoin="round"/>
<path d="M383.671 352.447L362.591 366.331L348.132 371.096L324.769 369.237L294.924 361.366L262.254 349.127L230.962 334.876L205.069 321.358L187.544 311.028L179.896 305.779" stroke="#9E00FF" stroke-width="1.08501" stroke-linecap="round" stroke-linejoin="round"/>
<path d="M387.79 342.298L367.283 356.206L365.357 357.51" stroke="#9E00FF" stroke-width="1.08501" stroke-linecap="round" stroke-linejoin="round"/>
<path d="M362.892 365.744L342 379.496L321.217 393.176L307.982 398.318L289.973 410.693L287.966 412.077L268.708 412.197L244.68 407.561L218.669 399.311L193.819 389.159L173.16 379.187L158.959 371.311L152.461 367.15" stroke="#9E00FF" stroke-width="1.08501" stroke-linecap="round" stroke-linejoin="round"/>
<path d="M381.704 325.37L362.16 339.898L342.607 354.427L342.443 354.553" stroke="#9E00FF" stroke-width="1.08501" stroke-linecap="round" stroke-linejoin="round"/>
<path d="M312.469 345.434L295.394 361.187L278.514 376.759L261.834 392.147L245.341 407.365L229.039 422.408L227.088 424.209" stroke="#9E00FF" stroke-width="1.08501" stroke-linecap="round" stroke-linejoin="round"/>
<path d="M315.622 411.428L297.066 425.586L296.449 436.909" stroke="#9E00FF" stroke-width="1.08501" stroke-linecap="round" stroke-linejoin="round"/>
<path d="M277.545 331.671L262.688 348.735L248.009 365.6L233.508 382.259L219.185 398.718L205.027 414.985L191.034 431.059L177.211 446.943" stroke="#9E00FF" stroke-width="1.08501" stroke-linecap="round" stroke-linejoin="round"/>
<path d="M305.093 435.048L286.136 448.793L267.292 462.453L248.638 465.609L230.737 479.467L212.968 493.216L195.348 506.858L177.869 520.39L157.881 519.862L135.195 515.215" stroke="#9E00FF" stroke-width="1.08501" stroke-linecap="round" stroke-linejoin="round"/>
<path d="M267.448 462.392L248.744 475.948L230.148 489.433L211.668 502.836L193.295 516.158L178.167 520.254L160.844 533.664L142.307 533.689" stroke="#9E00FF" stroke-width="1.08501" stroke-linecap="round" stroke-linejoin="round"/>
<path d="M284.768 437.746L266.438 451.924L239.396 448.222L208.002 438.861" stroke="#9E00FF" stroke-width="1.08501" stroke-linecap="round" stroke-linejoin="round"/>
<path d="M130.34 428.749L139.791 409.334L149.311 389.774L158.907 370.065L168.58 350.193L178.327 330.173L188.148 309.995L198.051 289.649" stroke="#9E00FF" stroke-width="1.08501" stroke-linecap="round" stroke-linejoin="round"/>
<path d="M193.48 515.942L175.205 529.189L161.014 533.455" stroke="#9E00FF" stroke-width="1.08501" stroke-linecap="round" stroke-linejoin="round"/>
<path d="M141.776 434.024L152.163 415.564L162.658 396.917L173.253 378.093L183.957 359.073L194.763 339.863L205.678 320.466L216.705 300.868" stroke="#9E00FF" stroke-width="1.08501" stroke-linecap="round" stroke-linejoin="round"/>
<path d="M157.948 440.567L169.866 423.334L181.92 405.911L194.111 388.29L206.437 370.47L218.912 352.438L231.527 334.203L244.285 315.751" stroke="#9E00FF" stroke-width="1.08501" stroke-linecap="round" stroke-linejoin="round"/>
<path d="M297.026 425.459L281.049 437.658" stroke="#9E00FF" stroke-width="1.08501" stroke-linecap="round" stroke-linejoin="round"/>
<path d="M449.4 241.795L459.729 257.465L462.269 270.785" stroke="#9E00FF" stroke-width="1.08501" stroke-linecap="round" stroke-linejoin="round"/>
<path d="M210.041 435.948L191.037 430.93L170.113 423.384L152.589 415.748L140.334 409.604L134.406 406.373" stroke="#9E00FF" stroke-width="1.08501" stroke-linecap="round" stroke-linejoin="round"/>
<path d="M286.214 448.936L266.633 451.796L248.465 465.856L222.791 462.843L193.139 454.473" stroke="#9E00FF" stroke-width="1.08501" stroke-linecap="round" stroke-linejoin="round"/>
<path d="M265.212 325.954L276.081 311.644L289.876 293.494L303.863 275.093L318.041 256.432L332.424 237.505" stroke="#9E00FF" stroke-width="1.08501" stroke-linecap="round" stroke-linejoin="round"/>
<path d="M540.491 187.236L523.877 196.158" stroke="#9E00FF" stroke-width="1.08501" stroke-linecap="round" stroke-linejoin="round"/>
<path d="M195.567 451.036L179.426 447.321L179.159 447.261L179.114 447.253L177.232 446.817L159.298 440.937L158.312 440.613L143.322 434.579L142.384 434.203L131.973 429.419L131.102 429.017L125.82 426.502L125.451 426.324" stroke="#9E00FF" stroke-width="1.08501" stroke-linecap="round" stroke-linejoin="round"/>
<path d="M244.128 316.075L252.466 301.702L263.925 281.948L275.524 261.952L287.272 241.697L299.178 221.18" stroke="#9E00FF" stroke-width="1.08501" stroke-linecap="round" stroke-linejoin="round"/>
<path d="M248.791 475.965L230.807 479.436L206.444 477.079L178.426 469.645" stroke="#9E00FF" stroke-width="1.08501" stroke-linecap="round" stroke-linejoin="round"/>
<path d="M230.24 489.303L213.128 493.022L190.163 491.302L163.871 484.805" stroke="#9E00FF" stroke-width="1.08501" stroke-linecap="round" stroke-linejoin="round"/>
<path d="M315.469 426.686L302.115 436.344" stroke="#9E00FF" stroke-width="1.08501" stroke-linecap="round" stroke-linejoin="round"/>
<path d="M227.569 307.328L234.044 293.351L243.775 272.359L253.602 251.148L263.529 229.721L273.56 208.064" stroke="#9E00FF" stroke-width="1.08501" stroke-linecap="round" stroke-linejoin="round"/>
<path d="M211.809 502.563L195.599 506.504L174.038 505.394L149.465 499.812" stroke="#9E00FF" stroke-width="1.08501" stroke-linecap="round" stroke-linejoin="round"/>
<path d="M217.215 301.819L222.701 288.309L231.513 266.596L240.402 244.72L249.345 222.688L258.356 200.487" stroke="#9E00FF" stroke-width="1.08501" stroke-linecap="round" stroke-linejoin="round"/>
<path d="M188.043 459.119L179.407 447.601L179.217 447.398" stroke="#9E00FF" stroke-width="1.08501" stroke-linecap="round" stroke-linejoin="round"/>
<path d="M326.946 235.122L334.444 223.21L347.275 202.832L360.308 182.125L373.559 161.091L387.016 139.714" stroke="#9E00FF" stroke-width="1.08501" stroke-linecap="round" stroke-linejoin="round"/>
<path d="M214.18 300.117L219.173 287.687L227.944 265.828L236.762 243.878L245.604 221.835L254.493 199.702" stroke="#9E00FF" stroke-width="1.08501" stroke-linecap="round" stroke-linejoin="round"/>
<path d="M296.932 425.514L291.82 413.343" stroke="#9E00FF" stroke-width="1.08501" stroke-linecap="round" stroke-linejoin="round"/>
<path d="M342.219 379.491L328.335 384.471L308.097 398.377L287.407 397.879L261.392 392.189L233.13 382.621L206.124 371.093L183.726 359.899L168.425 351.152L161.557 346.578" stroke="#9E00FF" stroke-width="1.08501" stroke-linecap="round" stroke-linejoin="round"/>
<path d="M170.841 475.565L163.133 464.685L151.109 451.002L139.571 439.738L130.363 431.684L125.097 427.306L124.958 426.65L134.192 406.611L143.477 386.46L152.812 366.204L162.194 345.841L171.625 325.364L181.108 304.783L190.641 284.09" stroke="#9E00FF" stroke-width="1.08501" stroke-linecap="round" stroke-linejoin="round"/>
<path d="M277.41 437.005L272.998 425.582" stroke="#9E00FF" stroke-width="1.08501" stroke-linecap="round" stroke-linejoin="round"/>
<path d="M361.021 123.912L374.324 126.671L394.47 133.377L419.392 142.545" stroke="#9E00FF" stroke-width="1.08501" stroke-linecap="round" stroke-linejoin="round"/>
<path d="M307.263 225.627L312.422 214.43L322.608 192.308L332.937 169.883L343.41 147.157L354.016 124.121" stroke="#9E00FF" stroke-width="1.08501" stroke-linecap="round" stroke-linejoin="round"/>
<path d="M152.096 450.725L159.366 440.9" stroke="#9E00FF" stroke-width="1.08501" stroke-linecap="round" stroke-linejoin="round"/>
<path d="M311.018 400.297L315.704 410.653L315.36 425.825L304.931 435.134L301.974 435.501L296.484 436.182L284.751 437.639L281.075 437.066L277.566 436.516L260.157 433.798L259.975 433.772L257.635 433.407L256.624 433.246L239.786 448.028L223.104 462.665L206.59 477.162L190.225 491.523L174.014 505.75L157.955 519.837L142.052 533.799L121.08 530.021" stroke="#9E00FF" stroke-width="1.08501" stroke-linecap="round" stroke-linejoin="round"/>
<path d="M462.49 270.734L451.807 277.07" stroke="#9E00FF" stroke-width="1.08501" stroke-linecap="round" stroke-linejoin="round"/>
<path d="M391.229 262.98L403.544 263.461L427.528 250.146L438.508 247.062L449.152 241.543L463.54 234.088" stroke="#9E00FF" stroke-width="1.08501" stroke-linecap="round" stroke-linejoin="round"/>
<path d="M292.868 218.548L296.504 208.533L304.948 185.264L313.476 161.759L322.093 138.013L330.792 114.024" stroke="#9E00FF" stroke-width="1.08501" stroke-linecap="round" stroke-linejoin="round"/>
<path d="M318.76 111.783L330.138 114.596L353.457 124.52L355.706 125.557L356.096 125.741L360.128 127.608L372.202 133.192L386.64 139.878L390.551 141.684L412.796 151.963L414.391 152.702L425.663 157.911L442.689 165.372L463.791 174.621L465.319 175.29L472.365 178.009L500.149 188.702" stroke="#9E00FF" stroke-width="1.08501" stroke-linecap="round" stroke-linejoin="round"/>
<path d="M311.178 136.33L321.727 138.984L343.043 147.941L373.215 161.615L408.659 177.477L444.76 192.579L476.665 203.983L500.149 188.561L500.407 188.631L511.22 191.57L523.877 195.014L525.716 195.515" stroke="#9E00FF" stroke-width="1.08501" stroke-linecap="round" stroke-linejoin="round"/>
<path d="M337.457 345.884L342.549 354.285L342.595 354.474" stroke="#9E00FF" stroke-width="1.08501" stroke-linecap="round" stroke-linejoin="round"/>
<path d="M303.639 160.379L313.415 162.782L332.819 170.727L360.112 182.718L392.117 196.47L424.771 209.38L453.813 218.88L475.754 223.104L488.365 221.005L507.859 210.901L513.95 207.737" stroke="#9E00FF" stroke-width="1.08501" stroke-linecap="round" stroke-linejoin="round"/>
<path d="M285.483 214.791L288.097 206.803L295.866 183.098L303.687 159.251L311.553 135.249L319.465 111.101" stroke="#9E00FF" stroke-width="1.08501" stroke-linecap="round" stroke-linejoin="round"/>
<path d="M286.098 214.774L288.747 206.803" stroke="#9E00FF" stroke-width="1.08501" stroke-linecap="round" stroke-linejoin="round"/>
<path d="M296.141 184.592L305.17 186.652L322.683 193.509L347.123 203.769L375.701 215.403L404.889 226.149L430.999 233.79L450.985 236.742L475.635 223.063L500.537 209.238L525.693 195.277L539.381 194.451" stroke="#9E00FF" stroke-width="1.08501" stroke-linecap="round" stroke-linejoin="round"/>
<path d="M288.693 208.521L297.014 210.148L312.707 215.858L334.373 224.375L359.604 233.926L385.393 242.572L408.588 248.438L430.973 233.744L453.667 218.852L476.667 203.753L500.309 209.267L513.451 207.781L539.039 194.524L540.285 185.877L530.182 170.286L510.914 149.284L485.437 124.78L457.08 98.8372L454.083 96.1112" stroke="#9E00FF" stroke-width="1.08501" stroke-linecap="round" stroke-linejoin="round"/>
<path d="M358.245 333.697L362.252 339.876L367.12 356.117L366.517 357.581" stroke="#9E00FF" stroke-width="1.08501" stroke-linecap="round" stroke-linejoin="round"/>
<path d="M374.479 48.6855L380.954 46.112L399.385 50.9968L428.555 62.511L465.263 78.6105" stroke="#9E00FF" stroke-width="1.08501" stroke-linecap="round" stroke-linejoin="round"/>
<path d="M368.154 74.5137L374.264 72.2684L390.929 76.5551L416.999 86.5292L449.672 100.321" stroke="#9E00FF" stroke-width="1.08501" stroke-linecap="round" stroke-linejoin="round"/>
<path d="M140.326 439.302L143.374 434.409" stroke="#9E00FF" stroke-width="1.08501" stroke-linecap="round" stroke-linejoin="round"/>
<path d="M361.861 100.238L367.644 98.1915L382.587 101.771L405.65 110.137L434.389 121.613" stroke="#9E00FF" stroke-width="1.08501" stroke-linecap="round" stroke-linejoin="round"/>
<path d="M379.002 320.464L381.798 324.538L387.637 341.474L383.32 352.759L368.35 357.273L366.221 357.048L364.871 356.901L343.706 354.668L342.201 354.241L342.125 354.22L341.912 354.158L328.901 350.465L322.22 348.568L311.962 345.658L307.208 343.806L302.28 341.887L287.17 335.992L277.066 332.054L265.038 326.443L244.267 316.749L243.583 316.431L227.921 308.139L217.674 302.714L215.899 301.779L214.651 301.038L206.198 296.029L203.082 294.186L197.218 290.709L191.39 286.739L189.139 285.207" stroke="#9E00FF" stroke-width="1.08501" stroke-linecap="round" stroke-linejoin="round"/>
<path d="M403.783 264.885L406.384 268.168L406.427 268.245" stroke="#9E00FF" stroke-width="1.08501" stroke-linecap="round" stroke-linejoin="round"/>
<path d="M361.047 123.637L360.076 127.255" stroke="#9E00FF" stroke-width="1.08501" stroke-linecap="round" stroke-linejoin="round"/>
<path d="M253.861 200.664L257.732 201.407L272.958 208.869L286.086 215.478L286.122 215.495L293.468 219.194L298.64 221.79L307.729 226.166L327.163 235.508L332.04 237.852L349.321 245.471L368.985 254.133L370.716 254.785L388.514 261.491L390.968 262.419L398.919 265.408L400.691 266.082L404.464 267.502L406.07 267.935L406.197 267.968L431.253 274.732L433.888 275.44L438.305 275.644L451.645 276.254L453.797 276.351L462.489 269.822" stroke="#9E00FF" stroke-width="1.08501" stroke-linecap="round" stroke-linejoin="round"/>
<path d="M206.305 295.024L203.339 292.841L191.646 285.143L189.139 284.109" stroke="#9E00FF" stroke-width="1.08501" stroke-linecap="round" stroke-linejoin="round"/>
<path d="M245.25 222.916L248.992 223.728L263.156 230.642L286.881 242.418L317.675 256.886L351.742 271.378L384.578 283.07L411.997 289.715L430.846 289.897L453.947 276.063" stroke="#9E00FF" stroke-width="1.08501" stroke-linecap="round" stroke-linejoin="round"/>
<path d="M236.686 245.012L240.318 245.813L253.454 252.118L275.272 262.715L303.503 275.582L334.728 288.314L364.909 298.373L390.305 303.781L412.101 289.391L434.129 274.859" stroke="#9E00FF" stroke-width="1.08501" stroke-linecap="round" stroke-linejoin="round"/>
<path d="M439.049 115.989L441.431 118.211L467.018 142.449L489.841 165.488L506.837 185.398L510.858 192.504" stroke="#9E00FF" stroke-width="1.08501" stroke-linecap="round" stroke-linejoin="round"/>
<path d="M424.785 135.563L426.535 137.244L449.071 159.484L463.642 175.015" stroke="#9E00FF" stroke-width="1.08501" stroke-linecap="round" stroke-linejoin="round"/>
<path d="M130.954 431.123L131.996 429.159" stroke="#9E00FF" stroke-width="1.08501" stroke-linecap="round" stroke-linejoin="round"/>
<path d="M427.673 252.654L426.762 253.325L406.402 268.247L406.34 268.297" stroke="#9E00FF" stroke-width="1.08501" stroke-linecap="round" stroke-linejoin="round"/>
<path d="M260.588 433.598L259.883 434.059" stroke="#9E00FF" stroke-width="1.08501" stroke-linecap="round" stroke-linejoin="round"/>
<path d="M426.815 253.254L426.929 253.396L437.714 271.268L438.357 276.252" stroke="#9E00FF" stroke-width="1.08501" stroke-linecap="round" stroke-linejoin="round"/>
<path d="M179.463 447.47L179.344 447.603L164.417 464.576" stroke="#9E00FF" stroke-width="1.08501" stroke-linecap="round" stroke-linejoin="round"/>
<path d="M386.091 316.703L378.823 321.053L363.705 330.102L356.251 330.932L348.485 331.794L327.522 345.623L314.325 344.242L308.392 343.622L307.703 344.168" stroke="#9E00FF" stroke-width="1.08501" stroke-linecap="round" stroke-linejoin="round"/>
<path d="M321.654 393.48L310.641 400.731L301.137 406.993L290.845 411.322L288.661 412.244L272.011 423.689L268.956 425.787L251.234 426.497L245.996 430.533" stroke="#9E00FF" stroke-width="1.08501" stroke-linecap="round" stroke-linejoin="round"/>
<path d="M488.67 221.153L482.374 224.417L463.497 234.21L451.716 236.813L427.491 250.266L409.588 248.516L388.773 262.182" stroke="#9E00FF" stroke-width="1.08501" stroke-linecap="round" stroke-linejoin="round"/>
<path d="M438.557 246.988L427.666 252.638L426.637 253.171L413.708 259.876L403.638 263.369L399.186 265.838" stroke="#9E00FF" stroke-width="1.08501" stroke-linecap="round" stroke-linejoin="round"/>
<path d="M465.343 175.435L464.853 175.857L445.071 192.533L425.119 209.351L405.488 225.908L386.163 242.199L370.963 255.014" stroke="#9E00FF" stroke-width="1.08501" stroke-linecap="round" stroke-linejoin="round"/>
<path d="M363.794 330.088L358.042 333.532L341.609 343.371L336.293 344.219L327.674 345.586L322.734 348.842" stroke="#9E00FF" stroke-width="1.08501" stroke-linecap="round" stroke-linejoin="round"/>
<path d="M368.829 356.692L365.719 358.828L348.284 370.808L327.903 384.819L305.872 383.658L277.964 376.906L247.535 366.026L218.431 353.147L194.322 340.796L177.941 331.252L170.701 326.318" stroke="#9E00FF" stroke-width="1.08501" stroke-linecap="round" stroke-linejoin="round"/>
<path d="M301.194 406.989L293.279 412.198L291.721 413.226L280.825 420.408L272.361 424.262L269.077 425.753L257.332 433.83" stroke="#9E00FF" stroke-width="1.08501" stroke-linecap="round" stroke-linejoin="round"/>
<path d="M280.839 420.337L272.961 425.528L272.907 425.56L260.586 433.683L259.699 434.117" stroke="#9E00FF" stroke-width="1.08501" stroke-linecap="round" stroke-linejoin="round"/>
<path d="M344.238 353.674L343.393 354.325L325.068 368.455L306.089 383.08L287.308 397.563L268.709 411.9L250.295 426.1L228.241 422.469L223.961 421.218L204.431 415.504L181.685 406.709L162.716 397.945L149.574 390.962L143.408 387.266" stroke="#9E00FF" stroke-width="1.08501" stroke-linecap="round" stroke-linejoin="round"/>
<path d="M223.019 422.647L210.041 436.2L208.002 438.327L195.568 451.312L193.14 453.853L188.116 459.095L178.427 469.214L172.345 475.566L163.873 484.416L149.465 499.466L135.197 514.359L121.08 529.104" stroke="#9E00FF" stroke-width="1.08501" stroke-linecap="round" stroke-linejoin="round"/>
<path d="M413.724 259.757L403.763 264.922L400.959 266.381" stroke="#9E00FF" stroke-width="1.08501" stroke-linecap="round" stroke-linejoin="round"/>
<path d="M341.66 343.307L337.397 345.867L329.42 350.641" stroke="#9E00FF" stroke-width="1.08501" stroke-linecap="round" stroke-linejoin="round"/>
<path d="M256.308 433.298L245.995 430.073L227.087 424.156L223.018 422.883" stroke="#9E00FF" stroke-width="1.08501" stroke-linecap="round" stroke-linejoin="round"/>
</svg>
