<svg width="160" height="160" viewBox="0 0 160 160" fill="none" xmlns="http://www.w3.org/2000/svg">
<path d="M65.1201 148.288L58.3929 146.211L52.4998 144.194L61.0584 146.835L65.1201 148.288Z" stroke="#9E00FF" stroke-width="0.6" stroke-miterlimit="10" stroke-linecap="round" stroke-linejoin="round"/>
<path d="M72.415 149.565L65.12 148.288L61.0583 146.835L70.3439 148.462L72.415 149.565Z" stroke="#9E00FF" stroke-width="0.6" stroke-miterlimit="10" stroke-linecap="round" stroke-linejoin="round"/>
<path d="M80.0016 149.996L72.4151 149.566L70.344 148.462L80.0016 149.012V149.996Z" stroke="#9E00FF" stroke-width="0.6" stroke-miterlimit="10" stroke-linecap="round" stroke-linejoin="round"/>
<path d="M87.5882 149.565L80.0017 149.995V149.012L89.6559 148.461L87.5882 149.565Z" stroke="#9E00FF" stroke-width="0.6" stroke-miterlimit="10" stroke-linecap="round" stroke-linejoin="round"/>
<path d="M94.8832 148.288L87.5881 149.565L89.6558 148.462L98.9413 146.835L94.8832 148.288Z" stroke="#9E00FF" stroke-width="0.6" stroke-miterlimit="10" stroke-linecap="round" stroke-linejoin="round"/>
<path d="M101.607 146.211L94.8828 148.288L98.9421 146.835L107.5 144.194L101.607 146.211Z" stroke="#9E00FF" stroke-width="0.6" stroke-miterlimit="10" stroke-linecap="round" stroke-linejoin="round"/>
<path d="M45.0035 140.637L38.8454 136.307L31.6079 130.438L38.8454 135.531L45.0035 140.637Z" stroke="#9E00FF" stroke-width="0.6" stroke-miterlimit="10" stroke-linecap="round" stroke-linejoin="round"/>
<path d="M52.4999 144.193L45.0033 140.637L38.8452 135.531L47.6677 139.711L52.4999 144.193Z" stroke="#9E00FF" stroke-width="0.6" stroke-miterlimit="10" stroke-linecap="round" stroke-linejoin="round"/>
<path d="M61.0579 146.834L52.4992 144.193L47.667 139.711L57.7266 142.818L61.0579 146.834Z" stroke="#9E00FF" stroke-width="0.6" stroke-miterlimit="10" stroke-linecap="round" stroke-linejoin="round"/>
<path d="M70.3441 148.462L61.0575 146.835L57.7273 142.818L68.6474 144.731L70.3441 148.462Z" stroke="#9E00FF" stroke-width="0.6" stroke-miterlimit="10" stroke-linecap="round" stroke-linejoin="round"/>
<path d="M80.0016 149.012L70.344 148.461L68.6484 144.732L80.0016 145.375V149.012Z" stroke="#9E00FF" stroke-width="0.6" stroke-miterlimit="10" stroke-linecap="round" stroke-linejoin="round"/>
<path d="M89.6556 148.461L80.0015 149.012V145.373L91.357 144.73L89.6556 148.461Z" stroke="#9E00FF" stroke-width="0.6" stroke-miterlimit="10" stroke-linecap="round" stroke-linejoin="round"/>
<path d="M98.9417 146.835L89.655 148.462L91.3564 144.731L102.276 142.818L98.9417 146.835Z" stroke="#9E00FF" stroke-width="0.6" stroke-miterlimit="10" stroke-linecap="round" stroke-linejoin="round"/>
<path d="M107.5 144.193L98.9414 146.834L102.276 142.818L112.337 139.711L107.5 144.193Z" stroke="#9E00FF" stroke-width="0.6" stroke-miterlimit="10" stroke-linecap="round" stroke-linejoin="round"/>
<path d="M115.001 140.637L107.5 144.193L112.337 139.712L121.158 135.531L115.001 140.637Z" stroke="#9E00FF" stroke-width="0.6" stroke-miterlimit="10" stroke-linecap="round" stroke-linejoin="round"/>
<path d="M121.157 136.306L115 140.636L121.157 135.532L128.395 130.438L121.157 136.306Z" stroke="#9E00FF" stroke-width="0.6" stroke-miterlimit="10" stroke-linecap="round" stroke-linejoin="round"/>
<path d="M31.6079 130.438L26.2296 124.624L20.2512 116.172L26.2296 122.629L31.6079 130.438Z" stroke="#9E00FF" stroke-width="0.6" stroke-miterlimit="10" stroke-linecap="round" stroke-linejoin="round"/>
<path d="M38.8457 135.531L31.6082 130.438L26.23 122.628L34.2726 128.287L38.8457 135.531Z" stroke="#9E00FF" stroke-width="0.6" stroke-miterlimit="10" stroke-linecap="round" stroke-linejoin="round"/>
<path d="M47.6671 139.711L38.8458 135.532L34.2727 128.288L44.0697 132.933L47.6671 139.711Z" stroke="#9E00FF" stroke-width="0.6" stroke-miterlimit="10" stroke-linecap="round" stroke-linejoin="round"/>
<path d="M57.7273 142.818L47.6677 139.711L44.0703 132.933L55.2542 136.384L57.7273 142.818Z" stroke="#9E00FF" stroke-width="0.6" stroke-miterlimit="10" stroke-linecap="round" stroke-linejoin="round"/>
<path d="M68.6478 144.731L57.7277 142.818L55.2534 136.384L67.3853 138.51L68.6478 144.731Z" stroke="#9E00FF" stroke-width="0.6" stroke-miterlimit="10" stroke-linecap="round" stroke-linejoin="round"/>
<path d="M80.0014 145.374L68.6482 144.731L67.3857 138.51L80.0014 139.227V145.374Z" stroke="#9E00FF" stroke-width="0.6" stroke-miterlimit="10" stroke-linecap="round" stroke-linejoin="round"/>
<path d="M91.3563 144.731L80.002 145.374V139.227L92.6188 138.51L91.3563 144.731Z" stroke="#9E00FF" stroke-width="0.6" stroke-miterlimit="10" stroke-linecap="round" stroke-linejoin="round"/>
<path d="M102.276 142.818L91.3569 144.73L92.6183 138.509L104.75 136.384L102.276 142.818Z" stroke="#9E00FF" stroke-width="0.6" stroke-miterlimit="10" stroke-linecap="round" stroke-linejoin="round"/>
<path d="M112.337 139.711L102.276 142.818L104.751 136.384L115.93 132.933L112.337 139.711Z" stroke="#9E00FF" stroke-width="0.6" stroke-miterlimit="10" stroke-linecap="round" stroke-linejoin="round"/>
<path d="M121.158 135.531L112.337 139.71L115.93 132.933L125.732 128.287L121.158 135.531Z" stroke="#9E00FF" stroke-width="0.6" stroke-miterlimit="10" stroke-linecap="round" stroke-linejoin="round"/>
<path d="M128.395 130.438L121.158 135.531L125.731 128.288L133.773 122.629L128.395 130.438Z" stroke="#9E00FF" stroke-width="0.6" stroke-miterlimit="10" stroke-linecap="round" stroke-linejoin="round"/>
<path d="M133.774 124.623L128.395 130.438L133.774 122.629L139.748 116.171L133.774 124.623Z" stroke="#9E00FF" stroke-width="0.6" stroke-miterlimit="10" stroke-linecap="round" stroke-linejoin="round"/>
<path d="M20.2508 116.171L16.5727 109.163L12.6643 98.8875L16.5727 106.325L20.2508 116.171Z" stroke="#9E00FF" stroke-width="0.6" stroke-miterlimit="10" stroke-linecap="round" stroke-linejoin="round"/>
<path d="M26.2299 122.629L20.2515 116.172L16.5723 106.326L22.9147 113.182L26.2299 122.629Z" stroke="#9E00FF" stroke-width="0.6" stroke-miterlimit="10" stroke-linecap="round" stroke-linejoin="round"/>
<path d="M34.2729 128.288L26.2302 122.629L22.915 113.181L31.4541 119.189L34.2729 128.288Z" stroke="#9E00FF" stroke-width="0.6" stroke-miterlimit="10" stroke-linecap="round" stroke-linejoin="round"/>
<path d="M44.0698 132.933L34.2728 128.288L31.4541 119.188L41.8581 124.12L44.0698 132.933Z" stroke="#9E00FF" stroke-width="0.6" stroke-miterlimit="10" stroke-linecap="round" stroke-linejoin="round"/>
<path d="M55.2535 136.384L44.0696 132.933L41.8579 124.119L53.7283 127.784L55.2535 136.384Z" stroke="#9E00FF" stroke-width="0.6" stroke-miterlimit="10" stroke-linecap="round" stroke-linejoin="round"/>
<path d="M67.3858 138.51L55.2539 136.384L53.7288 127.783L66.6071 130.038L67.3858 138.51Z" stroke="#9E00FF" stroke-width="0.6" stroke-miterlimit="10" stroke-linecap="round" stroke-linejoin="round"/>
<path d="M80.0016 139.227L67.3859 138.51L66.6072 130.038L80.0016 130.801V139.227Z" stroke="#9E00FF" stroke-width="0.6" stroke-miterlimit="10" stroke-linecap="round" stroke-linejoin="round"/>
<path d="M92.6186 138.51L80.0017 139.227V130.803L93.3961 130.039L92.6186 138.51Z" stroke="#9E00FF" stroke-width="0.6" stroke-miterlimit="10" stroke-linecap="round" stroke-linejoin="round"/>
<path d="M104.751 136.384L92.6189 138.51L93.3964 130.04L106.276 127.785L104.751 136.384Z" stroke="#9E00FF" stroke-width="0.6" stroke-miterlimit="10" stroke-linecap="round" stroke-linejoin="round"/>
<path d="M115.93 132.933L104.751 136.384L106.276 127.784L118.145 124.12L115.93 132.933Z" stroke="#9E00FF" stroke-width="0.6" stroke-miterlimit="10" stroke-linecap="round" stroke-linejoin="round"/>
<path d="M125.732 128.288L115.93 132.933L118.145 124.12L128.547 119.19L125.732 128.288Z" stroke="#9E00FF" stroke-width="0.6" stroke-miterlimit="10" stroke-linecap="round" stroke-linejoin="round"/>
<path d="M133.773 122.629L125.732 128.288L128.547 119.189L137.085 113.181L133.773 122.629Z" stroke="#9E00FF" stroke-width="0.6" stroke-miterlimit="10" stroke-linecap="round" stroke-linejoin="round"/>
<path d="M139.749 116.172L133.774 122.629L137.085 113.182L143.432 106.326L139.749 116.172Z" stroke="#9E00FF" stroke-width="0.6" stroke-miterlimit="10" stroke-linecap="round" stroke-linejoin="round"/>
<path d="M143.432 109.164L139.75 116.172L143.432 106.325L147.336 98.888L143.432 109.164Z" stroke="#9E00FF" stroke-width="0.6" stroke-miterlimit="10" stroke-linecap="round" stroke-linejoin="round"/>
<path d="M12.6652 98.8877L11.3481 91.1526L10 79.9999L11.3481 87.8871L12.6652 98.8877Z" stroke="#9E00FF" stroke-width="0.6" stroke-miterlimit="10" stroke-linecap="round" stroke-linejoin="round"/>
<path d="M16.5725 106.325L12.6641 98.8874L11.3486 87.8867L15.3285 95.4709L16.5725 106.325Z" stroke="#9E00FF" stroke-width="0.6" stroke-miterlimit="10" stroke-linecap="round" stroke-linejoin="round"/>
<path d="M22.9146 113.181L16.5722 106.325L15.3281 95.4709L21.7984 102.458L22.9146 113.181Z" stroke="#9E00FF" stroke-width="0.6" stroke-miterlimit="10" stroke-linecap="round" stroke-linejoin="round"/>
<path d="M31.4539 119.189L22.9148 113.181L21.7986 102.458L30.5047 108.582L31.4539 119.189Z" stroke="#9E00FF" stroke-width="0.6" stroke-miterlimit="10" stroke-linecap="round" stroke-linejoin="round"/>
<path d="M41.8581 124.12L31.4541 119.189L30.5049 108.583L41.1117 113.611L41.8581 124.12Z" stroke="#9E00FF" stroke-width="0.6" stroke-miterlimit="10" stroke-linecap="round" stroke-linejoin="round"/>
<path d="M53.7282 127.784L41.8578 124.12L41.1113 113.611L53.2133 117.349L53.7282 127.784Z" stroke="#9E00FF" stroke-width="0.6" stroke-miterlimit="10" stroke-linecap="round" stroke-linejoin="round"/>
<path d="M66.6073 130.039L53.7278 127.784L53.2129 117.349L66.3435 119.649L66.6073 130.039Z" stroke="#9E00FF" stroke-width="0.6" stroke-miterlimit="10" stroke-linecap="round" stroke-linejoin="round"/>
<path d="M80.0015 130.802L66.6071 130.039L66.3445 119.649L80.0015 120.425V130.802Z" stroke="#9E00FF" stroke-width="0.6" stroke-miterlimit="10" stroke-linecap="round" stroke-linejoin="round"/>
<path d="M93.3961 130.039L80.0017 130.802V120.425L93.6564 119.649L93.3961 130.039Z" stroke="#9E00FF" stroke-width="0.6" stroke-miterlimit="10" stroke-linecap="round" stroke-linejoin="round"/>
<path d="M106.276 127.784L93.3955 130.039L93.6558 119.649L106.788 117.349L106.276 127.784Z" stroke="#9E00FF" stroke-width="0.6" stroke-miterlimit="10" stroke-linecap="round" stroke-linejoin="round"/>
<path d="M118.145 124.12L106.276 127.784L106.788 117.349L118.893 113.611L118.145 124.12Z" stroke="#9E00FF" stroke-width="0.6" stroke-miterlimit="10" stroke-linecap="round" stroke-linejoin="round"/>
<path d="M128.547 119.189L118.146 124.119L118.893 113.611L129.499 108.582L128.547 119.189Z" stroke="#9E00FF" stroke-width="0.6" stroke-miterlimit="10" stroke-linecap="round" stroke-linejoin="round"/>
<path d="M137.085 113.181L128.547 119.189L129.499 108.582L138.205 102.458L137.085 113.181Z" stroke="#9E00FF" stroke-width="0.6" stroke-miterlimit="10" stroke-linecap="round" stroke-linejoin="round"/>
<path d="M143.432 106.325L137.085 113.181L138.205 102.459L144.671 95.4704L143.432 106.325Z" stroke="#9E00FF" stroke-width="0.6" stroke-miterlimit="10" stroke-linecap="round" stroke-linejoin="round"/>
<path d="M147.335 98.8879L143.431 106.326L144.671 95.4714L148.655 87.8872L147.335 98.8879Z" stroke="#9E00FF" stroke-width="0.6" stroke-miterlimit="10" stroke-linecap="round" stroke-linejoin="round"/>
<path d="M148.656 91.1521L147.336 98.8872L148.656 87.8866L150 79.9994L148.656 91.1521Z" stroke="#9E00FF" stroke-width="0.6" stroke-miterlimit="10" stroke-linecap="round" stroke-linejoin="round"/>
<path d="M11.3489 87.8867L10.0007 79.9995L11.3489 68.8445L12.6659 76.5796L11.3489 87.8867Z" stroke="#9E00FF" stroke-width="0.6" stroke-miterlimit="10" stroke-linecap="round" stroke-linejoin="round"/>
<path d="M15.3282 95.4707L11.3484 87.8865L12.6639 76.5794L16.5723 84.0172L15.3282 95.4707Z" stroke="#9E00FF" stroke-width="0.6" stroke-miterlimit="10" stroke-linecap="round" stroke-linejoin="round"/>
<path d="M21.7989 102.458L15.3286 95.4712L16.5727 84.0166L22.9151 90.8725L21.7989 102.458Z" stroke="#9E00FF" stroke-width="0.6" stroke-miterlimit="10" stroke-linecap="round" stroke-linejoin="round"/>
<path d="M30.5045 108.583L21.7983 102.458L22.9145 90.8723L31.4536 96.8802L30.5045 108.583Z" stroke="#9E00FF" stroke-width="0.6" stroke-miterlimit="10" stroke-linecap="round" stroke-linejoin="round"/>
<path d="M41.1112 113.611L30.5044 108.582L31.4536 96.88L41.8576 101.812L41.1112 113.611Z" stroke="#9E00FF" stroke-width="0.6" stroke-miterlimit="10" stroke-linecap="round" stroke-linejoin="round"/>
<path d="M53.213 117.349L41.1111 113.611L41.8587 101.812L53.7279 105.476L53.213 117.349Z" stroke="#9E00FF" stroke-width="0.6" stroke-miterlimit="10" stroke-linecap="round" stroke-linejoin="round"/>
<path d="M66.344 119.649L53.2134 117.348L53.7283 105.477L66.6078 107.735L66.344 119.649Z" stroke="#9E00FF" stroke-width="0.6" stroke-miterlimit="10" stroke-linecap="round" stroke-linejoin="round"/>
<path d="M80.0015 120.424L66.3445 119.65L66.6071 107.734L80.0015 108.494V120.424Z" stroke="#9E00FF" stroke-width="0.6" stroke-miterlimit="10" stroke-linecap="round" stroke-linejoin="round"/>
<path d="M93.6557 119.65L80.001 120.424V108.493L93.3954 107.735L93.6557 119.65Z" stroke="#9E00FF" stroke-width="0.6" stroke-miterlimit="10" stroke-linecap="round" stroke-linejoin="round"/>
<path d="M106.788 117.349L93.6563 119.65L93.396 107.734L106.277 105.476L106.788 117.349Z" stroke="#9E00FF" stroke-width="0.6" stroke-miterlimit="10" stroke-linecap="round" stroke-linejoin="round"/>
<path d="M118.893 113.611L106.788 117.349L106.276 105.476L118.145 101.812L118.893 113.611Z" stroke="#9E00FF" stroke-width="0.6" stroke-miterlimit="10" stroke-linecap="round" stroke-linejoin="round"/>
<path d="M129.499 108.583L118.893 113.611L118.146 101.812L128.547 96.8805L129.499 108.583Z" stroke="#9E00FF" stroke-width="0.6" stroke-miterlimit="10" stroke-linecap="round" stroke-linejoin="round"/>
<path d="M138.204 102.459L129.498 108.583L128.547 96.8807L137.085 90.8728L138.204 102.459Z" stroke="#9E00FF" stroke-width="0.6" stroke-miterlimit="10" stroke-linecap="round" stroke-linejoin="round"/>
<path d="M144.671 95.4707L138.205 102.458L137.085 90.8732L143.432 84.0173L144.671 95.4707Z" stroke="#9E00FF" stroke-width="0.6" stroke-miterlimit="10" stroke-linecap="round" stroke-linejoin="round"/>
<path d="M148.656 87.8865L144.672 95.4707L143.432 84.0172L147.336 76.5794L148.656 87.8865Z" stroke="#9E00FF" stroke-width="0.6" stroke-miterlimit="10" stroke-linecap="round" stroke-linejoin="round"/>
<path d="M150 80L148.656 87.8872L147.335 76.5801L148.656 68.8438L150 80Z" stroke="#9E00FF" stroke-width="0.6" stroke-miterlimit="10" stroke-linecap="round" stroke-linejoin="round"/>
<path d="M11.3481 68.8442L12.6648 61.1091L16.572 50.8321L15.328 58.1179L11.3481 68.8442Z" stroke="#9E00FF" stroke-width="0.6" stroke-miterlimit="10" stroke-linecap="round" stroke-linejoin="round"/>
<path d="M12.6643 76.5796L11.3477 68.8445L15.3287 58.1181L16.5727 65.4084L12.6643 76.5796Z" stroke="#9E00FF" stroke-width="0.6" stroke-miterlimit="10" stroke-linecap="round" stroke-linejoin="round"/>
<path d="M16.5722 84.0166L12.6638 76.5788L16.5722 65.4076L20.2503 72.411L16.5722 84.0166Z" stroke="#9E00FF" stroke-width="0.6" stroke-miterlimit="10" stroke-linecap="round" stroke-linejoin="round"/>
<path d="M22.9147 90.873L16.5723 84.0171L20.2503 72.4116L26.2299 78.8688L22.9147 90.873Z" stroke="#9E00FF" stroke-width="0.6" stroke-miterlimit="10" stroke-linecap="round" stroke-linejoin="round"/>
<path d="M31.4539 96.8804L22.9148 90.8725L26.23 78.8683L34.2726 84.527L31.4539 96.8804Z" stroke="#9E00FF" stroke-width="0.6" stroke-miterlimit="10" stroke-linecap="round" stroke-linejoin="round"/>
<path d="M41.8581 101.812L31.4541 96.881L34.2728 84.5276L44.0698 89.1759L41.8581 101.812Z" stroke="#9E00FF" stroke-width="0.6" stroke-miterlimit="10" stroke-linecap="round" stroke-linejoin="round"/>
<path d="M53.7281 105.477L41.8577 101.811L44.0693 89.1767L55.2532 92.6277L53.7281 105.477Z" stroke="#9E00FF" stroke-width="0.6" stroke-miterlimit="10" stroke-linecap="round" stroke-linejoin="round"/>
<path d="M66.6073 107.735L53.7278 105.476L55.2541 92.6276L67.386 94.7501L66.6073 107.735Z" stroke="#9E00FF" stroke-width="0.6" stroke-miterlimit="10" stroke-linecap="round" stroke-linejoin="round"/>
<path d="M80.0016 108.494L66.6072 107.735L67.3859 94.75L80.0016 95.4713V108.494Z" stroke="#9E00FF" stroke-width="0.6" stroke-miterlimit="10" stroke-linecap="round" stroke-linejoin="round"/>
<path d="M93.3961 107.735L80.0017 108.495V95.4706L92.6186 94.7505L93.3961 107.735Z" stroke="#9E00FF" stroke-width="0.6" stroke-miterlimit="10" stroke-linecap="round" stroke-linejoin="round"/>
<path d="M106.276 105.476L93.3955 107.735L92.6191 94.7501L104.751 92.6276L106.276 105.476Z" stroke="#9E00FF" stroke-width="0.6" stroke-miterlimit="10" stroke-linecap="round" stroke-linejoin="round"/>
<path d="M118.145 101.812L106.276 105.477L104.75 92.6282L115.93 89.176L118.145 101.812Z" stroke="#9E00FF" stroke-width="0.6" stroke-miterlimit="10" stroke-linecap="round" stroke-linejoin="round"/>
<path d="M128.547 96.881L118.145 101.812L115.93 89.1759L125.732 84.5276L128.547 96.881Z" stroke="#9E00FF" stroke-width="0.6" stroke-miterlimit="10" stroke-linecap="round" stroke-linejoin="round"/>
<path d="M137.085 90.873L128.547 96.8809L125.732 84.5275L133.773 78.8687L137.085 90.873Z" stroke="#9E00FF" stroke-width="0.6" stroke-miterlimit="10" stroke-linecap="round" stroke-linejoin="round"/>
<path d="M143.432 84.0171L137.085 90.873L133.773 78.8688L139.75 72.4116L143.432 84.0171Z" stroke="#9E00FF" stroke-width="0.6" stroke-miterlimit="10" stroke-linecap="round" stroke-linejoin="round"/>
<path d="M147.335 76.5793L143.432 84.0171L139.749 72.4115L143.432 65.4081L147.335 76.5793Z" stroke="#9E00FF" stroke-width="0.6" stroke-miterlimit="10" stroke-linecap="round" stroke-linejoin="round"/>
<path d="M148.656 68.844L147.336 76.5791L143.432 65.4079L144.672 58.1176L148.656 68.844Z" stroke="#9E00FF" stroke-width="0.6" stroke-miterlimit="10" stroke-linecap="round" stroke-linejoin="round"/>
<path d="M147.335 61.1086L148.655 68.8438L144.671 58.1185L143.431 50.8316L147.335 61.1086Z" stroke="#9E00FF" stroke-width="0.6" stroke-miterlimit="10" stroke-linecap="round" stroke-linejoin="round"/>
<path d="M16.5725 50.8315L20.2506 43.8281L26.2301 35.3717L22.9149 41.6791L16.5725 50.8315Z" stroke="#9E00FF" stroke-width="0.6" stroke-miterlimit="10" stroke-linecap="round" stroke-linejoin="round"/>
<path d="M15.3284 58.1182L16.5724 50.8313L22.9148 41.6789L21.7986 48.2364L15.3284 58.1182Z" stroke="#9E00FF" stroke-width="0.6" stroke-miterlimit="10" stroke-linecap="round" stroke-linejoin="round"/>
<path d="M16.5724 65.4077L15.3284 58.1174L21.7986 48.2356L22.9148 54.7943L16.5724 65.4077Z" stroke="#9E00FF" stroke-width="0.6" stroke-miterlimit="10" stroke-linecap="round" stroke-linejoin="round"/>
<path d="M20.2508 72.4111L16.5728 65.4077L22.9152 54.7931L26.2292 61.1006L20.2508 72.4111Z" stroke="#9E00FF" stroke-width="0.6" stroke-miterlimit="10" stroke-linecap="round" stroke-linejoin="round"/>
<path d="M26.2296 78.8687L20.2512 72.4114L26.2296 61.1008L31.6079 66.9105L26.2296 78.8687Z" stroke="#9E00FF" stroke-width="0.6" stroke-miterlimit="10" stroke-linecap="round" stroke-linejoin="round"/>
<path d="M34.2728 84.5278L26.2302 78.8691L31.6085 66.9109L38.8459 72.0051L34.2728 84.5278Z" stroke="#9E00FF" stroke-width="0.6" stroke-miterlimit="10" stroke-linecap="round" stroke-linejoin="round"/>
<path d="M44.0697 89.1763L34.2727 84.5281L38.8458 72.0053L47.6671 76.1845L44.0697 89.1763Z" stroke="#9E00FF" stroke-width="0.6" stroke-miterlimit="10" stroke-linecap="round" stroke-linejoin="round"/>
<path d="M55.2535 92.6279L44.0696 89.1758L47.667 76.184L57.7266 79.2905L55.2535 92.6279Z" stroke="#9E00FF" stroke-width="0.6" stroke-miterlimit="10" stroke-linecap="round" stroke-linejoin="round"/>
<path d="M67.3858 94.75L55.2539 92.6275L57.7271 79.2901L68.6483 81.204L67.3858 94.75Z" stroke="#9E00FF" stroke-width="0.6" stroke-miterlimit="10" stroke-linecap="round" stroke-linejoin="round"/>
<path d="M80.0014 95.4707L67.3857 94.7505L68.6482 81.2046L80.0014 81.8475V95.4707Z" stroke="#9E00FF" stroke-width="0.6" stroke-miterlimit="10" stroke-linecap="round" stroke-linejoin="round"/>
<path d="M92.6186 94.7501L80.0017 95.4702V81.8471L91.3561 81.2041L92.6186 94.7501Z" stroke="#9E00FF" stroke-width="0.6" stroke-miterlimit="10" stroke-linecap="round" stroke-linejoin="round"/>
<path d="M104.751 92.6275L92.6189 94.75L91.3564 81.204L102.277 79.2901L104.751 92.6275Z" stroke="#9E00FF" stroke-width="0.6" stroke-miterlimit="10" stroke-linecap="round" stroke-linejoin="round"/>
<path d="M115.93 89.1762L104.751 92.6284L102.276 79.291L112.338 76.1845L115.93 89.1762Z" stroke="#9E00FF" stroke-width="0.6" stroke-miterlimit="10" stroke-linecap="round" stroke-linejoin="round"/>
<path d="M125.732 84.5276L115.93 89.1758L112.337 76.1841L121.157 72.0048L125.732 84.5276Z" stroke="#9E00FF" stroke-width="0.6" stroke-miterlimit="10" stroke-linecap="round" stroke-linejoin="round"/>
<path d="M133.773 78.8686L125.732 84.5273L121.158 72.0046L128.395 66.9105L133.773 78.8686Z" stroke="#9E00FF" stroke-width="0.6" stroke-miterlimit="10" stroke-linecap="round" stroke-linejoin="round"/>
<path d="M139.749 72.4114L133.774 78.8687L128.396 66.9105L133.774 61.1008L139.749 72.4114Z" stroke="#9E00FF" stroke-width="0.6" stroke-miterlimit="10" stroke-linecap="round" stroke-linejoin="round"/>
<path d="M143.432 65.4077L139.75 72.4111L133.773 61.1006L137.085 54.7942L143.432 65.4077Z" stroke="#9E00FF" stroke-width="0.6" stroke-miterlimit="10" stroke-linecap="round" stroke-linejoin="round"/>
<path d="M144.671 58.1179L143.432 65.4082L137.085 54.7936L138.205 48.2361L144.671 58.1179Z" stroke="#9E00FF" stroke-width="0.6" stroke-miterlimit="10" stroke-linecap="round" stroke-linejoin="round"/>
<path d="M143.432 50.8318L144.671 58.1187L138.205 48.2369L137.085 41.6794L143.432 50.8318Z" stroke="#9E00FF" stroke-width="0.6" stroke-miterlimit="10" stroke-linecap="round" stroke-linejoin="round"/>
<path d="M139.749 43.8281L143.432 50.8315L137.085 41.6791L133.774 35.3728L139.749 43.8281Z" stroke="#9E00FF" stroke-width="0.6" stroke-miterlimit="10" stroke-linecap="round" stroke-linejoin="round"/>
<path d="M26.2297 35.3721L31.608 29.5624L38.8454 23.6893L34.2724 28.6314L26.2297 35.3721Z" stroke="#9E00FF" stroke-width="0.6" stroke-miterlimit="10" stroke-linecap="round" stroke-linejoin="round"/>
<path d="M22.9148 41.6787L26.23 35.3724L34.2726 28.6317L31.4539 33.9931L22.9148 41.6787Z" stroke="#9E00FF" stroke-width="0.6" stroke-miterlimit="10" stroke-linecap="round" stroke-linejoin="round"/>
<path d="M21.7986 48.2358L22.9148 41.6783L31.4539 33.9928L30.5047 39.5709L21.7986 48.2358Z" stroke="#9E00FF" stroke-width="0.6" stroke-miterlimit="10" stroke-linecap="round" stroke-linejoin="round"/>
<path d="M22.9148 54.7939L21.7986 48.2364L30.5047 39.5715L31.4539 45.1484L22.9148 54.7939Z" stroke="#9E00FF" stroke-width="0.6" stroke-miterlimit="10" stroke-linecap="round" stroke-linejoin="round"/>
<path d="M26.23 61.1006L22.9148 54.7943L31.4539 45.1487L34.2726 50.5102L26.23 61.1006Z" stroke="#9E00FF" stroke-width="0.6" stroke-miterlimit="10" stroke-linecap="round" stroke-linejoin="round"/>
<path d="M31.608 66.9106L26.2297 61.101L34.2724 50.5105L38.8454 55.4526L31.608 66.9106Z" stroke="#9E00FF" stroke-width="0.6" stroke-miterlimit="10" stroke-linecap="round" stroke-linejoin="round"/>
<path d="M38.8456 72.0044L31.6082 66.9103L38.8456 55.4522L45.0037 59.7835L38.8456 72.0044Z" stroke="#9E00FF" stroke-width="0.6" stroke-miterlimit="10" stroke-linecap="round" stroke-linejoin="round"/>
<path d="M47.6673 76.1846L38.8459 72.0053L45.0029 59.7833L52.4995 63.3392L47.6673 76.1846Z" stroke="#9E00FF" stroke-width="0.6" stroke-miterlimit="10" stroke-linecap="round" stroke-linejoin="round"/>
<path d="M57.7273 79.2905L47.6677 76.184L52.5 63.3387L61.0587 65.9808L57.7273 79.2905Z" stroke="#9E00FF" stroke-width="0.6" stroke-miterlimit="10" stroke-linecap="round" stroke-linejoin="round"/>
<path d="M68.6479 81.2046L57.7278 79.2907L61.0579 65.9821L70.3446 67.6091L68.6479 81.2046Z" stroke="#9E00FF" stroke-width="0.6" stroke-miterlimit="10" stroke-linecap="round" stroke-linejoin="round"/>
<path d="M80.0016 81.8477L68.6484 81.2047L70.344 67.6092L80.0016 68.1588V81.8477Z" stroke="#9E00FF" stroke-width="0.6" stroke-miterlimit="10" stroke-linecap="round" stroke-linejoin="round"/>
<path d="M91.3563 81.2042L80.002 81.8472V68.1583L89.6549 67.6087L91.3563 81.2042Z" stroke="#9E00FF" stroke-width="0.6" stroke-miterlimit="10" stroke-linecap="round" stroke-linejoin="round"/>
<path d="M102.276 79.2907L91.3571 81.2046L89.6558 67.6079L98.9413 65.9809L102.276 79.2907Z" stroke="#9E00FF" stroke-width="0.6" stroke-miterlimit="10" stroke-linecap="round" stroke-linejoin="round"/>
<path d="M112.337 76.184L102.276 79.2905L98.9417 65.9808L107.5 63.3387L112.337 76.184Z" stroke="#9E00FF" stroke-width="0.6" stroke-miterlimit="10" stroke-linecap="round" stroke-linejoin="round"/>
<path d="M121.158 72.0048L112.338 76.1841L107.501 63.3387L115.001 59.784L121.158 72.0048Z" stroke="#9E00FF" stroke-width="0.6" stroke-miterlimit="10" stroke-linecap="round" stroke-linejoin="round"/>
<path d="M128.395 66.9107L121.158 72.0049L115.001 59.7829L121.158 55.4527L128.395 66.9107Z" stroke="#9E00FF" stroke-width="0.6" stroke-miterlimit="10" stroke-linecap="round" stroke-linejoin="round"/>
<path d="M133.773 61.1005L128.395 66.9102L121.158 55.4532L125.732 50.5101L133.773 61.1005Z" stroke="#9E00FF" stroke-width="0.6" stroke-miterlimit="10" stroke-linecap="round" stroke-linejoin="round"/>
<path d="M137.085 54.7943L133.773 61.1006L125.732 50.5102L128.547 45.1487L137.085 54.7943Z" stroke="#9E00FF" stroke-width="0.6" stroke-miterlimit="10" stroke-linecap="round" stroke-linejoin="round"/>
<path d="M138.204 48.2364L137.085 54.7939L128.547 45.1495L129.498 39.5715L138.204 48.2364Z" stroke="#9E00FF" stroke-width="0.6" stroke-miterlimit="10" stroke-linecap="round" stroke-linejoin="round"/>
<path d="M137.085 41.6783L138.205 48.2358L129.499 39.5709L128.547 33.9928L137.085 41.6783Z" stroke="#9E00FF" stroke-width="0.6" stroke-miterlimit="10" stroke-linecap="round" stroke-linejoin="round"/>
<path d="M133.773 35.3724L137.085 41.6787L128.547 33.9931L125.732 28.6317L133.773 35.3724Z" stroke="#9E00FF" stroke-width="0.6" stroke-miterlimit="10" stroke-linecap="round" stroke-linejoin="round"/>
<path d="M128.395 29.5619L133.773 35.3716L125.731 28.632L121.158 23.6888L128.395 29.5619Z" stroke="#9E00FF" stroke-width="0.6" stroke-miterlimit="10" stroke-linecap="round" stroke-linejoin="round"/>
<path d="M38.8455 23.689L45.0036 19.3588L52.5002 16.5818L47.6668 19.9821L38.8455 23.689Z" stroke="#9E00FF" stroke-width="0.6" stroke-miterlimit="10" stroke-linecap="round" stroke-linejoin="round"/>
<path d="M34.2729 28.6318L38.846 23.6886L47.6673 19.9818L44.0699 23.8672L34.2729 28.6318Z" stroke="#9E00FF" stroke-width="0.6" stroke-miterlimit="10" stroke-linecap="round" stroke-linejoin="round"/>
<path d="M31.4539 33.9932L34.2726 28.6317L44.0696 23.8671L41.8579 28.0786L31.4539 33.9932Z" stroke="#9E00FF" stroke-width="0.6" stroke-miterlimit="10" stroke-linecap="round" stroke-linejoin="round"/>
<path d="M30.5044 39.5713L31.4536 33.9932L41.8576 28.0787L41.1112 32.463L30.5044 39.5713Z" stroke="#9E00FF" stroke-width="0.6" stroke-miterlimit="10" stroke-linecap="round" stroke-linejoin="round"/>
<path d="M31.4538 45.1489L30.5046 39.5708L41.1114 32.4626L41.8578 36.8434L31.4538 45.1489Z" stroke="#9E00FF" stroke-width="0.6" stroke-miterlimit="10" stroke-linecap="round" stroke-linejoin="round"/>
<path d="M34.2728 50.5103L31.4541 45.1488L41.8581 36.8445L44.0698 41.0548L34.2728 50.5103Z" stroke="#9E00FF" stroke-width="0.6" stroke-miterlimit="10" stroke-linecap="round" stroke-linejoin="round"/>
<path d="M38.8455 55.4526L34.2725 50.5094L44.0694 41.054L47.6669 44.9394L38.8455 55.4526Z" stroke="#9E00FF" stroke-width="0.6" stroke-miterlimit="10" stroke-linecap="round" stroke-linejoin="round"/>
<path d="M45.0033 59.7832L38.8452 55.453L47.6677 44.9398L52.4999 48.3447L45.0033 59.7832Z" stroke="#9E00FF" stroke-width="0.6" stroke-miterlimit="10" stroke-linecap="round" stroke-linejoin="round"/>
<path d="M52.4998 63.3389L45.0032 59.783L52.4998 48.3445L58.393 51.1376L52.4998 63.3389Z" stroke="#9E00FF" stroke-width="0.6" stroke-miterlimit="10" stroke-linecap="round" stroke-linejoin="round"/>
<path d="M61.0582 65.9814L52.4995 63.3393L58.3938 51.138L65.1198 53.2098L61.0582 65.9814Z" stroke="#9E00FF" stroke-width="0.6" stroke-miterlimit="10" stroke-linecap="round" stroke-linejoin="round"/>
<path d="M70.3443 67.6084L61.0576 65.9814L65.1204 53.2098L72.4154 54.4888L70.3443 67.6084Z" stroke="#9E00FF" stroke-width="0.6" stroke-miterlimit="10" stroke-linecap="round" stroke-linejoin="round"/>
<path d="M80.0016 68.1577L70.344 67.6081L72.4151 54.4885L80.0016 54.9217V68.1577Z" stroke="#9E00FF" stroke-width="0.6" stroke-miterlimit="10" stroke-linecap="round" stroke-linejoin="round"/>
<path d="M89.6556 67.6081L80.0015 68.1577V54.9217L87.5879 54.4885L89.6556 67.6081Z" stroke="#9E00FF" stroke-width="0.6" stroke-miterlimit="10" stroke-linecap="round" stroke-linejoin="round"/>
<path d="M98.9416 65.9809L89.6549 67.6079L87.5884 54.4883L94.8834 53.2093L98.9416 65.9809Z" stroke="#9E00FF" stroke-width="0.6" stroke-miterlimit="10" stroke-linecap="round" stroke-linejoin="round"/>
<path d="M107.5 63.3393L98.9412 65.9814L94.8831 53.2098L101.607 51.138L107.5 63.3393Z" stroke="#9E00FF" stroke-width="0.6" stroke-miterlimit="10" stroke-linecap="round" stroke-linejoin="round"/>
<path d="M115.001 59.783L107.5 63.3389L101.607 51.1376L107.5 48.3445L115.001 59.783Z" stroke="#9E00FF" stroke-width="0.6" stroke-miterlimit="10" stroke-linecap="round" stroke-linejoin="round"/>
<path d="M121.158 55.453L115.001 59.7832L107.501 48.3447L112.338 44.9398L121.158 55.453Z" stroke="#9E00FF" stroke-width="0.6" stroke-miterlimit="10" stroke-linecap="round" stroke-linejoin="round"/>
<path d="M125.732 50.5099L121.157 55.4531L112.337 44.9399L115.93 41.0545L125.732 50.5099Z" stroke="#9E00FF" stroke-width="0.6" stroke-miterlimit="10" stroke-linecap="round" stroke-linejoin="round"/>
<path d="M128.547 45.1488L125.732 50.5103L115.93 41.0548L118.145 36.8433L128.547 45.1488Z" stroke="#9E00FF" stroke-width="0.6" stroke-miterlimit="10" stroke-linecap="round" stroke-linejoin="round"/>
<path d="M129.499 39.5713L128.547 45.1494L118.146 36.8439L118.893 32.463L129.499 39.5713Z" stroke="#9E00FF" stroke-width="0.6" stroke-miterlimit="10" stroke-linecap="round" stroke-linejoin="round"/>
<path d="M128.547 33.9932L129.499 39.5713L118.893 32.463L118.146 28.0787L128.547 33.9932Z" stroke="#9E00FF" stroke-width="0.6" stroke-miterlimit="10" stroke-linecap="round" stroke-linejoin="round"/>
<path d="M125.732 28.6317L128.547 33.9932L118.145 28.0786L115.93 23.8671L125.732 28.6317Z" stroke="#9E00FF" stroke-width="0.6" stroke-miterlimit="10" stroke-linecap="round" stroke-linejoin="round"/>
<path d="M121.158 23.6891L125.732 28.6323L115.93 23.8677L112.337 19.9823L121.158 23.6891Z" stroke="#9E00FF" stroke-width="0.6" stroke-miterlimit="10" stroke-linecap="round" stroke-linejoin="round"/>
<path d="M115.001 19.3583L121.158 23.6885L112.337 19.9817L107.5 16.5813L115.001 19.3583Z" stroke="#9E00FF" stroke-width="0.6" stroke-miterlimit="10" stroke-linecap="round" stroke-linejoin="round"/>
<path d="M107.5 15.803L115.001 19.3589L107.5 16.5819L101.607 13.7877L107.5 15.803Z" stroke="#9E00FF" stroke-width="0.6" stroke-miterlimit="10" stroke-linecap="round" stroke-linejoin="round"/>
<path d="M45.0034 19.3589L52.5 15.803L58.3932 13.7889L52.5 16.5819L45.0034 19.3589Z" stroke="#9E00FF" stroke-width="0.6" stroke-miterlimit="10" stroke-linecap="round" stroke-linejoin="round"/>
<path d="M47.667 19.9819L52.4992 16.5816L61.0579 16.2405L57.7266 18.5842L47.667 19.9819Z" stroke="#9E00FF" stroke-width="0.6" stroke-miterlimit="10" stroke-linecap="round" stroke-linejoin="round"/>
<path d="M44.0698 23.8677L47.6672 19.9823L57.7269 18.5846L55.2537 21.2567L44.0698 23.8677Z" stroke="#9E00FF" stroke-width="0.6" stroke-miterlimit="10" stroke-linecap="round" stroke-linejoin="round"/>
<path d="M41.8582 28.0786L44.0698 23.8683L55.2537 21.2572L53.7286 24.1586L41.8582 28.0786Z" stroke="#9E00FF" stroke-width="0.6" stroke-miterlimit="10" stroke-linecap="round" stroke-linejoin="round"/>
<path d="M41.1113 32.4629L41.8578 28.0785L53.7282 24.1574L53.2133 27.1798L41.1113 32.4629Z" stroke="#9E00FF" stroke-width="0.6" stroke-miterlimit="10" stroke-linecap="round" stroke-linejoin="round"/>
<path d="M41.858 36.8438L41.1116 32.4629L53.2124 27.1798L53.7284 30.1964L41.858 36.8438Z" stroke="#9E00FF" stroke-width="0.6" stroke-miterlimit="10" stroke-linecap="round" stroke-linejoin="round"/>
<path d="M44.0698 41.0547L41.8582 36.8443L53.7286 30.1969L55.2537 33.0983L44.0698 41.0547Z" stroke="#9E00FF" stroke-width="0.6" stroke-miterlimit="10" stroke-linecap="round" stroke-linejoin="round"/>
<path d="M47.6672 44.9404L44.0698 41.055L55.2537 33.0987L57.7269 35.7754L47.6672 44.9404Z" stroke="#9E00FF" stroke-width="0.6" stroke-miterlimit="10" stroke-linecap="round" stroke-linejoin="round"/>
<path d="M52.4997 48.3447L47.6675 44.9398L57.7271 35.7747L61.0584 38.1184L52.4997 48.3447Z" stroke="#9E00FF" stroke-width="0.6" stroke-miterlimit="10" stroke-linecap="round" stroke-linejoin="round"/>
<path d="M58.3932 51.1372L52.5 48.3441L61.0575 38.1178L65.1203 40.0398L58.3932 51.1372Z" stroke="#9E00FF" stroke-width="0.6" stroke-miterlimit="10" stroke-linecap="round" stroke-linejoin="round"/>
<path d="M65.1202 53.2095L58.3931 51.1377L65.1202 40.0392L69.752 41.4726L65.1202 53.2095Z" stroke="#9E00FF" stroke-width="0.6" stroke-miterlimit="10" stroke-linecap="round" stroke-linejoin="round"/>
<path d="M72.4152 54.4888L65.1201 53.2098L69.7508 41.474L74.7743 42.352L72.4152 54.4888Z" stroke="#9E00FF" stroke-width="0.6" stroke-miterlimit="10" stroke-linecap="round" stroke-linejoin="round"/>
<path d="M80.0015 54.9224L72.415 54.4891L74.7741 42.3524L80.0015 42.6508V54.9224Z" stroke="#9E00FF" stroke-width="0.6" stroke-miterlimit="10" stroke-linecap="round" stroke-linejoin="round"/>
<path d="M87.5882 54.4881L80.0017 54.9214V42.651L85.2256 42.3514L87.5882 54.4881Z" stroke="#9E00FF" stroke-width="0.6" stroke-miterlimit="10" stroke-linecap="round" stroke-linejoin="round"/>
<path d="M94.8832 53.2098L87.5881 54.4888L85.2256 42.352L90.2514 41.4729L94.8832 53.2098Z" stroke="#9E00FF" stroke-width="0.6" stroke-miterlimit="10" stroke-linecap="round" stroke-linejoin="round"/>
<path d="M101.607 51.1372L94.8831 53.209L90.2524 41.4732L94.8831 40.0398L101.607 51.1372Z" stroke="#9E00FF" stroke-width="0.6" stroke-miterlimit="10" stroke-linecap="round" stroke-linejoin="round"/>
<path d="M107.5 48.3446L101.607 51.1377L94.8831 40.0391L98.9412 38.1183L107.5 48.3446Z" stroke="#9E00FF" stroke-width="0.6" stroke-miterlimit="10" stroke-linecap="round" stroke-linejoin="round"/>
<path d="M112.337 44.9403L107.5 48.3452L98.9417 38.1189L102.276 35.7752L112.337 44.9403Z" stroke="#9E00FF" stroke-width="0.6" stroke-miterlimit="10" stroke-linecap="round" stroke-linejoin="round"/>
<path d="M115.93 41.0545L112.338 44.9399L102.276 35.7749L104.751 33.0982L115.93 41.0545Z" stroke="#9E00FF" stroke-width="0.6" stroke-miterlimit="10" stroke-linecap="round" stroke-linejoin="round"/>
<path d="M118.145 36.8438L115.93 41.0542L104.75 33.099L106.276 30.1965L118.145 36.8438Z" stroke="#9E00FF" stroke-width="0.6" stroke-miterlimit="10" stroke-linecap="round" stroke-linejoin="round"/>
<path d="M118.893 32.4629L118.145 36.8438L106.276 30.1975L106.788 27.1798L118.893 32.4629Z" stroke="#9E00FF" stroke-width="0.6" stroke-miterlimit="10" stroke-linecap="round" stroke-linejoin="round"/>
<path d="M118.145 28.0785L118.893 32.4629L106.788 27.1798L106.276 24.1586L118.145 28.0785Z" stroke="#9E00FF" stroke-width="0.6" stroke-miterlimit="10" stroke-linecap="round" stroke-linejoin="round"/>
<path d="M115.93 23.8678L118.145 28.0781L106.276 24.1581L104.751 21.2568L115.93 23.8678Z" stroke="#9E00FF" stroke-width="0.6" stroke-miterlimit="10" stroke-linecap="round" stroke-linejoin="round"/>
<path d="M112.337 19.9823L115.93 23.8677L104.751 21.2567L102.276 18.5846L112.337 19.9823Z" stroke="#9E00FF" stroke-width="0.6" stroke-miterlimit="10" stroke-linecap="round" stroke-linejoin="round"/>
<path d="M107.5 16.5816L112.337 19.9819L102.276 18.5842L98.9414 16.2405L107.5 16.5816Z" stroke="#9E00FF" stroke-width="0.6" stroke-miterlimit="10" stroke-linecap="round" stroke-linejoin="round"/>
<path d="M101.607 13.7885L107.5 16.5815L98.9421 16.2405L94.8828 14.3162L101.607 13.7885Z" stroke="#9E00FF" stroke-width="0.6" stroke-miterlimit="10" stroke-linecap="round" stroke-linejoin="round"/>
<path d="M94.883 11.712L101.607 13.7884L94.883 14.3149L90.2512 12.8861L94.883 11.712Z" stroke="#9E00FF" stroke-width="0.6" stroke-miterlimit="10" stroke-linecap="round" stroke-linejoin="round"/>
<path d="M87.5882 10.4337L94.8832 11.7116L90.2525 12.8857L85.2256 12.0066L87.5882 10.4337Z" stroke="#9E00FF" stroke-width="0.6" stroke-miterlimit="10" stroke-linecap="round" stroke-linejoin="round"/>
<path d="M80.0017 10.0001L87.5882 10.4333L85.2256 12.0073L80.0017 11.7077V10.0001Z" stroke="#9E00FF" stroke-width="0.6" stroke-miterlimit="10" stroke-linecap="round" stroke-linejoin="round"/>
<path d="M72.4153 10.4335L80.0018 10.0003V11.7079L74.7744 12.0063L72.4153 10.4335Z" stroke="#9E00FF" stroke-width="0.6" stroke-miterlimit="10" stroke-linecap="round" stroke-linejoin="round"/>
<path d="M65.1201 11.7121L72.4152 10.4342L74.7743 12.0071L69.7519 12.8862L65.1201 11.7121Z" stroke="#9E00FF" stroke-width="0.6" stroke-miterlimit="10" stroke-linecap="round" stroke-linejoin="round"/>
<path d="M58.3933 13.7882L65.1205 11.7118L69.7511 12.886L65.1205 14.3159L58.3933 13.7882Z" stroke="#9E00FF" stroke-width="0.6" stroke-miterlimit="10" stroke-linecap="round" stroke-linejoin="round"/>
<path d="M52.4998 16.5815L58.3929 13.7885L65.1201 14.315L61.0584 16.2405L52.4998 16.5815Z" stroke="#9E00FF" stroke-width="0.6" stroke-miterlimit="10" stroke-linecap="round" stroke-linejoin="round"/>
<path d="M57.7271 18.5836L61.0584 16.2399L70.3439 18.3474L68.6471 19.5435L57.7271 18.5836Z" stroke="#9E00FF" stroke-width="0.6" stroke-miterlimit="10" stroke-linecap="round" stroke-linejoin="round"/>
<path d="M55.2534 21.2568L57.7266 18.5836L68.6478 19.5446L67.3853 20.9077L55.2534 21.2568Z" stroke="#9E00FF" stroke-width="0.6" stroke-miterlimit="10" stroke-linecap="round" stroke-linejoin="round"/>
<path d="M53.728 24.1577L55.2532 21.2563L67.3851 20.9083L66.6075 22.3878L53.728 24.1577Z" stroke="#9E00FF" stroke-width="0.6" stroke-miterlimit="10" stroke-linecap="round" stroke-linejoin="round"/>
<path d="M53.2129 27.1797L53.7278 24.1573L66.6073 22.3874L66.3435 23.9257L53.2129 27.1797Z" stroke="#9E00FF" stroke-width="0.6" stroke-miterlimit="10" stroke-linecap="round" stroke-linejoin="round"/>
<path d="M53.728 30.1973L53.2131 27.1795L66.3437 23.9255L66.6075 25.4638L53.728 30.1973Z" stroke="#9E00FF" stroke-width="0.6" stroke-miterlimit="10" stroke-linecap="round" stroke-linejoin="round"/>
<path d="M55.2534 33.0986L53.7283 30.1972L66.6066 25.4638L67.3853 26.9433L55.2534 33.0986Z" stroke="#9E00FF" stroke-width="0.6" stroke-miterlimit="10" stroke-linecap="round" stroke-linejoin="round"/>
<path d="M57.7273 35.7749L55.2542 33.0982L67.386 26.9428L68.6474 28.3071L57.7273 35.7749Z" stroke="#9E00FF" stroke-width="0.6" stroke-miterlimit="10" stroke-linecap="round" stroke-linejoin="round"/>
<path d="M61.0581 38.1182L57.7268 35.7745L68.6481 28.3067L70.3448 29.4993L61.0581 38.1182Z" stroke="#9E00FF" stroke-width="0.6" stroke-miterlimit="10" stroke-linecap="round" stroke-linejoin="round"/>
<path d="M65.1202 40.0396L61.0586 38.1187L70.3441 29.4998L72.4153 30.4839L65.1202 40.0396Z" stroke="#9E00FF" stroke-width="0.6" stroke-miterlimit="10" stroke-linecap="round" stroke-linejoin="round"/>
<path d="M69.7515 41.4736L65.1196 40.0402L72.4158 30.4834L74.7738 31.2128L69.7515 41.4736Z" stroke="#9E00FF" stroke-width="0.6" stroke-miterlimit="10" stroke-linecap="round" stroke-linejoin="round"/>
<path d="M74.774 42.3521L69.7517 41.4729L74.774 31.212L77.3382 31.6614L74.774 42.3521Z" stroke="#9E00FF" stroke-width="0.6" stroke-miterlimit="10" stroke-linecap="round" stroke-linejoin="round"/>
<path d="M80.0015 42.6509L74.7742 42.3524L77.3372 31.6606L80.0015 31.8127V42.6509Z" stroke="#9E00FF" stroke-width="0.6" stroke-miterlimit="10" stroke-linecap="round" stroke-linejoin="round"/>
<path d="M85.2259 42.352L80.002 42.6504V31.8122L82.6663 31.6613L85.2259 42.352Z" stroke="#9E00FF" stroke-width="0.6" stroke-miterlimit="10" stroke-linecap="round" stroke-linejoin="round"/>
<path d="M90.2518 41.4734L85.226 42.3525L82.6665 31.6607L85.226 31.2125L90.2518 41.4734Z" stroke="#9E00FF" stroke-width="0.6" stroke-miterlimit="10" stroke-linecap="round" stroke-linejoin="round"/>
<path d="M94.8832 40.0397L90.2514 41.4731L85.2256 31.2123L87.5881 30.484L94.8832 40.0397Z" stroke="#9E00FF" stroke-width="0.6" stroke-miterlimit="10" stroke-linecap="round" stroke-linejoin="round"/>
<path d="M98.9416 38.1182L94.8834 40.0391L87.5884 30.4834L89.6549 29.4993L98.9416 38.1182Z" stroke="#9E00FF" stroke-width="0.6" stroke-miterlimit="10" stroke-linecap="round" stroke-linejoin="round"/>
<path d="M102.276 35.775L98.9413 38.1187L89.6558 29.4998L91.3571 28.3072L102.276 35.775Z" stroke="#9E00FF" stroke-width="0.6" stroke-miterlimit="10" stroke-linecap="round" stroke-linejoin="round"/>
<path d="M104.751 33.0982L102.277 35.7749L91.3564 28.306L92.6189 26.9428L104.751 33.0982Z" stroke="#9E00FF" stroke-width="0.6" stroke-miterlimit="10" stroke-linecap="round" stroke-linejoin="round"/>
<path d="M106.276 30.1972L104.751 33.0986L92.6191 26.9433L93.3955 25.4638L106.276 30.1972Z" stroke="#9E00FF" stroke-width="0.6" stroke-miterlimit="10" stroke-linecap="round" stroke-linejoin="round"/>
<path d="M106.788 27.18L106.277 30.1978L93.396 25.4631L93.6563 23.926L106.788 27.18Z" stroke="#9E00FF" stroke-width="0.6" stroke-miterlimit="10" stroke-linecap="round" stroke-linejoin="round"/>
<path d="M106.276 24.1583L106.788 27.1807L93.6558 23.9255L93.3955 22.3884L106.276 24.1583Z" stroke="#9E00FF" stroke-width="0.6" stroke-miterlimit="10" stroke-linecap="round" stroke-linejoin="round"/>
<path d="M104.751 21.2568L106.276 24.1582L93.3964 22.3872L92.6189 20.9077L104.751 21.2568Z" stroke="#9E00FF" stroke-width="0.6" stroke-miterlimit="10" stroke-linecap="round" stroke-linejoin="round"/>
<path d="M102.276 18.5841L104.75 21.2573L92.6183 20.9082L91.3569 19.5439L102.276 18.5841Z" stroke="#9E00FF" stroke-width="0.6" stroke-miterlimit="10" stroke-linecap="round" stroke-linejoin="round"/>
<path d="M98.9417 16.2404L102.276 18.5841L91.3564 19.5439L89.655 18.3479L98.9417 16.2404Z" stroke="#9E00FF" stroke-width="0.6" stroke-miterlimit="10" stroke-linecap="round" stroke-linejoin="round"/>
<path d="M94.8832 14.3152L98.9413 16.2407L89.6558 18.3481L87.5881 17.3676L94.8832 14.3152Z" stroke="#9E00FF" stroke-width="0.6" stroke-miterlimit="10" stroke-linecap="round" stroke-linejoin="round"/>
<path d="M90.2519 12.8859L94.8837 14.3158L87.5875 17.3682L85.2261 16.6399L90.2519 12.8859Z" stroke="#9E00FF" stroke-width="0.6" stroke-miterlimit="10" stroke-linecap="round" stroke-linejoin="round"/>
<path d="M85.2258 12.0069L90.2516 12.8861L85.2258 16.6401L82.6663 16.1896L85.2258 12.0069Z" stroke="#9E00FF" stroke-width="0.6" stroke-miterlimit="10" stroke-linecap="round" stroke-linejoin="round"/>
<path d="M80.0017 11.7081L85.2256 12.0066L82.6661 16.1904L80.0017 16.0395V11.7081Z" stroke="#9E00FF" stroke-width="0.6" stroke-miterlimit="10" stroke-linecap="round" stroke-linejoin="round"/>
<path d="M74.7742 12.0068L80.0015 11.7083V16.0397L77.3383 16.1895L74.7742 12.0068Z" stroke="#9E00FF" stroke-width="0.6" stroke-miterlimit="10" stroke-linecap="round" stroke-linejoin="round"/>
<path d="M69.7515 12.8856L74.7738 12.0064L77.3379 16.1903L74.7738 16.6396L69.7515 12.8856Z" stroke="#9E00FF" stroke-width="0.6" stroke-miterlimit="10" stroke-linecap="round" stroke-linejoin="round"/>
<path d="M65.1201 14.3153L69.7519 12.8854L74.7743 16.6394L72.4152 17.3677L65.1201 14.3153Z" stroke="#9E00FF" stroke-width="0.6" stroke-miterlimit="10" stroke-linecap="round" stroke-linejoin="round"/>
<path d="M61.0581 16.2407L65.1197 14.3152L72.4148 17.3676L70.3448 18.3481L61.0581 16.2407Z" stroke="#9E00FF" stroke-width="0.6" stroke-miterlimit="10" stroke-linecap="round" stroke-linejoin="round"/>
<path d="M68.6479 19.5445L70.3447 18.3473L80.0012 22.8262L68.6479 19.5445Z" stroke="#9E00FF" stroke-width="0.6" stroke-miterlimit="10" stroke-linecap="round" stroke-linejoin="round"/>
<path d="M67.3857 20.9083L68.6482 19.544L80.0014 22.8257L67.3857 20.9083Z" stroke="#9E00FF" stroke-width="0.6" stroke-miterlimit="10" stroke-linecap="round" stroke-linejoin="round"/>
<path d="M66.6074 22.3878L67.3861 20.9083L80.0018 22.8257L66.6074 22.3878Z" stroke="#9E00FF" stroke-width="0.6" stroke-miterlimit="10" stroke-linecap="round" stroke-linejoin="round"/>
<path d="M66.344 23.9253L66.6078 22.3882L80.001 22.8249L66.344 23.9253Z" stroke="#9E00FF" stroke-width="0.6" stroke-miterlimit="10" stroke-linecap="round" stroke-linejoin="round"/>
<path d="M66.6073 25.4629L66.3435 23.9258L80.0017 22.8254L66.6073 25.4629Z" stroke="#9E00FF" stroke-width="0.6" stroke-miterlimit="10" stroke-linecap="round" stroke-linejoin="round"/>
<path d="M67.3859 26.9434L66.6072 25.4627L80.0016 22.8252L67.3859 26.9434Z" stroke="#9E00FF" stroke-width="0.6" stroke-miterlimit="10" stroke-linecap="round" stroke-linejoin="round"/>
<path d="M68.6477 28.3066L67.3853 26.9435L80.001 22.8253L68.6477 28.3066Z" stroke="#9E00FF" stroke-width="0.6" stroke-miterlimit="10" stroke-linecap="round" stroke-linejoin="round"/>
<path d="M70.3442 29.4995L68.6475 28.3069L80.0018 22.8256L70.3442 29.4995Z" stroke="#9E00FF" stroke-width="0.6" stroke-miterlimit="10" stroke-linecap="round" stroke-linejoin="round"/>
<path d="M72.4151 30.4834L70.344 29.4994L80.0016 22.8255L72.4151 30.4834Z" stroke="#9E00FF" stroke-width="0.6" stroke-miterlimit="10" stroke-linecap="round" stroke-linejoin="round"/>
<path d="M74.7741 31.2124L72.415 30.4842L80.0015 22.8263L74.7741 31.2124Z" stroke="#9E00FF" stroke-width="0.6" stroke-miterlimit="10" stroke-linecap="round" stroke-linejoin="round"/>
<path d="M77.3376 31.6611L74.7734 31.2118L80.0019 22.8256L77.3376 31.6611Z" stroke="#9E00FF" stroke-width="0.6" stroke-miterlimit="10" stroke-linecap="round" stroke-linejoin="round"/>
<path d="M80.0026 31.8125L77.3374 31.6616L80.0026 22.826V31.8125Z" stroke="#9E00FF" stroke-width="0.6" stroke-miterlimit="10" stroke-linecap="round" stroke-linejoin="round"/>
<path d="M82.6671 31.6611L80.002 31.812V22.8255L82.6671 31.6611Z" stroke="#9E00FF" stroke-width="0.6" stroke-miterlimit="10" stroke-linecap="round" stroke-linejoin="round"/>
<path d="M85.2259 31.2118L82.6663 31.6611L80.002 22.8256L85.2259 31.2118Z" stroke="#9E00FF" stroke-width="0.6" stroke-miterlimit="10" stroke-linecap="round" stroke-linejoin="round"/>
<path d="M87.5882 30.4832L85.2256 31.2114L80.0017 22.8253L87.5882 30.4832Z" stroke="#9E00FF" stroke-width="0.6" stroke-miterlimit="10" stroke-linecap="round" stroke-linejoin="round"/>
<path d="M89.6556 29.4994L87.5879 30.4834L80.0015 22.8255L89.6556 29.4994Z" stroke="#9E00FF" stroke-width="0.6" stroke-miterlimit="10" stroke-linecap="round" stroke-linejoin="round"/>
<path d="M91.3563 28.3064L89.6549 29.499L80.002 22.8251L91.3563 28.3064Z" stroke="#9E00FF" stroke-width="0.6" stroke-miterlimit="10" stroke-linecap="round" stroke-linejoin="round"/>
<path d="M92.6186 26.9435L91.3561 28.3066L80.0017 22.8253L92.6186 26.9435Z" stroke="#9E00FF" stroke-width="0.6" stroke-miterlimit="10" stroke-linecap="round" stroke-linejoin="round"/>
<path d="M93.3961 25.4632L92.6186 26.9438L80.0017 22.8257L93.3961 25.4632Z" stroke="#9E00FF" stroke-width="0.6" stroke-miterlimit="10" stroke-linecap="round" stroke-linejoin="round"/>
<path d="M93.6557 23.9253L93.3954 25.4624L80.001 22.8249L93.6557 23.9253Z" stroke="#9E00FF" stroke-width="0.6" stroke-miterlimit="10" stroke-linecap="round" stroke-linejoin="round"/>
<path d="M93.3961 22.3877L93.6564 23.9248L80.0017 22.8255L93.3961 22.3877Z" stroke="#9E00FF" stroke-width="0.6" stroke-miterlimit="10" stroke-linecap="round" stroke-linejoin="round"/>
<path d="M92.6186 20.9083L93.3961 22.3878L80.0017 22.8257L92.6186 20.9083Z" stroke="#9E00FF" stroke-width="0.6" stroke-miterlimit="10" stroke-linecap="round" stroke-linejoin="round"/>
<path d="M91.3563 19.5445L92.6188 20.9088L80.002 22.8262L91.3563 19.5445Z" stroke="#9E00FF" stroke-width="0.6" stroke-miterlimit="10" stroke-linecap="round" stroke-linejoin="round"/>
<path d="M89.6556 18.3475L91.357 19.5447L80.0015 22.8252L89.6556 18.3475Z" stroke="#9E00FF" stroke-width="0.6" stroke-miterlimit="10" stroke-linecap="round" stroke-linejoin="round"/>
<path d="M87.5882 17.3674L89.6559 18.348L80.0017 22.8257L87.5882 17.3674Z" stroke="#9E00FF" stroke-width="0.6" stroke-miterlimit="10" stroke-linecap="round" stroke-linejoin="round"/>
<path d="M85.2259 16.6397L87.5884 17.3679L80.002 22.8262L85.2259 16.6397Z" stroke="#9E00FF" stroke-width="0.6" stroke-miterlimit="10" stroke-linecap="round" stroke-linejoin="round"/>
<path d="M82.6663 16.1898L85.2259 16.6392L80.002 22.8257L82.6663 16.1898Z" stroke="#9E00FF" stroke-width="0.6" stroke-miterlimit="10" stroke-linecap="round" stroke-linejoin="round"/>
<path d="M80.0017 16.0394L82.6669 16.1903L80.0017 22.8262V16.0394Z" stroke="#9E00FF" stroke-width="0.6" stroke-miterlimit="10" stroke-linecap="round" stroke-linejoin="round"/>
<path d="M77.3376 16.1898L80.0028 16.0389V22.8257L77.3376 16.1898Z" stroke="#9E00FF" stroke-width="0.6" stroke-miterlimit="10" stroke-linecap="round" stroke-linejoin="round"/>
<path d="M74.7742 16.6397L77.3383 16.1903L80.0015 22.8262L74.7742 16.6397Z" stroke="#9E00FF" stroke-width="0.6" stroke-miterlimit="10" stroke-linecap="round" stroke-linejoin="round"/>
<path d="M72.4153 17.3674L74.7744 16.6392L80.0018 22.8257L72.4153 17.3674Z" stroke="#9E00FF" stroke-width="0.6" stroke-miterlimit="10" stroke-linecap="round" stroke-linejoin="round"/>
<path d="M70.3442 18.3475L72.4154 17.3669L80.0018 22.8252L70.3442 18.3475Z" stroke="#9E00FF" stroke-width="0.6" stroke-miterlimit="10" stroke-linecap="round" stroke-linejoin="round"/>
<path d="M52.4997 15.8025L45.003 19.3584L38.8449 23.6886L31.6075 29.5617L26.2292 35.3714L20.2508 43.8278L16.5728 50.8312L12.6644 61.1082L11.3477 68.8433L10 79.9995L11.3477 91.1522L12.6644 98.8873L16.5728 109.163L20.2508 116.171L26.2292 124.623L31.6075 130.437L38.8449 136.306L45.003 140.636L52.4997 144.193L58.3928 146.211L65.12 148.287L72.415 149.565L80.0015 149.995L87.5879 149.565L94.883 148.287L101.607 146.211L107.5 144.193L115.001 140.636L121.158 136.306L128.395 130.437L133.774 124.623L139.749 116.171L143.431 109.163L147.335 98.8873L148.656 91.1522L149.999 79.9995L148.656 68.8433L147.335 61.1082L143.431 50.8312L139.749 43.8278L133.774 35.3714L128.395 29.5617L121.158 23.6886L115.001 19.3584L107.5 15.8025L101.607 13.7872L94.883 11.712L87.5879 10.433L80.0015 9.99975L72.415 10.433L65.12 11.712L58.3928 13.7872L52.4997 15.8025Z" stroke="#9E00FF" stroke-width="1.4" stroke-miterlimit="10" stroke-linecap="round" stroke-linejoin="round"/>
</svg>
