<svg width="649" height="649" viewBox="0 0 649 649" fill="none" xmlns="http://www.w3.org/2000/svg">
<path d="M147.292 472.196L133.931 453.191L122.628 436.024L139.628 460.201L147.292 472.196Z" stroke="#3335F9" stroke-miterlimit="10" stroke-linecap="round" stroke-linejoin="round"/>
<path d="M163.749 490.263L147.293 472.195L139.629 460.2L160.574 483.2L163.749 490.263Z" stroke="#3335F9" stroke-miterlimit="10" stroke-linecap="round" stroke-linejoin="round"/>
<path d="M182.672 506.711L163.743 490.267L160.568 483.203L184.66 504.143L182.672 506.711Z" stroke="#3335F9" stroke-miterlimit="10" stroke-linecap="round" stroke-linejoin="round"/>
<path d="M203.341 520.908L182.676 506.707L184.661 504.142L210.966 522.203L203.341 520.908Z" stroke="#3335F9" stroke-miterlimit="10" stroke-linecap="round" stroke-linejoin="round"/>
<path d="M224.957 532.306L203.34 520.906L210.965 522.202L238.482 536.71L224.957 532.306Z" stroke="#3335F9" stroke-miterlimit="10" stroke-linecap="round" stroke-linejoin="round"/>
<path d="M246.698 540.466L224.959 532.305L238.487 536.712L266.152 547.104L246.698 540.466Z" stroke="#3335F9" stroke-miterlimit="10" stroke-linecap="round" stroke-linejoin="round"/>
<path d="M110.249 411.6L102.925 387.863L95.8913 357.931L104.491 385.839L110.249 411.6Z" stroke="#3335F9" stroke-miterlimit="10" stroke-linecap="round" stroke-linejoin="round"/>
<path d="M122.626 436.022L110.246 411.602L104.488 385.841L119.07 414.566L122.626 436.022Z" stroke="#3335F9" stroke-miterlimit="10" stroke-linecap="round" stroke-linejoin="round"/>
<path d="M139.624 460.2L122.624 436.022L119.067 414.566L139.043 442.99L139.624 460.2Z" stroke="#3335F9" stroke-miterlimit="10" stroke-linecap="round" stroke-linejoin="round"/>
<path d="M160.572 483.201L139.625 460.199L139.047 442.991L163.68 470.038L160.572 483.201Z" stroke="#3335F9" stroke-miterlimit="10" stroke-linecap="round" stroke-linejoin="round"/>
<path d="M184.662 504.141L160.572 483.198L163.681 470.04L192.009 494.648L184.662 504.141Z" stroke="#3335F9" stroke-miterlimit="10" stroke-linecap="round" stroke-linejoin="round"/>
<path d="M210.963 522.204L184.658 504.143L192.008 494.647L222.939 515.904L210.963 522.204Z" stroke="#3335F9" stroke-miterlimit="10" stroke-linecap="round" stroke-linejoin="round"/>
<path d="M238.485 536.714L210.965 522.203L222.94 515.903L255.3 532.967L238.485 536.714Z" stroke="#3335F9" stroke-miterlimit="10" stroke-linecap="round" stroke-linejoin="round"/>
<path d="M266.152 547.105L238.484 536.711L255.297 532.967L287.827 545.178L266.152 547.105Z" stroke="#3335F9" stroke-miterlimit="10" stroke-linecap="round" stroke-linejoin="round"/>
<path d="M292.909 552.975L266.152 547.104L287.825 545.179L319.287 552.087L292.909 552.975Z" stroke="#3335F9" stroke-miterlimit="10" stroke-linecap="round" stroke-linejoin="round"/>
<path d="M317.723 554.11L292.91 552.975L319.286 552.09L348.461 553.414L317.723 554.11Z" stroke="#3335F9" stroke-miterlimit="10" stroke-linecap="round" stroke-linejoin="round"/>
<path d="M95.8894 357.929L93.5979 331.894L95.0673 297.764L97.6263 326.689L95.8894 357.929Z" stroke="#3335F9" stroke-miterlimit="10" stroke-linecap="round" stroke-linejoin="round"/>
<path d="M104.491 385.837L95.8914 357.93L97.6306 326.687L107.189 357.697L104.491 385.837Z" stroke="#3335F9" stroke-miterlimit="10" stroke-linecap="round" stroke-linejoin="round"/>
<path d="M119.066 414.566L104.488 385.844L107.185 357.704L123.37 389.611L119.066 414.566Z" stroke="#3335F9" stroke-miterlimit="10" stroke-linecap="round" stroke-linejoin="round"/>
<path d="M139.045 442.991L119.068 414.567L123.372 389.612L145.586 421.206L139.045 442.991Z" stroke="#3335F9" stroke-miterlimit="10" stroke-linecap="round" stroke-linejoin="round"/>
<path d="M163.68 470.043L139.047 442.996L145.585 421.209L172.95 451.259L163.68 470.043Z" stroke="#3335F9" stroke-miterlimit="10" stroke-linecap="round" stroke-linejoin="round"/>
<path d="M192.009 494.646L163.681 470.038L172.951 451.254L204.425 478.605L192.009 494.646Z" stroke="#3335F9" stroke-miterlimit="10" stroke-linecap="round" stroke-linejoin="round"/>
<path d="M222.938 515.903L192.01 494.648L204.426 478.607L238.797 502.219L222.938 515.903Z" stroke="#3335F9" stroke-miterlimit="10" stroke-linecap="round" stroke-linejoin="round"/>
<path d="M255.3 532.966L222.943 515.904L238.8 502.218L274.752 521.173L255.3 532.966Z" stroke="#3335F9" stroke-miterlimit="10" stroke-linecap="round" stroke-linejoin="round"/>
<path d="M287.825 545.182L255.297 532.969L274.749 521.176L310.891 534.749L287.825 545.182Z" stroke="#3335F9" stroke-miterlimit="10" stroke-linecap="round" stroke-linejoin="round"/>
<path d="M319.287 552.088L287.83 545.18L310.894 534.75L345.855 542.423L319.287 552.088Z" stroke="#3335F9" stroke-miterlimit="10" stroke-linecap="round" stroke-linejoin="round"/>
<path d="M348.46 553.415L319.287 552.088L345.85 542.423L378.266 543.9L348.46 553.415Z" stroke="#3335F9" stroke-miterlimit="10" stroke-linecap="round" stroke-linejoin="round"/>
<path d="M374.241 549.1L348.463 553.41L378.269 543.895L406.903 539.113L374.241 549.1Z" stroke="#3335F9" stroke-miterlimit="10" stroke-linecap="round" stroke-linejoin="round"/>
<path d="M95.0666 297.764L99.6229 272.048L110.178 237.339L105.355 264.642L95.0666 297.764Z" stroke="#3335F9" stroke-miterlimit="10" stroke-linecap="round" stroke-linejoin="round"/>
<path d="M97.6295 326.691L95.0705 297.766L105.356 264.642L108.059 295.342L97.6295 326.691Z" stroke="#3335F9" stroke-miterlimit="10" stroke-linecap="round" stroke-linejoin="round"/>
<path d="M107.187 357.703L97.6289 326.693L108.059 295.344L118.208 328.268L107.187 357.703Z" stroke="#3335F9" stroke-miterlimit="10" stroke-linecap="round" stroke-linejoin="round"/>
<path d="M123.372 389.609L107.188 357.701L118.21 328.263L135.399 362.146L123.372 389.609Z" stroke="#3335F9" stroke-miterlimit="10" stroke-linecap="round" stroke-linejoin="round"/>
<path d="M145.585 421.202L123.37 389.608L135.4 362.142L158.973 395.681L145.585 421.202Z" stroke="#3335F9" stroke-miterlimit="10" stroke-linecap="round" stroke-linejoin="round"/>
<path d="M172.953 451.255L145.588 421.205L158.979 395.681L188.031 427.576L172.953 451.255Z" stroke="#3335F9" stroke-miterlimit="10" stroke-linecap="round" stroke-linejoin="round"/>
<path d="M204.428 478.607L172.954 451.257L188.032 427.578L221.444 456.621L204.428 478.607Z" stroke="#3335F9" stroke-miterlimit="10" stroke-linecap="round" stroke-linejoin="round"/>
<path d="M238.797 502.22L204.426 478.607L221.44 456.624L257.936 481.684L238.797 502.22Z" stroke="#3335F9" stroke-miterlimit="10" stroke-linecap="round" stroke-linejoin="round"/>
<path d="M274.751 521.174L238.799 502.219L257.935 481.686L296.099 501.814L274.751 521.174Z" stroke="#3335F9" stroke-miterlimit="10" stroke-linecap="round" stroke-linejoin="round"/>
<path d="M310.893 534.749L274.75 521.176L296.098 501.816L334.472 516.227L310.893 534.749Z" stroke="#3335F9" stroke-miterlimit="10" stroke-linecap="round" stroke-linejoin="round"/>
<path d="M345.851 542.422L310.893 534.746L334.472 516.224L371.573 524.366L345.851 542.422Z" stroke="#3335F9" stroke-miterlimit="10" stroke-linecap="round" stroke-linejoin="round"/>
<path d="M378.269 543.899L345.855 542.424L371.578 524.368L405.992 525.934L378.269 543.899Z" stroke="#3335F9" stroke-miterlimit="10" stroke-linecap="round" stroke-linejoin="round"/>
<path d="M406.901 539.116L378.268 543.898L405.988 525.932L436.397 520.86L406.901 539.116Z" stroke="#3335F9" stroke-miterlimit="10" stroke-linecap="round" stroke-linejoin="round"/>
<path d="M430.665 528.267L406.9 539.117L436.399 520.859L461.606 509.337L430.665 528.267Z" stroke="#3335F9" stroke-miterlimit="10" stroke-linecap="round" stroke-linejoin="round"/>
<path d="M110.181 237.34L122.367 214.495L141.374 182.669L128.963 205.974L110.181 237.34Z" stroke="#3335F9" stroke-miterlimit="10" stroke-linecap="round" stroke-linejoin="round"/>
<path d="M105.357 264.641L110.18 237.338L128.965 205.974L124.033 233.803L105.357 264.641Z" stroke="#3335F9" stroke-miterlimit="10" stroke-linecap="round" stroke-linejoin="round"/>
<path d="M108.059 295.342L105.355 264.641L124.031 233.804L126.803 265.106L108.059 295.342Z" stroke="#3335F9" stroke-miterlimit="10" stroke-linecap="round" stroke-linejoin="round"/>
<path d="M118.209 328.265L108.061 295.34L126.805 265.104L137.155 298.669L118.209 328.265Z" stroke="#3335F9" stroke-miterlimit="10" stroke-linecap="round" stroke-linejoin="round"/>
<path d="M135.4 362.145L118.209 328.266L137.154 298.67L154.676 333.215L135.4 362.145Z" stroke="#3335F9" stroke-miterlimit="10" stroke-linecap="round" stroke-linejoin="round"/>
<path d="M158.975 395.684L135.399 362.147L154.676 333.217L178.707 367.414L158.975 395.684Z" stroke="#3335F9" stroke-miterlimit="10" stroke-linecap="round" stroke-linejoin="round"/>
<path d="M188.027 427.578L158.972 395.681L178.704 367.411L208.323 399.933L188.027 427.578Z" stroke="#3335F9" stroke-miterlimit="10" stroke-linecap="round" stroke-linejoin="round"/>
<path d="M221.441 456.62L188.029 427.577L208.328 399.934L242.4 429.541L221.441 456.62Z" stroke="#3335F9" stroke-miterlimit="10" stroke-linecap="round" stroke-linejoin="round"/>
<path d="M257.935 481.683L221.441 456.621L242.4 429.541L279.599 455.096L257.935 481.683Z" stroke="#3335F9" stroke-miterlimit="10" stroke-linecap="round" stroke-linejoin="round"/>
<path d="M296.1 501.812L257.934 481.682L279.598 455.095L318.51 475.615L296.1 501.812Z" stroke="#3335F9" stroke-miterlimit="10" stroke-linecap="round" stroke-linejoin="round"/>
<path d="M334.473 516.223L296.1 501.812L318.513 475.618L357.649 490.311L334.473 516.223Z" stroke="#3335F9" stroke-miterlimit="10" stroke-linecap="round" stroke-linejoin="round"/>
<path d="M371.576 524.365L334.475 516.223L357.65 490.31L395.481 498.608L371.576 524.365Z" stroke="#3335F9" stroke-miterlimit="10" stroke-linecap="round" stroke-linejoin="round"/>
<path d="M405.99 525.932L371.576 524.365L395.481 498.609L430.569 500.211L405.99 525.932Z" stroke="#3335F9" stroke-miterlimit="10" stroke-linecap="round" stroke-linejoin="round"/>
<path d="M436.402 520.858L405.992 525.93L430.569 500.212L461.559 495.037L436.402 520.858Z" stroke="#3335F9" stroke-miterlimit="10" stroke-linecap="round" stroke-linejoin="round"/>
<path d="M461.608 509.335L436.398 520.859L461.555 495.038L487.271 483.295L461.608 509.335Z" stroke="#3335F9" stroke-miterlimit="10" stroke-linecap="round" stroke-linejoin="round"/>
<path d="M480.68 491.816L461.611 509.334L487.275 483.295L506.711 465.426L480.68 491.816Z" stroke="#3335F9" stroke-miterlimit="10" stroke-linecap="round" stroke-linejoin="round"/>
<path d="M128.965 205.977L141.377 182.672L167.425 156.286L155.239 179.131L128.965 205.977Z" stroke="#3335F9" stroke-miterlimit="10" stroke-linecap="round" stroke-linejoin="round"/>
<path d="M124.034 233.804L128.966 205.975L155.236 179.125L150.413 206.428L124.034 233.804Z" stroke="#3335F9" stroke-miterlimit="10" stroke-linecap="round" stroke-linejoin="round"/>
<path d="M126.802 265.107L124.03 233.806L150.412 206.427L153.115 237.128L126.802 265.107Z" stroke="#3335F9" stroke-miterlimit="10" stroke-linecap="round" stroke-linejoin="round"/>
<path d="M137.152 298.67L126.803 265.105L153.116 237.125L163.265 270.049L137.152 298.67Z" stroke="#3335F9" stroke-miterlimit="10" stroke-linecap="round" stroke-linejoin="round"/>
<path d="M154.675 333.218L137.152 298.673L163.264 270.053L180.453 303.935L154.675 333.218Z" stroke="#3335F9" stroke-miterlimit="10" stroke-linecap="round" stroke-linejoin="round"/>
<path d="M178.705 367.411L154.675 333.215L180.456 303.934L204.029 337.469L178.705 367.411Z" stroke="#3335F9" stroke-miterlimit="10" stroke-linecap="round" stroke-linejoin="round"/>
<path d="M208.327 399.936L178.71 367.411L204.031 337.472L233.079 369.378L208.327 399.936Z" stroke="#3335F9" stroke-miterlimit="10" stroke-linecap="round" stroke-linejoin="round"/>
<path d="M242.4 429.542L208.326 399.938L233.077 369.375L266.496 398.409L242.4 429.542Z" stroke="#3335F9" stroke-miterlimit="10" stroke-linecap="round" stroke-linejoin="round"/>
<path d="M279.597 455.099L242.4 429.541L266.497 398.408L302.981 423.482L279.597 455.099Z" stroke="#3335F9" stroke-miterlimit="10" stroke-linecap="round" stroke-linejoin="round"/>
<path d="M318.51 475.618L279.595 455.1L302.982 423.48L341.156 443.602L318.51 475.618Z" stroke="#3335F9" stroke-miterlimit="10" stroke-linecap="round" stroke-linejoin="round"/>
<path d="M357.647 490.314L318.508 475.619L341.154 443.603L379.527 458.014L357.647 490.314Z" stroke="#3335F9" stroke-miterlimit="10" stroke-linecap="round" stroke-linejoin="round"/>
<path d="M395.48 498.609L357.648 490.311L379.528 458.011L416.632 466.15L395.48 498.609Z" stroke="#3335F9" stroke-miterlimit="10" stroke-linecap="round" stroke-linejoin="round"/>
<path d="M430.569 500.214L395.481 498.611L416.633 466.152L451.048 467.718L430.569 500.214Z" stroke="#3335F9" stroke-miterlimit="10" stroke-linecap="round" stroke-linejoin="round"/>
<path d="M461.556 495.038L430.568 500.211L451.044 467.718L481.454 462.647L461.556 495.038Z" stroke="#3335F9" stroke-miterlimit="10" stroke-linecap="round" stroke-linejoin="round"/>
<path d="M487.27 483.295L461.555 495.038L481.453 462.647L506.662 451.122L487.27 483.295Z" stroke="#3335F9" stroke-miterlimit="10" stroke-linecap="round" stroke-linejoin="round"/>
<path d="M506.709 465.428L487.273 483.296L506.661 451.121L525.735 433.602L506.709 465.428Z" stroke="#3335F9" stroke-miterlimit="10" stroke-linecap="round" stroke-linejoin="round"/>
<path d="M167.426 156.279L186.484 138.754L217.437 119.827L199.475 136.327L167.426 156.279Z" stroke="#3335F9" stroke-miterlimit="10" stroke-linecap="round" stroke-linejoin="round"/>
<path d="M155.235 179.126L167.422 156.282L199.474 136.332L187.996 157.868L155.235 179.126Z" stroke="#3335F9" stroke-miterlimit="10" stroke-linecap="round" stroke-linejoin="round"/>
<path d="M150.414 206.425L155.237 179.122L187.999 157.865L183.452 183.569L150.414 206.425Z" stroke="#3335F9" stroke-miterlimit="10" stroke-linecap="round" stroke-linejoin="round"/>
<path d="M153.115 237.128L150.411 206.428L183.449 183.571L186.011 212.499L153.115 237.128Z" stroke="#3335F9" stroke-miterlimit="10" stroke-linecap="round" stroke-linejoin="round"/>
<path d="M163.265 270.053L153.117 237.129L186.013 212.499L195.571 243.51L163.265 270.053Z" stroke="#3335F9" stroke-miterlimit="10" stroke-linecap="round" stroke-linejoin="round"/>
<path d="M180.456 303.931L163.265 270.052L195.571 243.508L211.748 275.425L180.456 303.931Z" stroke="#3335F9" stroke-miterlimit="10" stroke-linecap="round" stroke-linejoin="round"/>
<path d="M204.029 337.469L180.456 303.929L211.745 275.426L233.96 307.02L204.029 337.469Z" stroke="#3335F9" stroke-miterlimit="10" stroke-linecap="round" stroke-linejoin="round"/>
<path d="M233.076 369.376L204.028 337.47L233.962 307.023L261.334 337.065L233.076 369.376Z" stroke="#3335F9" stroke-miterlimit="10" stroke-linecap="round" stroke-linejoin="round"/>
<path d="M266.496 398.408L233.077 369.374L261.334 337.062L292.798 364.425L266.496 398.408Z" stroke="#3335F9" stroke-miterlimit="10" stroke-linecap="round" stroke-linejoin="round"/>
<path d="M302.985 423.481L266.498 398.41L292.803 364.424L327.181 388.027L302.985 423.481Z" stroke="#3335F9" stroke-miterlimit="10" stroke-linecap="round" stroke-linejoin="round"/>
<path d="M341.155 443.602L302.981 423.48L327.181 388.028L363.126 406.992L341.155 443.602Z" stroke="#3335F9" stroke-miterlimit="10" stroke-linecap="round" stroke-linejoin="round"/>
<path d="M379.53 458.009L341.154 443.602L363.125 406.992L399.27 420.562L379.53 458.009Z" stroke="#3335F9" stroke-miterlimit="10" stroke-linecap="round" stroke-linejoin="round"/>
<path d="M416.634 466.153L379.532 458.011L399.272 420.564L434.238 428.231L416.634 466.153Z" stroke="#3335F9" stroke-miterlimit="10" stroke-linecap="round" stroke-linejoin="round"/>
<path d="M451.05 467.719L416.636 466.153L434.239 428.23L466.653 429.705L451.05 467.719Z" stroke="#3335F9" stroke-miterlimit="10" stroke-linecap="round" stroke-linejoin="round"/>
<path d="M481.456 462.644L451.046 467.716L466.649 429.702L495.286 424.922L481.456 462.644Z" stroke="#3335F9" stroke-miterlimit="10" stroke-linecap="round" stroke-linejoin="round"/>
<path d="M506.663 451.124L481.454 462.649L495.284 424.926L519.038 414.088L506.663 451.124Z" stroke="#3335F9" stroke-miterlimit="10" stroke-linecap="round" stroke-linejoin="round"/>
<path d="M525.731 433.602L506.664 451.121L519.039 414.085L536.998 397.564L525.731 433.602Z" stroke="#3335F9" stroke-miterlimit="10" stroke-linecap="round" stroke-linejoin="round"/>
<path d="M537.911 410.75L525.733 433.602L536.998 397.566L548.481 376.048L537.911 410.75Z" stroke="#3335F9" stroke-miterlimit="10" stroke-linecap="round" stroke-linejoin="round"/>
<path d="M217.439 119.826L241.182 108.979L273.866 98.9888L252.475 108.753L217.439 119.826Z" stroke="#3335F9" stroke-miterlimit="10" stroke-linecap="round" stroke-linejoin="round"/>
<path d="M199.475 136.328L217.438 119.825L252.474 108.752L236.317 123.609L199.475 136.328Z" stroke="#3335F9" stroke-miterlimit="10" stroke-linecap="round" stroke-linejoin="round"/>
<path d="M187.996 157.866L199.474 136.329L236.317 123.611L225.983 142.98L187.996 157.866Z" stroke="#3335F9" stroke-miterlimit="10" stroke-linecap="round" stroke-linejoin="round"/>
<path d="M183.451 183.569L187.998 157.865L225.988 142.976L221.896 166.129L183.451 183.569Z" stroke="#3335F9" stroke-miterlimit="10" stroke-linecap="round" stroke-linejoin="round"/>
<path d="M186.011 212.498L183.452 183.573L221.897 166.133L224.198 192.156L186.011 212.498Z" stroke="#3335F9" stroke-miterlimit="10" stroke-linecap="round" stroke-linejoin="round"/>
<path d="M195.571 243.511L186.013 212.501L224.2 192.158L232.797 220.069L195.571 243.511Z" stroke="#3335F9" stroke-miterlimit="10" stroke-linecap="round" stroke-linejoin="round"/>
<path d="M211.745 275.428L195.568 243.511L232.794 220.069L247.372 248.791L211.745 275.428Z" stroke="#3335F9" stroke-miterlimit="10" stroke-linecap="round" stroke-linejoin="round"/>
<path d="M233.96 307.02L211.748 275.423L247.375 248.787L267.351 277.211L233.96 307.02Z" stroke="#3335F9" stroke-miterlimit="10" stroke-linecap="round" stroke-linejoin="round"/>
<path d="M261.334 337.063L233.963 307.022L267.354 277.213L291.988 304.265L261.334 337.063Z" stroke="#3335F9" stroke-miterlimit="10" stroke-linecap="round" stroke-linejoin="round"/>
<path d="M292.8 364.425L261.333 337.066L291.987 304.267L320.315 328.875L292.8 364.425Z" stroke="#3335F9" stroke-miterlimit="10" stroke-linecap="round" stroke-linejoin="round"/>
<path d="M327.179 388.027L292.801 364.424L320.316 328.874L351.244 350.129L327.179 388.027Z" stroke="#3335F9" stroke-miterlimit="10" stroke-linecap="round" stroke-linejoin="round"/>
<path d="M363.126 406.991L327.181 388.026L351.246 350.128L383.607 367.189L363.126 406.991Z" stroke="#3335F9" stroke-miterlimit="10" stroke-linecap="round" stroke-linejoin="round"/>
<path d="M399.269 420.564L363.124 406.994L383.602 367.19L416.133 379.406L399.269 420.564Z" stroke="#3335F9" stroke-miterlimit="10" stroke-linecap="round" stroke-linejoin="round"/>
<path d="M434.234 428.228L399.268 420.561L416.132 379.402L447.589 386.311L434.234 428.228Z" stroke="#3335F9" stroke-miterlimit="10" stroke-linecap="round" stroke-linejoin="round"/>
<path d="M466.651 429.706L434.237 428.231L447.593 386.314L476.768 387.638L466.651 429.706Z" stroke="#3335F9" stroke-miterlimit="10" stroke-linecap="round" stroke-linejoin="round"/>
<path d="M495.284 424.924L466.65 429.706L476.767 387.639L502.536 383.341L495.284 424.924Z" stroke="#3335F9" stroke-miterlimit="10" stroke-linecap="round" stroke-linejoin="round"/>
<path d="M519.041 414.084L495.286 424.922L502.535 383.336L523.914 373.569L519.041 414.084Z" stroke="#3335F9" stroke-miterlimit="10" stroke-linecap="round" stroke-linejoin="round"/>
<path d="M536.998 397.564L519.039 414.085L523.915 373.567L540.081 358.716L536.998 397.564Z" stroke="#3335F9" stroke-miterlimit="10" stroke-linecap="round" stroke-linejoin="round"/>
<path d="M548.481 376.046L536.998 397.565L540.081 358.717L550.404 339.343L548.481 376.046Z" stroke="#3335F9" stroke-miterlimit="10" stroke-linecap="round" stroke-linejoin="round"/>
<path d="M553.016 350.333L548.481 376.047L550.404 339.344L554.501 316.201L553.016 350.333Z" stroke="#3335F9" stroke-miterlimit="10" stroke-linecap="round" stroke-linejoin="round"/>
<path d="M273.861 98.9902L299.63 94.6922L330.378 93.9838L308.463 97.6439L273.861 98.9902Z" stroke="#3335F9" stroke-miterlimit="10" stroke-linecap="round" stroke-linejoin="round"/>
<path d="M252.477 108.756L273.865 98.9951L308.466 97.6488L290.282 105.947L252.477 108.756Z" stroke="#3335F9" stroke-miterlimit="10" stroke-linecap="round" stroke-linejoin="round"/>
<path d="M236.318 123.613L252.475 108.756L290.281 105.947L276.538 118.586L236.318 123.613Z" stroke="#3335F9" stroke-miterlimit="10" stroke-linecap="round" stroke-linejoin="round"/>
<path d="M225.987 142.977L236.318 123.611L276.538 118.583L267.751 135.053L225.987 142.977Z" stroke="#3335F9" stroke-miterlimit="10" stroke-linecap="round" stroke-linejoin="round"/>
<path d="M221.899 166.131L225.985 142.979L267.749 135.055L264.276 154.739L221.899 166.131Z" stroke="#3335F9" stroke-miterlimit="10" stroke-linecap="round" stroke-linejoin="round"/>
<path d="M224.195 192.155L221.894 166.132L264.271 154.74L266.223 176.873L224.195 192.155Z" stroke="#3335F9" stroke-miterlimit="10" stroke-linecap="round" stroke-linejoin="round"/>
<path d="M232.796 220.067L224.199 192.156L266.227 176.873L273.549 200.614L232.796 220.067Z" stroke="#3335F9" stroke-miterlimit="10" stroke-linecap="round" stroke-linejoin="round"/>
<path d="M247.373 248.789L232.794 220.067L273.546 200.608L285.927 225.029L247.373 248.789Z" stroke="#3335F9" stroke-miterlimit="10" stroke-linecap="round" stroke-linejoin="round"/>
<path d="M267.352 277.216L247.376 248.792L285.93 225.031L302.927 249.212L267.352 277.216Z" stroke="#3335F9" stroke-miterlimit="10" stroke-linecap="round" stroke-linejoin="round"/>
<path d="M291.986 304.264L267.356 277.215L302.925 249.211L323.873 272.214L291.986 304.264Z" stroke="#3335F9" stroke-miterlimit="10" stroke-linecap="round" stroke-linejoin="round"/>
<path d="M320.314 328.874L291.986 304.266L323.87 272.212L347.961 293.152L320.314 328.874Z" stroke="#3335F9" stroke-miterlimit="10" stroke-linecap="round" stroke-linejoin="round"/>
<path d="M351.244 350.128L320.316 328.873L347.964 293.152L374.264 311.214L351.244 350.128Z" stroke="#3335F9" stroke-miterlimit="10" stroke-linecap="round" stroke-linejoin="round"/>
<path d="M383.603 367.19L351.244 350.132L374.266 311.214L401.783 325.723L383.603 367.19Z" stroke="#3335F9" stroke-miterlimit="10" stroke-linecap="round" stroke-linejoin="round"/>
<path d="M416.133 379.404L383.605 367.19L401.784 325.723L429.455 336.114L416.133 379.404Z" stroke="#3335F9" stroke-miterlimit="10" stroke-linecap="round" stroke-linejoin="round"/>
<path d="M447.591 386.314L416.134 379.406L429.456 336.116L456.207 341.988L447.591 386.314Z" stroke="#3335F9" stroke-miterlimit="10" stroke-linecap="round" stroke-linejoin="round"/>
<path d="M476.767 387.638L447.592 386.314L456.21 341.985L481.023 343.121L476.767 387.638Z" stroke="#3335F9" stroke-miterlimit="10" stroke-linecap="round" stroke-linejoin="round"/>
<path d="M502.538 383.337L476.769 387.635L481.022 343.12L502.943 339.46L502.538 383.337Z" stroke="#3335F9" stroke-miterlimit="10" stroke-linecap="round" stroke-linejoin="round"/>
<path d="M523.916 373.571L502.537 383.339L502.942 339.462L521.117 331.157L523.916 373.571Z" stroke="#3335F9" stroke-miterlimit="10" stroke-linecap="round" stroke-linejoin="round"/>
<path d="M540.081 358.718L523.915 373.568L521.114 331.157L534.863 318.522L540.081 358.718Z" stroke="#3335F9" stroke-miterlimit="10" stroke-linecap="round" stroke-linejoin="round"/>
<path d="M550.403 339.345L540.081 358.718L534.863 318.523L543.646 302.045L550.403 339.345Z" stroke="#3335F9" stroke-miterlimit="10" stroke-linecap="round" stroke-linejoin="round"/>
<path d="M554.501 316.199L550.406 339.344L543.648 302.044L547.13 282.368L554.501 316.199Z" stroke="#3335F9" stroke-miterlimit="10" stroke-linecap="round" stroke-linejoin="round"/>
<path d="M552.2 290.176L554.501 316.199L547.126 282.368L545.176 260.232L552.2 290.176Z" stroke="#3335F9" stroke-miterlimit="10" stroke-linecap="round" stroke-linejoin="round"/>
<path d="M330.379 93.9883L355.194 95.1261L380.366 103.021L360.885 102.132L330.379 93.9883Z" stroke="#3335F9" stroke-miterlimit="10" stroke-linecap="round" stroke-linejoin="round"/>
<path d="M308.467 97.6484L330.384 93.9853L360.89 102.129L343.655 105.002L308.467 97.6484Z" stroke="#3335F9" stroke-miterlimit="10" stroke-linecap="round" stroke-linejoin="round"/>
<path d="M290.281 105.945L308.465 97.6474L343.654 105.001L329.377 111.524L290.281 105.945Z" stroke="#3335F9" stroke-miterlimit="10" stroke-linecap="round" stroke-linejoin="round"/>
<path d="M276.537 118.584L290.28 105.945L329.375 111.524L318.572 121.457L276.537 118.584Z" stroke="#3335F9" stroke-miterlimit="10" stroke-linecap="round" stroke-linejoin="round"/>
<path d="M267.75 135.056L276.54 118.583L318.575 121.456L311.675 134.395L267.75 135.056Z" stroke="#3335F9" stroke-miterlimit="10" stroke-linecap="round" stroke-linejoin="round"/>
<path d="M264.275 154.742L267.749 135.058L311.67 134.401L308.938 149.855L264.275 154.742Z" stroke="#3335F9" stroke-miterlimit="10" stroke-linecap="round" stroke-linejoin="round"/>
<path d="M266.227 176.873L264.277 154.737L308.939 149.85L310.48 167.255L266.227 176.873Z" stroke="#3335F9" stroke-miterlimit="10" stroke-linecap="round" stroke-linejoin="round"/>
<path d="M273.552 200.611L266.228 176.874L310.484 167.258L316.217 185.903L273.552 200.611Z" stroke="#3335F9" stroke-miterlimit="10" stroke-linecap="round" stroke-linejoin="round"/>
<path d="M285.93 225.032L273.549 200.611L316.214 185.903L325.951 205.095L285.93 225.032Z" stroke="#3335F9" stroke-miterlimit="10" stroke-linecap="round" stroke-linejoin="round"/>
<path d="M302.926 249.212L285.928 225.031L325.953 205.096L339.32 224.087L302.926 249.212Z" stroke="#3335F9" stroke-miterlimit="10" stroke-linecap="round" stroke-linejoin="round"/>
<path d="M323.873 272.211L302.925 249.209L339.322 224.087L355.775 242.159L323.873 272.211Z" stroke="#3335F9" stroke-miterlimit="10" stroke-linecap="round" stroke-linejoin="round"/>
<path d="M347.962 293.15L323.87 272.21L355.772 242.157L374.694 258.61L347.962 293.15Z" stroke="#3335F9" stroke-miterlimit="10" stroke-linecap="round" stroke-linejoin="round"/>
<path d="M374.264 311.215L347.961 293.15L374.694 258.611L395.366 272.803L374.264 311.215Z" stroke="#3335F9" stroke-miterlimit="10" stroke-linecap="round" stroke-linejoin="round"/>
<path d="M401.786 325.726L374.266 311.215L395.371 272.805L416.991 284.201L401.786 325.726Z" stroke="#3335F9" stroke-miterlimit="10" stroke-linecap="round" stroke-linejoin="round"/>
<path d="M429.454 336.115L401.783 325.724L416.988 284.199L438.718 292.373L429.454 336.115Z" stroke="#3335F9" stroke-miterlimit="10" stroke-linecap="round" stroke-linejoin="round"/>
<path d="M456.209 341.985L429.453 336.113L438.717 292.371L459.737 296.985L456.209 341.985Z" stroke="#3335F9" stroke-miterlimit="10" stroke-linecap="round" stroke-linejoin="round"/>
<path d="M481.021 343.119L456.208 341.984L459.739 296.987L479.238 297.871L481.021 343.119Z" stroke="#3335F9" stroke-miterlimit="10" stroke-linecap="round" stroke-linejoin="round"/>
<path d="M502.939 339.458L481.018 343.119L479.236 297.87L496.459 294.988L502.939 339.458Z" stroke="#3335F9" stroke-miterlimit="10" stroke-linecap="round" stroke-linejoin="round"/>
<path d="M521.118 331.158L502.943 339.462L496.462 294.992L510.749 288.476L521.118 331.158Z" stroke="#3335F9" stroke-miterlimit="10" stroke-linecap="round" stroke-linejoin="round"/>
<path d="M534.865 318.522L521.116 331.157L510.747 288.475L521.546 278.553L534.865 318.522Z" stroke="#3335F9" stroke-miterlimit="10" stroke-linecap="round" stroke-linejoin="round"/>
<path d="M543.646 302.044L534.863 318.522L521.544 278.552L528.448 265.601L543.646 302.044Z" stroke="#3335F9" stroke-miterlimit="10" stroke-linecap="round" stroke-linejoin="round"/>
<path d="M547.129 282.366L543.647 302.043L528.449 265.6L531.174 250.136L547.129 282.366Z" stroke="#3335F9" stroke-miterlimit="10" stroke-linecap="round" stroke-linejoin="round"/>
<path d="M545.174 260.235L547.127 282.373L531.172 250.143L529.644 232.748L545.174 260.235Z" stroke="#3335F9" stroke-miterlimit="10" stroke-linecap="round" stroke-linejoin="round"/>
<path d="M537.857 236.495L545.178 260.23L529.646 232.741L523.891 214.098L537.857 236.495Z" stroke="#3335F9" stroke-miterlimit="10" stroke-linecap="round" stroke-linejoin="round"/>
<path d="M525.463 212.067L537.855 236.496L523.889 214.099L514.154 194.905L525.463 212.067Z" stroke="#3335F9" stroke-miterlimit="10" stroke-linecap="round" stroke-linejoin="round"/>
<path d="M355.193 95.1191L381.938 100.981L401.384 107.627L380.365 103.014L355.193 95.1191Z" stroke="#3335F9" stroke-miterlimit="10" stroke-linecap="round" stroke-linejoin="round"/>
<path d="M360.887 102.129L380.364 103.015L403.387 119.411L389.96 118.799L360.887 102.129Z" stroke="#3335F9" stroke-miterlimit="10" stroke-linecap="round" stroke-linejoin="round"/>
<path d="M343.654 105.002L360.889 102.129L389.963 118.799L378.112 120.777L343.654 105.002Z" stroke="#3335F9" stroke-miterlimit="10" stroke-linecap="round" stroke-linejoin="round"/>
<path d="M329.377 111.523L343.652 105.003L378.11 120.778L368.27 125.269L329.377 111.523Z" stroke="#3335F9" stroke-miterlimit="10" stroke-linecap="round" stroke-linejoin="round"/>
<path d="M318.574 121.457L329.377 111.524L368.273 125.266L360.825 132.113L318.574 121.457Z" stroke="#3335F9" stroke-miterlimit="10" stroke-linecap="round" stroke-linejoin="round"/>
<path d="M311.671 134.398L318.571 121.459L360.818 132.112L356.072 141.026L311.671 134.398Z" stroke="#3335F9" stroke-miterlimit="10" stroke-linecap="round" stroke-linejoin="round"/>
<path d="M308.941 149.852L311.674 134.398L356.076 141.026L354.195 151.678L308.941 149.852Z" stroke="#3335F9" stroke-miterlimit="10" stroke-linecap="round" stroke-linejoin="round"/>
<path d="M310.479 167.258L308.939 149.853L354.193 151.679L355.241 163.659L310.479 167.258Z" stroke="#3335F9" stroke-miterlimit="10" stroke-linecap="round" stroke-linejoin="round"/>
<path d="M316.211 185.9L310.479 167.255L355.24 163.656L359.2 176.501L316.211 185.9Z" stroke="#3335F9" stroke-miterlimit="10" stroke-linecap="round" stroke-linejoin="round"/>
<path d="M325.951 205.094L316.213 185.903L359.199 176.501L365.919 189.722L325.951 205.094Z" stroke="#3335F9" stroke-miterlimit="10" stroke-linecap="round" stroke-linejoin="round"/>
<path d="M339.32 224.087L325.95 205.094L365.92 189.719L375.112 202.814L339.32 224.087Z" stroke="#3335F9" stroke-miterlimit="10" stroke-linecap="round" stroke-linejoin="round"/>
<path d="M355.775 242.158L339.322 224.086L375.108 202.814L386.444 215.251L355.775 242.158Z" stroke="#3335F9" stroke-miterlimit="10" stroke-linecap="round" stroke-linejoin="round"/>
<path d="M374.694 258.613L355.772 242.16L386.44 215.254L399.479 226.591L374.694 258.613Z" stroke="#3335F9" stroke-miterlimit="10" stroke-linecap="round" stroke-linejoin="round"/>
<path d="M395.369 272.803L374.697 258.611L399.48 226.591L413.717 236.36L395.369 272.803Z" stroke="#3335F9" stroke-miterlimit="10" stroke-linecap="round" stroke-linejoin="round"/>
<path d="M416.99 284.199L395.37 272.803L413.718 236.36L428.608 244.216L416.99 284.199Z" stroke="#3335F9" stroke-miterlimit="10" stroke-linecap="round" stroke-linejoin="round"/>
<path d="M438.72 292.37L416.99 284.196L428.609 244.219L443.588 249.831L438.72 292.37Z" stroke="#3335F9" stroke-miterlimit="10" stroke-linecap="round" stroke-linejoin="round"/>
<path d="M459.737 296.985L438.718 292.371L443.588 249.829L458.057 253.013L459.737 296.985Z" stroke="#3335F9" stroke-miterlimit="10" stroke-linecap="round" stroke-linejoin="round"/>
<path d="M479.235 297.873L459.736 296.989L458.056 253.017L471.492 253.637L479.235 297.873Z" stroke="#3335F9" stroke-miterlimit="10" stroke-linecap="round" stroke-linejoin="round"/>
<path d="M496.46 294.99L479.237 297.873L471.491 253.634L483.357 251.649L496.46 294.99Z" stroke="#3335F9" stroke-miterlimit="10" stroke-linecap="round" stroke-linejoin="round"/>
<path d="M510.744 288.478L496.46 294.991L483.354 251.653L493.196 247.159L510.744 288.478Z" stroke="#3335F9" stroke-miterlimit="10" stroke-linecap="round" stroke-linejoin="round"/>
<path d="M521.548 278.552L510.749 288.474L493.199 247.158L500.628 240.316L521.548 278.552Z" stroke="#3335F9" stroke-miterlimit="10" stroke-linecap="round" stroke-linejoin="round"/>
<path d="M528.447 265.602L521.543 278.553L500.627 240.319L505.391 231.4L528.447 265.602Z" stroke="#3335F9" stroke-miterlimit="10" stroke-linecap="round" stroke-linejoin="round"/>
<path d="M531.174 250.139L528.451 265.6L505.395 231.398L507.275 220.746L531.174 250.139Z" stroke="#3335F9" stroke-miterlimit="10" stroke-linecap="round" stroke-linejoin="round"/>
<path d="M529.646 232.743L531.174 250.139L507.275 220.746L506.215 208.776L529.646 232.743Z" stroke="#3335F9" stroke-miterlimit="10" stroke-linecap="round" stroke-linejoin="round"/>
<path d="M523.889 214.102L529.643 232.745L506.213 208.777L502.244 195.926L523.889 214.102Z" stroke="#3335F9" stroke-miterlimit="10" stroke-linecap="round" stroke-linejoin="round"/>
<path d="M514.154 194.908L523.891 214.1L502.249 195.926L495.542 182.706L514.154 194.908Z" stroke="#3335F9" stroke-miterlimit="10" stroke-linecap="round" stroke-linejoin="round"/>
<path d="M500.799 175.912L514.151 194.91L495.542 182.705L486.341 169.621L500.799 175.912Z" stroke="#3335F9" stroke-miterlimit="10" stroke-linecap="round" stroke-linejoin="round"/>
<path d="M484.346 157.84L500.802 175.908L486.346 169.62L475.004 157.173L484.346 157.84Z" stroke="#3335F9" stroke-miterlimit="10" stroke-linecap="round" stroke-linejoin="round"/>
<path d="M465.427 141.385L484.349 157.838L475.005 157.174L461.978 145.841L465.427 141.385Z" stroke="#3335F9" stroke-miterlimit="10" stroke-linecap="round" stroke-linejoin="round"/>
<path d="M444.753 127.196L465.425 141.388L461.976 145.844L447.732 136.065L444.753 127.196Z" stroke="#3335F9" stroke-miterlimit="10" stroke-linecap="round" stroke-linejoin="round"/>
<path d="M423.133 115.799L444.751 127.199L447.73 136.068L432.849 128.218L423.133 115.799Z" stroke="#3335F9" stroke-miterlimit="10" stroke-linecap="round" stroke-linejoin="round"/>
<path d="M401.388 107.629L423.136 115.797L432.849 128.214L417.877 122.593L401.388 107.629Z" stroke="#3335F9" stroke-miterlimit="10" stroke-linecap="round" stroke-linejoin="round"/>
<path d="M380.367 103.016L401.387 107.629L417.878 122.591L403.39 119.412L380.367 103.016Z" stroke="#3335F9" stroke-miterlimit="10" stroke-linecap="round" stroke-linejoin="round"/>
<path d="M389.964 118.8L403.391 119.412L423.365 143.666L416.522 143.36L389.964 118.8Z" stroke="#3335F9" stroke-miterlimit="10" stroke-linecap="round" stroke-linejoin="round"/>
<path d="M378.109 120.779L389.962 118.798L416.521 143.364L410.473 144.371L378.109 120.779Z" stroke="#3335F9" stroke-miterlimit="10" stroke-linecap="round" stroke-linejoin="round"/>
<path d="M368.27 125.27L378.109 120.779L410.471 144.373L405.453 146.664L368.27 125.27Z" stroke="#3335F9" stroke-miterlimit="10" stroke-linecap="round" stroke-linejoin="round"/>
<path d="M360.824 132.111L368.272 125.264L405.456 146.659L401.661 150.14L360.824 132.111Z" stroke="#3335F9" stroke-miterlimit="10" stroke-linecap="round" stroke-linejoin="round"/>
<path d="M356.07 141.026L360.822 132.111L401.658 150.14L399.24 154.687L356.07 141.026Z" stroke="#3335F9" stroke-miterlimit="10" stroke-linecap="round" stroke-linejoin="round"/>
<path d="M354.193 151.68L356.073 141.028L399.239 154.687L398.283 160.12L354.193 151.68Z" stroke="#3335F9" stroke-miterlimit="10" stroke-linecap="round" stroke-linejoin="round"/>
<path d="M355.243 163.659L354.195 151.679L398.286 160.119L398.822 166.227L355.243 163.659Z" stroke="#3335F9" stroke-miterlimit="10" stroke-linecap="round" stroke-linejoin="round"/>
<path d="M359.201 176.5L355.241 163.656L398.823 166.226L400.842 172.765L359.201 176.5Z" stroke="#3335F9" stroke-miterlimit="10" stroke-linecap="round" stroke-linejoin="round"/>
<path d="M365.921 189.721L359.202 176.505L400.84 172.768L404.257 179.519L365.921 189.721Z" stroke="#3335F9" stroke-miterlimit="10" stroke-linecap="round" stroke-linejoin="round"/>
<path d="M375.108 202.814L365.917 189.718L404.258 179.516L408.938 186.182L375.108 202.814Z" stroke="#3335F9" stroke-miterlimit="10" stroke-linecap="round" stroke-linejoin="round"/>
<path d="M386.444 215.249L375.114 202.811L408.943 186.179L414.727 192.53L386.444 215.249Z" stroke="#3335F9" stroke-miterlimit="10" stroke-linecap="round" stroke-linejoin="round"/>
<path d="M399.481 226.587L386.443 215.251L414.725 192.526L421.371 198.305L399.481 226.587Z" stroke="#3335F9" stroke-miterlimit="10" stroke-linecap="round" stroke-linejoin="round"/>
<path d="M413.719 236.36L399.484 226.588L421.374 198.305L428.632 203.293L413.719 236.36Z" stroke="#3335F9" stroke-miterlimit="10" stroke-linecap="round" stroke-linejoin="round"/>
<path d="M428.605 244.219L413.714 236.363L428.63 203.293L436.214 207.293L428.605 244.219Z" stroke="#3335F9" stroke-miterlimit="10" stroke-linecap="round" stroke-linejoin="round"/>
<path d="M443.589 249.831L428.607 244.217L436.216 207.29L443.852 210.162L443.589 249.831Z" stroke="#3335F9" stroke-miterlimit="10" stroke-linecap="round" stroke-linejoin="round"/>
<path d="M458.061 253.017L443.591 249.833L443.854 210.164L451.234 211.77L458.061 253.017Z" stroke="#3335F9" stroke-miterlimit="10" stroke-linecap="round" stroke-linejoin="round"/>
<path d="M471.491 253.635L458.055 253.016L451.232 211.77L458.08 212.095L471.491 253.635Z" stroke="#3335F9" stroke-miterlimit="10" stroke-linecap="round" stroke-linejoin="round"/>
<path d="M483.355 251.648L471.492 253.635L458.081 212.09L464.129 211.082L483.355 251.648Z" stroke="#3335F9" stroke-miterlimit="10" stroke-linecap="round" stroke-linejoin="round"/>
<path d="M493.199 247.158L483.36 251.649L464.133 211.084L469.147 208.791L493.199 247.158Z" stroke="#3335F9" stroke-miterlimit="10" stroke-linecap="round" stroke-linejoin="round"/>
<path d="M500.628 240.316L493.198 247.158L469.149 208.787L472.932 205.302L500.628 240.316Z" stroke="#3335F9" stroke-miterlimit="10" stroke-linecap="round" stroke-linejoin="round"/>
<path d="M505.392 231.4L500.623 240.32L472.93 205.303L475.355 200.766L505.392 231.4Z" stroke="#3335F9" stroke-miterlimit="10" stroke-linecap="round" stroke-linejoin="round"/>
<path d="M507.274 220.746L505.394 231.398L475.362 200.763L476.321 195.332L507.274 220.746Z" stroke="#3335F9" stroke-miterlimit="10" stroke-linecap="round" stroke-linejoin="round"/>
<path d="M506.215 208.773L507.272 220.746L476.319 195.332L475.783 189.224L506.215 208.773Z" stroke="#3335F9" stroke-miterlimit="10" stroke-linecap="round" stroke-linejoin="round"/>
<path d="M502.248 195.923L506.216 208.774L475.782 189.223L473.757 182.666L502.248 195.923Z" stroke="#3335F9" stroke-miterlimit="10" stroke-linecap="round" stroke-linejoin="round"/>
<path d="M495.541 182.706L502.242 195.927L473.755 182.672L470.34 175.937L495.541 182.706Z" stroke="#3335F9" stroke-miterlimit="10" stroke-linecap="round" stroke-linejoin="round"/>
<path d="M486.346 169.62L495.544 182.706L470.34 175.935L465.649 169.266L486.346 169.62Z" stroke="#3335F9" stroke-miterlimit="10" stroke-linecap="round" stroke-linejoin="round"/>
<path d="M475.004 157.173L486.343 169.618L465.646 169.263L459.877 162.918L475.004 157.173Z" stroke="#3335F9" stroke-miterlimit="10" stroke-linecap="round" stroke-linejoin="round"/>
<path d="M461.977 145.844L475.006 157.174L459.877 162.922L453.229 157.147L461.977 145.844Z" stroke="#3335F9" stroke-miterlimit="10" stroke-linecap="round" stroke-linejoin="round"/>
<path d="M447.731 136.066L461.975 145.845L453.227 157.147L445.974 152.159L447.731 136.066Z" stroke="#3335F9" stroke-miterlimit="10" stroke-linecap="round" stroke-linejoin="round"/>
<path d="M432.848 128.212L447.729 136.061L445.97 152.158L438.371 148.151L432.848 128.212Z" stroke="#3335F9" stroke-miterlimit="10" stroke-linecap="round" stroke-linejoin="round"/>
<path d="M417.878 122.59L432.853 128.213L438.376 148.153L430.749 145.289L417.878 122.59Z" stroke="#3335F9" stroke-miterlimit="10" stroke-linecap="round" stroke-linejoin="round"/>
<path d="M403.385 119.413L417.873 122.591L430.745 145.29L423.363 143.669L403.385 119.413Z" stroke="#3335F9" stroke-miterlimit="10" stroke-linecap="round" stroke-linejoin="round"/>
<path d="M416.524 143.364L423.37 143.667L439.523 174.858L416.524 143.364Z" stroke="#3335F9" stroke-miterlimit="10" stroke-linecap="round" stroke-linejoin="round"/>
<path d="M410.472 144.374L416.522 143.363L439.521 174.857L410.472 144.374Z" stroke="#3335F9" stroke-miterlimit="10" stroke-linecap="round" stroke-linejoin="round"/>
<path d="M405.453 146.662L410.473 144.374L439.521 174.857L405.453 146.662Z" stroke="#3335F9" stroke-miterlimit="10" stroke-linecap="round" stroke-linejoin="round"/>
<path d="M401.658 150.143L405.451 146.664L439.519 174.854L401.658 150.143Z" stroke="#3335F9" stroke-miterlimit="10" stroke-linecap="round" stroke-linejoin="round"/>
<path d="M399.243 154.683L401.659 150.139L439.523 174.853L399.243 154.683Z" stroke="#3335F9" stroke-miterlimit="10" stroke-linecap="round" stroke-linejoin="round"/>
<path d="M398.284 160.12L399.242 154.683L439.522 174.853L398.284 160.12Z" stroke="#3335F9" stroke-miterlimit="10" stroke-linecap="round" stroke-linejoin="round"/>
<path d="M398.824 166.226L398.282 160.119L439.521 174.852L398.824 166.226Z" stroke="#3335F9" stroke-miterlimit="10" stroke-linecap="round" stroke-linejoin="round"/>
<path d="M400.84 172.767L398.821 166.228L439.521 174.857L400.84 172.767Z" stroke="#3335F9" stroke-miterlimit="10" stroke-linecap="round" stroke-linejoin="round"/>
<path d="M404.256 179.515L400.839 172.764L439.52 174.854L404.256 179.515Z" stroke="#3335F9" stroke-miterlimit="10" stroke-linecap="round" stroke-linejoin="round"/>
<path d="M408.941 186.183L404.256 179.518L439.52 174.857L408.941 186.183Z" stroke="#3335F9" stroke-miterlimit="10" stroke-linecap="round" stroke-linejoin="round"/>
<path d="M414.722 192.528L408.939 186.177L439.52 174.853L414.722 192.528Z" stroke="#3335F9" stroke-miterlimit="10" stroke-linecap="round" stroke-linejoin="round"/>
<path d="M421.373 198.307L414.723 192.53L439.523 174.856L421.373 198.307Z" stroke="#3335F9" stroke-miterlimit="10" stroke-linecap="round" stroke-linejoin="round"/>
<path d="M428.631 203.296L421.371 198.307L439.521 174.856L428.631 203.296Z" stroke="#3335F9" stroke-miterlimit="10" stroke-linecap="round" stroke-linejoin="round"/>
<path d="M436.217 207.288L428.63 203.291L439.523 174.854L436.217 207.288Z" stroke="#3335F9" stroke-miterlimit="10" stroke-linecap="round" stroke-linejoin="round"/>
<path d="M443.852 210.162L436.216 207.291L439.522 174.856L443.852 210.162Z" stroke="#3335F9" stroke-miterlimit="10" stroke-linecap="round" stroke-linejoin="round"/>
<path d="M451.233 211.767L443.85 210.158L439.519 174.852L451.233 211.767Z" stroke="#3335F9" stroke-miterlimit="10" stroke-linecap="round" stroke-linejoin="round"/>
<path d="M458.083 212.092L451.235 211.768L439.524 174.856L458.083 212.092Z" stroke="#3335F9" stroke-miterlimit="10" stroke-linecap="round" stroke-linejoin="round"/>
<path d="M464.13 211.083L458.083 212.091L439.524 174.855L464.13 211.083Z" stroke="#3335F9" stroke-miterlimit="10" stroke-linecap="round" stroke-linejoin="round"/>
<path d="M469.149 208.791L464.129 211.084L439.523 174.855L469.149 208.791Z" stroke="#3335F9" stroke-miterlimit="10" stroke-linecap="round" stroke-linejoin="round"/>
<path d="M472.93 205.302L469.146 208.787L439.52 174.852L472.93 205.302Z" stroke="#3335F9" stroke-miterlimit="10" stroke-linecap="round" stroke-linejoin="round"/>
<path d="M475.36 200.766L472.935 205.303L439.523 174.856L475.36 200.766Z" stroke="#3335F9" stroke-miterlimit="10" stroke-linecap="round" stroke-linejoin="round"/>
<path d="M476.318 195.336L475.359 200.768L439.521 174.857L476.318 195.336Z" stroke="#3335F9" stroke-miterlimit="10" stroke-linecap="round" stroke-linejoin="round"/>
<path d="M475.779 189.226L476.318 195.336L439.521 174.857L475.779 189.226Z" stroke="#3335F9" stroke-miterlimit="10" stroke-linecap="round" stroke-linejoin="round"/>
<path d="M473.758 182.667L475.78 189.228L439.521 174.854L473.758 182.667Z" stroke="#3335F9" stroke-miterlimit="10" stroke-linecap="round" stroke-linejoin="round"/>
<path d="M470.343 175.936L473.758 182.671L439.521 174.857L470.343 175.936Z" stroke="#3335F9" stroke-miterlimit="10" stroke-linecap="round" stroke-linejoin="round"/>
<path d="M465.648 169.264L470.343 175.936L439.521 174.857L465.648 169.264Z" stroke="#3335F9" stroke-miterlimit="10" stroke-linecap="round" stroke-linejoin="round"/>
<path d="M459.877 162.922L465.648 169.264L439.521 174.857L459.877 162.922Z" stroke="#3335F9" stroke-miterlimit="10" stroke-linecap="round" stroke-linejoin="round"/>
<path d="M453.229 157.147L459.879 162.924L439.521 174.857L453.229 157.147Z" stroke="#3335F9" stroke-miterlimit="10" stroke-linecap="round" stroke-linejoin="round"/>
<path d="M445.971 152.16L453.231 157.149L439.523 174.859L445.971 152.16Z" stroke="#3335F9" stroke-miterlimit="10" stroke-linecap="round" stroke-linejoin="round"/>
<path d="M438.376 148.157L445.975 152.163L439.522 174.859L438.376 148.157Z" stroke="#3335F9" stroke-miterlimit="10" stroke-linecap="round" stroke-linejoin="round"/>
<path d="M430.747 145.29L438.374 148.154L439.52 174.856L430.747 145.29Z" stroke="#3335F9" stroke-miterlimit="10" stroke-linecap="round" stroke-linejoin="round"/>
<path d="M423.364 143.663L430.749 145.287L439.522 174.853L423.364 143.663Z" stroke="#3335F9" stroke-miterlimit="10" stroke-linecap="round" stroke-linejoin="round"/>
<path d="M381.935 100.982L355.19 95.1197L330.375 93.9819L299.627 94.6903L273.858 98.9883L241.178 108.981L217.435 119.828L186.479 138.752L167.421 156.278L141.372 182.668L122.363 214.494L110.177 237.338L99.6215 272.047L95.0652 297.763L93.5958 331.893L95.8873 357.928L102.921 387.859L110.245 411.597L122.623 436.02L133.927 453.187L147.288 472.192L163.743 490.261L182.673 506.705L203.338 520.906L224.955 532.305L246.694 540.467L266.148 547.104L292.907 552.972L317.719 554.108L348.458 553.411L374.236 549.101L406.898 539.114L430.662 528.264L461.603 509.333L480.674 491.817L506.704 465.426L525.731 433.601L537.906 410.748L548.476 376.045L553.01 350.332L554.498 316.197L552.197 290.174L545.173 260.23L537.852 236.495L525.459 212.066L514.151 194.904L500.797 175.909L484.343 157.838L465.421 141.385L444.749 127.193L423.13 115.797L401.384 107.625L381.935 100.982Z" stroke="#3335F9" stroke-width="2" stroke-miterlimit="10" stroke-linecap="round" stroke-linejoin="round"/>
</svg>
