<svg width="420" height="76" viewBox="0 0 420 76" fill="none" xmlns="http://www.w3.org/2000/svg">
<path d="M20 19.25C9.64469 19.25 1.25 27.6447 1.25 38C1.25 48.3553 9.64469 56.75 20 56.75C30.3553 56.75 38.75 48.3553 38.75 38C38.75 27.6447 30.3553 19.25 20 19.25ZM31.4905 49.4905C28.6413 52.3312 24.8366 54.0093 20.8176 54.198C16.7987 54.3866 12.8535 53.0723 9.75073 50.511C6.64795 47.9497 4.60989 44.325 4.03366 40.3432C3.45743 36.3613 4.3843 32.3075 6.63368 28.9717C8.88307 25.6359 12.2938 23.257 16.2013 22.2986C20.1089 21.3402 24.2333 21.8709 27.7709 23.7873C31.3085 25.7038 34.0059 28.8686 35.3375 32.6652C36.6691 36.4618 36.5395 40.6182 34.974 44.3245C34.1581 46.2557 32.975 48.0101 31.4905 49.4905Z" fill="#191919"/>
<path d="M13.1234 43.0004H26.8734V45.5004H13.1234V43.0004ZM16.4539 35.8162L14.5756 34.1466L16.2452 32.2684L14.3767 30.6074L12.7071 32.4857L10.8289 30.8162L9.16797 32.6846L11.0462 34.3542L9.37672 36.2324L11.2452 37.8934L12.9148 36.0151L14.793 37.6846L16.4539 35.8162ZM29.9952 32.2684L28.1267 30.6074L26.4571 32.4857L24.5789 30.8162L22.918 32.6846L24.7962 34.3542L23.1267 36.2324L24.9952 37.8934L26.6648 36.0151L28.543 37.6846L30.2039 35.8162L28.3256 34.1466L29.9952 32.2684Z" fill="#191919"/>
<g filter="url(#filter0_d_376_3111)">
<mask id="path-3-outside-1_376_3111" maskUnits="userSpaceOnUse" x="59" y="12" width="302" height="48" fill="black">
<rect fill="white" x="59" y="12" width="302" height="48"/>
<path d="M87.953 23.7H86.933L71.093 42.18H81.113C84.953 42.18 87.953 43.38 87.953 43.38V23.7ZM102.653 42.18V49.98H97.553V57H87.953V49.98H61.793V39.6L82.973 15H97.553V42.18H102.653ZM124.174 49.02C130.654 49.02 133.054 42.06 133.054 36C133.054 29.94 130.654 22.98 124.174 22.98C117.694 22.98 115.294 29.94 115.294 36C115.294 42.06 117.694 49.02 124.174 49.02ZM124.174 14.28C137.614 14.28 142.654 25.98 142.654 36C142.654 46.02 137.614 57.72 124.174 57.72C110.734 57.72 105.694 46.02 105.694 36C105.694 25.98 110.734 14.28 124.174 14.28ZM172.387 23.7H171.367L155.527 42.18H165.547C169.387 42.18 172.387 43.38 172.387 43.38V23.7ZM187.087 42.18V49.98H181.987V57H172.387V49.98H146.227V39.6L167.407 15H181.987V42.18H187.087ZM236.412 15V23.7H218.592V31.26H234.432V39.66H218.592V48.3H236.412V57H208.992V15H236.412ZM267.434 27.72V36.42C258.494 36.42 255.194 43.08 255.194 48.78V57H245.594V37.62C245.594 36.84 245.174 36.42 244.394 36.42H240.614V27.72H250.574C252.434 27.72 253.934 28.62 253.934 30.54C253.934 33.36 252.794 39.06 252.794 39.06H253.994C255.794 32.4 260.534 27.72 267.434 27.72ZM296.672 27.72V36.42C287.732 36.42 284.432 43.08 284.432 48.78V57H274.832V37.62C274.832 36.84 274.412 36.42 273.632 36.42H269.852V27.72H279.812C281.672 27.72 283.172 28.62 283.172 30.54C283.172 33.36 282.032 39.06 282.032 39.06H283.232C285.032 32.4 289.772 27.72 296.672 27.72ZM314.345 50.7C319.505 50.7 321.365 46.26 321.365 42.36C321.365 38.46 319.505 34.02 314.345 34.02C309.185 34.02 307.265 38.46 307.265 42.36C307.265 46.26 309.185 50.7 314.345 50.7ZM314.345 27C325.385 27 329.525 35.28 329.525 42.36C329.525 49.44 325.385 57.72 314.345 57.72C303.245 57.72 299.105 49.44 299.105 42.36C299.105 35.28 303.245 27 314.345 27ZM358.489 27.72V36.42C349.549 36.42 346.249 43.08 346.249 48.78V57H336.649V37.62C336.649 36.84 336.229 36.42 335.449 36.42H331.669V27.72H341.629C343.489 27.72 344.989 28.62 344.989 30.54C344.989 33.36 343.849 39.06 343.849 39.06H345.049C346.849 32.4 351.589 27.72 358.489 27.72Z"/>
</mask>
<path d="M87.953 23.7H86.933L71.093 42.18H81.113C84.953 42.18 87.953 43.38 87.953 43.38V23.7ZM102.653 42.18V49.98H97.553V57H87.953V49.98H61.793V39.6L82.973 15H97.553V42.18H102.653ZM124.174 49.02C130.654 49.02 133.054 42.06 133.054 36C133.054 29.94 130.654 22.98 124.174 22.98C117.694 22.98 115.294 29.94 115.294 36C115.294 42.06 117.694 49.02 124.174 49.02ZM124.174 14.28C137.614 14.28 142.654 25.98 142.654 36C142.654 46.02 137.614 57.72 124.174 57.72C110.734 57.72 105.694 46.02 105.694 36C105.694 25.98 110.734 14.28 124.174 14.28ZM172.387 23.7H171.367L155.527 42.18H165.547C169.387 42.18 172.387 43.38 172.387 43.38V23.7ZM187.087 42.18V49.98H181.987V57H172.387V49.98H146.227V39.6L167.407 15H181.987V42.18H187.087ZM236.412 15V23.7H218.592V31.26H234.432V39.66H218.592V48.3H236.412V57H208.992V15H236.412ZM267.434 27.72V36.42C258.494 36.42 255.194 43.08 255.194 48.78V57H245.594V37.62C245.594 36.84 245.174 36.42 244.394 36.42H240.614V27.72H250.574C252.434 27.72 253.934 28.62 253.934 30.54C253.934 33.36 252.794 39.06 252.794 39.06H253.994C255.794 32.4 260.534 27.72 267.434 27.72ZM296.672 27.72V36.42C287.732 36.42 284.432 43.08 284.432 48.78V57H274.832V37.62C274.832 36.84 274.412 36.42 273.632 36.42H269.852V27.72H279.812C281.672 27.72 283.172 28.62 283.172 30.54C283.172 33.36 282.032 39.06 282.032 39.06H283.232C285.032 32.4 289.772 27.72 296.672 27.72ZM314.345 50.7C319.505 50.7 321.365 46.26 321.365 42.36C321.365 38.46 319.505 34.02 314.345 34.02C309.185 34.02 307.265 38.46 307.265 42.36C307.265 46.26 309.185 50.7 314.345 50.7ZM314.345 27C325.385 27 329.525 35.28 329.525 42.36C329.525 49.44 325.385 57.72 314.345 57.72C303.245 57.72 299.105 49.44 299.105 42.36C299.105 35.28 303.245 27 314.345 27ZM358.489 27.72V36.42C349.549 36.42 346.249 43.08 346.249 48.78V57H336.649V37.62C336.649 36.84 336.229 36.42 335.449 36.42H331.669V27.72H341.629C343.489 27.72 344.989 28.62 344.989 30.54C344.989 33.36 343.849 39.06 343.849 39.06H345.049C346.849 32.4 351.589 27.72 358.489 27.72Z" fill="#9747FF"/>
<path d="M87.953 23.7H89.953V21.7H87.953V23.7ZM86.933 23.7V21.7H86.0131L85.4145 22.3984L86.933 23.7ZM71.093 42.18L69.5745 40.8784L66.7445 44.18H71.093V42.18ZM87.953 43.38L87.2102 45.237L89.953 46.3341V43.38H87.953ZM102.653 42.18H104.653V40.18H102.653V42.18ZM102.653 49.98V51.98H104.653V49.98H102.653ZM97.553 49.98V47.98H95.553V49.98H97.553ZM97.553 57V59H99.553V57H97.553ZM87.953 57H85.953V59H87.953V57ZM87.953 49.98H89.953V47.98H87.953V49.98ZM61.793 49.98H59.793V51.98H61.793V49.98ZM61.793 39.6L60.2773 38.2951L59.793 38.8576V39.6H61.793ZM82.973 15V13H82.0558L81.4573 13.6951L82.973 15ZM97.553 15H99.553V13H97.553V15ZM97.553 42.18H95.553V44.18H97.553V42.18ZM87.953 21.7H86.933V25.7H87.953V21.7ZM85.4145 22.3984L69.5745 40.8784L72.6115 43.4816L88.4515 25.0016L85.4145 22.3984ZM71.093 44.18H81.113V40.18H71.093V44.18ZM81.113 44.18C82.832 44.18 84.3781 44.4496 85.4991 44.723C86.0564 44.859 86.5004 44.9938 86.798 45.0919C86.9466 45.1409 87.0581 45.1806 87.1283 45.2063C87.1634 45.2192 87.1882 45.2285 87.202 45.2338C87.2089 45.2365 87.2131 45.2381 87.2145 45.2387C87.2152 45.2389 87.2152 45.2389 87.2145 45.2387C87.2141 45.2385 87.2136 45.2383 87.2129 45.238C87.2125 45.2379 87.2121 45.2377 87.2117 45.2375C87.2114 45.2374 87.2111 45.2373 87.211 45.2373C87.2106 45.2371 87.2102 45.237 87.953 43.38C88.6958 41.523 88.6953 41.5229 88.6949 41.5227C88.6948 41.5226 88.6943 41.5225 88.694 41.5224C88.6934 41.5221 88.6927 41.5218 88.692 41.5215C88.6905 41.521 88.6889 41.5203 88.6871 41.5196C88.6835 41.5182 88.6791 41.5165 88.674 41.5145C88.6638 41.5105 88.6507 41.5054 88.6347 41.4992C88.6027 41.4869 88.5592 41.4705 88.5048 41.4506C88.3959 41.4107 88.2431 41.3566 88.0504 41.2931C87.6656 41.1662 87.1195 41.001 86.4469 40.837C85.1078 40.5104 83.234 40.18 81.113 40.18V44.18ZM89.953 43.38V23.7H85.953V43.38H89.953ZM100.653 42.18V49.98H104.653V42.18H100.653ZM102.653 47.98H97.553V51.98H102.653V47.98ZM95.553 49.98V57H99.553V49.98H95.553ZM97.553 55H87.953V59H97.553V55ZM89.953 57V49.98H85.953V57H89.953ZM87.953 47.98H61.793V51.98H87.953V47.98ZM63.793 49.98V39.6H59.793V49.98H63.793ZM63.3086 40.9049L84.4886 16.3049L81.4573 13.6951L60.2773 38.2951L63.3086 40.9049ZM82.973 17H97.553V13H82.973V17ZM95.553 15V42.18H99.553V15H95.553ZM97.553 44.18H102.653V40.18H97.553V44.18ZM124.174 51.02C128.292 51.02 131.105 48.7418 132.785 45.7658C134.419 42.8725 135.054 39.2448 135.054 36H131.054C131.054 38.8152 130.489 41.6975 129.302 43.7992C128.162 45.8182 126.535 47.02 124.174 47.02V51.02ZM135.054 36C135.054 32.7552 134.419 29.1275 132.785 26.2342C131.105 23.2582 128.292 20.98 124.174 20.98V24.98C126.535 24.98 128.162 26.1818 129.302 28.2008C130.489 30.3025 131.054 33.1848 131.054 36H135.054ZM124.174 20.98C120.055 20.98 117.242 23.2582 115.562 26.2342C113.929 29.1275 113.294 32.7552 113.294 36H117.294C117.294 33.1848 117.859 30.3025 119.045 28.2008C120.185 26.1818 121.812 24.98 124.174 24.98V20.98ZM113.294 36C113.294 39.2448 113.929 42.8725 115.562 45.7658C117.242 48.7418 120.055 51.02 124.174 51.02V47.02C121.812 47.02 120.185 45.8182 119.045 43.7992C117.859 41.6975 117.294 38.8152 117.294 36H113.294ZM124.174 16.28C130.216 16.28 134.237 18.866 136.818 22.5336C139.46 26.2869 140.654 31.2809 140.654 36H144.654C144.654 30.6991 143.328 24.8331 140.089 20.2314C136.79 15.544 131.571 12.28 124.174 12.28V16.28ZM140.654 36C140.654 40.7191 139.46 45.7131 136.818 49.4664C134.237 53.134 130.216 55.72 124.174 55.72V59.72C131.571 59.72 136.79 56.456 140.089 51.7686C143.328 47.1669 144.654 41.3009 144.654 36H140.654ZM124.174 55.72C118.131 55.72 114.11 53.134 111.529 49.4664C108.888 45.7131 107.694 40.7191 107.694 36H103.694C103.694 41.3009 105.02 47.1669 108.258 51.7686C111.557 56.456 116.776 59.72 124.174 59.72V55.72ZM107.694 36C107.694 31.2809 108.888 26.2869 111.529 22.5336C114.11 18.866 118.131 16.28 124.174 16.28V12.28C116.776 12.28 111.557 15.544 108.258 20.2314C105.02 24.8331 103.694 30.6991 103.694 36H107.694ZM172.387 23.7H174.387V21.7H172.387V23.7ZM171.367 23.7V21.7H170.447L169.848 22.3984L171.367 23.7ZM155.527 42.18L154.008 40.8784L151.178 44.18H155.527V42.18ZM172.387 43.38L171.644 45.237L174.387 46.3341V43.38H172.387ZM187.087 42.18H189.087V40.18H187.087V42.18ZM187.087 49.98V51.98H189.087V49.98H187.087ZM181.987 49.98V47.98H179.987V49.98H181.987ZM181.987 57V59H183.987V57H181.987ZM172.387 57H170.387V59H172.387V57ZM172.387 49.98H174.387V47.98H172.387V49.98ZM146.227 49.98H144.227V51.98H146.227V49.98ZM146.227 39.6L144.711 38.2951L144.227 38.8576V39.6H146.227ZM167.407 15V13H166.489L165.891 13.6951L167.407 15ZM181.987 15H183.987V13H181.987V15ZM181.987 42.18H179.987V44.18H181.987V42.18ZM172.387 21.7H171.367V25.7H172.387V21.7ZM169.848 22.3984L154.008 40.8784L157.045 43.4816L172.885 25.0016L169.848 22.3984ZM155.527 44.18H165.547V40.18H155.527V44.18ZM165.547 44.18C167.266 44.18 168.812 44.4496 169.933 44.723C170.49 44.859 170.934 44.9938 171.232 45.0919C171.38 45.1409 171.492 45.1806 171.562 45.2063C171.597 45.2192 171.622 45.2285 171.636 45.2338C171.642 45.2365 171.647 45.2381 171.648 45.2387C171.649 45.2389 171.649 45.2389 171.648 45.2387C171.648 45.2385 171.647 45.2383 171.646 45.238C171.646 45.2379 171.646 45.2377 171.645 45.2375C171.645 45.2374 171.645 45.2373 171.645 45.2373C171.644 45.2371 171.644 45.237 172.387 43.38C173.129 41.523 173.129 41.5229 173.129 41.5227C173.128 41.5226 173.128 41.5225 173.128 41.5224C173.127 41.5221 173.126 41.5218 173.126 41.5215C173.124 41.521 173.123 41.5203 173.121 41.5196C173.117 41.5182 173.113 41.5165 173.108 41.5145C173.097 41.5105 173.084 41.5054 173.068 41.4992C173.036 41.4869 172.993 41.4705 172.938 41.4506C172.83 41.4107 172.677 41.3566 172.484 41.2931C172.099 41.1662 171.553 41.001 170.88 40.837C169.541 40.5104 167.668 40.18 165.547 40.18V44.18ZM174.387 43.38V23.7H170.387V43.38H174.387ZM185.087 42.18V49.98H189.087V42.18H185.087ZM187.087 47.98H181.987V51.98H187.087V47.98ZM179.987 49.98V57H183.987V49.98H179.987ZM181.987 55H172.387V59H181.987V55ZM174.387 57V49.98H170.387V57H174.387ZM172.387 47.98H146.227V51.98H172.387V47.98ZM148.227 49.98V39.6H144.227V49.98H148.227ZM147.742 40.9049L168.922 16.3049L165.891 13.6951L144.711 38.2951L147.742 40.9049ZM167.407 17H181.987V13H167.407V17ZM179.987 15V42.18H183.987V15H179.987ZM181.987 44.18H187.087V40.18H181.987V44.18ZM236.412 15H238.412V13H236.412V15ZM236.412 23.7V25.7H238.412V23.7H236.412ZM218.592 23.7V21.7H216.592V23.7H218.592ZM218.592 31.26H216.592V33.26H218.592V31.26ZM234.432 31.26H236.432V29.26H234.432V31.26ZM234.432 39.66V41.66H236.432V39.66H234.432ZM218.592 39.66V37.66H216.592V39.66H218.592ZM218.592 48.3H216.592V50.3H218.592V48.3ZM236.412 48.3H238.412V46.3H236.412V48.3ZM236.412 57V59H238.412V57H236.412ZM208.992 57H206.992V59H208.992V57ZM208.992 15V13H206.992V15H208.992ZM234.412 15V23.7H238.412V15H234.412ZM236.412 21.7H218.592V25.7H236.412V21.7ZM216.592 23.7V31.26H220.592V23.7H216.592ZM218.592 33.26H234.432V29.26H218.592V33.26ZM232.432 31.26V39.66H236.432V31.26H232.432ZM234.432 37.66H218.592V41.66H234.432V37.66ZM216.592 39.66V48.3H220.592V39.66H216.592ZM218.592 50.3H236.412V46.3H218.592V50.3ZM234.412 48.3V57H238.412V48.3H234.412ZM236.412 55H208.992V59H236.412V55ZM210.992 57V15H206.992V57H210.992ZM208.992 17H236.412V13H208.992V17ZM267.434 27.72H269.434V25.72H267.434V27.72ZM267.434 36.42V38.42H269.434V36.42H267.434ZM255.194 57V59H257.194V57H255.194ZM245.594 57H243.594V59H245.594V57ZM240.614 36.42H238.614V38.42H240.614V36.42ZM240.614 27.72V25.72H238.614V27.72H240.614ZM252.794 39.06L250.833 38.6678L250.354 41.06H252.794V39.06ZM253.994 39.06V41.06H255.525L255.925 39.5818L253.994 39.06ZM265.434 27.72V36.42H269.434V27.72H265.434ZM267.434 34.42C262.41 34.42 258.764 36.3198 256.413 39.1971C254.115 42.0095 253.194 45.5803 253.194 48.78H257.194C257.194 46.2797 257.923 43.6705 259.51 41.7279C261.044 39.8502 263.518 38.42 267.434 38.42V34.42ZM253.194 48.78V57H257.194V48.78H253.194ZM255.194 55H245.594V59H255.194V55ZM247.594 57V37.62H243.594V57H247.594ZM247.594 37.62C247.594 36.8841 247.391 36.0038 246.701 35.3133C246.01 34.6228 245.13 34.42 244.394 34.42V38.42C244.438 38.42 244.158 38.4272 243.872 38.1417C243.587 37.8562 243.594 37.5759 243.594 37.62H247.594ZM244.394 34.42H240.614V38.42H244.394V34.42ZM242.614 36.42V27.72H238.614V36.42H242.614ZM240.614 29.72H250.574V25.72H240.614V29.72ZM250.574 29.72C251.214 29.72 251.58 29.8789 251.736 29.9982C251.804 30.0503 251.841 30.0996 251.867 30.1531C251.893 30.2086 251.934 30.3247 251.934 30.54H255.934C255.934 28.994 255.297 27.687 254.167 26.8218C253.108 26.0111 251.794 25.72 250.574 25.72V29.72ZM251.934 30.54C251.934 31.7712 251.675 33.7561 251.389 35.5409C251.25 36.4101 251.11 37.1946 251.005 37.7619C250.953 38.0453 250.91 38.2736 250.879 38.4302C250.864 38.5085 250.852 38.5689 250.844 38.6092C250.841 38.6293 250.838 38.6445 250.836 38.6543C250.835 38.6592 250.834 38.6628 250.833 38.6651C250.833 38.6662 250.833 38.667 250.833 38.6675C250.833 38.6677 250.833 38.6678 250.833 38.6679C250.833 38.6679 250.833 38.6679 250.833 38.6679C250.833 38.6678 250.833 38.6678 252.794 39.06C254.755 39.4522 254.755 39.4521 254.755 39.452C254.755 39.4519 254.755 39.4518 254.755 39.4516C254.755 39.4513 254.755 39.4509 254.756 39.4505C254.756 39.4495 254.756 39.4482 254.756 39.4466C254.757 39.4434 254.758 39.4388 254.759 39.4328C254.761 39.4209 254.765 39.4037 254.769 39.3814C254.778 39.3368 254.791 39.272 254.807 39.1889C254.839 39.0228 254.884 38.7838 254.939 38.4887C255.048 37.8991 255.193 37.0824 255.339 36.1741C255.623 34.4039 255.934 32.1288 255.934 30.54H251.934ZM252.794 41.06H253.994V37.06H252.794V41.06ZM255.925 39.5818C257.552 33.5608 261.658 29.72 267.434 29.72V25.72C259.41 25.72 254.036 31.2392 252.063 38.5382L255.925 39.5818ZM296.672 27.72H298.672V25.72H296.672V27.72ZM296.672 36.42V38.42H298.672V36.42H296.672ZM284.432 57V59H286.432V57H284.432ZM274.832 57H272.832V59H274.832V57ZM269.852 36.42H267.852V38.42H269.852V36.42ZM269.852 27.72V25.72H267.852V27.72H269.852ZM282.032 39.06L280.071 38.6678L279.593 41.06H282.032V39.06ZM283.232 39.06V41.06H284.764L285.163 39.5818L283.232 39.06ZM294.672 27.72V36.42H298.672V27.72H294.672ZM296.672 34.42C291.649 34.42 288.002 36.3198 285.651 39.1971C283.353 42.0095 282.432 45.5803 282.432 48.78H286.432C286.432 46.2797 287.161 43.6705 288.749 41.7279C290.283 39.8502 292.756 38.42 296.672 38.42V34.42ZM282.432 48.78V57H286.432V48.78H282.432ZM284.432 55H274.832V59H284.432V55ZM276.832 57V37.62H272.832V57H276.832ZM276.832 37.62C276.832 36.8841 276.63 36.0038 275.939 35.3133C275.249 34.6228 274.368 34.42 273.632 34.42V38.42C273.676 38.42 273.396 38.4272 273.111 38.1417C272.825 37.8562 272.832 37.5759 272.832 37.62H276.832ZM273.632 34.42H269.852V38.42H273.632V34.42ZM271.852 36.42V27.72H267.852V36.42H271.852ZM269.852 29.72H279.812V25.72H269.852V29.72ZM279.812 29.72C280.453 29.72 280.818 29.8789 280.974 29.9982C281.042 30.0503 281.079 30.0996 281.105 30.1531C281.132 30.2086 281.172 30.3247 281.172 30.54H285.172C285.172 28.994 284.536 27.687 283.405 26.8218C282.346 26.0111 281.032 25.72 279.812 25.72V29.72ZM281.172 30.54C281.172 31.7712 280.914 33.7561 280.628 35.5409C280.488 36.4101 280.349 37.1946 280.244 37.7619C280.191 38.0453 280.148 38.2736 280.118 38.4302C280.103 38.5085 280.091 38.5689 280.083 38.6092C280.079 38.6293 280.076 38.6445 280.074 38.6543C280.073 38.6592 280.072 38.6628 280.072 38.6651C280.071 38.6662 280.071 38.667 280.071 38.6675C280.071 38.6677 280.071 38.6678 280.071 38.6679C280.071 38.6679 280.071 38.6679 280.071 38.6679C280.071 38.6678 280.071 38.6678 282.032 39.06C283.993 39.4522 283.994 39.4521 283.994 39.452C283.994 39.4519 283.994 39.4518 283.994 39.4516C283.994 39.4513 283.994 39.4509 283.994 39.4505C283.994 39.4495 283.994 39.4482 283.995 39.4466C283.995 39.4434 283.996 39.4388 283.997 39.4328C284 39.4209 284.003 39.4037 284.008 39.3814C284.016 39.3368 284.029 39.272 284.045 39.1889C284.077 39.0228 284.123 38.7838 284.177 38.4887C284.286 37.8991 284.432 37.0824 284.577 36.1741C284.861 34.4039 285.172 32.1288 285.172 30.54H281.172ZM282.032 41.06H283.232V37.06H282.032V41.06ZM285.163 39.5818C286.79 33.5608 290.897 29.72 296.672 29.72V25.72C288.648 25.72 283.274 31.2392 281.302 38.5382L285.163 39.5818ZM314.345 52.7C317.597 52.7 319.958 51.2549 321.432 49.1337C322.842 47.105 323.365 44.5826 323.365 42.36H319.365C319.365 44.0374 318.958 45.685 318.147 46.8513C317.401 47.9251 316.252 48.7 314.345 48.7V52.7ZM323.365 42.36C323.365 40.1374 322.842 37.615 321.432 35.5863C319.958 33.4651 317.597 32.02 314.345 32.02V36.02C316.252 36.02 317.401 36.7949 318.147 37.8687C318.958 39.035 319.365 40.6826 319.365 42.36H323.365ZM314.345 32.02C311.095 32.02 308.723 33.4621 307.234 35.5759C305.808 37.602 305.265 40.1259 305.265 42.36H309.265C309.265 40.6941 309.682 39.048 310.505 37.8791C311.266 36.7979 312.434 36.02 314.345 36.02V32.02ZM305.265 42.36C305.265 44.5941 305.808 47.118 307.234 49.1441C308.723 51.2579 311.095 52.7 314.345 52.7V48.7C312.434 48.7 311.266 47.9221 310.505 46.8409C309.682 45.672 309.265 44.0259 309.265 42.36H305.265ZM314.345 29C319.307 29 322.517 30.8322 324.526 33.2906C326.588 35.8132 327.525 39.1738 327.525 42.36H331.525C331.525 38.4662 330.392 34.1468 327.623 30.7594C324.802 27.3078 320.423 25 314.345 25V29ZM327.525 42.36C327.525 45.5462 326.588 48.9068 324.526 51.4294C322.517 53.8878 319.307 55.72 314.345 55.72V59.72C320.423 59.72 324.802 57.4122 327.623 53.9606C330.392 50.5732 331.525 46.2538 331.525 42.36H327.525ZM314.345 55.72C309.349 55.72 306.124 53.8849 304.109 51.427C302.042 48.9053 301.105 45.5461 301.105 42.36H297.105C297.105 46.2539 298.238 50.5747 301.016 53.963C303.846 57.4151 308.241 59.72 314.345 59.72V55.72ZM301.105 42.36C301.105 39.1739 302.042 35.8147 304.109 33.293C306.124 30.8351 309.349 29 314.345 29V25C308.241 25 303.846 27.3049 301.016 30.757C298.238 34.1453 297.105 38.4661 297.105 42.36H301.105ZM358.489 27.72H360.489V25.72H358.489V27.72ZM358.489 36.42V38.42H360.489V36.42H358.489ZM346.249 57V59H348.249V57H346.249ZM336.649 57H334.649V59H336.649V57ZM331.669 36.42H329.669V38.42H331.669V36.42ZM331.669 27.72V25.72H329.669V27.72H331.669ZM343.849 39.06L341.888 38.6678L341.409 41.06H343.849V39.06ZM345.049 39.06V41.06H346.58L346.979 39.5818L345.049 39.06ZM356.489 27.72V36.42H360.489V27.72H356.489ZM358.489 34.42C353.465 34.42 349.818 36.3198 347.467 39.1971C345.17 42.0095 344.249 45.5803 344.249 48.78H348.249C348.249 46.2797 348.978 43.6705 350.565 41.7279C352.099 39.8502 354.573 38.42 358.489 38.42V34.42ZM344.249 48.78V57H348.249V48.78H344.249ZM346.249 55H336.649V59H346.249V55ZM338.649 57V37.62H334.649V57H338.649ZM338.649 37.62C338.649 36.8841 338.446 36.0038 337.755 35.3133C337.065 34.6228 336.185 34.42 335.449 34.42V38.42C335.493 38.42 335.213 38.4272 334.927 38.1417C334.642 37.8562 334.649 37.5759 334.649 37.62H338.649ZM335.449 34.42H331.669V38.42H335.449V34.42ZM333.669 36.42V27.72H329.669V36.42H333.669ZM331.669 29.72H341.629V25.72H331.669V29.72ZM341.629 29.72C342.269 29.72 342.635 29.8789 342.791 29.9982C342.859 30.0503 342.896 30.0996 342.921 30.1531C342.948 30.2086 342.989 30.3247 342.989 30.54H346.989C346.989 28.994 346.352 27.687 345.222 26.8218C344.163 26.0111 342.848 25.72 341.629 25.72V29.72ZM342.989 30.54C342.989 31.7712 342.73 33.7561 342.444 35.5409C342.305 36.4101 342.165 37.1946 342.06 37.7619C342.008 38.0453 341.964 38.2736 341.934 38.4302C341.919 38.5085 341.907 38.5689 341.899 38.6092C341.895 38.6293 341.892 38.6445 341.89 38.6543C341.889 38.6592 341.889 38.6628 341.888 38.6651C341.888 38.6662 341.888 38.667 341.888 38.6675C341.888 38.6677 341.888 38.6678 341.888 38.6679C341.888 38.6679 341.888 38.6679 341.888 38.6679C341.888 38.6678 341.888 38.6678 343.849 39.06C345.81 39.4522 345.81 39.4521 345.81 39.452C345.81 39.4519 345.81 39.4518 345.81 39.4516C345.81 39.4513 345.81 39.4509 345.81 39.4505C345.81 39.4495 345.811 39.4482 345.811 39.4466C345.812 39.4434 345.813 39.4388 345.814 39.4328C345.816 39.4209 345.82 39.4037 345.824 39.3814C345.833 39.3368 345.845 39.272 345.861 39.1889C345.894 39.0228 345.939 38.7838 345.994 38.4887C346.103 37.8991 346.248 37.0824 346.394 36.1741C346.677 34.4039 346.989 32.1288 346.989 30.54H342.989ZM343.849 41.06H345.049V37.06H343.849V41.06ZM346.979 39.5818C348.607 33.5608 352.713 29.72 358.489 29.72V25.72C350.464 25.72 345.091 31.2392 343.118 38.5382L346.979 39.5818Z" fill="#191919" mask="url(#path-3-outside-1_376_3111)"/>
</g>
<path d="M400 19.25C389.645 19.25 381.25 27.6447 381.25 38C381.25 48.3553 389.645 56.75 400 56.75C410.355 56.75 418.75 48.3553 418.75 38C418.75 27.6447 410.355 19.25 400 19.25ZM411.49 49.4905C408.641 52.3312 404.837 54.0093 400.818 54.198C396.799 54.3866 392.853 53.0723 389.751 50.511C386.648 47.9497 384.61 44.325 384.034 40.3432C383.457 36.3613 384.384 32.3075 386.634 28.9717C388.883 25.6359 392.294 23.257 396.201 22.2986C400.109 21.3402 404.233 21.8709 407.771 23.7873C411.308 25.7038 414.006 28.8686 415.337 32.6652C416.669 36.4618 416.54 40.6182 414.974 44.3245C414.158 46.2557 412.975 48.0101 411.49 49.4905Z" fill="#191919"/>
<path d="M393.123 43.0004H406.873V45.5004H393.123V43.0004ZM396.454 35.8162L394.576 34.1466L396.245 32.2684L394.377 30.6074L392.707 32.4857L390.829 30.8162L389.168 32.6846L391.046 34.3542L389.377 36.2324L391.245 37.8934L392.915 36.0151L394.793 37.6846L396.454 35.8162ZM409.995 32.2684L408.127 30.6074L406.457 32.4857L404.579 30.8162L402.918 32.6846L404.796 34.3542L403.127 36.2324L404.995 37.8934L406.665 36.0151L408.543 37.6846L410.204 35.8162L408.326 34.1466L409.995 32.2684Z" fill="#191919"/>
<defs>
<filter id="filter0_d_376_3111" x="61.793" y="14.2793" width="297.695" height="45.4414" filterUnits="userSpaceOnUse" color-interpolation-filters="sRGB">
<feFlood flood-opacity="0" result="BackgroundImageFix"/>
<feColorMatrix in="SourceAlpha" type="matrix" values="0 0 0 0 0 0 0 0 0 0 0 0 0 0 0 0 0 0 127 0" result="hardAlpha"/>
<feOffset dx="1" dy="2"/>
<feComposite in2="hardAlpha" operator="out"/>
<feColorMatrix type="matrix" values="0 0 0 0 0 0 0 0 0 0 0 0 0 0 0 0 0 0 1 0"/>
<feBlend mode="normal" in2="BackgroundImageFix" result="effect1_dropShadow_376_3111"/>
<feBlend mode="normal" in="SourceGraphic" in2="effect1_dropShadow_376_3111" result="shape"/>
</filter>
</defs>
</svg>
