<svg width="418" height="50" viewBox="0 0 418 50" fill="none" xmlns="http://www.w3.org/2000/svg">
<path d="M18.75 7.25C8.39469 7.25 0 15.6447 0 26C0 36.3553 8.39469 44.75 18.75 44.75C29.1053 44.75 37.5 36.3553 37.5 26C37.5 15.6447 29.1053 7.25 18.75 7.25ZM30.2405 37.4905C27.3913 40.3312 23.5866 42.0093 19.5676 42.198C15.5487 42.3866 11.6035 41.0723 8.50073 38.511C5.39795 35.9497 3.35989 32.325 2.78366 28.3432C2.20743 24.3613 3.1343 20.3075 5.38368 16.9717C7.63307 13.6359 11.0438 11.257 14.9513 10.2986C18.8589 9.3402 22.9833 9.8709 26.5209 11.7873C30.0585 13.7038 32.7559 16.8686 34.0875 20.6652C35.4191 24.4618 35.2895 28.6182 33.724 32.3245C32.9081 34.2557 31.725 36.0101 30.2405 37.4905Z" fill="#191919"/>
<path d="M11.8734 31.0004H25.6234V33.5004H11.8734V31.0004ZM15.2039 23.8162L13.3256 22.1466L14.9952 20.2684L13.1267 18.6074L11.4571 20.4857L9.5789 18.8162L7.91797 20.6846L9.7962 22.3542L8.12672 24.2324L9.9952 25.8934L11.6648 24.0151L13.543 25.6846L15.2039 23.8162ZM28.7452 20.2684L26.8767 18.6074L25.2071 20.4857L23.3289 18.8162L21.668 20.6846L23.5462 22.3542L21.8767 24.2324L23.7452 25.8934L25.4148 24.0151L27.293 25.6846L28.9539 23.8162L27.0756 22.1466L28.7452 20.2684Z" fill="#191919"/>
<g filter="url(#filter0_d_2061_63160)">
<path d="M86.703 11.6993H85.683L69.843 30.1793H79.863C83.703 30.1793 86.703 31.3793 86.703 31.3793V11.6993ZM101.403 30.1793V37.9793H96.303V44.9993H86.703V37.9793H60.543V27.5993L81.723 2.9993H96.303V30.1793H101.403ZM122.924 37.0193C129.404 37.0193 131.804 30.0593 131.804 23.9993C131.804 17.9393 129.404 10.9793 122.924 10.9793C116.444 10.9793 114.044 17.9393 114.044 23.9993C114.044 30.0593 116.444 37.0193 122.924 37.0193ZM122.924 2.2793C136.364 2.2793 141.404 13.9793 141.404 23.9993C141.404 34.0193 136.364 45.7193 122.924 45.7193C109.484 45.7193 104.444 34.0193 104.444 23.9993C104.444 13.9793 109.484 2.2793 122.924 2.2793ZM171.137 11.6993H170.117L154.277 30.1793H164.297C168.137 30.1793 171.137 31.3793 171.137 31.3793V11.6993ZM185.837 30.1793V37.9793H180.737V44.9993H171.137V37.9793H144.977V27.5993L166.157 2.9993H180.737V30.1793H185.837ZM235.162 2.9993V11.6993H217.342V19.2593H233.182V27.6593H217.342V36.2993H235.162V44.9993H207.742V2.9993H235.162ZM266.184 15.7193V24.4193C257.244 24.4193 253.944 31.0793 253.944 36.7793V44.9993H244.344V25.6193C244.344 24.8393 243.924 24.4193 243.144 24.4193H239.364V15.7193H249.324C251.184 15.7193 252.684 16.6193 252.684 18.5393C252.684 21.3593 251.544 27.0593 251.544 27.0593H252.744C254.544 20.3993 259.284 15.7193 266.184 15.7193ZM295.422 15.7193V24.4193C286.482 24.4193 283.182 31.0793 283.182 36.7793V44.9993H273.582V25.6193C273.582 24.8393 273.162 24.4193 272.382 24.4193H268.602V15.7193H278.562C280.422 15.7193 281.922 16.6193 281.922 18.5393C281.922 21.3593 280.782 27.0593 280.782 27.0593H281.982C283.782 20.3993 288.522 15.7193 295.422 15.7193ZM313.095 38.6993C318.255 38.6993 320.115 34.2593 320.115 30.3593C320.115 26.4593 318.255 22.0193 313.095 22.0193C307.935 22.0193 306.015 26.4593 306.015 30.3593C306.015 34.2593 307.935 38.6993 313.095 38.6993ZM313.095 14.9993C324.135 14.9993 328.275 23.2793 328.275 30.3593C328.275 37.4393 324.135 45.7193 313.095 45.7193C301.995 45.7193 297.855 37.4393 297.855 30.3593C297.855 23.2793 301.995 14.9993 313.095 14.9993ZM357.239 15.7193V24.4193C348.299 24.4193 344.999 31.0793 344.999 36.7793V44.9993H335.399V25.6193C335.399 24.8393 334.979 24.4193 334.199 24.4193H330.419V15.7193H340.379C342.239 15.7193 343.739 16.6193 343.739 18.5393C343.739 21.3593 342.599 27.0593 342.599 27.0593H343.799C345.599 20.3993 350.339 15.7193 357.239 15.7193Z" fill="#9747FF"/>
<mask id="mask0_2061_63160" style="mask-type:luminance" maskUnits="userSpaceOnUse" x="57" y="0" width="303" height="48">
<path d="M359.75 0H57.75V48H359.75V0Z" fill="white"/>
<path d="M86.703 11.6993H85.683L69.843 30.1793H79.863C83.703 30.1793 86.703 31.3793 86.703 31.3793V11.6993ZM101.403 30.1793V37.9793H96.303V44.9993H86.703V37.9793H60.543V27.5993L81.723 2.9993H96.303V30.1793H101.403ZM122.924 37.0193C129.404 37.0193 131.804 30.0593 131.804 23.9993C131.804 17.9393 129.404 10.9793 122.924 10.9793C116.444 10.9793 114.044 17.9393 114.044 23.9993C114.044 30.0593 116.444 37.0193 122.924 37.0193ZM122.924 2.2793C136.364 2.2793 141.404 13.9793 141.404 23.9993C141.404 34.0193 136.364 45.7193 122.924 45.7193C109.484 45.7193 104.444 34.0193 104.444 23.9993C104.444 13.9793 109.484 2.2793 122.924 2.2793ZM171.137 11.6993H170.117L154.277 30.1793H164.297C168.137 30.1793 171.137 31.3793 171.137 31.3793V11.6993ZM185.837 30.1793V37.9793H180.737V44.9993H171.137V37.9793H144.977V27.5993L166.157 2.9993H180.737V30.1793H185.837ZM235.162 2.9993V11.6993H217.342V19.2593H233.182V27.6593H217.342V36.2993H235.162V44.9993H207.742V2.9993H235.162ZM266.184 15.7193V24.4193C257.244 24.4193 253.944 31.0793 253.944 36.7793V44.9993H244.344V25.6193C244.344 24.8393 243.924 24.4193 243.144 24.4193H239.364V15.7193H249.324C251.184 15.7193 252.684 16.6193 252.684 18.5393C252.684 21.3593 251.544 27.0593 251.544 27.0593H252.744C254.544 20.3993 259.284 15.7193 266.184 15.7193ZM295.422 15.7193V24.4193C286.482 24.4193 283.182 31.0793 283.182 36.7793V44.9993H273.582V25.6193C273.582 24.8393 273.162 24.4193 272.382 24.4193H268.602V15.7193H278.562C280.422 15.7193 281.922 16.6193 281.922 18.5393C281.922 21.3593 280.782 27.0593 280.782 27.0593H281.982C283.782 20.3993 288.522 15.7193 295.422 15.7193ZM313.095 38.6993C318.255 38.6993 320.115 34.2593 320.115 30.3593C320.115 26.4593 318.255 22.0193 313.095 22.0193C307.935 22.0193 306.015 26.4593 306.015 30.3593C306.015 34.2593 307.935 38.6993 313.095 38.6993ZM313.095 14.9993C324.135 14.9993 328.275 23.2793 328.275 30.3593C328.275 37.4393 324.135 45.7193 313.095 45.7193C301.995 45.7193 297.855 37.4393 297.855 30.3593C297.855 23.2793 301.995 14.9993 313.095 14.9993ZM357.239 15.7193V24.4193C348.299 24.4193 344.999 31.0793 344.999 36.7793V44.9993H335.399V25.6193C335.399 24.8393 334.979 24.4193 334.199 24.4193H330.419V15.7193H340.379C342.239 15.7193 343.739 16.6193 343.739 18.5393C343.739 21.3593 342.599 27.0593 342.599 27.0593H343.799C345.599 20.3993 350.339 15.7193 357.239 15.7193Z" fill="black"/>
</mask>
<g mask="url(#mask0_2061_63160)">
<path d="M86.703 11.6993H88.703V9.6993H86.703V11.6993ZM85.683 11.6993V9.6993H84.7631L84.1645 10.3977L85.683 11.6993ZM69.843 30.1793L68.3245 28.8777L65.4945 32.1793H69.843V30.1793ZM86.703 31.3793L85.9602 33.2363L88.703 34.3334V31.3793H86.703ZM101.403 30.1793H103.403V28.1793H101.403V30.1793ZM101.403 37.9793V39.9793H103.403V37.9793H101.403ZM96.303 37.9793V35.9793H94.303V37.9793H96.303ZM96.303 44.9993V46.9993H98.303V44.9993H96.303ZM86.703 44.9993H84.703V46.9993H86.703V44.9993ZM86.703 37.9793H88.703V35.9793H86.703V37.9793ZM60.543 37.9793H58.543V39.9793H60.543V37.9793ZM60.543 27.5993L59.0273 26.2944L58.543 26.8569V27.5993H60.543ZM81.723 2.9993V0.999297H80.8058L80.2073 1.6944L81.723 2.9993ZM96.303 2.9993H98.303V0.999297H96.303V2.9993ZM96.303 30.1793H94.303V32.1793H96.303V30.1793ZM86.703 9.6993H85.683V13.6993H86.703V9.6993ZM84.1645 10.3977L68.3245 28.8777L71.3615 31.4809L87.2015 13.0009L84.1645 10.3977ZM69.843 32.1793H79.863V28.1793H69.843V32.1793ZM79.863 32.1793C81.582 32.1793 83.1281 32.4489 84.2491 32.7223C84.8064 32.8583 85.2504 32.9931 85.548 33.0912C85.6966 33.1402 85.8081 33.1799 85.8783 33.2056C85.9134 33.2185 85.9382 33.2278 85.952 33.2331C85.9589 33.2358 85.9631 33.2374 85.9645 33.238C85.9652 33.2382 85.9652 33.2382 85.9645 33.238C85.9641 33.2378 85.9636 33.2376 85.9629 33.2373C85.9625 33.2372 85.9621 33.237 85.9617 33.2368C85.9618 33.2368 85.9614 33.2368 85.9617 33.2368C85.9613 33.2366 85.9602 33.2363 86.703 31.3793C87.4458 29.5223 87.4453 29.5222 87.4449 29.522C87.4452 29.5221 87.4448 29.5219 87.4449 29.522C87.4443 29.5217 87.4427 29.5211 87.442 29.5208C87.4405 29.5203 87.4389 29.5196 87.4371 29.5189C87.4335 29.5175 87.4291 29.5158 87.424 29.5138C87.4138 29.5098 87.4007 29.5047 87.3847 29.4985C87.3527 29.4862 87.3092 29.4698 87.2548 29.4499C87.1459 29.41 86.9931 29.3559 86.8004 29.2924C86.4156 29.1655 85.8695 29.0003 85.1969 28.8363C83.8578 28.5097 81.984 28.1793 79.863 28.1793V32.1793ZM88.703 31.3793V11.6993H84.703V31.3793H88.703ZM99.403 30.1793V37.9793H103.403V30.1793H99.403ZM101.403 35.9793H96.303V39.9793H101.403V35.9793ZM94.303 37.9793V44.9993H98.303V37.9793H94.303ZM96.303 42.9993H86.703V46.9993H96.303V42.9993ZM88.703 44.9993V37.9793H84.703V44.9993H88.703ZM86.703 35.9793H60.543V39.9793H86.703V35.9793ZM62.543 37.9793V27.5993H58.543V37.9793H62.543ZM62.0586 28.9042L83.2386 4.3042L80.2073 1.6944L59.0273 26.2944L62.0586 28.9042ZM81.723 4.9993H96.303V0.999297H81.723V4.9993ZM94.303 2.9993V30.1793H98.303V2.9993H94.303ZM96.303 32.1793H101.403V28.1793H96.303V32.1793ZM122.924 39.0193C127.042 39.0193 129.855 36.7411 131.535 33.7651C133.169 30.8718 133.804 27.2441 133.804 23.9993H129.804C129.804 26.8145 129.239 29.6968 128.052 31.7985C126.912 33.8175 125.285 35.0193 122.924 35.0193V39.0193ZM133.804 23.9993C133.804 20.7545 133.169 17.1268 131.535 14.2335C129.855 11.2575 127.042 8.9793 122.924 8.9793V12.9793C125.285 12.9793 126.912 14.1811 128.052 16.2001C129.239 18.3018 129.804 21.1841 129.804 23.9993H133.804ZM122.924 8.9793C118.805 8.9793 115.992 11.2575 114.312 14.2335C112.679 17.1268 112.044 20.7545 112.044 23.9993H116.044C116.044 21.1841 116.609 18.3018 117.795 16.2001C118.935 14.1811 120.562 12.9793 122.924 12.9793V8.9793ZM112.044 23.9993C112.044 27.2441 112.679 30.8718 114.312 33.7651C115.992 36.7411 118.805 39.0193 122.924 39.0193V35.0193C120.562 35.0193 118.935 33.8175 117.795 31.7985C116.609 29.6968 116.044 26.8145 116.044 23.9993H112.044ZM122.924 4.2793C128.966 4.2793 132.987 6.8653 135.568 10.5329C138.21 14.2862 139.404 19.2802 139.404 23.9993H143.404C143.404 18.6984 142.078 12.8324 138.839 8.2307C135.54 3.5433 130.321 0.279297 122.924 0.279297V4.2793ZM139.404 23.9993C139.404 28.7184 138.21 33.7124 135.568 37.4657C132.987 41.1333 128.966 43.7193 122.924 43.7193V47.7193C130.321 47.7193 135.54 44.4553 138.839 39.7679C142.078 35.1662 143.404 29.3002 143.404 23.9993H139.404ZM122.924 43.7193C116.881 43.7193 112.86 41.1333 110.279 37.4657C107.638 33.7124 106.444 28.7184 106.444 23.9993H102.444C102.444 29.3002 103.77 35.1662 107.008 39.7679C110.307 44.4553 115.526 47.7193 122.924 47.7193V43.7193ZM106.444 23.9993C106.444 19.2802 107.638 14.2862 110.279 10.5329C112.86 6.8653 116.881 4.2793 122.924 4.2793V0.279297C115.526 0.279297 110.307 3.5433 107.008 8.2307C103.77 12.8324 102.444 18.6984 102.444 23.9993H106.444ZM171.137 11.6993H173.137V9.6993H171.137V11.6993ZM170.117 11.6993V9.6993H169.197L168.598 10.3977L170.117 11.6993ZM154.277 30.1793L152.758 28.8777L149.928 32.1793H154.277V30.1793ZM171.137 31.3793L170.394 33.2363L173.137 34.3334V31.3793H171.137ZM185.837 30.1793H187.837V28.1793H185.837V30.1793ZM185.837 37.9793V39.9793H187.837V37.9793H185.837ZM180.737 37.9793V35.9793H178.737V37.9793H180.737ZM180.737 44.9993V46.9993H182.737V44.9993H180.737ZM171.137 44.9993H169.137V46.9993H171.137V44.9993ZM171.137 37.9793H173.137V35.9793H171.137V37.9793ZM144.977 37.9793H142.977V39.9793H144.977V37.9793ZM144.977 27.5993L143.461 26.2944L142.977 26.8569V27.5993H144.977ZM166.157 2.9993V0.999297H165.239L164.641 1.6944L166.157 2.9993ZM180.737 2.9993H182.737V0.999297H180.737V2.9993ZM180.737 30.1793H178.737V32.1793H180.737V30.1793ZM171.137 9.6993H170.117V13.6993H171.137V9.6993ZM168.598 10.3977L152.758 28.8777L155.795 31.4809L171.635 13.0009L168.598 10.3977ZM154.277 32.1793H164.297V28.1793H154.277V32.1793ZM164.297 32.1793C166.016 32.1793 167.562 32.4489 168.683 32.7223C169.24 32.8583 169.684 32.9931 169.982 33.0912C170.13 33.1402 170.242 33.1799 170.312 33.2056C170.347 33.2185 170.372 33.2278 170.386 33.2331C170.392 33.2358 170.397 33.2374 170.398 33.238C170.399 33.2382 170.399 33.2382 170.398 33.238C170.398 33.2378 170.397 33.2376 170.396 33.2373C170.396 33.2372 170.396 33.237 170.395 33.2368C170.394 33.2366 170.394 33.2363 171.137 31.3793C171.879 29.5223 171.879 29.5222 171.879 29.522C171.878 29.5219 171.878 29.5218 171.878 29.5217C171.877 29.5214 171.876 29.5211 171.876 29.5208C171.874 29.5203 171.873 29.5196 171.871 29.5189C171.867 29.5175 171.863 29.5158 171.858 29.5138C171.847 29.5098 171.834 29.5047 171.818 29.4985C171.786 29.4862 171.743 29.4698 171.688 29.4499C171.58 29.41 171.427 29.3559 171.234 29.2924C170.849 29.1655 170.303 29.0003 169.63 28.8363C168.291 28.5097 166.418 28.1793 164.297 28.1793V32.1793ZM173.137 31.3793V11.6993H169.137V31.3793H173.137ZM183.837 30.1793V37.9793H187.837V30.1793H183.837ZM185.837 35.9793H180.737V39.9793H185.837V35.9793ZM178.737 37.9793V44.9993H182.737V37.9793H178.737ZM180.737 42.9993H171.137V46.9993H180.737V42.9993ZM173.137 44.9993V37.9793H169.137V44.9993H173.137ZM171.137 35.9793H144.977V39.9793H171.137V35.9793ZM146.977 37.9793V27.5993H142.977V37.9793H146.977ZM146.492 28.9042L167.672 4.3042L164.641 1.6944L143.461 26.2944L146.492 28.9042ZM166.157 4.9993H180.737V0.999297H166.157V4.9993ZM178.737 2.9993V30.1793H182.737V2.9993H178.737ZM180.737 32.1793H185.837V28.1793H180.737V32.1793ZM235.162 2.9993H237.162V0.999297H235.162V2.9993ZM235.162 11.6993V13.6993H237.162V11.6993H235.162ZM217.342 11.6993V9.6993H215.342V11.6993H217.342ZM217.342 19.2593H215.342V21.2593H217.342V19.2593ZM233.182 19.2593H235.182V17.2593H233.182V19.2593ZM233.182 27.6593V29.6593H235.182V27.6593H233.182ZM217.342 27.6593V25.6593H215.342V27.6593H217.342ZM217.342 36.2993H215.342V38.2993H217.342V36.2993ZM235.162 36.2993H237.162V34.2993H235.162V36.2993ZM235.162 44.9993V46.9993H237.162V44.9993H235.162ZM207.742 44.9993H205.742V46.9993H207.742V44.9993ZM207.742 2.9993V0.999297H205.742V2.9993H207.742ZM233.162 2.9993V11.6993H237.162V2.9993H233.162ZM235.162 9.6993H217.342V13.6993H235.162V9.6993ZM215.342 11.6993V19.2593H219.342V11.6993H215.342ZM217.342 21.2593H233.182V17.2593H217.342V21.2593ZM231.182 19.2593V27.6593H235.182V19.2593H231.182ZM233.182 25.6593H217.342V29.6593H233.182V25.6593ZM215.342 27.6593V36.2993H219.342V27.6593H215.342ZM217.342 38.2993H235.162V34.2993H217.342V38.2993ZM233.162 36.2993V44.9993H237.162V36.2993H233.162ZM235.162 42.9993H207.742V46.9993H235.162V42.9993ZM209.742 44.9993V2.9993H205.742V44.9993H209.742ZM207.742 4.9993H235.162V0.999297H207.742V4.9993ZM266.184 15.7193H268.184V13.7193H266.184V15.7193ZM266.184 24.4193V26.4193H268.184V24.4193H266.184ZM253.944 44.9993V46.9993H255.944V44.9993H253.944ZM244.344 44.9993H242.344V46.9993H244.344V44.9993ZM239.364 24.4193H237.364V26.4193H239.364V24.4193ZM239.364 15.7193V13.7193H237.364V15.7193H239.364ZM251.544 27.0593L249.583 26.6671L249.104 29.0593H251.544V27.0593ZM252.744 27.0593V29.0593H254.275L254.675 27.5811L252.744 27.0593ZM264.184 15.7193V24.4193H268.184V15.7193H264.184ZM266.184 22.4193C261.16 22.4193 257.514 24.3191 255.163 27.1964C252.865 30.0088 251.944 33.5796 251.944 36.7793H255.944C255.944 34.279 256.673 31.6698 258.26 29.7272C259.794 27.8495 262.268 26.4193 266.184 26.4193V22.4193ZM251.944 36.7793V44.9993H255.944V36.7793H251.944ZM253.944 42.9993H244.344V46.9993H253.944V42.9993ZM246.344 44.9993V25.6193H242.344V44.9993H246.344ZM246.344 25.6193C246.344 24.8834 246.141 24.0031 245.451 23.3126C244.76 22.6221 243.88 22.4193 243.144 22.4193V26.4193C243.188 26.4193 242.908 26.4265 242.622 26.141C242.337 25.8555 242.344 25.5752 242.344 25.6193H246.344ZM243.144 22.4193H239.364V26.4193H243.144V22.4193ZM241.364 24.4193V15.7193H237.364V24.4193H241.364ZM239.364 17.7193H249.324V13.7193H239.364V17.7193ZM249.324 17.7193C249.964 17.7193 250.33 17.8782 250.486 17.9975C250.554 18.0496 250.591 18.0989 250.617 18.1524C250.643 18.2079 250.684 18.324 250.684 18.5393H254.684C254.684 16.9933 254.047 15.6863 252.917 14.8211C251.858 14.0104 250.544 13.7193 249.324 13.7193V17.7193ZM250.684 18.5393C250.684 19.7705 250.425 21.7554 250.139 23.5402C250 24.4094 249.86 25.1939 249.755 25.7612C249.703 26.0446 249.66 26.2729 249.629 26.4295C249.614 26.5078 249.602 26.5682 249.594 26.6085C249.591 26.6286 249.588 26.6438 249.586 26.6536C249.585 26.6585 249.584 26.6621 249.583 26.6644C249.583 26.6655 249.583 26.6666 249.583 26.6671C249.583 26.667 249.583 26.6673 249.583 26.6671C249.583 26.667 249.583 26.6671 251.544 27.0593C253.505 27.4515 253.505 27.4514 253.505 27.4513C253.505 27.4515 253.505 27.4512 253.505 27.4513C253.505 27.451 253.505 27.4502 253.506 27.4498C253.506 27.4488 253.506 27.4475 253.506 27.4459C253.507 27.4427 253.508 27.4381 253.509 27.4321C253.511 27.4202 253.515 27.403 253.519 27.3807C253.528 27.3361 253.541 27.2713 253.557 27.1882C253.589 27.0221 253.634 26.7831 253.689 26.488C253.798 25.8984 253.943 25.0817 254.089 24.1734C254.373 22.4032 254.684 20.1281 254.684 18.5393H250.684ZM251.544 29.0593H252.744V25.0593H251.544V29.0593ZM254.675 27.5811C256.302 21.5601 260.408 17.7193 266.184 17.7193V13.7193C258.16 13.7193 252.786 19.2385 250.813 26.5375L254.675 27.5811ZM295.422 15.7193H297.422V13.7193H295.422V15.7193ZM295.422 24.4193V26.4193H297.422V24.4193H295.422ZM283.182 44.9993V46.9993H285.182V44.9993H283.182ZM273.582 44.9993H271.582V46.9993H273.582V44.9993ZM268.602 24.4193H266.602V26.4193H268.602V24.4193ZM268.602 15.7193V13.7193H266.602V15.7193H268.602ZM280.782 27.0593L278.821 26.6671L278.343 29.0593H280.782V27.0593ZM281.982 27.0593V29.0593H283.514L283.913 27.5811L281.982 27.0593ZM293.422 15.7193V24.4193H297.422V15.7193H293.422ZM295.422 22.4193C290.399 22.4193 286.752 24.3191 284.401 27.1964C282.103 30.0088 281.182 33.5796 281.182 36.7793H285.182C285.182 34.279 285.911 31.6698 287.499 29.7272C289.033 27.8495 291.506 26.4193 295.422 26.4193V22.4193ZM281.182 36.7793V44.9993H285.182V36.7793H281.182ZM283.182 42.9993H273.582V46.9993H283.182V42.9993ZM275.582 44.9993V25.6193H271.582V44.9993H275.582ZM275.582 25.6193C275.582 24.8834 275.38 24.0031 274.689 23.3126C273.999 22.6221 273.118 22.4193 272.382 22.4193V26.4193C272.426 26.4193 272.146 26.4265 271.861 26.141C271.575 25.8555 271.582 25.5752 271.582 25.6193H275.582ZM272.382 22.4193H268.602V26.4193H272.382V22.4193ZM270.602 24.4193V15.7193H266.602V24.4193H270.602ZM268.602 17.7193H278.562V13.7193H268.602V17.7193ZM278.562 17.7193C279.203 17.7193 279.568 17.8782 279.724 17.9975C279.792 18.0496 279.829 18.0989 279.855 18.1524C279.882 18.2079 279.922 18.324 279.922 18.5393H283.922C283.922 16.9933 283.286 15.6863 282.155 14.8211C281.096 14.0104 279.782 13.7193 278.562 13.7193V17.7193ZM279.922 18.5393C279.922 19.7705 279.664 21.7554 279.378 23.5402C279.238 24.4094 279.099 25.1939 278.994 25.7612C278.941 26.0446 278.898 26.2729 278.868 26.4295C278.853 26.5078 278.841 26.5682 278.833 26.6085C278.829 26.6286 278.826 26.6438 278.824 26.6536C278.823 26.6585 278.822 26.6621 278.822 26.6644C278.821 26.6655 278.821 26.6666 278.821 26.6671C278.821 26.667 278.821 26.6673 278.821 26.6671C278.821 26.667 278.821 26.6671 280.782 27.0593C282.744 27.4515 282.744 27.4514 282.744 27.4513C282.744 27.4515 282.744 27.4512 282.744 27.4513C282.744 27.451 282.744 27.4502 282.744 27.4498C282.744 27.4488 282.744 27.4475 282.745 27.4459C282.745 27.4427 282.746 27.4381 282.747 27.4321C282.75 27.4202 282.753 27.403 282.758 27.3807C282.766 27.3361 282.779 27.2713 282.795 27.1882C282.827 27.0221 282.873 26.7831 282.927 26.488C283.036 25.8984 283.181 25.0817 283.327 24.1734C283.611 22.4032 283.922 20.1281 283.922 18.5393H279.922ZM280.782 29.0593H281.982V25.0593H280.782V29.0593ZM283.913 27.5811C285.54 21.5601 289.647 17.7193 295.422 17.7193V13.7193C287.398 13.7193 282.024 19.2385 280.052 26.5375L283.913 27.5811ZM313.095 40.6993C316.347 40.6993 318.708 39.2542 320.182 37.133C321.592 35.1043 322.115 32.5819 322.115 30.3593H318.115C318.115 32.0367 317.708 33.6843 316.897 34.8506C316.151 35.9244 315.002 36.6993 313.095 36.6993V40.6993ZM322.115 30.3593C322.115 28.1367 321.592 25.6143 320.182 23.5856C318.708 21.4644 316.347 20.0193 313.095 20.0193V24.0193C315.002 24.0193 316.151 24.7942 316.897 25.868C317.708 27.0343 318.115 28.6819 318.115 30.3593H322.115ZM313.095 20.0193C309.845 20.0193 307.473 21.4614 305.984 23.5752C304.558 25.6013 304.015 28.1252 304.015 30.3593H308.015C308.015 28.6934 308.432 27.0473 309.255 25.8784C310.016 24.7972 311.184 24.0193 313.095 24.0193V20.0193ZM304.015 30.3593C304.015 32.5934 304.558 35.1173 305.984 37.1434C307.473 39.2572 309.845 40.6993 313.095 40.6993V36.6993C311.184 36.6993 310.016 35.9214 309.255 34.8402C308.432 33.6713 308.015 32.0252 308.015 30.3593H304.015ZM313.095 16.9993C318.057 16.9993 321.267 18.8315 323.276 21.2899C325.338 23.8125 326.275 27.1731 326.275 30.3593H330.275C330.275 26.4655 329.142 22.1461 326.373 18.7587C323.552 15.3071 319.173 12.9993 313.095 12.9993V16.9993ZM326.275 30.3593C326.275 33.5455 325.338 36.9061 323.276 39.4287C321.267 41.8871 318.057 43.7193 313.095 43.7193V47.7193C319.173 47.7193 323.552 45.4115 326.373 41.9599C329.142 38.5725 330.275 34.2531 330.275 30.3593H326.275ZM313.095 43.7193C308.099 43.7193 304.874 41.8842 302.859 39.4263C300.792 36.9046 299.855 33.5454 299.855 30.3593H295.855C295.855 34.2532 296.988 38.574 299.765 41.9623C302.596 45.4144 306.991 47.7193 313.095 47.7193V43.7193ZM299.855 30.3593C299.855 27.1732 300.792 23.814 302.859 21.2923C304.874 18.8344 308.099 16.9993 313.095 16.9993V12.9993C306.991 12.9993 302.596 15.3042 299.765 18.7563C296.988 22.1446 295.855 26.4654 295.855 30.3593H299.855ZM357.239 15.7193H359.239V13.7193H357.239V15.7193ZM357.239 24.4193V26.4193H359.239V24.4193H357.239ZM344.999 44.9993V46.9993H346.999V44.9993H344.999ZM335.399 44.9993H333.399V46.9993H335.399V44.9993ZM330.419 24.4193H328.419V26.4193H330.419V24.4193ZM330.419 15.7193V13.7193H328.419V15.7193H330.419ZM342.599 27.0593L340.638 26.6671L340.159 29.0593H342.599V27.0593ZM343.799 27.0593V29.0593H345.33L345.729 27.5811L343.799 27.0593ZM355.239 15.7193V24.4193H359.239V15.7193H355.239ZM357.239 22.4193C352.215 22.4193 348.568 24.3191 346.217 27.1964C343.92 30.0088 342.999 33.5796 342.999 36.7793H346.999C346.999 34.279 347.728 31.6698 349.315 29.7272C350.849 27.8495 353.323 26.4193 357.239 26.4193V22.4193ZM342.999 36.7793V44.9993H346.999V36.7793H342.999ZM344.999 42.9993H335.399V46.9993H344.999V42.9993ZM337.399 44.9993V25.6193H333.399V44.9993H337.399ZM337.399 25.6193C337.399 24.8834 337.196 24.0031 336.505 23.3126C335.815 22.6221 334.935 22.4193 334.199 22.4193V26.4193C334.243 26.4193 333.963 26.4265 333.677 26.141C333.392 25.8555 333.399 25.5752 333.399 25.6193H337.399ZM334.199 22.4193H330.419V26.4193H334.199V22.4193ZM332.419 24.4193V15.7193H328.419V24.4193H332.419ZM330.419 17.7193H340.379V13.7193H330.419V17.7193ZM340.379 17.7193C341.019 17.7193 341.385 17.8782 341.541 17.9975C341.609 18.0496 341.646 18.0989 341.671 18.1524C341.698 18.2079 341.739 18.324 341.739 18.5393H345.739C345.739 16.9933 345.102 15.6863 343.972 14.8211C342.913 14.0104 341.598 13.7193 340.379 13.7193V17.7193ZM341.739 18.5393C341.739 19.7705 341.48 21.7554 341.194 23.5402C341.055 24.4094 340.915 25.1939 340.81 25.7612C340.758 26.0446 340.714 26.2729 340.684 26.4295C340.669 26.5078 340.657 26.5682 340.649 26.6085C340.645 26.6286 340.642 26.6438 340.64 26.6536C340.639 26.6585 340.639 26.6621 340.638 26.6644C340.638 26.6655 340.638 26.6666 340.638 26.6671C340.638 26.667 340.638 26.6673 340.638 26.6671C340.638 26.667 340.638 26.6671 342.599 27.0593C344.56 27.4515 344.56 27.4514 344.56 27.4513C344.56 27.4515 344.56 27.4512 344.56 27.4513C344.56 27.451 344.56 27.4502 344.56 27.4498C344.56 27.4488 344.561 27.4475 344.561 27.4459C344.562 27.4427 344.563 27.4381 344.564 27.4321C344.566 27.4202 344.57 27.403 344.574 27.3807C344.583 27.3361 344.595 27.2713 344.611 27.1882C344.644 27.0221 344.689 26.7831 344.744 26.488C344.853 25.8984 344.998 25.0817 345.144 24.1734C345.427 22.4032 345.739 20.1281 345.739 18.5393H341.739ZM342.599 29.0593H343.799V25.0593H342.599V29.0593ZM345.729 27.5811C347.357 21.5601 351.463 17.7193 357.239 17.7193V13.7193C349.214 13.7193 343.841 19.2385 341.868 26.5375L345.729 27.5811Z" fill="#191919"/>
</g>
</g>
<path d="M398.75 7.25C388.395 7.25 380 15.6447 380 26C380 36.3553 388.395 44.75 398.75 44.75C409.105 44.75 417.5 36.3553 417.5 26C417.5 15.6447 409.105 7.25 398.75 7.25ZM410.24 37.4905C407.391 40.3312 403.587 42.0093 399.568 42.198C395.549 42.3866 391.603 41.0723 388.501 38.511C385.398 35.9497 383.36 32.325 382.784 28.3432C382.207 24.3613 383.134 20.3075 385.384 16.9717C387.633 13.6359 391.044 11.257 394.951 10.2986C398.859 9.3402 402.983 9.8709 406.521 11.7873C410.058 13.7038 412.756 16.8686 414.087 20.6652C415.419 24.4618 415.29 28.6182 413.724 32.3245C412.908 34.2557 411.725 36.0101 410.24 37.4905Z" fill="#191919"/>
<path d="M391.873 31.0004H405.623V33.5004H391.873V31.0004ZM395.204 23.8162L393.326 22.1466L394.995 20.2684L393.127 18.6074L391.457 20.4857L389.579 18.8162L387.918 20.6846L389.796 22.3542L388.127 24.2324L389.995 25.8934L391.665 24.0151L393.543 25.6846L395.204 23.8162ZM408.745 20.2684L406.877 18.6074L405.207 20.4857L403.329 18.8162L401.668 20.6846L403.546 22.3542L401.877 24.2324L403.745 25.8934L405.415 24.0151L407.293 25.6846L408.954 23.8162L407.076 22.1466L408.745 20.2684Z" fill="#191919"/>
<defs>
<filter id="filter0_d_2061_63160" x="58.543" y="0.279297" width="301.695" height="49.4395" filterUnits="userSpaceOnUse" color-interpolation-filters="sRGB">
<feFlood flood-opacity="0" result="BackgroundImageFix"/>
<feColorMatrix in="SourceAlpha" type="matrix" values="0 0 0 0 0 0 0 0 0 0 0 0 0 0 0 0 0 0 127 0" result="hardAlpha"/>
<feOffset dx="1" dy="2"/>
<feComposite in2="hardAlpha" operator="out"/>
<feColorMatrix type="matrix" values="0 0 0 0 0 0 0 0 0 0 0 0 0 0 0 0 0 0 1 0"/>
<feBlend mode="normal" in2="BackgroundImageFix" result="effect1_dropShadow_2061_63160"/>
<feBlend mode="normal" in="SourceGraphic" in2="effect1_dropShadow_2061_63160" result="shape"/>
</filter>
</defs>
</svg>
