<svg width="106" height="106" viewBox="0 0 106 106" fill="none" xmlns="http://www.w3.org/2000/svg">
<g filter="url(#filter0_d_2041_64789)">
<rect x="23" y="23" width="60" height="60" rx="30" fill="#262626" shape-rendering="crispEdges"/>
<rect x="25" y="25" width="56" height="56" rx="28" stroke="#9E00FF" stroke-width="4" shape-rendering="crispEdges"/>
<g filter="url(#filter1_di_2041_64789)">
<path d="M43 56.4L54.6667 36C54.6667 36 53 44.5 54.6667 49.6C55.6958 52.7491 63 49.6 63 49.6L51.3333 70C51.3333 70 53 60.65 51.3333 56.4C50.1247 53.318 43 56.4 43 56.4Z" fill="#9E00FF"/>
<path d="M43 56.4L54.6667 36C54.6667 36 53 44.5 54.6667 49.6C55.6958 52.7491 63 49.6 63 49.6L51.3333 70C51.3333 70 53 60.65 51.3333 56.4C50.1247 53.318 43 56.4 43 56.4Z" stroke="#B338FF" stroke-width="2" stroke-linejoin="round"/>
</g>
</g>
<defs>
<filter id="filter0_d_2041_64789" x="0.6" y="0.6" width="104.8" height="104.8" filterUnits="userSpaceOnUse" color-interpolation-filters="sRGB">
<feFlood flood-opacity="0" result="BackgroundImageFix"/>
<feColorMatrix in="SourceAlpha" type="matrix" values="0 0 0 0 0 0 0 0 0 0 0 0 0 0 0 0 0 0 127 0" result="hardAlpha"/>
<feOffset/>
<feGaussianBlur stdDeviation="11.2"/>
<feComposite in2="hardAlpha" operator="out"/>
<feColorMatrix type="matrix" values="0 0 0 0 0.619608 0 0 0 0 0 0 0 0 0 1 0 0 0 0.4 0"/>
<feBlend mode="normal" in2="BackgroundImageFix" result="effect1_dropShadow_2041_64789"/>
<feBlend mode="normal" in="SourceGraphic" in2="effect1_dropShadow_2041_64789" result="shape"/>
</filter>
<filter id="filter1_di_2041_64789" x="25.2" y="18.2" width="55.6" height="69.6" filterUnits="userSpaceOnUse" color-interpolation-filters="sRGB">
<feFlood flood-opacity="0" result="BackgroundImageFix"/>
<feColorMatrix in="SourceAlpha" type="matrix" values="0 0 0 0 0 0 0 0 0 0 0 0 0 0 0 0 0 0 127 0" result="hardAlpha"/>
<feOffset/>
<feGaussianBlur stdDeviation="8.4"/>
<feComposite in2="hardAlpha" operator="out"/>
<feColorMatrix type="matrix" values="0 0 0 0 0.62 0 0 0 0 0 0 0 0 0 1 0 0 0 0.7 0"/>
<feBlend mode="normal" in2="BackgroundImageFix" result="effect1_dropShadow_2041_64789"/>
<feBlend mode="normal" in="SourceGraphic" in2="effect1_dropShadow_2041_64789" result="shape"/>
<feColorMatrix in="SourceAlpha" type="matrix" values="0 0 0 0 0 0 0 0 0 0 0 0 0 0 0 0 0 0 127 0" result="hardAlpha"/>
<feOffset/>
<feGaussianBlur stdDeviation="2.9"/>
<feComposite in2="hardAlpha" operator="arithmetic" k2="-1" k3="1"/>
<feColorMatrix type="matrix" values="0 0 0 0 1 0 0 0 0 1 0 0 0 0 1 0 0 0 0.5 0"/>
<feBlend mode="normal" in2="shape" result="effect2_innerShadow_2041_64789"/>
</filter>
</defs>
</svg>
