<svg width="19" height="19" viewBox="0 0 19 19" fill="none" xmlns="http://www.w3.org/2000/svg">
<path d="M5.53356 9.49974L8.93356 12.3331L13.4669 6.66641M9.50023 17.4331C8.45841 17.4331 7.42679 17.2279 6.46427 16.8292C5.50176 16.4305 4.62719 15.8461 3.89051 15.1095C3.15384 14.3728 2.56947 13.4982 2.17078 12.5357C1.7721 11.5732 1.56689 10.5416 1.56689 9.49974C1.56689 8.45792 1.7721 7.4263 2.17078 6.46378C2.56947 5.50127 3.15384 4.6267 3.89051 3.89003C4.62719 3.15335 5.50176 2.56898 6.46427 2.1703C7.42679 1.77161 8.45841 1.56641 9.50023 1.56641C11.6043 1.56641 13.6222 2.40224 15.1099 3.89003C16.5977 5.37781 17.4336 7.39569 17.4336 9.49974C17.4336 11.6038 16.5977 13.6217 15.1099 15.1095C13.6222 16.5972 11.6043 17.4331 9.50023 17.4331Z" stroke="#4EC902" stroke-width="1.4"/>
</svg>
