<svg width="278" height="60" viewBox="0 0 278 60" fill="none" xmlns="http://www.w3.org/2000/svg">
<path d="M52.0669 31.4166C52.4956 30.7363 52.7192 29.9534 52.7286 29.1612V22.8052C52.7286 19.5713 51.7966 16.4119 50.0352 13.6999C48.2738 10.9879 45.7668 8.83504 42.8124 7.51165L26.1209 0V14.2032L0.585045 1.72414V8.08015C0.594365 11.3048 1.52633 14.4548 3.28775 17.1575C5.03984 19.8602 7.54684 22.013 10.4918 23.3364H10.5012L2.9802 27.0363C2.25327 27.3905 1.64749 27.931 1.21878 28.6114C0.79008 29.2917 0.566406 30.0746 0.566406 30.876H0.575726V37.2134C0.575726 40.4473 1.50769 43.616 3.26911 46.328C5.03053 49.0494 7.53751 51.1929 10.5012 52.5256L27.1927 60V45.918L52.7192 58.3597V52.013C52.7192 48.7884 51.7873 45.6198 50.0259 42.9077C48.2644 40.1957 45.7575 38.0429 42.8031 36.7195L50.3148 33.0103C51.0417 32.6375 51.6475 32.0969 52.0669 31.4166ZM26.1023 43.3551L14.9746 37.931L26.1023 32.9077V43.3551ZM27.2113 27.1295V16.6915L38.339 22.1249L27.2113 27.1295Z" fill="white"/>
<path d="M100.128 40.9048C100.128 40.7277 100.128 40.5134 100.128 39.8237C100.128 36.8041 99.4295 35.1359 98.7678 34.5674L97.8824 33.8312L98.5348 32.8899C99.3736 31.4453 99.7463 29.7771 99.6252 28.1182V23.7659C99.6252 21.0725 98.9169 19.2179 97.4444 18.1089C96.0185 17.1583 94.3223 16.7016 92.6075 16.8134H70.1191V45.3782H73.9216V35.2291H92.3465C93.0828 35.2571 93.7818 35.5646 94.2944 36.0958C94.7697 36.6177 95.1424 37.2328 95.3847 37.8945C95.655 38.5469 95.7948 39.2459 95.8134 39.9542V45.3782H100.175V44.7352V40.998M95.888 28.1555C95.8973 28.5842 95.8135 29.0129 95.6457 29.4136C95.4779 29.8144 95.2263 30.1685 94.9094 30.4668C94.2943 31.0166 93.4929 31.3148 92.6634 31.3055H73.9216V20.7091H92.971C93.3624 20.7184 93.7445 20.8116 94.0893 20.9793C94.4435 21.1471 94.751 21.3894 94.9933 21.6876C95.5339 22.2841 95.8414 23.0576 95.8414 23.8591L95.888 28.1555Z" fill="white"/>
<path d="M126.82 16.8027H121.191L103.754 45.4141H108.535L112.309 40.2883H135.068L138.488 45.4141H143.568L126.82 16.8027ZM113.903 36.7282L123.866 20.5865L133.512 36.7282H113.903Z" fill="white"/>
<path d="M253.074 16.8027H247.622L230.744 45.4141H235.32L238.983 40.2883H261.136L264.407 45.4141H269.29L253.074 16.8027ZM240.558 36.7282L250.26 20.5306L259.644 36.7282H240.558Z" fill="white"/>
<path d="M179.215 41.5092V45.4141H147.873V16.8027H178.059V20.717H151.47V28.5642H176.177V32.4784H151.47V41.5092H179.215Z" fill="white"/>
<path d="M218.014 16.8027V45.4141H211.854L188.443 22.2734V45.4141H184.062V16.8027H188.405L213.624 41.8633V16.8027H218.014Z" fill="white"/>
<path d="M277.435 16.8027H273.455V45.4141H277.435V16.8027Z" fill="white"/>
</svg>
